<svg width="171" height="178" viewBox="0 0 171 178" fill="none" xmlns="http://www.w3.org/2000/svg">
<path d="M39.6088 172.399C38.6993 168.981 37.9942 164.405 37.5917 160.896C37.4647 159.797 37.9916 160.259 37.9227 159.497C37.7878 158.008 37.3069 156.689 37.2062 155.208C37.1748 154.718 37.954 155.178 37.9061 154.666C37.6399 151.869 36.9428 149.3 36.5185 146.494C34.4275 132.66 31.9503 119.142 29.4839 105.207C28.6692 100.608 28.1655 94.9339 26.9748 90.2602C26.8353 89.7154 26.3213 90.1571 26.2529 90.0614C25.1968 88.5452 26.4732 88.8677 26.4171 87.7603C26.1916 83.3677 25.3246 78.6278 24.3065 74.5416C23.8749 72.8194 23.0622 74.7955 23.3683 72.9048C23.3882 72.7729 24.0892 73.1032 24.0618 72.6061C23.9965 71.4697 23.4996 69.4655 23.3838 68.591C23.1689 66.9329 23.1144 66.6791 22.831 65.1422C22.4451 63.0183 22.2811 60.4548 21.7268 58.2434C21.6067 57.7721 21.0941 58.5286 20.8424 57.7695C20.5884 56.9983 20.2727 54.982 20.2941 54.256C20.3157 53.5326 20.8663 53.7389 20.9575 53.5951C21.7325 52.4093 19.9801 50.3144 19.8905 50.002C18.7971 46.1816 18.4417 42.6364 18.0327 39.0524C17.8527 37.4926 17.6764 36.0025 17.4265 34.441C16.7938 30.4992 15.9062 26.2456 15.4756 22.3878C15.0122 17.7583 14.8244 13.9708 15.1051 8.93135C15.1554 8.3905 14.3318 8.96994 14.4069 8.2512C14.5233 7.3017 14.6804 6.28333 15.1856 5.03524C15.6183 3.81695 16.9281 2.26127 17.8232 1.66396C22.6148 -1.13094 25.0821 0.35812 27.6369 0.72166C30.139 1.35031 32.3322 2.2133 34.4998 3.20033C35.0629 3.46161 34.0897 3.81026 34.6331 4.10747C38.0327 5.91821 42.8135 9.5027 46.034 7.83661C48.2841 9.00982 50.9872 10.4607 52.74 11.9908C53.8654 12.9751 52.2856 12.9869 54.0138 13.5152C54.3998 13.634 54.2234 12.8355 54.7823 13.0577C57.1475 14.0001 59.5184 15.4664 61.8752 16.345C62.3606 16.5253 62.5029 15.9598 62.6773 15.9368C63.4499 15.8482 64.1385 16.4217 64.6684 17.0246C65.1506 17.5623 65.4882 18.1171 65.6496 18.2594C68.2897 20.5778 70.5608 21.644 73.1995 23.4571C73.8135 23.8838 73.5149 22.7551 74.1228 23.1463C77.2547 25.1777 80.2899 27.6486 82.7924 30.3252C83.3475 30.9229 82.3594 30.91 82.6004 31.2191C83.653 32.5744 84.7651 31.9395 85.7631 33.2669C85.9741 33.5474 85.4468 33.8087 85.4496 33.8964C85.4787 35.2595 87.0278 34.9011 87.2296 35.0638C89.7647 37.0768 90.0759 39.544 92.1867 41.7437C92.4403 42.0086 92.4515 40.9234 93.1317 41.6985C95.4025 44.2926 97.529 47.1272 99.4604 50.05C101.553 53.194 102.961 56.6834 103.783 60.1C104.034 61.164 103.293 60.5814 103.253 60.668C102.613 62.0096 104.097 62.3032 104.241 62.6398C105.321 65.2653 104.603 67.9671 106.443 69.617C106.864 75.0897 106.893 80.4842 106.5 85.808C106.341 87.3159 106.217 88.9772 104.735 90.8566C104 91.7785 102.547 92.6037 101.17 92.6002C99.8012 92.6248 98.757 92.1414 97.9572 91.6377C93.965 88.8954 92.831 84.8025 92.2421 81.2284C92.2191 81.0799 92.9353 81.1597 92.8881 80.8678C92.4261 77.371 91.6077 78.2705 89.9714 76.0905C89.562 75.5256 90.8977 73.5549 91.0029 73.401C91.3655 72.7969 92.4115 73.2943 92.4747 73.0985C92.98 71.512 89.6964 72.0025 89.597 69.8231C89.5999 69.7558 90.2174 70.0147 90.2707 69.8322C90.4386 69.2663 90.1826 68.7207 90.3825 68.1697C90.8512 66.9084 92.4446 66.4951 91.5554 64.6072C91.4443 64.365 89.5489 64.6844 89.719 62.7667C89.7466 62.4765 89.784 61.8052 89.8413 61.0362C89.9135 59.6307 90.3606 57.7838 90.7458 57.082C91.3423 55.971 91.5556 57.02 91.6158 56.9384C92.6511 55.664 93.2657 55.5557 93.6684 55.5579C94.0871 55.5886 94.4335 55.746 95.2612 55.8114C96.8331 56.0868 95.0526 53.9595 95.4198 53.3718C95.6612 52.9967 96.6795 52.7501 97.4503 52.7229C97.864 52.7041 98.2268 52.7221 98.4058 52.7471C98.9131 52.8209 98.4922 53.3619 98.9143 53.3605C101.673 53.4205 99.6577 51.692 100.429 51.0221C102.342 49.4728 104.41 51.2761 106.273 51.3166C106.793 51.329 106.333 50.8904 106.794 50.8111C108.624 50.5214 109.724 51.1452 111.812 50.6079C112.14 50.5165 113.929 49.3507 114.951 50.3676C115.094 50.5133 114.613 50.9892 115.377 51.1761C116.506 51.4511 118.538 51.8268 119.791 51.8597C120.708 51.8808 119.816 50.8651 120.911 51.3206C121.396 51.5263 120.376 51.8528 121.288 52.1991C122.199 52.5381 124.574 53.0115 125.474 53.2121C126.377 53.4063 126.036 52.661 126.118 52.6353C126.621 52.4935 128.425 52.6291 128.581 52.6747C136.333 54.6601 142.765 58.2881 149.904 61.0673C150.463 61.288 150.378 60.5013 150.466 60.5285C152.468 61.1202 150.237 62.1014 151.285 63.2502C151.679 61.9063 152.338 62.4812 153.72 62.9685C154.382 63.2013 154.27 62.5537 154.351 62.5314C155.635 62.2407 155.841 63.5148 155.909 63.7876C156.173 64.799 157.258 64.2928 157.441 64.9772C157.62 65.6558 156.319 65.8727 157.553 66.484C158.122 66.2163 157.793 64.5954 158.825 64.8834C160.481 65.3508 162.516 66.3993 164.504 67.6103C168.227 69.6585 168.977 74.1345 169.209 75.8518C169.327 76.568 169.409 77.1608 169.487 77.6715C169.766 79.6129 169.842 80.6308 169.68 82.1684C169.11 85.686 170.16 84.48 170.1 86.874C169.846 89.2894 167.917 87.4049 167.346 87.5511C166.771 87.6517 167.15 88.1294 166.752 88.3576C166.719 88.376 166.689 88.3869 166.661 88.392C166.559 88.41 166.486 88.3516 166.419 88.2897C166.333 88.2095 166.258 88.1234 166.152 88.1769C166.089 88.2082 166.015 88.2882 165.918 88.4462C165.553 89.1237 165.156 91.484 165.357 92.0551C165.854 93.2487 167.54 93.1051 165.607 94.77C165.495 94.8589 165.329 94.1077 164.927 94.4655C161.743 97.2694 158.182 99.5216 154.491 101.104C153.986 101.316 154.077 100.474 153.78 100.589C150.673 101.749 152.261 102.216 151.185 104.206C150.789 102.473 149.441 101.985 147.186 103.005C145.802 103.623 146.367 104.192 145.682 105.073C145.473 105.34 144.286 105.285 144.252 105.683C144.118 106.995 145.548 107.813 142.936 108.33C142.821 108.351 142.916 107.627 142.539 107.739C140.066 108.466 140.227 109.704 137.704 110.821C135.727 111.697 131.836 112.316 129.487 112.998C128.876 111.158 126.892 112.312 126.4 113.889C124.901 114.338 123.248 114.967 121.76 115.259C121.238 115.364 121.394 114.722 121.311 114.685C120.514 114.315 120.111 114.753 119.842 115.169C119.833 115.172 119.805 115.18 119.796 115.182C119.632 115.415 119.513 115.643 119.396 115.692C115.915 117.099 112.734 116.872 109.529 118.648C109.418 118.711 109.526 120.073 108.377 119.339C108.302 119.288 109.283 118.418 107.667 118.762C106.038 119.109 102.798 119.146 100.707 120.286C100.199 120.561 99.06 121.957 97.7667 121.385C97.5928 121.307 97.6647 120.893 97.4027 120.734C96.5578 120.229 96.4935 121.644 95.4141 120.71C94.3529 119.772 92.4545 119.329 90.3797 120.636C90.3127 120.676 90.0228 121.853 89.302 122.004C88.1484 122.246 86.492 122.403 85.2947 122.69C84.7242 122.827 85.2427 123.394 85.1463 123.429C81.4029 124.69 78.5357 124.744 74.3703 125.45C73.6066 125.578 71.6523 126.973 70.0296 126.611C68.2487 126.215 69.1451 122.624 65.643 124.25C64.2312 124.903 63.3043 129.41 60.15 127.932C55.1049 129.674 50.0662 129.737 45.0696 131.743C44.8444 131.833 44.3872 133.144 43.8428 133.261C43.0245 133.435 42.4417 133.018 41.855 133.126C39.4042 133.561 37.2818 134.572 34.931 135.095C34.0478 135.293 34.2159 134.668 33.141 134.911C32.0648 135.156 31.5805 136.046 30.0358 136.08C28.8931 136.097 27.416 134.919 25.9369 135.133C26.2792 136.59 25.2686 136.827 23.6396 137.686C23.3301 137.852 23.8224 138.255 23.6834 138.359C23.1342 138.79 22.3822 138.552 21.8609 139.003C21.7323 139.112 21.8646 139.605 21.7682 139.722C20.9747 140.727 18.922 140.13 18.6033 140.017C18.601 140.016 18.5988 140.016 18.5965 140.015C17.2293 139.635 16.9477 140.413 15.9943 140.395C15.0399 140.379 16.2207 139.619 15.1586 139.761C12.9839 140.048 10.3547 141.018 8.28071 141.803C7.4584 142.119 8.26874 142.533 8.15658 142.593C6.55205 143.405 4.53275 143.548 4.30806 145.222C1.54739 142.795 3.37875 145.939 1.26225 146.94C1.11651 147.024 -0.408666 146.196 0.105458 145.321C0.657465 144.442 2.04733 144.128 2.86923 143.242C3.04774 143.026 3.7743 140.917 3.96014 140.736C5.22308 139.344 6.39872 141.569 6.52831 141.657C7.996 142.63 9.0519 140.44 9.48489 140.163C11.3757 138.912 13.3156 138.651 14.9239 137.751C16.0309 137.151 15.6196 135.579 16.5658 135.347C16.7743 135.296 16.9784 135.256 17.1784 135.226C19.8471 134.846 21.4782 136.313 23.6092 133.824C24.1006 133.256 23.0711 131.692 25.5893 132.46C25.7419 132.51 27.7223 133.304 28.4298 132.283C28.5211 132.154 28.3859 131.654 28.5299 131.571C29.5032 131.025 30.3083 131.242 31.3829 130.761C32.4769 130.275 33.7551 129.646 35.1 129.487C35.9222 129.388 37.1378 130.078 37.5703 130.213C38.7868 130.61 39.66 129.244 40.501 129.885C41.3558 130.527 40.3726 132.064 42.2242 132.159C41.9666 130.837 41.7842 129.46 41.5647 128.121C45.3594 127.237 49.1877 126.761 52.9753 125.796C53.4423 125.676 52.7946 125.087 53.2914 124.94C55.3969 124.32 57.3712 124.381 59.5388 123.659C61.2055 123.1 62.9121 121.912 64.6533 121.305C66.0995 122.547 68.6293 121.418 70.5892 121.104C71.2751 120.994 71.3235 121.405 71.8338 121.423C73.7566 121.484 72.5991 120.357 73.0466 120.033C74.9703 118.646 75.8483 121.602 78.3431 120.942C78.476 120.908 79.7277 118.931 79.9271 118.78C81.1958 117.799 80.2913 119.281 81.2102 119.191C82.8897 119.027 84.0988 119.147 85.9009 118.231C86.4251 117.963 87.5168 116.657 88.7823 117.172C88.948 117.24 88.9934 117.786 89.1149 117.79C91.3006 117.821 90.9631 116.15 92.0156 115.309C93.0633 114.47 95.1525 115.185 95.6054 115.426C96.779 116.049 94.947 115.967 94.9121 116.063C94.5257 117.207 95.8266 116.719 96.8578 116.563C97.3905 118.154 98.7799 117.721 97.9233 116.396C97.8282 116.251 97.0793 116.589 96.8578 116.563C97.3568 114.76 98.895 114.179 100.954 115.262C101.925 115.768 101.371 116.763 103.744 115.877C104.814 115.477 104.118 114.462 105.031 113.918C107.096 112.683 110.252 113.017 112.519 112.278C113.329 112.013 112.374 111.602 112.92 111.4C114.419 110.85 115.827 110.982 117.304 110.354C117.435 110.297 116.938 109.743 117.404 109.615C117.706 109.531 118.003 109.451 118.296 109.376L117.995 109.463C121.15 108.444 124.073 107.845 127.374 106.712C129.131 106.111 132.097 104.664 133.907 104.063C137.033 103.036 141.146 102.431 143.619 101.1C145.227 100.236 144.58 99.795 145.107 99.0664C146.071 97.6855 149.096 97.943 149.505 97.9981C149.527 97.9987 148.217 98.822 149.105 98.7599C149.849 99.1777 149.492 98.0079 149.505 97.9981C149.798 98.0403 152.54 96.7515 152.984 96.3271C153.229 96.1055 152.759 95.6559 152.89 95.5517C156.001 93.0854 158.845 90.7687 160.775 88.5079C160.815 88.4717 161.341 88.9396 161.432 88.8449C162.122 88.1326 162.341 87.3484 162.377 86.5834C162.411 85.8955 162.3 85.2322 162.22 84.5523C162.042 83.1088 162.235 82.1469 163.411 81.1687C163.303 80.4796 163.363 79.5866 163.413 78.7014C163.426 77.9238 163.486 77.277 163.526 76.8079C163.613 75.6782 162.257 75.9963 162.216 75.9305C161.693 75.2686 161.439 75.0782 161.321 74.9047C161.197 74.7412 161.165 74.5433 160.863 74.244C160.194 73.7773 159.43 73.2651 158.565 72.767C157.082 71.9042 153.964 70.538 152.242 69.8754C150.878 69.3479 150.211 68.6808 148.912 68.305C148.736 68.2538 148.649 68.8806 148.589 68.8786C146.93 68.9151 148.195 67.8673 148.022 67.4976C147.401 66.1622 146.956 65.3974 145.006 65.0528C144.55 64.9694 142.54 66.4365 141.757 66.2523C140.735 66.0073 141.386 65.4455 140.305 65.2142C140.213 65.1943 140.058 65.6387 139.442 65.3753C136.583 64.1613 133.488 62.773 130.417 61.8838C129.999 61.7611 130.314 62.6383 129.71 62.4751C126.874 61.7098 123.809 60.8977 121.137 60.0147C120.482 59.7959 121.003 59.3646 120.886 59.1834C120.142 58.0786 118.618 59.2119 118.41 59.2076C113.367 59.1106 109.554 57.6513 104.937 58.8747C104.654 58.9393 103.142 60.7054 102.066 59.7168C102.007 59.6448 100.815 58.6391 100.411 59.7149C100.392 59.7794 101.032 60.2217 100.3 60.4486C100.284 60.4534 100.268 60.4582 100.252 60.4627C99.8911 60.5585 99.5778 60.8068 99.4947 60.8745C99.3924 60.9587 99.5474 60.7555 99.3253 60.4328C99.2579 60.3345 98.966 60.078 98.7352 60.0415C98.5101 59.9937 98.3596 60.193 98.7944 60.6075C98.8309 60.6517 99.6929 61.1912 99.9368 61.7029C100.061 62.178 99.9712 62.6189 99.3803 62.8618C99.1148 62.9683 97.4222 62.7623 98.2287 64.4509C98.3873 64.7698 98.7788 64.2139 98.992 65.0425C99.3225 66.3019 98.8701 67.9739 99.6813 69.4601C99.8233 69.7242 101.016 70.7597 100.217 71.688C100.092 71.8358 99.5093 71.6152 99.4842 72.0896C99.3662 74.3437 100.066 76.5481 100.193 78.6065C100.246 79.3397 99.2651 79.2186 99.2495 80.0292C99.2251 80.8367 99.5568 82.3486 100.25 82.7515C100.921 83.1238 101.894 81.899 102.375 82.4836C102.84 83.0147 103.164 83.1889 103.132 83.1619C102.87 83.0223 102.235 82.6117 100.805 82.6525C99.3562 82.6471 97.6254 83.7364 97.141 84.4717C96.5795 85.215 96.6022 85.5118 96.6135 85.5418C96.642 85.5738 96.7225 85.3819 96.7779 85.1034C97.0841 82.8551 97.3247 80.6062 97.3617 78.3724C97.3724 77.502 96.8653 78.2251 96.8306 76.955C96.7999 72.1775 95.0492 64.7669 94.5842 61.0711C94.2443 57.9815 96.3551 61.209 95.7508 58.9126C95.4256 57.7692 93.3538 57.51 93.1884 57.3322C92.5957 56.6682 92.1595 56.0493 91.7676 55.4408C90.8552 54.0488 90.1959 52.6788 89.0249 51.3754C88.6555 50.9663 88.4353 51.8082 88.1275 51.4573C87.0715 50.2653 86.2761 48.7753 85.2671 47.6525C84.8133 47.1514 84.492 47.5812 84.1246 47.0869C83.2333 45.9044 82.532 44.7891 81.9056 43.4008C81.8469 43.2728 82.9345 43.4837 82.1954 42.6592C81.0021 41.3345 79.7662 39.4146 77.9162 38.388C77.3634 38.0848 76.5545 38.9546 76.1337 37.4783C76.0419 37.1707 77.2529 36.3134 75.2866 36.2576C74.9534 36.2343 71.9636 35.9246 71.649 34.336C71.5629 33.9106 71.6067 32.468 70.8978 32.176C70.8012 32.1416 70.7378 32.8905 70.2174 32.5864C68.3825 31.5037 66.5767 30.2037 64.6158 29.2252C64.0919 28.9664 64.4797 29.9844 63.7121 29.5842C62.3313 28.8686 60.7827 27.9374 59.3064 27.0394C58.4734 26.5366 57.6964 26.0476 56.9732 25.5841C56.1982 25.0862 57.0159 24.8966 56.9848 24.8125C56.4897 23.4502 55.3266 24.3241 54.9717 24.2246C52.8162 23.6146 51.5941 22.2908 49.7247 21.5265C49.2045 21.312 49.277 22.0506 49.152 22.05C47.873 22.0161 49.148 21.399 48.5519 20.9605C46.8807 19.7286 44.8339 18.7801 42.9389 17.9691C42.2528 17.6775 42.7044 18.6949 42.0824 18.4215C38.4316 16.8371 34.7172 15.1153 31.4078 13.453C30.7914 13.1427 31.3892 12.768 31.2992 12.5985C30.6468 11.4023 28.8873 12.1005 28.5589 12.1218C27.0314 12.1998 26.6294 11.5773 25.4979 11.4133C24.6749 11.3021 23.8679 11.2374 23.3979 11.261C23.1728 11.2689 23.038 11.3093 23.1785 11.2988C23.3078 11.2764 23.8109 11.226 24.6357 10.6242C24.5693 10.6795 24.8102 10.5005 25.0376 10.2287C25.2705 9.9577 25.4489 9.64951 25.5289 9.47101C25.6868 9.10134 25.6019 9.21096 25.5593 9.49014C25.4498 10.0713 25.3812 11.2067 25.376 12.3202C25.3633 14.6081 25.511 17.0976 25.6828 19.3192C26.2226 25.8713 26.7536 31.4298 27.6588 37.438C27.9187 39.1466 28.2235 40.9421 28.5812 42.8088C28.6823 43.34 29.3218 42.6782 29.4174 43.129C30.6066 48.8757 31.3875 54.7334 32.6887 60.5032C32.794 60.9758 33.3583 60.1595 33.5509 60.9147C33.9533 62.4754 34.2925 64.4746 34.3759 66.1175C34.4185 66.922 33.6237 65.9826 33.679 66.7911C33.8015 68.6472 34.1319 70.6395 34.5999 72.4724C34.8016 73.2575 35.279 71.9218 35.4863 72.9539C36.9182 80.0053 38.3997 86.9176 38.8942 94.2288C38.928 94.73 37.5747 95.4432 38.0579 96.4347C38.4726 96.4344 38.9412 96.337 39.3746 96.2869C41.6403 106.508 43.1888 116.798 45.1928 127.114C45.2775 127.549 45.8871 126.644 46.055 127.486C47.0285 132.361 48.1973 137.044 48.452 142.178C48.4784 142.688 47.0875 142.705 47.5863 144.123C47.6759 144.375 48.2996 146.529 48.7056 147.037C48.7651 147.105 49.3088 146.578 49.4707 147.28C50.4018 151.374 51.1337 155.7 51.5881 159.883C51.6602 160.558 50.851 159.989 50.8964 160.47C51.2237 163.883 52.4714 167.419 52.5187 170.738C52.5478 172.96 51.2359 172.402 50.3352 173.77C50.2082 173.963 50.4529 175.293 49.808 175.496C48.1871 176.009 46.2421 175.738 44.5297 176.361C44.1607 176.494 44.9321 178.185 43.7987 177.322C43.7223 177.261 43.155 176.037 42.7786 175.784C42.518 175.607 41.9289 176.141 41.5612 175.747C41.1938 175.354 41.6547 174.745 41.1784 174.065C40.6981 173.386 40.0028 173.87 39.6088 172.399ZM163.281 72.7434C163.139 71.7211 161.655 73.6163 162.425 73.5374C162.463 73.5319 163.284 72.7915 163.281 72.7434ZM49.5948 128.523C51.36 129.184 52.0516 127.423 50.7804 126.889C49.5112 126.356 49.0568 128.323 49.5948 128.523ZM33.9354 133.181C35.9074 133.538 35.36 130.177 33.6247 131.325C33.5241 131.391 33.8206 133.16 33.9354 133.181ZM48.9381 168.564C48.9103 168.587 49.074 169.545 49.1095 169.562C49.9575 169.917 49.6296 168.001 48.9381 168.564ZM18.5021 138.226C19.1615 138.509 20.6379 137.533 19.7801 137.186C19.0776 136.909 17.6659 137.877 18.5021 138.226ZM106.423 52.476C106.401 52.4406 105.709 52.4733 105.745 52.6736C105.856 53.3119 106.779 53.0468 106.423 52.476ZM2.99723 153.675C1.34441 152.419 0.599111 150.505 1.00179 149.751C1.16982 149.365 1.47421 149.244 1.76519 149.306C2.06625 149.37 2.38172 149.653 3.05037 150.365C3.53186 150.906 1.33637 149.933 1.79745 150.752C2.78898 152.361 4.85929 151.614 5.8507 153.467C6.03389 153.808 3.1852 153.845 2.98908 153.673C2.9918 153.674 2.99451 153.674 2.99723 153.675ZM164.823 70.2595C164.835 70.2084 164.068 69.6116 164.025 69.6384C163.234 70.0032 164.618 71.0744 164.823 70.2595ZM93.7028 83.6146C93.6276 83.6931 94.5423 85.8997 94.6696 85.9294C96.2465 86.4065 94.5012 82.2537 93.7028 83.6146ZM129.433 112.962C128.678 114.033 127.531 114.52 126.405 113.888C127.439 113.592 128.411 113.267 129.433 112.962Z" fill="#FC4C02"/>
</svg>
