<svg width="197" height="187" viewBox="0 0 197 187" fill="none" xmlns="http://www.w3.org/2000/svg">
<path d="M69.1 5.59874C68.9808 6.36673 68.373 7.1682 67.7865 7.7214C67.6036 7.89522 67.2662 7.61235 67.1225 7.72446C66.8421 7.94394 66.9101 8.29762 66.6025 8.50061C66.4987 8.56703 65.9399 8.1726 65.8451 8.24859C65.3296 8.66697 65.2536 9.24916 64.8754 9.73778C63.0099 12.1477 61.5793 14.6936 60.0613 17.3013C59.5619 18.1601 58.5105 19.003 58.3311 20.0446C58.3107 20.1663 58.8771 20.345 58.912 20.3857C59.4426 21.017 58.4074 20.4178 58.1675 20.564C57.2186 21.1448 56.7454 22.057 56.5858 22.9601C56.5196 23.3447 57.7425 23.4835 56.9869 23.5583C56.9355 23.564 56.4048 23.2182 56.3013 23.2849C56.0675 23.4367 55.9857 23.8883 55.8655 24.0332C55.6309 24.3114 55.613 24.3662 55.4695 24.6652C55.2678 25.0732 54.7612 25.4368 54.6894 25.9386C54.6758 26.0465 55.3171 26.1864 55.3482 26.3823C55.379 26.5784 55.1484 26.9551 54.9497 27.027C54.7508 27.099 54.3174 26.8334 54.2013 26.8094C53.2236 26.6022 54.2456 27.6213 54.2492 27.6943C54.275 29.0164 53.1518 29.6285 52.6939 30.6432C52.3459 31.4185 52.2017 32.3516 51.8373 33.0703C51.4021 33.9228 50.7455 34.528 50.4145 35.4021C50.3788 35.4941 51.1137 35.7009 51.0716 35.8139C50.6252 37.0098 50.0216 38.1405 49.0327 39.0862C48.9329 39.1808 48.3975 38.7574 48.2617 38.8355C47.4458 39.3155 45.7393 39.9095 48.1749 41.5231C47.8534 41.9586 47.4831 42.4923 46.7582 42.682C46.2905 42.8066 45.7566 42.2368 45.8812 42.7072C45.9086 42.8129 46.5298 42.9738 46.5272 43.1126C46.5162 43.6964 46.0876 44.143 46.1669 44.758C46.1844 44.8837 46.7121 45.0913 46.7924 45.1612C47.4388 45.7353 46.0203 45.5563 45.8918 45.5993C44.925 45.9383 44.9749 46.5322 44.6862 47.1237C44.6189 47.2609 45.3862 47.4114 45.3463 47.5547C45.1305 48.2928 44.7452 48.9822 44.1267 49.5267C43.9877 49.6465 43.4612 49.2388 43.3646 49.2823C42.946 49.4772 44.0281 50.0546 43.6484 50.2505C43.5698 50.2924 43.0813 50.0264 43.0205 50.013C42.0663 49.8006 43.2275 50.521 43.2333 50.5806C43.335 51.3445 41.8722 51.1431 41.7903 51.8068C41.7819 51.8867 42.492 52.021 42.4292 52.2278C42.0167 53.6022 41.2159 54.8959 40.1225 55.9421C39.9535 56.1047 39.5381 55.7445 39.4733 55.7301C38.4562 55.5125 39.635 56.2079 39.6522 56.2937C39.7556 56.9569 38.4954 56.9701 39.8121 57.9898C38.3177 59.913 38.1513 62.4718 35.8509 64.014C35.8232 64.0342 35.2357 63.7072 35.1831 63.7486C34.544 64.2423 35.5452 64.5575 36.5052 65.5224C36.7458 65.7657 35.1939 65.4611 35.0779 65.4437C34.6508 65.3787 33.7947 64.8528 33.705 64.8554C32.9943 64.8908 36.016 66.2127 35.8341 66.6135C35.8233 66.6237 35.2952 66.3189 35.225 66.3274C35.005 66.353 35.1772 66.5565 34.9407 66.5714C34.3938 66.6048 32.9015 66.0151 33.5836 66.7663C33.6728 66.8623 35.406 67.5704 35.1604 67.895C35.0609 68.0241 34.8 68.672 34.6091 68.798C34.4182 68.9243 33.9255 68.5523 33.896 68.5541C32.9537 68.6979 32.7357 68.3802 31.5539 68.1268C30.3764 67.8747 32.9565 68.9752 33.197 69.2019C33.438 69.4253 32.6768 69.5085 32.4296 69.4992C32.1819 69.4907 31.883 69.2233 31.7301 69.2465C30.7278 69.4046 32.8934 70.0494 33.2213 70.4024C33.9987 71.236 31.9678 70.6765 31.6188 70.9494C31.5244 71.0232 31.9912 71.1414 31.9921 71.246C31.9905 71.6557 31.3052 71.5938 31.6652 72.2366C31.7237 72.3415 32.7147 73.1804 31.7867 73.0029C31.6532 72.9768 31.2198 72.6786 31.0471 72.7768C30.7884 72.9232 30.5056 73.2685 30.5564 73.5733C30.5941 73.7986 31.4606 73.9575 31.1204 74.0631C30.9687 74.1097 30.5961 73.7237 30.3491 73.8285C30.1011 73.9356 29.9055 74.415 29.8401 74.5989C29.7749 74.7832 30.4081 74.9564 30.4412 74.9889C30.6286 75.1799 30.7572 75.6485 30.7429 75.6779C30.1271 77.2095 28.4983 78.1397 28.1443 79.7735C28.1163 79.8999 28.772 80.1089 28.7742 80.1311C28.8533 80.6437 27.3461 79.5749 26.6679 79.5945C27.9452 80.1344 27.6427 80.1914 27.6547 80.5289C27.6615 80.6919 28.1821 80.8445 28.2265 80.8795C28.8776 81.4145 27.8541 81.1198 27.6424 81.0645C26.8614 80.8662 27.6452 81.4023 27.1227 81.2708C26.6038 81.1408 25.9914 80.6078 25.8771 80.8798C26.2931 81.1624 27.5622 81.5065 27.6595 81.7975C28.0324 82.8877 26.4461 83.8973 26.0705 84.458C25.6987 85.011 25.6818 85.2655 25.3546 85.5456C24.7618 86.0548 25.7444 86.2222 25.9603 86.8039C26.1766 87.3845 24.118 86.1971 23.6299 86.0401C23.1424 85.8825 23.5907 86.1604 23.3033 86.1156C23.0165 86.0696 22.7744 85.7693 22.6012 85.8934C22.4279 86.0181 23.0379 86.8535 23.4935 87.1355C24.4587 87.7335 25.6259 88.0288 25.0467 88.2894C25.0127 88.304 24.4858 87.961 24.3844 88.0301C24.1623 88.1874 23.9724 88.3603 23.7982 88.5395C23.3424 89.0219 22.9886 89.5429 22.4638 89.9492C22.3624 90.0266 21.7774 89.6427 21.7113 89.6844C21.0087 90.1437 22.1745 90.4058 23.1863 91.3049C21.659 90.4962 20.6105 90.2463 20.3796 90.7168C20.2401 90.9998 20.9489 91.2633 21.3407 91.6798C21.4588 91.8053 20.8924 91.7948 21.196 91.9824C22.1879 92.5967 23.4533 92.9533 22.7519 93.2334C22.7195 93.2448 22.1775 92.9065 22.1075 92.9655C21.6504 93.3488 22.7323 93.8964 22.6095 94.5039C22.5133 94.9802 21.5155 95.3657 21.1754 95.8054C19.4244 94.9694 19.6167 95.6035 20.7433 96.3509C20.5545 96.6229 20.4631 96.9933 20.1558 97.2103C20.0507 97.2851 19.5745 96.9779 19.5136 96.9648C18.56 96.7536 19.6746 97.4411 19.6899 97.528C19.8036 98.4463 18.6367 98.6032 19.1805 99.7024C19.2002 99.7416 20.3974 100.363 19.4223 100.121C19.3555 100.103 18.9093 99.6145 18.714 99.9133C18.5227 100.204 17.5766 100.506 17.9299 101.212C18.0153 101.382 18.8716 102.126 17.9936 101.978C17.8749 101.957 17.5422 101.757 17.3281 101.706C16.6451 101.544 17.836 102.21 16.718 101.864C15.6017 101.514 14.6609 101.469 15.1628 102.262C15.1769 102.286 16.097 102.864 16.0149 102.993C15.8855 103.194 15.5196 103.431 15.4148 103.661C15.3643 103.773 16.0009 103.997 16.0025 104.022C15.9719 104.938 15.1691 105.214 14.5409 105.891C14.4196 106.025 15.0352 106.838 14.2398 106.809C13.3747 106.766 10.6012 104.958 10.9424 106.017C11.0797 106.439 14.6038 108.72 12.4179 108.234C12.3702 109.486 10.911 109.867 11.0325 111.208C11.0367 111.269 11.9689 111.988 11.8956 112.084C11.7869 112.222 11.2615 112.042 11.1684 112.13C10.7603 112.505 10.9091 113.162 10.5758 113.562C10.4516 113.711 10.0078 113.359 9.85954 113.536C9.76701 113.647 9.94507 113.897 9.9761 114.085C9.99375 114.197 9.95881 114.288 9.78346 114.314C9.42414 114.369 8.02558 113.74 7.71454 113.89C8.95438 114.725 8.81352 114.885 8.92168 115.424C8.94255 115.528 9.41581 115.759 9.44752 115.824C9.58482 116.097 9.15381 115.959 9.31102 116.241C9.34829 116.309 9.76191 116.609 9.81491 116.683C10.2785 117.328 9.10856 116.968 8.91244 116.893C8.15721 116.626 8.60169 117.131 8.24333 117.093C7.8905 117.047 7.78801 116.59 7.50942 116.638C6.9388 116.729 6.62624 117.169 6.28399 117.431C6.15098 117.536 6.67861 117.982 6.66998 118.009C6.47109 118.403 5.76942 118.01 6.31795 119.27C4.22536 116.435 6.30366 119.696 5.4036 119.373C5.33127 119.346 4.57586 117.867 4.57947 117.593C4.57677 117.322 5.00734 117.677 4.96278 117.255C4.966 117.149 4.26636 115.744 4.21641 115.662C3.91084 114.975 5.46126 116.908 5.56312 117.002C6.62649 118.038 5.80883 116.524 5.76709 116.401C5.66183 115.772 6.12011 115.787 6.04154 115.295C5.99013 114.975 4.73705 113.939 4.86342 113.86C5.2768 113.599 7.26473 114.716 5.95498 113.15C5.67477 112.816 4.13355 111.927 5.5251 112.357C5.61129 112.386 6.85927 112.813 6.28436 112.212C6.21166 112.137 5.77574 111.858 5.75615 111.808C5.68215 111.611 5.80445 111.569 5.90669 111.5C5.97429 111.455 6.03216 111.398 6.0149 111.277C5.9712 110.976 5.86375 110.592 6.14711 110.466C6.31571 110.391 7.24535 110.718 7.48641 110.775C8.18315 110.936 7.33635 110.176 8.11606 110.475C8.89902 110.776 9.84797 111.645 10.4951 111.596C9.33837 110.91 8.15904 110.191 6.99827 109.497C7.41753 108.866 8.16459 108.411 8.48691 107.683C8.5262 107.591 7.84047 107.34 7.86609 107.232C7.96967 106.794 8.6049 106.694 8.64161 106.178C8.65824 105.795 8.16329 105.084 8.15965 104.667C9.64026 105.151 9.42358 104.424 9.73523 104.116C9.84194 104.012 10.2052 104.205 10.3708 104.174C10.9883 104.048 9.69069 103.602 9.54711 103.41C8.9343 102.593 11.6999 103.945 11.8789 103.412C11.8897 103.384 10.5691 102.352 10.499 102.263C10.0361 101.695 11.0334 102.471 11.2272 102.352C11.5858 102.125 12.0369 102.095 11.7879 101.51C11.713 101.339 10.9231 100.626 11.7324 100.771C11.8387 100.789 12.3191 101.041 12.3583 101.033C13.0285 100.866 11.5019 100.108 11.0959 99.6224C10.6865 99.144 11.9136 99.3086 12.2549 99.3814C13.1366 99.5726 12.5222 99.6901 12.5951 99.737C13.4596 100.302 13.425 99.9687 13.6003 99.8044C15.1192 100.502 15.1664 100.173 13.7763 99.6304C13.6242 99.5718 13.6884 99.7974 13.6003 99.8044C12.2113 98.9103 12.1635 98.5256 13.7061 98.8527C14.4297 99.0046 15.1107 99.5208 15.0695 98.8983C15.0513 98.6163 13.9708 98.2087 13.7787 97.8833C13.3378 97.1468 14.589 97.0166 14.6456 96.5039C14.6681 96.3135 14.0233 96.2029 14.0192 96.0633C14.0048 95.6956 14.5673 95.6126 14.4838 95.2235C14.476 95.1871 13.8493 94.9699 13.8851 94.8747C14.1479 94.1415 14.8228 93.7014 15.1819 92.9667C15.3625 92.5959 15.3228 91.8257 15.5661 91.4794C15.9902 90.8651 17.2104 90.5198 17.2663 89.8502C17.3015 89.4228 16.6636 89.2302 16.328 88.8871C15.6743 88.2287 17.3336 88.3618 17.5863 88.3914C17.5944 88.3929 17.5904 88.7692 17.9745 88.7466C18.6587 88.9482 17.5874 88.3961 17.5863 88.3914C17.7493 88.411 18.1777 87.846 18.1165 87.6788C18.0845 87.5842 17.5011 87.3572 17.4951 87.3128C17.423 86.7245 17.4692 86.1799 17.643 85.6805C17.771 85.3072 17.9765 84.9624 18.2641 84.6472C18.2824 84.6377 18.9061 84.954 18.9412 84.928C19.4496 84.5703 18.8216 83.892 18.5421 83.2878C18.2649 82.6789 18.5666 82.4315 19.7662 82.6959C19.7714 82.3248 20.4528 82.1148 20.8581 82.0047C21.2645 81.8925 20.0458 81.2869 20.0314 81.2539C19.5634 80.2142 20.464 80.1211 20.894 79.4778C21.1026 79.1688 21.2332 78.4138 21.2696 77.9791C21.296 77.6353 21.6617 77.6034 21.5989 77.2523C21.5906 77.2051 21.0238 76.988 21.0076 76.9674C20.4853 76.3689 21.7651 77.1299 22.0334 77.1794C23.0092 77.3595 23.5376 77.4365 23.303 76.8639C23.2496 76.7321 21.4315 75.5827 21.393 75.368C21.3463 75.0907 22.0031 75.4917 21.9343 75.1982C21.929 75.1734 21.4988 74.9805 21.5789 74.856C21.9445 74.2768 22.5102 73.7024 22.7669 73.03C22.8029 72.9406 22.0717 72.7409 22.1125 72.6064C22.3046 71.9754 22.6322 71.3276 23.2223 70.8804C23.3697 70.7713 23.8037 71.0811 23.9596 71.1142C24.9052 71.3087 23.7839 70.475 23.7812 70.4183C23.6701 69.0844 25.1821 68.7536 25.1407 67.4292C25.1364 67.3556 24.0138 66.2875 25.2507 66.6044C25.3332 66.6252 26.5954 66.9565 25.8787 66.4101C25.8339 66.376 25.1737 66.228 25.3367 66.0339C25.5014 65.8357 25.2574 65.3065 26.0569 65.3069C26.3088 65.3069 27.5781 65.615 26.779 64.9041C26.7226 64.8559 24.8223 63.4529 26.3453 63.9572C26.5959 64.0406 28.1184 64.7695 27.4887 64.0657C27.3661 63.9302 26.9691 63.8932 26.8346 63.6221C26.6271 63.2044 27.1938 63.052 26.6576 62.4163C26.5621 62.3049 25.6294 61.5897 26.5083 61.7584C26.6459 61.7848 27.1323 62.0762 27.2361 62.0006C27.7314 61.6444 27.6253 60.9693 28.2014 60.6459C28.4048 60.5302 29.1932 60.9968 29.4975 60.918C29.8017 60.8392 30.1815 60.5723 29.8895 60.2096C29.5973 59.8468 28.1818 59.4517 28.2061 59.1187C28.3181 57.6578 29.64 56.8117 30.3236 55.6123C30.4238 55.4373 29.8821 55.3733 29.9953 55.1012C30.4088 54.101 30.7558 52.1642 32.1493 51.7674C33.2689 51.4422 33.485 52.5918 34.0533 52.212C34.3257 52.0278 32.9158 51.0513 32.8956 50.9674C32.6807 50.1369 33.5499 50.032 33.5868 49.3971C33.5942 49.2659 32.9218 49.0919 32.935 48.9833C32.9747 48.6098 33.4082 48.3943 33.4992 48.0595C33.5386 47.9086 33.0513 47.7179 33.1466 47.6058C33.3689 47.3357 33.6947 47.1501 34.2748 47.0575C34.3277 47.0489 34.8362 47.5008 34.9609 47.285C35.1611 46.935 35.8078 46.6799 35.5462 46.05C35.4668 45.8623 34.382 45.3631 35.2556 45.4341C35.4382 45.4486 36.7105 46.1147 35.7262 45.2864C35.5625 45.149 34.2842 43.9231 35.3807 44.114C35.6696 44.1634 36.8167 44.4755 36.7172 44.2487C36.6997 44.2162 36.0786 44.0324 36.0783 43.8819C36.0875 43.356 36.3597 42.9225 36.3833 42.3852C36.3884 42.2412 35.7021 42.1472 35.729 41.9413C35.8032 41.3726 36.237 40.8265 36.6458 40.4292C36.7977 40.2831 37.2422 40.6338 37.3026 40.6456C38.2834 40.8395 37.1437 40.1725 37.1054 40.0715C36.8839 39.4503 37.5954 39.3761 37.6282 38.909C37.6388 38.7807 37.0331 38.5999 36.9922 38.5548C36.5988 38.1014 37.5458 38.7363 37.7243 38.6433C38.2268 38.386 38.3827 37.9209 38.4945 37.4814C38.5346 37.3197 37.7972 37.187 37.8409 37.0453C38.0861 36.2029 38.5284 35.3969 39.2414 34.795C39.3773 34.6814 39.8449 35.0041 39.975 35.0266C40.8835 35.1872 39.9128 34.3768 39.8391 34.2582C39.5021 33.7181 40.009 33.7977 40.0539 33.4755C40.267 31.8945 41.338 30.3271 42.1168 29.1006C43.1254 27.5081 44.2115 26.4018 44.8221 24.721C44.8617 24.6143 44.1369 24.4112 44.1623 24.3153C44.523 23.0858 45.2967 22.0835 45.6251 20.839C45.6532 20.7376 44.949 20.5828 44.9725 20.4102C45.0164 20.0536 45.2299 19.6756 45.5772 19.4548C45.7455 19.3464 46.2035 19.8018 46.3617 19.6876C46.7311 19.4223 46.9516 19.0577 47.0161 18.6414C47.0422 18.4637 46.2777 18.4031 46.3628 18.1952C46.9307 16.7693 47.4342 15.3577 48.9245 14.3326C49.0267 14.2625 50.4005 14.7827 50.2371 14.4621C49.8735 14.2787 49.4373 14.082 49.0442 13.8957C49.7485 11.7746 51.1208 9.97791 52.1142 7.97612C52.1559 7.89173 51.3813 7.7191 51.4584 7.55425C51.9035 6.59982 52.1301 5.57855 53.2788 4.9142C53.3917 4.8479 54.6138 5.46166 54.5557 5.08935C54.5442 5.02318 54.5741 4.51564 54.3546 4.2814C54.3207 4.24775 53.704 4.06337 53.7502 3.91637C54.0289 3.0667 54.5463 2.27765 55.2678 1.62963C55.3853 1.52563 55.9411 1.94491 56.0301 1.87327C56.6573 1.36293 56.5119 0.432643 57.3592 0.057096C57.9285 -0.193276 58.9272 0.447468 60.0815 0.700354C60.2443 0.735953 60.3862 0.485444 61.0048 0.74947C62.5607 1.41267 64.1898 2.30335 65.855 2.99532C66.2135 3.14457 65.9912 2.62222 66.7518 3.2165C66.8025 3.25688 66.9712 3.63898 67.2327 3.83279C67.4134 3.96709 68.0718 4.17097 68.2882 4.37595C68.5043 4.58081 67.938 4.4417 68.1727 4.72537C68.4113 5.01067 69.1492 5.26711 69.1 5.59874ZM22.6835 81.483C23.3847 81.5226 21.2281 80.4854 21.631 80.9786C21.6531 81.0036 22.6488 81.4816 22.6835 81.483ZM9.74676 109.272C10.8266 109.497 9.57336 108.551 8.74505 108.369C7.92092 108.181 9.4207 109.201 9.74676 109.272ZM8.73698 112.541C9.64464 112.656 6.7821 110.833 7.16189 111.523C7.18332 111.562 8.6841 112.534 8.73698 112.541ZM59.9103 1.87551C59.9407 1.88542 60.0539 1.71047 60.0273 1.69299C59.3804 1.27938 59.1544 1.62941 59.9103 1.87551ZM7.58631 115.754C8.02232 115.941 7.79886 115.352 7.25436 115.129C6.82092 114.944 7.05021 115.514 7.58631 115.754ZM30.5524 70.4728C30.5864 70.4841 30.6767 70.364 30.4923 70.2828C29.8978 70.0216 29.9794 70.2835 30.5524 70.4728ZM3.43129 118.732C4.11457 118.7 5.78032 121.057 4.55592 121.137C4.35211 121.14 4.70009 120.157 4.38582 119.99C3.87818 119.667 3.98514 121.452 3.3415 120.612C3.25349 120.455 3.40985 118.727 3.43173 118.728C3.43158 118.729 3.43144 118.73 3.43129 118.732ZM25.3553 82.5524C25.3861 82.561 25.5004 82.3849 25.4741 82.3671C24.8315 81.9467 24.6008 82.3013 25.3553 82.5524ZM35.4818 63.247C35.5477 63.265 35.8019 62.86 35.7519 62.8199C34.7244 62.0793 34.2072 62.8966 35.4818 63.247ZM21.1251 95.7908C21.7201 96.321 21.6875 96.601 20.7446 96.3505C20.8843 96.1738 20.9864 95.975 21.1251 95.7908Z" fill="#FC4C02"/>
<path d="M136.953 33.4337C136.91 34.2997 136.388 35.1846 135.874 35.7702C135.711 35.9601 135.345 35.7158 135.214 35.8432C134.952 36.1105 135.069 36.4171 134.785 36.6479C134.689 36.7225 134.092 36.39 134.006 36.4732C133.529 36.9638 133.538 37.4713 133.204 38.0112C131.628 40.4567 130.457 43.0421 129.219 45.6336C128.82 46.4642 127.85 47.3773 127.781 48.3671C127.773 48.4853 128.351 48.6187 128.389 48.6554C128.976 49.2268 127.892 48.721 127.668 48.8797C126.778 49.5184 126.412 50.3823 126.331 51.2849C126.304 51.6533 127.526 51.7125 126.788 51.8263C126.737 51.8347 126.178 51.5392 126.083 51.608C125.867 51.7642 125.83 52.1988 125.725 52.3459C125.519 52.6278 125.506 52.6824 125.391 52.9815C125.226 53.3975 124.764 53.7605 124.741 54.2433C124.738 54.3469 125.386 54.4414 125.436 54.6263C125.485 54.811 125.292 55.1874 125.101 55.2704C124.911 55.3531 124.457 55.125 124.339 55.1095C123.351 54.9718 124.453 55.9008 124.466 55.9632C124.628 57.1948 123.556 57.8944 123.204 58.8719C122.936 59.62 122.87 60.547 122.578 61.2472C122.228 62.0803 121.633 62.7003 121.381 63.5649C121.354 63.6536 122.1 63.8104 122.07 63.9194C121.744 65.0668 121.232 66.2287 120.348 67.1616C120.257 67.2574 119.689 66.8831 119.562 66.9651C118.798 67.4675 117.154 68.1484 119.714 69.5473C119.437 69.9752 119.117 70.5073 118.415 70.7315C117.963 70.8763 117.383 70.3605 117.548 70.8041C117.585 70.904 118.214 71.0233 118.224 71.1566C118.263 71.7199 117.877 72.1727 118.012 72.7506C118.041 72.8694 118.582 73.0393 118.668 73.1016C119.359 73.6143 117.938 73.5217 117.814 73.5704C116.887 73.9452 116.986 74.5166 116.751 75.1014C116.697 75.2345 117.469 75.3391 117.443 75.4767C117.297 76.1874 116.975 76.8689 116.409 77.4235C116.282 77.5463 115.725 77.1837 115.633 77.2308C115.234 77.4417 116.356 77.9372 115.995 78.1492C115.921 78.1945 115.414 77.9655 115.353 77.956C114.388 77.8062 115.603 78.4289 115.613 78.486C115.781 79.209 114.316 79.0903 114.293 79.7278C114.292 79.8046 115.007 79.8957 114.962 80.0968C114.665 81.4545 113.995 82.7018 112.995 83.7757C112.841 83.9425 112.399 83.6177 112.333 83.6074C111.306 83.4545 112.533 84.0611 112.557 84.1435C112.711 84.7857 111.473 84.8392 112.863 85.7488C111.54 87.6855 111.603 90.1109 109.446 91.7234C109.421 91.7441 108.811 91.4609 108.763 91.5031C108.17 92.0096 109.191 92.2534 110.225 93.1262C110.484 93.3458 108.921 93.131 108.805 93.1203C108.376 93.0794 107.484 92.6192 107.395 92.6261C106.694 92.6957 109.799 93.8086 109.651 94.2043C109.641 94.2148 109.093 93.9491 109.024 93.961C108.808 93.9974 108.995 94.1847 108.761 94.2122C108.222 94.2735 106.691 93.7913 107.43 94.4746C107.504 94.5418 108.569 94.9055 108.961 95.2176C108.945 95.2837 108.846 95.461 108.822 95.5245C108.927 95.634 108.972 95.7309 108.912 95.7996C108.807 95.9176 108.518 96.5249 108.323 96.6316C108.128 96.7388 107.658 96.3409 107.628 96.3403C106.689 96.4053 106.488 96.0814 105.33 95.7431C104.176 95.4061 106.679 96.6722 106.907 96.9098C107.134 97.1472 106.383 97.1551 106.139 97.1247C105.896 97.0943 105.611 96.8155 105.46 96.8235C104.468 96.8821 106.578 97.6828 106.886 98.0487C107.614 98.9194 105.629 98.2188 105.27 98.4553C105.173 98.5194 105.629 98.6709 105.625 98.7723C105.602 99.1705 104.929 99.0517 105.259 99.6919C105.312 99.7964 106.255 100.68 105.348 100.428C105.218 100.391 104.803 100.069 104.629 100.146C104.364 100.269 104.064 100.584 104.098 100.884C104.123 101.107 104.973 101.33 104.63 101.406C104.477 101.439 104.129 101.034 103.878 101.116C103.628 101.198 103.415 101.634 103.343 101.803C103.271 101.972 103.887 102.194 103.919 102.228C104.095 102.427 104.202 102.883 104.186 102.91C103.485 104.358 101.839 105.085 101.403 106.619C101.369 106.737 102.005 106.998 102.006 107.02C102.057 107.518 100.625 106.355 99.9555 106.31C101.188 106.946 100.886 106.972 100.881 107.295C100.879 107.452 101.385 107.647 101.426 107.684C102.037 108.265 101.044 107.883 100.837 107.812C100.077 107.549 100.821 108.137 100.312 107.962C99.8072 107.789 99.2319 107.22 99.104 107.471C99.4992 107.781 100.734 108.229 100.813 108.518C101.119 109.604 99.4994 110.414 99.091 110.924C98.6839 111.432 98.6725 111.638 98.325 111.889C97.7053 112.327 98.6665 112.581 98.8416 113.166C99.0169 113.75 97.0589 112.404 96.5864 112.206C96.1148 112.006 96.5385 112.321 96.2592 112.246C95.9802 112.172 95.757 111.864 95.5813 111.961C95.4048 112.06 95.9654 112.904 96.3939 113.227C97.3082 113.899 98.4437 114.296 97.8516 114.496C97.8169 114.507 97.3191 114.123 97.2137 114.181C96.3926 114.654 95.9703 115.333 95.1923 115.835C95.0858 115.902 94.5349 115.471 94.4662 115.505C93.7495 115.863 94.8805 116.238 95.8225 117.2C94.367 116.269 93.3574 115.907 93.0937 116.342C92.9331 116.606 93.6122 116.938 93.9721 117.376C94.0807 117.508 93.5245 117.436 93.8116 117.647C94.7492 118.34 95.9723 118.817 95.2641 119.008C95.2314 119.015 94.7195 118.634 94.6467 118.683C94.175 118.993 95.1929 119.654 95.0348 120.216C94.9089 120.66 93.8951 120.928 93.532 121.307C91.8648 120.315 92.009 120.945 93.0651 121.788C92.8538 122.038 92.7501 122.362 92.4294 122.54C92.3196 122.602 91.8729 122.253 91.8137 122.234C90.8877 121.929 91.9353 122.714 91.9434 122.8C91.9853 123.7 90.8276 123.715 91.2833 124.829C91.3001 124.869 92.4343 125.598 91.4928 125.254C91.4284 125.23 91.0232 124.714 90.8109 124.975C90.6054 125.225 89.6437 125.42 89.9411 126.135C90.0102 126.311 90.8056 127.11 89.9497 126.872C89.8342 126.839 89.5215 126.609 89.3143 126.536C88.6532 126.304 89.7762 127.079 88.6997 126.622C87.6225 126.166 86.7051 126.006 87.143 126.82C87.1549 126.845 88.0167 127.506 87.9238 127.625C87.7747 127.815 87.4077 127.983 87.2867 128.193C87.229 128.294 87.8392 128.582 87.839 128.605C87.7363 129.489 86.9417 129.638 86.2637 130.239C86.1381 130.348 86.687 131.197 85.9068 131.082C85.0589 130.946 82.4444 128.918 82.7112 129.971C82.8213 130.387 86.1412 132.954 84.0212 132.261C83.8989 133.464 82.4457 133.692 82.513 135.02C82.5155 135.08 83.4239 135.824 83.3473 135.916C83.234 136.047 82.7236 135.835 82.6289 135.918C82.2252 136.251 82.3661 136.902 82.0523 137.266C81.9307 137.41 81.4877 137.057 81.3432 137.228C81.1989 137.4 81.7529 137.913 81.291 137.977C80.9386 138.027 79.5309 137.419 79.224 137.58C80.4914 138.373 80.3525 138.539 80.4987 139.055C80.5275 139.155 81.0102 139.363 81.0467 139.425C81.2051 139.679 80.7747 139.556 80.9556 139.82C80.9991 139.884 81.4343 140.151 81.4946 140.218C82.024 140.794 80.8611 140.497 80.6585 140.446C79.8857 140.256 80.3984 140.693 80.0501 140.693C79.7016 140.693 79.5175 140.272 79.2543 140.359C79.1906 140.38 79.1315 140.406 79.0764 140.436C79.0742 140.439 79.0697 140.448 79.0676 140.451C78.6557 140.696 78.4796 141.158 78.2785 141.496C78.1904 141.65 78.8502 141.86 78.8516 141.89C78.8342 142.295 78.0229 142.281 79.1263 143.098C75.9087 141.668 79.3273 143.453 78.4437 143.591C78.3708 143.604 76.9135 142.808 76.7701 142.567C76.6269 142.326 77.1886 142.38 76.9545 142.012C76.8998 141.925 75.6579 140.945 75.5936 140.864C75.0855 140.248 77.3056 141.357 77.4336 141.406C78.8254 141.918 77.5105 140.818 77.4559 140.674C77.2506 140.166 77.5139 139.95 77.5612 139.627C77.5703 139.615 77.5899 139.572 77.5994 139.56C77.6136 139.477 77.6128 139.385 77.5845 139.277C77.499 138.943 76.1179 138.086 76.262 137.942C76.7366 137.474 78.7884 138.464 77.4253 136.928C77.1357 136.599 75.5578 135.773 76.9898 136.113C77.0799 136.134 78.3442 136.52 77.7632 135.924C77.6899 135.849 77.25 135.576 77.2306 135.525C77.1114 135.184 77.5332 135.287 77.4927 134.979C77.4513 134.673 77.357 134.269 77.6469 134.138C77.822 134.056 78.7505 134.392 78.9923 134.451C79.6891 134.62 78.8645 133.837 79.6347 134.16C80.408 134.486 81.329 135.382 81.9729 135.364C80.8423 134.635 79.6909 133.873 78.5582 133.133C79.0187 132.492 79.793 132.08 80.1664 131.376C80.2117 131.288 79.5469 130.987 79.5778 130.885C79.7082 130.462 80.3569 130.399 80.4213 129.911C80.4674 129.533 80.0296 128.79 80.0586 128.38C81.4789 129.012 81.3267 128.269 81.657 128.004C81.77 127.915 82.1142 128.14 82.2795 128.128C82.8954 128.077 81.6492 127.505 81.5208 127.306C80.9729 126.457 83.6197 128.03 83.8192 127.563C83.8308 127.539 82.6093 126.394 82.5466 126.301C82.1333 125.701 83.058 126.56 83.2578 126.466C83.6254 126.292 84.0782 126.304 83.8719 125.722C83.8101 125.55 83.081 124.783 83.8733 125.003C83.9772 125.032 84.4313 125.329 84.4708 125.325C85.1494 125.231 83.694 124.344 83.3275 123.836C82.9593 123.332 84.1601 123.621 84.4904 123.731C85.3452 124.013 84.7301 124.058 84.7982 124.112C85.6068 124.754 85.5994 124.426 85.7844 124.288C87.2302 125.127 87.295 124.827 85.9685 124.145C85.824 124.07 85.8724 124.291 85.7844 124.288C84.4825 123.274 84.4601 122.906 85.9559 123.393C86.6567 123.621 87.2906 124.192 87.2931 123.595C87.2951 123.323 86.2641 122.805 86.1005 122.469C85.7196 121.714 86.9481 121.752 87.0536 121.246C87.0908 121.064 86.4635 120.886 86.4685 120.754C86.4788 120.403 87.0249 120.41 86.9782 120.015C86.9733 119.978 86.3709 119.701 86.4139 119.613C86.7363 118.92 87.4127 118.607 87.8235 117.932C88.0279 117.595 88.0369 116.861 88.2995 116.557C88.7522 116.027 89.9863 115.812 90.0768 115.191C90.1376 114.789 89.5256 114.53 89.2183 114.164C88.6255 113.45 90.2391 113.775 90.4873 113.828C90.4952 113.83 90.4703 114.184 90.8487 114.206C91.5092 114.472 90.4881 113.832 90.4873 113.828C90.646 113.865 91.0976 113.381 91.0534 113.204C91.0287 113.109 90.4674 112.832 90.4647 112.788C90.4176 111.748 90.6889 110.953 91.3877 110.316C91.4064 110.308 92.0022 110.674 92.0387 110.652C92.5542 110.374 91.9693 109.673 91.7333 109.06C91.4976 108.446 91.8104 108.238 92.9794 108.607C93.0004 108.263 93.6806 108.136 94.0887 108.066C94.4965 107.998 93.3285 107.299 93.3162 107.266C92.9163 106.22 93.8024 106.232 94.2627 105.656C94.4849 105.381 94.654 104.672 94.7128 104.259C94.7595 103.929 95.1197 103.936 95.0753 103.596C95.0695 103.55 94.5216 103.289 94.5067 103.268C94.0211 102.649 95.2451 103.496 95.5071 103.568C96.4599 103.833 96.9772 103.956 96.7742 103.388C96.728 103.257 94.9916 101.992 94.9639 101.784C94.9315 101.515 95.5605 101.957 95.51 101.665C95.5063 101.64 95.0914 101.416 95.1786 101.301C95.565 100.787 96.1444 100.302 96.4314 99.6797C96.4722 99.5956 95.7588 99.3413 95.8069 99.2139C96.04 98.6036 96.3778 98.0427 96.9789 97.6709C97.1284 97.5814 97.5433 97.9145 97.6954 97.9602C98.6173 98.2342 97.5535 97.3296 97.5531 97.2757C97.5254 95.9516 98.9948 95.8357 99.028 94.5343C99.0268 94.4638 97.9689 93.3386 99.1752 93.7488C99.2555 93.776 100.486 94.2032 99.7987 93.6248C99.7557 93.5886 99.1114 93.3891 99.2779 93.222C99.4443 93.0547 99.228 92.5236 100.018 92.59C100.267 92.6106 101.508 93.0087 100.749 92.2611C100.696 92.2102 98.8768 90.7101 100.362 91.3154C100.586 91.4071 101.844 92.1054 101.595 91.6599L101.291 92.3299C101.264 92.2929 101.223 92.2481 101.166 92.1947C101.033 92.0711 100.637 92.0555 100.481 91.8028C100.24 91.4149 100.792 91.2301 100.208 90.6474C100.104 90.5451 99.1209 89.906 100.006 90.0233C100.144 90.0417 100.65 90.2962 100.747 90.2187C101.208 89.8513 101.041 89.225 101.585 88.8857C101.776 88.7651 102.597 89.1716 102.891 89.0816C103.185 88.9947 103.541 88.713 103.222 88.3798C102.902 88.046 101.466 87.7406 101.462 87.4194C101.45 86.0164 102.682 85.1553 103.259 83.9667C103.344 83.7929 102.802 83.7603 102.892 83.4914C103.222 82.4971 103.386 80.6664 104.74 80.192C105.822 79.8216 106.134 80.9111 106.665 80.518C106.919 80.3276 105.437 79.4692 105.41 79.3906C105.124 78.6125 105.97 78.4824 105.957 77.8603C105.953 77.733 105.272 77.6032 105.276 77.4975C105.284 77.1345 105.695 76.9043 105.756 76.58C105.782 76.434 105.283 76.2773 105.367 76.1658C105.564 75.8969 105.868 75.7087 106.435 75.5884C106.486 75.5774 107.03 75.9822 107.134 75.7699C107.301 75.4265 107.918 75.1529 107.607 74.5576C107.512 74.3814 106.394 73.9614 107.266 73.9821C107.448 73.9863 108.766 74.5551 107.719 73.8158C107.545 73.6921 106.17 72.5945 107.273 72.7164C107.564 72.7481 108.727 72.9854 108.608 72.7748C108.588 72.7447 107.957 72.6018 107.943 72.4587C107.904 71.9607 108.136 71.5317 108.113 71.0125C108.106 70.874 107.418 70.8219 107.426 70.623C107.45 70.0757 107.832 69.5289 108.2 69.1305C108.337 68.9841 108.809 69.2941 108.869 69.3022C109.857 69.436 108.669 68.8622 108.622 68.7687C108.344 68.1959 109.047 68.0722 109.037 67.6261C109.036 67.5029 108.42 67.3633 108.376 67.3224C107.946 66.9109 108.94 67.4655 109.109 67.3672C109.583 67.0933 109.697 66.6384 109.767 66.2168C109.791 66.0616 109.05 65.9737 109.08 65.8375C109.242 65.0335 109.615 64.2202 110.265 63.6094C110.389 63.4939 110.881 63.7756 111.012 63.79C111.926 63.8934 110.89 63.1771 110.806 63.0691C110.421 62.5787 110.931 62.623 110.948 62.3097C111.017 60.7815 111.933 59.2282 112.589 58.0167C113.441 56.4348 114.403 55.3424 114.858 53.6785C114.887 53.5747 114.15 53.4237 114.166 53.3311C114.395 52.1704 115.085 51.1133 115.277 49.9437C115.294 49.8467 114.582 49.7428 114.589 49.5747C114.601 49.2264 114.777 48.8485 115.1 48.6161C115.256 48.5023 115.753 48.9083 115.898 48.7896C116.238 48.5135 116.419 48.1587 116.439 47.7654C116.449 47.5908 115.685 47.5859 115.75 47.3781C116.177 45.9721 116.538 44.5898 117.899 43.5439C117.994 43.4684 119.406 43.8726 119.214 43.5743C118.835 43.4231 118.384 43.2643 117.976 43.1124C118.451 41.0705 119.63 39.2461 120.393 37.2862C120.425 37.2047 119.642 37.0925 119.699 36.934C120.035 35.9988 120.145 35.019 121.202 34.312C121.305 34.2432 122.581 34.7345 122.48 34.3922C122.462 34.3262 122.437 33.8337 122.192 33.6323C122.154 33.6034 121.524 33.4752 121.552 33.3345C121.718 32.5419 122.144 31.7286 122.759 31.0994C122.858 31.0019 123.463 31.3381 123.54 31.2697C124.102 30.7081 123.81 29.9256 124.569 29.5382C125.071 29.2993 126.162 29.7514 127.324 29.8849C127.492 29.891 127.563 29.7122 128.215 29.8692C129.878 30.1811 131.652 30.7331 133.425 31.0657C133.52 31.0821 133.575 31.0511 133.617 30.9968C133.67 30.8923 133.713 30.7454 133.768 30.5481C133.825 30.3623 133.883 30.0631 133.98 30.0019C134.078 29.9285 134.236 30.2725 134.419 30.664C134.45 30.7097 134.454 31.2174 134.558 31.3079C134.647 31.4827 134.763 31.6633 134.902 31.7616C135.094 31.8991 135.796 31.919 136.022 32.165C136.258 32.3714 135.673 32.3388 135.933 32.6338C136.194 32.9363 136.969 33.0607 136.953 33.4337ZM95.9217 107.739C96.6122 107.843 94.5419 106.643 94.9115 107.155C94.9318 107.181 95.8876 107.735 95.9217 107.739ZM81.3208 133.041C82.3806 133.339 81.1849 132.325 80.3757 132.081C79.568 131.835 80.9995 132.95 81.3208 133.041ZM80.2185 136.237C81.1205 136.364 78.2773 134.512 78.6472 135.213C78.6674 135.254 80.1658 136.23 80.2185 136.237ZM127.356 30.9382C127.385 30.9521 127.475 30.7673 127.446 30.7534C126.749 30.4325 126.577 30.7857 127.356 30.9382ZM79.2069 139.472C79.6587 139.611 79.3796 139.05 78.8167 138.877C78.3628 138.74 78.6436 139.3 79.2069 139.472ZM104.238 97.9092C104.271 97.9228 104.366 97.8137 104.188 97.7204C103.612 97.4205 103.68 97.6804 104.238 97.9092ZM77.7389 143.64C77.7323 143.667 77.6618 143.618 77.4333 143.626C77.1803 143.649 77.141 143.861 77.2512 143.948C77.4624 144.142 77.847 144.245 78.1509 144.403C78.4626 144.555 78.7364 144.732 78.8364 144.961C78.885 145.075 78.8956 145.199 78.8081 145.356C78.6898 145.508 78.6164 145.737 77.8372 145.975C77.1767 146.084 77.9842 145.722 78.0698 145.331C78.1925 144.958 78.0507 144.694 77.8348 144.712C77.6263 144.72 77.4285 144.871 77.0806 144.876C76.7503 144.876 76.4803 144.784 76.27 144.726C75.8435 144.586 75.5556 144.393 75.9186 144.01C75.9854 143.939 76.4628 143.917 76.9094 143.854C77.3602 143.801 77.7521 143.644 77.7423 143.638C77.7412 143.638 77.7401 143.639 77.7389 143.64ZM98.4989 109.019C98.5299 109.029 98.6497 108.876 98.6244 108.857C98.0124 108.395 97.7698 108.704 98.4989 109.019ZM109.016 91.0086C109.083 91.022 109.302 90.6165 109.249 90.5809C108.17 89.9216 107.723 90.7396 109.016 91.0086ZM93.4834 121.288C94.0322 121.862 93.979 122.129 93.0665 121.787C93.2178 121.631 93.3332 121.45 93.4834 121.288Z" fill="#FC4C02"/>
<path d="M196.287 62.2718C196.216 63.3166 195.676 64.3036 195.128 65.0327C194.959 65.254 194.595 64.9987 194.46 65.1455C194.192 65.4467 194.297 65.8038 194.001 66.088C193.903 66.1736 193.305 65.8375 193.217 65.9322C192.733 66.4739 192.705 67.1168 192.367 67.6999C190.722 70.5343 189.501 73.4026 188.197 76.3761C188.171 76.4337 188.145 76.4916 188.12 76.5497C187.686 77.5328 186.686 78.6027 186.585 79.7403C186.574 79.8732 187.158 79.9877 187.196 80.0265C187.777 80.6317 186.69 80.1303 186.459 80.3223C185.544 81.0855 185.129 82.144 185.038 83.12C184.999 83.5428 186.241 83.5261 185.484 83.7104C185.433 83.7237 184.874 83.4225 184.774 83.509C184.549 83.7047 184.494 84.2128 184.386 84.3782C184.169 84.7062 184.155 84.7682 184.031 85.1101C183.855 85.5788 183.368 86.0386 183.331 86.5838C183.325 86.7016 183.98 86.7678 184.025 86.9747C184.069 87.1814 183.86 87.6211 183.664 87.7274C183.467 87.8333 183.013 87.6029 182.894 87.5927C181.894 87.4993 182.993 88.4571 183.001 88.537C183.111 89.9636 182.02 90.7561 181.614 91.9201C181.314 92.7876 181.217 93.8279 180.893 94.6399C180.498 95.6221 179.872 96.3423 179.582 97.3288C179.551 97.4329 180.304 97.5677 180.267 97.6955C179.877 99.045 179.323 100.334 178.367 101.468C178.27 101.582 177.71 101.185 177.576 101.285C176.768 101.912 175.079 102.714 177.606 104.197C177.297 104.708 176.945 105.321 176.218 105.606C175.75 105.789 175.188 105.232 175.333 105.725C175.364 105.836 175.999 105.944 176.002 106.094C176.012 106.728 175.597 107.249 175.697 107.907C175.719 108.042 176.26 108.212 176.344 108.279C177.017 108.834 175.574 108.79 175.445 108.85C174.478 109.313 174.55 109.943 174.274 110.613C174.209 110.769 174.991 110.855 174.955 111.015C174.756 111.838 174.383 112.622 173.771 113.266C173.633 113.409 173.09 113.017 172.993 113.073C172.573 113.323 173.683 113.846 173.303 114.093C173.224 114.146 172.723 113.903 172.661 113.894C171.69 113.752 172.882 114.425 172.889 114.489C173.006 115.311 171.52 115.223 171.45 115.943C171.443 116.03 172.165 116.113 172.105 116.342C171.71 117.866 170.913 119.331 169.809 120.55C169.638 120.74 169.215 120.381 169.149 120.371C168.116 120.214 169.315 120.877 169.333 120.969C169.44 121.682 168.165 121.778 169.502 122.787C167.981 124.989 167.792 127.759 165.417 129.557C165.388 129.581 164.798 129.257 164.744 129.305C164.08 129.879 165.095 130.158 166.047 131.155C166.286 131.407 164.717 131.148 164.6 131.135C164.167 131.085 163.311 130.555 163.22 130.562C162.497 130.632 165.532 131.924 165.333 132.37C165.322 132.382 164.794 132.075 164.722 132.087C164.498 132.125 164.666 132.339 164.425 132.366C163.867 132.426 162.366 131.857 163.038 132.633C163.126 132.733 164.865 133.429 164.604 133.787C164.499 133.931 164.208 134.644 164.008 134.788C163.808 134.932 163.322 134.546 163.292 134.549C162.327 134.738 162.119 134.401 160.928 134.165C159.741 133.928 162.318 135.038 162.552 135.276C162.786 135.513 162.01 135.622 161.759 135.618C161.508 135.615 161.216 135.335 161.059 135.364C160.035 135.557 162.205 136.198 162.522 136.57C163.272 137.452 161.234 136.897 160.865 137.197C160.764 137.281 161.233 137.397 161.228 137.512C161.2 137.962 160.507 137.906 160.838 138.59C160.892 138.701 161.849 139.591 160.916 139.411C160.782 139.385 160.36 139.069 160.178 139.176C159.908 139.332 159.594 139.716 159.623 140.047C159.645 140.292 160.517 140.454 160.162 140.574C160.004 140.627 159.653 140.21 159.393 140.327C159.134 140.443 158.905 140.951 158.825 141.148C158.798 141.215 158.855 141.281 158.941 141.34C159.033 141.403 159.159 141.459 159.257 141.499C159.337 141.532 159.399 141.556 159.408 141.566C159.413 141.571 159.417 141.576 159.421 141.581C159.589 141.797 159.677 142.283 159.66 142.315C158.901 143.987 157.157 144.962 156.623 146.7C156.581 146.835 157.225 147.081 157.224 147.105C157.247 147.661 155.833 146.461 155.142 146.458C156.38 147.083 156.068 147.13 156.037 147.502C156.023 147.68 156.536 147.862 156.576 147.902C157.172 148.509 156.169 148.146 155.96 148.079C155.19 147.833 155.923 148.44 155.408 148.276C154.897 148.113 154.338 147.517 154.191 147.8C154.579 148.121 155.827 148.548 155.89 148.864C156.13 150.064 154.381 151.057 153.907 151.646C153.436 152.232 153.393 152.479 153.015 152.758C152.331 153.261 153.302 153.515 153.422 154.162C153.539 154.81 151.651 153.363 151.181 153.155C150.713 152.945 151.119 153.283 150.838 153.207C150.556 153.131 150.357 152.795 150.165 152.906C149.975 153.013 150.452 153.956 150.864 154.3C151.737 155.028 152.87 155.45 152.233 155.679C152.196 155.692 151.724 155.274 151.608 155.339C150.711 155.859 150.155 156.66 149.296 157.184C149.176 157.258 148.663 156.779 148.587 156.817C147.792 157.208 148.915 157.628 149.752 158.707C148.376 157.66 147.372 157.262 147.041 157.726C146.84 158.006 147.493 158.387 147.801 158.875C147.894 159.023 147.328 158.931 147.593 159.17C148.458 159.954 149.657 160.505 148.884 160.707C148.849 160.715 148.379 160.28 148.295 160.333C147.749 160.67 148.696 161.431 148.435 162.045C148.231 162.527 147.103 162.815 146.662 163.204C145.113 162.034 145.151 162.724 146.085 163.707C145.818 163.968 145.63 164.338 145.264 164.509C145.139 164.568 144.744 164.16 144.687 164.135C143.789 163.739 144.719 164.664 144.709 164.759C144.563 165.751 143.351 165.686 143.575 166.937C143.583 166.981 144.595 167.873 143.692 167.422C143.631 167.39 143.331 166.789 143.046 167.061C142.759 167.335 141.74 167.428 141.864 168.246C141.895 168.442 142.508 169.409 141.685 169.053C141.574 169.004 141.307 168.722 141.111 168.62C140.485 168.296 141.456 169.256 140.455 168.643C139.454 168.03 138.546 167.753 138.788 168.682C138.795 168.71 139.516 169.523 139.39 169.639C139.189 169.821 138.762 169.958 138.577 170.172C138.488 170.274 139.042 170.662 139.035 170.688C138.694 171.618 137.805 171.694 136.944 172.218C136.786 172.313 137.082 173.322 136.321 173.066C135.49 172.784 133.412 170.204 133.373 171.358C133.36 171.817 135.984 175.099 134.013 174.001C133.509 175.245 131.929 175.216 131.547 176.605C131.53 176.667 132.187 177.645 132.079 177.722C131.918 177.835 131.473 177.503 131.346 177.569C130.807 177.835 130.721 178.536 130.252 178.851C130.075 178.972 129.76 178.499 129.549 178.641C129.339 178.783 129.698 179.455 129.204 179.407C128.829 179.37 127.649 178.385 127.277 178.468C128.236 179.616 128.037 179.745 127.971 180.316C127.959 180.426 128.359 180.77 128.371 180.842C128.424 181.148 128.036 180.91 128.11 181.229C128.127 181.306 128.453 181.699 128.485 181.784C128.772 182.524 127.718 181.904 127.537 181.794C126.846 181.379 127.169 181.973 126.819 181.872C126.47 181.771 126.473 181.286 126.172 181.298C125.548 181.321 125.102 181.785 124.691 182.081C124.529 182.201 125.06 182.65 125.047 182.68C124.825 183.076 124.044 182.767 124.696 183.98C122.31 181.388 124.707 184.404 123.799 184.217C123.726 184.201 122.667 182.922 122.66 182.619C122.653 182.317 123.186 182.561 123.149 182.108C123.141 182.001 122.447 180.569 122.424 180.467C122.248 179.669 123.823 181.586 123.923 181.681C125.006 182.7 124.289 181.129 124.3 180.972C124.354 180.249 124.901 180.256 124.982 179.702C125.037 179.342 124.027 178.067 124.22 177.974C124.857 177.663 126.503 179.242 125.741 177.314C125.579 176.903 124.325 175.637 125.609 176.38C125.689 176.427 126.804 177.156 126.441 176.402C126.395 176.307 126.057 175.915 126.056 175.859C126.052 175.491 126.441 175.699 126.507 175.38C126.573 175.061 126.611 174.636 126.948 174.573C127.15 174.535 127.961 175.104 128.183 175.223C128.817 175.568 128.266 174.564 128.929 175.076C129.597 175.587 130.215 176.724 130.876 176.847C129.984 175.84 129.082 174.795 128.19 173.778C128.859 173.235 129.777 172.975 130.364 172.334C130.436 172.253 129.858 171.806 129.921 171.706C130.189 171.291 130.851 171.368 131.066 170.87C131.229 170.483 130.99 169.642 131.135 169.223C132.4 170.134 132.452 169.338 132.855 169.123C132.997 169.047 133.285 169.34 133.458 169.354C134.102 169.4 132.987 168.598 132.91 168.368C132.579 167.393 134.838 169.485 135.181 169.009C135.201 168.984 134.256 167.592 134.214 167.487C133.944 166.798 134.669 167.836 134.895 167.77C135.308 167.65 135.773 167.722 135.71 167.076C135.691 166.886 135.133 165.977 135.884 166.323C135.983 166.368 136.376 166.743 136.417 166.744C137.127 166.742 135.86 165.602 135.602 165.022C135.344 164.442 136.5 164.905 136.812 165.062C137.62 165.469 136.985 165.436 137.042 165.501C137.722 166.279 137.789 165.934 138.007 165.813C139.295 166.879 139.436 166.56 138.228 165.683C138.096 165.588 138.096 165.827 138.007 165.813C136.9 164.587 136.965 164.189 138.391 164.875C139.059 165.196 139.588 165.869 139.718 165.237C139.778 164.95 138.83 164.29 138.732 163.916C138.508 163.066 139.761 163.228 139.962 162.706C140.035 162.518 139.426 162.27 139.458 162.128C139.541 161.751 140.104 161.801 140.128 161.378C140.13 161.339 139.563 160.993 139.623 160.903C140.064 160.215 140.836 159.901 141.357 159.223C141.612 158.892 141.757 158.081 142.066 157.778C142.602 157.248 143.914 157.053 144.091 156.389C144.207 155.96 143.612 155.659 143.342 155.26C142.815 154.49 144.444 154.867 144.691 154.932C144.699 154.934 144.627 155.319 145.015 155.35C145.662 155.652 144.692 154.936 144.691 154.932C144.85 154.976 145.379 154.456 145.35 154.27C145.335 154.168 144.79 153.858 144.792 153.812C144.852 152.709 145.233 151.826 145.996 151.162C146.016 151.154 146.594 151.548 146.633 151.525C147.2 151.207 146.661 150.454 146.47 149.795C146.279 149.137 146.614 148.911 147.783 149.296C147.833 148.921 148.546 148.762 148.972 148.673C149.398 148.585 148.247 147.859 148.236 147.823C147.897 146.701 148.793 146.708 149.312 146.042C149.56 145.728 149.766 144.96 149.843 144.513C149.901 144.161 150.282 144.132 150.249 143.766C150.245 143.717 149.694 143.463 149.68 143.44C149.208 142.793 150.428 143.647 150.695 143.712C151.662 143.946 152.19 144.047 152.005 143.438C151.963 143.297 150.227 142.024 150.204 141.802C150.179 141.513 150.81 141.955 150.765 141.645C150.761 141.619 150.343 141.402 150.434 141.275C150.848 140.686 151.465 140.096 151.763 139.413C151.805 139.32 151.08 139.095 151.13 138.955C151.282 138.536 151.487 138.111 151.777 137.738C151.94 137.53 152.13 137.338 152.354 137.174C152.507 137.064 152.929 137.391 153.085 137.428C154.027 137.645 152.944 136.752 152.944 136.694C152.909 135.279 154.437 134.96 154.456 133.547C154.455 133.469 153.358 132.362 154.596 132.68C154.679 132.701 155.944 133.031 155.237 132.468C155.193 132.432 154.531 132.286 154.701 132.081C154.873 131.873 154.645 131.315 155.453 131.299C155.708 131.294 156.984 131.589 156.196 130.856C156.141 130.805 154.254 129.374 155.781 129.867C156.033 129.949 157.557 130.675 156.934 129.953C156.813 129.814 156.413 129.785 156.282 129.505C156.079 129.075 156.659 128.888 156.129 128.233C156.035 128.118 155.104 127.394 155.99 127.542C156.129 127.565 156.616 127.856 156.723 127.772C157.231 127.376 157.126 126.682 157.716 126.309C157.924 126.176 158.715 126.639 159.025 126.54C159.335 126.441 159.724 126.138 159.431 125.767C159.138 125.396 157.71 125.04 157.736 124.688C157.852 123.155 159.199 122.166 159.879 120.868C159.98 120.676 159.432 120.64 159.546 120.343C159.964 119.246 160.284 117.19 161.691 116.66C162.818 116.234 163.053 117.443 163.623 116.997C163.896 116.78 162.454 115.844 162.432 115.757C162.198 114.894 163.075 114.714 163.101 114.032C163.106 113.892 162.422 113.759 162.433 113.642C162.465 113.241 162.898 112.978 162.982 112.616C163.018 112.453 162.521 112.289 162.614 112.163C162.831 111.859 163.154 111.64 163.739 111.489C163.793 111.476 164.318 111.916 164.439 111.674C164.633 111.282 165.28 110.954 164.997 110.306C164.911 110.113 163.801 109.674 164.685 109.675C164.87 109.674 166.176 110.273 165.156 109.477C164.987 109.343 163.654 108.158 164.769 108.26C165.062 108.287 166.232 108.515 166.124 108.282C166.105 108.249 165.471 108.109 165.466 107.949C165.458 107.386 165.719 106.896 165.722 106.324C165.722 106.17 165.026 106.133 165.045 105.912C165.096 105.306 165.515 104.679 165.912 104.214C166.06 104.044 166.522 104.375 166.584 104.381C167.582 104.492 166.404 103.892 166.361 103.788C166.112 103.15 166.826 103.001 166.839 102.5C166.844 102.363 166.225 102.23 166.182 102.187C165.765 101.744 166.748 102.325 166.924 102.209C167.42 101.884 167.557 101.37 167.649 100.89C167.683 100.713 166.932 100.648 166.97 100.492C167.182 99.5598 167.579 98.6801 168.273 97.946C168.405 97.8095 168.893 98.1037 169.025 98.1136C169.95 98.1857 168.93 97.4258 168.849 97.3078C168.481 96.7688 168.995 96.8022 169.024 96.4527C169.155 94.7422 170.144 92.9532 170.857 91.5488C171.774 89.7396 172.805 88.4078 173.304 86.5502C173.337 86.4301 172.593 86.3046 172.613 86.1978C172.895 84.8378 173.608 83.6601 173.846 82.3012C173.867 82.1881 173.147 82.1151 173.159 81.9261C173.179 81.5369 173.366 81.1054 173.699 80.8276C173.86 80.6917 174.355 81.1161 174.505 80.9753C174.855 80.6521 175.056 80.2154 175.089 79.7667C175.102 79.5741 174.328 79.6087 174.398 79.3768C174.864 77.7809 175.262 76.2083 176.683 74.9047C176.78 74.8164 178.202 75.1856 178.012 74.868C177.632 74.7218 177.178 74.571 176.768 74.4257C176.899 73.8536 177.08 73.2702 177.273 72.7367C177.893 71.0137 178.751 69.3962 179.384 67.6642C179.42 67.5665 178.626 67.4938 178.691 67.3039C179.056 66.2323 179.2 65.1024 180.293 64.2358C180.4 64.1483 181.677 64.6407 181.59 64.2394C181.575 64.1641 181.555 63.6336 181.315 63.4124C181.278 63.3812 180.641 63.2764 180.675 63.1099C180.875 62.1731 181.32 61.2592 181.965 60.4934C182.069 60.3741 182.672 60.7248 182.753 60.6372C183.324 60.0112 183.07 59.0677 183.814 58.6688C184.306 58.4216 185.409 58.8466 186.579 58.9147C186.748 58.9054 186.791 58.8098 187.457 58.8908C189.148 58.9789 190.96 59.4354 192.762 59.5429C192.956 59.5674 192.988 59.1982 193.05 58.9639C193.082 58.855 193.129 58.8221 193.228 58.8185C193.327 58.8236 193.478 58.7944 193.71 58.9949C193.741 59.0131 193.827 59.346 193.915 59.6565C194.004 59.9679 194.12 60.1965 194.261 60.3105C194.454 60.4684 195.166 60.3917 195.397 60.6779C195.623 60.9748 195.021 61.0362 195.278 61.3711C195.543 61.6879 196.32 61.7989 196.287 62.2718ZM150.88 148.261C151.582 148.352 149.53 147.122 149.879 147.661C149.899 147.688 150.845 148.257 150.88 148.261ZM131.006 174.292C131.989 174.817 131.1 173.521 130.359 173.1C129.622 172.676 130.709 174.132 131.006 174.292ZM128.781 177.348C129.646 177.695 127.449 175.109 127.571 175.915C127.578 175.96 128.73 177.328 128.781 177.348ZM186.622 60.046C186.654 60.0491 186.74 59.8593 186.712 59.8414C186.011 59.529 185.838 59.913 186.622 60.046ZM126.502 180.384C126.897 180.654 126.852 180.004 126.361 179.669C125.968 179.399 126.013 180.048 126.502 180.384ZM159.805 136.705C159.84 136.716 159.937 136.586 159.754 136.502C159.163 136.233 159.233 136.513 159.805 136.705ZM121.557 184.32C122.377 183.863 124.535 185.74 123.52 186.114C123.337 186.181 123.301 185.159 122.96 185.1C122.338 184.994 123.164 186.574 122.242 186.086C122.076 185.995 121.508 184.34 121.556 184.316C121.557 184.317 121.557 184.318 121.557 184.32ZM153.447 149.563C153.477 149.575 153.615 149.396 153.59 149.376C152.992 148.893 152.716 149.25 153.447 149.563ZM165.059 128.744C165.126 128.758 165.391 128.309 165.341 128.268C164.309 127.526 163.772 128.431 165.059 128.744ZM146.615 163.18C147.079 163.835 146.97 164.13 146.086 163.707C146.275 163.543 146.429 163.35 146.615 163.18Z" fill="#FC4C02"/>
<path d="M7.83523 27.9279C8.96401 28.4672 10.1561 29.5778 10.9838 30.5324C11.2442 30.8311 10.8415 31.0665 11.0099 31.288C11.339 31.7204 11.854 31.8275 12.162 32.2831C12.2627 32.4357 11.7042 32.8646 11.8182 33.0116C12.4457 33.8137 13.301 34.2032 14.0298 34.8861C17.6188 38.251 21.4068 41.1741 25.3068 44.1906C26.5925 45.1847 27.8848 46.7919 29.4302 47.5064C29.6118 47.5899 29.8423 47.0346 29.9005 47.0151C30.7962 46.7197 29.9735 47.6013 30.2016 47.9441C31.12 49.3096 32.4861 50.2832 33.8274 50.8973C34.4016 51.1588 34.5268 49.8378 34.6868 50.7313C34.6982 50.7921 34.2231 51.2286 34.3269 51.3772C34.5627 51.713 35.2348 52.0218 35.4589 52.2287C35.8904 52.6307 35.9699 52.6754 36.42 52.9794C37.0326 53.3996 37.6095 54.149 38.3524 54.4642C38.5129 54.5306 38.6743 53.8695 38.962 53.9268C39.2486 53.9836 39.8303 54.4273 39.9462 54.683C40.0659 54.9415 39.7049 55.3085 39.6777 55.4287C39.4403 56.4385 40.8781 55.76 40.9872 55.7908C42.9325 56.3725 43.9273 57.9288 45.4757 58.9179C46.6523 59.6675 48.0377 60.249 49.1491 60.9957C50.449 61.8729 51.4004 62.8854 52.7351 63.6547C52.8763 63.737 53.1162 62.9963 53.2895 63.0955C54.1054 63.5623 54.8935 64.0505 55.6702 64.5975C56.6019 65.256 57.5272 66.0111 58.3475 66.8529C58.498 67.0074 57.9188 67.4275 58.0484 67.6156C58.8561 68.7594 59.8926 70.9394 62.0651 68.8901C62.7476 69.4441 63.5792 70.0932 63.9437 71.0001C64.1772 71.5831 63.3852 71.9435 64.0696 72.0026C64.2235 72.0167 64.401 71.3838 64.6068 71.4456C65.4718 71.7054 66.1901 72.3869 67.1004 72.5611C67.286 72.595 67.5406 72.0868 67.6364 72.0259C68.4247 71.5399 68.3102 73.0702 68.3894 73.2348C69.0031 74.4767 69.8722 74.6653 70.7921 75.2462C71.0053 75.3812 71.1459 74.5762 71.3652 74.6827C72.4972 75.2436 73.5699 75.9709 74.4499 76.8982C74.6433 77.1052 74.0932 77.5298 74.1685 77.6571C74.505 78.2119 75.2477 77.2306 75.5839 77.7428C75.6557 77.8495 75.3125 78.2903 75.2992 78.3535C75.0896 79.3444 76.0385 78.3341 76.1273 78.3528C77.267 78.5632 77.125 80.1295 78.127 80.4988C78.2475 80.5416 78.3672 79.7944 78.6838 79.9517C80.7897 80.9924 82.8167 82.4315 84.5214 84.1023C84.7868 84.3612 84.2956 84.6822 84.2818 84.7497C84.0792 85.8116 84.982 84.7653 85.1092 84.7814C86.0951 84.9396 86.257 86.3639 87.6271 85.2925C90.7179 87.7841 94.5467 88.9875 97.1736 92.2111C97.2078 92.2507 96.7921 92.784 96.862 92.8605C97.6996 93.7876 98.0289 92.773 99.3504 92.0703C99.6816 91.8934 99.4288 93.5274 99.4179 93.6516C99.3765 94.1087 98.6988 94.8676 98.7146 94.97C98.8625 95.7882 100.45 92.8964 101.078 93.2616C101.095 93.2778 100.706 93.754 100.729 93.8368C100.797 94.096 101.08 93.9822 101.135 94.2559C101.257 94.8867 100.582 96.348 101.614 95.8696C101.745 95.8063 102.579 94.1268 103.095 94.5298C103.301 94.6924 104.304 95.2378 104.522 95.5042C104.739 95.7705 104.245 96.181 104.252 96.2151C104.602 97.3397 104.152 97.4604 103.936 98.6991C103.721 99.9338 105.023 97.4471 105.332 97.2647C105.642 97.0833 105.859 97.9691 105.879 98.2446C105.899 98.5201 105.539 98.7549 105.594 98.936C105.968 100.129 106.641 97.9335 107.126 97.6999C108.272 97.1449 107.712 99.223 108.174 99.7243C108.299 99.8597 108.411 99.3778 108.569 99.4175C109.194 99.5823 109.198 100.333 110.109 100.17C110.257 100.144 111.375 99.3445 111.238 100.324C111.217 100.464 110.831 100.84 111.002 101.072C111.262 101.422 111.828 101.877 112.284 101.938C112.62 101.983 112.732 101.063 112.943 101.489C113.037 101.679 112.506 101.951 112.703 102.272C112.896 102.591 113.639 102.99 113.927 103.135C114.215 103.278 114.383 102.629 114.427 102.603C114.687 102.464 115.374 102.496 115.421 102.523C117.836 103.808 119.481 105.993 121.987 106.984C122.182 107.062 122.396 106.399 122.429 106.404C123.188 106.502 121.812 107.813 121.947 108.585C122.562 107.341 122.694 107.702 123.212 107.818C123.462 107.873 123.608 107.339 123.654 107.302C124.367 106.767 124.072 107.808 124.023 108.027C123.845 108.835 124.527 108.144 124.409 108.684C124.294 109.222 123.591 109.722 124.015 109.947C124.373 109.579 124.694 108.273 125.113 108.266C126.717 108.25 128.48 110.388 129.395 111.009C130.328 111.642 130.681 111.73 131.155 112.193C131.174 112.212 131.193 112.23 131.212 112.247C132.042 112.997 132.136 111.99 132.963 111.95C133.806 111.906 132.37 113.82 132.219 114.317C132.066 114.812 132.413 114.405 132.39 114.71C132.369 115.017 131.96 115.189 132.177 115.426C132.398 115.664 133.552 115.258 133.896 114.839C134.626 113.952 134.866 112.738 135.357 113.474C135.385 113.516 134.963 113.996 135.084 114.133C136.09 115.216 137.347 115.918 138.362 116.931C138.505 117.073 138.03 117.606 138.11 117.695C138.938 118.631 139.11 117.402 140.267 116.544C139.346 118.01 139.153 119.101 139.942 119.522C140.409 119.772 140.674 119.06 141.218 118.744C141.382 118.648 141.47 119.276 141.696 118.994C142.427 118.066 142.709 116.753 143.276 117.625C143.3 117.665 142.898 118.172 143.002 118.268C143.664 118.889 144.32 117.864 145.232 118.161C145.94 118.391 146.789 119.643 147.511 120.134C146.637 121.867 147.546 121.82 148.434 120.765C148.916 121.063 149.462 121.245 149.874 121.65C150.014 121.787 149.66 122.24 149.654 122.305C149.564 123.318 150.343 122.249 150.471 122.253C151.852 122.365 152.381 123.705 153.905 123.347C153.96 123.334 154.588 122.14 154.473 123.17C154.464 123.24 153.842 123.629 154.344 123.912C154.85 124.197 155.552 125.307 156.54 125.061C156.772 125 157.673 124.201 157.686 125.14C157.688 125.267 157.481 125.598 157.464 125.826C157.413 126.551 158.08 125.356 157.888 126.533C157.695 127.71 157.918 128.75 158.982 128.331C159.015 128.319 159.609 127.398 159.841 127.513C160.21 127.697 160.658 128.125 161.059 128.28C161.249 128.353 161.38 127.683 161.418 127.685C162.828 127.849 163.512 128.76 164.799 129.524C165.033 129.665 166.078 129.079 166.318 129.937C166.588 130.877 164.896 133.767 166.43 133.486C167.05 133.375 169.072 129.661 169.261 132.017C169.495 132.03 169.718 132.064 169.933 132.113C171.509 132.479 172.713 133.701 174.484 133.572C174.574 133.566 175.187 132.54 175.369 132.616C175.638 132.73 175.621 133.297 175.81 133.396C176.591 133.821 177.496 133.62 178.277 133.941C178.574 134.062 178.297 134.566 178.653 134.71C179.009 134.854 179.471 134.221 179.859 134.716C180.15 135.092 180.079 136.656 180.526 136.978C180.983 135.553 181.314 135.687 182.034 135.493C182.173 135.455 182.199 134.919 182.272 134.875C182.572 134.686 182.656 135.161 182.952 134.946C183.024 134.894 183.174 134.406 183.241 134.336C183.815 133.723 184.077 135 184.122 135.222C184.296 136.067 184.667 135.484 184.882 135.859C185.097 136.235 184.543 136.461 184.841 136.738C185.461 137.313 186.417 137.507 187.148 137.744C187.441 137.836 187.431 137.123 187.477 137.121C188.133 137.131 188.547 138.006 189.261 136.799C188.71 140.294 189.722 136.577 190.397 137.503C190.45 137.577 190.079 139.198 189.748 139.357C189.418 139.515 189.162 138.901 188.691 139.161C188.58 139.222 187.652 140.573 187.557 140.644C186.821 141.198 187.437 138.793 187.447 138.654C187.539 137.149 186.466 138.583 186.273 138.647C185.394 138.943 184.871 138.426 184.153 138.608C183.684 138.725 183.182 140.271 182.882 140.13C181.879 139.66 182.171 137.38 180.617 138.963C180.283 139.3 179.977 141.064 179.625 139.496C179.601 139.397 179.416 138.004 178.852 138.675C178.782 138.76 178.63 139.255 178.564 139.28C178.12 139.438 178 138.969 177.548 139.035C177.095 139.1 176.534 139.233 176.137 138.923C175.898 138.737 175.842 137.707 175.786 137.442C175.629 136.678 174.897 137.614 174.925 136.757C174.952 135.896 175.78 134.842 175.352 134.142C174.916 135.414 174.44 136.712 173.988 137.987C172.691 137.517 171.539 136.677 170.212 136.291C170.047 136.244 169.981 136.985 169.798 136.952C169.296 136.861 168.922 136.532 168.493 136.292C168.262 136.162 168.014 136.058 167.721 136.033C167.08 135.981 166.175 136.474 165.485 136.433C165.626 134.849 164.529 135.008 163.911 134.628C163.694 134.496 163.853 134.116 163.733 133.929C163.283 133.23 163.098 134.613 162.851 134.749C161.782 135.321 162.822 132.424 161.937 132.162C161.894 132.148 160.737 133.457 160.619 133.52C159.884 133.946 160.747 132.957 160.489 132.724C160.011 132.295 159.78 131.78 158.943 131.956C158.699 132.01 157.858 132.769 157.788 131.883C157.779 131.767 158.015 131.277 157.988 131.232C157.5 130.453 156.816 132.013 156.182 132.371C155.559 132.733 155.392 131.379 155.406 131.015C155.432 130.069 155.804 130.779 155.86 130.709C156.477 129.86 155.953 129.826 155.652 129.6C156.273 128.047 155.759 127.931 155.332 129.369C155.287 129.527 155.615 129.5 155.652 129.6C154.699 130.973 154.074 130.927 154.124 129.272C154.149 128.496 154.735 127.842 153.804 127.759C153.379 127.718 153.047 128.831 152.587 128.967C151.54 129.277 151.02 127.854 150.183 127.647C149.876 127.571 149.882 128.27 149.662 128.236C149.088 128.155 148.848 127.518 148.233 127.492C148.178 127.491 148.004 128.138 147.845 128.072C146.628 127.573 145.759 126.68 144.548 126.067C143.941 125.761 142.735 125.565 142.144 125.184C141.143 124.542 140.275 123.021 139.265 122.761C138.615 122.593 138.438 123.244 137.979 123.512C137.083 124.028 136.952 122.2 136.949 121.926C136.95 121.917 137.522 122.041 137.412 121.601C137.584 120.895 136.956 121.926 136.949 121.926C136.951 121.751 135.993 121.079 135.748 121.092C135.609 121.096 135.378 121.681 135.311 121.672C133.707 121.459 132.275 120.875 131.069 119.894C131.051 119.87 131.418 119.274 131.372 119.225C130.734 118.529 129.822 119.007 128.94 119.106C128.343 119.171 127.947 118.995 127.809 118.486C127.747 118.243 127.746 117.92 127.81 117.509C127.257 117.379 126.812 116.531 126.561 116.025C126.318 115.525 125.609 116.687 125.561 116.691C124.054 116.845 123.782 115.804 122.713 115.072C122.196 114.717 121.034 114.296 120.378 114.1C119.859 113.947 119.728 113.509 119.207 113.45C119.136 113.442 118.898 114.003 118.869 114.014C118.044 114.382 118.994 113.217 119.027 112.932C119.144 111.895 119.177 111.327 118.347 111.379C118.157 111.391 116.696 113.016 116.385 112.983C115.978 112.936 116.478 112.34 116.042 112.307C116.004 112.303 115.779 112.717 115.575 112.578C114.62 111.936 113.681 111.089 112.622 110.542C112.478 110.465 112.291 111.219 112.076 111.119C111.077 110.653 110.048 110.035 109.289 109.198C109.106 108.991 109.508 108.618 109.536 108.455C109.7 107.466 108.591 108.405 108.507 108.387C106.473 107.98 105.795 106.164 103.777 105.679C103.666 105.655 102.209 106.506 102.513 105.23C102.533 105.145 102.854 103.846 102.134 104.445C102.089 104.482 101.956 105.17 101.644 104.911C101.332 104.653 100.552 104.712 100.439 103.806C100.403 103.52 100.686 102.202 99.7252 102.826C99.6605 102.871 97.8054 104.467 98.3589 102.943C98.4506 102.693 99.3417 101.259 98.3691 101.694C98.182 101.779 98.1791 102.213 97.7901 102.259C97.1916 102.33 96.8727 101.62 95.9857 101.973C95.83 102.037 94.8748 102.805 95.0099 101.877C95.0311 101.732 95.4055 101.298 95.2772 101.15C94.6662 100.443 93.6842 100.305 93.1089 99.5159C92.9047 99.2374 93.5052 98.5336 93.3438 98.1559C93.1818 97.7781 92.7276 97.2393 92.2199 97.4237C91.7115 97.608 91.3012 99.0508 90.7962 98.8888C88.5977 98.1817 87.1109 96.3154 85.2419 95.0635C84.9646 94.8775 84.9376 95.4654 84.5098 95.2233C82.9324 94.3339 79.9939 93.1518 79.2125 91.3988C78.5843 89.9937 80.2902 90.2288 79.6488 89.4265C79.3386 89.0412 78.0416 90.232 77.9181 90.2201C76.7028 90.1218 76.4332 89.0885 75.4706 88.7782C75.2717 88.7144 75.0906 89.4036 74.9252 89.3427C74.3568 89.1398 73.9837 88.5592 73.4685 88.3144C73.2372 88.2063 73.0078 88.6781 72.8284 88.523C72.3961 88.1572 72.0867 87.7143 71.8746 87.0145C71.8553 86.9507 72.4766 86.5664 72.1363 86.333C71.5837 85.9561 71.1204 85.1119 70.2059 85.1418C69.9334 85.1523 69.3072 86.1692 69.3159 85.2104C69.3169 85.0097 70.1736 83.8522 69.041 84.6147C68.8519 84.7409 67.1623 85.6709 67.3191 84.5059C67.36 84.1991 67.6984 83.0319 67.3691 83.0476C67.3222 83.0535 67.1161 83.6788 66.89 83.6146C66.0957 83.377 65.4101 82.8796 64.6049 82.6241C64.3891 82.5569 64.3225 83.2936 64.0119 83.1753C63.1564 82.8503 62.2762 82.1146 61.6375 81.48C61.4022 81.2447 61.88 80.8925 61.8912 80.8292C62.0776 79.8023 61.1956 80.8024 61.0482 80.8019C60.1361 80.7808 59.9495 79.9423 59.2508 79.7046C59.0589 79.6376 58.8509 80.2449 58.7879 80.2718C58.1506 80.5205 59.0017 79.7234 58.8431 79.4803C58.4001 78.7957 57.6795 78.4109 57.0121 78.0931C56.7665 77.9771 56.6432 78.7545 56.4272 78.6433C55.1216 77.9844 53.8932 77.1418 52.9009 76.0536C52.7165 75.8486 53.1533 75.4617 53.1739 75.3241C53.3222 74.364 52.2113 75.1082 52.0374 75.1367C51.2565 75.2748 51.3247 74.7345 50.8379 74.5394C50.4768 74.3961 50.1153 74.231 49.7559 74.0494C47.7094 73.0112 45.7133 71.4442 44.0861 70.2091C41.6018 68.3252 39.8604 66.5799 37.2983 65.0918C37.1351 64.9962 36.8918 65.7246 36.746 65.6501C34.8973 64.6702 33.3098 63.2918 31.4408 62.325C31.2868 62.2437 31.1095 62.9706 30.8494 62.8599C30.311 62.6356 29.7421 62.2163 29.3792 61.708C29.2035 61.4625 29.8517 61.1645 29.6683 60.9279C29.2398 60.3743 28.6949 59.9547 28.0615 59.6714C27.7939 59.5539 27.7584 60.3952 27.4416 60.1957C25.2836 58.8536 23.1366 57.5696 21.5297 55.3609C21.4189 55.2089 22.1098 53.9067 21.6433 53.931C21.3924 54.2526 21.126 54.6501 20.8725 55.0037C17.6811 53.1325 14.9447 50.6457 11.9444 48.4763C11.8181 48.3852 11.5978 49.1772 11.351 49.004C9.91673 47.9983 8.40328 47.2088 7.37753 45.5521C7.27539 45.3887 8.13332 44.3211 7.58558 44.1909C7.48806 44.1689 6.73936 43.8682 6.4036 43.9954C6.3554 44.0163 6.10719 44.621 5.88948 44.4915C4.62543 43.7259 3.44988 42.7238 2.47178 41.5607C2.31501 41.3722 2.91156 40.9612 2.80333 40.8222C2.03244 39.8401 0.671894 39.5145 0.0938124 38.3538C-0.291901 37.5746 0.614969 36.7771 0.948223 35.5984C0.995115 35.432 0.623381 35.1388 0.990375 34.5749C1.91214 33.1559 3.1649 31.7735 4.12529 30.2455C4.33247 29.9166 3.57417 29.8942 4.42055 29.3427C4.4781 29.3065 5.03257 29.3159 5.30814 29.1207C5.49911 28.986 5.7767 28.3452 6.07008 28.2072C6.3633 28.0695 6.17767 28.6398 6.58578 28.5223C6.99614 28.4014 7.34817 27.6979 7.83523 27.9279ZM125.461 113.777C125.404 112.999 124.19 115.062 124.872 114.785C124.906 114.769 125.464 113.815 125.461 113.777ZM172.12 134.965C171.928 133.789 171.077 135.139 171.188 136.036C171.302 136.934 172.179 135.322 172.12 134.965ZM177.813 135.997C177.448 135.01 176.327 138.215 177.198 137.77C177.248 137.745 177.834 136.055 177.813 135.997ZM2.67651 36.4119C2.69003 36.3826 2.42978 36.1617 2.40503 36.1828C1.81972 36.7002 2.34048 37.1415 2.67651 36.4119ZM183.482 136.854C183.422 136.357 182.716 136.698 182.791 137.317C182.853 137.814 183.559 137.472 183.482 136.854ZM107.606 100.745C107.618 100.711 107.424 100.562 107.328 100.739C107.018 101.31 107.402 101.319 107.606 100.745ZM192.731 139.497C191.4 138.984 191.345 136.053 192.743 136.782C192.997 136.914 191.917 137.476 192.19 137.816C192.691 138.438 193.59 136.865 193.971 137.955C194.039 138.154 192.805 139.533 192.727 139.501C192.728 139.5 192.729 139.498 192.731 139.497ZM126.636 111.143C126.643 111.11 126.363 110.921 126.342 110.945C125.814 111.522 126.379 111.903 126.636 111.143ZM96.0633 92.3184C96.0811 92.2507 95.4399 91.801 95.3863 91.8415C94.4055 92.7061 95.7014 93.6193 96.0633 92.3184ZM147.5 120.187C148.171 119.666 148.585 119.769 148.433 120.764C148.121 120.554 147.81 120.393 147.5 120.187Z" fill="#FC4C02"/>
</svg>
