<svg width="167" height="203" viewBox="0 0 167 203" fill="none" xmlns="http://www.w3.org/2000/svg">
<path d="M49.8081 0.154497C50.0997 0.513395 49.9972 1.08912 49.7861 1.55619C49.7209 1.70234 49.2926 1.72899 49.229 1.83394C49.105 2.0391 49.3427 2.1531 49.1875 2.36292C49.134 2.4329 48.4626 2.50685 48.4216 2.57695C48.2013 2.96008 48.4345 3.22587 48.3657 3.58022C48.026 5.32703 48.1218 6.94699 48.1764 8.62822C48.1946 9.18038 47.7414 9.96047 48.1221 10.4523C48.1671 10.5096 48.7347 10.3451 48.7848 10.3469C49.5534 10.3789 48.3768 10.5702 48.2497 10.7289C47.7483 11.3577 47.817 11.9239 48.1439 12.3516C48.2847 12.5333 49.3838 12.0787 48.7866 12.4239C48.7464 12.4476 48.1235 12.5305 48.0705 12.6004C47.9515 12.7587 48.1134 12.974 48.0866 13.0831C48.0317 13.2934 48.0447 13.3233 48.077 13.5036C48.1159 13.7511 47.8758 14.1081 48.0718 14.3389C48.1155 14.3878 48.7261 14.176 48.8523 14.2415C48.9784 14.3072 48.9769 14.5534 48.8469 14.6663C48.7166 14.7787 48.2165 14.8532 48.1066 14.8922C47.1791 15.2184 48.5594 15.201 48.5998 15.2289C49.2974 15.7474 48.6658 16.4587 48.8012 17.0616C48.9055 17.5183 49.2607 17.9466 49.3233 18.3904C49.3951 18.9183 49.1526 19.431 49.3221 19.9183C49.3393 19.9703 50.0622 19.7443 50.0847 19.8075C50.3241 20.4803 50.3941 21.173 50.0504 21.9722C50.0152 22.0523 49.3488 22.1079 49.275 22.1965C48.8376 22.7367 47.7088 23.683 50.58 23.3033C50.534 23.6136 50.4979 23.9845 49.9875 24.3657C49.659 24.6113 48.919 24.6104 49.2647 24.744C49.3418 24.7743 49.9454 24.5769 50.0144 24.6327C50.3041 24.8668 50.1744 25.2268 50.5571 25.4395C50.6364 25.4825 51.1854 25.3423 51.2886 25.3362C52.1254 25.2924 50.8448 25.8209 50.7592 25.8925C50.1229 26.4346 50.4687 26.6442 50.5317 27.0049C50.546 27.0882 51.2661 26.8231 51.3064 26.8972C51.5056 27.284 51.5375 27.7207 51.2988 28.1941C51.2442 28.3009 50.5934 28.3618 50.535 28.4202C50.285 28.6758 51.4881 28.4464 51.2713 28.6857C51.2271 28.7358 50.6813 28.8374 50.6234 28.8578C49.7155 29.1787 51.0585 28.9724 51.094 28.9936C51.573 29.2558 50.2443 29.7931 50.5174 30.0892C50.5515 30.1246 51.2148 29.8758 51.2689 29.9848C51.6333 30.7101 51.6288 31.5527 51.2566 32.4374C51.1995 32.574 50.6663 32.6089 50.6047 32.6309C49.6427 32.9795 50.9867 32.7511 51.0454 32.7777C51.4739 32.9936 50.4279 33.5356 52.0548 33.3758C51.802 34.777 52.9866 35.845 51.872 37.4421C51.8594 37.4619 51.2003 37.5876 51.178 37.6265C50.9025 38.0965 51.8998 37.7872 53.2002 37.7489C53.5268 37.7397 52.0769 38.2916 51.9714 38.3351C51.5822 38.4945 50.5964 38.6596 50.5232 38.6994C49.9503 39.0212 53.1516 38.2293 53.2086 38.4636C53.205 38.4722 52.6072 38.5821 52.5532 38.6158C52.3835 38.721 52.6325 38.7256 52.4436 38.8338C52.0059 39.0825 50.459 39.5039 51.417 39.5002C51.5412 39.4989 53.3507 39.0227 53.3154 39.2549C53.2999 39.3481 53.4203 39.712 53.3273 39.8436C53.2345 39.9753 52.6313 40.0454 52.6077 40.0589C51.8999 40.5241 51.5532 40.4959 50.4397 40.9121C49.3306 41.3279 52.0473 40.6321 52.3654 40.616C52.6828 40.6008 52.0936 40.9626 51.8838 41.0672C51.6738 41.1719 51.2861 41.1987 51.1713 41.2744C50.422 41.773 52.5558 41.0776 53.0121 41.0708C54.0921 41.0528 52.115 41.7228 51.9682 41.9808C51.9286 42.0505 52.3773 41.8916 52.4328 41.9321C52.647 42.0964 52.0468 42.3735 52.6811 42.4621C52.7846 42.4769 54.0442 42.3639 53.1826 42.7022C53.0583 42.7508 52.5432 42.8265 52.4516 42.9398C52.3141 43.11 52.2599 43.3632 52.4633 43.4639C52.6132 43.5363 53.4129 43.2131 53.1874 43.4063C53.0867 43.4922 52.5754 43.5057 52.4266 43.6573C52.2778 43.8085 52.367 44.0765 52.4095 44.1755C52.4523 44.2743 53.0667 44.0613 53.1111 44.0591C53.3662 44.0491 53.7183 44.1699 53.7218 44.1872C54.02 45.0541 53.1691 46.1408 53.7382 46.9012C53.7821 46.9617 54.432 46.7463 54.4455 46.7538C54.7829 46.9161 52.9769 47.1856 52.4308 47.5015C53.7666 47.1308 53.5485 47.2903 53.738 47.4152C53.8304 47.4751 54.3387 47.2974 54.3938 47.2908C55.2129 47.2017 54.2147 47.5468 54.0117 47.622C53.265 47.8983 54.1925 47.7449 53.6936 47.9304C53.1985 48.1151 52.4134 48.1929 52.4635 48.3449C52.9548 48.2623 54.1793 47.8202 54.4131 47.8832C55.3003 48.1348 54.5329 49.208 54.5303 49.6034C54.5253 49.942 54.6169 50.0501 54.5586 50.2424C54.551 50.2695 54.5406 50.2981 54.5268 50.329C54.3184 50.7955 55.208 50.4017 55.6963 50.5164C56.1844 50.6295 53.8722 51.149 53.3911 51.3182C52.91 51.4869 53.4245 51.3828 53.1664 51.4983C52.9083 51.6137 52.5505 51.6183 52.476 51.742C52.4007 51.8629 53.3481 51.8908 53.8698 51.7807C54.9754 51.5486 56.0811 51.1105 55.7522 51.4763C55.7326 51.4975 55.1203 51.6193 55.0755 51.6921C54.7371 52.2571 54.845 52.7406 54.5648 53.2914C54.5254 53.3677 53.8454 53.5091 53.815 53.5558C53.5012 54.0586 54.5817 53.5947 55.8847 53.4272C54.2168 53.8729 53.2383 54.2881 53.3123 54.5702C53.3556 54.7373 54.0702 54.4961 54.6118 54.4516C54.7751 54.4383 54.3166 54.7094 54.6623 54.6277C55.7923 54.3603 56.9992 53.8719 56.5917 54.3045C56.572 54.324 55.9536 54.4712 55.9301 54.5252C55.774 54.8722 56.9442 54.5537 57.1775 54.8065C57.359 55.0002 56.7894 55.6445 56.7618 55.9454C54.9158 56.5436 55.4212 56.6582 56.7259 56.341C56.7322 56.5333 56.866 56.6929 56.7462 56.914C56.7063 56.9921 56.1619 57.1364 56.1069 57.1633C55.2458 57.5876 56.5029 57.2399 56.5638 57.2598C57.169 57.4906 56.3607 58.1592 57.4041 58.1994C57.4418 58.2013 58.7125 57.7517 57.8281 58.1959C57.7672 58.2267 57.146 58.317 57.1684 58.5114C57.1877 58.6984 56.6478 59.3067 57.3238 59.3141C57.486 59.3148 58.561 59.0551 57.8174 59.494C57.7165 59.5538 57.352 59.6839 57.1625 59.7888C56.5602 60.126 57.834 59.641 56.8024 60.1738C55.773 60.7114 55.0625 61.2568 55.9065 61.1904C55.9317 61.1899 56.9454 60.8121 56.9644 60.8959C56.9946 61.0315 56.8695 61.2973 56.9393 61.4276C56.9723 61.4881 57.5585 61.1597 57.5747 61.1651C58.1039 61.3987 57.708 61.9413 57.7233 62.4967C57.7268 62.6025 58.6372 62.3486 58.1078 62.8644C57.5423 63.4487 54.6395 65.0303 55.6107 65.0743C56.0289 65.1283 59.5057 62.8171 57.9959 64.391C58.7924 64.5323 58.5201 65.8022 59.5552 65.5963C59.6019 65.5877 60.3328 64.6758 60.3686 64.7182C60.3845 64.7372 60.377 64.7867 60.3588 64.8505C60.3105 65.0205 60.1882 65.2924 60.2171 65.341C60.3829 65.6355 60.8359 65.3486 61.0404 65.5225C61.1212 65.5881 60.8583 66.088 60.9678 66.1696C61.0825 66.2516 61.4287 65.5919 61.46 65.985C61.4798 66.2827 61.1387 67.7689 61.3036 68.0031C61.7419 66.573 61.8568 66.6412 62.1623 66.3117C62.2202 66.2473 62.3059 65.7321 62.3391 65.6754C62.472 65.4322 62.4375 65.8673 62.5694 65.5976C62.6008 65.5327 62.7116 65.0342 62.7421 64.9526C62.9957 64.2389 62.9361 65.3963 62.9422 65.6003C62.9381 66.3707 63.1093 65.7251 63.1606 66.0351C63.2192 66.3456 63.0113 66.6937 63.1094 66.8909C63.3199 67.2999 63.679 67.2534 63.9431 67.2952C64.0497 67.309 64.0234 66.6237 64.0398 66.6099C64.258 66.4519 64.4464 67.1861 64.6141 65.8335C64.6343 69.3473 64.7523 65.4986 65.0233 66.2077C65.0447 66.265 65.0458 67.9258 64.9438 68.1674C64.8406 68.4088 64.7088 67.8862 64.56 68.2609C64.528 68.3492 64.2686 69.8955 64.2325 69.9879C63.9715 70.7124 64.0838 68.2326 64.0837 68.0963C64.0593 66.6219 63.7244 68.2774 63.6429 68.3864C63.3056 68.8899 63.0881 68.5138 62.7829 68.8528C62.5823 69.0709 62.3073 70.6727 62.1597 70.5976C61.6426 70.3378 62.0302 68.1024 61.0804 69.8866C60.8708 70.2631 60.4886 72.005 60.4737 70.5435C60.4641 70.449 60.5869 69.1482 60.1647 69.8549C60.1103 69.9438 59.9375 70.4318 59.8941 70.4625C59.6029 70.6564 59.6209 70.2219 59.3389 70.3196C59.0565 70.4169 58.6702 70.5669 58.5045 70.2893C58.4013 70.1219 58.6715 69.174 58.7275 68.9356C58.889 68.2503 58.1559 69.1135 58.4738 68.343C58.8145 67.581 59.6226 66.6024 59.7061 66.0247C58.9821 67.1582 58.223 68.3116 57.4775 69.4404C57.4577 69.426 57.4382 69.4112 57.419 69.3961C56.8351 68.9383 56.4708 68.1299 55.9135 67.6526C55.8388 67.5902 55.3985 68.1728 55.3012 68.1144C54.8949 67.8646 55.0242 67.2298 54.6044 67.0332C54.272 66.8762 53.4404 67.0377 53.0841 66.8587C54.2334 65.8155 53.5586 65.7352 53.513 65.3834C53.4967 65.2614 53.8538 65.0574 53.9306 64.9235C54.2202 64.4347 53.1068 65.225 52.8807 65.2613C51.905 65.3902 54.5934 63.8907 54.3605 63.6117C54.3489 63.5967 52.7839 64.1415 52.6751 64.152C51.9822 64.2573 53.1691 63.8635 53.2184 63.6907C53.3084 63.373 53.6 63.0757 53.0468 63.0267C52.8866 63.0202 51.8761 63.2707 52.5339 62.8037C52.6202 62.7429 53.1199 62.5316 53.1423 62.504C53.5092 62.026 51.9505 62.7133 51.3519 62.7833C50.7527 62.8512 51.7364 62.1543 52.0321 61.9819C52.7924 61.5253 52.4166 61.9304 52.4988 61.9035C53.475 61.5824 53.2453 61.4912 53.2744 61.3339C54.8123 60.6805 54.6516 60.5518 53.2984 61.1733C53.1508 61.2419 53.3348 61.2802 53.2744 61.3339C51.714 61.8505 51.4307 61.7111 52.7742 60.9418C53.4035 60.5797 54.2192 60.3683 53.8191 60.1841C53.6379 60.0984 52.5851 60.5662 52.2465 60.5589C51.4725 60.5385 52.3444 59.8018 52.0864 59.584C51.9916 59.5019 51.4351 59.8155 51.3496 59.766C51.119 59.6291 51.51 59.3171 51.2162 59.2097C51.1888 59.2002 50.5807 59.4589 50.5523 59.403C50.3217 58.9723 50.5957 58.4626 50.4574 58.0035C50.3916 57.7864 49.9144 57.4906 49.9145 57.2481C49.9049 56.8115 50.674 56.0526 50.3492 55.7838C50.1396 55.6061 49.5224 55.8432 49.0646 55.881C48.1768 55.9535 49.5759 55.1854 49.7951 55.0743C49.8024 55.071 50.0072 55.2146 50.302 55.0181C50.961 54.7596 49.7987 55.0757 49.7951 55.0743C49.9362 55.0017 49.9682 54.5802 49.8272 54.5463C49.7495 54.5259 49.1562 54.723 49.127 54.709C48.4445 54.3657 48.1476 53.9044 48.2854 53.314C48.295 53.3015 48.9717 53.1264 48.9859 53.0995C49.2002 52.7125 48.3292 52.7709 47.7721 52.66C47.2868 52.566 47.3087 52.3689 48.0651 52.0134C48.1757 51.9624 48.3018 51.9081 48.4442 51.8502C48.2498 51.7115 48.6916 51.3135 48.9619 51.0797C49.2323 50.846 47.9128 51.1774 47.8832 51.171C46.9383 50.9706 47.6317 50.5481 47.6348 50.0849C47.6378 49.8614 47.3433 49.5156 47.1423 49.3338C46.9813 49.1907 47.2626 49.0056 47.0235 48.8953C46.9915 48.8803 46.4108 49.054 46.3865 49.0532C45.6381 49.0535 47.0943 48.7701 47.3407 48.6667C48.2364 48.2888 48.713 48.0859 48.2167 47.972C48.103 47.9461 45.9986 48.3228 45.8531 48.2569C45.6678 48.1707 46.4203 48.0291 46.2074 47.9433C46.1899 47.9358 45.7336 48.0547 45.733 47.968C45.7225 47.561 45.8893 47.1015 45.7444 46.7186C45.7264 46.6662 45.0184 46.917 44.9805 46.8442C44.8015 46.4954 44.7333 46.1078 44.985 45.6686C45.0494 45.5606 45.571 45.4889 45.7173 45.4326C46.6017 45.0909 45.2343 45.2551 45.2022 45.234C44.4071 44.7545 45.4859 43.9603 44.756 43.4521C44.7139 43.4253 43.2237 43.4983 44.4152 43.0793C44.4944 43.0511 45.7145 42.6274 44.8342 42.727C44.7791 42.7333 44.1542 42.9649 44.1877 42.8167C44.2212 42.6689 43.7395 42.5574 44.4038 42.2097C44.6128 42.0993 45.8275 41.6655 44.7927 41.7347C44.7207 41.7408 42.4097 42.0171 43.9379 41.5504C44.1896 41.4738 45.8347 41.0967 44.9442 41.0938C44.7717 41.0938 44.4226 41.2525 44.1693 41.2041C43.7786 41.1284 44.1695 40.8191 43.3924 40.8016C43.255 40.7991 42.1066 40.9218 42.9251 40.6056C43.0533 40.556 43.6095 40.4598 43.6565 40.3846C43.8825 40.0276 43.4425 39.806 43.7534 39.4266C43.8624 39.2924 44.7613 39.1353 44.9735 38.972C45.1857 38.8088 45.3631 38.5386 44.9313 38.5212C44.4993 38.5038 43.1154 38.9604 42.9624 38.8173C42.2954 38.1864 42.957 37.2762 42.9059 36.5072C42.8989 36.3948 42.4138 36.6024 42.3671 36.4449C42.1923 35.8647 41.4803 34.9476 42.4382 34.1882C43.2049 33.5777 43.9802 33.9453 44.2584 33.5498C44.3907 33.3594 42.7078 33.5725 42.6475 33.5474C42.0394 33.3112 42.7118 32.8981 42.4144 32.6271C42.3528 32.5713 41.7009 32.7891 41.6558 32.7398C41.4959 32.5728 41.7469 32.3007 41.65 32.1272C41.605 32.0498 41.099 32.181 41.1211 32.0965C41.1679 31.8952 41.3454 31.6857 41.7825 31.3996C41.8223 31.3735 42.4809 31.3381 42.4738 31.1982C42.4605 30.9721 42.8699 30.5939 42.3261 30.4521C42.1628 30.4105 40.9976 30.6721 41.7652 30.3282C41.9256 30.2565 43.3336 29.9819 42.0833 30.0707C41.8755 30.0853 40.1749 30.1425 41.1907 29.7507C41.458 29.6475 42.5789 29.285 42.3788 29.2361C42.3474 29.2304 41.7328 29.4207 41.655 29.3603C41.3916 29.1451 41.3956 28.8523 41.1393 28.6291C41.0696 28.5698 40.4462 28.8223 40.363 28.7292C40.1332 28.4734 40.2154 28.0691 40.3531 27.735C40.4052 27.6116 40.9581 27.5644 41.0147 27.5435C41.9362 27.2055 40.6381 27.4201 40.554 27.3955C40.0484 27.2375 40.6073 26.9101 40.395 26.7101C40.3381 26.6546 39.7373 26.8378 39.6799 26.8371C39.1173 26.8223 40.2373 26.6761 40.3392 26.5639C40.6283 26.2489 40.5196 25.9939 40.3872 25.7693C40.3377 25.687 39.6514 25.9457 39.6152 25.87C39.3871 25.4242 39.3467 24.9247 39.6346 24.3764C39.6901 24.273 40.2481 24.2058 40.3687 24.1599C41.2131 23.8409 39.9827 23.9236 39.86 23.9068C39.2998 23.8303 39.7664 23.6507 39.6389 23.5028C39.0077 22.783 39.1018 21.6961 39.1277 20.8773C39.1579 19.8096 39.5041 18.911 39.1571 17.9795C39.1358 17.9201 38.4229 18.142 38.3951 18.0929C38.0699 17.4509 38.2057 16.7159 37.846 16.081C37.8177 16.0285 37.1467 16.2608 37.0782 16.1816C36.9328 16.0202 36.9189 15.7781 37.0977 15.5429C37.1837 15.4285 37.8016 15.4208 37.8761 15.3083C38.0506 15.0452 38.0499 14.808 37.8914 14.6133C37.8225 14.531 37.1487 14.826 37.1141 14.7069C36.8631 13.8976 36.5641 13.1143 37.294 12.0811C37.3442 12.0102 38.7653 11.6464 38.464 11.585C38.0646 11.6629 37.5972 11.7657 37.1715 11.8548C36.68 10.7054 36.9167 9.40898 36.7305 8.18892C36.7225 8.13747 35.9828 8.39102 35.9634 8.29226C35.8505 7.7213 35.5199 7.21609 36.1471 6.46966C36.2083 6.39585 37.5498 6.13399 37.3108 6.00801C37.2674 5.98593 37.0335 5.76911 36.7293 5.76621C36.6836 5.76677 36.0706 5.94947 36.0344 5.871C35.8352 5.41259 35.8679 4.87925 36.1442 4.31757C36.19 4.22669 36.8716 4.16409 36.91 4.09812C37.1771 3.63133 36.5801 3.31718 37.1013 2.81303C37.4526 2.47505 38.6199 2.31713 39.7201 1.9382C39.8754 1.88469 39.8669 1.72471 40.5221 1.57338C42.1697 1.19244 43.995 0.872576 45.7492 0.45768C46.127 0.368442 45.6734 0.250694 46.6167 0.173203C46.6799 0.168377 47.0168 0.251992 47.3358 0.221093C47.5564 0.19991 48.2144 0.00778613 48.501 0.000221566C48.7874 -0.00729161 48.2399 0.172565 48.5822 0.189016C48.9285 0.204554 49.6802 0.000484244 49.8081 0.154497ZM50.1715 50.0352C50.7667 49.7316 48.4487 50.3253 49.0413 50.3263C49.0727 50.3257 50.1424 50.0505 50.1715 50.0352ZM57.7022 66.769C58.2128 65.8167 57.0348 66.8355 56.6293 67.5711C56.2501 68.3266 57.5623 67.0698 57.7022 66.769ZM60.2281 67.4607C60.3522 66.6019 58.8135 69.6273 59.4327 69.1588C59.4687 69.1325 60.223 67.5114 60.2281 67.4607ZM40.1758 2.48277C40.2064 2.4741 40.2125 2.35646 40.1811 2.36052C39.4258 2.4634 39.4142 2.69851 40.1758 2.48277ZM62.5848 67.3101C62.5985 66.8467 62.2911 67.3249 62.2671 67.9023C62.2568 68.3694 62.5786 67.8893 62.5848 67.3101ZM50.8349 42.2633C50.869 42.2527 50.8811 42.1669 50.6857 42.2162C50.0563 42.3753 50.2609 42.4409 50.8349 42.2633ZM65.9477 67.491C65.4618 67.3627 65.2122 64.5568 65.7092 64.8763C65.801 64.9339 65.5077 65.7692 65.6233 66.0224C65.8389 66.4837 65.9838 64.7239 66.2056 65.6669C66.2459 65.8395 65.9756 67.5046 65.9468 67.4949C65.9471 67.4936 65.9474 67.4923 65.9477 67.491ZM52.9282 49.2188C52.9581 49.208 52.9584 49.092 52.9273 49.0974C52.1775 49.2333 52.1767 49.4678 52.9282 49.2188ZM51.1663 37.301C51.2305 37.2796 51.232 37.0112 51.1696 37.017C49.9292 37.1692 49.9229 37.7138 51.1663 37.301ZM56.7139 55.9657C57.4769 55.8399 57.6058 55.9431 56.7267 56.3402C56.7361 56.2073 56.7061 56.0927 56.7139 55.9657Z" fill="#FC4C02"/>
<path d="M82.2658 22.7511C81.4008 23.6554 80.7426 23.7446 80.138 23.7479C79.9573 23.7419 79.8152 23.3347 79.6811 23.3136C79.4171 23.2735 79.3659 23.5398 79.1019 23.4606C79.0165 23.4309 78.7596 22.8057 78.6779 22.7877C78.2256 22.6967 78.0148 23.0032 77.6577 23.03C75.85 23.1838 74.3751 23.6326 72.7908 24.0694C72.2838 24.2062 71.4454 23.9364 71.0646 24.4171C71.0212 24.4734 71.3125 24.9874 71.3229 25.0364C71.4819 25.786 71.0181 24.6881 70.8404 24.5984C70.5186 24.4374 70.2342 24.3901 69.9853 24.427C69.7041 24.4636 69.4738 24.6193 69.294 24.8428C69.1534 25.0196 69.8444 25.987 69.3744 25.4834C69.3425 25.4495 69.1177 24.8629 69.0393 24.8264C68.8658 24.7431 68.7051 24.9442 68.5972 24.9409C68.388 24.9316 68.3629 24.9506 68.2 25.0206C67.9685 25.1144 67.5914 24.9496 67.4192 25.189C67.3836 25.2416 67.7254 25.7896 67.6935 25.9259C67.6616 26.0619 67.4271 26.1134 67.2902 26.011C67.1534 25.9085 66.967 25.4385 66.9045 25.3402C66.3824 24.5079 66.7273 25.8407 66.71 25.8859C66.3872 26.6703 65.5753 26.2032 65.0417 26.4584C64.6327 26.6557 64.3237 27.0831 63.9177 27.2363C63.44 27.4132 62.9116 27.2779 62.4859 27.5446C62.4408 27.5719 62.8178 28.2286 62.7638 28.2632C62.2018 28.625 61.5505 28.8404 60.7342 28.6608C60.6514 28.6425 60.4481 28.006 60.3486 27.9518C59.7431 27.6346 58.6026 26.7247 59.6063 29.4401C59.3076 29.4557 58.9473 29.4959 58.4779 29.0736C58.1749 28.8022 58.0092 28.0827 57.9623 28.4448C57.9513 28.5257 58.2713 29.0738 58.2346 29.1519C58.0795 29.4799 57.7145 29.4238 57.5998 29.8379C57.5771 29.9234 57.831 30.43 57.8596 30.5292C58.0859 31.3353 57.3079 30.1916 57.2214 30.1225C56.573 29.6087 56.4502 29.9874 56.1275 30.118C56.0525 30.148 56.4606 30.7972 56.3999 30.8508C56.0835 31.1188 55.6811 31.2343 55.1816 31.0945C55.0698 31.0618 54.869 30.4403 54.8016 30.3946C54.5078 30.2001 54.9865 31.3274 54.7159 31.1617C54.6595 31.1282 54.4442 30.6164 54.4124 30.564C53.9128 29.7416 54.4014 31.009 54.3893 31.0476C54.2494 31.5638 53.4522 30.3742 53.2337 30.6968C53.2081 30.7367 53.5859 31.3351 53.4959 31.4084C52.9015 31.8986 52.1009 32.0578 51.1951 31.859C51.0545 31.829 50.907 31.3161 50.8731 31.2602C50.3388 30.3883 50.8422 31.655 50.8297 31.7173C50.7166 32.1765 49.9856 31.2574 50.4851 32.8125C49.1122 32.8287 48.3627 34.1782 46.6253 33.3808C46.6039 33.3721 46.3486 32.7517 46.3072 32.737C45.8054 32.5541 46.3088 33.4691 46.614 34.7314C46.6904 35.0485 45.8711 33.7325 45.8084 33.6372C45.5781 33.2859 45.2189 32.3534 45.1663 32.289C44.7456 31.7872 46.152 34.7702 45.9418 34.8683C45.9329 34.8663 45.7065 34.3023 45.6635 34.2557C45.5293 34.1089 45.5759 34.353 45.4348 34.188C45.1096 33.8055 44.3952 32.3703 44.5984 33.3035C44.6252 33.4244 45.4446 35.1065 45.2195 35.113C45.1288 35.1142 44.8095 35.2965 44.6659 35.2292C44.5223 35.162 44.3341 34.5851 44.3165 34.5644C43.733 33.9555 43.6898 33.6117 43.0713 32.5972C42.4548 31.5867 43.6616 34.1181 43.7415 34.4259C43.8208 34.7329 43.3632 34.2195 43.2228 34.0324C43.0824 33.8453 42.9783 33.4715 42.8843 33.3723C42.2644 32.7266 43.3488 34.6906 43.4469 35.1354C43.6798 36.1882 42.6502 34.3728 42.3764 34.2743C42.3024 34.2478 42.5418 34.659 42.5148 34.7201C42.4054 34.9565 42.0265 34.4165 42.0709 35.0509C42.078 35.1543 42.4324 36.3673 41.9419 35.5829C41.8714 35.4696 41.6986 34.9788 41.5731 34.9087C41.3852 34.8032 41.1309 34.7953 41.08 35.0092C41.0424 35.1674 41.5027 35.8958 41.2776 35.7072C41.1774 35.6228 41.0634 35.1256 40.8925 35.005C40.7217 34.8844 40.4904 35.0146 40.4034 35.0734C40.3176 35.1321 40.6385 35.6976 40.6491 35.7407C40.7077 35.9889 40.6593 36.3546 40.6432 36.3611C39.8853 36.7953 38.697 36.1383 38.0801 36.8173C38.0304 36.8701 38.3548 37.4729 38.3501 37.4873C38.2602 37.843 37.6704 36.1159 37.2724 35.6294C37.8691 36.8807 37.6789 36.6917 37.5958 36.8967C37.5563 36.9965 37.8175 37.4672 37.8338 37.5201C38.0678 38.3094 37.5584 37.3845 37.4503 37.1971C37.0526 36.5076 37.3664 37.3935 37.0999 36.9329C36.8352 36.4759 36.6191 35.718 36.4845 35.7904C36.6514 36.2596 37.2924 37.3923 37.2742 37.6316C37.2003 38.539 36.0318 37.9532 35.6649 38.0039C35.296 38.0557 35.2304 38.186 34.9691 38.1078C34.4981 37.9656 35.0203 38.785 34.9931 39.2809C34.9606 39.7792 34.0869 37.5764 33.8458 37.127C33.6055 36.6775 33.789 37.1692 33.6361 36.9315C33.4834 36.6938 33.421 36.3422 33.2902 36.2863C33.1592 36.2306 33.2952 37.1624 33.4843 37.6609C33.8848 38.7169 34.4795 39.7463 34.0792 39.4713C34.0559 39.4547 33.8417 38.8685 33.7655 38.834C33.1741 38.5759 32.727 38.7456 32.1597 38.5368C32.0809 38.5074 31.8445 37.8544 31.7955 37.8301C31.2788 37.5775 31.8766 38.5886 32.225 39.8541C31.5571 38.2621 31.0192 37.3464 30.7619 37.4512C30.6073 37.5135 30.9432 38.1889 31.0638 38.7173C31.1002 38.8765 30.7813 38.4525 30.9078 38.7843C31.3196 39.8697 31.955 41.0063 31.4756 40.6556C31.4538 40.6385 31.2308 40.0433 31.1747 40.0264C30.8113 39.9141 31.2772 41.0336 31.0614 41.2915C31.0116 41.3511 30.917 41.3492 30.8013 41.3166C30.5144 41.2438 30.1077 40.9965 29.8996 40.9968C29.1117 39.2236 29.0622 39.7325 29.5159 40.9951C29.3275 41.0194 29.1817 41.1672 28.9508 41.0678C28.8716 41.034 28.678 40.5053 28.6465 40.4528C28.1555 39.6292 28.6165 40.8487 28.6029 40.9106C28.4324 41.5296 27.711 40.7706 27.7515 41.8072C27.7525 41.8447 28.2767 43.0867 27.7797 42.2305C27.746 42.1712 27.6189 41.5568 27.427 41.5899C27.2322 41.6242 26.6335 41.0988 26.6433 41.777C26.6457 41.9402 26.9399 43.0063 26.4803 42.2744C26.4182 42.1749 26.2794 41.8137 26.1707 41.6265C25.8234 41.0304 26.3325 42.2948 25.7842 41.2715C25.2405 40.2463 24.7064 39.5342 24.7916 40.3685C24.7934 40.393 25.1701 41.4068 25.0895 41.4234C24.9631 41.4479 24.6998 41.3174 24.5767 41.3787C24.518 41.4083 24.8242 42.0063 24.8187 42.0221C24.5719 42.5393 24.0378 42.1193 23.5104 42.0642C23.4101 42.0542 23.5419 42.9928 23.1079 42.3924C22.6315 41.7355 21.5025 38.6383 21.4285 39.5228C21.4028 39.8748 22.8335 43.8046 21.7106 41.9304C21.3734 42.6552 20.4488 41.8416 20.1974 42.7732C20.1852 42.8149 20.5492 43.9255 20.4847 43.9348C20.3882 43.9465 20.1352 43.4615 20.0614 43.4529C19.7389 43.4075 19.6806 43.934 19.4037 43.9673C19.3006 43.9804 19.1244 43.4442 18.9983 43.4608C18.8725 43.4778 19.0762 44.1952 18.789 43.9239C18.5694 43.7173 17.9031 42.3506 17.6838 42.2471C18.2256 43.6409 18.1108 43.6531 18.0672 44.0941C18.0588 44.1796 18.2874 44.6491 18.2932 44.7145C18.3205 44.9919 18.0994 44.6152 18.1401 44.9127C18.1496 44.9842 18.3342 45.4604 18.3525 45.5458C18.5112 46.2911 17.9106 45.2918 17.808 45.1171C17.4114 44.456 17.5946 45.0973 17.3945 44.8539C17.1949 44.6103 17.1982 44.2083 17.0249 44.0806C16.6651 43.8169 16.4083 44.0038 16.1712 44.0698C16.078 44.0989 16.3847 44.7114 16.377 44.7304C16.2516 44.9638 15.7995 44.3608 16.1851 45.6675C14.7902 42.4425 16.1939 46.0291 15.6739 45.477C15.6323 45.4321 15.0034 43.8952 14.9973 43.6361C14.9912 43.3772 15.3022 43.8133 15.2791 43.415C15.2737 43.3214 14.8677 41.8105 14.8554 41.7143C14.7563 40.9631 15.6699 43.2701 15.7275 43.394C16.3534 44.7289 15.9392 43.0925 15.947 42.9654C15.9815 42.3837 16.2965 42.6365 16.3481 42.2106C16.3811 41.9354 15.8075 40.4147 15.9206 40.4244C16.2923 40.4568 17.2272 42.5258 16.8077 40.5789C16.7175 40.1638 16.0038 38.5359 16.7408 39.7468C16.7885 39.8227 17.4225 40.9462 17.2224 40.156C17.197 40.0564 17.0056 39.5754 17.0056 39.5286C17.0113 39.2237 17.2303 39.5804 17.2739 39.3502C17.3189 39.1195 17.3443 38.7919 17.5428 38.9012C17.6624 38.9661 18.1276 39.8183 18.2537 40.022C18.6168 40.6088 18.314 39.5278 18.6944 40.2622C19.0756 41.0008 19.4182 42.219 19.7987 42.6413C19.2957 41.3939 18.7876 40.1102 18.2852 38.8543C18.6965 38.7369 19.2329 38.9853 19.6083 38.7637C19.654 38.7351 19.3251 38.0889 19.3649 38.0419C19.5302 37.8481 19.9357 38.2365 20.0737 37.9552C20.1841 37.7329 20.0842 36.9435 20.1858 36.6905C20.8993 38.0594 20.9753 37.4586 21.2231 37.5052C21.3115 37.5201 21.4693 37.8997 21.572 38.0015C21.957 38.3758 21.3308 37.1646 21.2981 36.9457C21.1588 36.011 22.3891 38.8329 22.6224 38.649C22.635 38.6403 22.1537 37.0605 22.1369 36.9564C22.0155 36.2827 22.3881 37.47 22.5265 37.5421C22.7797 37.6737 23.0529 37.9822 23.0622 37.4537C23.0672 37.2963 22.7894 36.3016 23.2172 36.9779C23.2733 37.0665 23.4825 37.567 23.507 37.5909C23.9326 37.9827 23.2558 36.4185 23.1478 35.8356C23.0447 35.2508 23.6962 36.2495 23.8726 36.5424C24.3252 37.3016 23.9471 36.9191 23.9766 37.0002C24.3257 37.9657 24.39 37.7448 24.5302 37.7777C25.218 39.3007 25.3265 39.1434 24.6733 37.8054C24.6016 37.6594 24.582 37.8383 24.5302 37.7777C23.9624 36.2364 24.0402 35.9727 24.8416 37.2937C25.2134 37.9145 25.4725 38.7154 25.6009 38.3238C25.6602 38.1465 25.1505 37.1138 25.1257 36.7818C25.0731 36.0225 25.8073 36.8711 25.9779 36.6102C26.0404 36.5153 25.6995 35.9775 25.7334 35.8928C25.8208 35.667 26.1632 36.0318 26.2171 35.7429C26.2219 35.7158 25.9193 35.1289 25.9642 35.0997C26.2958 34.8682 26.8152 35.0987 27.1969 34.9407C27.3544 34.8751 27.5136 34.528 27.6978 34.3995C27.7326 34.3748 27.7684 34.3587 27.8053 34.3555C28.1846 34.3199 29.0102 34.9998 29.1985 34.6595C29.3238 34.4396 29.0122 33.8567 28.9079 33.4109C28.7046 32.5472 29.6249 33.8435 29.7624 34.0464C29.7668 34.0532 29.6663 34.2691 29.8933 34.5381C30.2344 35.1579 29.7619 34.05 29.7624 34.0464C29.853 34.1767 30.2391 34.1666 30.2499 34.0234C30.2562 33.945 29.9796 33.3844 29.9877 33.3543C30.1868 32.6508 30.5666 32.3046 31.1207 32.3741C31.1336 32.3821 31.4105 33.0239 31.4374 33.0347C31.8204 33.2023 31.6331 32.3485 31.6359 31.7898C31.6332 31.2338 31.8691 31.3133 32.4897 32.3491C32.5855 32.1397 33.0339 32.5184 33.2999 32.751C33.5661 32.9835 33.0206 31.7371 33.0208 31.7075C33.0195 30.7624 33.5492 31.3768 33.9751 31.3159C34.1817 31.2876 34.4454 30.9505 34.576 30.7274C34.6777 30.5493 34.9016 30.7975 34.9574 30.548C34.9651 30.5145 34.6943 29.9723 34.6904 29.9485C34.5463 29.2176 35.086 30.599 35.2282 30.8248C35.7449 31.646 36.0326 32.0777 36.0419 31.5761C36.0446 31.461 35.2919 29.4608 35.3237 29.3092C35.3668 29.1156 35.6434 29.8294 35.6806 29.6088C35.6841 29.5906 35.486 29.1627 35.5652 29.1494C35.931 29.0814 36.4039 29.1667 36.7221 28.9691C36.7665 28.9436 36.3957 28.2909 36.4548 28.2429C36.7311 28.0189 37.0946 27.8828 37.5434 28.0621C37.6554 28.108 37.8265 28.6056 37.9077 28.7394C38.4 29.5485 37.9728 28.2408 37.9854 28.2063C38.2739 27.3514 39.22 28.278 39.5463 27.4799C39.5631 27.4342 39.1914 25.9924 39.8239 27.0847C39.866 27.1573 40.5104 28.2761 40.2358 27.4348C40.2187 27.3822 39.8764 26.8111 40.0192 26.8196C40.162 26.828 40.162 26.3415 40.6242 26.9293C40.7701 27.1144 41.4248 28.2248 41.147 27.2273C41.1269 27.1579 40.3911 24.9518 41.141 26.3624C41.264 26.5948 41.9571 28.1337 41.7727 27.2659C41.7365 27.0979 41.5173 26.7844 41.5085 26.5296C41.494 26.1374 41.8651 26.4641 41.7194 25.7034C41.6932 25.5689 41.339 24.4708 41.8038 25.2139C41.8766 25.3303 42.0825 25.8558 42.1622 25.8885C42.5422 26.0464 42.6492 25.5819 43.0687 25.8177C43.2169 25.9001 43.5522 26.7486 43.7493 26.9265C43.9463 27.1043 44.2358 27.2292 44.1606 26.8054C44.0853 26.3815 43.3681 25.1136 43.4681 24.9395C43.9027 24.1829 44.8989 24.6605 45.5964 24.4749C45.6998 24.4475 45.4023 24.0128 45.5391 23.9386C46.0421 23.6632 46.7342 22.8055 47.6489 23.5979C48.3818 24.2324 48.2112 25.0537 48.6383 25.2521C48.8436 25.346 48.2771 23.7482 48.287 23.685C48.3742 23.0494 48.9074 23.6261 49.093 23.2869C49.1312 23.2167 48.7857 22.6229 48.8214 22.5699C48.9408 22.3836 49.2466 22.5782 49.386 22.4517C49.4477 22.3937 49.2139 21.9262 49.2979 21.9316C49.4964 21.9391 49.7306 22.0723 50.0931 22.4438C50.1261 22.4776 50.3045 23.1115 50.4331 23.0783C50.6406 23.0228 51.0805 23.351 51.0912 22.7956C51.0935 22.629 50.5919 21.5453 51.0811 22.2272C51.1834 22.3695 51.7513 23.6868 51.3921 22.4873C51.3329 22.2878 50.9019 20.645 51.4916 21.5585C51.6469 21.7989 52.2335 22.8201 52.2339 22.6164C52.2321 22.5848 51.9184 22.0233 51.9569 21.9364C52.0956 21.6407 52.3691 21.5886 52.5195 21.2967C52.5593 21.2175 52.1847 20.6599 52.2529 20.5611C52.4407 20.2883 52.83 20.293 53.1722 20.3623C53.2987 20.3892 53.4669 20.9175 53.499 20.9685C54.0206 21.799 53.5288 20.5788 53.5326 20.4925C53.5635 19.9717 53.9958 20.4507 54.1326 20.2064C54.1711 20.1405 53.8653 19.5921 53.853 19.5362C53.7389 18.9871 54.1284 20.0467 54.2551 20.1243C54.6096 20.346 54.8269 20.1887 55.0038 20.0174C55.0687 19.9535 54.6732 19.3368 54.7349 19.2871C55.0939 18.9807 55.5494 18.8439 56.1243 19.0162C56.2326 19.0501 56.4226 19.5787 56.4927 19.6869C56.9815 20.4447 56.6222 19.2667 56.6093 19.1445C56.55 18.5866 56.8229 19.0048 56.9314 18.8518C57.4603 18.0954 58.488 17.9734 59.2452 17.8396C60.2468 17.6546 61.1574 17.8122 61.935 17.29C61.9857 17.257 61.612 16.6109 61.6515 16.5738C62.1705 16.1287 62.8838 16.111 63.3761 15.6377C63.4167 15.6002 63.044 14.9966 63.0989 14.9151C63.2146 14.7409 63.4379 14.6766 63.696 14.8027C63.8215 14.8629 63.9774 15.4592 64.0984 15.5087C64.3822 15.6243 64.5908 15.58 64.74 15.3829C64.8005 15.2988 64.3647 14.7079 64.4674 14.6493C64.6814 14.522 64.887 14.3929 65.0994 14.2912C65.6021 14.0505 66.1393 13.9463 66.9155 14.2862C66.9923 14.3201 67.673 15.6193 67.656 15.3148C67.4859 14.9451 67.2758 14.5151 67.0888 14.1225C68.0146 13.4106 69.2596 13.3639 70.2918 12.9309C70.3342 12.913 69.9135 12.2553 69.9933 12.2173C70.4772 11.9856 70.8198 11.5686 71.6351 12.0133C71.7172 12.0555 72.3291 13.2778 72.3707 13.0224C72.3798 12.9751 72.4876 12.7119 72.4052 12.4195C72.3911 12.3763 72.0547 11.8328 72.1104 11.7821C72.4291 11.5022 72.8649 11.4291 73.3473 11.5986C73.4252 11.6273 73.7198 12.2419 73.779 12.267C74.1898 12.4506 74.195 11.8088 74.3196 12.4874C74.3166 13.0424 75.1807 13.8483 75.9084 14.7769C75.96 14.8446 75.9279 14.9568 75.9431 15.1672C75.9499 15.3874 76.0647 15.6609 76.3949 15.7322C77.2149 15.9382 78.0967 16.0604 78.9473 16.3653C79.8047 16.6443 80.6138 17.1126 81.5366 17.1817C81.7457 17.2232 81.9162 16.3694 81.9598 16.0964C81.9939 15.9535 82.04 15.9441 82.1391 15.941C82.2371 15.9573 82.3906 15.8754 82.619 16.1414C82.6433 16.1481 82.7592 16.6501 82.6651 17.4507C82.6134 17.8559 82.5495 18.1865 82.477 18.4967C82.4249 18.7649 82.3839 18.9804 82.3879 19.1215C82.395 19.5077 83.283 19.4207 83.1552 20.0994C82.9791 20.8115 82.2676 20.7175 82.1681 21.2628C82.114 21.7596 82.6825 22.3069 82.2658 22.7511ZM34.4839 33.7926C34.8758 34.332 33.9021 32.1462 34.0083 32.7269C34.0146 32.7575 34.4644 33.7663 34.4839 33.7926ZM19.931 40.6491C20.4928 41.5585 20.0057 40.0801 19.5797 39.3747C19.1559 38.6693 19.7612 40.3732 19.931 40.6491ZM18.57 42.0385C19.0659 42.7359 17.8252 39.5777 17.8866 40.2924C17.8899 40.3329 18.5413 41.998 18.57 42.0385ZM76.1521 14.9504C76.1714 14.9759 76.2449 14.9617 76.2267 14.9358C75.8019 14.3055 75.6847 14.3134 76.1521 14.9504ZM17.2206 43.4721C17.4447 43.8775 17.4242 43.3171 17.1437 42.8137C16.9182 42.4088 16.9417 42.9679 17.2206 43.4721ZM41.8837 33.2154C41.9005 33.2469 41.9842 33.2437 41.8987 33.0612C41.6228 32.4736 41.6014 32.685 41.8837 33.2154ZM14.3804 44.6143C14.8539 44.5643 16.1212 47.0786 15.5575 46.9601C15.4545 46.9392 15.4067 46.059 15.21 45.8648C14.8465 45.5131 15.3722 47.1977 14.8259 46.4002C14.7258 46.2543 14.3514 44.6112 14.3797 44.6104C14.3799 44.6117 14.3801 44.613 14.3804 44.6143ZM35.7447 36.3764C35.7602 36.4041 35.8703 36.387 35.8596 36.3574C35.5977 35.642 35.3758 35.6761 35.7447 36.3764ZM46.6117 32.6664C46.6453 32.7251 46.898 32.6779 46.8794 32.618C46.4765 31.4358 45.9643 31.5279 46.6117 32.6664ZM29.8746 40.9513C30.0806 41.6964 29.9913 41.8348 29.5167 40.9958C29.6411 40.996 29.7493 40.9558 29.8746 40.9513Z" fill="#FC4C02"/>
<path d="M127.313 35.9483C127.627 36.0999 127.597 36.5271 127.454 36.9148C127.409 37.0358 127.013 37.1918 126.965 37.2841C126.873 37.4644 127.108 37.466 126.987 37.6595C126.945 37.7246 126.327 37.9912 126.297 38.0524C126.135 38.3854 126.383 38.4929 126.36 38.7577C126.242 40.0628 126.518 41.1432 126.76 42.2784C126.84 42.6525 126.505 43.3309 126.916 43.5473C126.965 43.5724 127.477 43.2784 127.524 43.2637C128.246 43.0408 127.168 43.5472 127.067 43.6969C126.67 44.2893 126.797 44.6535 127.151 44.8445C127.303 44.9248 128.28 44.263 127.76 44.6901C127.725 44.7192 127.152 44.974 127.11 45.0389C127.017 45.1856 127.193 45.2822 127.18 45.3652C127.152 45.5266 127.167 45.5431 127.217 45.6566C127.282 45.8144 127.097 46.1359 127.306 46.2325C127.352 46.2522 127.9 45.9133 128.025 45.9184C128.15 45.9237 128.177 46.0938 128.067 46.2124C127.958 46.3308 127.498 46.5401 127.4 46.6017C126.568 47.119 127.858 46.6705 127.899 46.677C128.608 46.8125 128.097 47.5036 128.289 47.874C128.436 48.1536 128.817 48.3414 128.923 48.6255C129.046 48.9645 128.876 49.3957 129.087 49.6791C129.109 49.7094 129.762 49.3288 129.789 49.3651C130.085 49.7519 130.226 50.2129 129.988 50.8691C129.963 50.9351 129.344 51.1794 129.284 51.2632C128.931 51.7706 127.97 52.7695 130.624 51.6264C130.613 51.8544 130.617 52.1215 130.177 52.5406C129.894 52.8106 129.199 53.036 129.538 53.0231C129.613 53.0206 130.159 52.6998 130.23 52.7175C130.527 52.7927 130.441 53.08 130.822 53.1099C130.9 53.1154 131.402 52.8517 131.498 52.8161C132.279 52.5312 131.13 53.2864 131.057 53.3619C130.514 53.9306 130.861 53.9729 130.955 54.2009C130.976 54.2539 131.627 53.8539 131.672 53.8927C131.898 54.1009 131.971 54.3961 131.793 54.796C131.752 54.8858 131.146 55.1231 131.097 55.1807C130.886 55.4316 131.995 54.9139 131.815 55.1445C131.778 55.1924 131.274 55.4255 131.222 55.4569C130.399 55.9497 131.642 55.4066 131.677 55.4108C132.154 55.4509 130.954 56.2168 131.24 56.3427C131.275 56.357 131.876 55.9885 131.937 56.0479C132.347 56.4405 132.424 57.0345 132.15 57.7535C132.109 57.8655 131.609 58.044 131.553 58.0772C130.677 58.5988 131.924 58.0506 131.982 58.0523C132.407 58.081 131.466 58.7568 132.986 58.1765C132.872 59.2275 134.08 59.6395 133.15 61.0647C133.14 61.0822 132.526 61.3517 132.508 61.3853C132.284 61.7921 133.203 61.2977 134.431 60.9151C134.74 60.8194 133.408 61.6015 133.311 61.6604C132.955 61.8778 132.033 62.2626 131.967 62.3103C131.448 62.6902 134.421 61.2626 134.493 61.4138C134.49 61.4209 133.932 61.6599 133.883 61.6983C133.73 61.8184 133.967 61.7546 133.796 61.8821C133.4 62.176 131.964 62.8885 132.871 62.6251C132.988 62.5905 134.67 61.7699 134.653 61.9416C134.644 62.0103 134.784 62.2339 134.706 62.3525C134.627 62.4705 134.059 62.6794 134.038 62.6953C133.399 63.211 133.068 63.2826 132.039 63.8694C131.014 64.4536 133.546 63.2468 133.846 63.1513C134.146 63.0563 133.61 63.4634 133.417 63.5912C133.225 63.7192 132.859 63.8406 132.754 63.9233C132.075 64.4679 134.056 63.4219 134.489 63.298C135.515 63.0047 133.68 63.9915 133.556 64.2102C133.522 64.2694 133.939 64.042 133.994 64.0558C134.207 64.113 133.653 64.4613 134.261 64.361C134.36 64.3446 135.552 63.945 134.752 64.4026C134.637 64.4683 134.151 64.6524 134.071 64.7553C133.976 64.8759 133.933 65.0207 134.013 65.0854C134.036 65.1038 134.068 65.1161 134.111 65.1199C134.257 65.1327 135.001 64.705 134.797 64.8973C134.706 64.9829 134.22 65.1209 134.086 65.2643C133.952 65.4074 134.051 65.5724 134.096 65.6312C134.142 65.6898 134.716 65.3882 134.759 65.3756C135.001 65.3054 135.343 65.3044 135.347 65.3159C135.678 65.8596 134.909 66.8217 135.483 67.2346C135.527 67.2674 136.141 66.9661 136.154 66.9683C136.482 67.0045 134.764 67.6095 134.252 67.9549C135.517 67.3887 135.313 67.55 135.498 67.5943C135.588 67.6152 136.069 67.375 136.121 67.3578C136.902 67.1098 135.959 67.581 135.767 67.6793C135.06 68.0427 135.944 67.7274 135.472 67.9705C135.003 68.2117 134.254 68.4414 134.306 68.5378C134.774 68.3706 135.934 67.7845 136.16 67.7788C137.015 67.7558 136.311 68.7026 136.31 68.9755C136.311 69.2514 136.427 69.2914 136.318 69.4959C136.12 69.8651 136.972 69.4088 137.443 69.3958C137.914 69.384 135.693 70.2066 135.231 70.4218C134.769 70.6362 135.263 70.461 135.015 70.5936C134.768 70.7259 134.424 70.7999 134.352 70.9016C134.281 71.0031 135.187 70.8302 135.69 70.6535C136.753 70.2768 137.817 69.753 137.501 70.0789C137.482 70.0979 136.892 70.3001 136.849 70.3608C136.524 70.8338 136.618 71.1501 136.34 71.5979C136.3 71.6597 135.642 71.8785 135.612 71.9173C135.295 72.3208 136.348 71.8067 137.608 71.4678C135.989 72.0679 135.036 72.5276 135.097 72.7131C135.133 72.8251 135.828 72.5329 136.351 72.4121C136.509 72.3756 136.057 72.6418 136.393 72.5281C137.492 72.1576 138.673 71.615 138.266 71.9954C138.247 72.0128 137.645 72.2136 137.62 72.2567C137.458 72.536 138.598 72.1232 138.814 72.2791C138.984 72.4019 138.4 72.9485 138.357 73.1751C136.538 73.8507 137.017 73.8652 138.298 73.4705C138.291 73.6085 138.409 73.7107 138.278 73.8903C138.233 73.9517 137.696 74.119 137.641 74.1449C136.775 74.5486 138.016 74.1526 138.073 74.161C138.641 74.2697 137.795 74.8321 138.797 74.7733C138.834 74.771 140.109 74.3342 139.207 74.7361C139.145 74.7633 138.536 74.8804 138.536 75.0222C138.536 75.1647 137.937 75.6394 138.587 75.6069C138.744 75.5992 139.815 75.3477 139.037 75.7142C138.931 75.7637 138.562 75.8778 138.364 75.9647C137.735 76.2418 139.033 75.8259 137.96 76.2659C136.888 76.7058 136.111 77.1131 136.926 77.028C136.95 77.0259 137.986 76.7188 137.988 76.7794C137.992 76.8763 137.82 77.0724 137.858 77.1618C137.876 77.2045 138.502 76.9626 138.516 76.9663C138.973 77.1438 138.476 77.5448 138.333 77.9423C138.306 78.0151 139.23 77.8993 138.579 78.2359C137.867 78.6036 134.695 79.4926 135.53 79.528C135.864 79.5413 139.889 78.4156 137.892 79.2784C138.53 79.5158 137.588 80.2135 138.442 80.3873C138.48 80.3952 139.612 80.1108 139.61 80.1584C139.605 80.2295 139.094 80.4235 139.074 80.4789C138.974 80.7152 139.473 80.7533 139.458 80.9576C139.454 81.0345 138.907 81.1722 138.902 81.2635C138.897 81.3545 139.624 81.1975 139.314 81.4119C139.077 81.5746 137.649 82.0905 137.512 82.2506C138.947 81.831 138.941 81.9162 139.36 81.9419C139.441 81.9466 139.932 81.7716 139.996 81.7663C140.268 81.7417 139.868 81.9103 140.163 81.8766C140.234 81.8687 140.724 81.7258 140.809 81.7112C141.555 81.5829 140.492 82.04 140.307 82.1188C139.603 82.4196 140.253 82.2755 139.985 82.427C139.718 82.5781 139.329 82.5808 139.178 82.7104C138.865 82.9791 139.004 83.1648 139.029 83.3376C139.042 83.4057 139.685 83.1729 139.702 83.1783C139.908 83.2689 139.25 83.6063 140.577 83.3112C137.227 84.3653 140.929 83.3009 140.308 83.6904C140.258 83.7215 138.666 84.1923 138.414 84.1994C138.163 84.2066 138.637 83.9755 138.249 83.9975C138.157 84.0022 136.629 84.3176 136.535 84.3287C135.793 84.413 138.174 83.7153 138.303 83.6715C139.697 83.1958 138.046 83.5206 137.925 83.5174C137.368 83.5014 137.663 83.2665 137.26 83.2357C136.999 83.2149 135.436 83.6596 135.464 83.5769C135.555 83.3039 137.707 82.5828 135.757 82.921C135.341 82.9931 133.651 83.5416 134.942 82.9816C135.024 82.9468 136.212 82.4602 135.416 82.6191C135.316 82.6392 134.82 82.787 134.775 82.7877C134.482 82.7896 134.861 82.6195 134.647 82.5908C134.432 82.5622 134.119 82.5452 134.258 82.3974C134.341 82.3088 135.242 81.9546 135.459 81.8578C136.086 81.5807 134.993 81.8195 135.766 81.5305C136.543 81.2391 137.775 80.9716 138.247 80.6827C136.959 81.0703 135.635 81.4622 134.339 81.8496C134.298 81.5526 134.627 81.1459 134.482 80.8794C134.462 80.8469 133.783 81.0988 133.745 81.0697C133.586 80.9464 134.034 80.6531 133.786 80.5512C133.592 80.4732 132.818 80.5681 132.593 80.4965C134.032 79.945 133.471 79.9082 133.559 79.7229C133.589 79.6581 133.98 79.5338 134.096 79.4566C134.524 79.1679 133.252 79.6543 133.036 79.6844C132.117 79.8139 135.037 78.8376 134.902 78.6728C134.896 78.6633 133.299 79.0606 133.197 79.077C132.53 79.1834 133.733 78.8789 133.826 78.7748C133.996 78.5846 134.339 78.3749 133.836 78.3877C133.687 78.3919 132.685 78.623 133.407 78.289C133.502 78.2452 134.017 78.0761 134.044 78.0574C134.493 77.7329 132.879 78.2799 132.303 78.3812C131.728 78.4832 132.795 77.9675 133.106 77.8288C133.91 77.4703 133.479 77.7611 133.562 77.7368C134.546 77.4482 134.345 77.4071 134.4 77.303C135.975 76.7446 135.843 76.6698 134.452 77.1973C134.3 77.2551 134.467 77.2628 134.4 77.303C132.828 77.7737 132.591 77.7306 133.993 77.097C134.649 76.7997 135.459 76.5793 135.106 76.4971C134.946 76.4597 133.872 76.8748 133.551 76.9068C132.818 76.9801 133.753 76.407 133.532 76.2922C133.451 76.251 132.881 76.5249 132.806 76.5043C132.604 76.4505 133.013 76.1916 132.745 76.1624C132.72 76.1601 132.109 76.4104 132.089 76.3788C131.921 76.1429 132.234 75.7696 132.142 75.4906C132.097 75.3547 131.669 75.2492 131.685 75.0862C131.71 74.8051 132.494 74.1715 132.197 74.0495C132.006 73.9713 131.403 74.2393 130.962 74.3463C130.109 74.5554 131.487 73.795 131.701 73.6795C131.708 73.6757 131.898 73.7332 132.189 73.5485C132.831 73.255 131.704 73.6796 131.701 73.6795C131.839 73.6048 131.889 73.3231 131.754 73.3244C131.68 73.3253 131.105 73.5693 131.077 73.5655C130.437 73.4686 130.171 73.2317 130.317 72.8148C130.326 72.8047 130.977 72.5496 130.991 72.5289C131.207 72.2346 130.369 72.4445 129.84 72.4922C129.311 72.5393 129.421 72.3617 130.494 71.8158C130.309 71.7642 130.732 71.402 130.991 71.1854C131.249 70.9687 129.989 71.4828 129.961 71.4853C129.064 71.5724 129.72 71.1256 129.722 70.8196C129.725 70.6743 129.439 70.5085 129.245 70.4338C129.09 70.3758 129.356 70.1878 129.127 70.1723C129.096 70.1701 128.546 70.4241 128.523 70.4294C127.812 70.6109 129.193 70.0729 129.425 69.9454C130.273 69.4816 130.72 69.2261 130.244 69.2668C130.135 69.2751 128.141 70.0369 128.002 70.0302C127.824 70.0193 128.537 69.7405 128.333 69.7365C128.316 69.7358 127.885 69.9269 127.883 69.8702C127.866 69.6089 128.009 69.2525 127.861 69.0383C127.843 69.0082 127.178 69.3537 127.14 69.3154C126.962 69.134 126.883 68.8897 127.107 68.5347C127.164 68.4464 127.656 68.2633 127.792 68.188C128.618 67.7309 127.328 68.195 127.297 68.1897C127.265 68.1848 127.236 68.1788 127.21 68.1717C126.604 68.014 127.483 67.2577 126.797 67.1175C126.755 67.1102 125.349 67.5598 126.455 66.9582C126.529 66.9184 127.661 66.3036 126.834 66.6094C126.782 66.6286 126.203 66.9521 126.227 66.845C126.252 66.7378 125.792 66.7973 126.401 66.3811C126.592 66.25 127.716 65.6254 126.741 65.9538C126.673 65.9763 124.505 66.7979 125.923 66.0654C126.157 65.9448 127.69 65.2384 126.848 65.4824C126.685 65.5301 126.365 65.7327 126.123 65.7707C125.75 65.83 126.1 65.5114 125.365 65.7146C125.234 65.7506 124.158 66.1534 124.912 65.7135C125.03 65.6446 125.549 65.4245 125.589 65.361C125.78 65.0581 125.353 65.0366 125.62 64.691C125.714 64.569 126.552 64.2098 126.741 64.0396C126.93 63.8695 127.079 63.6361 126.671 63.7464C126.262 63.857 124.988 64.5572 124.834 64.5048C124.165 64.2745 124.721 63.467 124.618 62.9667C124.603 62.8926 124.161 63.1736 124.105 63.0806C123.896 62.7365 123.158 62.3334 123.997 61.5357C124.668 60.8975 125.427 60.9161 125.656 60.5666C125.765 60.3984 124.201 61.0412 124.142 61.0424C123.551 61.0622 124.147 60.5808 123.845 60.4869C123.782 60.4675 123.188 60.8093 123.142 60.7896C122.978 60.7248 123.191 60.4662 123.085 60.3783C123.036 60.3396 122.572 60.5802 122.585 60.5159C122.611 60.3644 122.761 60.1705 123.146 59.8451C123.181 59.8154 123.796 59.5935 123.777 59.5007C123.745 59.3514 124.096 58.9712 123.573 59.0392C123.416 59.0604 122.345 59.5895 123.035 59.1256C123.18 59.0286 124.477 58.4165 123.311 58.8545C123.117 58.9269 121.526 59.4812 122.444 58.9074C122.685 58.7563 123.704 58.1698 123.511 58.1972C123.481 58.2029 122.922 58.5188 122.844 58.5014C122.576 58.4341 122.555 58.2382 122.293 58.1642C122.222 58.1451 121.661 58.5069 121.574 58.469C121.335 58.3656 121.373 58.0646 121.472 57.7978C121.509 57.6985 122.023 57.4965 122.074 57.465C122.906 56.9532 121.71 57.4975 121.629 57.5069C121.141 57.5569 121.632 57.1611 121.414 57.0901C121.355 57.0698 120.81 57.3795 120.756 57.3967C120.227 57.5598 121.263 57.1153 121.347 57.0079C121.588 56.7054 121.462 56.5662 121.316 56.4552C121.262 56.4149 120.644 56.8025 120.603 56.7626C120.346 56.5315 120.259 56.2043 120.474 55.7433C120.516 55.656 121.032 55.4366 121.14 55.3679C121.899 54.8884 120.755 55.3277 120.638 55.3547C120.107 55.4782 120.525 55.21 120.391 55.1494C119.727 54.8568 119.705 54.0911 119.644 53.5259C119.562 52.7921 119.791 52.0714 119.367 51.5458C119.34 51.5122 118.698 51.8891 118.666 51.8645C118.294 51.5313 118.342 50.9886 117.937 50.6705C117.905 50.6437 117.303 51.0154 117.231 50.9834C117.077 50.92 117.038 50.7593 117.18 50.5429C117.248 50.4379 117.824 50.2353 117.882 50.1352C118.016 49.9015 117.989 49.739 117.82 49.657C117.746 49.6229 117.149 50.0389 117.104 49.9688C116.781 49.4977 116.415 49.0602 116.983 48.1229C117.022 48.0586 118.308 47.3553 118.02 47.41C117.656 47.5911 117.231 47.811 116.843 48.0081C116.256 47.3816 116.332 46.4223 116.02 45.6492C116.007 45.6167 115.345 46.0275 115.316 45.9664C115.146 45.6136 114.78 45.3741 115.281 44.6632C115.329 44.5931 116.552 43.9826 116.315 43.9735C116.272 43.9725 116.029 43.8995 115.744 43.9954C115.702 44.0105 115.15 44.3326 115.107 44.2906C114.869 44.0412 114.839 43.6667 115.033 43.1939C115.065 43.117 115.694 42.8548 115.723 42.7974C115.919 42.3921 115.325 42.3696 115.754 41.857C116.044 41.5128 117.115 41.029 118.099 40.4157C118.238 40.3291 118.212 40.2224 118.806 39.908C120.301 39.1171 121.968 38.3107 123.558 37.4622C123.901 37.2796 123.464 37.3451 124.336 36.9884C124.394 36.9648 124.718 36.9135 125.013 36.7897C125.216 36.7042 125.809 36.3609 126.075 36.2635C126.342 36.1662 125.851 36.4654 126.173 36.3665C126.498 36.2657 127.176 35.8841 127.313 35.9483ZM132.143 70.2146C132.708 69.8741 130.499 70.7947 131.065 70.6633C131.095 70.6558 132.115 70.2315 132.143 70.2146ZM136.351 80.6124C137.323 80.1824 135.816 80.5646 135.063 80.8885C134.311 81.2111 136.056 80.7424 136.351 80.6124ZM137.458 81.5992C138.213 81.2218 134.958 82.1793 135.658 82.1265C135.698 82.1238 137.414 81.621 137.458 81.5992ZM118.587 40.6414C118.615 40.6256 118.607 40.5432 118.578 40.5561C117.884 40.8696 117.901 41.0341 118.587 40.6414ZM138.621 82.5752C139.049 82.4036 138.504 82.4277 137.972 82.6414C137.544 82.813 138.088 82.7884 138.621 82.5752ZM132.496 64.7017C132.528 64.6855 132.534 64.6223 132.352 64.7076C131.764 64.9823 131.962 64.9747 132.496 64.7017ZM139.251 84.6419C139.288 84.3006 141.933 83.3534 141.724 83.7772C141.686 83.8537 140.826 83.8867 140.604 84.0327C140.201 84.2986 141.922 83.9197 141.055 84.3195C140.896 84.3919 139.243 84.6627 139.247 84.6424C139.248 84.6423 139.25 84.6421 139.251 84.6419ZM134.769 69.0453C134.797 69.0312 134.795 68.9491 134.765 68.9597C134.05 69.2182 134.053 69.3829 134.769 69.0453ZM132.472 61.1617C132.531 61.1289 132.511 60.9419 132.453 60.9634C131.292 61.4153 131.327 61.7936 132.472 61.1617ZM138.309 73.1961C139.055 73.008 139.175 73.0732 138.299 73.4698C138.317 73.3736 138.295 73.2918 138.309 73.1961Z" fill="#FC4C02"/>
<path d="M166.526 45.4012C166.332 45.7521 165.667 45.8938 165.1 45.8825C164.922 45.8804 164.766 45.4788 164.629 45.4632C164.369 45.4295 164.305 45.7134 164.031 45.6524C163.936 45.6319 163.656 45.0151 163.565 45.0069C163.07 44.9641 162.838 45.3102 162.416 45.4054C160.33 45.8788 158.511 46.7322 156.609 47.5764C156.005 47.8448 155.029 47.7815 154.548 48.3356C154.534 48.352 154.521 48.369 154.508 48.3866C154.458 48.4563 154.814 48.9281 154.828 48.9773C155.025 49.7336 154.453 48.6867 154.235 48.6382C153.357 48.4564 152.744 48.7824 152.344 49.3071C152.181 49.5277 153.027 50.3772 152.456 49.9619C152.417 49.9341 152.136 49.3709 152.04 49.3526C151.825 49.3119 151.625 49.5718 151.491 49.5985C151.229 49.6481 151.203 49.672 151.008 49.7877C150.74 49.9403 150.255 49.8803 150.047 50.181C150.005 50.2459 150.429 50.7371 150.393 50.8896C150.356 51.0419 150.074 51.1572 149.907 51.0845C149.739 51.0116 149.505 50.5628 149.428 50.4749C148.778 49.7313 149.206 51.0614 149.185 51.1143C148.81 52.0287 147.794 51.7626 147.149 52.1752C146.648 52.4976 146.273 53.0377 145.777 53.3113C145.197 53.6276 144.533 53.6367 144.023 54.0314C143.969 54.0722 144.44 54.6671 144.375 54.7183C143.678 55.2642 142.896 55.662 141.878 55.7035C141.775 55.7072 141.517 55.0862 141.394 55.0563C140.652 54.8813 139.23 54.2325 140.5 56.8422C140.133 56.9406 139.696 57.0786 139.109 56.7614C138.731 56.5575 138.519 55.8374 138.464 56.2364C138.451 56.3256 138.852 56.8201 138.808 56.9131C138.621 57.3042 138.172 57.3444 138.037 57.8152C138.01 57.9122 138.329 58.3808 138.365 58.4784C138.655 59.2719 137.679 58.2728 137.573 58.2225C136.767 57.8549 136.621 58.2907 136.225 58.5176C136.133 58.5699 136.644 59.148 136.57 59.2215C136.183 59.593 135.686 59.827 135.069 59.8149C134.931 59.8106 134.677 59.2052 134.593 59.175C134.23 59.0482 134.833 60.1143 134.497 60.0127C134.427 59.9927 134.156 59.5077 134.116 59.4607C133.491 58.7235 134.107 59.9369 134.092 59.9813C133.924 60.5684 132.928 59.5221 132.663 59.9235C132.632 59.9727 133.104 60.5059 132.994 60.608C132.264 61.2917 131.279 61.6768 130.158 61.7113C129.984 61.7175 129.798 61.2124 129.756 61.1622C129.089 60.3804 129.721 61.59 129.706 61.6596C129.569 62.178 128.661 61.3978 129.289 62.9153C127.593 63.3021 126.669 64.9381 124.52 64.5477C124.494 64.5442 124.177 63.9525 124.125 63.9479C123.502 63.8869 124.127 64.7262 124.507 65.9865C124.602 66.3032 123.587 65.1201 123.509 65.0352C123.224 64.7223 122.778 63.8264 122.713 63.7718C122.193 63.3486 123.938 66.1469 123.676 66.3071C123.665 66.3073 123.385 65.7675 123.332 65.7293C123.165 65.6087 123.222 65.856 123.047 65.7178C122.644 65.397 121.759 64.0592 122.01 64.9975C122.044 65.1188 123.057 66.6921 122.779 66.7572C122.667 66.7817 122.274 67.0567 122.094 67.0235C121.916 66.9897 121.684 66.4255 121.662 66.4081C120.939 65.913 120.887 65.5588 120.123 64.6412C119.362 63.727 120.851 66.1039 120.949 66.4101C121.046 66.7158 120.481 66.2882 120.308 66.1254C120.135 65.9626 120.007 65.5927 119.891 65.5113C119.128 64.9829 120.462 66.7915 120.582 67.2385C120.866 68.2974 119.597 66.6333 119.259 66.5978C119.167 66.5883 119.462 66.9641 119.428 67.0358C119.291 67.3146 118.828 66.8352 118.874 67.5003C118.882 67.6086 119.313 68.8069 118.711 68.0975C118.624 67.995 118.413 67.5176 118.258 67.4745C118.027 67.4095 117.713 67.4637 117.65 67.7026C117.602 67.8795 118.167 68.5375 117.888 68.3945C117.763 68.3304 117.628 67.8302 117.416 67.7457C117.204 67.661 116.91 67.8594 116.804 67.942C116.698 68.0249 117.09 68.546 117.103 68.5891C117.173 68.8377 117.111 69.2366 117.091 69.2473C116.136 69.9 114.676 69.4865 113.889 70.3546C113.826 70.4224 114.217 70.9855 114.211 71.002C114.091 71.4008 113.394 69.7069 112.911 69.2835C113.626 70.4713 113.393 70.3153 113.286 70.5513C113.236 70.666 113.549 71.1049 113.569 71.1571C113.842 71.9397 113.23 71.0763 113.101 70.9022C113.041 70.8217 112.994 70.7651 112.958 70.7267C112.946 70.7366 112.902 70.7539 112.889 70.7631C112.651 70.4816 112.856 71.113 112.6 70.723C112.308 70.2803 112.109 69.5105 111.93 69.6088C112.095 70.0801 112.799 71.1798 112.751 71.4367C112.57 72.4087 111.163 71.9588 110.691 72.0685C110.226 72.1749 110.136 72.3196 109.816 72.2744C109.227 72.1968 109.807 72.9857 109.72 73.5152C109.634 74.0444 108.749 71.8441 108.49 71.4038C108.232 70.9632 108.415 71.4558 108.247 71.2263C108.079 70.9967 108.033 70.6353 107.876 70.5939C107.719 70.5527 107.805 71.5142 107.994 72.0132C108.392 73.0719 109.041 74.0732 108.558 73.8428C108.53 73.8288 108.32 73.2396 108.226 73.2146C107.485 73.0358 106.95 73.2557 106.231 73.1254C106.134 73.1059 105.904 72.4488 105.844 72.4303C105.219 72.2344 105.872 73.2176 106.184 74.5035C105.503 72.9166 104.932 72.0182 104.593 72.1657C104.388 72.2539 104.742 72.9206 104.836 73.4628C104.865 73.6262 104.505 73.2229 104.629 73.5561C105.034 74.6457 105.713 75.7605 105.154 75.4507C105.129 75.4354 104.909 74.8381 104.842 74.8272C104.406 74.7521 104.871 75.8729 104.564 76.1763C104.321 76.4156 103.52 75.9707 103.133 76.0159C102.331 74.2492 102.209 74.7939 102.641 76.0671C102.409 76.1131 102.217 76.2835 101.93 76.2109C101.833 76.1859 101.647 75.6532 101.613 75.602C101.082 74.7975 101.529 76.0242 101.504 76.0914C101.221 76.7643 100.4 76.0523 100.328 77.1412C100.326 77.1802 100.85 78.4225 100.323 77.58C100.287 77.5217 100.191 76.8932 99.9521 76.948C99.7033 77.0073 98.9876 76.5353 98.9394 77.2399C98.9281 77.4094 99.1735 78.4975 98.6753 77.7829C98.608 77.6857 98.4741 77.3223 98.3578 77.1385C97.9862 76.5533 98.4844 77.8226 97.9074 76.8121C97.3307 75.8015 96.7572 75.107 96.7613 75.9769C96.7607 76.0025 97.1194 77.0242 97.0147 77.0513C96.8459 77.0943 96.5439 76.9806 96.3757 77.0613C96.2976 77.0993 96.6157 77.6922 96.6068 77.7094C96.2282 78.2834 95.6063 77.9006 94.9498 77.8993C94.8246 77.8997 94.8788 78.8706 94.3985 78.2892C93.8709 77.6534 92.8155 74.5258 92.612 75.4633C92.5332 75.837 93.8946 79.7952 92.6863 77.9552C92.1761 78.7496 91.1034 77.9946 90.6717 78.9982C90.6555 79.0414 90.9888 80.1644 90.9061 80.181C90.7819 80.2038 90.5148 79.7244 90.4219 79.7234C90.0215 79.7093 89.8898 80.2658 89.5343 80.3317C89.4013 80.3572 89.2388 79.8153 89.0738 79.8482C88.91 79.8812 89.0986 80.6051 88.7606 80.3558C88.5018 80.1663 87.7903 78.819 87.5127 78.7418C88.0687 80.1301 87.9302 80.1532 87.8283 80.6225C87.8107 80.7127 88.06 81.1728 88.0621 81.2402C88.0752 81.5252 87.8321 81.1591 87.8558 81.4658C87.862 81.5392 88.0585 82.0106 88.075 82.0971C88.2281 82.8483 87.549 81.8893 87.4296 81.7231C86.9798 81.09 87.164 81.7347 86.9323 81.5106C86.6912 81.291 86.7197 80.8682 86.5007 80.7678C86.4002 80.7221 86.3061 80.6986 86.2182 80.6907L86.235 80.6832C85.9303 80.6443 85.6781 80.798 85.4443 80.8711C85.3261 80.9112 85.6556 81.5139 85.6445 81.5344C85.459 81.7937 84.9585 81.2073 85.2916 82.5319C83.9053 79.3007 85.2591 82.9079 84.6551 82.377C84.607 82.3337 84.0208 80.78 84.0426 80.5136C84.0637 80.2477 84.3971 80.6793 84.4084 80.27C84.4139 80.1732 84.0549 78.6464 84.0436 78.5497C83.9698 77.7898 84.8921 80.0926 84.9536 80.2151C85.6131 81.5369 85.2358 79.8825 85.2472 79.7526C85.2959 79.3555 85.4667 79.3184 85.6021 79.2107L85.5401 79.2384C85.6222 79.174 85.6956 79.0916 85.7374 78.9309C85.8059 78.632 85.1712 77.1359 85.337 77.1179C85.8724 77.0658 86.8831 79.1019 86.5425 77.1154C86.4732 76.6905 85.7062 75.085 86.5504 76.2486C86.6066 76.3207 87.315 77.4117 87.1422 76.6094C87.1205 76.5083 86.9249 76.0289 86.9307 75.9797C86.9777 75.6568 87.2209 76.0033 87.3069 75.7552C87.3969 75.5055 87.466 75.1598 87.7147 75.2484C87.8665 75.3001 88.3622 76.1398 88.5025 76.3377C88.9011 76.9101 88.6453 75.8101 89.0422 76.5379C89.4433 77.2684 89.7422 78.5043 90.1795 78.9037C89.6807 77.6546 89.1798 76.368 88.6832 75.1098C89.2254 74.9399 89.887 75.1385 90.3898 74.8661C90.4491 74.8321 90.1083 74.1906 90.1648 74.1369C90.4042 73.9133 90.8648 74.2799 91.0788 73.9679C91.2504 73.7208 91.2071 72.9087 91.3708 72.6302C92.1183 73.9853 92.2748 73.3517 92.5881 73.3711C92.6988 73.3768 92.8539 73.7575 92.9724 73.8527C93.417 74.2022 92.766 73.0013 92.7503 72.7753C92.6716 71.8154 93.9078 74.6348 94.2239 74.416C94.2419 74.405 93.815 72.8021 93.8018 72.6965C93.7264 72.0032 94.0594 73.2074 94.2265 73.2672C94.5318 73.3765 94.8458 73.6675 94.9142 73.1135C94.931 72.9509 94.6988 71.9364 95.1616 72.5974C95.2224 72.6839 95.4291 73.1855 95.4573 73.2078C95.9511 73.5696 95.2774 72.0041 95.2055 71.4052C95.128 70.809 95.8465 71.778 96.0342 72.0657C96.5201 72.8101 96.0848 72.4532 96.1128 72.5349C96.4428 73.5089 96.5506 73.2686 96.7248 73.2863C97.4201 74.8059 97.5764 74.6271 96.9031 73.2982C96.8292 73.1532 96.7835 73.3438 96.7248 73.2863C96.1831 71.7332 96.3163 71.4446 97.1646 72.7442C97.5649 73.3521 97.8007 74.1636 98.01 73.7351C98.106 73.5409 97.5783 72.5164 97.5852 72.1699C97.6064 71.3765 98.4215 72.1872 98.6738 71.888C98.7639 71.78 98.3927 71.2565 98.4454 71.1629C98.5894 70.9104 98.9522 71.265 99.0603 70.9502C99.0696 70.9211 98.7519 70.3412 98.8123 70.3046C99.2713 70.0124 99.8621 70.2071 100.378 69.9836C100.633 69.8724 100.909 69.3455 101.194 69.2942C101.691 69.2002 102.628 69.8219 102.908 69.4346C103.092 69.1843 102.759 68.6118 102.675 68.1552C102.518 67.2675 103.521 68.5199 103.675 68.7146C103.68 68.7213 103.537 68.9597 103.792 69.2141C104.156 69.8224 103.674 68.7185 103.675 68.7146C103.772 68.8416 104.257 68.7793 104.288 68.6251C104.305 68.5411 104.013 67.9879 104.027 67.9549C104.359 67.1804 104.834 66.78 105.541 66.7671C105.557 66.7738 105.842 67.4119 105.874 67.4199C106.331 67.5464 106.174 66.6743 106.227 66.0862C106.28 65.499 106.578 65.5445 107.252 66.5518C107.387 66.3192 107.909 66.6571 108.218 66.8654C108.528 67.0737 107.961 65.8365 107.964 65.8051C108.062 64.8023 108.66 65.3783 109.193 65.2548C109.411 65.2063 109.715 64.905 109.916 64.6575L109.6 64.8243C109.628 64.7827 109.654 64.7426 109.677 64.7056C109.801 64.4968 110.071 64.7099 110.141 64.4346C110.151 64.3977 109.827 63.8855 109.822 63.8612C109.653 63.1227 110.298 64.4601 110.469 64.6668C111.091 65.4187 111.441 65.8085 111.46 65.2753C111.465 65.1531 110.563 63.212 110.603 63.045C110.657 62.831 110.989 63.5218 111.037 63.2803C111.041 63.2602 110.802 62.8537 110.899 62.8215C111.353 62.6631 111.919 62.651 112.316 62.3636C112.371 62.326 111.92 61.7237 111.993 61.6588C112.342 61.3516 112.766 61.1346 113.325 61.211C113.463 61.2322 113.671 61.7175 113.77 61.8394C114.373 62.5757 113.855 61.294 113.869 61.2554C114.216 60.2867 115.385 61.0306 115.782 60.1069C115.802 60.0543 115.344 58.6208 116.123 59.6191C116.175 59.6851 116.966 60.7098 116.628 59.8876C116.607 59.8363 116.185 59.3171 116.36 59.2907C116.536 59.264 116.534 58.7491 117.104 59.2549C117.283 59.4141 118.092 60.4245 117.748 59.4376C117.725 59.3684 116.81 57.2204 117.736 58.5246C117.888 58.7394 118.744 60.1942 118.515 59.3215C118.47 59.1527 118.199 58.8764 118.187 58.6088C118.168 58.1969 118.626 58.4477 118.445 57.6785C118.412 57.5424 117.971 56.4702 118.545 57.1389C118.635 57.2436 118.891 57.7474 118.989 57.7618C119.454 57.8327 119.583 57.3132 120.102 57.4533C120.285 57.5021 120.703 58.3143 120.946 58.4519C121.189 58.5896 121.545 58.647 121.45 58.2175C121.354 57.7878 120.464 56.6303 120.585 56.42C121.116 55.5042 122.341 55.7512 123.197 55.37C123.324 55.3138 122.954 54.9313 123.122 54.8166C123.738 54.3913 124.578 53.2991 125.712 53.8943C126.62 54.3713 126.419 55.2885 126.947 55.3844C127.2 55.4288 126.487 53.8854 126.498 53.8158C126.597 53.1185 127.259 53.5872 127.484 53.1769C127.531 53.092 127.099 52.555 127.142 52.4891C127.287 52.2592 127.667 52.3824 127.836 52.2113C127.911 52.1333 127.618 51.7001 127.721 51.6833C127.964 51.6381 128.254 51.7161 128.704 52.0122C128.746 52.0391 128.972 52.6638 129.13 52.5937C129.385 52.4786 129.932 52.7061 129.937 52.1144C129.938 51.9371 129.307 50.9232 129.917 51.5143C130.045 51.6376 130.759 52.8819 130.303 51.706C130.228 51.5103 129.677 49.8831 130.414 50.6924C130.608 50.9054 131.343 51.8298 131.341 51.6132C131.338 51.5801 130.945 51.0695 130.992 50.9665C131.16 50.6138 131.494 50.4855 131.675 50.1341C131.723 50.0392 131.255 49.5493 131.338 49.4258C131.565 49.0852 132.047 48.9819 132.468 48.9622C132.623 48.9563 132.837 49.4712 132.878 49.5167C133.529 50.2563 132.909 49.0949 132.912 49.0023C132.943 48.4409 133.48 48.832 133.646 48.5342C133.693 48.4532 133.309 47.9548 133.293 47.8987C133.147 47.3457 133.639 48.3653 133.797 48.4123C134.241 48.5472 134.5 48.3244 134.716 48.0939C134.794 48.0084 134.3 47.4615 134.375 47.3919C134.811 46.9685 135.379 46.6923 136.081 46.7219C136.215 46.7279 136.455 47.2375 136.543 47.3332C137.155 48.0033 136.7 46.849 136.683 46.7224C136.604 46.1447 136.948 46.5124 137.079 46.3204C137.712 45.3751 138.982 44.9578 139.917 44.6033C141.148 44.1303 142.268 44.0484 143.232 43.2708C143.294 43.222 142.828 42.6367 142.876 42.5866C143.505 41.9735 144.382 41.7597 145.007 41.1067C145.059 41.0546 144.593 40.5151 144.663 40.4114C144.805 40.1935 145.067 40.0723 145.394 40.131C145.551 40.1592 145.743 40.7545 145.895 40.7725C146.25 40.8157 146.522 40.7016 146.693 40.4587C146.765 40.3541 146.229 39.8404 146.352 39.7519C146.984 39.2874 147.587 38.8075 148.404 38.6782C148.712 38.6241 149.044 38.6186 149.413 38.679C149.509 38.6936 150.342 39.9016 150.328 39.5771C150.12 39.2273 149.863 38.8237 149.634 38.4539C150.815 37.4257 152.351 37.0533 153.716 36.2856C153.772 36.2537 153.263 35.6564 153.37 35.5913C153.997 35.2099 154.482 34.6507 155.531 34.9049C155.635 34.9288 156.329 36.1066 156.404 35.8158C156.414 35.7656 156.603 35.4322 156.519 35.1357C156.505 35.0916 156.116 34.582 156.197 34.5102C156.676 34.0974 157.308 33.8767 158.065 33.8717C158.186 33.8731 158.447 34.5097 158.535 34.5162C159.167 34.5541 159.398 33.8107 160.223 34.0523C160.787 34.2128 161.224 35.3138 161.949 36.2359C162.05 36.3667 162.273 36.2804 162.583 36.8778C163.366 38.3763 164.129 40.0658 164.976 41.657C165.145 42.0059 165.174 41.5239 165.465 42.4275C165.476 42.4922 165.506 42.826 165.638 43.1164C165.726 43.3186 166.066 43.9126 166.173 44.1745C166.282 44.4351 165.982 43.9453 166.087 44.2653C166.193 44.59 166.603 45.2514 166.526 45.4012ZM109.613 67.7899C110.051 68.3034 109.032 66.1383 109.115 66.7343C109.12 66.7656 109.591 67.7649 109.613 67.7899ZM90.5772 76.8056C91.1868 77.6959 90.7422 76.2005 90.2817 75.5088C89.8233 74.8172 90.3928 76.5355 90.5772 76.8056ZM88.6789 78.4119C89.2364 79.0837 88.0007 75.9234 87.9952 76.6658C87.9946 76.7078 88.6465 78.3728 88.6789 78.4119ZM161.348 36.9516C161.367 36.9773 161.509 36.9304 161.499 36.9001C161.188 36.2015 160.892 36.3026 161.348 36.9516ZM86.7948 80.0954C87.0549 80.4829 87.0722 79.9003 86.7534 79.4155C86.4953 79.026 86.4688 79.6141 86.7948 80.0954ZM118.653 65.5989C118.674 65.6281 118.778 65.6037 118.672 65.4317C118.333 64.8781 118.307 65.1076 118.653 65.5989ZM83.1413 81.5472C83.7334 81.4837 84.9935 84.0138 84.265 83.9276C84.1346 83.9112 84.2209 82.999 83.9971 82.8079C83.5916 82.4591 83.9768 84.1856 83.4145 83.3791C83.3123 83.2312 83.1057 81.5449 83.141 81.5431C83.1411 81.5445 83.1412 81.5458 83.1413 81.5472ZM110.952 70.3344C110.969 70.3614 111.107 70.328 111.097 70.2983C110.833 69.5818 110.556 69.6485 110.952 70.3344ZM124.501 63.793C124.543 63.8466 124.854 63.7301 124.831 63.6715C124.328 62.5229 123.697 62.7547 124.501 63.793ZM103.106 75.9712C103.283 76.7308 103.152 76.8898 102.642 76.0677C102.802 76.0508 102.945 75.9933 103.106 75.9712Z" fill="#FC4C02"/>
<path d="M4.70575 94.4893C5.53002 94.565 6.44157 95.1305 7.08803 95.6885C7.29096 95.8625 7.02822 96.2186 7.16183 96.3566C7.42332 96.626 7.78943 96.5368 8.03648 96.8345C8.11766 96.9351 7.76079 97.5206 7.85113 97.6116C8.3479 98.1059 8.97079 98.1481 9.52733 98.4999C12.2686 100.233 15.112 101.518 18.0268 102.874C18.9876 103.32 19.9956 104.322 21.1119 104.431C21.2425 104.443 21.3659 103.862 21.4049 103.824C22.0089 103.247 21.4962 104.329 21.6779 104.56C22.3998 105.474 23.4159 105.886 24.3844 105.981C24.797 106.019 24.7992 104.781 24.9668 105.535C24.9788 105.586 24.6774 106.144 24.7599 106.243C24.9474 106.467 25.4331 106.517 25.6004 106.627C25.922 106.842 25.9823 106.856 26.3144 106.978C26.7666 107.15 27.2098 107.631 27.747 107.665C27.8622 107.67 27.9313 107.016 28.1336 106.97C28.3359 106.924 28.7602 107.126 28.8605 107.32C28.9608 107.514 28.7346 107.97 28.7237 108.088C28.6265 109.086 29.5745 107.981 29.6508 107.972C31.034 107.84 31.8182 108.916 32.9478 109.292C33.8065 109.575 34.8024 109.638 35.6078 109.941C36.566 110.303 37.2825 110.904 38.2471 111.154C38.3486 111.181 38.4648 110.426 38.5892 110.457C39.9102 110.794 41.1691 111.284 42.307 112.18C42.4208 112.27 42.0537 112.849 42.1556 112.977C42.7823 113.747 43.6552 115.392 44.9841 112.784C45.4874 113.059 46.1065 113.372 46.4161 114.076C46.6165 114.529 46.1026 115.126 46.5751 114.949C46.6814 114.91 46.7549 114.271 46.9001 114.258C47.511 114.204 48.0462 114.582 48.6779 114.432C48.8069 114.4 48.9412 113.849 49.0017 113.76C49.5005 113.048 49.5387 114.486 49.6052 114.61C50.1133 115.535 50.7228 115.413 51.3896 115.63C51.5443 115.68 51.5761 114.896 51.7326 114.919C52.5419 115.045 53.3258 115.343 53.9949 115.888C54.1432 116.011 53.8065 116.589 53.8682 116.679C54.1432 117.072 54.5621 115.919 54.8312 116.271C54.8885 116.344 54.6942 116.866 54.6906 116.928C54.6327 117.907 55.187 116.656 55.2481 116.642C56.032 116.442 56.0756 117.925 56.781 117.916C56.8657 117.914 56.8811 117.189 57.1074 117.223C58.6167 117.448 60.1051 118.059 61.4047 118.992C61.6072 119.136 61.3091 119.602 61.3062 119.668C61.2729 120.712 61.7771 119.438 61.8636 119.408C62.5389 119.208 62.7868 120.455 63.5957 118.992C64.6483 119.536 65.7755 119.778 66.8907 120.07C68.2201 120.419 69.527 120.839 70.6729 121.932C70.7001 121.956 70.4853 122.593 70.5403 122.638C71.2012 123.186 71.3036 122.139 72.0963 121.02C72.2952 120.739 72.315 122.325 72.3228 122.443C72.3486 122.877 71.9893 123.816 72.0116 123.904C72.2057 124.6 72.9161 121.379 73.3729 121.487C73.3859 121.496 73.1856 122.072 73.21 122.14C73.2855 122.352 73.4593 122.146 73.5279 122.377C73.6835 122.91 73.4122 124.493 74.0353 123.681C74.1147 123.575 74.463 121.736 74.851 121.917C75.0054 121.991 75.7338 122.128 75.9082 122.292C76.0828 122.457 75.8088 123.012 75.8173 123.041C76.1834 123.943 75.9028 124.217 75.9132 125.431C75.9256 126.64 76.4747 123.889 76.6558 123.609C76.8367 123.33 77.091 124.062 77.1392 124.308C77.1872 124.553 76.9795 124.899 77.0386 125.045C77.4333 126.001 77.6005 123.745 77.8894 123.354C78.57 122.427 78.4645 124.535 78.8343 124.826C78.9342 124.905 78.9459 124.422 79.055 124.401C79.4858 124.323 79.5829 125.01 80.1591 124.527C80.2535 124.449 80.8828 123.307 80.9212 124.254C80.9262 124.391 80.721 124.876 80.8645 125.027C81.0783 125.252 81.5082 125.461 81.8147 125.35C82.041 125.268 81.9929 124.384 82.1875 124.697C82.2739 124.837 81.9621 125.281 82.1335 125.503C82.3039 125.724 82.8422 125.817 83.049 125.843C83.2555 125.869 83.2794 125.212 83.3049 125.173C83.4561 124.95 83.9095 124.727 83.9436 124.735C85.6879 125.023 87.0677 126.423 88.8316 126.41C88.9696 126.41 89.0163 125.723 89.0388 125.716C89.5488 125.527 88.8325 127.235 89.0306 127.895C89.2576 126.527 89.3956 126.811 89.7458 126.726C89.9147 126.683 89.9358 126.14 89.9606 126.089C90.3488 125.336 90.302 126.4 90.3012 126.619C90.2983 127.427 90.6461 126.541 90.6459 127.081C90.6468 127.617 90.2578 128.334 90.5673 128.386C90.7498 127.916 90.7737 126.599 91.0474 126.439C92.079 125.833 93.5256 127.151 94.2147 127.39C94.9021 127.63 95.1481 127.583 95.5262 127.838C96.21 128.297 96.1163 127.3 96.6597 126.955C97.2043 126.609 96.5419 128.893 96.5146 129.406C96.4864 129.918 96.6547 129.417 96.6849 129.707C96.7148 129.997 96.4746 130.304 96.647 130.443C96.8203 130.582 97.509 129.79 97.6741 129.28C98.0236 128.198 98.0047 126.992 98.4335 127.494C98.458 127.524 98.2502 128.118 98.35 128.201C99.1475 128.836 100.061 129.034 100.87 129.611C100.981 129.692 100.749 130.353 100.812 130.408C101.472 130.977 101.417 129.781 102.05 128.577C101.654 130.259 101.69 131.339 102.249 131.45C102.585 131.517 102.66 130.764 102.971 130.28C103.064 130.134 103.212 130.686 103.317 130.345C103.663 129.23 103.666 127.913 104.153 128.524C104.174 128.552 103.982 129.163 104.063 129.216C104.584 129.564 104.862 128.382 105.498 128.345C105.996 128.316 106.721 129.193 107.246 129.406C106.902 131.315 107.495 130.967 107.932 129.685C108.277 129.8 108.674 129.792 108.984 130.032C109.091 130.115 108.918 130.655 108.923 130.718C108.99 131.695 109.364 130.439 109.449 130.401C110.361 130.054 110.874 131.142 111.825 130.324C111.859 130.295 112.128 128.973 112.176 129.979C112.178 130.048 111.815 130.609 112.18 130.719C112.544 130.828 113.13 131.659 113.748 131.129C113.898 131.001 114.394 129.974 114.508 130.86C114.523 130.98 114.423 131.355 114.436 131.576C114.482 132.278 114.791 130.948 114.788 132.121C114.785 133.293 115.033 134.213 115.685 133.511C115.705 133.491 116.004 132.446 116.165 132.489C116.423 132.56 116.759 132.843 117.034 132.881C117.166 132.899 117.19 132.223 117.215 132.215C118.159 131.988 118.687 132.68 119.592 133.089C119.758 133.165 120.401 132.343 120.621 133.11C120.864 133.951 119.963 137.14 120.935 136.502C121.327 136.247 122.421 132.192 122.692 134.427C123.966 134.086 124.895 135.355 126.209 134.786C126.268 134.761 126.619 133.636 126.742 133.672C126.926 133.727 126.945 134.281 127.073 134.338C127.608 134.588 128.192 134.207 128.722 134.363C128.924 134.421 128.765 134.967 129.005 135.036C129.245 135.105 129.523 134.398 129.799 134.803C130.007 135.112 130.025 136.649 130.33 136.875C130.572 135.399 130.796 135.465 131.263 135.138C131.353 135.074 131.349 134.547 131.395 134.49C131.587 134.249 131.66 134.696 131.847 134.43C131.893 134.366 131.972 133.862 132.014 133.781C132.37 133.075 132.591 134.272 132.629 134.48C132.774 135.271 132.997 134.633 133.152 134.96C133.307 135.286 132.95 135.61 133.157 135.825C133.585 136.271 134.222 136.286 134.71 136.385C134.905 136.421 134.875 135.726 134.905 135.716C135.338 135.608 135.639 136.387 136.071 135.08C135.82 138.594 136.368 134.781 136.842 135.565C136.879 135.628 136.686 137.278 136.474 137.492C136.261 137.706 136.072 137.152 135.771 137.49C135.699 137.569 135.132 139.056 135.073 139.143C134.607 139.816 134.934 137.356 134.936 137.219C134.947 135.732 134.289 137.327 134.165 137.425C133.598 137.875 133.235 137.466 132.771 137.777C132.467 137.978 132.193 139.58 131.991 139.499C131.321 139.229 131.425 136.951 130.467 138.792C130.263 139.184 130.13 140.961 129.84 139.503C129.822 139.411 129.644 138.09 129.304 138.855C129.261 138.952 129.183 139.463 129.14 139.501C128.857 139.741 128.761 139.309 128.469 139.463C128.176 139.618 127.816 139.86 127.545 139.639C127.381 139.508 127.299 138.519 127.249 138.272C127.112 137.562 126.679 138.623 126.656 137.785C126.633 136.944 127.124 135.748 126.809 135.157C126.586 136.484 126.338 137.842 126.104 139.175C125.236 138.991 124.448 138.426 123.561 138.346C123.451 138.337 123.449 139.069 123.328 139.078C122.818 139.114 122.47 138.536 121.929 138.658C121.51 138.755 120.955 139.442 120.512 139.566C120.503 138.006 119.808 138.424 119.386 138.213C119.239 138.14 119.314 137.736 119.225 137.586C118.885 137.029 118.865 138.403 118.716 138.596C118.078 139.418 118.527 136.372 117.937 136.354C117.906 136.352 117.268 137.91 117.2 138.003C116.764 138.607 117.237 137.43 117.051 137.277C116.711 136.997 116.513 136.568 115.996 136.97C115.844 137.09 115.371 138.048 115.25 137.227C115.234 137.119 115.34 136.587 115.319 136.551C114.927 135.95 114.639 137.63 114.271 138.154C113.903 138.678 113.672 137.448 113.642 137.099C113.561 136.196 113.875 136.758 113.902 136.675C114.212 135.688 113.875 135.811 113.655 135.687C113.894 134.032 113.55 134.077 113.425 135.564C113.412 135.727 113.62 135.603 113.655 135.687C113.18 137.27 112.784 137.417 112.638 135.839C112.569 135.1 112.884 134.304 112.266 134.511C111.986 134.604 111.896 135.755 111.616 136.027C110.978 136.645 110.483 135.473 109.92 135.55C109.716 135.577 109.8 136.23 109.656 136.27C109.275 136.379 109.043 135.86 108.649 136.038C108.613 136.055 108.58 136.719 108.469 136.708C107.622 136.641 106.966 136.1 106.097 135.937C105.678 135.859 104.862 136.086 104.438 135.937C103.703 135.683 102.943 134.575 102.256 134.689C101.809 134.761 101.785 135.426 101.526 135.836C101.023 136.631 100.684 134.985 100.644 134.732C100.643 134.724 101.032 134.636 100.899 134.268C100.912 133.554 100.648 134.73 100.644 134.732C100.617 134.569 99.9197 134.29 99.7537 134.388C99.6633 134.442 99.5951 135.064 99.5501 135.081C98.4831 135.455 97.4814 135.432 96.5537 134.962C96.5387 134.946 96.6927 134.264 96.6559 134.236C96.1463 133.825 95.6243 134.597 95.0611 135.007C94.498 135.417 94.1569 135.179 94.1043 133.948C93.7234 134.03 93.3145 133.411 93.0842 133.039C92.8537 132.667 92.5557 133.995 92.5249 134.017C91.561 134.707 91.245 133.853 90.4379 133.571C90.0542 133.434 89.2345 133.473 88.7766 133.534C88.4148 133.584 88.2738 133.23 87.9223 133.368C87.8749 133.386 87.7981 133.988 87.7807 134.009C87.2899 134.649 87.7492 133.231 87.7296 132.957C87.6595 131.962 87.6021 131.428 87.068 131.782C86.9452 131.862 86.221 133.891 86.0082 133.975C85.7328 134.08 85.9778 133.35 85.6858 133.479C85.661 133.489 85.5708 133.952 85.4176 133.9C84.7055 133.661 83.9639 133.227 83.1957 133.114C83.0911 133.097 83.0704 133.857 82.9166 133.844C82.1957 133.783 81.4279 133.592 80.8167 133.103C80.6668 132.98 80.8824 132.491 80.8785 132.331C80.8522 131.363 80.2467 132.63 80.1884 132.645C78.7935 133.015 78.1021 131.596 76.6976 131.885C76.6211 131.904 75.7636 133.213 75.8016 131.933C75.8035 131.848 75.8521 130.541 75.4489 131.351C75.4237 131.401 75.4245 132.08 75.1824 131.956C74.9406 131.832 74.428 132.168 74.2381 131.378C74.1774 131.129 74.2028 129.819 73.6404 130.738C73.6037 130.803 72.5645 132.935 72.7426 131.339C72.7725 131.076 73.1874 129.44 72.5939 130.19C72.4798 130.335 72.5316 130.734 72.278 130.916C71.8885 131.197 71.5869 130.661 71.0368 131.304C70.9405 131.417 70.3943 132.465 70.3712 131.566C70.3676 131.425 70.5654 130.893 70.4615 130.803C69.9687 130.374 69.2912 130.598 68.8119 130.08C68.642 129.898 68.9612 129.038 68.8089 128.75C68.6564 128.461 68.2897 128.129 67.9702 128.479C67.6504 128.829 67.5429 130.298 67.1842 130.329C66.1911 130.414 65.3334 129.963 64.4836 129.497C63.9977 129.231 63.514 128.961 63.0059 128.782C62.7985 128.709 62.8437 129.258 62.5284 129.186C61.3646 128.924 59.2458 128.863 58.5386 127.526C57.974 126.456 59.1525 126.079 58.6398 125.566C58.3924 125.321 57.6285 126.862 57.5431 126.893C56.7058 127.223 56.4247 126.369 55.7402 126.416C55.5986 126.426 55.5409 127.12 55.4223 127.121C55.0152 127.131 54.7042 126.726 54.3319 126.679C54.1644 126.66 54.0518 127.171 53.9151 127.09C53.587 126.903 53.3338 126.603 53.1245 126.034C53.1055 125.982 53.4949 125.417 53.2411 125.32C52.8294 125.163 52.4412 124.549 51.8192 124.888C51.6338 124.991 51.2954 126.136 51.2158 125.254C51.1989 125.07 51.682 123.717 50.9762 124.802C50.8588 124.983 49.7841 126.41 49.7905 125.289C49.7919 124.994 49.9241 123.81 49.6995 123.936C49.6678 123.957 49.5804 124.6 49.4195 124.618C48.8556 124.67 48.347 124.447 47.7725 124.486C47.6186 124.497 47.6346 125.194 47.4111 125.191C46.7962 125.182 46.1356 124.807 45.643 124.441C45.4616 124.304 45.7621 123.821 45.7646 123.759C45.809 122.756 45.2867 123.97 45.1852 124.019C44.5584 124.308 44.3636 123.603 43.8626 123.62C43.7248 123.623 43.6296 124.249 43.5882 124.295C43.1693 124.737 43.6924 123.721 43.5655 123.552C43.2115 123.076 42.6863 122.966 42.2002 122.899C42.0213 122.875 41.9966 123.628 41.8384 123.598C40.8987 123.437 39.9796 123.075 39.2221 122.415C39.0799 122.29 39.3529 121.79 39.3571 121.657C39.3903 120.73 38.6736 121.781 38.558 121.866C38.0327 122.256 38.0414 121.739 37.6921 121.724C35.982 121.66 34.1452 120.719 32.7344 120.041C30.8917 119.16 29.5746 118.159 27.7051 117.674C27.5865 117.642 27.4654 118.386 27.36 118.368C26.0107 118.101 24.8345 117.393 23.4733 117.153C23.362 117.132 23.2857 117.852 23.0993 117.84C22.7153 117.822 22.2861 117.634 22.0068 117.299C21.8701 117.137 22.2983 116.645 22.1568 116.493C21.828 116.14 21.4132 115.943 20.9631 115.907C20.771 115.893 20.8 116.666 20.5686 116.595C18.9873 116.122 17.4171 115.704 16.1586 114.271C16.0723 114.173 16.4649 112.757 16.1432 112.941C15.9908 113.319 15.8326 113.771 15.6806 114.178C13.3433 113.603 11.2816 112.33 9.05165 111.45C8.95756 111.413 8.86047 112.203 8.67695 112.135C7.61445 111.743 6.50687 111.574 5.67867 110.456C5.59615 110.347 6.11354 109.08 5.72544 109.161C5.65655 109.176 5.11569 109.175 4.89143 109.41C4.85946 109.446 4.73107 110.077 4.57034 110.039C3.63989 109.808 2.74921 109.332 1.98627 108.643C1.86357 108.531 2.24765 107.947 2.16226 107.862C1.55484 107.259 0.586397 107.459 0.0988214 106.628C-0.226677 106.069 0.344313 105.027 0.488617 103.85C0.508889 103.684 0.228925 103.556 0.442127 102.918C0.977453 101.313 1.74545 99.622 2.29953 97.9059C2.41911 97.5363 1.89059 97.7902 2.43779 96.9903C2.47509 96.937 2.86105 96.7452 3.03805 96.4708C3.16076 96.2811 3.30615 95.6066 3.49978 95.377C3.6933 95.1476 3.60658 95.7258 3.88141 95.4731C4.15755 95.2165 4.35004 94.459 4.70575 94.4893ZM92.0477 131.374C91.9034 130.68 91.4058 133.021 91.8072 132.516C91.8271 132.489 92.0554 131.408 92.0477 131.374ZM124.733 136.644C124.546 135.546 124.062 137.04 124.184 137.885C124.305 138.728 124.791 136.977 124.733 136.644ZM128.51 136.456C128.226 135.57 127.637 138.912 128.185 138.303C128.217 138.269 128.527 136.508 128.51 136.456ZM1.74941 103.955C1.75664 103.924 1.55956 103.82 1.54392 103.848C1.1756 104.523 1.56987 104.73 1.74941 103.955ZM132.268 136.191C132.209 135.717 131.758 136.184 131.831 136.772C131.889 137.246 132.34 136.78 132.268 136.191ZM78.5916 125.969C78.5951 125.933 78.4476 125.867 78.4068 126.064C78.2759 126.7 78.5312 126.57 78.5916 125.969ZM138.441 137.1C137.548 136.834 137.421 133.979 138.364 134.444C138.535 134.528 137.842 135.268 138.032 135.553C138.381 136.072 138.926 134.375 139.211 135.372C139.262 135.555 138.491 137.121 138.438 137.104C138.439 137.102 138.44 137.101 138.441 137.1ZM92.4418 128.523C92.4425 128.491 92.2331 128.419 92.2219 128.449C91.9598 129.172 92.3822 129.316 92.4418 128.523ZM69.9501 122.428C69.9544 122.36 69.4777 122.178 69.4468 122.234C68.8915 123.377 69.8578 123.75 69.9501 122.428ZM107.245 129.458C107.611 128.746 107.907 128.706 107.931 129.684C107.706 129.593 107.472 129.545 107.245 129.458Z" fill="#FC4C02"/>
<path d="M93.2448 139.097C93.5393 139.912 93.4403 141.054 93.2329 141.925C93.1688 142.198 92.7323 142.114 92.6692 142.305C92.5463 142.675 92.7924 142.986 92.64 143.364C92.5875 143.49 91.903 143.424 91.8632 143.554C91.6503 144.268 91.8978 144.87 91.8441 145.572C91.5778 149.015 91.8207 152.348 92.1188 155.76C92.2145 156.87 91.872 158.342 92.3646 159.434C92.4226 159.561 92.9845 159.365 93.0372 159.381C93.8464 159.628 92.6533 159.734 92.5513 160.024C92.148 161.165 92.3457 162.333 92.7935 163.267C92.986 163.664 94.0303 162.981 93.487 163.549C93.4505 163.588 92.8161 163.624 92.7777 163.754C92.6919 164.049 92.916 164.509 92.9166 164.722C92.9152 165.137 92.9371 165.2 93.0208 165.568C93.1295 166.071 92.978 166.737 93.2576 167.242C93.3187 167.348 93.8997 167.034 94.053 167.187C94.2061 167.34 94.2807 167.828 94.1781 168.025C94.0756 168.225 93.5708 168.291 93.467 168.35C92.5914 168.85 94.05 169.046 94.1018 169.105C95.0124 170.229 94.6093 171.551 95.001 172.748C95.3002 173.657 95.8697 174.527 96.1481 175.387C96.473 176.4 96.4794 177.374 96.9357 178.314C96.9827 178.412 97.63 178.004 97.6884 178.122C98.3147 179.386 98.8053 180.648 98.987 182.114C99.004 182.26 98.3337 182.406 98.3163 182.571C98.2184 183.581 97.7956 185.483 100.529 184.419C100.725 184.964 100.987 185.592 100.788 186.337C100.662 186.817 99.8835 186.958 100.371 187.124C100.48 187.161 100.932 186.703 101.055 186.784C101.571 187.121 101.776 187.743 102.374 187.974C102.496 188.02 102.921 187.644 103.02 187.604C103.825 187.291 103.039 188.482 103.029 188.624C102.972 189.234 103.17 189.57 103.421 189.83C103.555 189.967 103.72 190.066 103.871 190.208C103.956 190.286 104.351 189.623 104.442 189.67C104.9 189.91 105.291 190.225 105.702 190.767C105.795 190.889 105.432 191.44 105.468 191.53C105.653 191.929 106.136 190.801 106.311 191.136C106.352 191.206 106.154 191.725 106.146 191.787C106.05 192.759 106.594 191.503 106.639 191.484C107.284 191.231 107.41 192.694 108.101 192.583C108.179 192.567 108.099 191.85 108.308 191.847C109.697 191.816 111.226 191.979 112.812 192.398C113.058 192.462 112.938 193.003 112.958 193.066C113.307 194.054 113.337 192.682 113.406 192.623C113.977 192.191 114.72 193.241 114.908 191.575C116.501 191.678 118.035 191.189 119.619 190.943C120.59 190.798 121.565 190.707 122.735 190.872C122.771 190.875 122.969 191.519 123.041 191.522C123.925 191.561 123.387 190.652 123.28 189.297C123.244 188.961 124.265 190.17 124.354 190.25C124.659 190.561 124.996 191.508 125.072 191.56C125.706 191.941 124.107 189.058 124.49 188.844C124.505 188.842 124.75 189.4 124.814 189.434C125.014 189.539 124.998 189.269 125.206 189.389C125.682 189.67 126.621 190.976 126.502 189.948C126.483 189.816 125.411 188.284 125.796 188.136C125.954 188.079 126.527 187.64 126.762 187.614C126.998 187.59 127.245 188.157 127.272 188.17C128.208 188.464 128.235 188.856 129.201 189.601C130.177 190.329 128.366 188.185 128.262 187.868C128.157 187.553 128.901 187.793 129.132 187.896C129.361 188.001 129.506 188.381 129.663 188.417C130.707 188.636 128.967 187.18 128.827 186.712C128.475 185.619 130.138 186.914 130.614 186.741C130.74 186.696 130.341 186.423 130.387 186.317C130.571 185.904 131.216 186.178 131.127 185.415C131.115 185.287 130.468 184.154 131.307 184.598C131.429 184.662 131.739 185.089 131.948 185.034C132.262 184.952 132.679 184.656 132.741 184.319C132.787 184.071 131.979 183.699 132.356 183.668C132.525 183.654 132.757 184.15 133.043 184.094C133.33 184.039 133.69 183.573 133.816 183.389C133.943 183.205 133.362 182.892 133.34 182.851C133.214 182.61 133.23 182.089 133.252 182.061C134.239 180.693 135.902 179.906 136.731 178.429C136.808 178.292 136.876 178.149 136.935 178.001C136.989 177.865 136.362 177.578 136.364 177.553C136.381 176.993 137.71 178.288 138.412 178.314C137.209 177.623 137.531 177.584 137.58 177.209C137.604 177.027 137.096 176.828 137.057 176.787C136.484 176.159 137.473 176.554 137.682 176.623C138.449 176.881 137.729 176.257 138.243 176.425C138.756 176.587 139.302 177.203 139.463 176.9C139.077 176.574 137.828 176.149 137.767 175.829C137.539 174.634 139.211 173.565 139.622 172.892C140.028 172.244 140.038 171.978 140.373 171.636C140.973 171.013 139.97 170.928 139.734 170.317C139.492 169.708 141.628 170.752 142.13 170.862C142.633 170.97 142.169 170.714 142.463 170.725C142.757 170.734 143.014 171.039 143.186 170.871C143.36 170.702 142.701 169.84 142.218 169.603C141.199 169.096 139.999 168.959 140.56 168.585C140.593 168.563 141.154 168.851 141.25 168.757C142 167.997 142.303 167.042 142.946 166.207C143.036 166.091 143.679 166.373 143.739 166.307C144.363 165.607 143.159 165.619 141.989 164.914C143.651 165.386 144.74 165.374 144.879 164.748C144.961 164.375 144.208 164.292 143.732 163.956C143.588 163.857 144.145 163.691 143.805 163.58C142.692 163.22 141.375 163.228 141.988 162.717C142.016 162.694 142.627 162.885 142.681 162.799C143.028 162.241 141.843 161.976 141.787 161.326C141.743 160.817 142.581 160.014 142.754 159.437C144.685 159.635 144.295 159.017 142.977 158.692C143.062 158.315 143.013 157.902 143.217 157.546C143.287 157.422 143.843 157.535 143.905 157.522C144.869 157.32 143.576 157.087 143.529 157.004C143.07 156.099 144.069 155.378 143.101 154.52C143.066 154.489 141.718 154.452 142.7 154.219C142.768 154.202 143.384 154.478 143.427 154.076C143.47 153.675 144.173 152.888 143.522 152.348C143.366 152.216 142.257 151.937 143.095 151.618C143.208 151.574 143.597 151.592 143.808 151.526C144.482 151.311 143.117 151.303 144.258 151.025C145.4 150.748 146.234 150.239 145.387 149.72C145.363 149.703 144.275 149.66 144.276 149.48C144.278 149.192 144.46 148.756 144.421 148.457C144.402 148.314 143.745 148.479 143.73 148.455C143.251 147.54 143.757 146.791 143.86 145.721C143.88 145.52 142.894 145.133 143.546 144.649C144.258 144.116 147.578 143.984 146.637 143.162C146.256 142.815 142.069 143.136 144.059 142.052C143.765 141.609 143.694 141.121 143.667 140.642C143.665 140.626 143.648 140.58 143.644 140.564C143.475 139.769 143.402 138.944 142.651 138.368C142.597 138.327 141.447 138.592 141.409 138.455C141.354 138.251 141.818 137.943 141.797 137.792C141.723 137.158 141.087 136.787 140.962 136.186C140.915 135.959 141.475 135.86 141.425 135.596C141.376 135.336 140.611 135.369 140.858 134.915C141.047 134.569 142.454 133.947 142.557 133.596C141.662 133.785 141.306 133.769 141.056 133.642C140.898 133.562 140.783 133.439 140.602 133.296C140.511 133.224 140.015 133.407 139.946 133.377C139.651 133.253 140.051 133.026 139.738 132.912C139.663 132.883 139.158 132.958 139.067 132.937C138.279 132.761 139.36 132.142 139.551 132.049C140.272 131.669 139.598 131.606 139.874 131.351C140.152 131.102 140.554 131.397 140.712 131.125C141.038 130.568 140.915 129.906 140.915 129.367C140.912 129.154 140.237 129.328 140.221 129.298C140.03 128.854 140.743 128.385 139.38 128.167C142.883 127.781 139.032 127.902 139.726 127.243C139.783 127.191 141.442 127.11 141.688 127.297C141.934 127.484 141.419 127.782 141.805 128.038C141.895 128.101 143.459 128.413 143.555 128.455C144.302 128.798 141.825 128.936 141.69 128.962C140.228 129.248 141.923 129.617 142.045 129.718C142.601 130.2 142.284 130.651 142.7 131.033C142.969 131.282 144.589 131.139 144.56 131.337C144.467 131.968 142.268 132.594 144.311 132.831C144.589 132.857 145.391 132.677 145.598 132.717C145.715 132.741 145.64 132.83 145.181 133.087C145.098 133.123 143.932 133.748 144.765 133.734C144.87 133.731 145.37 133.598 145.42 133.616C145.743 133.735 145.384 133.978 145.639 134.139C145.894 134.298 146.257 134.46 146.179 134.77C146.132 134.955 145.3 135.489 145.109 135.652C144.555 136.115 145.691 135.961 144.98 136.402C144.267 136.853 142.98 137.016 142.641 137.614C143.897 137.131 145.192 136.653 146.457 136.174C146.741 137.014 146.72 138.07 147.159 139.037C147.215 139.157 147.84 138.77 147.918 138.894C147.923 138.903 147.929 138.912 147.934 138.921C147.974 139.072 148.137 139.506 148.155 139.662C148.365 140.186 147.983 140.78 148.294 141.309C148.543 141.733 149.389 142.085 149.667 142.539C148.206 143.108 148.842 143.717 148.786 144.26C148.767 144.448 148.359 144.5 148.246 144.648C147.831 145.206 149.14 144.775 149.372 144.877C150.362 145.328 147.322 145.809 147.486 146.46C147.494 146.494 149.177 146.717 149.286 146.768C149.995 147.073 148.728 146.902 148.636 147.156C148.469 147.623 148.113 147.962 148.644 148.427C148.801 148.56 149.855 148.831 149.093 149.195C148.993 149.243 148.451 149.27 148.422 149.304C147.943 149.903 149.642 149.779 150.242 150.065C150.843 150.35 149.702 150.939 149.369 151.059C148.51 151.378 148.983 150.879 148.896 150.87C147.863 150.769 148.062 151.116 147.991 151.395C146.326 151.53 146.445 151.893 147.924 151.682C148.085 151.657 147.918 151.454 147.991 151.395C149.642 151.539 149.875 151.976 148.362 152.506C147.652 152.752 146.81 152.576 147.136 153.216C147.282 153.508 148.429 153.365 148.748 153.627C149.477 154.231 148.406 155.042 148.565 155.667C148.623 155.897 149.256 155.683 149.317 155.843C149.48 156.269 148.997 156.628 149.223 157.057C149.244 157.096 149.906 157.028 149.909 157.161C149.944 158.18 149.465 159.032 149.356 160.075C149.304 160.583 149.564 161.529 149.419 162.053C149.178 162.957 148.051 163.908 148.134 164.711C148.186 165.236 148.852 165.255 149.25 165.561C150.018 166.165 148.326 166.586 148.069 166.622C148.061 166.622 148.005 166.161 147.624 166.315C146.906 166.29 148.067 166.616 148.069 166.622C147.904 166.652 147.553 167.471 147.631 167.669C147.674 167.778 148.292 167.881 148.303 167.936C148.55 169.228 148.35 170.463 147.681 171.525C147.662 171.542 147.011 171.287 146.975 171.327C146.455 171.888 147.11 172.586 147.373 173.323C147.635 174.059 147.296 174.441 146.056 174.297C146.026 174.763 145.289 175.125 144.849 175.314C144.41 175.502 145.622 176.119 145.632 176.16C145.987 177.433 145.017 177.632 144.431 178.475C144.148 178.882 143.843 179.825 143.695 180.363C143.581 180.79 143.176 180.841 143.145 181.277C143.14 181.336 143.682 181.612 143.694 181.638C144.073 182.397 142.932 181.428 142.661 181.362C141.855 181.164 141.353 181.047 141.241 181.395C141.218 181.469 141.214 181.566 141.231 181.69C141.253 181.844 142.829 183.323 142.805 183.582C142.772 183.913 142.202 183.392 142.182 183.75C142.179 183.78 142.572 184.042 142.447 184.187C141.869 184.867 141.081 185.496 140.555 186.27C140.481 186.375 141.178 186.694 141.08 186.855C140.62 187.609 139.985 188.362 139.154 188.805C138.948 188.912 138.635 188.471 138.486 188.406C137.589 188.011 138.365 189.203 138.337 189.273C137.759 190.925 136.006 190.973 135.182 192.542C135.146 192.624 135.578 194.21 134.502 193.477C134.427 193.431 133.357 192.658 133.711 193.508C133.732 193.561 134.312 193.939 133.999 194.113C133.689 194.283 133.512 194.993 132.682 194.711C132.415 194.626 131.377 193.804 131.61 194.895C131.642 194.962 132.354 197.286 131.238 196.111C131.055 195.917 130.162 194.488 130.182 195.506C130.185 195.704 130.551 195.917 130.44 196.266C130.266 196.807 129.546 196.715 129.443 197.636C129.43 197.796 129.61 199.007 128.903 198.396C128.794 198.3 128.617 197.756 128.436 197.78C127.579 197.886 126.957 198.594 126.032 198.553C125.708 198.537 125.503 197.638 125.14 197.519C124.776 197.402 124.157 197.379 124.001 197.87C123.839 198.363 124.631 199.631 124.197 199.895C123.442 200.347 122.601 200.56 121.742 200.649C120.717 200.723 119.641 200.597 118.593 200.713C118.335 200.741 118.64 201.214 118.263 201.292C116.896 201.588 114.378 202.421 112.938 201.404C111.823 200.594 113.094 199.835 112.283 199.527C111.903 199.379 111.555 201.081 111.453 201.137C110.513 201.707 109.826 200.956 108.923 201.144C108.733 201.182 108.882 201.875 108.718 201.899C108.146 201.986 107.568 201.629 107.007 201.616C106.755 201.611 106.729 202.134 106.496 202.061C105.941 201.89 105.457 201.58 105.003 200.978C104.965 200.924 105.436 200.363 105.031 200.248C104.368 200.059 103.697 199.369 102.748 199.545C102.467 199.598 102.006 200.706 101.797 199.722C101.752 199.513 102.48 198.276 101.381 199.13C101.226 199.295 99.3481 200.207 99.3904 198.946C99.4016 198.619 99.7372 197.437 99.379 197.406C99.325 197.404 99.1006 198.033 98.8377 197.92C97.9867 197.54 97.2797 196.864 96.518 196.263C96.4697 196.229 96.4203 196.197 96.3698 196.166C96.1983 196.06 95.9064 196.724 95.6635 196.549C94.9872 196.059 94.4665 195.178 94.1544 194.442C94.0424 194.173 94.5955 193.988 94.6297 193.934C95.2005 193.084 94.0462 193.735 93.9171 193.692C93.1339 193.415 93.3468 192.653 92.8606 192.236C92.7279 192.12 92.2801 192.574 92.2148 192.577C91.5669 192.596 92.6427 192.177 92.6229 191.927C92.5722 191.226 92.1629 190.682 91.778 190.209C91.6346 190.033 91.148 190.629 91.0254 190.465C90.2873 189.496 89.7454 188.382 89.5705 187.176C89.5415 186.953 90.0994 186.815 90.1927 186.717C90.8506 186.045 89.5667 186.205 89.4155 186.161C88.731 185.974 89.0952 185.591 88.8375 185.266C87.552 183.65 86.9167 181.257 86.472 179.472C85.8856 177.141 85.8323 175.259 85.0667 173.183C85.0187 173.049 84.3461 173.398 84.2954 173.285C83.6759 171.823 83.5516 170.263 82.9579 168.796C82.9108 168.677 82.2722 169.028 82.1736 168.842C81.9664 168.46 81.8743 167.927 81.9917 167.453C82.0478 167.223 82.7023 167.356 82.7469 167.127C82.8552 166.607 82.7866 166.095 82.5646 165.633C82.4687 165.436 81.8373 165.911 81.7673 165.642C81.2813 163.832 80.7805 162.035 81.3451 160.02C81.3839 159.881 82.803 159.497 82.4763 159.282C82.0727 159.338 81.6026 159.427 81.1736 159.499C80.4427 156.885 80.5092 154.172 80.1952 151.504C80.1819 151.393 79.4417 151.698 79.4122 151.482C79.2402 150.231 78.8564 149.029 79.4543 147.646C79.5125 147.508 80.876 147.397 80.6224 147.048C80.576 146.984 80.3238 146.447 80.0116 146.34C79.9647 146.326 79.3447 146.508 79.3035 146.33C79.0757 145.292 79.0863 144.15 79.3554 143.063C79.3999 142.886 80.0953 142.99 80.1329 142.864C80.3939 141.962 79.7803 141.09 80.3091 140.21C80.6655 139.62 81.8545 139.702 82.9746 139.295C83.1327 139.238 83.1242 138.897 83.7916 138.812C85.4695 138.599 87.3281 138.576 89.1147 138.329C89.4995 138.277 89.039 137.874 89.9988 138.044C90.0631 138.056 90.4051 138.346 90.7297 138.393C90.9542 138.425 91.6246 138.258 91.9161 138.341C92.2074 138.423 91.6495 138.604 91.9976 138.754C92.3499 138.903 93.1153 138.743 93.2448 139.097ZM142.874 176.118C142.149 176.109 144.262 177.233 143.91 176.657C143.89 176.628 142.91 176.118 142.874 176.118ZM145.046 138.771C144.217 139.534 145.761 139.219 146.411 138.648C147.058 138.072 145.297 138.537 145.046 138.771ZM142.919 135.413C142.267 136.089 145.492 135.029 144.712 134.861C144.668 134.851 142.958 135.375 142.919 135.413ZM83.4407 140.596C83.4719 140.588 83.4773 140.346 83.4454 140.343C82.6761 140.295 82.6659 140.782 83.4407 140.596ZM141.297 131.946C140.857 132.14 141.436 132.462 141.979 132.216C142.415 132.027 141.844 131.713 141.297 131.946ZM131.431 187.576C131.403 187.554 131.255 187.65 131.396 187.794C131.851 188.257 131.904 187.953 131.431 187.576ZM140.992 125.261C140.865 126.259 138.066 126.891 138.378 125.785C138.435 125.585 139.273 126.212 139.525 125.958C139.984 125.495 138.225 125.188 139.168 124.717C139.34 124.631 141.005 125.204 140.996 125.262C140.994 125.262 140.993 125.261 140.992 125.261ZM140.224 174.993C140.193 174.984 140.058 175.184 140.083 175.203C140.7 175.666 140.977 175.255 140.224 174.993ZM122.418 191.696C122.383 191.639 121.871 191.752 121.875 191.814C121.997 193.088 123.102 192.839 122.418 191.696ZM142.807 159.433C142.07 159.111 142.004 158.819 142.976 158.693C142.906 158.938 142.877 159.187 142.807 159.433Z" fill="#FC4C02"/>
</svg>
