<svg width="212" height="270" viewBox="0 0 212 270" fill="none" xmlns="http://www.w3.org/2000/svg">
<path d="M77.1469 262.663C74.9783 257.96 72.5891 251.593 70.9048 246.714C70.3744 245.181 71.0793 245.777 70.7311 244.712C70.0491 242.629 69.0843 240.837 68.4402 238.762C68.2293 238.075 69.19 238.642 68.9546 237.927C67.6631 234.02 66.0216 230.491 64.5663 226.588C57.402 207.367 49.9679 188.641 42.404 169.302C39.9105 162.929 37.3388 154.992 34.4387 148.538C34.0998 147.786 33.7378 148.463 33.6339 148.336C32.0235 146.34 33.438 146.662 32.9761 145.098C31.164 138.949 28.5645 132.341 26.075 126.719C25.0109 124.318 24.8942 127.186 24.5336 124.507C24.5078 124.322 25.3327 124.701 25.1319 124.016C24.6686 122.449 23.43 119.633 23.0087 118.434C22.1951 116.11 22.0671 115.803 21.2147 113.62C20.0949 110.736 18.9954 107.074 17.6603 104.021C17.6353 103.964 17.6104 103.921 17.5856 103.889C17.3214 103.536 17.0732 104.398 16.5952 103.44C16.0716 102.391 15.0352 99.5459 14.81 98.5309C14.5894 97.5297 15.2154 97.7544 15.2595 97.5458C15.6299 95.7841 13.1298 92.991 12.9365 92.5672C9.5057 85.0233 7.79641 78.0951 5.42115 70.6444C3.6243 64.9599 1.63171 58.7837 0.956719 52.8654C0.745301 51.0628 0.643596 49.3227 0.588859 47.6654C0.437063 42.9234 0.54758 38.4796 0.730776 33.5637C0.760363 32.855 -0.0358298 33.6473 0.00120434 32.7808C0.687542 24.5105 0.667078 16.4683 6.87039 7.89528C7.66832 7.03947 8.55705 6.28571 9.48751 5.64624C10.396 5.04261 9.66707 6.38933 10.5764 5.85194C15.2872 3.0603 22.2286 3.02243 26.1129 1.29972C27 0.928825 27.7858 0.517638 28.3967 -7.30306e-05C32.519 -0.00295472 37.1421 0.814214 40.3472 2.04544C42.4072 2.85112 40.1915 3.11505 42.8485 3.38379C43.444 3.44996 42.8272 2.65852 43.7172 2.80866C47.4694 3.44821 51.3678 4.79189 55.0038 5.62659C55.7438 5.79524 55.7242 5.19395 55.9608 5.1639C57.9463 4.9392 60.3396 7.22513 60.9141 7.54083C64.2753 9.34697 67.0631 10.3947 70.0867 11.5746C71.1924 12.0095 72.2779 12.5574 73.3363 13.2411C74.3512 13.9181 73.5633 12.4712 74.572 13.1332C79.7503 16.7162 82.9894 21.7943 85.4638 26.5096C86.0036 27.5688 84.891 26.9633 85.1167 27.4823C86.1023 29.7713 87.4326 29.6595 88.3242 31.875C88.5121 32.3433 87.8892 32.354 87.8784 32.4634C87.6941 34.1559 89.4563 34.6264 89.6488 34.9369C92.1042 38.8651 92.0876 42.1208 94.1572 46.007C94.4067 46.4744 94.531 45.0966 95.1922 46.4267C96.1095 48.2712 97.0106 50.1337 97.9112 52.0341C101.367 59.326 104.351 66.9369 106.541 74.488C106.959 75.9436 106.104 75.0985 106.075 75.2106C105.624 76.9998 107.243 77.5626 107.444 78.0093C109.041 81.6626 108.942 85.494 111.169 87.6924C113.39 97.7078 115.147 109.359 112.884 118.845C112.882 119.063 112.881 119.198 112.884 119.307C112.884 119.333 112.885 119.342 112.881 119.316C112.88 119.303 112.877 119.281 112.871 119.243C112.869 119.231 112.869 119.231 112.864 119.203C112.856 119.158 112.844 119.099 112.819 119.005C112.792 118.91 112.757 118.785 112.657 118.574C112.546 118.368 112.404 118.036 111.859 117.615C111.354 117.17 110.103 116.938 109.379 117.276C109.196 117.346 109.041 117.427 108.912 117.509C108.78 117.592 108.678 117.675 108.641 117.705C108.539 117.79 108.458 117.87 108.391 117.942C108.13 118.232 108.05 118.405 107.983 118.53C107.866 118.773 107.853 118.849 107.836 118.902C107.813 118.987 107.826 118.948 107.826 118.945C107.874 118.75 107.943 118.327 107.995 117.999C108.113 117.248 108.218 116.531 108.336 115.729C108.559 114.21 108.784 112.707 109.029 111.17C109.517 108.122 110.069 105.053 110.715 102.031C110.757 101.828 111.377 102.277 111.458 101.872C112.448 96.9544 111.298 97.7733 110.463 94.3198C110.256 93.4351 112.12 91.1323 112.264 90.9198C112.786 90.1697 113.659 91.1424 113.776 90.8833C114.713 88.7308 111.392 88.6391 111.832 85.5949C111.852 85.501 112.394 85.9863 112.491 85.7411C112.794 84.9802 112.672 84.1578 112.995 83.4145C113.742 81.7164 115.419 81.3358 114.932 78.495C114.869 78.1341 112.931 78.3561 113.472 75.6611C113.682 74.5874 114.505 69.7963 114.891 68.4903C115.27 67.1702 115.683 68.2079 115.727 68.1165C116.065 67.3317 116.33 66.8075 116.555 66.442C117.33 65.1783 117.62 65.7618 118.81 64.5814C120.353 63.083 117.515 62.9368 117.382 62.1331C117.245 61.3288 118.56 58.8707 118.962 58.3081C119.359 57.7327 119.508 58.6277 119.79 58.0994C121.673 54.6313 118.928 56.0788 118.873 54.7123C118.777 51.4667 121.54 49.8861 122.722 47.4044C123.045 46.7298 122.381 47.1247 122.585 46.4877C123.419 43.9618 124.635 42.7683 125.374 39.797C125.489 39.3152 125.443 36.5499 126.999 35.5673C127.22 35.4314 127.385 36.2289 128.01 35.2899C128.943 33.8829 130.521 31.3075 131.302 29.6771C131.877 28.4692 130.356 29.3358 131.455 28.0367C131.947 27.4605 131.649 28.9001 132.537 27.8027C133.107 27.0988 134.097 25.594 134.94 24.3227C135.41 23.6106 135.851 22.993 136.141 22.5999C136.964 21.5052 136.003 21.694 136.033 21.5806C136.23 20.8736 137.859 18.6301 138.057 18.4767C142.253 14.2107 147.753 11.8729 152.98 10.5814C159.776 9.19805 164.998 12.756 170.146 15.3765C170.924 15.8089 170.767 14.9198 170.889 14.9797C173.666 16.3494 170.652 16.616 172.105 18.2566C172.594 16.9265 173.528 17.8075 175.369 18.8831C176.259 19.4049 176.103 18.6468 176.211 18.6543C176.283 18.6629 176.353 18.6738 176.42 18.6868C178.015 19.019 178.234 20.4528 178.309 20.7741C178.614 22.029 180.062 22.0485 180.227 22.9144C180.379 23.7682 178.705 23.2773 180.191 24.6477C180.95 24.6868 180.73 22.6816 182.019 23.6277C187.106 27.1866 192.62 37.0417 194.773 41.1838C197.033 45.3167 197.784 46.6369 198.877 49.151C200.793 53.7121 200.844 51.6683 202.569 54.2558C204.274 56.8663 201.488 56.5 201.213 57.1136C200.931 57.7172 201.603 57.9267 201.57 58.5305C201.536 59.1314 200.745 58.2242 201.166 59.4081C201.59 60.5889 203.796 63.3651 204.459 63.568C205.866 63.9878 206.344 62.0897 207.275 65.3293C207.328 65.5161 206.511 65.1846 206.741 65.8873C206.891 66.3408 207.043 66.7937 207.197 67.2458C208.999 72.4731 210.208 78.0384 210.276 83.4461C210.284 84.2521 209.535 83.5934 209.53 84.0591C209.368 88.892 210.416 87.1005 211.731 89.8228C209.995 89.2038 209.005 90.6639 208.738 94.263C208.552 96.43 209.326 96.1319 209.699 97.6114C209.812 98.0568 209.093 99.5501 209.401 99.8741C210.402 100.968 211.95 99.6926 210.792 103.432C210.738 103.595 210.208 102.953 210.067 103.521C209.118 107.166 210.207 107.867 209.354 111.885C208.682 115.045 206.313 120.266 204.991 123.632C203.186 122.931 202.477 126.259 203.235 128.021C202.36 130.201 201.502 132.577 200.472 134.603C200.118 135.298 199.793 134.612 199.699 134.68C198.249 135.701 199.054 137.136 198.904 137.621C198.103 140.116 197.056 142.248 196.039 144.354C194.903 146.702 193.716 148.94 192.741 151.587C192.676 151.761 193.679 152.733 192.086 153.433C191.98 153.471 192.387 151.671 191.024 153.75C189.657 155.847 186.368 159.191 184.668 162.215C184.267 162.948 183.736 165.282 181.97 165.981C181.734 166.072 181.607 165.633 181.232 165.731C180.029 166.051 180.654 167.391 178.973 167.505C177.291 167.619 174.958 168.842 173.117 171.812C173.056 171.906 173.25 173.241 172.468 173.987C171.293 175.109 169.525 176.537 168.242 177.738C168.166 177.808 168.093 177.878 168.02 177.947C167.396 178.538 168.255 178.652 168.154 178.763C164.099 182.992 160.395 185.011 155.211 188.388C154.262 189.004 152.089 191.619 149.86 192.241C147.411 192.925 147.654 188.826 143.487 192.51C141.807 193.985 141.696 199.035 137.14 199.378C136.774 199.65 136.403 199.917 136.028 200.181C130.064 204.378 123.805 207.21 117.959 211.709C117.677 211.926 117.348 213.505 116.644 213.925C115.597 214.548 114.723 214.45 113.967 214.878C110.763 216.679 108.158 218.843 105.117 220.643C103.956 221.331 104.058 220.605 102.691 221.416C101.298 222.243 100.795 223.426 98.7609 224.267C97.2258 224.897 95.0309 224.475 93.0948 225.472C93.8234 226.78 92.53 227.547 90.4842 229.292C90.0943 229.627 90.8319 229.779 90.6618 229.96C89.9922 230.695 88.961 230.833 88.344 231.566C88.1911 231.745 88.4595 232.18 88.3444 232.354C87.3962 233.839 84.6135 234.246 84.1235 234.322C82.2737 234.603 81.9528 235.6 80.7032 236.054C79.4303 236.526 80.8813 235.135 79.4927 235.823C76.6529 237.229 73.2645 239.588 70.6656 241.53C69.6469 242.302 70.7565 242.311 70.6199 242.435C70.3258 242.694 70.0209 242.943 69.7385 243.168C68.0594 244.671 66.2616 245.943 66.2281 247.655C62.4294 246.578 65.3183 249.006 62.4092 251.412C62.1848 251.604 60.6281 250.883 61.1868 249.807C61.7495 248.732 63.3186 247.732 64.1652 246.299C64.3522 245.961 64.8193 243.28 64.9826 242.999C66.199 240.794 68.1526 242.399 68.329 242.415C68.5619 242.43 68.7792 242.403 68.983 242.342C68.993 242.334 69.0227 242.307 69.0331 242.299C70.6079 241.934 71.5802 239.595 72.0209 239.158C74.3748 236.835 76.821 235.645 78.8649 233.859C80.194 232.704 79.4845 231.229 80.651 230.54C84.6057 228.209 87.1503 229.294 89.7527 225.348C90.3022 224.511 88.5893 223.484 92.1261 222.928C92.3492 222.892 95.0935 222.691 95.879 221.253C95.9772 221.072 95.7031 220.633 95.8752 220.475C97.0428 219.42 98.1679 219.208 99.5058 218.146C100.861 217.074 102.45 215.743 104.188 214.871C105.255 214.333 107.023 214.371 107.631 214.272C109.352 214.004 110.187 212.172 111.468 212.345C112.741 212.528 111.766 214.616 114.249 213.701C113.62 212.508 113.078 211.219 112.495 209.989C117.365 207.011 122.316 204.424 127.117 201.32C127.714 200.933 126.712 200.71 127.342 200.279C129.446 198.84 131.554 197.871 133.701 196.53C134.239 196.194 134.765 195.844 135.302 195.451C137.378 193.932 139.313 191.774 141.44 190.153C143.647 190.551 146.656 187.939 149.09 186.44C149.94 185.916 150.122 186.289 150.779 185.998C153.265 184.872 151.454 184.473 151.928 183.88C153.941 181.325 155.966 183.678 158.873 181.372C159.039 181.248 159.884 178.494 160.053 178.217C161.207 176.412 160.679 178.448 161.743 177.723C163.162 176.743 164.339 176.044 165.488 174.854C165.922 174.405 166.351 173.903 166.801 173.295C167.299 172.618 168.007 170.507 169.694 169.946C169.917 169.872 170.216 170.339 170.359 170.242C172.904 168.448 171.742 167.184 172.524 165.545C173.305 163.908 175.953 162.762 176.566 162.579C178.166 162.11 176.119 163.638 176.125 163.751C176.266 165.112 177.466 163.554 178.515 162.489C179.915 163.434 181.221 161.764 179.593 161.375C179.415 161.336 178.773 162.314 178.515 162.489C178.157 160.414 179.435 158.615 182.183 157.594C183.462 157.104 183.483 158.521 185.373 155.434C186.209 154.025 184.907 153.876 185.445 152.535C186.659 149.497 189.66 146.463 190.912 143.374C191.361 142.266 190.301 143.054 190.582 142.292C190.623 142.18 190.665 142.069 190.707 141.959C191.486 139.985 192.628 138.406 193.264 136.339C193.324 136.141 192.521 136.344 192.79 135.691C194.809 130.744 196.922 126.588 198.758 121.365C199.656 118.843 200.738 114.201 201.507 111.585C202.891 107.072 204.983 101.547 205.211 97.5254C205.36 94.9218 204.625 95.4221 204.276 94.2966C203.608 92.1464 205.21 88.5193 205.423 87.9882C205.439 87.9678 205.59 90.1776 205.932 88.9978C206.637 88.3043 205.426 88.0104 205.423 87.9882C205.613 87.6523 205.522 83.2619 205.25 82.4207C205.127 81.962 204.537 82.2968 204.484 82.0596C203.547 77.8521 202.323 73.8509 200.741 69.9606C200.141 68.4888 199.556 67.0015 198.99 65.5108C198.957 65.4038 199.665 65.2792 199.58 65.0309C198.403 61.5519 196.657 59.7746 194.927 57.2982C193.194 54.8229 192.3 52.674 192.555 50.5625C191.396 48.6436 190.318 45.5953 189.658 43.8482C189.001 42.1002 187.694 42.5933 187.591 42.4721C184.237 38.7215 183.301 35.9599 180.173 32.0532C178.705 30.181 175.28 27.0845 173.261 25.8145C172.809 25.5131 172.422 25.2318 172.067 24.9674C171.058 24.2239 170.26 23.5393 169.033 22.9204C168.802 22.8041 168.693 23.454 168.615 23.4312C166.45 22.9152 168.088 22.2054 167.856 21.7467C167.012 20.1108 166.382 19.1008 163.811 18.304C163.196 18.1058 160.772 19.3393 159.894 19.1638C158.731 18.9257 159.361 18.3172 158.188 18.1939C158.097 18.1905 157.982 18.6334 157.387 18.5008C156.414 18.2942 155.707 18.2917 155.319 18.3575C152.48 19.0944 149.96 19.9999 147.833 21.3517C147.393 21.6329 148.348 21.9116 147.739 22.3254C145.361 23.9551 143.217 26.115 141.373 28.5549C140.946 29.13 140.52 29.6979 140.1 30.2508C139.463 31.0885 139.373 30.2537 139.12 30.3631C137.567 31.0528 137.704 33.4756 137.568 33.7619C134.222 40.7589 130.546 45.5485 128.425 53.1705C128.3 53.5941 128.655 57.1316 127.049 58.1662C126.941 58.232 125.288 59.2788 125.799 60.7618C125.832 60.853 126.703 60.154 126.231 61.6589C125.759 63.1688 125.598 65.7249 124.454 67.7104C124.406 67.7934 124.337 67.8888 124.256 67.9974C123.713 68.7197 122.578 70.0589 123.115 72.0415C123.154 72.2024 124.849 75.8278 123.085 76.7158C122.796 76.8591 121.158 76.3817 121.596 79.048C121.682 79.5578 122.196 78.7426 122.222 80.0512C122.265 82.0526 121.419 84.5716 121.812 87.0858C121.882 87.5255 122.759 89.4663 121.698 90.7839C121.531 90.99 121.033 90.4851 120.865 91.2346C120.065 94.802 119.948 98.6321 119.105 102.277C118.809 103.567 117.989 102.767 117.578 104.121C117.173 105.425 116.607 108.192 116.855 109.657C117.1 111.148 118.728 109.726 118.591 111.904C118.491 113.507 118.353 115.108 118.175 116.739C118.083 117.575 117.987 118.375 117.862 119.259C117.827 119.505 117.805 119.655 117.758 119.956C117.708 120.259 117.692 120.387 117.581 120.934C117.555 121.057 117.525 121.192 117.481 121.364C117.451 121.48 117.382 121.762 117.237 122.166C117.001 122.62 117.116 123.112 115.504 124.905C115.391 125.018 115.266 125.135 115.126 125.257C115.056 125.318 114.983 125.38 114.904 125.443C114.861 125.477 114.84 125.494 114.771 125.548C114.694 125.606 114.613 125.666 114.529 125.725C113.858 126.196 112.873 126.721 111.576 126.95C108.854 127.53 105.971 125.944 105.048 124.841C103.981 123.702 103.723 122.969 103.496 122.459C103.292 121.948 103.212 121.625 103.149 121.366C103.018 120.768 103.049 120.843 103.027 120.728C103.015 120.645 103.005 120.571 102.997 120.504C102.966 120.236 102.955 120.056 102.946 119.891C102.941 119.81 102.938 119.734 102.936 119.662C102.934 119.606 102.934 119.577 102.933 119.535C102.931 119.457 102.93 119.381 102.93 119.305C102.929 119.153 102.93 119.002 102.932 118.845C102.934 118.384 102.966 118.051 102.999 117.767C103.025 117.54 103.053 117.359 103.081 117.186C103.138 116.843 103.178 116.65 103.226 116.411C103.265 116.218 103.306 116.022 103.345 115.837C103.381 115.671 103.416 115.503 103.452 115.328C103.587 114.688 103.708 114.048 103.81 113.433C104.018 112.173 104.165 110.888 104.252 109.567C104.425 106.909 104.357 104.136 104.04 101.316C103.892 100.07 103.53 101.186 103.241 99.3113C102.288 92.4312 98.2132 80.671 96.9347 74.3575C95.9454 69.2558 98.8836 75.0776 97.8018 71.2437C97.2921 69.4475 94.9323 68.1318 94.7144 67.7439C92.529 63.8633 91.9362 60.6892 90.0471 57.153C89.6482 56.4086 89.3777 57.4477 89.0439 56.8105C88.9585 56.6487 88.8745 56.4848 88.7918 56.3192C87.7586 54.2507 86.9785 51.9845 86.0034 50.0475C85.526 49.103 85.1403 49.5087 84.7618 48.6197C83.8515 46.5 83.1635 44.5665 82.6165 42.3541C82.5664 42.1523 83.756 43.0912 83.0286 41.567C81.8483 39.1044 80.7312 35.8622 78.7896 33.4374C78.2114 32.7266 77.1689 33.2827 76.9027 31.2299C76.8414 30.8061 78.3401 30.4672 76.1116 29.2642C75.724 29.0074 72.3896 27.0588 72.2017 25.2246C72.1556 24.7234 72.3045 23.1056 71.5095 22.5824C71.4033 22.5201 71.293 23.3075 70.7285 22.8453C69.2986 21.6807 67.9348 20.7485 66.5604 20.266C65.6631 19.9302 64.7665 19.6101 63.8635 19.3167C63.0123 19.0425 64.0088 20.1442 62.7475 19.7175C59.286 18.547 55.0727 16.8518 51.773 15.5741C50.5607 15.1029 51.5826 14.8536 51.5118 14.7679C50.343 13.3727 49.0869 14.3683 48.5901 14.2989C45.4619 13.8459 43.3418 12.6435 40.5567 12.1799C39.7856 12.0531 40.191 12.7847 40.0277 12.8057C38.3728 13.008 39.7556 12.1522 38.7944 11.8264C36.1103 10.9202 33.0183 10.5132 30.4596 10.4977C29.5362 10.4983 30.5464 11.2533 29.7293 11.2528C28.8245 11.2619 27.9617 11.3099 27.1991 11.4009C22.7538 11.8926 18.5803 12.7359 16.3517 13.8775C15.8364 14.1368 15.8085 13.4792 15.6337 13.4451C14.8977 13.3241 14.5222 13.94 14.4522 14.4591C14.5635 14.6287 14.6269 14.9544 14.6234 15.0537C14.4897 16.3283 13.728 16.92 13.29 18.569C11.2834 26.4351 10.6752 37.9685 11.0266 47.0672C11.0516 47.7756 11.0815 48.453 11.1195 49.1044C11.8837 60.3874 15.1969 70.1388 19.3108 81.506C19.5859 82.2401 20.0146 81.2415 20.2621 81.8739C22.6184 87.9462 24.7958 94.0367 27.1914 100.166C27.9427 102.087 28.7492 104.094 29.5668 106.038C29.8451 106.704 30.1217 105.477 30.5919 106.54C31.5455 108.678 32.61 111.483 33.2757 113.776C33.6067 114.907 32.464 113.665 32.8097 114.801C33.5957 117.401 34.6345 120.148 35.7781 122.707C36.2707 123.806 36.2663 121.851 36.8554 123.303C40.827 133.049 44.8364 142.637 47.9899 152.878C48.2047 153.577 47.0869 154.72 47.9362 156.062C48.3574 156.018 48.7983 155.831 49.2205 155.715C55.2359 169.877 60.5403 184.155 66.3361 198.456C66.5811 199.06 66.8709 197.722 67.3491 198.89C70.1105 205.634 73.006 212.099 75.1358 219.29C75.3479 220.002 73.9393 220.171 74.9623 222.109C75.1446 222.452 76.5654 225.419 77.1628 226.089C77.2482 226.179 77.6093 225.382 78.03 226.353C80.4668 232.005 82.7906 238.014 84.7749 243.839C85.0938 244.78 84.0632 244.064 84.285 244.736C85.8646 249.504 88.42 254.337 89.6777 258.996C90.5172 262.115 88.979 261.467 88.5608 263.481C88.502 263.766 89.2355 265.609 88.6533 265.96C87.1911 266.849 85.1131 266.669 83.5979 267.721C83.2709 267.946 84.6718 270.242 83.2041 269.146C83.1042 269.069 82.0809 267.408 81.6057 267.091C81.2762 266.87 80.8715 267.681 80.3539 267.166C79.8365 266.651 80.0836 265.748 79.3513 264.842C78.6155 263.939 78.0837 264.689 77.1469 262.663ZM186.411 36.0968C185.951 34.3186 183.875 35.5335 185.392 36.6757C185.467 36.73 186.436 36.1875 186.411 36.0968ZM123.256 205.956C125.754 205.632 126.283 203.464 124.463 203.648C122.649 203.828 122.498 206.054 123.256 205.956ZM103.387 219.244C106.125 218.526 104.69 215.423 102.598 217.527C102.475 217.649 103.228 219.286 103.387 219.244ZM85.2427 256.313C85.2226 256.347 85.7382 257.676 85.7804 257.696C86.7725 258.107 85.741 255.45 85.2427 256.313ZM83.7068 232.517C84.65 232.459 86.4249 230.71 85.2372 230.786C84.2692 230.854 82.5258 232.593 83.7068 232.517ZM123.837 47.7598C123.793 47.7707 123.395 48.7158 123.592 48.766C124.221 48.9318 124.561 47.5503 123.837 47.7598ZM55.7954 261.167C56.1711 259.925 56.6882 258.828 57.2447 257.969C57.2466 257.964 57.2519 257.951 57.254 257.946C59.5508 255.018 61.3701 255.103 59.3004 258.842L59.3352 258.757C59.2936 258.857 59.2504 258.959 59.2055 259.065C59.0259 259.495 58.9869 259.117 58.9637 258.617L58.9366 258.683C58.9315 258.007 59.0159 257.079 58.5123 257.774C58.3796 257.961 58.2654 258.156 58.1705 258.348L58.181 258.322C57.2598 260.501 58.2017 262.499 56.7464 264.755C56.4534 265.204 55.6679 261.51 55.7945 261.156C55.7948 261.16 55.7951 261.163 55.7954 261.167ZM188.176 33.618C188.185 33.5707 187.371 32.4091 187.323 32.4027C186.265 32.2447 187.888 34.5581 188.176 33.618ZM110.909 105.878C110.834 105.93 110.385 109.199 110.434 109.32C111.467 111.168 112.376 104.58 110.909 105.878ZM204.923 123.668C205.134 125.393 204.572 127.195 203.238 128.015C203.827 126.59 204.367 125.124 204.923 123.668Z" fill="#FC4C02"/>
</svg>
