<svg width="195" height="259" viewBox="0 0 195 259" fill="none" xmlns="http://www.w3.org/2000/svg">
<path d="M62.21 250.658C62.8064 246.141 64.0557 240.32 65.0989 235.927C65.4253 234.548 65.726 235.323 65.9687 234.377C66.4424 232.521 66.5205 230.736 67.0061 228.91C67.1688 228.306 67.7127 229.175 67.8678 228.539C68.7135 225.042 69.0369 221.671 69.6499 218.117C70.1129 215.427 70.5318 212.746 70.8915 210.081C72.6953 197.453 72.5328 185.061 71.1014 172.087C70.8776 169.936 70.631 167.768 70.373 165.587C69.6691 159.638 69.2048 152.297 68.0847 146.145C67.9536 145.429 67.429 145.939 67.3619 145.809C66.3269 143.749 67.6059 144.311 67.5702 142.876C67.428 137.202 66.698 130.96 65.883 125.571C65.5356 123.274 64.6188 125.711 65.0261 123.32C65.0534 123.154 65.7374 123.674 65.7376 123.034C65.7365 121.886 65.4969 119.951 65.3731 118.634C65.3405 118.29 65.3155 117.988 65.3042 117.755C65.205 115.6 65.1681 115.246 65.0039 113.217C64.7866 110.44 64.8504 107.118 64.5139 104.151C64.4402 103.517 63.8545 104.401 63.6797 103.394C63.5038 102.385 63.397 99.6912 63.4991 98.7778C63.5999 97.8619 64.1252 98.2209 64.2318 98.054C65.1318 96.6873 63.6299 93.6482 63.58 93.2493C62.6796 85.9738 63.2778 79.6893 63.2269 72.8284C63.1957 68.4153 63.0523 63.7342 63.1621 59.3739C63.1826 58.5651 63.2134 57.7869 63.2567 57.0198C63.6124 51.0118 64.5227 45.9507 65.5946 40.1761C65.711 39.5694 64.8259 40.1366 64.9718 39.3799C66.503 31.4203 69.3605 23.5379 73.7595 16.6943C74.2013 16.0053 74.2708 17.2428 74.7442 16.5819C75.3715 15.7057 76.1111 14.749 76.8822 13.7573C79.6902 9.98209 83.4714 6.49351 84.3561 3.21574C85.5748 2.39958 86.9952 1.61425 88.5573 1.04668C90.9439 0.166031 93.6237 -0.203354 95.7603 0.110174C97.9637 0.506084 95.8215 1.11263 98.4464 1.02796C99.0409 1.04173 98.3564 0.299229 99.2691 0.386464C101.087 0.577751 102.928 1.19466 104.548 1.93917C107.79 3.54144 108.431 6.33683 109.197 7.99922C109.472 8.69669 109.956 8.34537 110.113 8.52742C111.402 10.0799 110.538 13.0414 110.533 13.627C110.523 18.1232 111.163 21.1989 111.61 25.2259C111.709 26.1531 112.342 24.9681 112.466 25.8651C112.859 28.7769 113.168 31.7553 113.372 34.6938C113.492 36.4281 113.572 38.2138 113.599 39.9144C113.614 40.9345 112.885 40.06 112.859 40.5515C112.75 42.7137 114.011 43.1001 113.918 45.1497C113.9 45.5871 113.327 45.3893 113.272 45.4734C112.423 46.8065 113.858 47.7317 113.914 48.0572C114.642 52.0364 113.424 54.6991 113.905 58.5523C113.964 59.0141 114.589 57.9168 114.711 59.2198C115.53 67.8785 115.931 77.054 115.899 85.667C115.894 87.0033 115.309 86.0855 115.25 86.1732C114.32 87.6047 115.732 88.4064 115.809 88.8368C116.386 92.2465 115.436 95.5202 117.191 97.751C117.344 105.502 117.898 113.263 118.274 120.946C118.594 127.743 118.809 134.462 118.19 141.31C118.174 141.496 117.503 141.167 117.473 141.535C117.043 146.017 118.157 145.021 119.061 148.438C119.275 149.217 117.581 151.196 116.939 151.582C116.849 151.651 116.786 151.697 116.761 151.718C116.049 152.27 115.49 151.105 115.307 151.307C113.813 152.727 116.966 154.289 114.583 156.83C114.507 156.896 114.395 156.161 114.158 156.306C113.428 156.743 112.924 157.445 112.132 157.717C110.259 158.286 109.211 157.085 107.098 158.669C106.843 158.832 107.581 160.19 105.917 160.821C105.676 160.907 105.389 160.973 105.044 161.008C103.945 161.26 99.1014 161.163 97.8508 160.685C96.5807 160.32 97.5888 159.898 97.4976 159.855C94.3476 158.317 95.7102 158.262 94.5348 156.669C93.462 155.041 92.8852 157.799 92.126 157.837C91.351 157.883 89.4087 156.223 89.0208 155.726C88.6129 155.242 89.4409 155.26 89.0475 154.895C88.5022 154.386 88.1123 154.1 87.813 153.976C87.2606 153.729 86.9339 153.903 86.6004 154.198C86.2777 154.465 85.9603 154.896 85.3196 154.266C84.2558 153.085 84.2621 151.727 84.4308 150.89C84.6157 150.007 85.0099 149.363 85.4136 148.767C86.0465 147.819 86.7784 146.983 87.2656 146.011C87.5768 145.404 86.9226 145.735 87.1278 145.151C87.7719 143.426 88.7223 142.471 89.691 141.09C90.0291 140.617 90.4014 140.07 90.8565 139.44C91.0681 139.03 92.409 136.5 94.1771 136.65C94.4211 136.671 94.1576 137.39 95.1134 137.026C96.5416 136.478 99.0406 135.55 100.464 134.822C101.513 134.282 99.9594 133.959 101.432 133.686C102.096 133.566 101.122 134.46 102.345 134.199C103.551 133.94 106.5 132.892 107.616 132.505C108.744 132.109 107.915 131.703 107.995 131.63C108.371 131.291 109.794 130.567 110.446 130.269C110.591 130.201 110.695 130.155 110.731 130.144C120.387 126.97 129.663 125.414 139.038 122.357C139.774 122.119 139.092 121.603 139.202 121.56C141.673 120.56 140.16 122.877 142.104 122.958C141.47 121.697 142.588 121.641 144.343 120.989C145.187 120.675 144.571 120.291 144.635 120.215C145.702 119.069 146.876 119.835 147.166 119.978C148.233 120.502 148.899 119.345 149.624 119.694C150.344 120.04 149.222 121.159 150.941 120.672C151.29 120.061 149.668 119.164 150.917 118.601C155.645 116.461 165.165 114.951 169.18 114.029C169.901 113.862 170.567 113.704 171.121 113.571C173.7 112.954 174.89 112.622 176.84 112.3C181.142 111.616 179.365 111.043 181.945 110.032C184.558 109.052 183.701 111.647 184.179 112.069C184.638 112.5 184.96 111.909 185.465 112.108C185.973 112.308 185.044 112.809 186.121 112.742C187.216 112.631 189.92 111.543 190.511 111.285C191.012 110.925 191.177 110.477 191.392 110.156C191.57 109.876 192.141 109.592 193.261 110.709C193.691 111.162 194.086 111.967 194.133 112.784C194.143 112.947 193.959 112.785 193.783 112.753C193.602 112.718 193.473 112.804 193.469 113.314C191.838 119.677 187.662 122.796 184.076 126.579C183.551 127.073 183.468 126.131 183.156 126.413C179.96 129.233 181.829 128.915 181.145 131.514C180.266 129.933 178.622 130.147 176.338 132.419C174.953 133.788 175.731 134.075 175.19 135.35C175.04 135.723 173.689 136.312 173.75 136.746C173.95 138.158 175.816 138.176 173.012 140.136C172.889 140.218 172.789 139.439 172.398 139.757C169.822 141.842 170.384 142.975 167.847 145.505C166.366 146.981 163.618 148.925 161.294 150.647C160.535 151.21 159.805 151.753 159.189 152.237C157.98 150.727 155.993 152.969 155.863 154.775C154.214 156.027 152.486 157.447 150.77 158.49C150.182 158.848 150.21 158.128 150.104 158.131C148.47 158.156 148.525 159.721 148.187 160.028C144.557 163.25 140.75 164.63 137.441 167.954C137.324 168.072 137.843 169.345 136.267 169.195C136.166 169.179 137.102 167.841 135.267 168.975C133.424 170.114 129.61 171.68 127.397 173.792C126.863 174.303 125.884 176.198 124.173 176.247C123.944 176.251 123.924 175.81 123.572 175.774C122.441 175.665 122.725 177.09 121.201 176.665C119.689 176.233 117.329 176.659 115.167 178.899C115.099 178.967 115.036 180.266 114.221 180.738C112.912 181.494 110.955 182.408 109.598 183.229C108.954 183.619 109.712 183.946 109.606 184.024C106.406 186.276 103.645 187.59 100.36 189.238C99.3707 189.734 98.3113 190.271 97.1903 190.864C96.3088 191.33 94.2975 193.578 92.2576 193.936C90.0291 194.323 90.2428 190.388 86.4318 193.52C84.8904 194.781 84.8312 199.646 80.68 199.543C74.9998 203.438 68.9409 205.618 63.3229 209.672C63.0697 209.854 62.7944 211.348 62.1488 211.694C61.1928 212.203 60.4106 212.018 59.722 212.365C56.822 213.808 54.4646 215.662 51.7114 217.114C50.6604 217.669 50.7473 216.976 49.5022 217.633C48.2553 218.291 47.7938 219.397 45.9453 220.011C44.5505 220.472 42.5462 219.848 40.7958 220.611C41.4551 221.955 40.2819 222.568 38.4219 224.039C38.063 224.324 38.7377 224.547 38.5809 224.705C37.9463 225.359 37.0537 225.357 36.4601 226.014C36.3174 226.172 36.5543 226.625 36.4518 226.779C35.6054 228.1 33.0232 228.199 32.5953 228.203C30.8853 228.269 30.618 229.169 29.4378 229.468C28.2808 229.754 29.6174 228.606 28.3498 229.085C25.7109 230.086 22.5917 231.854 20.082 233.157C20.0796 233.159 20.0771 233.16 20.0747 233.161C19.0627 233.694 20.0733 233.926 19.9343 234.017C17.9422 235.268 15.5317 235.707 14.9835 237.518C11.9225 235.143 13.8926 238.474 10.5697 239.357C10.3063 239.425 9.26101 238.092 10.0677 237.416C10.8452 236.754 12.4448 236.524 13.5263 235.538C13.7639 235.316 14.7453 233.054 14.9212 232.855C16.3767 231.263 17.785 233.323 17.9496 233.391C18.7109 233.711 19.3706 233.414 19.9488 232.924C20.6475 232.313 21.2014 231.378 21.4688 231.161C23.6949 229.372 25.9409 228.559 27.8222 227.11C29.0656 226.159 28.4067 224.667 29.4904 224.135C33.0783 222.37 35.3936 223.687 37.7535 220.148C38.2559 219.393 36.6956 218.225 39.9074 218.05C40.1018 218.043 42.6174 218.114 43.3021 216.811C43.3892 216.647 43.1341 216.196 43.2931 216.058C44.3739 215.138 45.359 215.063 46.5858 214.155C47.7958 213.257 49.2384 212.116 50.8143 211.437C51.7719 211.022 53.3943 211.219 53.9422 211.183C55.4989 211.091 56.2517 209.389 57.4127 209.681C58.5804 209.975 57.7088 211.907 59.9666 211.251C59.3806 210.037 58.8728 208.739 58.3276 207.494C62.7177 205.076 67.2255 203.019 71.562 200.472C72.099 200.155 71.1866 199.844 71.7528 199.488C74.1415 197.989 76.5359 197.208 78.9635 195.57C80.8448 194.298 82.606 192.392 84.5505 191.037C86.5769 191.638 89.3344 189.422 91.6086 188.246C92.4018 187.835 92.5536 188.223 93.1733 188.013C95.4934 187.219 93.8308 186.621 94.2865 186.103C95.498 184.727 96.6504 185.171 98.01 185.293C98.8526 185.36 99.7781 185.303 100.84 184.637C100.991 184.544 102.009 182.026 102.206 181.789C103.485 180.25 102.767 182.12 103.845 181.617C105.802 180.706 107.286 180.276 109.214 178.558C109.764 178.061 110.763 176.268 112.387 176.211C112.603 176.202 112.794 176.72 112.94 176.669C115.558 175.706 114.744 174.205 115.772 172.905C116.812 171.598 119.478 171.344 120.075 171.375C121.624 171.452 119.435 172.208 119.416 172.32C119.251 173.622 120.667 172.549 121.855 171.918C122.902 173.237 124.449 172.162 123.087 171.255C122.937 171.157 122.128 171.84 121.855 171.918C122.007 169.899 123.638 168.644 126.387 168.728C127.672 168.768 127.264 170.02 129.845 168.024C131.016 167.115 129.922 166.448 130.84 165.488C132.941 163.294 136.742 162.086 139.165 160.235C140.041 159.566 138.801 159.647 139.385 159.173C140.94 157.904 142.64 157.296 144.131 155.933C144.264 155.81 143.525 155.529 144.019 155.164C147.777 152.365 151.266 150.245 154.955 147.133C155.469 146.697 156.089 146.123 156.727 145.501C158.369 143.912 160.214 142.027 161.559 140.872C164.82 138.079 169.339 135.153 171.787 132.432C173.394 130.65 172.543 130.556 172.95 129.52C173.718 127.538 177.24 126.136 177.723 125.968C177.735 125.97 176.455 127.53 177.446 126.986C178.39 127.02 177.708 125.988 177.723 125.968C178.065 125.852 180.916 122.984 181.321 122.306C181.558 121.931 180.926 121.703 181.056 121.518C182.424 119.566 183.785 117.63 184.909 115.836C185.468 114.944 185.973 114.052 186.238 113.45C186.374 113.16 186.421 112.925 186.392 113.138C186.385 113.253 186.346 113.504 186.445 114.035C186.531 114.537 186.87 115.375 187.445 115.975C187.677 116.231 188.172 116.595 188.541 116.744C188.917 116.905 189.131 116.923 189.201 116.922C189.219 116.912 189.325 116.221 189.323 116.2C189.242 116.102 188.649 116.101 188.136 116.2C187.601 116.296 187.059 116.467 186.521 116.673C185.444 117.089 184.399 117.642 183.205 118.156C180.8 119.191 178.728 119.525 176.916 118.734C175.72 119.126 174.108 119.35 172.639 119.495C171.816 119.571 170.993 119.632 170.386 119.668C168.669 119.782 168.816 121.151 168.673 121.216C164.464 123.214 161.707 123.15 157.077 124.287C154.877 124.824 150.603 126.211 148.282 127.016C146.448 127.653 145.239 127.663 143.577 128.345C143.352 128.437 143.752 128.953 143.687 128.995C141.969 130.235 142.486 128.55 142.018 128.408C140.321 127.891 139.292 127.65 136.963 128.791C136.427 129.052 135.369 131.577 134.378 131.994C133.081 132.536 133.379 131.653 132.027 132.241C131.912 132.29 132.067 132.736 131.2 132.968C127.168 134.056 122.73 135.094 118.616 136.416C118.056 136.595 118.995 137.087 118.194 137.355C116.582 137.895 114.917 138.437 113.254 138.954C110.97 139.664 108.709 140.321 106.584 140.862C105.677 141.092 106.051 140.402 105.809 140.324C104.312 139.858 103.157 141.762 102.927 141.883C99.3448 143.69 96.4044 144.864 95.707 145.775C94.6438 146.946 93.7066 148.694 93.4346 150.752C93.4313 150.774 93.4281 150.796 93.425 150.817C93.4038 150.945 93.5892 151.901 93.8302 151.821C93.9305 151.78 94.0828 151.262 93.6959 150.276C93.3236 149.283 92.3098 148.408 91.6992 148.377C91.66 148.372 91.4898 148.349 91.2858 148.349C91.4063 148.841 91.8497 149.802 92.8381 149.554C92.9156 149.531 92.6238 148.641 93.6394 149.234C94.6785 149.834 96.5149 150.125 97.7799 151.214C98.1501 151.555 99.1097 153.129 100.65 152.257C100.7 152.226 101.312 151.69 101.892 151.312C102.484 150.937 103.036 150.72 103.451 151.476C103.562 151.677 103.628 152.878 104.475 152.671C104.659 152.624 104.876 152.507 105.107 152.295C105.342 152.064 104.781 151.823 105.401 151.415C106.289 150.809 107.579 150.623 107.644 149.504C107.648 149.409 107.544 149.063 107.51 148.798C107.481 148.528 107.529 148.342 108.022 148.357C108.179 148.354 108.591 148.779 108.788 148.545C108.878 148.436 108.961 148.315 109.038 148.181C109.547 147.761 109.501 144.719 109.834 141.994C109.969 140.907 110.883 141.446 111.116 140.287C111.35 139.118 111.521 136.684 111.061 135.459C110.601 134.224 109.2 135.652 109.014 133.771C108.603 129.693 108.482 125.629 108.422 121.484C108.364 117.394 108.378 113.238 108.208 109.123C108.158 107.904 107.697 108.951 107.584 107.138C107.17 100.478 106.005 89.0434 106.742 83.2037C107.335 78.5269 108.372 84.3021 108.509 80.7461C108.573 79.0305 106.77 77.2947 106.691 76.8869C105.893 72.9036 106.454 70.0698 105.977 66.4707C105.879 65.7301 105.247 66.5081 105.17 65.8737C104.902 63.7098 105.047 61.4213 104.841 59.3492C104.747 58.4232 104.238 58.6318 104.216 57.7814C104.155 55.721 104.239 53.9038 104.573 51.8831C104.603 51.6968 105.347 52.8797 105.253 51.3557C105.101 48.9243 105.335 45.8355 104.594 43.0775C104.372 42.2711 103.18 42.328 103.841 40.4795C103.978 40.0936 105.453 40.4421 104.024 38.4726C103.886 38.2962 103.15 37.0549 102.737 35.7681C102.433 34.7726 102.303 33.8009 102.674 33.0099C102.908 32.5153 103.958 31.2682 103.666 30.269C103.623 30.1378 103.042 30.7433 102.893 29.9296C102.375 27.0603 102.099 23.9727 101.528 21.0943C101.371 20.3044 100.865 21.5654 100.653 20.4041C100.075 17.2803 99.6309 13.1973 99.1775 10.999C99.0274 10.266 99.7036 10.5805 99.746 10.5139C100.069 9.93288 99.8699 9.69086 99.6261 9.68573C99.3775 9.67171 99.0937 9.88969 99.1041 9.9712C99.0746 10.1992 99.7619 10.9343 100.271 11.139C99.0196 10.5807 98.2365 10.0312 97.1495 10.0223C96.758 10.0276 96.9784 10.6784 96.8977 10.7268C96.1456 11.2292 96.7469 10.1307 96.2447 9.99794C95.1463 9.7286 93.7988 9.96249 92.4773 10.5522C92.1502 10.6985 91.818 10.88 91.492 11.0848C90.9814 11.4168 91.93 11.6996 91.4905 11.9865C89.4096 13.3756 87.1436 15.9104 85.1313 18.8049C84.576 19.608 84.0333 20.3958 83.5006 21.1756C82.9985 21.9119 82.7839 21.1529 82.5814 21.2528C81.1599 21.9541 81.3825 24.2062 81.3089 24.6311C80.9398 26.6075 80.1917 27.0825 79.617 28.7059C76.7821 36.561 74.5712 46.9243 73.8724 55.2129C73.7306 56.7507 73.6153 58.2362 73.5206 59.7161C72.9748 68.6861 72.6951 76.4693 73.1012 85.6679C73.132 86.3507 73.8525 85.637 73.8889 86.2252C74.3279 93.8081 74.4449 101.301 75.2361 108.869C75.3001 109.49 75.9343 108.54 76.061 109.533C76.3261 111.57 76.5064 114.158 76.4728 116.24C76.4579 117.256 75.7301 115.962 75.7279 116.984C75.7274 117.205 75.7287 117.427 75.7318 117.649C75.7624 119.836 75.9653 122.129 76.3078 124.32C76.4701 125.345 77.0164 123.713 77.1719 125.049C78.253 134.177 79.6193 143.126 80.0253 152.572C80.0528 153.22 78.6811 153.985 79.1537 155.308C79.5711 155.354 80.0441 155.28 80.481 155.264C81.2951 160.36 82.0074 165.495 82.5772 170.699C83.5086 179.174 84.0183 187.92 83.7939 196.746C83.7792 197.347 84.5769 196.322 84.5505 197.487C84.4357 202.195 84.2147 206.779 83.5497 211.366C83.261 213.353 82.8898 215.338 82.4068 217.329C82.2487 217.979 80.9386 217.476 80.892 219.437C80.8877 219.782 80.6717 222.724 80.8563 223.512C80.8859 223.621 81.5934 223.178 81.4777 224.121C80.7942 229.584 79.7317 235.233 78.4352 240.534C78.2245 241.39 77.7121 240.353 77.556 240.962C76.4553 245.274 76.1238 250.105 74.7722 254.154C73.8648 256.863 72.8937 255.625 71.4908 256.898C71.2929 257.078 70.9579 258.794 70.2801 258.764C68.5748 258.693 66.9025 257.531 65.0672 257.554C64.6721 257.557 64.669 259.935 63.9912 258.405C63.9466 258.299 63.9407 256.574 63.7014 256.106C63.5363 255.781 62.7705 256.176 62.5983 255.542C62.4263 254.908 63.1058 254.368 62.9537 253.342C62.7973 252.316 61.9556 252.604 62.21 250.658ZM162.739 120.2C161.064 119.973 161.469 122.342 162.942 121.354C163.013 121.303 162.825 120.21 162.739 120.2ZM68.0891 204.598C70.3772 204.511 70.8125 202.475 69.1666 202.475C67.5209 202.476 67.3935 204.625 68.0891 204.598ZM50.1246 215.593C52.6059 215.163 51.274 212.02 49.3914 213.856C49.2809 213.962 49.9796 215.619 50.1246 215.593ZM72.3925 249.988C72.3574 250.004 72.1069 251.236 72.1325 251.271C72.7633 252.064 73.2643 249.599 72.3925 249.988ZM32.2339 226.412C33.0926 226.468 34.7335 224.968 33.6449 224.912C32.7593 224.873 31.1592 226.347 32.2339 226.412ZM88.3725 146.39C88.3264 146.396 87.9789 147.216 88.179 147.268C88.8026 147.427 89.0714 146.256 88.3725 146.39ZM1.91682 242.648C1.91784 242.632 1.91804 242.614 1.91704 242.595C1.91425 242.553 1.90576 242.426 1.81108 242.278C1.71527 242.127 1.56747 242.043 1.49498 242.018C1.34418 241.97 1.35656 241.999 1.37629 241.998C1.43246 242.005 1.55496 241.996 1.68689 241.978C1.94919 241.941 2.21689 241.891 2.49669 241.839C3.03769 241.74 3.58505 241.643 4.05334 241.594C5.02127 241.482 5.81086 241.503 6.28151 241.658C7.23236 241.945 6.95225 242.826 4.14872 243.827C3.14889 244.18 5.91349 242.116 4.5803 242.406C3.90292 242.555 3.35518 242.828 2.80832 243.137C2.54168 243.287 2.26974 243.452 1.9547 243.599C1.8051 243.669 1.62253 243.749 1.34873 243.787C1.19598 243.795 1.03718 243.839 0.670638 243.678C0.499221 243.599 0.280303 243.415 0.161688 243.192C0.0408899 242.973 0.0135582 242.779 0.000664295 242.653C-0.0171335 241.799 0.311957 241.509 0.49114 241.226C0.696961 240.958 0.901453 240.763 1.11777 240.592C1.54967 240.255 2.02534 240.032 2.59175 239.903C2.82916 239.851 2.53711 240.584 2.1941 241.366C2.02746 241.754 1.85628 242.165 1.808 242.45C1.783 242.592 1.79569 242.696 1.83493 242.721C1.87389 242.749 1.92257 242.68 1.92145 242.639C1.91994 242.642 1.91839 242.645 1.91682 242.648ZM161.127 117.657C161.091 117.634 159.881 117.929 159.858 117.967C159.406 118.876 161.842 118.283 161.127 117.657ZM117.485 137.953C117.555 137.873 117.531 134.981 117.462 134.88C116.175 133.414 116.221 139.262 117.485 137.953ZM159.118 152.23C158.559 153.71 157.328 154.834 155.869 154.772C156.971 153.954 158.033 153.09 159.118 152.23Z" fill="#FC4C02"/>
</svg>
