<svg width="353" height="357" viewBox="0 0 353 357" fill="none" xmlns="http://www.w3.org/2000/svg">
<path d="M69.2014 10.8001C68.0646 12.4888 66.7106 14.3008 65.2641 16.1333C63.5679 18.2804 61.7782 20.4086 60.2166 22.1961C59.319 23.2245 59.4001 22.4149 58.7605 23.1196C57.5199 24.485 56.652 25.9763 55.3977 27.3094C54.9822 27.7475 54.8973 26.746 54.4732 27.2156C52.1446 29.8034 50.314 32.513 48.095 35.2268C42.34 42.2698 36.7466 49.3456 31.3496 56.5241C26.4893 63.0047 21.7516 69.5619 17.1116 76.3321C15.1566 79.1433 13.3448 81.756 10.6662 85.4129C10.6406 85.3897 10.7972 85.3479 10.9759 84.5166C11.0507 84.1394 11.036 83.4512 10.8213 82.9059C10.6084 82.3375 10.3092 81.9992 10.116 81.8139C9.72147 81.465 9.69341 81.531 9.76422 81.555C9.8401 81.595 10.0257 81.6672 10.2387 81.733C11.1351 82.0097 12.4171 82.2321 13.615 82.3926C14.2838 82.4807 13.9931 81.8293 14.1282 81.8042C16.288 81.4323 15.4116 82.4833 16.7329 82.8824C21.3289 84.25 26.5635 85.5774 31.2531 87.4418C31.9115 87.6987 32.5774 87.9497 33.2382 88.1913C35.2884 88.9349 33.7216 87.0194 35.4999 88.4643C35.6262 88.5643 34.8679 88.9294 35.4049 89.2225C36.6077 89.8804 39.0473 90.7526 40.0119 91.1966C41.8664 92.0545 42.1824 92.1749 43.9741 92.9055C46.4171 93.9072 49.2239 95.3715 51.9109 96.3038C52.4861 96.5015 51.9813 95.6053 52.9197 95.8667C53.8596 96.1285 56.2123 97.141 56.9595 97.6092C57.7002 98.0744 57.1723 98.4041 57.2698 98.5687C58.0654 99.9456 61.3211 99.8228 61.6946 99.9426C64.6086 100.88 67.2405 101.993 69.8035 103.221C73.1717 105.032 76.0201 105.775 80.1677 109.681C81.4086 110.961 81.8567 113.406 81.8686 114.316C82.2427 118.63 82.115 123.135 81.4274 127.088C80.3997 132.947 78.6024 137.528 77.0115 142.772C76.8408 143.326 77.7666 142.907 77.5586 143.586C76.2877 147.72 74.9642 151.739 73.6784 155.743C72.8569 158.28 72.3294 161.25 71.8468 164.246C71.7335 164.962 71.1523 163.975 71.0005 164.69C70.0742 169.061 68.6001 176.248 71.3847 179.054C71.1719 182.148 70.8965 185.959 70.0829 188.745C69.6957 190.07 69.2831 189.418 69.1388 189.887C69.0872 190.049 69.0692 190.347 69.0987 190.929C69.1241 191.42 69.8094 190.844 69.8003 191.578C69.7619 194.674 69.3105 198.03 69.4468 201.104C69.4762 201.729 70.0522 201.594 70.1432 201.775C70.8761 203.299 69.3828 205.677 69.2585 206.212C68.3223 210.261 68.5037 213.271 68.4446 217.047C68.4336 217.924 69.2012 216.9 69.2193 217.732C69.2515 219.261 69.2819 220.804 69.342 222.269C69.3393 222.464 69.4064 222.638 69.2944 222.294C69.2545 222.19 69.1973 222.05 69.0681 221.844C68.9107 221.596 68.6604 221.278 68.2339 220.982C67.2383 220.261 65.956 220.412 65.6221 220.552C65.214 220.69 65.1506 220.772 65.1211 220.79C65.1033 220.808 65.1461 220.785 65.2139 220.732C65.3383 220.637 65.5377 220.456 65.7396 220.256C66.5662 219.434 67.4922 218.353 68.4025 217.323C69.0316 216.609 69.0313 217.693 69.3565 217.373C70.7977 215.932 70.0787 214.831 71.4516 213.405C71.7381 213.106 72.0488 213.62 72.1423 213.596C73.6168 213.202 73.1393 211.57 73.297 211.308C75.2987 207.946 77.9394 206.836 80.2236 203.833C80.5 203.471 79.2967 203.794 80.1118 202.803C80.8571 201.903 81.633 201.009 82.4409 200.131C87.3957 194.756 92.7927 189.528 98.0899 184.777C99.0449 183.919 98.7851 184.942 98.8878 184.93C100.529 184.7 100.148 183.142 100.401 182.808C102.428 180.198 105.389 178.794 105.783 176.064C111.21 170.914 116.317 165.473 121.441 160.12C125.842 155.517 130.232 150.922 134.841 146.525C134.966 146.403 135.276 147.074 135.523 146.83C138.508 143.861 137.199 143.792 137.943 140.857C138.13 140.12 140.648 139.418 140.848 139.342C141.602 139.053 141.944 140.233 142.151 140.1C143.824 138.978 141.029 137.212 142.555 135.189C142.607 135.129 142.893 135.759 143.068 135.625C143.613 135.215 143.821 134.53 144.368 134.138C145.638 133.219 147.257 133.725 147.81 131.311C147.875 131.002 146.1 130.297 147.446 128.482C147.994 127.763 150.148 124.407 150.832 123.515C151.525 122.632 151.632 123.6 151.695 123.548C153.965 121.382 153.642 122.531 155.443 121.826C155.994 121.604 156.128 121.352 156.051 121.089C155.879 120.491 154.622 119.828 154.662 119.338C154.717 118.626 156.483 117.038 156.979 116.702C157.473 116.36 157.419 117.149 157.795 116.807C160.291 114.562 157.428 114.841 157.666 113.689C158.258 110.959 161.135 110.551 162.697 108.839C163.123 108.374 162.435 108.493 162.742 108.021C163.974 106.156 165.312 105.523 166.461 103.2C166.647 102.821 167.008 100.443 168.57 100.036C168.792 99.9803 168.839 100.72 169.543 100.08C170.594 99.1243 172.351 97.2945 173.227 96.0506C173.874 95.132 172.384 95.5198 173.519 94.646C174.023 94.2597 173.625 95.4546 174.541 94.7014C175.453 93.952 177.432 91.7239 178.179 90.872C178.926 90.0192 178.029 90.0459 178.058 89.9483C178.208 89.4787 179.046 88.1858 179.423 87.6432C179.512 87.5165 179.575 87.4303 179.6 87.4034C186.014 80.1488 192.719 74.2295 198.295 66.6638C198.734 66.0644 197.891 66.0289 197.953 65.9331C199.263 63.7981 199.489 66.4603 201.048 65.4388C199.791 64.7958 200.631 64.1321 201.558 62.6214C201.997 61.8982 201.294 61.9484 201.294 61.8555C201.365 60.3775 202.715 60.2746 203.026 60.2038C204.146 59.9792 203.877 58.688 204.616 58.5144C205.367 58.3112 205.319 59.8518 206.223 58.3921C206.047 57.7308 204.298 58.103 204.773 56.9238C205.263 55.7103 205.9 54.3178 206.789 52.6911C209.104 48.5416 212.4 43.9295 213.891 41.4789C215.938 38.1198 216.492 36.9707 217.788 35.0736C220.128 31.6493 218.541 32.4822 219.438 30.0359C220.339 27.5825 221.768 29.8467 222.394 29.7789C223.016 29.7168 222.759 29.1127 223.227 28.8592C223.695 28.6071 223.508 29.6263 224.127 28.7586C224.747 27.8909 225.406 24.9246 225.132 24.3336C224.55 23.0829 222.873 23.628 224.631 21.4002C224.732 21.2726 225.012 22.0362 225.374 21.5319C225.964 20.701 226.543 19.8527 227.111 18.9975C229.185 15.7796 231.238 12.1613 231.44 8.55927C231.406 7.99915 232.091 8.32311 232.138 8.03158C232.14 8.01144 232.138 7.98857 232.134 7.96281C231.994 6.75624 230.867 6.25527 230.371 6.31627C229.818 6.33082 229.554 6.53859 229.381 6.76195C229.022 7.23662 229.005 7.84756 228.32 8.79463C228.194 7.02085 226.528 6.37918 223.725 7.95657C222.076 8.89746 222.752 9.3873 221.993 10.4683C221.774 10.7886 220.379 11.0498 220.365 11.479C220.313 12.8837 222.062 13.3047 219.093 14.5855C218.962 14.6401 218.996 13.8658 218.568 14.0936C215.781 15.5678 216.133 16.8048 213.251 18.7215C212.288 19.3548 210.904 20.0436 209.385 20.6878C207.444 21.4942 205.389 22.4036 203.95 23.2758C202.935 21.6049 200.796 23.6083 200.743 25.369C199.198 26.4837 197.712 27.8974 196.192 29.041C195.666 29.4357 195.606 28.7305 195.504 28.7413C193.936 28.8849 194.148 30.4253 193.833 30.7521C193.034 31.5747 192.126 32.2839 191.138 32.8293C188.34 34.3925 185.583 35.5641 183.092 37.8907C182.965 38.007 183.465 39.2764 181.94 39.0389C181.845 39.0168 182.771 37.7514 180.981 38.7626C179.191 39.7738 175.482 41.1602 173.367 43.1786C172.85 43.6684 171.925 45.5135 170.287 45.5149C170.067 45.5137 170.04 45.077 169.697 45.035C168.587 44.9115 168.904 46.3155 167.418 45.8715C165.941 45.4232 163.656 45.8135 161.63 48.0225C161.565 48.0911 161.558 49.3688 160.781 49.8367C159.538 50.584 157.682 51.4921 156.409 52.3138C155.8 52.7067 156.552 53.0222 156.453 53.1002C153.043 55.6737 150.141 57.062 146.485 59.1876C145.972 59.4868 145.452 59.8162 144.92 60.1812C144.111 60.708 142.636 63.1822 140.734 63.8261C139.165 64.3195 138.513 62.2732 137.088 62.5456C137.001 62.3242 137.311 62.2579 137.027 62.4342C136.916 62.493 136.655 62.7642 136.225 62.9768C134.5 63.3253 131.501 63.1362 131.117 60.1686C126.567 55.4835 123.777 49.8141 118.686 45.4843C118.454 45.2816 116.973 45.401 116.504 44.8855C115.817 44.1275 115.805 43.3354 115.318 42.7894C113.296 40.5116 110.952 38.9164 108.805 36.93C108.772 36.8989 108.738 36.8678 108.705 36.8368C107.875 36.0805 108.543 35.9015 107.509 35.0185C106.452 34.1461 105.315 34.2112 103.982 32.9279C102.982 31.9727 102.483 29.9385 100.811 28.946C100.098 30.266 98.9688 29.6745 96.7387 29.2116C96.3111 29.1238 96.5464 29.7776 96.3348 29.7614C95.4723 29.7075 94.9152 29.0321 94.0751 29.0202C93.8711 29.0164 93.6783 29.4894 93.5004 29.5128C91.9751 29.7397 90.3216 27.7967 90.0722 27.45C89.7879 27.0901 89.522 26.8523 89.2593 26.6771C89.256 26.6756 89.2464 26.6706 89.2432 26.6689C88.5947 26.1976 87.9499 26.187 87.3408 25.6331C86.4907 24.8661 88.1362 25.281 87.0636 24.5347C84.8381 22.9902 81.6841 21.5871 79.2347 20.4135C78.2557 19.9477 78.6362 20.879 78.4893 20.8266C76.385 20.0323 74.6439 18.4165 72.9394 19.1094C73.0471 15.268 71.5666 18.8493 68.9891 16.7907C68.7904 16.6273 69.2519 15.0029 70.2156 15.211C71.18 15.4189 72.2676 16.523 73.6414 16.7551C73.9634 16.8107 76.2735 16.1808 76.5346 16.1986C78.6046 16.3567 77.8054 18.7208 77.8407 18.8881C78.2759 20.7151 81.0061 20.1447 81.589 20.293C84.2524 20.9646 86.1717 22.2774 88.3732 22.9689C89.6735 23.3827 90.5257 22.3046 91.4409 22.5427L91.3037 22.4729C91.3885 22.4886 91.4734 22.518 91.5593 22.5642C94.6053 24.1562 95.1159 26.6208 99.3188 26.2336C100.237 26.1809 100.195 24.1665 102.398 26.7445C102.553 26.9074 103.961 29.0576 105.481 29.0564C105.676 29.0557 105.942 28.6114 106.156 28.6925C107.574 29.2482 108.167 30.1547 109.567 30.9695C110.47 31.5001 111.488 32.1196 112.416 32.8719C112.899 33.2606 113.356 33.6761 113.754 34.1243C114.454 34.9028 114.736 36.4913 114.934 37.0062C115.453 38.4365 117.281 38.6717 117.309 39.8685C117.321 41.0569 115.272 40.7684 116.436 42.7147C117.456 41.8345 118.579 41.0091 119.645 40.1654C123.084 43.7753 125.956 47.7957 129.046 51.6004C129.428 52.067 129.606 51.1279 130.037 51.6269C131.824 53.6915 132.859 55.916 134.673 57.7117C135.819 58.8438 137.372 59.5984 138.286 59.823C138.136 59.653 137.997 59.535 137.805 59.4436C137.337 60.0402 136.836 60.1154 135.898 60.8317C136.833 60.3611 137.938 59.2428 139.05 58.3998C139.752 57.869 139.976 58.2177 140.556 57.9104C142.785 56.7387 141.052 56.4028 141.473 55.7982C142.049 55.0063 142.687 54.6684 143.34 54.5401C144.661 54.3663 146.147 55.139 147.981 53.8644C148.12 53.7679 148.961 51.2538 149.15 51.0102C150.319 49.4554 149.715 51.3235 150.737 50.805C152.607 49.8589 154.032 49.411 155.832 47.6995C156.357 47.1976 157.253 45.4215 158.843 45.3588C159.051 45.3501 159.255 45.8629 159.395 45.8123C161.915 44.8598 161.073 43.379 162.053 42.0909C163.035 40.8021 165.643 40.5782 166.22 40.6223C167.74 40.7189 165.608 41.4382 165.596 41.547C165.463 42.8324 166.811 41.7942 167.968 41.1879C168.998 42.5159 170.495 41.4835 169.158 40.5569C169.009 40.4578 168.228 41.1176 167.968 41.1879C168.078 39.1973 169.683 37.971 172.361 38.1404C173.613 38.2229 173.214 39.4393 175.735 37.5628C176.884 36.711 175.811 36.0131 176.735 35.0935C178.814 33.0132 182.589 32.0208 185.061 30.3859C185.957 29.7934 184.745 29.7699 185.334 29.354C186.296 28.6795 187.299 28.2441 188.305 27.7588C188.755 27.5615 189.206 27.284 189.636 26.8261C189.73 26.724 189.066 26.4076 189.423 26.1153C192.205 23.6493 196.078 20.4124 200.368 17.6939C201.784 16.758 203.913 15.2862 205.892 14.142C206.695 13.6678 207.468 13.2045 208.112 12.8585C211.576 11.0013 216.321 8.99348 219.319 6.87002C221.289 5.49027 220.51 5.20261 221.219 4.26837C222.498 2.44332 227.224 2.02792 228.357 2.22807C228.345 2.22874 227.524 2.44782 227.053 2.69212C226.579 2.93209 226.322 3.15513 227.08 3.07703C228.1 3.48967 228.29 2.2478 228.357 2.22807C228.578 2.27346 229.289 2.01705 231.138 2.29278C232.042 2.44176 233.445 2.96127 234.46 4.02044C235.498 5.09123 235.889 6.20786 236.099 7.06733C236.479 8.92678 236.282 9.79455 236.314 10.2505C236.315 10.8863 236.973 10.6092 236.955 10.9441C236.505 15.7804 234.867 19.1169 233.072 22.4134C232.1 24.1346 231.073 25.8314 229.989 27.505C229.93 27.5812 229.396 27.1091 229.266 27.2926C227.44 29.8502 227.184 32.0117 226.34 34.5008C225.497 36.9881 224.332 38.6749 222.532 39.4009C221.695 41.1624 219.846 43.3201 218.77 44.5505C217.692 45.7856 218.763 46.6524 218.716 46.7898C217.339 50.8688 215.472 52.7313 213.277 56.3164C213.203 56.4376 213.126 56.5646 213.048 56.6982C212.106 58.4483 209.694 62.891 208.37 64.9161C207.324 66.5978 206.367 67.3407 205.447 68.8782C205.324 69.0829 205.95 69.262 205.925 69.3337C205.263 71.3725 204.698 69.6808 204.237 69.8436C202.552 70.4309 201.626 70.7803 200.392 73.0059C200.118 73.5067 200.697 76.1532 200.105 77.0538C199.351 78.1984 199.112 77.296 198.315 78.525C198.243 78.6327 198.625 78.9125 198.047 79.5601C195.336 82.6051 192.199 85.7705 189.447 88.9317C189.073 89.3579 190.117 89.3111 189.583 89.9384C188.495 91.2149 187.401 92.4586 186.202 93.7588C184.617 95.4752 182.988 97.1335 181.396 98.6025C180.714 99.228 180.711 98.4489 180.461 98.4936C178.941 98.778 178.807 100.983 178.639 101.211C174.642 106.723 170.355 109.815 166.854 115.562C166.655 115.882 166.251 118.971 164.536 119.288C164.422 119.307 162.661 119.623 162.817 121.015C162.829 121.1 163.79 120.819 163.027 121.896C162.59 122.516 162.166 123.449 161.606 124.361C161.147 125.113 160.586 125.861 159.875 126.433C159.343 126.867 157.48 127.461 157.318 129.611C157.322 129.747 157.639 133.501 155.715 133.488C155.397 133.486 154.115 132.39 153.543 134.742C153.433 135.195 154.194 134.762 153.73 135.837C153.02 137.486 151.3 139.097 150.61 141.266C150.496 141.642 150.438 143.619 148.962 144.102C148.732 144.176 148.52 143.531 148.057 144.024C145.844 146.376 144.042 149.186 141.652 151.413C140.812 152.194 140.498 151.157 139.539 151.906C138.587 152.648 136.853 154.289 136.341 155.496C135.838 156.696 137.827 156.639 136.67 158.119C134.206 161.261 131.456 164.128 128.618 166.898C125.728 169.717 122.761 172.448 119.917 175.304C119.084 176.141 120.139 175.796 118.937 177.054C114.513 181.689 107.155 189.925 102.513 193.117C98.792 195.676 102.192 191.212 99.5746 193.389C98.3169 194.437 98.2955 196.885 98.0584 197.206C95.7764 200.339 93.3807 201.747 91.1754 204.398C90.7243 204.942 91.6989 204.909 91.3036 205.373C90.825 205.94 90.2876 206.491 89.7617 207.006C88.881 207.864 87.9668 208.724 87.2226 209.648C86.7031 210.298 87.2004 210.52 86.6788 211.081C85.4349 212.438 84.2416 213.595 82.7295 214.764C82.5914 214.872 82.766 213.573 81.8947 214.674C80.4781 216.468 78.3986 218.5 77.1846 221.004C76.8162 221.757 77.7745 222.481 76.0259 223.441C75.6471 223.649 74.8496 222.36 74.47 224.859C74.4244 225.072 74.2123 226.143 73.3763 227.506C72.9063 228.188 72.511 228.946 70.7172 230.094C70.3105 230.339 69.5305 230.753 68.5525 231.005C67.471 231.286 65.766 231.499 63.8103 230.762C61.8473 229.995 60.7971 228.759 60.1857 227.804C59.61 226.855 59.4891 226.333 59.3528 225.77C59.226 225.176 59.2495 224.717 59.302 224.137C59.3681 223.61 59.5022 223.206 59.6323 222.735C59.9094 222.227 60.1308 221.66 60.0265 221.142C59.994 221.004 59.3654 221.58 59.2835 220.727C59.0161 217.703 59.1459 214.674 59.0382 211.692C59.0093 210.899 58.3066 212.057 58.2858 210.873C58.2288 207.607 58.6029 203.584 59.0089 200.441C59.1598 199.283 59.6579 200.122 59.7229 200.041C60.7803 198.747 59.5256 197.858 59.4805 197.399C59.2198 194.559 60.0043 192.465 60.0734 189.857C60.0952 189.135 59.4253 189.587 59.3827 189.439C59.33 189.242 59.3012 189.091 59.2913 188.975C59.2153 188.271 60.0215 189.006 60.1929 188.273C60.7445 185.913 60.8263 183.125 60.8401 180.566C60.8441 179.625 60.0801 180.655 60.0915 179.811C60.1459 174.805 60.3107 169.43 61.1249 164.191C61.2821 163.208 61.7887 163.877 61.933 163.681C62.9352 162.349 61.9676 160.112 61.9274 159.578C61.7201 157.231 62.3612 156.389 62.7708 154.228C62.8705 153.724 62.9923 153.184 63.1282 152.654C65.2601 143.945 69.1595 134.395 70.6962 127.455C71.737 122.918 72.1735 118.969 72.0491 114.986C72.0447 114.494 71.9941 114.52 72.1847 115.049C72.3779 115.579 72.7833 116.034 72.8354 116.05C72.9648 116.101 72.2575 115.544 71.503 115.117C69.925 114.198 67.8861 113.242 65.7723 112.32C65.2729 112.102 64.739 111.875 64.2108 111.655C63.6086 111.403 63.91 112.344 63.399 112.141C56.7095 109.469 50.0842 106.51 43.1669 103.95C42.5995 103.739 43.1452 104.719 42.2255 104.403C40.3355 103.757 38.0003 102.775 36.2091 101.806C35.3377 101.336 36.7923 101.272 35.9046 100.808C33.8439 99.7271 31.5566 98.7401 29.3047 97.9262C28.3336 97.5756 29.4912 98.8396 28.2537 98.3324C27.8109 98.1515 27.3294 97.9537 26.8867 97.7709C23.6842 96.4545 20.1545 95.5632 16.3308 94.7351C14.4068 94.3132 12.4397 93.9271 10.168 93.3712C8.98998 93.0658 7.88581 92.8206 6.03271 92.0788C5.09265 91.5694 3.92408 91.5334 1.63485 88.8639C0.503942 87.5605 -0.313255 84.6269 0.116294 82.7749C0.46427 80.8738 1.15708 79.9167 1.59608 79.2752C1.75312 79.0576 1.93055 78.8764 2.12186 78.7199C2.32419 79.0202 3.60405 79.0304 3.96544 78.0154C3.67579 77.7138 3.27083 77.4586 2.92839 77.1872C8.7178 67.6906 15.3322 58.689 21.9238 49.7634C23.0895 48.1847 24.2564 46.6119 25.4223 45.0348C25.7526 44.5881 24.5585 44.9056 25.1955 44.0377C28.8617 39.0458 32.2765 34.104 36.6805 29.5205C37.1171 29.0647 38.0151 30.1439 38.9587 28.5443C39.1224 28.2633 40.6475 25.9337 40.8426 25.1826C40.8653 25.0781 40.0522 25.0971 40.5739 24.3741C43.6293 20.16 47.0247 15.9193 50.4659 12.019C51.0158 11.3987 51.0254 12.5116 51.4234 12.0711C52.5373 10.8344 53.5815 9.46399 54.6049 8.09502C56.1953 5.96713 57.733 3.84858 59.4792 2.1168C61.3846 0.229624 61.7476 1.71739 63.5158 1.24506C63.773 1.17356 64.7105 -0.121485 65.3025 0.185786C66.847 0.917664 67.9081 2.66124 69.602 3.37175C69.7833 3.44611 70.1375 2.92778 70.5233 2.36915C70.7211 2.07909 70.8601 1.89636 70.9538 1.93205C71.0479 1.95761 71.168 2.08512 71.0714 2.74137C70.9823 3.07589 70.1839 4.80368 70.2107 5.30234C70.2149 5.67641 71.0833 5.63542 70.9637 6.28904C70.8391 6.94734 69.9927 7.13914 69.6926 8.10788C69.3894 9.08512 70.2731 9.20117 69.2014 10.8001ZM213.939 50.1065C212.639 51.0691 214.609 52.4454 214.904 50.7699C214.916 50.6867 214.005 50.0548 213.939 50.1065ZM124.482 48.9503C124.935 51.1348 126.98 51.2072 126.73 49.6082C126.469 48.0037 124.337 48.2825 124.482 48.9503ZM109.614 34.8425C109.766 35.1085 109.937 35.3097 110.117 35.4561C111.235 36.3673 112.748 34.9358 111.511 33.8895C111.371 33.7719 111.2 33.6598 110.996 33.5585C110.853 33.4857 109.541 34.7163 109.614 34.8425ZM59.8541 6.76072C59.8973 6.75648 60.6354 5.82073 60.6291 5.776C60.4025 4.80982 58.9174 6.69454 59.8541 6.76072ZM91.2593 26.068C91.7112 26.7784 93.7931 27.0396 93.1965 26.1851C92.7195 25.5097 90.7081 25.2016 91.2593 26.068ZM163.663 109.499C163.62 109.496 163.074 110.161 163.245 110.269C163.798 110.613 164.374 109.556 163.663 109.499ZM61.426 10.3976C62.693 11.3757 63.5447 12.5435 64.0355 13.4555L64.0206 13.4447C65.222 15.0329 65.197 16.227 63.0032 15.0549C62.9638 15.031 62.8543 14.9492 62.8183 14.9204C62.4975 14.6807 62.1627 14.3836 61.8069 14.0409C61.0944 13.356 64.0162 14.7564 63.2129 13.7377C61.7509 11.8473 59.5318 12.395 58.1507 10.3274C57.892 9.93459 61.1905 10.1811 61.4357 10.3999C61.4325 10.3992 61.4292 10.3984 61.426 10.3976ZM211.019 49.4266C210.972 49.4446 210.362 50.4573 210.372 50.5041C210.713 51.4417 211.955 49.3785 211.019 49.4266ZM133.269 149.364C133.178 149.37 131.309 151.411 131.301 151.51C131.283 153.417 135.061 149.3 133.269 149.364ZM203.884 23.2575C203.247 24.5907 202.127 25.5109 200.748 25.3663C201.77 24.6425 202.805 23.9139 203.884 23.2575Z" fill="#FC4C02"/>
<path d="M218.684 85.048C219.544 84.8773 220.555 85.1595 221.3 85.5102C221.53 85.6191 221.385 86.0352 221.547 86.1297C221.873 86.3145 222.174 86.1247 222.486 86.3408C222.584 86.4142 222.415 87.0767 222.519 87.1384C223.114 87.4728 223.704 87.3389 224.293 87.5198C227.288 88.4185 230.186 88.8666 233.227 89.3797C234.214 89.5474 235.388 90.2386 236.456 90.0446C236.576 90.021 236.546 89.4279 236.572 89.381C236.977 88.6631 236.778 89.8425 237 90.0163C237.91 90.7046 238.911 90.8279 239.854 90.6648C240.25 90.5933 239.945 89.3985 240.278 90.0803C240.301 90.1264 240.163 90.7445 240.261 90.8182C240.483 90.984 240.939 90.9033 241.121 90.9657C241.472 91.0889 241.532 91.0868 241.876 91.1177C241.929 91.1231 241.983 91.1323 242.038 91.1443C242.445 91.2369 242.903 91.5 243.353 91.405C243.461 91.3803 243.365 90.7302 243.542 90.633C243.718 90.5359 244.171 90.6219 244.31 90.7832C244.446 90.9444 244.349 91.4433 244.367 91.5604C244.512 92.5488 245.115 91.2357 245.183 91.207C246.444 90.7236 247.4 91.5622 248.55 91.6402C249.421 91.6977 250.331 91.5066 251.164 91.5999C252.139 91.7124 252.922 92.1161 253.891 92.1243C253.992 92.1259 253.927 91.3647 254.051 91.3651C255.33 91.3671 256.65 91.5428 257.883 92.1408C258.008 92.2016 257.795 92.8507 257.918 92.9509C258.67 93.5501 259.841 94.9446 260.508 92.0999C261.034 92.2503 261.679 92.4129 262.122 93.0275C262.407 93.423 262.056 94.1217 262.457 93.8414C262.546 93.779 262.481 93.1406 262.612 93.0947C263.165 92.9022 263.74 93.1493 264.301 92.862C264.415 92.8021 264.426 92.235 264.464 92.1354C264.783 91.3301 265.121 92.7233 265.209 92.8291C265.87 93.6183 266.41 93.3651 267.078 93.4313C267.233 93.4469 267.104 92.6749 267.255 92.6627C268.041 92.6099 268.834 92.7326 269.566 93.1239C269.728 93.2128 269.527 93.848 269.602 93.9236C269.935 94.2488 270.102 93.0336 270.425 93.3221C270.493 93.3813 270.412 93.9318 270.421 93.9935C270.557 94.9623 270.834 93.6235 270.889 93.5975C271.59 93.2384 271.905 94.6798 272.565 94.5268C272.644 94.5071 272.521 93.7943 272.739 93.7817C274.201 93.6936 275.704 93.9966 277.097 94.6616C277.313 94.7641 277.116 95.2783 277.125 95.3442C277.28 96.374 277.525 95.0274 277.601 94.9816C278.197 94.6554 278.647 95.8328 279.154 94.2448C281.533 94.9839 284.006 94.2545 286.297 95.8821C286.326 95.9012 286.221 96.5655 286.28 96.6006C286.984 97.0308 286.921 95.9814 287.501 94.7473C287.647 94.4374 287.904 95.9992 287.928 96.1141C288.017 96.5374 287.818 97.5225 287.852 97.6058C288.136 98.2608 288.329 94.9682 288.777 95.0008C288.79 95.0073 288.686 95.6082 288.719 95.6712C288.822 95.8689 288.955 95.6371 289.054 95.8541C289.279 96.3559 289.251 97.9608 289.72 97.0609C289.78 96.944 289.843 95.0728 290.237 95.1912C290.394 95.2399 291.102 95.2613 291.29 95.3972C291.478 95.5329 291.297 96.1237 291.309 96.1508C291.781 96.9859 291.554 97.3001 291.731 98.497C291.908 99.6895 292.047 96.8878 292.179 96.584C292.311 96.2811 292.65 96.9664 292.728 97.2017C292.807 97.437 292.658 97.8099 292.734 97.9454C293.235 98.8317 293.087 96.5765 293.308 96.1469C293.827 95.1297 294.011 97.2293 294.397 97.4631C294.501 97.5263 294.449 97.0473 294.549 97.0105C294.945 96.8711 295.125 97.5357 295.606 96.9759C295.684 96.8846 296.131 95.665 296.29 96.5975C296.312 96.7319 296.181 97.2415 296.336 97.3698C296.567 97.5624 296.999 97.7092 297.274 97.5567C297.478 97.4439 297.321 96.5754 297.545 96.8587C297.644 96.9851 297.405 97.4677 297.594 97.6637C297.783 97.8596 298.3 97.8776 298.498 97.8756C298.695 97.8732 298.638 97.2191 298.657 97.1768C298.772 96.935 299.171 96.6527 299.206 96.6562C300.902 96.7085 302.359 97.9176 304.027 97.6868C304.158 97.6696 304.126 96.982 304.146 96.9723C304.607 96.7217 304.119 98.5048 304.377 99.1349C304.442 97.7496 304.603 98.0141 304.922 97.8869C305.076 97.8245 305.038 97.2831 305.056 97.2294C305.342 96.4344 305.415 97.4964 305.437 97.7143C305.522 98.5158 305.757 97.5953 305.815 98.1312C305.873 98.6632 305.581 99.4216 305.88 99.4354C306.003 98.9475 305.885 97.6373 306.128 97.4458C307.044 96.7213 308.544 97.8622 309.226 98.0234C309.901 98.1838 310.127 98.1103 310.507 98.3211C311.191 98.702 311.015 97.7224 311.498 97.32C311.985 96.918 311.573 99.2592 311.596 99.7717C311.618 100.284 311.73 99.7676 311.786 100.053C311.841 100.338 311.643 100.669 311.819 100.788C311.996 100.908 312.572 100.047 312.68 99.5225C312.91 98.4104 312.781 97.2128 313.232 97.6669C313.258 97.6938 313.116 98.3066 313.218 98.3781C314.019 98.9248 314.927 99.0299 315.732 99.5224C315.843 99.5912 315.682 100.272 315.746 100.32C316.412 100.82 316.253 99.6357 316.757 98.3765C316.523 100.089 316.654 101.159 317.194 101.215C317.518 101.249 317.526 100.493 317.78 99.9818C317.856 99.8276 318.041 100.363 318.112 100.013C318.346 98.8698 318.242 97.5591 318.749 98.1206C318.771 98.1471 318.641 98.7726 318.721 98.818C319.233 99.114 319.412 97.9128 320.017 97.8174C320.493 97.7426 321.246 98.5496 321.75 98.7142C321.571 100.646 322.114 100.248 322.433 98.9326C322.772 99.0173 323.147 98.9744 323.457 99.1875C323.564 99.2602 323.441 99.8133 323.45 99.875C323.583 100.843 323.843 99.5592 323.92 99.5148C324.759 99.0913 325.34 100.134 326.174 99.2415C326.203 99.2093 326.369 97.8709 326.479 98.8692C326.486 98.9379 326.184 99.5263 326.53 99.6054C326.891 99.686 327.51 100.468 328.059 99.8922C328.192 99.7535 328.594 98.692 328.753 99.5655C328.774 99.6841 328.703 100.066 328.729 100.284C328.815 100.981 329.031 99.6327 329.104 100.802C329.177 101.971 329.471 102.87 330.042 102.122C330.06 102.101 330.28 101.037 330.433 101.069C330.555 101.095 330.697 101.172 330.841 101.245C330.993 101.319 331.147 101.389 331.281 101.398C331.409 101.407 331.392 100.731 331.415 100.721C332.314 100.432 332.817 101.082 333.721 101.435C333.883 101.501 334.45 100.64 334.685 101.391C334.957 102.215 334.256 105.451 335.151 104.757C335.515 104.48 336.34 100.368 336.714 102.586C337.918 102.178 338.824 103.396 340.061 102.775C340.116 102.748 340.42 101.61 340.537 101.641C340.711 101.688 340.74 102.241 340.859 102.292C341.386 102.523 341.923 102.122 342.431 102.263C342.629 102.316 342.484 102.865 342.715 102.928C342.945 102.991 343.191 102.276 343.457 102.675C343.667 102.98 343.691 104.515 343.965 104.735C344.194 103.257 344.402 103.318 344.856 102.989C344.943 102.925 344.942 102.398 344.987 102.341C345.173 102.099 345.236 102.545 345.413 102.278C345.456 102.214 345.538 101.71 345.578 101.629C345.94 100.925 346.143 102.124 346.168 102.331C346.276 103.12 346.52 102.489 346.66 102.818C346.798 103.147 346.448 103.464 346.635 103.682C347.002 104.13 347.613 104.167 348.05 104.291C348.218 104.336 348.255 103.645 348.283 103.636C348.727 103.561 348.894 104.356 349.479 103.113C348.735 106.56 349.8 102.84 350.166 103.732C350.203 103.809 349.569 105.342 349.378 105.528C349.19 105.715 349.167 105.157 348.848 105.459C348.77 105.527 348.11 106.958 348.053 107.041C347.617 107.688 348.167 105.271 348.18 105.133C348.317 103.652 347.595 105.209 347.475 105.302C346.943 105.732 346.627 105.316 346.202 105.624C345.919 105.822 345.597 107.416 345.433 107.337C344.863 107.073 344.982 104.796 344.079 106.646C343.888 107.041 343.732 108.813 343.502 107.367C343.489 107.276 343.333 105.962 343.012 106.733C342.972 106.83 342.9 107.343 342.86 107.381C342.587 107.626 342.52 107.201 342.251 107.363C341.991 107.527 341.638 107.776 341.398 107.568C341.252 107.443 341.164 106.459 341.114 106.214C340.974 105.51 340.583 106.585 340.539 105.749C340.502 104.91 340.931 103.697 340.632 103.121C340.453 104.454 340.252 105.82 340.064 107.159C339.26 107.012 338.523 106.487 337.67 106.45C337.564 106.447 337.589 107.177 337.475 107.192C337.019 107.256 336.676 106.7 336.162 106.85C335.754 106.968 335.301 107.689 334.886 107.839C334.817 106.284 334.153 106.74 333.772 106.559C333.632 106.496 333.684 106.088 333.594 105.944C333.252 105.41 333.297 106.782 333.168 106.984C332.614 107.846 332.865 104.777 332.315 104.798C332.287 104.798 331.777 106.397 331.718 106.494C331.345 107.126 331.724 105.92 331.542 105.78C331.21 105.525 330.999 105.111 330.523 105.547C330.494 105.574 330.455 105.637 330.408 105.713C330.238 106.009 329.972 106.501 329.847 105.858C329.826 105.752 329.895 105.214 329.873 105.18C329.475 104.61 329.299 106.305 328.985 106.855C328.671 107.405 328.373 106.195 328.321 105.85C328.184 104.956 328.524 105.492 328.543 105.407C328.78 104.401 328.455 104.547 328.248 104.441C328.373 102.774 328.056 102.846 328.029 104.337C328.027 104.5 328.211 104.361 328.248 104.441C327.904 106.056 327.549 106.233 327.311 104.673C327.2 103.941 327.447 103.123 326.874 103.378C326.613 103.493 326.604 104.648 326.356 104.94C325.784 105.606 325.268 104.482 324.736 104.604C324.545 104.648 324.67 105.292 324.537 105.344C324.186 105.484 323.922 104.986 323.565 105.197C323.533 105.217 323.548 105.88 323.445 105.879C322.659 105.887 322.004 105.405 321.161 105.32C320.77 105.28 320.028 105.581 319.617 105.472C318.9 105.287 318.102 104.257 317.47 104.437C317.057 104.552 317.089 105.217 316.879 105.65C316.474 106.489 316.01 104.885 315.95 104.638C315.947 104.629 316.311 104.504 316.153 104.151C316.103 103.439 315.954 104.635 315.95 104.638C315.913 104.478 315.243 104.271 315.095 104.386C315.016 104.448 315.005 105.074 314.964 105.095C314.002 105.576 313.047 105.656 312.149 105.289C312.133 105.275 312.215 104.581 312.179 104.557C311.664 104.203 311.246 105.026 310.755 105.496C310.26 105.964 309.927 105.767 309.761 104.55C309.414 104.673 308.974 104.105 308.721 103.762C308.468 103.419 308.319 104.772 308.292 104.796C307.452 105.592 307.08 104.781 306.299 104.597C305.928 104.508 305.163 104.645 304.74 104.76C304.404 104.854 304.241 104.521 303.928 104.701C303.886 104.725 303.879 105.332 303.865 105.354C303.477 106.05 303.753 104.587 303.705 104.318C303.534 103.34 303.421 102.817 302.961 103.234C302.854 103.33 302.401 105.433 302.212 105.543C301.967 105.683 302.115 104.928 301.856 105.093C301.834 105.106 301.802 105.577 301.652 105.544C300.963 105.4 300.231 105.067 299.502 105.058C299.402 105.055 299.471 105.81 299.327 105.818C298.647 105.854 297.916 105.77 297.292 105.37C297.138 105.27 297.279 104.755 297.256 104.598C297.115 103.643 296.706 104.983 296.653 105.005C295.404 105.567 294.588 104.264 293.323 104.758C293.254 104.787 292.631 106.209 292.498 104.939C292.489 104.854 292.36 103.555 292.095 104.417C292.079 104.47 292.169 105.141 291.929 105.055C291.69 104.97 291.262 105.38 290.981 104.63C290.891 104.393 290.736 103.095 290.34 104.091C290.314 104.16 289.648 106.428 289.593 104.824C289.584 104.56 289.741 102.88 289.296 103.714C289.21 103.876 289.314 104.261 289.105 104.481C288.785 104.82 288.431 104.34 288.015 105.063C287.942 105.191 287.589 106.313 287.44 105.43C287.417 105.292 287.523 104.734 287.414 104.663C286.898 104.321 286.306 104.655 285.788 104.225C285.605 104.074 285.772 103.173 285.588 102.914C285.404 102.656 285.015 102.391 284.772 102.791C284.53 103.19 284.653 104.655 284.328 104.747C282.915 105.148 281.612 104.197 280.249 103.972C280.047 103.938 280.177 104.469 279.876 104.456C278.761 104.413 276.822 104.759 275.936 103.587C275.229 102.649 276.249 102.049 275.686 101.647C275.414 101.455 274.984 103.115 274.911 103.163C274.202 103.653 273.798 102.874 273.173 103.058C273.045 103.097 273.118 103.788 273.009 103.813C272.637 103.905 272.278 103.573 271.929 103.603C271.772 103.619 271.763 104.142 271.623 104.091C271.288 103.976 271.003 103.735 270.708 103.223C270.681 103.176 270.931 102.543 270.682 102.5C270.274 102.433 269.798 101.915 269.291 102.378C269.14 102.518 269.049 103.708 268.808 102.864C268.758 102.688 268.941 101.263 268.503 102.474C268.429 102.675 267.725 104.3 267.515 103.205C267.459 102.916 267.348 101.732 267.166 101.904C267.141 101.931 267.186 102.578 267.042 102.63C266.534 102.803 266.024 102.698 265.508 102.862C265.37 102.908 265.522 103.584 265.318 103.63C264.76 103.758 264.079 103.54 263.552 103.294C263.359 103.202 263.536 102.664 263.525 102.603C263.362 101.616 263.13 102.916 263.048 102.987C262.535 103.41 262.216 102.769 261.766 102.9C261.641 102.935 261.683 103.566 261.655 103.62C261.362 104.146 261.631 103.037 261.479 102.902C261.052 102.52 260.548 102.534 260.091 102.582C259.923 102.601 260.058 103.338 259.908 103.346C259.025 103.409 258.103 103.274 257.27 102.814C257.114 102.726 257.255 102.175 257.231 102.045C257.061 101.137 256.636 102.329 256.55 102.44C256.159 102.943 256.059 102.441 255.731 102.51C254.15 102.859 252.263 102.398 250.842 102.095C248.946 101.701 247.512 101.068 245.713 101.081C245.595 101.081 245.661 101.831 245.559 101.841C244.251 101.929 243.019 101.553 241.73 101.679C241.625 101.688 241.725 102.402 241.556 102.44C241.46 102.463 241.358 102.475 241.254 102.474C240.967 102.471 240.668 102.385 240.425 102.205C240.261 102.085 240.533 101.497 240.367 101.389C239.979 101.134 239.571 101.056 239.151 101.14C238.968 101.177 239.189 101.916 238.955 101.908C237.382 101.871 235.901 101.894 234.369 100.853C234.267 100.782 234.274 99.3128 234.033 99.5782C233.988 99.9829 233.957 100.46 233.92 100.894C231.664 100.975 229.44 100.315 227.2 100.087C227.107 100.078 227.217 100.864 227.037 100.849C225.958 100.766 224.933 100.915 223.892 100.074C223.793 99.9915 223.929 98.631 223.593 98.8165C223.527 98.85 223.064 99.0029 222.905 99.2901C222.885 99.3337 222.934 99.9759 222.775 99.9844C221.879 100.025 220.948 99.8206 220.087 99.3798C219.951 99.3075 220.14 98.6382 220.043 98.5809C219.35 98.1794 218.537 98.651 217.93 98.0092C217.531 97.5787 217.729 96.4112 217.535 95.2497C217.506 95.0855 217.251 95.0562 217.24 94.3842C217.208 92.693 217.369 90.8426 217.321 89.0399C217.297 88.6509 216.88 89.069 217.125 88.1309C217.133 88.0677 217.487 87.7583 217.588 87.4426C217.653 87.2238 217.554 86.5378 217.687 86.2588C217.831 85.9804 217.948 86.5569 218.154 86.233C218.354 85.9051 218.315 85.1245 218.684 85.048ZM307.576 102.227C307.373 101.555 307.144 103.937 307.466 103.389C307.482 103.359 307.587 102.26 307.576 102.227ZM338.723 104.695C338.514 103.608 338.102 105.123 338.246 105.96C338.388 106.796 338.785 105.024 338.723 104.695ZM342.261 104.36C341.969 103.481 341.463 106.837 341.978 106.213C342.007 106.178 342.278 104.411 342.261 104.36ZM218.647 94.9643C218.65 94.9325 218.438 94.8914 218.434 94.9228C218.29 95.6767 218.697 95.7576 218.647 94.9643ZM345.788 104.038C345.747 103.565 345.304 104.029 345.365 104.618C345.414 105.091 345.839 104.625 345.788 104.038ZM294.319 98.6285C294.318 98.5927 294.17 98.5492 294.158 98.7504C294.119 99.3984 294.341 99.2317 294.319 98.6285ZM349.912 104.654C350.051 104.566 350.178 104.724 350.451 104.792C350.757 104.855 350.989 104.426 351.158 104.133C351.338 103.828 351.521 103.546 351.836 103.567C351.978 103.567 352.216 103.702 352.403 104.051C352.628 104.423 352.646 105.224 352.365 105.676C352.167 105.993 352.189 105.544 352.023 105.127C351.852 104.665 351.512 104.521 351.411 104.834C351.277 105.11 351.206 105.236 351.191 105.415C351.173 105.585 351.189 105.78 351.191 105.96C351.191 106.32 351.131 106.62 350.686 106.364C350.526 106.27 349.924 104.635 349.91 104.65C349.91 104.651 349.911 104.652 349.912 104.654ZM307.659 99.3502C307.656 99.3183 307.453 99.2719 307.445 99.3027C307.273 100.051 307.683 100.145 307.659 99.3502ZM285.693 96.4931C285.687 96.425 285.21 96.3262 285.19 96.387C284.847 97.6071 285.809 97.8104 285.693 96.4931ZM321.754 98.7665C322.051 98.0253 322.334 97.9597 322.432 98.9316C322.21 98.8609 321.981 98.8334 321.754 98.7665Z" fill="#FC4C02"/>
<path d="M193.231 150.974C193.872 151.408 194.278 152.245 194.482 152.971C194.548 153.199 194.15 153.384 194.184 153.557C194.231 153.872 194.582 153.971 194.601 154.302C194.609 154.417 194.017 154.755 194.037 154.866C194.163 155.484 194.615 155.764 194.853 156.276C196.043 158.83 197.5 161.004 199.015 163.335C199.494 164.078 199.718 165.314 200.523 165.876C200.618 165.942 201.032 165.517 201.083 165.503C201.864 165.281 200.873 165.95 200.882 166.211C200.926 167.25 201.478 168.011 202.166 168.492C202.463 168.699 203.147 167.686 202.862 168.376C202.843 168.423 202.302 168.75 202.312 168.867C202.317 168.93 202.341 168.993 202.376 169.054C202.478 169.238 202.686 169.404 202.736 169.525C202.86 169.832 202.899 169.869 203.086 170.109C203.341 170.445 203.41 171.021 203.795 171.268C203.88 171.321 204.298 170.818 204.477 170.865C204.656 170.912 204.868 171.257 204.838 171.458C204.807 171.66 204.38 171.934 204.305 172.026C203.678 172.8 205.016 172.302 205.077 172.324C206.192 172.788 206.201 174.014 206.837 174.789C207.335 175.392 208.047 175.863 208.485 176.453C209.013 177.168 209.204 177.951 209.789 178.573C209.851 178.639 210.368 178.08 210.444 178.16C211.268 179.029 211.905 179.938 212.262 181.18C212.294 181.301 211.688 181.606 211.69 181.752C211.71 182.637 211.411 184.339 213.917 182.846C214.139 183.296 214.408 183.809 214.232 184.512C214.118 184.964 213.388 185.212 213.843 185.281C213.945 185.298 214.371 184.82 214.487 184.875C214.974 185.104 215.161 185.658 215.71 185.814C215.824 185.846 216.246 185.467 216.342 185.424C217.128 185.079 216.315 186.243 216.292 186.371C216.124 187.335 216.655 187.525 217.019 187.998C217.102 188.107 217.589 187.5 217.69 187.588C218.209 188.05 218.613 188.648 218.786 189.393C218.823 189.56 218.233 189.861 218.225 189.962C218.196 190.401 219.189 189.683 219.175 190.083C219.174 190.167 218.721 190.49 218.682 190.538C218.056 191.284 219.206 190.549 219.259 190.566C219.952 190.768 219.099 191.96 219.622 192.283C219.686 192.321 220.13 191.755 220.276 191.889C221.248 192.772 221.96 193.947 222.341 195.3C222.399 195.507 221.902 195.732 221.859 195.783C221.201 196.583 222.338 195.823 222.419 195.84C223.027 196.001 222.447 197.095 223.923 196.34C224.864 198.379 226.936 199.473 227.174 202.058C227.179 202.09 226.629 202.477 226.64 202.539C226.767 203.288 227.495 202.533 228.756 202.062C229.072 201.944 228.091 203.174 228.023 203.268C227.769 203.614 226.927 204.16 226.887 204.238C226.586 204.868 229.107 202.742 229.362 203.051C229.366 203.064 228.863 203.408 228.837 203.472C228.757 203.673 229.009 203.601 228.912 203.812C228.687 204.3 227.499 205.38 228.449 205.067C228.571 205.026 229.975 203.787 230.135 204.122C230.196 204.256 230.628 204.732 230.643 204.942C230.661 205.155 230.118 205.443 230.106 205.469C229.789 206.341 229.419 206.411 228.657 207.343C227.898 208.272 230.026 206.445 230.33 206.322C230.633 206.199 230.345 206.886 230.223 207.098C230.1 207.309 229.736 207.469 229.684 207.61C229.351 208.538 230.902 206.901 231.353 206.748C232.418 206.386 231.004 207.942 231.077 208.352C231.096 208.463 231.412 208.101 231.502 208.141C231.851 208.301 231.477 208.868 232.185 208.793C232.3 208.781 233.467 208.233 232.887 208.973C232.803 209.079 232.35 209.344 232.353 209.53C232.357 209.81 232.519 210.187 232.803 210.26C233.012 210.314 233.546 209.619 233.48 209.957C233.451 210.107 232.949 210.284 232.926 210.54C232.901 210.796 233.215 211.144 233.34 211.27C233.465 211.395 233.905 210.91 233.948 210.893C234.196 210.801 234.651 210.864 234.669 210.887C235.68 211.998 235.729 213.781 236.933 214.68C237.027 214.752 237.507 214.26 237.527 214.266C237.998 214.39 236.396 215.3 236.1 215.899C237.147 214.99 237.056 215.275 237.351 215.394C237.493 215.451 237.862 215.054 237.912 215.029C238.669 214.666 237.943 215.441 237.799 215.605C237.27 216.209 238.085 215.728 237.732 216.133C237.383 216.536 236.649 216.869 236.826 217.07C237.258 216.814 238.135 215.838 238.426 215.863C239.525 215.95 239.638 217.693 239.948 218.238C240.255 218.78 240.455 218.879 240.541 219.267C240.697 219.969 241.292 219.178 241.886 219.207C242.481 219.239 240.526 220.588 240.169 220.955C239.812 221.321 240.256 221.037 240.084 221.269C239.912 221.5 239.548 221.602 239.572 221.796C239.596 221.991 240.582 221.767 241.031 221.475C241.982 220.857 242.767 219.949 242.724 220.552C242.721 220.587 242.187 220.918 242.2 221.033C242.318 221.932 242.797 222.565 242.953 223.423C242.974 223.542 242.379 223.908 242.385 223.982C242.446 224.756 243.205 223.84 244.429 223.288C243.045 224.321 242.351 225.14 242.65 225.522C242.83 225.751 243.381 225.235 243.912 225.044C244.071 224.986 243.802 225.474 244.1 225.279C245.074 224.639 245.956 223.668 245.871 224.38C245.866 224.413 245.332 224.761 245.35 224.844C245.464 225.379 246.438 224.656 246.886 224.971C247.237 225.218 247.133 226.256 247.34 226.698C245.833 227.921 246.46 227.985 247.61 227.277C247.763 227.55 248.029 227.755 248.073 228.1C248.089 228.219 247.612 228.523 247.573 228.572C246.961 229.328 248.052 228.605 248.133 228.624C248.97 228.862 248.578 229.939 249.758 229.857C249.8 229.854 250.867 229.03 250.223 229.796C250.178 229.848 249.56 230.062 249.728 230.341C249.896 230.622 249.719 231.545 250.485 231.494C250.67 231.482 251.689 230.999 251.167 231.711C251.095 231.807 250.776 232.027 250.637 232.196C250.193 232.736 251.294 231.93 250.501 232.788C249.708 233.646 249.249 234.453 250.153 234.296C250.18 234.292 251.082 233.69 251.159 233.811C251.281 234.004 251.311 234.395 251.466 234.572C251.54 234.657 252.013 234.176 252.034 234.183C252.805 234.53 252.686 235.327 253.002 236.121C253.059 236.268 254.038 236.02 253.663 236.702C253.253 237.45 250.503 239.288 251.571 239.352C251.999 239.38 255.463 237.017 254.125 238.798C255.188 239.248 254.939 240.689 256.18 240.994C256.235 241.008 257.229 240.381 257.285 240.475C257.367 240.616 257.003 241.03 257.048 241.142C257.227 241.618 257.867 241.664 258.107 242.07C258.199 242.223 257.724 242.533 257.834 242.716C257.944 242.898 258.606 242.536 258.511 242.985C258.438 243.325 257.402 244.453 257.447 244.786C258.609 243.845 258.71 244.016 259.236 244.035C259.338 244.038 259.694 243.652 259.763 243.637C260.053 243.566 259.795 243.932 260.098 243.842C260.172 243.82 260.567 243.497 260.649 243.461C261.362 243.144 260.691 244.137 260.574 244.31C260.13 244.966 260.71 244.625 260.588 244.949C260.467 245.272 260.014 245.31 260.002 245.581C259.977 246.141 260.382 246.505 260.632 246.847C260.735 246.981 261.188 246.459 261.215 246.468C261.57 246.628 261.234 247.361 262.406 246.649C259.848 249.065 262.803 246.595 262.577 247.427C262.558 247.494 261.307 248.587 261.023 248.625C260.739 248.663 260.995 248.156 260.568 248.236C260.468 248.254 259.085 249.022 258.988 249.052C258.226 249.285 260.116 247.677 260.211 247.578C261.231 246.503 259.716 247.3 259.569 247.302C258.892 247.315 258.936 246.818 258.42 246.788C258.086 246.766 256.816 247.781 256.74 247.61C256.487 247.043 258.107 245.443 256.23 246.256C255.83 246.429 254.533 247.649 255.338 246.429C255.389 246.352 256.173 245.293 255.431 245.663C255.337 245.709 254.938 246.038 254.884 246.042C254.536 246.061 254.767 245.693 254.472 245.644C254.176 245.596 253.777 245.574 253.75 245.264C253.733 245.078 254.352 244.312 254.488 244.105C254.881 243.512 253.877 244.047 254.432 243.424C254.989 242.798 256.122 242.197 256.319 241.594C255.271 242.437 254.186 243.291 253.128 244.134C252.689 243.526 252.558 242.68 252.033 242.134C251.967 242.068 251.469 242.6 251.384 242.541C251.027 242.287 251.191 241.675 250.755 241.468C250.416 241.309 249.589 241.508 249.216 241.358C250.269 240.215 249.531 240.139 249.397 239.754C249.349 239.62 249.673 239.366 249.716 239.207C249.871 238.615 248.927 239.608 248.699 239.667C247.725 239.92 250.081 237.94 249.707 237.603C249.688 237.585 248.216 238.377 248.109 238.408C247.415 238.613 248.52 238.009 248.502 237.796C248.47 237.407 248.631 236.986 248.021 237C247.841 237.006 246.882 237.448 247.357 236.781C247.419 236.693 247.849 236.361 247.859 236.324C248.007 235.67 246.683 236.743 246.088 236.927C245.493 237.112 246.172 236.085 246.388 235.813C246.944 235.108 246.771 235.69 246.845 235.643C247.714 235.088 247.41 234.996 247.349 234.785C248.623 233.703 248.366 233.548 247.281 234.571C247.163 234.683 247.383 234.705 247.349 234.785C245.97 235.688 245.611 235.582 246.578 234.346C247.032 233.767 247.775 233.353 247.231 233.171C246.984 233.089 246.148 233.884 245.783 233.933C244.946 234.042 245.407 232.911 244.985 232.663C244.831 232.573 244.448 233.098 244.326 233.05C244.002 232.925 244.198 232.419 243.819 232.338C243.784 232.331 243.316 232.801 243.25 232.733C242.737 232.229 242.672 231.483 242.204 230.893C241.978 230.61 241.287 230.34 241.107 230.005C240.79 229.425 241.032 228.208 240.496 227.922C240.151 227.736 239.691 228.216 239.246 228.38C238.382 228.701 239.253 227.302 239.395 227.094C239.399 227.087 239.717 227.229 239.873 226.886C240.358 226.365 239.399 227.095 239.395 227.094C239.486 226.959 239.208 226.384 239.033 226.369C238.937 226.361 238.477 226.786 238.437 226.774C237.481 226.49 236.828 225.943 236.519 225.106C236.519 225.086 237.074 224.661 237.068 224.62C236.999 224.046 236.14 224.346 235.493 224.358C234.847 224.369 234.778 224.017 235.555 223.073C235.245 222.932 235.378 222.258 235.468 221.859C235.557 221.461 234.483 222.296 234.448 222.296C233.346 222.309 233.697 221.509 233.341 220.883C233.175 220.586 232.593 220.186 232.244 219.996C231.967 219.846 232.103 219.509 231.776 219.431C231.732 219.42 231.286 219.832 231.261 219.839C230.511 220.067 231.748 219.24 231.913 219.024C232.516 218.242 232.825 217.811 232.234 217.803C232.098 217.801 230.286 218.954 230.089 218.909C229.835 218.849 230.476 218.425 230.195 218.374C230.171 218.369 229.809 218.672 229.739 218.553C229.409 218.008 229.187 217.304 228.739 216.831C228.679 216.765 228.172 217.327 228.076 217.239C227.625 216.828 227.236 216.309 227.129 215.626C227.105 215.457 227.568 215.196 227.668 215.073C228.274 214.327 227.042 214.981 226.994 214.963C225.8 214.541 226.248 213.136 225.09 212.651C225.026 212.627 223.6 213.198 224.442 212.243C224.498 212.18 225.364 211.208 224.571 211.626C224.521 211.652 224.089 212.169 224.001 211.956C223.914 211.743 223.348 211.749 223.72 211.055C223.837 210.836 224.687 209.85 223.715 210.277C223.648 210.308 221.577 211.427 222.711 210.294C222.898 210.108 224.221 209.06 223.334 209.343C223.163 209.398 222.947 209.729 222.656 209.744C222.208 209.769 222.336 209.212 221.55 209.438C221.411 209.479 220.373 210.019 220.924 209.32C221.01 209.21 221.483 208.898 221.467 208.779C221.398 208.216 220.784 208.061 220.772 207.431C220.767 207.209 221.529 206.701 221.602 206.406C221.676 206.11 221.625 205.678 221.183 205.795C220.74 205.911 219.748 206.991 219.478 206.845C218.314 206.218 218.181 204.711 217.502 203.684C217.401 203.531 217.095 203.977 216.917 203.776C216.257 203.03 214.786 202 215.1 200.641C215.342 199.54 216.42 199.795 216.36 199.154C216.33 198.845 214.848 199.699 214.768 199.685C213.967 199.559 214.282 198.763 213.764 198.492C213.657 198.436 213.197 198.954 213.111 198.901C212.818 198.73 212.833 198.266 212.592 198.059C212.482 197.967 212.094 198.318 212.044 198.193C211.918 197.896 211.916 197.547 212.106 197.006C212.124 196.956 212.743 196.687 212.618 196.496C212.414 196.188 212.505 195.536 211.85 195.523C211.654 195.52 210.726 196.272 211.192 195.539C211.289 195.386 212.445 194.534 211.286 195.074C211.093 195.162 209.463 195.81 210.134 194.928C210.31 194.696 211.109 193.819 210.871 193.819C210.835 193.822 210.39 194.291 210.263 194.235C209.824 194.029 209.588 193.632 209.141 193.402C209.021 193.343 208.623 193.903 208.461 193.801C208.015 193.521 207.754 192.935 207.612 192.432C207.56 192.246 208.063 191.993 208.101 191.945C208.724 191.169 207.63 191.906 207.527 191.902C206.895 191.853 207.163 191.206 206.784 191C206.681 190.942 206.245 191.399 206.188 191.418C205.622 191.587 206.6 191.006 206.605 190.817C206.622 190.284 206.302 189.971 205.987 189.712C205.87 189.617 205.414 190.207 205.314 190.113C204.706 189.569 204.238 188.886 204.066 188.043C204.035 187.883 204.525 187.599 204.605 187.495C205.166 186.769 204.022 187.297 203.888 187.316C203.272 187.4 203.576 186.99 203.325 186.829C202.104 186.062 201.268 184.522 200.595 183.379C199.722 181.899 199.299 180.541 198.159 179.366C198.087 179.29 197.577 179.842 197.508 179.784C196.651 179.019 196.142 177.938 195.263 177.202C195.189 177.138 194.731 177.692 194.594 177.603C194.31 177.425 194.089 177.094 194.066 176.711C194.054 176.524 194.651 176.299 194.629 176.119C194.604 175.902 194.538 175.711 194.437 175.549C194.337 175.391 194.207 175.258 194.051 175.154C193.912 175.062 193.506 175.704 193.369 175.55C192.448 174.539 191.471 173.541 191.309 171.869C191.297 171.753 192.387 170.77 192.033 170.781C191.708 171.027 191.338 171.331 190.998 171.601C189.536 170.186 188.65 168.304 187.431 166.696C187.381 166.63 186.872 167.234 186.771 167.108C186.162 166.348 185.425 165.791 185.392 164.536C185.391 164.416 186.478 163.587 186.132 163.491C186.068 163.473 185.659 163.263 185.36 163.368C185.316 163.384 184.876 163.852 184.77 163.753C184.188 163.2 183.764 162.458 183.551 161.591C183.516 161.448 184.128 161.123 184.108 161.018C183.97 160.287 183.121 160.075 183.218 159.237C183.288 158.681 184.271 158.024 185.012 157.114C185.113 156.981 185.002 156.819 185.487 156.356C186.688 155.164 188.151 154.018 189.429 152.745C189.565 152.607 189.448 152.492 189.409 152.366C189.384 152.254 189.438 152.124 189.885 151.908C189.956 151.887 190.517 152.033 190.796 151.871C191.002 151.771 191.441 151.235 191.733 151.14C192.032 151.054 191.681 151.524 192.039 151.434C192.408 151.349 192.95 150.785 193.231 150.974ZM235.865 220.075C236.224 219.482 234.351 220.971 234.953 220.802C234.984 220.792 235.848 220.104 235.865 220.075ZM253.955 241.537C254.577 240.633 253.246 241.457 252.752 242.14C252.259 242.822 253.766 241.812 253.955 241.537ZM256.545 243.477C256.963 242.675 254.305 244.785 255.076 244.644C255.12 244.636 256.521 243.524 256.545 243.477ZM185.905 157.654C185.925 157.629 185.831 157.469 185.805 157.487C185.162 157.904 185.349 158.221 185.905 157.654ZM259.173 245.355C259.458 244.978 258.846 245.069 258.492 245.537C258.208 245.914 258.82 245.824 259.173 245.355ZM230.179 209.099C230.204 209.074 230.143 208.949 229.989 209.079C229.493 209.497 229.754 209.527 230.179 209.099ZM262.571 249.429C262.172 248.741 264.035 246.594 264.333 247.455C264.387 247.611 263.431 247.765 263.361 248.077C263.234 248.648 264.745 247.715 264.25 248.598C264.159 248.759 262.589 249.472 262.567 249.43C262.569 249.429 262.57 249.429 262.571 249.429ZM238.004 218.15C238.025 218.127 237.931 217.964 237.904 217.98C237.253 218.384 237.443 218.712 238.004 218.15ZM226.352 202.086C226.397 202.035 226.172 201.661 226.116 201.69C225.011 202.302 225.463 203.061 226.352 202.086ZM247.305 226.737C248.025 226.41 248.249 226.541 247.61 227.276C247.521 227.086 247.397 226.924 247.305 226.737Z" fill="#FC4C02"/>
<path d="M154.353 235.916C154.91 236.882 154.954 237.877 154.863 238.686C154.834 238.936 154.393 238.934 154.355 239.115C154.276 239.451 154.555 239.685 154.44 240.019C154.401 240.13 153.72 240.186 153.693 240.299C153.554 240.93 153.855 241.409 153.854 241.978C153.86 244.843 154.252 247.536 154.595 250.283C154.715 251.214 154.379 252.436 154.849 253.269C154.905 253.368 155.464 253.169 155.516 253.178C156.316 253.326 155.132 253.494 155.028 253.741C154.674 254.62 154.742 255.389 155.05 256.113C155.091 256.208 155.138 256.301 155.188 256.391C155.362 256.701 156.424 256.1 155.862 256.586C155.825 256.62 155.195 256.677 155.152 256.785C155.054 257.027 155.257 257.403 155.248 257.581C155.226 257.922 155.247 257.983 155.307 258.272C155.385 258.673 155.194 259.225 155.435 259.636C155.489 259.724 156.084 259.453 156.226 259.579C156.368 259.71 156.406 260.111 156.289 260.275C156.171 260.44 155.667 260.498 155.56 260.548C154.653 260.958 156.075 261.106 156.122 261.157C156.931 262.124 156.382 263.166 156.622 264.195C156.8 264.947 157.233 265.694 157.37 266.441C157.524 267.305 157.352 268.105 157.607 268.945C157.633 269.034 158.344 268.759 158.378 268.867C158.72 269.963 158.913 271.167 158.673 272.395C158.649 272.52 157.97 272.522 157.907 272.657C157.536 273.474 156.521 274.896 159.425 274.651C159.423 275.146 159.443 275.749 158.974 276.308C158.673 276.668 157.908 276.561 158.286 276.833C158.371 276.894 158.964 276.652 159.044 276.755C159.379 277.18 159.297 277.74 159.725 278.141C159.813 278.222 160.359 278.069 160.465 278.074C161.323 278.118 160.08 278.808 160.003 278.914C159.43 279.727 159.817 280.108 159.935 280.702C159.962 280.84 160.666 280.508 160.719 280.634C160.981 281.288 161.086 282.034 160.907 282.765C160.866 282.93 160.204 282.94 160.152 283.026C159.93 283.404 161.139 283.199 160.95 283.558C160.912 283.634 160.363 283.722 160.307 283.748C159.416 284.143 160.773 283.996 160.813 284.036C161.347 284.533 160.057 285.239 160.382 285.758C160.423 285.82 161.072 285.511 161.143 285.694C161.621 286.907 161.75 288.329 161.489 289.699C161.45 289.914 160.904 289.892 160.844 289.919C159.9 290.348 161.256 290.173 161.321 290.225C161.797 290.648 160.794 291.379 162.454 291.362C162.394 293.611 163.772 295.534 162.849 297.993C162.838 298.024 162.174 298.126 162.157 298.187C161.938 298.914 162.925 298.556 164.264 298.696C164.601 298.731 163.178 299.405 163.075 299.459C162.694 299.658 161.697 299.773 161.627 299.826C161.079 300.261 164.281 299.472 164.374 299.868C164.371 299.881 163.768 299.966 163.716 300.013C163.556 300.159 163.814 300.207 163.634 300.355C163.217 300.696 161.674 301.139 162.665 301.285C162.793 301.302 164.601 300.815 164.596 301.188C164.592 301.335 164.767 301.947 164.689 302.148C164.611 302.349 163.996 302.366 163.974 302.384C163.305 303.032 162.942 302.929 161.847 303.43C160.756 303.93 163.473 303.233 163.8 303.259C164.126 303.285 163.565 303.778 163.362 303.915C163.159 304.051 162.761 304.032 162.653 304.136C161.945 304.828 164.06 304.043 164.531 304.108C165.649 304.262 163.692 305.031 163.575 305.429C163.543 305.537 163.987 305.352 164.05 305.427C164.292 305.726 163.707 306.075 164.376 306.326C164.485 306.367 165.775 306.396 164.928 306.805C164.806 306.864 164.282 306.899 164.202 307.07C164.083 307.326 164.063 307.741 164.285 307.936C164.45 308.079 165.236 307.689 165.028 307.966C164.935 308.089 164.407 308.023 164.273 308.245C164.138 308.464 164.264 308.913 164.321 309.082C164.379 309.251 164.988 309.01 165.034 309.014C165.297 309.043 165.678 309.304 165.684 309.334C166.106 310.803 165.36 312.42 166.047 313.783C166.101 313.89 166.748 313.66 166.763 313.675C167.132 313.999 165.292 314.103 164.763 314.513C166.104 314.16 165.897 314.377 166.109 314.618C166.212 314.734 166.718 314.54 166.775 314.54C167.614 314.552 166.621 314.927 166.419 315.012C165.678 315.322 166.622 315.249 166.127 315.457C165.635 315.663 164.829 315.638 164.899 315.897C165.4 315.858 166.618 315.37 166.868 315.521C167.816 316.088 167.152 317.723 167.191 318.356C167.23 318.988 167.362 319.155 167.27 319.547C167.101 320.254 167.984 319.804 168.505 320.097C169.026 320.392 166.676 320.738 166.194 320.91C165.711 321.081 166.235 321.023 165.979 321.156C165.723 321.289 165.351 321.218 165.287 321.404C165.223 321.591 166.208 321.832 166.74 321.769C167.866 321.636 168.971 321.165 168.667 321.692C168.649 321.723 168.024 321.784 167.985 321.893C167.696 322.761 167.847 323.54 167.61 324.391C167.577 324.508 166.881 324.572 166.854 324.642C166.569 325.371 167.654 324.881 168.997 324.93C167.298 325.246 166.315 325.676 166.416 326.157C166.477 326.446 167.2 326.225 167.76 326.29C167.929 326.309 167.472 326.628 167.826 326.584C168.983 326.44 170.201 325.955 169.813 326.561C169.794 326.588 169.16 326.665 169.14 326.747C169.007 327.284 170.201 327.065 170.465 327.551C170.673 327.932 170.123 328.827 170.115 329.32C168.224 329.753 168.76 330.092 170.103 329.962C170.12 330.274 170.27 330.581 170.158 330.914C170.12 331.028 169.558 331.091 169.502 331.117C168.62 331.528 169.918 331.362 169.983 331.415C170.631 332.005 169.805 332.806 170.902 333.261C170.942 333.276 172.263 333.008 171.347 333.412C171.284 333.439 170.635 333.358 170.663 333.684C170.69 334.009 170.127 334.769 170.838 335.065C171.009 335.136 172.137 335.154 171.356 335.566C171.25 335.621 170.866 335.678 170.666 335.769C170.031 336.06 171.374 335.821 170.285 336.244C169.195 336.667 168.429 337.194 169.311 337.456C169.337 337.465 170.413 337.322 170.429 337.466C170.454 337.694 170.309 338.06 170.37 338.29C170.4 338.4 171.036 338.175 171.052 338.191C171.594 338.85 171.137 339.519 171.074 340.38C171.061 340.538 172.05 340.751 171.414 341.202C170.718 341.696 167.439 342.132 168.371 342.667C168.744 342.883 172.895 342.288 170.912 343.305C171.671 344.188 170.816 345.383 171.799 346.211C171.843 346.248 173.011 346.123 173.021 346.233C173.033 346.397 172.524 346.61 172.516 346.731C172.469 347.243 173.025 347.57 173.063 348.045C173.079 348.225 172.516 348.294 172.535 348.509C172.554 348.723 173.309 348.69 173.027 349.055C172.812 349.329 171.387 349.89 171.282 350.212C172.739 349.877 172.755 350.077 173.22 350.328C173.31 350.376 173.8 350.185 173.869 350.202C174.16 350.267 173.768 350.484 174.081 350.537C174.156 350.55 174.653 350.433 174.743 350.437C175.523 350.467 174.485 351.069 174.305 351.173C173.618 351.57 174.289 351.519 174.038 351.758C173.788 351.997 173.364 351.83 173.234 352.07C172.967 352.567 173.173 353.079 173.249 353.498C173.283 353.665 173.919 353.394 173.939 353.415C174.189 353.717 173.566 354.232 174.933 354.108C171.574 355.16 175.313 354.235 174.747 354.889C174.7 354.941 173.097 355.376 172.825 355.284C172.552 355.192 173.004 354.846 172.585 354.729C172.486 354.701 170.906 354.782 170.806 354.766C170.018 354.638 172.421 354.021 172.55 353.973C173.938 353.454 172.227 353.501 172.093 353.439C171.478 353.149 171.734 352.717 171.283 352.46C170.992 352.292 169.405 352.646 169.411 352.457C169.431 351.831 171.588 351.101 169.544 351.003C169.108 350.981 167.408 351.51 168.666 350.762C168.745 350.715 169.914 350.104 169.084 350.109C168.979 350.11 168.476 350.23 168.426 350.21C168.104 350.072 168.473 349.841 168.229 349.665C167.984 349.489 167.634 349.291 167.745 348.998C167.811 348.822 168.703 348.404 168.916 348.277C169.529 347.914 168.392 347.951 169.163 347.634C169.938 347.315 171.221 347.276 171.662 346.816C170.35 347.114 169 347.404 167.679 347.696C167.551 346.948 167.803 346.126 167.569 345.396C167.539 345.306 166.857 345.567 166.807 345.474C166.597 345.085 167.012 344.604 166.711 344.221C166.475 343.925 165.644 343.736 165.374 343.433C166.821 342.867 166.192 342.473 166.239 342.063C166.255 341.919 166.657 341.834 166.766 341.709C167.165 341.241 165.88 341.72 165.649 341.672C164.662 341.466 167.65 340.723 167.46 340.251C167.451 340.226 165.779 340.286 165.67 340.266C164.956 340.142 166.215 340.089 166.292 339.888C166.433 339.52 166.763 339.211 166.208 338.95C166.043 338.874 164.987 338.852 165.707 338.458C165.802 338.406 166.333 338.298 166.359 338.268C166.779 337.741 165.117 338.121 164.501 338.022C163.885 337.923 164.946 337.297 165.259 337.147C166.068 336.756 165.658 337.206 165.745 337.197C166.77 337.083 166.537 336.863 166.575 336.645C168.195 336.233 168.032 335.979 166.607 336.42C166.452 336.469 166.64 336.588 166.575 336.645C164.938 336.846 164.662 336.589 166.074 335.902C166.736 335.58 167.586 335.537 167.175 335.129C166.99 334.944 165.889 335.291 165.539 335.171C164.74 334.9 165.65 334.08 165.379 333.666C165.281 333.516 164.705 333.82 164.617 333.722C164.381 333.463 164.779 333.093 164.473 332.849C164.445 332.827 163.818 333.044 163.788 332.953C163.548 332.265 163.817 331.562 163.656 330.821C163.577 330.462 163.074 329.908 163.059 329.523C163.029 328.856 163.779 327.855 163.426 327.366C163.197 327.044 162.573 327.271 162.1 327.221C161.183 327.123 162.58 326.246 162.799 326.121C162.806 326.117 163.029 326.388 163.32 326.148C163.985 325.892 162.802 326.124 162.799 326.121C162.94 326.039 162.943 325.393 162.792 325.301C162.709 325.251 162.109 325.43 162.078 325.401C161.342 324.71 160.999 323.936 161.088 323.033C161.097 323.015 161.783 322.879 161.795 322.84C161.985 322.288 161.081 322.174 160.495 321.894C159.908 321.613 160.001 321.262 161.115 320.756C160.899 320.494 161.316 319.947 161.571 319.625C161.827 319.304 160.494 319.578 160.463 319.562C159.466 319.078 160.134 318.509 160.089 317.781C160.07 317.434 159.725 316.825 159.496 316.493C159.312 316.232 159.582 315.987 159.322 315.769C159.288 315.74 158.706 315.913 158.681 315.907C157.906 315.776 159.382 315.583 159.625 315.462C160.511 315.024 160.978 314.772 160.45 314.499C160.329 314.435 158.194 314.665 158.035 314.536C157.834 314.366 158.596 314.271 158.366 314.098C158.347 314.083 157.889 314.194 157.878 314.057C157.825 313.427 157.934 312.682 157.739 312.052C157.714 311.965 157.012 312.246 156.964 312.124C156.74 311.549 156.616 310.894 156.824 310.241C156.878 310.079 157.408 310.05 157.553 309.984C158.426 309.585 157.031 309.619 156.995 309.581C156.108 308.663 157.126 307.574 156.304 306.636C156.258 306.588 154.724 306.459 155.902 305.974C155.98 305.941 157.186 305.451 156.289 305.471C156.233 305.473 155.617 305.747 155.632 305.514C155.647 305.281 155.136 305.03 155.775 304.569C155.977 304.423 157.175 303.911 156.114 303.861C156.04 303.859 153.688 303.946 155.207 303.434C155.456 303.349 157.108 302.999 156.186 302.854C156.008 302.827 155.668 303.029 155.4 302.912C154.986 302.732 155.347 302.284 154.54 302.133C154.398 302.108 153.227 302.128 154.03 301.743C154.156 301.682 154.718 301.612 154.756 301.498C154.941 300.953 154.459 300.541 154.729 299.974C154.823 299.772 155.73 299.654 155.927 299.419C156.123 299.184 156.268 298.768 155.819 298.674C155.37 298.58 154.002 299.111 153.824 298.856C153.051 297.749 153.604 296.357 153.444 295.106C153.421 294.922 152.949 295.188 152.878 294.924C152.618 293.966 151.748 292.361 152.63 291.272C153.336 290.396 154.188 291.097 154.42 290.499C154.53 290.212 152.823 290.321 152.756 290.27C152.092 289.792 152.726 289.21 152.38 288.729C152.308 288.629 151.666 288.891 151.613 288.804C151.423 288.511 151.644 288.109 151.52 287.818C151.463 287.688 150.959 287.831 150.97 287.697C150.988 287.371 151.14 287.051 151.549 286.645C151.586 286.608 152.261 286.645 152.233 286.414C152.186 286.042 152.553 285.484 151.972 285.182C151.797 285.093 150.632 285.356 151.376 284.908C151.531 284.814 152.944 284.563 151.667 284.535C151.455 284.533 149.705 284.378 150.696 283.881C150.956 283.749 152.06 283.314 151.846 283.206C151.813 283.192 151.206 283.417 151.117 283.308C150.813 282.92 150.775 282.451 150.478 282.056C150.398 281.95 149.791 282.274 149.692 282.113C149.417 281.666 149.438 281.005 149.532 280.484C149.567 280.29 150.131 280.289 150.186 280.263C151.087 279.839 149.779 280.012 149.689 279.961C149.144 279.639 149.675 279.192 149.423 278.829C149.356 278.729 148.763 278.947 148.704 278.938C148.12 278.834 149.255 278.75 149.343 278.58C149.593 278.101 149.442 277.67 149.273 277.29C149.21 277.151 148.54 277.478 148.491 277.351C148.193 276.614 148.069 275.766 148.285 274.919C148.327 274.759 148.893 274.723 149.01 274.665C149.834 274.259 148.577 274.234 148.448 274.191C147.86 273.999 148.314 273.768 148.159 273.504C147.395 272.234 147.326 270.477 147.229 269.16C147.094 267.414 147.311 265.993 146.81 264.445C146.779 264.347 146.078 264.615 146.042 264.534C145.599 263.419 145.632 262.274 145.156 261.178C145.118 261.09 144.462 261.382 144.379 261.246C144.204 260.967 144.155 260.588 144.299 260.215C144.369 260.037 145.006 260.105 145.065 259.929C145.202 259.519 145.163 259.131 144.969 258.802C144.886 258.663 144.237 259.055 144.183 258.861C144.165 258.798 144.147 258.736 144.128 258.674C143.749 257.365 143.386 256.132 143.94 254.612C143.979 254.502 145.386 254.08 145.065 253.945C144.665 254.024 144.2 254.136 143.775 254.23C143.077 252.305 143.103 250.241 142.696 248.256C142.678 248.171 141.96 248.503 141.921 248.338C141.706 247.418 141.27 246.557 141.782 245.443C141.831 245.33 143.167 245.037 142.896 244.813C142.847 244.771 142.568 244.42 142.251 244.378C142.204 244.375 141.606 244.611 141.553 244.482C141.262 243.746 141.194 242.923 141.366 242.096C141.394 241.961 142.083 241.902 142.109 241.803C142.291 241.122 141.6 240.622 142.074 240.13C142.412 239.852 143.527 239.48 144.554 238.945C144.628 238.909 144.664 238.881 144.796 238.884C144.912 238.872 145.211 238.951 145.47 238.725C146.073 238.132 146.606 237.413 147.341 236.878C148.041 236.309 148.873 235.878 149.413 235.124C149.442 235.082 149.43 235.014 149.381 234.922C149.32 234.818 149.199 234.668 149.027 234.507C148.732 234.191 147.792 233.652 147.072 233.528C146.337 233.391 146.297 233.395 146.297 233.285C146.3 233.236 146.281 233.173 146.343 233.094C146.414 233.025 146.582 232.888 147.319 232.903C147.389 232.902 147.987 232.98 148.651 233.278C149.349 233.587 149.893 234.015 150.236 234.306C150.401 234.442 150.547 234.573 150.677 234.691C150.785 234.78 150.882 234.859 150.971 234.928C151.154 235.075 151.276 235.134 151.38 235.157C151.668 235.224 152.092 234.57 152.541 234.813C152.76 234.93 152.753 235.087 152.765 235.275C152.769 235.446 152.765 235.593 152.984 235.693C153.393 235.82 154.103 235.488 154.353 235.916ZM162.713 318.185C163.296 317.808 160.958 318.317 161.573 318.434C161.606 318.439 162.685 318.204 162.713 318.185ZM169.56 345.713C170.516 345.17 168.957 345.323 168.214 345.722C167.472 346.121 169.27 345.878 169.56 345.713ZM171.042 348.624C171.769 348.083 168.454 348.812 169.21 349.027C169.253 349.04 171 348.656 171.042 348.624ZM145.111 239.511C145.14 239.496 145.115 239.321 145.084 239.33C144.337 239.49 144.382 239.821 145.111 239.511ZM172.587 351.497C173.007 351.282 172.418 351.092 171.894 351.359C171.474 351.574 172.064 351.765 172.587 351.497ZM162.439 305.702C162.473 305.69 162.474 305.552 162.278 305.6C161.648 305.755 161.869 305.897 162.439 305.702ZM173.868 356.702C173.808 355.9 176.423 354.783 176.315 355.695C176.296 355.86 175.368 355.575 175.168 355.827C174.805 356.288 176.573 356.115 175.742 356.695C175.59 356.801 173.865 356.749 173.864 356.701C173.865 356.701 173.867 356.701 173.868 356.702ZM165.482 317.402C165.512 317.39 165.498 317.2 165.467 317.203C164.704 317.276 164.73 317.659 165.482 317.402ZM162.097 297.646C162.16 297.62 162.123 297.179 162.059 297.179C160.797 297.235 160.869 298.129 162.097 297.646ZM170.067 329.339C170.858 329.366 171.001 329.584 170.104 329.961C170.107 329.752 170.068 329.551 170.067 329.339Z" fill="#FC4C02"/>
</svg>
