<svg width="164" height="186" viewBox="0 0 164 186" fill="none" xmlns="http://www.w3.org/2000/svg">
<path d="M4.0987 124.46C6.75306 120.409 10.5846 115.458 13.6192 111.757C14.5757 110.587 14.4752 111.454 15.1483 110.662C16.4641 109.112 17.3684 107.497 18.7135 105.96C19.1561 105.459 19.2189 106.523 19.6702 105.989C22.1128 103.096 24.1042 100.028 26.4415 97.0156C38.098 81.978 49.1682 66.9699 60.568 51.52C64.3067 46.4518 69.2702 40.5328 72.85 35.0122C73.2567 34.3825 72.5172 34.4068 72.5597 34.2626C73.2693 31.9706 73.8193 33.2543 74.7807 32.1667C77.5458 28.9996 80.298 25.4022 82.5491 21.9789C83.5144 20.4792 84.4354 18.9801 85.3043 17.5308C86.5594 15.44 84.236 16.8391 86.1406 15.147C86.2721 15.0289 86.4511 15.8922 86.8774 15.3699C87.8387 14.1856 89.3691 11.7285 90.0918 10.7834C91.4826 8.96578 91.6969 8.65381 92.9848 6.90517C93.7373 5.89394 94.6065 4.84088 95.5123 3.77322C96.2197 2.94789 96.9565 2.1004 98.1502 1.22468C98.7628 0.799373 99.5172 0.311244 100.721 0.0807624C101.914 -0.18573 103.55 0.236476 104.432 0.91769C105.082 1.40301 105.062 1.21114 105.185 1.0695C105.271 0.92777 105.604 0.87962 106.331 1.72633C106.342 1.73992 106.353 1.75372 106.365 1.76774C107.928 3.72906 108.44 6.65074 108.571 7.64415C108.667 8.66579 108.069 8.35327 107.999 8.55448C107.395 10.1803 109.375 13.0874 109.493 13.5181C111.554 20.9507 111.931 27.5322 113.204 34.5804C113.247 34.8166 113.29 35.0553 113.334 35.2964C114.274 40.4123 115.471 45.8357 116.299 50.7163C117.326 56.7873 117.888 62.0087 118.975 67.8845C119.089 68.5052 119.705 67.6466 119.846 68.4052C121.341 76.4692 122.649 84.5062 123.526 92.6398C123.613 93.4537 122.782 92.5278 122.829 93.3479C123.141 98.3834 123.174 106.399 126.512 108.858C126.966 112.228 127.531 116.313 127.453 119.404C127.403 121.397 126.379 119.628 127.076 121.958C127.232 122.485 127.741 121.684 127.928 122.48C128.611 125.389 129 128.582 129.652 131.532C129.752 131.986 129.856 132.43 129.966 132.862C130.141 133.539 130.671 133.263 130.802 133.442C131.869 134.915 130.921 137.878 130.904 138.483C130.807 143.117 131.503 146.388 131.905 150.647C131.994 151.626 132.641 150.399 132.753 151.335C133.324 156.294 133.578 161.468 133.163 166.443C133.065 167.527 132.437 166.518 132.356 167.031C131.987 169.323 133.184 169.931 132.712 172.176C132.608 172.65 132.084 172.323 132.015 172.404C130.926 173.623 132.068 175.014 132.034 175.368C131.833 177.825 130.885 179.864 129.831 181.542C129.574 181.985 129.32 182.378 129.054 182.75C128.89 182.992 128.722 183.22 128.546 183.438C128.456 183.549 128.372 183.647 128.268 183.763C128.143 183.907 128.01 184.047 127.866 184.182C127.536 184.559 125.875 185.744 124.276 184.942C123.052 184.298 122.765 183.6 122.397 183.07C122.072 182.502 122.124 184.188 121.269 182.494C117.781 172.762 117.283 163.599 115.926 154.615C115.74 153.231 116.45 154.103 116.497 154.005C117.213 152.398 115.689 151.766 115.546 151.334C114.455 147.924 114.768 144.388 112.56 142.513C111.963 140.004 111.235 137.536 110.314 135.224C106.34 126.318 97.8917 118.764 91.2859 110.421C90.1594 109.048 89.0385 107.661 87.9303 106.256C87.8099 106.106 88.5319 105.891 88.2891 105.593C85.3499 101.995 85.219 103.368 82.175 102.078C81.4089 101.753 80.8575 99.0074 80.7924 98.783C80.5559 97.9549 81.815 97.8079 81.694 97.5717C80.6606 95.6369 78.5684 98.2065 76.5728 96.2189C76.514 96.1526 77.2054 95.9843 77.0798 95.7742C76.692 95.1209 76.0049 94.7789 75.6394 94.1231C74.8091 92.6224 75.5131 91.0641 73.0591 89.9652C72.7463 89.8292 71.7868 91.5039 70.046 89.6835C69.3541 88.9543 66.1379 85.8885 65.3205 84.9401C64.5072 83.9923 65.5402 84.1478 65.4944 84.0677C63.6212 81.1716 64.7673 81.812 64.3625 79.7964C63.9496 77.7825 62.3575 80.1383 61.6464 79.8955C60.9336 79.6491 59.592 77.4807 59.3105 76.9043C59.0239 76.3218 59.839 76.5612 59.5331 76.0968C57.5048 73.0409 57.4368 76.042 56.2778 75.569C53.7788 74.5565 53.4179 71.9842 52.0537 70.1286C51.9184 69.9465 51.7747 69.7719 51.6198 69.6068C51.1431 69.099 51.2427 69.8294 50.7582 69.4493C48.876 67.9724 48.2229 66.5126 45.7524 65.1241C45.3631 64.9086 42.8473 64.3642 42.3914 62.7604C42.3223 62.5261 43.1123 62.5227 42.3899 61.7468C41.325 60.5976 39.3247 58.7545 37.9087 57.8084C36.8951 57.1362 37.4268 58.6822 36.4139 57.5039C35.9539 56.9734 37.2607 57.3985 36.3733 56.4379C35.5332 55.5105 32.9323 53.4609 31.9499 52.7276C30.9586 51.9819 31.1014 52.9123 30.9944 52.8844C30.383 52.7227 28.2947 51.5354 28.1269 51.4145C26.2116 50.0115 24.3162 48.6121 22.4485 47.2849C21.5138 46.6201 20.5688 45.9641 19.6139 45.3142C19.1429 44.9922 18.6615 44.6688 18.1596 44.3166C17.908 44.1389 17.6459 43.9523 17.3644 43.7247C17.0872 43.4772 16.7196 43.2562 16.3211 42.5169C16.1859 42.2205 16.0654 41.9566 16.0089 41.4448C15.9406 40.9902 16.1297 40.1571 16.6051 39.7089C17.5397 38.8879 18.0469 39.0047 18.5375 38.9153C19.4505 38.8503 20.1984 38.9447 20.9182 39.0324C22.3764 39.2261 23.7334 39.4981 25.1129 39.7681C27.865 40.316 30.5822 40.8712 33.3732 41.3173C34.1864 41.4493 33.78 40.6733 33.9054 40.6865C36.6706 40.9376 34.2028 42.3044 35.97 43.2695C35.9614 41.8552 37.0319 42.3218 38.9921 42.5438C39.9206 42.646 39.5241 42.0235 39.6175 41.9855C41.1525 41.4492 41.8924 42.6587 42.1074 42.9182C42.8813 43.8693 44.025 43.1283 44.5605 43.7644C45.0796 44.3932 43.5214 44.9021 45.362 45.2262C45.9698 44.8318 44.825 43.3077 46.2695 43.3546C48.1583 43.4114 50.5822 43.7785 53.1155 44.2462C57.7855 45.1108 62.8942 46.3107 65.6645 46.7745C69.9296 47.4859 71.3019 47.5764 73.7788 48.0935C78.2392 49.0191 76.714 47.8435 79.5648 47.7754C82.427 47.7056 80.7597 49.8744 81.0964 50.4316C81.4253 50.9873 81.9243 50.5241 82.3813 50.8651C82.8371 51.2059 81.7279 51.4115 82.8716 51.665C84.0158 51.9191 87.2918 51.4245 87.7673 50.9479C88.7748 49.939 87.5011 48.5866 90.5047 49.3837C90.6774 49.4302 90.0293 49.9761 90.6947 50.1231C95.9849 51.2699 101.537 51.978 106.839 53.0411C107.566 53.1879 106.827 53.7967 107.249 53.8899C111.656 54.863 110.204 53.5133 112.795 52.5153C112.043 54.1638 113.273 55.3741 116.657 55.7829C118.673 56.0268 118.437 55.2399 119.805 54.8654C120.206 54.7512 121.606 55.436 121.901 55.1136C122.892 54.0624 121.69 52.6167 125.113 53.5353C125.262 53.5773 124.705 54.1512 125.226 54.2505C128.195 54.8171 128.997 54.003 131.621 53.9779C132.007 53.9756 132.425 53.9887 132.885 54.023C135.761 54.2394 140.857 55.5482 144.131 56.0009C143.851 57.9241 147.035 57.7988 148.42 56.5827C150.542 56.8379 152.86 56.9632 154.914 57.2981C155.613 57.412 155.111 57.9389 155.195 58.0058C156.509 59.0544 157.529 57.8115 157.994 57.7898C158.702 57.7651 159.391 57.7665 160.079 57.8017C160.621 57.8338 161.138 57.8622 161.799 58.0138C161.967 58.0555 162.142 58.1021 162.376 58.2034C162.591 58.319 162.938 58.4058 163.306 59.0238C163.481 59.3363 163.526 59.7823 163.456 60.0812C163.399 60.3612 163.277 60.5777 163.196 60.7007C163.101 60.8433 163.011 60.945 162.937 61.0235C162.86 61.1046 162.769 61.1876 162.709 61.2388C161.629 62.078 160.767 62.3793 159.84 62.8218C158.018 63.6391 156.237 64.4138 154.435 65.5662C154.272 65.6665 154.532 67.015 152.942 66.569C152.836 66.5362 154.113 65.3947 151.979 66.1549C151.028 66.4922 149.738 66.8151 148.273 67.2325C146.416 67.758 144.382 68.4011 142.801 69.3339C142.149 69.7242 140.692 71.396 138.932 71.1026C138.703 71.0596 138.785 70.6215 138.438 70.5146C137.322 70.1766 137.241 71.6466 135.814 70.9152C134.37 70.1891 131.869 70.134 129.125 71.9111C129.037 71.9656 128.684 73.2263 127.73 73.5319C126.21 74.0177 124.002 74.5254 122.427 75.0623C121.669 75.3207 122.368 75.7932 122.24 75.8491C117.294 77.9056 113.482 78.5435 107.961 80.0914C106.948 80.3743 104.368 82.1854 102.206 82.132C99.8418 82.0723 100.994 78.235 96.363 80.5692C94.5023 81.5045 93.2853 86.2911 89.0809 85.3727C83.5089 87.635 77.9577 88.6824 72.4081 90.618C71.2483 91.0212 70.1521 91.4424 69.0065 91.9347C68.7015 92.0651 68.0618 93.4848 67.3399 93.6924C66.2406 94.0069 65.4764 93.6736 64.7024 93.8761C61.4053 94.7265 58.5712 96.0894 55.4198 96.9838C54.2409 97.3191 54.4717 96.6588 53.0465 97.0641C51.6324 97.4664 50.9116 98.4637 48.8688 98.7159C47.3487 98.8967 45.4358 97.8975 43.4714 98.3152C43.8305 99.7693 42.5007 100.145 40.2689 101.243C39.8369 101.456 40.477 101.804 40.2807 101.93C39.4981 102.452 38.5504 102.292 37.8258 102.821C37.6512 102.949 37.7856 103.442 37.6461 103.575C36.4838 104.72 33.8259 104.343 33.3878 104.271C31.6376 104.022 31.1491 104.873 29.8914 104.958C28.6537 105.038 30.2573 104.135 28.8575 104.391C25.9496 104.923 22.366 106.189 19.5506 107.189C18.4203 107.594 19.4246 107.953 19.2681 108.026C19.1362 108.085 19.0039 108.142 18.8716 108.195C16.7541 109.09 14.4447 109.685 13.9543 111.422C10.7395 109.223 12.8134 112.412 9.5353 113.694C9.2764 113.798 8.05065 112.615 8.8254 111.815C9.60663 111.013 11.2734 110.584 12.3993 109.511C12.649 109.256 13.7607 106.893 14.0004 106.679C15.7595 104.984 17.106 107.158 17.2483 107.235C17.6959 107.437 18.1257 107.444 18.5411 107.339C18.5435 107.338 18.5507 107.335 18.5532 107.334C19.7971 107.039 20.905 105.618 21.3404 105.375C23.9797 103.899 26.4911 103.456 28.7325 102.344C30.2086 101.618 29.8705 100.021 31.092 99.6902C35.1726 98.5875 37.2677 100.318 40.4634 97.2791C41.1573 96.6275 39.8232 95.1786 43.1539 95.6179C43.3558 95.648 45.8859 96.2087 46.9161 95.0472C47.0433 94.9016 46.8842 94.4089 47.0758 94.3046C48.3753 93.6117 49.41 93.7255 50.8829 93.0663C52.3128 92.4203 54.0548 91.5763 55.8302 91.2127C56.8884 90.9964 58.5242 91.5008 59.0793 91.5764C60.699 91.788 61.846 90.2654 62.9783 90.7769C64.1074 91.2936 62.7703 93.0246 65.2085 92.8285C64.8949 91.5176 64.6813 90.1384 64.4177 88.804C66.7007 88.1177 68.944 87.5237 71.2495 86.9066C74.0256 86.1655 76.8098 85.4091 79.5673 84.4978C80.1948 84.289 79.3352 83.8038 79.9904 83.5658C82.7854 82.5551 85.398 82.2588 88.2622 81.12C90.4793 80.2354 92.7254 78.7032 95.0309 77.7503C96.959 78.7419 100.3 77.1021 102.896 76.3976C103.803 76.1507 103.872 76.5607 104.549 76.4793C107.1 76.162 105.552 75.2395 106.141 74.8201C108.67 73.0238 109.88 75.8668 113.173 74.6935C113.351 74.6316 114.981 72.3596 115.242 72.1648C116.915 70.904 115.736 72.6022 116.951 72.3243C119.164 71.8183 120.792 71.686 123.145 70.3857C123.844 69.9995 125.261 68.4413 126.946 68.7043C127.167 68.7389 127.238 69.2875 127.398 69.2666C130.303 68.838 129.809 67.2042 131.188 66.122C132.545 65.0474 135.336 65.3274 135.938 65.4768C137.498 65.8639 135.085 66.1697 135.034 66.2779C134.546 67.5304 136.266 66.7497 137.617 66.3706C138.372 67.8777 140.196 67.1334 139.033 65.9643C138.906 65.8368 137.918 66.3468 137.617 66.3706C138.27 64.4068 140.212 63.5064 142.999 64.1402C144.299 64.4369 143.588 65.5878 146.693 64.139C146.844 64.068 146.966 63.9947 147.065 63.9192C147.929 63.2832 147.271 62.5201 148.304 61.8408C150.946 60.0958 155.142 59.6568 157.748 58.2415C158.642 57.739 157.485 57.6051 158.052 57.251C158.354 57.058 158.63 56.8952 158.795 56.7992C158.868 56.7586 158.926 56.7206 158.855 56.7902C158.818 56.8289 158.749 56.8884 158.592 57.0694C158.525 57.1496 158.41 57.2884 158.273 57.5038C158.204 57.6121 158.136 57.7292 158.059 57.8857C157.967 58.0722 157.875 58.295 157.798 58.5587C157.651 59.0174 157.533 59.9531 157.757 60.785C157.955 61.6311 158.476 62.364 158.806 62.6909C158.987 62.8791 159.159 63.0228 159.313 63.1361C159.449 63.2356 159.562 63.3061 159.666 63.3664C159.881 63.488 160.014 63.541 160.117 63.5805C160.513 63.7169 160.486 63.665 160.449 63.654C160.336 63.6104 159.987 63.5582 159.611 63.5356C159.287 63.5151 158.945 63.5116 158.583 63.5301C158.395 63.5407 158.81 64.2281 158.165 64.195C153.083 63.9717 148.615 63.1359 143.368 62.5893C140.804 62.3239 136.239 62.1907 133.621 61.8179C132.684 61.6866 131.771 61.523 130.77 61.3306C126.963 60.5869 122.808 59.5262 119.704 59.3499C117.171 59.2033 117.628 59.9206 116.504 60.2408C114.298 60.8587 110.797 58.8726 110.319 58.5722C110.308 58.5629 112.5 58.6666 111.381 58.1928C110.789 57.4123 110.344 58.572 110.319 58.5722C110.008 58.3786 105.687 57.7112 104.802 57.7308C104.324 57.7427 104.512 58.3946 104.265 58.3892C98.3865 58.2436 92.5387 57.685 86.6758 56.6469C86.5737 56.6212 86.8179 55.9478 86.5766 55.896C83.1999 55.1536 80.9114 55.7195 78.0243 55.8525C75.1344 55.9844 72.9325 55.5163 71.4175 54.0993C69.2812 53.9617 66.2888 53.009 64.5865 52.4398C62.8732 51.8695 62.4461 53.1806 62.281 53.1841C58.1191 53.3067 55.5522 52.4782 51.8937 51.6459C51.1845 51.4845 50.4441 51.3239 49.6579 51.1705C47.2913 50.7129 42.5299 50.0562 39.9491 49.7155C37.8963 49.4494 36.7534 48.9035 34.8492 48.74C34.594 48.7179 34.7304 49.3617 34.6497 49.3697C32.4446 49.6768 33.7178 48.4169 33.3434 48.0741C31.9912 46.8292 31.1215 46.1327 28.423 46.0692C27.7728 46.0484 25.6533 47.8129 24.5569 47.7434C23.1422 47.654 23.784 46.9858 22.3507 46.9414C22.2288 46.9388 22.1688 47.4012 21.3514 47.2643C20.5976 47.1391 19.7921 47.0334 19.4459 47.0042C19.3715 46.9955 19.3369 46.9937 19.4333 46.9771C19.4776 46.9685 19.5676 46.9553 19.7269 46.9194C19.8067 46.9011 19.8961 46.8789 20.0154 46.8438C20.153 46.8034 20.3177 46.7489 20.5124 46.6692C20.8501 46.529 21.539 46.2144 22.2613 45.5309C23.0572 44.8233 23.8549 43.4292 24.0308 42.2471C24.2351 40.9666 24.0613 40.2976 23.9233 39.7393C23.788 39.2667 23.6636 39.0191 23.5622 38.8239C23.032 37.8369 22.6073 37.5213 22.4595 37.3769C22.2754 37.2198 22.2566 37.2238 22.2731 37.2404C22.3251 37.2924 22.5381 37.4465 22.7875 37.6156C23.2872 37.955 23.8808 38.3408 24.4742 38.7312C25.6716 39.5165 26.8907 40.3295 28.0633 41.1103C28.6006 41.4712 28.3297 40.3796 29.1248 40.9018C32.8885 43.3828 36.7067 46.3511 39.782 49.279C40.5557 50.0171 39.7068 50.0049 39.7893 50.2714C40.2484 51.8508 42.6478 52.0616 42.9083 52.2456C48.5491 56.1922 51.9702 60.4265 56.9823 64.7264C57.6192 65.2735 58.2988 65.8371 59.0002 66.3905C59.3388 66.6527 62.7356 67.798 62.939 69.7096C62.9582 69.8418 63.1279 71.7591 64.6557 71.989C64.7514 72.0036 64.5505 70.9059 65.645 72.028C66.7372 73.1479 68.8724 74.5604 69.9251 76.5716C70.2585 77.2066 70.5333 79.2427 72.7016 79.9123C72.846 79.9508 76.7088 80.4689 76.3993 82.395C76.3463 82.7104 75.034 83.785 77.3697 84.8569C77.8177 85.0605 77.4806 84.2036 78.5164 84.8887C80.1058 85.9381 81.5514 87.9976 83.7114 89.0869C84.09 89.2755 86.1126 89.674 86.4628 91.2585C86.518 91.507 85.8304 91.6149 86.2977 92.174C88.5097 94.8273 91.3072 97.1416 93.4567 99.9438C94.2217 100.94 93.1157 101.101 93.8379 102.212C94.3991 103.08 95.5403 104.561 96.5862 105.485C96.865 105.732 97.1364 105.937 97.3904 106.083C98.6025 106.775 98.6771 104.722 100.129 106.116C106.421 112.341 111.955 118.901 117.161 127.802C117.897 129.188 117.752 127.753 118.829 129.891C119.06 130.372 119.293 130.881 119.521 131.421C122.797 139.066 125.288 150.15 125.355 156.058C125.388 161.076 123.595 155.09 123.925 158.86C124.082 160.672 126.086 162.29 126.216 162.713C127.495 166.776 127.266 169.823 128.234 173.318C128.435 174.025 128.951 173.172 129.119 173.789C129.641 175.729 130.092 178.371 130.329 178.614C130.329 178.577 130.256 178.199 130.13 177.864C130.091 177.771 130.061 177.69 129.977 177.563C129.885 177.429 129.763 177.276 129.572 177.092C129.124 176.743 128.746 176.156 126.613 175.701C123.551 175.217 121.622 176.824 121.209 177.223C120.925 177.489 120.759 177.7 120.653 177.849C120.556 177.991 120.536 178.044 120.515 178.098C120.469 178.267 120.659 178.073 120.867 177.77C121.275 177.121 121.612 176.683 122.012 176.102C122.095 175.976 122.446 177.082 122.803 175.951C123.369 174.109 124.215 171.323 123.841 168.575C123.726 167.734 122.546 167.697 123.399 165.97C123.572 165.598 125.018 166.089 123.768 163.998C123.571 163.66 121.811 160.228 122.771 158.431C123.029 157.976 124.125 156.687 123.865 155.693C123.825 155.555 123.228 156.163 123.1 155.314C122.662 152.344 122.408 149.196 121.837 146.134C121.681 145.307 121.174 146.631 120.961 145.392C120.383 142.044 119.947 137.804 119.631 134.468C119.514 133.224 120.191 133.99 120.237 133.891C120.388 133.559 120.446 133.266 120.442 133.006C120.43 132.045 119.502 131.553 119.38 131.177C118.447 128.273 118.68 125.877 118.065 123.153C117.895 122.389 117.368 123.038 117.287 122.893C116.492 121.427 117.793 122.404 117.752 121.394C117.636 118.543 117.069 115.451 116.517 112.646C116.313 111.616 115.792 112.901 115.617 111.973C114.567 106.483 113.668 100.776 113.142 95.3355C113.045 94.3106 113.705 94.8531 113.795 94.6209C114.428 93.0232 112.86 91.096 112.662 90.6291C111.757 88.4941 112.095 87.5455 111.665 85.5963C109.556 76.0726 107.814 64.1817 106.414 55.0767C105.407 48.5359 104.608 42.7284 103.739 37.0147C103.027 32.3583 102.281 27.8005 101.289 22.8093C101.148 22.0974 100.551 22.95 100.421 22.3446C99.8226 19.5094 99.2746 16.6518 98.7113 13.9063C98.4309 12.5455 98.138 11.1713 97.8335 9.95897C97.6829 9.35911 97.5213 8.78109 97.3856 8.37905C97.2688 7.98229 97.0946 7.78988 97.4435 8.31243C97.6509 8.57202 98.4351 9.67787 100.437 10.1372C102.464 10.5367 103.703 9.81297 104.011 9.64663C104.379 9.42268 104.314 9.43391 104.216 9.5566C104.107 9.68085 103.92 9.91126 103.719 10.1909C103.679 10.2451 103.639 10.2993 103.599 10.3536C103.228 10.8582 104.337 10.5784 103.764 11.4013C102.594 13.0919 101.018 15.1937 99.6169 16.8105C98.9344 17.6003 99.2344 16.1098 98.5563 16.9155C96.9762 18.7948 95.4635 20.9746 94.1514 23.1851C93.5941 24.1274 95.101 23.1413 94.3302 24.3354C93.5309 25.5791 92.7329 26.8317 91.9217 28.0926C87.0806 35.3559 82.4019 41.783 76.8649 48.2359C76.4287 48.7388 74.9005 48.3584 74.2784 49.7176C74.5456 50.0438 74.939 50.3164 75.2652 50.6081C67.2012 62.3421 58.5419 73.5683 50.1538 85.1417C49.8055 85.6225 51.0351 85.24 50.3629 86.1745C46.4011 91.6837 42.7767 97.1072 38.1199 102.273C37.6571 102.789 36.7569 101.699 35.7337 103.48C35.5368 103.819 33.9489 106.344 33.7225 107.168C33.6963 107.281 34.5392 107.201 33.981 108.011C30.7254 112.713 27.1492 117.443 23.4921 121.867C22.91 122.568 22.923 121.385 22.5033 121.881C19.5081 125.433 16.9923 129.82 13.8886 133.082C11.8345 135.228 11.5159 133.66 9.65854 134.264C9.39675 134.349 8.29743 135.834 7.69458 135.521C6.17797 134.734 5.19827 132.924 3.51986 132.171C3.16058 132.006 2.04591 134.273 2.14518 132.528C2.15509 132.407 2.95257 130.764 2.95052 130.221C2.95095 129.843 2.07297 129.893 2.20953 129.221C2.34596 128.549 3.21189 128.326 3.54337 127.298C3.87238 126.266 2.96951 126.189 4.0987 124.46ZM56.9005 49.8474C55.3839 48.9509 54.765 51.2757 56.6162 50.9843C56.7051 50.9672 56.9786 49.8919 56.9005 49.8474ZM75.0555 87.8811C77.4131 88.2452 78.3345 86.3244 76.6504 86.0027C74.9954 85.6721 74.3322 87.7732 75.0555 87.8811ZM54.1632 95.1727C56.7779 95.2384 56.164 91.8771 53.8145 93.3183C53.6794 93.4004 54.012 95.1687 54.1632 95.1727ZM13.6571 128.136C13.6185 128.135 12.8187 129.195 12.8252 129.24C13.0297 130.258 14.6291 128.137 13.6571 128.136ZM33.4075 102.436C34.3003 102.638 36.2791 101.471 35.1823 101.213C34.2987 101.005 32.3127 102.179 33.4075 102.436ZM52.3544 68.6961C52.3511 68.7255 52.6626 69.0393 52.9059 69.1945C53.0201 69.2663 53.1189 69.3011 53.1588 69.2482C53.2536 69.1215 53.2612 68.9815 53.2175 68.853C53.0692 68.4411 52.4164 68.1385 52.3544 68.6961ZM0.611126 120.002C2.51514 117.661 4.90886 116.555 5.7835 116.782L5.73913 116.818C6.00626 116.889 6.13598 117.047 6.09116 117.288L6.16894 117.225C6.12857 117.668 5.58389 118.337 4.41897 119.51C3.67301 120.239 5.27895 117.273 4.19289 118.06C2.15456 119.576 2.53802 122.075 0.133208 123.473C-0.289115 123.721 0.409383 120.239 0.614181 119.992C0.613163 119.995 0.612145 119.999 0.611126 120.002ZM56.4114 46.863C56.3793 46.8264 55.09 46.5927 55.0588 46.6191C54.2387 47.2586 56.8363 47.7303 56.4114 46.863ZM90.81 108.339C90.8054 108.389 91.4447 109.121 92.009 109.748C92.4754 110.265 92.8972 110.715 92.9471 110.728C93.8922 110.875 93.4706 109.921 92.7431 109.064C91.9628 108.142 90.8238 107.359 90.81 108.339ZM144.177 56.0576C145.677 55.4433 147.374 55.5196 148.414 56.5811C147.009 56.3975 145.594 56.2499 144.177 56.0576Z" fill="#FC4C02"/>
</svg>
