<svg width="141" height="203" viewBox="0 0 141 203" fill="none" xmlns="http://www.w3.org/2000/svg">
<path d="M3.85925 191.485C5.30761 190.107 7.43114 188.536 9.30874 187.284C9.61925 187.078 9.93988 186.868 10.2429 186.674C10.8839 186.264 10.86 186.835 11.3248 186.558C12.2144 186.032 12.8349 185.242 13.7368 184.743C14.0405 184.576 14.147 185.363 14.4565 185.176C16.1432 184.15 17.4469 182.829 19.0477 181.665C26.9389 175.92 34.3927 169.886 41.9875 163.628C43.1046 162.706 44.3876 161.768 45.6694 160.792C47.2402 159.599 48.7913 158.331 49.9934 156.971C50.2446 156.686 49.6726 156.418 49.6907 156.333C49.9821 155.016 50.5476 156.125 51.1833 155.722C53.7208 154.1 55.9995 151.749 57.5932 149.461C58.2658 148.486 56.6174 148.657 57.8594 148.164C57.945 148.128 58.2489 148.751 58.5027 148.54C59.0833 148.058 59.8229 146.891 60.1876 146.462C60.8954 145.638 60.9916 145.485 61.5524 144.642C62.3196 143.491 63.4127 142.224 63.9283 140.84C64.0346 140.547 63.2799 140.635 63.393 140.147C63.5085 139.665 64.0635 138.514 64.356 138.163C64.6535 137.814 65.0581 138.164 65.194 138.133C66.3526 137.86 65.5499 135.951 65.561 135.769C65.578 135.64 65.5956 135.513 65.6139 135.387C65.9481 132.512 66.5266 129.782 65.8767 126.617C65.3556 124.151 64.1979 121.597 63.2625 119.265C62.2617 116.768 61.4716 114.509 60.2717 112.159C60.1444 111.911 60.0072 111.658 59.8601 111.405C59.7118 111.149 59.22 111.816 59.0385 111.509C57.088 108.237 54.7266 105.004 52.5237 101.513C52.3022 101.162 53.1516 101.152 52.9593 100.775C51.7827 98.4795 50.0831 94.5445 46.9148 95.3199C45.8545 93.948 44.5376 92.2987 43.9299 90.7479C43.5412 89.7525 44.7303 89.9985 43.6745 89.2812C43.4367 89.1186 43.2069 89.8094 42.8888 89.5369C41.5413 88.3794 40.4105 86.8092 39.006 85.7238C38.7179 85.5025 38.3596 85.9518 38.216 85.9439C37.0394 85.8652 37.1209 83.8991 36.993 83.6044C36.645 82.8274 36.2702 82.2019 35.8516 81.6269C35.0498 80.5254 34.1485 79.6603 33.228 78.539C32.903 78.1416 32.7068 79.0954 32.3724 78.729C30.6461 76.8207 29.0438 74.6869 27.7999 72.4845C27.5255 71.9941 28.3511 72.0115 28.2469 71.7577C27.7837 70.6427 26.6488 71.1674 26.1926 70.1014C26.096 69.878 26.6226 69.6579 26.6461 69.587C27.0202 68.4794 25.5826 68.8035 25.4551 68.678C23.8361 67.1282 24.1896 65.1638 22.8354 63.535C22.672 63.34 22.4128 64.2075 21.9888 63.6341C19.1592 59.8112 16.635 55.4517 14.7144 51.149C14.4152 50.4807 15.1343 50.6556 15.1665 50.5828C15.6588 49.4267 14.2427 49.7059 14.0777 49.5278C12.806 48.103 12.9256 46.0298 10.8863 45.7307C9.54052 42.9396 8.03407 40.243 6.55984 37.5555C4.23206 33.2659 2.01922 28.734 1.61412 23.5584C1.60591 23.4526 2.30068 23.4752 2.28285 23.2692C2.14366 20.8797 1.33639 21.4383 0.0892897 19.827C0.0167734 19.5823 -0.0507381 19.173 0.053911 18.608C0.132995 18.0087 0.796343 17.1446 1.3796 16.8726C1.96216 16.5677 2.40262 16.5797 2.77454 16.6268C3.48751 16.751 3.91037 17.0991 3.99129 17.1342C4.53106 17.442 4.27652 18.5172 4.44011 18.5642C5.59033 18.9881 4.95118 15.7498 6.50866 15.5688C6.55663 15.5692 6.42111 16.194 6.55466 16.2405C6.98706 16.3854 7.32528 16.1116 7.73786 16.2857C8.64478 16.6953 9.06614 18.2688 10.3019 17.2556C10.4742 17.1245 10.0686 15.2715 11.4152 15.2842C11.9308 15.2898 14.2428 15.1486 14.9054 15.245C15.5552 15.3396 15.1368 15.9601 15.1855 15.9842C16.9331 16.7127 16.3168 17.0682 17.2066 18.2162C18.113 19.3604 17.7867 16.5663 18.129 16.2413C18.445 15.9179 19.7864 16.5327 20.0767 16.7528C20.3903 16.972 20.0194 17.3666 20.2963 17.4876C22.1614 18.2779 21.0825 16.0718 21.6607 15.6096C23.0505 14.5158 24.215 16.5657 25.5414 16.7369C25.8888 16.7834 25.5942 16.3168 25.903 16.265C26.4665 16.1737 26.9424 16.2573 27.4336 16.3137C27.9807 16.3808 28.5461 16.4102 29.3208 16.0717C29.5757 15.9691 30.6507 14.6959 31.4305 15.598C31.54 15.7281 31.2465 16.2523 31.7891 16.3576C32.5796 16.5159 34.0174 16.6017 34.867 16.413C35.4874 16.2735 34.756 15.4328 35.5485 15.6837C35.9023 15.7958 35.2589 16.307 35.9239 16.4759C36.5977 16.6446 38.2638 16.5939 38.9106 16.566C39.5549 16.5376 39.1916 15.8958 39.2428 15.8513C39.5653 15.5959 40.767 15.264 40.8789 15.2631C46.3621 15.0964 51.4046 16.1199 56.733 15.692C57.1524 15.6594 56.8644 14.9799 56.9283 14.9679C58.3583 14.664 57.2508 16.4938 58.2554 17.0894C58.0947 15.7052 58.6846 15.949 59.693 15.7848C60.1792 15.7047 59.9075 15.1712 59.9513 15.1157C60.6674 14.2919 61.1744 15.339 61.3071 15.5528C61.7922 16.3395 62.3004 15.3973 62.6316 15.9231C62.9626 16.445 62.2237 17.2328 63.192 17.2117C63.4581 16.7124 62.7235 15.4242 63.4572 15.2056C66.2135 14.3787 71.3964 15.3404 73.6229 15.4235C75.8464 15.5063 76.5615 15.4077 77.8593 15.5741C80.1991 15.8753 79.3327 14.9218 80.7825 14.4674C82.2346 14.0131 81.549 16.3868 81.7632 16.8936C81.9732 17.4002 82.1922 16.8746 82.4496 17.1517C82.7062 17.4288 82.1599 17.78 82.7579 17.8793C83.3615 17.9784 84.9925 17.0582 85.1983 16.5243C85.6372 15.393 84.8835 14.2169 86.4776 14.6178C86.5694 14.6417 86.278 15.2668 86.6291 15.3264C89.4003 15.7801 92.3006 15.784 95.0613 16.1838C95.4447 16.2398 95.108 16.9351 95.3318 16.9755C97.6567 17.3983 96.815 16.2381 98.0621 14.9305C97.7876 16.6588 98.5158 17.7085 100.26 17.704C101.302 17.702 101.126 16.9497 101.805 16.4128C102.01 16.2509 102.76 16.7623 102.89 16.4067C103.328 15.2443 102.601 13.953 104.424 14.4545C104.504 14.4784 104.255 15.1148 104.531 15.151C106.305 15.3879 106.508 14.1741 108.42 14.0119C109.914 13.8846 112.611 14.6023 114.298 14.7091C114.285 16.6497 115.899 16.1925 116.53 14.8496C117.216 14.8772 117.916 14.8573 118.581 14.8759C119.049 14.8879 119.499 14.9167 119.922 14.9868C120.286 15.0469 120.051 15.6106 120.098 15.6709C120.787 16.6177 121.301 15.3118 121.532 15.2589C124.117 14.7411 126.251 15.71 128.69 14.7121C128.767 14.6762 128.905 13.3266 129.58 14.3001C129.622 14.3672 128.83 14.9936 129.971 15.0221C131.125 15.0466 133.378 15.7381 134.872 14.9937C135.009 14.9089 135.43 14.5497 135.467 14.3455C135.455 14.3253 135.43 14.3065 135.329 14.3277C135.25 14.3535 135.123 14.3934 134.915 14.5556C134.808 14.6458 134.703 14.7319 134.552 14.963C134.351 15.2594 134.217 15.792 134.304 16.2276C134.37 16.6508 134.628 16.9941 134.675 17.0498C134.753 17.1483 134.822 17.2163 134.88 17.2684C134.996 17.3713 135.068 17.415 135.114 17.4439C135.176 17.483 135.185 17.4853 135.185 17.4816C135.162 17.4539 134.995 17.3066 134.897 17.061C134.833 16.9244 135.038 16.5778 134.943 16.3318C134.653 15.555 134.089 16.8275 133.768 15.5798C133.424 14.3272 132.382 13.2452 130.637 13.7402C130.59 13.7552 129.989 14.7435 129.506 14.6389C128.696 14.4638 127.599 14.0377 126.759 13.8926C126.349 13.822 126.492 14.5293 126.418 14.5285C126.372 14.5263 126.326 14.5239 126.28 14.5212C123.599 14.3783 121.77 13.448 118.973 12.6699C118.456 12.5244 116.766 13.1405 115.857 12.2359C114.885 11.25 116.637 8.22809 113.903 8.51644C112.788 8.6276 110.703 12.4868 109.222 10.0094C105.469 9.85474 102.31 8.13874 98.4998 8.20908C98.3296 8.21192 97.6011 9.262 97.2169 9.17448C96.6482 9.04258 96.4259 8.44724 96.024 8.33612C94.3432 7.85722 92.6797 8.02296 91.0367 7.6454C90.4141 7.50349 90.7368 6.99033 89.9901 6.82034C89.2366 6.64968 88.6164 7.2894 87.6601 6.74883C86.9331 6.33717 86.4546 4.70748 85.461 4.34509C85.1497 5.80836 84.4582 5.64979 83.1435 5.80986C82.8901 5.84124 83.053 6.40031 82.9283 6.44156C82.4189 6.62084 82.0667 6.11771 81.5808 6.32556C81.4623 6.37514 81.3652 6.87656 81.2631 6.94544C80.3926 7.55056 79.3717 6.19613 79.2038 5.96214C78.5415 5.06897 78.0467 5.65389 77.4832 5.24707C76.9203 4.84044 77.9081 4.64043 77.2225 4.331C75.8081 3.69161 73.883 3.4257 72.3713 3.12821C71.7723 3.01345 72.0603 3.75838 71.9718 3.75753C70.7007 3.70317 69.5605 2.76063 68.6336 3.9734C68.3942 0.362826 67.8171 4.17215 66.1654 3.16139C66.0353 3.0803 66.1503 1.41406 66.7314 1.27073C67.3098 1.12715 68.0404 1.78582 68.8543 1.54635C69.0481 1.49061 70.3327 0.141305 70.4909 0.0741186C71.7097 -0.454339 71.4201 2.0148 71.4535 2.15929C71.8393 3.72347 73.3793 2.29904 73.7266 2.24436C75.3084 1.99188 76.5239 2.56765 77.8336 2.42133C78.6975 2.32999 79.0689 0.745696 79.7006 0.911606C81.8033 1.46292 82.134 3.82849 84.5013 2.26434C85.0087 1.93128 84.8933 0.103871 86.1914 1.76274C86.2747 1.86757 87.1839 3.33413 87.9929 2.66138C88.095 2.57657 88.1861 2.06697 88.3042 2.0445C89.0936 1.90396 89.5057 2.39938 90.3393 2.35243C91.184 2.30756 92.1877 2.19364 93.0752 2.53647C93.6099 2.74221 94.1383 3.82104 94.3567 4.10167C94.9748 4.90806 95.9835 3.96081 96.2898 4.85548C96.6018 5.75543 95.4648 6.82312 96.5848 7.57512C96.8758 6.26118 97.2322 4.92327 97.5522 3.60694C100.214 4.14941 102.757 5.06548 105.449 5.50688C105.784 5.5605 105.575 4.78599 105.939 4.82545C107.468 4.99366 108.678 5.74374 110.277 5.83342C111.508 5.89858 112.967 5.3921 114.27 5.43878C114.755 7.09466 116.713 6.92813 118.054 7.32052C118.517 7.45591 118.407 7.85354 118.726 8.0493C119.918 8.77506 119.563 7.32579 119.951 7.18006C121.622 6.56076 121.193 9.61227 122.965 9.86179C123.067 9.87765 124.508 8.47428 124.676 8.40118C125.813 7.9321 124.745 8.99445 125.352 9.22886C125.98 9.47626 126.533 9.76912 127.116 9.91193C127.559 10.0181 128.011 10.0492 128.607 9.95548C129.029 9.88713 130.157 9.05104 130.771 9.96625C130.857 10.087 130.703 10.6103 130.78 10.6566C132.148 11.4435 132.499 9.77577 133.468 9.37034C134.435 8.96242 135.609 10.4035 135.858 10.8145C136.465 11.857 135.162 11.0384 135.122 11.1244C134.446 12.0336 135.436 12.038 136.337 12.3731C136.253 12.7833 136.284 13.1103 136.376 13.351C136.42 13.471 136.476 13.5684 136.541 13.6443C136.636 13.7313 136.747 13.8006 136.874 13.8599C136.961 13.9038 137.242 13.9959 137.587 14.2463C137.675 14.3109 137.768 14.3888 137.863 14.4846C137.963 14.5798 138.183 14.8802 138.297 15.1906C138.571 15.8485 138.424 16.6829 138.234 17.0847C138.124 17.3258 138.099 17.3866 138.063 17.4801C138.03 17.5649 138.008 17.6312 138 17.6843C137.984 17.7889 138.018 17.8462 138.123 17.8399C138.175 17.836 138.245 17.8148 138.338 17.763C138.384 17.737 138.435 17.7031 138.492 17.6582C138.521 17.6354 138.55 17.6112 138.583 17.5813C138.628 17.5313 138.676 17.4748 138.724 17.4101C139.133 16.9805 139.543 15.5125 139.034 14.421C138.986 14.3023 138.885 14.1011 138.742 13.8984C138.667 13.7861 138.57 13.6601 138.462 13.5419C138.244 13.3025 137.995 13.1075 137.779 12.9708C137.525 12.814 137.463 12.7894 137.336 12.7291C137.222 12.6768 137.113 12.6344 137.009 12.5978C136.68 12.4847 136.402 12.4314 136.337 12.3731C136.475 12.1985 136.693 12.0709 136.899 11.9703C137.011 11.9233 137.096 11.8731 137.258 11.8596C137.423 11.8485 137.606 11.8531 137.84 11.9024C137.898 11.915 137.961 11.9306 138.027 11.9505C138.107 11.9772 138.244 12.0378 138.376 12.1062C138.648 12.253 138.999 12.4489 139.472 12.9494C139.58 13.0525 140.31 13.881 140.53 15.0608C140.818 16.2536 140.356 17.8065 139.828 18.5009C139.123 19.5091 138.505 19.823 138.103 20.0611C137.896 20.1744 137.713 20.2538 137.652 20.2848C137.565 20.3261 137.485 20.3617 137.409 20.3933C137.259 20.4566 137.128 20.5048 137.007 20.5454C136.732 20.633 136.654 20.6589 136.505 20.6943C135.495 20.9202 134.897 20.6012 134.161 19.8777C133.533 19.1859 134.025 18.3372 132.25 18.6987C131.472 18.8575 131.768 20.0009 131.078 20.33C129.452 21.0804 127.331 20.0321 125.658 20.2181C125.062 20.2855 125.651 20.9095 125.241 20.9772C124.11 21.1592 123.167 20.6948 122.07 20.946C121.972 20.9696 122.218 21.6268 121.88 21.6381C120.74 21.6805 119.73 21.6289 118.634 21.5582C117.269 21.464 115.863 21.3354 114.305 21.3411C113.013 21.3459 110.678 21.7282 109.304 21.6661C106.981 21.562 104.041 20.6272 102.061 20.8766C100.746 21.0366 101.038 21.6937 100.486 22.1476C99.4232 23.0274 97.4756 21.4839 97.2255 21.2445C97.2186 21.2366 98.3337 21.0716 97.7352 20.7382C97.3827 20.0358 97.2381 21.2413 97.2255 21.2445C97.0621 21.0898 94.7917 20.9597 94.3581 21.0895C94.117 21.1605 94.2577 21.7841 94.1318 21.8093C91.1187 22.3947 88.1228 22.5804 85.0646 22.3168C85.0109 22.3047 85.0851 21.6051 84.9589 21.5853C83.19 21.2911 82.0678 22.1567 80.6163 22.6783C79.1603 23.1998 78.0114 23.0412 77.135 21.8502C76.0361 22.0122 74.4576 21.4978 73.5462 21.1853C72.6356 20.8729 72.5234 22.2345 72.4439 22.2622C69.9647 23.149 68.5182 22.3858 65.9341 22.2933C64.7071 22.2469 62.2703 22.4721 60.9484 22.6366C59.9011 22.7688 59.2583 22.4577 58.2967 22.6733C58.1665 22.7021 58.3057 23.3062 58.2662 23.33C57.1996 24.0678 57.6986 22.5808 57.4734 22.3191C56.6491 21.3675 56.1389 20.8616 54.7681 21.3315C54.4572 21.4391 53.5437 23.5831 52.9659 23.7154C52.2131 23.8835 52.4871 23.1156 51.7027 23.3111C51.6346 23.3272 51.6596 23.7983 51.168 23.7842C48.8867 23.7246 46.4342 23.4849 44.066 23.568C43.7447 23.5775 44.1676 24.319 43.7044 24.345C41.5353 24.4666 39.1244 24.478 37.0165 24.1648C36.4853 24.0856 36.8082 23.5563 36.6906 23.4028C35.9675 22.4747 35.0154 23.8591 34.8573 23.8881C32.2099 24.384 29.9839 23.9991 27.6085 23.9186C26.4502 23.882 25.3177 23.9111 24.0555 24.1323C23.8631 24.1716 22.2211 25.6816 21.4671 24.447C21.4127 24.3649 20.6301 23.1016 20.0353 23.9998C19.9931 24.0561 20.4759 24.7031 19.6735 24.6609C18.8707 24.6189 17.6243 25.1032 16.5233 24.4176C16.1645 24.202 15.3101 22.9512 14.3401 24.0174C14.2841 24.0904 12.8306 26.4721 12.1986 24.9103C12.0974 24.6535 12.0981 22.96 10.9542 23.8941C10.7399 24.0754 11.1824 24.425 10.5888 24.6975C9.72232 25.1152 8.47304 24.7517 7.55337 25.6054C7.39947 25.7545 6.81123 26.9736 6.31814 26.1788C6.23775 26.0547 6.25409 25.479 6.04432 25.453C5.86234 25.4117 5.66835 25.4541 6.0364 25.3083C6.23656 25.1977 6.61778 25.1517 7.62363 24.2946C8.08927 23.8889 8.79334 23.0482 9.17816 22.0727C9.58741 21.0763 9.63092 20.1916 9.6299 19.8065C9.63128 19.9355 9.72819 20.6136 9.67379 21.3231C9.6446 21.798 8.70188 21.782 8.59692 22.3495C8.49066 22.9213 8.61349 24.0961 9.21233 24.5285C9.80571 24.9496 10.9516 23.8574 11.3616 24.6303C12.7238 27.1625 13.7109 30.0612 14.9803 32.9399C15.4279 33.9416 15.8954 34.9475 16.4007 35.9214C16.7025 36.5027 16.8931 35.7773 17.3713 36.6149C19.1296 39.7108 22.5992 44.7283 23.249 47.9008C23.77 50.4554 21.588 48.1706 22.259 49.9598C22.5897 50.8288 24.5404 50.7691 24.7008 50.9255C26.2845 52.4426 26.4493 54.086 27.6892 55.5622C27.9448 55.865 28.3051 55.1673 28.5161 55.4285C29.243 56.3182 29.6565 57.4854 30.3153 58.3542C30.6126 58.7434 30.9932 58.3741 31.2141 58.7677C31.7459 59.7023 32.1082 60.6057 32.3149 61.7443C32.3342 61.8486 31.4292 61.6961 31.8723 62.3624C32.5877 63.4342 33.1439 65.0231 34.4318 65.9132C34.8163 66.1763 35.7797 65.4733 35.6893 66.7199C35.6717 66.9806 34.3771 67.6509 36.0316 67.7731C36.3091 67.7994 38.7487 68.2178 38.4655 69.586C38.3911 69.9478 37.8567 71.158 38.3336 71.4531C38.4014 71.4899 38.7196 70.8642 39.0428 71.163C40.1729 72.2213 41.1507 73.4953 42.3299 74.5496C42.6453 74.8294 42.7391 73.9252 43.1922 74.3541C43.3387 74.4922 43.4858 74.6375 43.633 74.7885C44.7817 75.972 45.9331 77.5011 46.8191 78.7707C47.1896 79.3033 46.4829 79.3369 46.4695 79.4117C46.2436 80.6207 47.5204 80.078 47.7449 80.2144C49.1203 81.065 49.4587 82.3669 50.5401 83.3296C50.8391 83.5985 51.1166 82.9695 51.2113 82.9915C52.1668 83.2406 50.9203 83.5346 51.1742 84.0041C51.8876 85.3275 53.0125 86.511 54.0592 87.5711C54.4468 87.9629 54.5805 87.0185 54.9218 87.3755C56.941 89.468 58.9135 91.8368 60.4714 94.3493C60.765 94.8253 60.1114 94.9121 60.0862 95.0822C59.8935 96.2518 61.5696 96.3897 61.8333 96.5357C63.0124 97.1671 62.9214 97.8562 63.6637 98.6801C65.734 100.984 67.8384 103.97 69.51 107.36C70.5942 109.576 71.57 111.834 72.3774 113.895C74.7422 120.224 76.2419 125.681 75.9385 133.461C75.9036 133.958 76.6899 133.519 76.6655 133.959C76.5692 135.41 76.3146 136.886 75.8999 138.335C74.903 141.863 73.2777 145.283 71.5716 148.485C71.38 148.841 72.2849 148.699 71.9947 149.283C71.4006 150.488 70.445 151.865 69.5004 152.798C69.0471 153.245 69.0443 152.21 68.5993 152.664C67.5553 153.722 66.5693 154.906 65.7193 156.11C65.3626 156.617 66.5169 156.358 66.004 156.986C62.4832 161.285 58.7935 165.068 54.2426 167.947C53.9329 168.141 52.7205 167.262 52.3325 167.986C52.56 168.329 52.8811 168.684 53.1516 169.025C53.1263 169.049 53.101 169.073 53.0756 169.097C47.7052 174.182 41.8837 178.537 36.2475 183.258C36.009 183.458 36.923 183.698 36.4629 184.089C33.8039 186.346 31.3585 188.708 28.1385 190.419C27.818 190.591 27.0715 189.433 26.4121 190.26C26.2947 190.409 25.2166 191.556 25.0913 192.049C25.078 192.119 25.7078 192.423 25.3328 192.763C23.1767 194.702 20.763 196.542 18.2853 198.109C18.2449 198.134 18.2047 198.16 18.1646 198.185C17.7516 198.444 17.7134 197.594 17.4172 197.772C15.3352 199.027 13.6419 201.091 11.3931 202.077C9.86534 202.74 9.60585 201.454 8.23277 201.039C8.05224 200.977 7.14003 201.581 6.69924 201.047C5.74732 199.648 5.06426 197.891 3.97234 196.449C3.91843 196.368 3.85252 196.354 3.8361 196.329C3.83148 196.304 3.82374 196.258 4.2378 196.075C4.43812 195.987 4.81591 195.884 5.08725 195.838C5.36003 195.792 5.35838 195.764 5.35053 195.713C5.32584 195.664 5.42656 195.599 5.2491 195.524C5.0829 195.436 4.34901 195.438 3.94923 195.477C3.87855 195.484 3.63443 195.55 3.51418 195.566C3.38751 195.584 3.34914 195.547 3.34314 195.476C3.33443 195.334 3.42853 195.076 3.39967 194.901C3.36759 194.653 2.80122 194.218 2.82174 193.856C2.84723 193.489 3.43153 193.768 3.6114 193.211C3.79532 192.644 3.13755 192.173 3.85925 191.485ZM69.447 19.7899C68.5996 19.1457 68.5016 21.5396 69.4041 20.9574C69.4478 20.9264 69.4908 19.8215 69.447 19.7899ZM102.418 6.8384C103.292 8.07465 104.334 6.69044 103.714 5.74571C103.095 4.8022 102.151 6.46322 102.418 6.8384ZM91.0777 5.51679C92.1837 6.56754 92.9977 3.26755 91.5274 3.69317C91.4419 3.71677 91.0128 5.45566 91.0777 5.51679ZM11.0672 198.405C11.0338 198.391 10.4875 198.791 10.4895 198.829C10.6784 199.652 11.7911 198.837 11.0672 198.405ZM79.8055 4.29709C80.1176 4.82069 81.3516 4.50787 80.9633 3.8566C80.65 3.33245 79.4177 3.64582 79.8055 4.29709ZM25.6045 17.9036C25.594 17.8682 25.1059 17.8481 25.1178 18.0495C25.1757 18.6973 25.8352 18.4979 25.6045 17.9036ZM60.895 0.923818C63.6666 1.54706 64.8675 4.60973 61.8804 3.75479C61.3386 3.59999 63.2264 3.08708 62.5688 2.71302C61.3612 2.02989 60.2102 3.61247 59.0606 2.45062C58.8534 2.23848 60.7387 0.882178 60.9006 0.920853C60.8987 0.921842 60.8968 0.92283 60.895 0.923818ZM68.9321 16.9212C68.9149 16.8898 68.2403 16.8671 68.2245 16.8986C67.8677 17.6622 69.2266 17.7083 68.9321 16.9212ZM2.7513 25.2102C2.69077 25.271 3.14472 26.8265 3.22608 26.8471C4.65499 27.2019 3.77411 24.1681 2.7513 25.2102ZM114.326 14.7606C115.075 13.9905 115.936 13.8937 116.527 14.8487C115.802 14.8035 115.079 14.8017 114.326 14.7606Z" fill="#FC4C02"/>
</svg>
