<svg width="223" height="220" viewBox="0 0 223 220" fill="none" xmlns="http://www.w3.org/2000/svg">
<path d="M222.611 89.1855C221.95 90.1005 220.741 90.94 219.729 91.479C219.412 91.6486 219.247 91.2202 219.016 91.3235C218.563 91.5258 218.39 91.9766 217.919 92.1523C217.762 92.209 217.438 91.5904 217.284 91.6611C216.441 92.0516 215.954 92.7488 215.209 93.259C211.538 95.7709 208.232 98.5596 204.796 101.398C203.663 102.334 201.951 103.118 201.036 104.354C200.929 104.498 201.412 104.854 201.421 104.912C201.55 105.815 200.858 104.83 200.499 104.953C199.078 105.441 197.938 106.447 197.14 107.518C196.802 107.975 198.015 108.438 197.154 108.349C197.095 108.344 196.767 107.792 196.61 107.849C196.254 107.979 195.852 108.515 195.622 108.665C195.177 108.951 195.119 109.015 194.757 109.348C194.259 109.8 193.465 110.124 193.039 110.723C192.95 110.853 193.539 111.178 193.436 111.426C193.333 111.675 192.824 112.083 192.561 112.124C192.297 112.165 192.018 111.734 191.91 111.677C191.007 111.189 191.392 112.687 191.345 112.778C190.457 114.405 188.829 114.888 187.629 116.029C186.72 116.897 185.92 118.007 185.028 118.805C183.964 119.753 182.848 120.332 181.885 121.329C181.783 121.433 182.426 121.863 182.302 121.992C180.987 123.36 179.565 124.597 177.845 125.526C177.672 125.619 177.393 124.97 177.193 125.034C175.978 125.436 173.748 125.748 175.235 128.315C174.588 128.773 173.817 129.344 172.908 129.405C172.322 129.445 172.144 128.619 171.953 129.225C171.909 129.361 172.462 129.707 172.364 129.877C171.949 130.589 171.18 131.035 170.837 131.811C170.768 131.97 171.19 132.351 171.227 132.456C171.52 133.316 170.123 132.76 169.954 132.783C168.685 132.968 168.33 133.706 167.609 134.365C167.442 134.517 168.16 134.885 168.017 135.052C167.272 135.909 166.377 136.668 165.342 137.185C165.11 137.299 164.828 136.673 164.695 136.703C164.112 136.842 164.871 137.809 164.328 137.96C164.214 137.993 163.875 137.55 163.819 137.519C162.944 137.031 163.688 138.193 163.652 138.268C163.227 139.235 161.801 138.638 161.256 139.431C161.192 139.527 161.859 139.861 161.649 140.1C160.252 141.692 158.501 143.088 156.6 144.117C156.305 144.278 156.11 143.736 156.051 143.703C155.11 143.195 155.89 144.331 155.849 144.441C155.497 145.283 154.146 144.992 154.85 146.559C151.897 148.585 149.97 151.668 146.426 153.028C146.382 153.047 145.978 152.505 145.893 152.544C144.857 153.009 145.723 153.623 146.086 155.035C146.176 155.39 144.723 154.648 144.611 154.599C144.198 154.418 143.643 153.57 143.545 153.552C142.759 153.427 145.086 155.765 144.612 156.216C144.593 156.227 144.238 155.727 144.156 155.721C143.902 155.701 143.945 155.993 143.68 155.956C143.07 155.868 141.869 154.799 142.087 155.878C142.117 156.016 143.486 157.296 143.001 157.634C142.807 157.768 142.081 158.501 141.788 158.612C141.495 158.722 141.224 158.149 141.191 158.144C140.078 158.101 140.065 157.658 138.97 157.07C137.878 156.486 139.886 158.445 139.986 158.782C140.086 159.118 139.219 159.033 138.96 158.964C138.701 158.894 138.564 158.496 138.385 158.488C137.204 158.443 139.08 159.747 139.189 160.257C139.449 161.463 137.655 160.299 137.089 160.555C136.936 160.624 137.356 160.879 137.284 161.008C136.993 161.517 136.302 161.278 136.249 162.148C136.24 162.29 136.727 163.552 135.853 163.116C135.728 163.053 135.469 162.584 135.216 162.665C134.837 162.784 134.293 163.144 134.133 163.534C134.016 163.822 134.839 164.218 134.398 164.271C134.202 164.294 134.071 163.729 133.731 163.803C133.391 163.875 132.857 164.412 132.66 164.623C132.464 164.834 133.024 165.195 133.037 165.243C133.107 165.521 132.922 166.127 132.886 166.16C131.156 167.91 128.76 168.679 127.271 170.589C127.154 170.738 127.715 171.148 127.702 171.176C127.432 171.826 126.55 170.159 125.806 170.028C126.807 170.989 126.442 170.989 126.217 171.411C126.11 171.615 126.566 171.923 126.589 171.977C126.915 172.791 126.027 172.182 125.837 172.066C125.136 171.639 125.611 172.478 125.141 172.195C124.673 171.914 124.38 171.117 124.072 171.424C124.325 171.868 125.451 172.586 125.357 172.966C125 174.399 122.615 175.26 121.816 175.873C121.018 176.484 120.847 176.772 120.301 177.043C119.316 177.531 120.257 177.964 120.087 178.733C119.915 179.503 118.516 177.566 118.098 177.262C117.681 176.957 117.968 177.406 117.692 177.282C117.417 177.158 117.359 176.737 117.091 176.846C116.823 176.955 116.911 178.119 117.208 178.571C117.837 179.528 118.892 180.157 118.089 180.347C118.042 180.357 117.71 179.814 117.553 179.876C116.318 180.387 115.357 181.258 114.162 181.808C113.997 181.883 113.631 181.275 113.53 181.313C112.471 181.707 113.544 182.298 114.024 183.631C112.929 182.291 111.974 181.742 111.395 182.277C111.046 182.598 111.624 183.089 111.768 183.685C111.811 183.865 111.212 183.72 111.412 184.019C112.064 184.997 113.186 185.721 112.241 185.906C112.198 185.912 111.844 185.374 111.728 185.431C110.977 185.797 111.742 186.742 111.219 187.441C110.808 187.989 109.429 188.278 108.789 188.72C107.465 187.301 107.244 188.123 107.952 189.296C107.552 189.6 107.213 190.025 106.737 190.223C106.573 190.291 106.265 189.809 106.208 189.779C105.32 189.309 106.059 190.403 106.016 190.514C105.511 191.676 104.142 191.615 103.998 193.08C103.994 193.133 104.875 194.155 103.982 193.646C103.921 193.61 103.766 192.912 103.353 193.238C102.94 193.564 101.727 193.719 101.629 194.673C101.605 194.903 102.035 196.003 101.188 195.629C101.073 195.577 100.845 195.261 100.647 195.152C100.014 194.808 100.864 195.88 99.8778 195.22C98.8919 194.56 97.9015 194.304 97.919 195.389C97.9181 195.421 98.5353 196.324 98.3563 196.471C98.0698 196.704 97.5358 196.9 97.2618 197.17C97.1309 197.299 97.6778 197.704 97.6631 197.735C97.0239 198.86 95.9735 199.032 94.8332 199.756C94.6232 199.888 94.7459 201.032 93.907 200.832C92.9876 200.613 91.1072 197.86 90.7855 199.246C90.6539 199.803 93.0883 203.25 90.9747 202.273C90.1328 203.811 88.2507 204.07 87.5632 205.777C87.5319 205.854 88.1615 206.863 88.0222 206.973C87.8138 207.136 87.3343 206.84 87.1735 206.943C86.4903 207.365 86.2892 208.198 85.6895 208.667C85.4626 208.846 85.1479 208.368 84.8773 208.581C84.6072 208.795 84.9517 209.49 84.368 209.55C83.9254 209.594 82.6274 208.736 82.1678 208.928C83.1841 210.025 82.9307 210.223 82.7898 210.901C82.7632 211.032 83.2065 211.329 83.2124 211.41C83.2443 211.749 82.8062 211.571 82.8621 211.92C82.8751 212.004 83.225 212.376 83.2554 212.466C83.5279 213.244 82.3333 212.794 82.1263 212.715C81.3376 212.416 81.6705 213.016 81.2607 212.992C80.8512 212.969 80.8983 212.408 80.5356 212.502C79.7842 212.698 79.2075 213.359 78.6907 213.817C78.4866 214.002 79.0921 214.367 79.0738 214.405C78.7797 214.922 77.8628 214.792 78.5684 215.995C75.8655 213.719 78.5536 216.478 77.4794 216.529C77.3938 216.531 76.1919 215.383 76.2027 215.037C76.2136 214.691 76.8416 214.81 76.8279 214.3C76.8252 214.179 76.0904 212.732 76.0714 212.62C75.9237 211.745 77.6823 213.496 77.7951 213.577C79.0228 214.44 78.2799 212.834 78.3083 212.647C78.4378 211.793 79.0984 211.647 79.2515 210.98C79.3537 210.546 78.2616 209.341 78.5083 209.176C79.328 208.625 81.1351 210.036 80.4478 207.978C80.3021 207.538 78.9376 206.384 80.4105 206.912C80.5032 206.946 81.7624 207.512 81.4256 206.718C81.383 206.618 81.0259 206.243 81.0322 206.177C81.0822 205.742 81.5285 205.887 81.6579 205.492C81.7873 205.097 81.9036 204.581 82.3274 204.421C82.5822 204.324 83.4803 204.801 83.7302 204.889C84.4452 205.149 83.9421 204.089 84.662 204.541C85.3859 204.996 85.9499 206.194 86.7223 206.198C85.8116 205.208 84.8958 204.174 83.9889 203.17C84.9075 202.364 86.0785 201.852 86.9265 200.966C87.0307 200.855 86.4203 200.437 86.5192 200.305C86.9385 199.749 87.7286 199.71 88.1043 199.071C88.3931 198.574 88.3049 197.602 88.5905 197.065C89.9054 197.939 90.1666 196.971 90.7144 196.645C90.9058 196.531 91.1781 196.839 91.3828 196.83C92.148 196.787 91.0133 195.989 90.9822 195.724C90.852 194.588 93.0134 196.781 93.5488 196.168C93.5779 196.136 92.8292 194.585 92.8113 194.461C92.6858 193.661 93.2595 194.823 93.5514 194.713C94.0845 194.513 94.6187 194.546 94.7345 193.774C94.7667 193.547 94.3752 192.509 95.1725 192.843C95.2771 192.886 95.632 193.297 95.6806 193.295C96.5297 193.219 95.3695 191.971 95.2492 191.289C95.1291 190.608 96.3666 191.055 96.6871 191.219C97.5185 191.639 96.7705 191.656 96.8174 191.73C97.3776 192.611 97.5682 192.187 97.8662 192.024C99.0508 193.203 99.3152 192.814 98.1705 191.849C98.0449 191.744 97.9666 192.034 97.8662 192.024C96.9471 190.636 97.169 190.136 98.6282 190.863C99.3119 191.204 99.709 191.982 100.074 191.213C100.24 190.865 99.3469 190.126 99.3615 189.68C99.3955 188.661 100.818 188.791 101.245 188.153C101.4 187.922 100.774 187.647 100.865 187.473C101.105 187.01 101.745 187.054 101.938 186.538C101.954 186.49 101.421 186.087 101.527 185.975C102.32 185.117 103.348 184.725 104.239 183.895C104.67 183.494 105.183 182.506 105.675 182.14C106.526 181.502 108.128 181.303 108.623 180.513C108.947 180 108.4 179.61 108.273 179.111C108.027 178.144 109.726 178.683 109.976 178.778C109.984 178.781 109.724 179.243 110.153 179.302C110.752 179.706 109.974 178.784 109.976 178.778C110.139 178.839 110.976 178.251 111.035 178.021C111.066 177.896 110.592 177.485 110.617 177.428C111.213 176.092 112.087 175.044 113.284 174.311C113.31 174.304 113.764 174.836 113.82 174.812C114.61 174.491 114.391 173.521 114.517 172.701C114.643 171.883 115.137 171.648 116.244 172.252C116.498 171.802 117.378 171.699 117.895 171.651C118.413 171.604 117.518 170.578 117.525 170.534C117.745 169.139 118.751 169.258 119.677 168.546C120.119 168.21 120.778 167.312 121.109 166.793C121.37 166.381 121.796 166.416 121.971 165.968C121.995 165.908 121.535 165.51 121.532 165.48C121.386 164.62 122.236 165.855 122.49 165.978C123.416 166.425 123.932 166.642 124.072 165.886C124.105 165.712 122.941 163.877 123.045 163.606C123.183 163.257 123.616 163.9 123.747 163.521C123.758 163.489 123.429 163.151 123.603 163.015C124.406 162.378 125.402 161.811 126.139 161.047C126.241 160.944 125.591 160.529 125.73 160.371C126.381 159.631 127.181 158.91 128.117 158.505C128.348 158.407 128.602 158.889 128.746 158.967C129.621 159.433 129.003 158.135 129.038 158.066C129.857 156.383 131.682 156.358 132.572 154.701C132.618 154.609 132.153 153.032 133.26 153.713C133.334 153.758 134.458 154.464 134.065 153.625C134.041 153.573 133.436 153.234 133.743 153.036C134.05 152.838 134.165 152.119 135.023 152.307C135.294 152.366 136.445 153.042 136.08 151.979C136.053 151.906 134.984 149.734 136.268 150.714C136.479 150.876 137.609 152.131 137.417 151.12C137.378 150.925 136.979 150.785 137.021 150.421C137.083 149.863 137.806 149.8 137.671 148.891C137.647 148.731 137.142 147.631 137.969 148.045C138.098 148.11 138.418 148.583 138.582 148.515C139.362 148.191 139.702 147.35 140.551 147.081C140.852 146.985 141.373 147.746 141.756 147.719C142.138 147.693 142.732 147.453 142.67 146.938C142.608 146.423 141.364 145.602 141.62 145.199C142.735 143.445 144.77 142.689 146.316 141.394C146.546 141.202 146.009 140.995 146.321 140.685C147.471 139.541 149.168 137.26 150.949 137.092C152.376 136.957 151.809 138.422 152.682 138.09C153.102 137.928 152.267 136.394 152.303 136.286C152.643 135.22 153.652 135.293 154.134 134.519C154.234 134.359 153.633 133.986 153.723 133.855C154.026 133.404 154.64 133.243 154.969 132.854C155.116 132.678 154.726 132.328 154.905 132.213C155.33 131.934 155.802 131.789 156.493 131.809C156.556 131.811 156.786 132.489 157.071 132.251C157.531 131.866 158.403 131.705 158.559 130.869C158.604 130.619 157.788 129.748 158.675 130.043C158.86 130.105 159.762 131.226 159.28 129.975C159.201 129.766 158.675 127.962 159.722 128.453C159.998 128.582 161.012 129.238 161.063 128.935C161.067 128.89 160.529 128.517 160.634 128.331C161.011 127.685 161.604 127.217 162 126.564C162.106 126.388 161.436 126.109 161.607 125.863C162.077 125.185 162.925 124.614 163.641 124.222C163.905 124.078 164.138 124.615 164.194 124.644C165.111 125.116 164.353 124.024 164.383 123.891C164.577 123.074 165.39 123.153 165.748 122.589C165.847 122.434 165.324 122.067 165.312 122.002C165.204 121.352 165.779 122.357 166.034 122.287C166.75 122.091 167.245 121.552 167.67 121.038C167.826 120.849 167.128 120.51 167.273 120.346C168.124 119.366 169.146 118.493 170.336 117.915C170.561 117.808 170.837 118.316 170.961 118.375C171.824 118.788 171.347 117.56 171.351 117.397C171.365 116.652 171.853 116.871 172.124 116.487C173.444 114.601 175.69 112.922 177.373 111.604C179.565 109.883 181.493 108.787 183.317 106.866C183.434 106.745 182.799 106.322 182.892 106.21C184.127 104.792 185.663 103.735 186.876 102.289C186.976 102.171 186.33 101.812 186.475 101.606C186.768 101.179 187.26 100.765 187.787 100.576C188.043 100.483 188.216 101.153 188.465 101.05C189.046 100.811 189.536 100.416 189.894 99.9199C190.046 99.7077 189.269 99.4502 189.505 99.2152C191.1 97.6037 192.629 95.9818 194.933 95.0834C195.091 95.0219 196.2 95.9906 196.248 95.5569C195.987 95.2444 195.656 94.8982 195.365 94.5751C197.597 92.1348 200.315 90.2562 202.769 88.0364C202.873 87.9427 202.163 87.5451 202.361 87.3608C203.502 86.2934 204.455 85.0928 206.146 84.5526C206.313 84.4982 207.195 85.5456 207.392 85.0739C207.426 84.9898 207.811 84.3731 207.739 84.0326C207.726 83.9831 207.194 83.6088 207.345 83.4392C208.235 82.4616 209.338 81.6164 210.561 80.9933C210.759 80.8936 211.062 81.5421 211.208 81.4754C212.234 80.9984 212.726 79.8204 213.894 79.5621C214.678 79.3909 215.301 80.4176 216.361 81.005C216.511 81.0878 216.837 80.814 217.316 81.2867C218.521 82.4746 219.646 83.9595 220.947 85.2088C221.228 85.4782 221.353 84.7831 221.754 85.6956C221.78 85.7574 221.695 86.2673 221.84 86.5681C221.94 86.7764 222.503 87.1848 222.593 87.4885C222.682 87.792 222.172 87.4853 222.226 87.8901C222.283 88.2978 222.895 88.7898 222.611 89.1855ZM120.218 171.43C120.942 171.644 119.335 169.87 119.433 170.567C119.44 170.602 120.182 171.421 120.218 171.43ZM87.3157 203.166C88.4004 203.592 87.5776 202.234 86.7638 201.882C85.9507 201.531 86.9863 203.038 87.3157 203.166ZM84.1303 207.251C85.1218 207.457 82.8524 204.933 82.876 205.856C82.8766 205.909 84.0725 207.239 84.1303 207.251ZM215.361 82.4079C215.387 82.4274 215.63 82.2396 215.613 82.2117C215.208 81.5484 214.723 81.9243 215.361 82.4079ZM81.0204 211.357C81.4671 211.566 81.4788 210.825 80.9236 210.565C80.4768 210.356 80.4647 211.098 81.0204 211.357ZM136.273 159.719C136.302 159.74 136.483 159.613 136.341 159.47C135.884 159.009 135.789 159.352 136.273 159.719ZM74.7805 217.331C75.7943 216.545 78.2847 218.046 77.0588 218.773C76.8368 218.905 76.8371 217.751 76.4308 217.789C75.6887 217.858 76.6176 219.403 75.5346 219.13C75.3372 219.079 74.7184 217.371 74.7794 217.327C74.7798 217.328 74.7801 217.33 74.7805 217.331ZM122.354 173.366C122.381 173.383 122.622 173.197 122.605 173.169C122.202 172.505 121.717 172.881 122.354 173.366ZM146.564 151.995C146.623 152.032 147.176 151.594 147.15 151.533C146.562 150.379 145.439 151.263 146.564 151.995ZM108.744 188.691C109.03 189.473 108.805 189.811 107.953 189.296C108.227 189.107 108.472 188.884 108.744 188.691Z" fill="#FC4C02"/>
<path d="M207.325 36.1119C206.531 37.0556 205.169 37.9136 204.047 38.4613C203.695 38.6337 203.569 38.1857 203.314 38.2902C202.816 38.4948 202.585 38.9618 202.072 39.1385C201.9 39.1954 201.626 38.5474 201.456 38.6189C200.528 39.0143 199.941 39.7337 199.103 40.2549C194.971 42.8214 191.195 45.6807 187.276 48.5896C185.984 49.5492 184.099 50.3431 183.003 51.6171C182.876 51.7663 183.344 52.1423 183.347 52.2032C183.386 53.1444 182.765 52.111 182.374 52.2336C180.827 52.7228 179.52 53.7558 178.566 54.8595C178.161 55.3304 179.386 55.8285 178.49 55.7246C178.429 55.7183 178.144 55.1396 177.972 55.1971C177.584 55.3284 177.103 55.8806 176.845 56.0334C176.347 56.3254 176.279 56.3911 175.862 56.7332C175.29 57.1968 174.42 57.5241 173.908 58.1424C173.799 58.2757 174.384 58.6221 174.249 58.879C174.114 59.1361 173.534 59.554 173.253 59.5933C172.972 59.6327 172.725 59.1812 172.618 59.1203C171.721 58.6003 171.964 60.1646 171.904 60.2585C170.795 61.9407 169.032 62.4217 167.647 63.594C166.597 64.4851 165.636 65.6295 164.612 66.4484C163.39 67.4222 162.155 68.0102 161.035 69.0345C160.916 69.142 161.546 69.5976 161.402 69.7301C159.872 71.1374 158.243 72.4054 156.334 73.3505C156.142 73.4448 155.919 72.7661 155.701 72.83C154.381 73.2326 152.003 73.5284 153.288 76.2187C152.559 76.6871 151.687 77.2713 150.724 77.3231C150.104 77.357 150.006 76.4949 149.74 77.1231C149.679 77.2641 150.223 77.6318 150.101 77.8068C149.588 78.5432 148.732 78.9974 148.287 79.8004C148.198 79.9649 148.599 80.3669 148.627 80.4768C148.843 81.3759 147.433 80.779 147.254 80.8004C145.9 80.976 145.447 81.7395 144.618 82.4158C144.425 82.5725 145.14 82.9645 144.973 83.1362C144.096 84.0188 143.074 84.7968 141.929 85.3215C141.673 85.4368 141.445 84.7815 141.301 84.8113C140.673 84.9486 141.366 85.9651 140.779 86.1149C140.656 86.1476 140.348 85.682 140.293 85.649C139.425 85.1299 140.081 86.3493 140.036 86.4267C139.484 87.4279 138.05 86.7873 137.391 87.6058C137.313 87.7048 137.979 88.0617 137.732 88.3072C136.091 89.9463 134.1 91.3758 131.99 92.4226C131.662 92.5861 131.516 92.0194 131.457 91.9842C130.523 91.4435 131.221 92.6356 131.165 92.7495C130.704 93.6217 129.315 93.3011 129.886 94.9406C126.562 97.0106 124.203 100.194 120.33 101.564C120.282 101.583 119.917 101.014 119.822 101.054C118.683 101.523 119.527 102.174 119.756 103.648C119.813 104.019 118.366 103.228 118.253 103.175C117.838 102.982 117.347 102.091 117.246 102.071C116.432 101.932 118.626 104.395 118.078 104.859C118.058 104.869 117.738 104.344 117.653 104.337C117.388 104.313 117.402 104.617 117.127 104.575C116.496 104.476 115.348 103.348 115.461 104.473C115.477 104.618 116.778 105.967 116.232 106.313C116.013 106.45 115.171 107.203 114.851 107.315C114.531 107.426 114.308 106.826 114.274 106.82C113.109 106.761 113.142 106.3 112.055 105.674C110.97 105.051 112.87 107.117 112.939 107.468C113.007 107.819 112.105 107.72 111.84 107.644C111.576 107.569 111.475 107.152 111.287 107.142C110.05 107.079 111.881 108.461 111.941 108.994C112.084 110.252 110.324 109.017 109.701 109.276C109.532 109.346 109.946 109.616 109.857 109.75C109.497 110.276 108.796 110.018 108.646 110.923C108.621 111.071 108.996 112.391 108.125 111.926C108 111.858 107.778 111.367 107.503 111.447C107.092 111.566 106.481 111.934 106.272 112.338C106.118 112.636 106.94 113.059 106.471 113.108C106.262 113.129 106.185 112.54 105.819 112.612C105.455 112.684 104.835 113.235 104.605 113.452C104.376 113.669 104.926 114.052 104.935 114.102C104.978 114.393 104.718 115.021 104.676 115.055C102.669 116.854 100.066 117.623 98.295 119.591C98.1554 119.745 98.7009 120.178 98.6841 120.207C98.3303 120.881 97.5832 119.135 96.8149 118.988C97.7635 120.001 97.3795 119.997 97.0983 120.433C96.9635 120.644 97.4093 120.97 97.4281 121.026C97.683 121.878 96.8149 121.233 96.6273 121.109C95.9366 120.656 96.3453 121.536 95.8814 121.234C95.4202 120.936 95.1984 120.103 94.8411 120.418C95.0592 120.883 96.1658 121.646 96.0252 122.04C95.496 123.527 92.8945 124.392 91.9884 125.019C91.0841 125.645 90.873 125.943 90.2701 126.217C89.1808 126.713 90.124 127.175 89.8616 127.973C89.5976 128.772 88.3369 126.739 87.9298 126.417C87.5243 126.093 87.7776 126.565 87.5011 126.432C87.2248 126.3 87.2092 125.86 86.9159 125.97C86.6226 126.081 86.5895 127.293 86.8527 127.767C87.4109 128.771 88.4522 129.44 87.5869 129.627C87.5366 129.637 87.2465 129.067 87.0744 129.13C85.7209 129.646 84.6167 130.54 83.3002 131.097C83.1186 131.173 82.8001 130.535 82.6893 130.574C81.5342 130.969 82.5982 131.599 82.9584 132.992C81.9519 131.583 81.0071 130.999 80.3407 131.548C79.9397 131.878 80.4943 132.396 80.5805 133.019C80.6069 133.206 79.9923 133.048 80.1701 133.362C80.75 134.389 81.8513 135.156 80.8377 135.336C80.7921 135.343 80.4779 134.778 80.35 134.836C79.5211 135.206 80.2233 136.2 79.5974 136.921C79.1068 137.486 77.6254 137.769 76.9047 138.22C75.6663 136.727 75.3455 137.579 75.9622 138.809C75.5095 139.12 75.1074 139.558 74.5847 139.758C74.4052 139.827 74.1339 139.321 74.0773 139.289C73.1944 138.788 73.8527 139.936 73.7956 140.051C73.1391 141.255 71.7071 141.173 71.3972 142.696C71.3865 142.751 72.2025 143.826 71.3185 143.284C71.2586 143.246 71.1707 142.517 70.7017 142.851C70.2326 143.185 68.9399 143.331 68.7342 144.322C68.6839 144.562 69.0173 145.712 68.1667 145.312C68.052 145.257 67.8461 144.924 67.6498 144.809C67.0217 144.442 67.7992 145.568 66.834 144.869C65.8688 144.169 64.8551 143.891 64.7564 145.019C64.7519 145.053 65.3032 146.001 65.0991 146.151C64.7727 146.39 64.1902 146.587 63.8729 146.864C63.7213 146.997 64.2525 147.426 64.2337 147.458C63.4402 148.62 62.3173 148.786 61.0402 149.525C60.8052 149.659 60.8105 150.852 59.9503 150.632C59.0073 150.392 57.3279 147.502 56.8399 148.941C56.6413 149.519 58.8282 153.138 56.7117 152.093C55.6603 153.683 53.6537 153.928 52.7464 155.696C52.7053 155.775 53.2581 156.834 53.0997 156.947C52.8631 157.113 52.3909 156.799 52.2107 156.904C51.4469 157.334 51.1454 158.199 50.4643 158.679C50.2064 158.863 49.9272 158.361 49.6196 158.58C49.3126 158.798 49.5997 159.527 48.9795 159.582C48.5095 159.621 47.2376 158.711 46.7336 158.905C47.6835 160.06 47.3958 160.263 47.1744 160.967C47.1323 161.102 47.5662 161.417 47.5636 161.502C47.5605 161.856 47.1192 161.664 47.1403 162.028C47.1448 162.116 47.4724 162.508 47.4947 162.602C47.6971 163.415 46.4899 162.931 46.2807 162.846C45.4839 162.525 45.769 163.153 45.3407 163.123C44.9128 163.093 45.0229 162.511 44.6313 162.604C43.8203 162.798 43.1426 163.478 42.5497 163.948C42.3152 164.138 42.9123 164.526 42.889 164.565C42.5239 165.1 41.574 164.953 42.1858 166.213C39.5901 163.81 42.1181 166.716 40.9833 166.754C40.8929 166.756 39.7534 165.545 39.8022 165.185C39.8512 164.825 40.4984 164.958 40.5391 164.426C40.5493 164.301 39.9333 162.785 39.9254 162.668C39.8647 161.755 41.5242 163.601 41.6341 163.687C42.8316 164.601 42.224 162.92 42.2741 162.726C42.5026 161.838 43.2128 161.695 43.4459 161.003C43.6003 160.552 42.5823 159.284 42.8596 159.115C43.7809 158.553 45.5282 160.044 45.0281 157.894C44.9223 157.434 43.6125 156.215 45.104 156.784C45.1979 156.82 46.4605 157.426 46.1922 156.595C46.1582 156.49 45.8232 156.096 45.8371 156.027C45.9367 155.575 46.3902 155.732 46.5689 155.322C46.7476 154.913 46.9257 154.377 47.3885 154.216C47.6669 154.118 48.5595 154.627 48.8127 154.722C49.5363 155.002 49.122 153.892 49.8299 154.372C50.5419 154.854 51.0053 156.109 51.8169 156.123C50.9664 155.081 50.1154 153.993 49.2705 152.936C50.3233 152.109 51.6096 151.592 52.5969 150.68C52.7185 150.566 52.1219 150.124 52.2402 149.987C52.7412 149.414 53.5761 149.384 54.04 148.723C54.3974 148.21 54.4097 147.197 54.768 146.642C56.0558 147.569 56.4351 146.565 57.0462 146.233C57.2598 146.116 57.5128 146.441 57.729 146.434C58.538 146.4 57.4313 145.554 57.4273 145.277C57.4132 144.094 59.4486 146.404 60.0777 145.773C60.1117 145.741 59.4922 144.116 59.4867 143.987C59.4412 143.153 59.9188 144.37 60.2376 144.259C60.8198 144.057 61.3778 144.099 61.583 143.297C61.6414 143.061 61.3419 141.975 62.1441 142.333C62.2493 142.38 62.5781 142.812 62.6294 142.811C63.5303 142.743 62.4454 141.428 62.3926 140.718C62.3399 140.007 63.5926 140.489 63.9118 140.663C64.7406 141.111 63.9523 141.119 63.9936 141.197C64.4873 142.121 64.7336 141.682 65.0645 141.516C66.1824 142.759 66.5025 142.358 65.4033 141.339C65.2825 141.228 65.169 141.528 65.0645 141.516C64.2482 140.06 64.5356 139.542 65.991 140.318C66.6729 140.682 67.0064 141.497 67.4728 140.702C67.685 140.342 66.8263 139.561 66.8898 139.097C67.0356 138.037 68.5176 138.19 69.0349 137.532C69.2226 137.293 68.5948 136.999 68.7091 136.819C69.0112 136.34 69.6797 136.394 69.9377 135.86C69.9605 135.811 69.4435 135.384 69.5668 135.269C70.4937 134.386 71.6162 133.991 72.643 133.139C73.1389 132.727 73.7848 131.706 74.3422 131.331C75.3056 130.678 77.012 130.492 77.617 129.676C78.0135 129.146 77.48 128.734 77.4012 128.212C77.2467 127.203 78.9742 127.786 79.2272 127.889C79.2353 127.892 78.9116 128.369 79.3562 128.437C79.9428 128.864 79.2244 127.895 79.2272 127.889C79.3916 127.954 80.335 127.353 80.4219 127.115C80.4688 126.985 80.0146 126.551 80.0467 126.492C80.8184 125.109 81.8503 124.03 83.1873 123.283C83.2157 123.275 83.6361 123.835 83.6972 123.811C84.5626 123.487 84.4367 122.474 84.6577 121.623C84.8786 120.773 85.4231 120.535 86.5217 121.178C86.838 120.713 87.7737 120.617 88.3229 120.575C88.8721 120.532 88.0421 119.452 88.0548 119.406C88.4368 117.957 89.481 118.095 90.5316 117.366C91.0326 117.021 91.8224 116.096 92.227 115.56C92.5453 115.134 92.9893 115.177 93.2223 114.713C93.2541 114.651 92.8135 114.23 92.8135 114.199C92.7527 113.302 93.5126 114.599 93.7672 114.73C94.6922 115.207 95.2108 115.44 95.4399 114.654C95.4932 114.473 94.4677 112.549 94.6063 112.269C94.789 111.907 95.1746 112.582 95.3534 112.189C95.3691 112.156 95.0597 111.8 95.2571 111.66C96.1697 111.008 97.2781 110.431 98.1355 109.645C98.2537 109.539 97.6158 109.099 97.7787 108.937C98.5437 108.175 99.4627 107.435 100.49 107.026C100.744 106.927 100.958 107.431 101.101 107.514C101.971 108.011 101.462 106.652 101.506 106.58C102.549 104.84 104.47 104.837 105.584 103.125C105.643 103.03 105.324 101.381 106.415 102.106C106.488 102.153 107.594 102.902 107.271 102.024C107.251 101.969 106.651 101.609 106.995 101.407C107.34 101.204 107.538 100.458 108.421 100.665C108.699 100.729 109.836 101.448 109.567 100.337C109.546 100.261 108.657 97.9864 109.901 99.0234C110.105 99.1945 111.158 100.515 111.065 99.4604C111.046 99.257 110.641 99.1059 110.724 98.7283C110.85 98.1481 111.617 98.0916 111.574 97.1443C111.565 96.9775 111.154 95.8255 111.978 96.2678C112.107 96.337 112.392 96.8336 112.571 96.7645C113.427 96.438 113.875 95.5661 114.797 95.2978C115.123 95.202 115.589 96.0004 115.994 95.9779C116.399 95.9552 117.05 95.7134 117.04 95.1766C117.031 94.6396 115.811 93.7695 116.124 93.3529C117.486 91.5424 119.707 90.7814 121.473 89.4537C121.735 89.2568 121.192 89.0349 121.554 88.7164C122.887 87.5402 124.917 85.1883 126.808 85.0367C128.322 84.915 127.568 86.4325 128.522 86.0982C128.981 85.9354 128.268 84.3278 128.318 84.2162C128.791 83.1106 129.844 83.2 130.435 82.4008C130.557 82.2356 129.966 81.8393 130.074 81.7045C130.441 81.2392 131.104 81.0789 131.492 80.6783C131.665 80.4973 131.293 80.1277 131.494 80.0108C131.971 79.7264 132.483 79.5815 133.207 79.611C133.273 79.6137 133.442 80.3221 133.767 80.079C134.292 79.6841 135.226 79.5277 135.481 78.6595C135.556 78.4003 134.792 77.4823 135.692 77.8018C135.88 77.8682 136.707 79.0468 136.336 77.7384C136.275 77.5203 135.917 75.6356 136.965 76.1603C137.241 76.2982 138.236 76.9938 138.323 76.6791C138.332 76.6331 137.806 76.2374 137.936 76.0456C138.402 75.3782 139.076 74.8986 139.564 74.2236C139.694 74.0425 139.02 73.7427 139.227 73.4889C139.794 72.79 140.747 72.2067 141.542 71.8074C141.836 71.6611 142.022 72.2234 142.078 72.2541C142.991 72.7569 142.312 71.611 142.357 71.4726C142.65 70.6252 143.496 70.7183 143.933 70.1355C144.055 69.9759 143.545 69.587 143.538 69.5192C143.495 68.8413 143.991 69.8951 144.267 69.8246C145.041 69.6301 145.619 69.0758 146.122 68.5467C146.306 68.3516 145.609 67.9899 145.779 67.8213C146.78 66.8126 147.949 65.9166 149.262 65.3314C149.51 65.2223 149.746 65.7551 149.87 65.8177C150.732 66.2595 150.364 64.975 150.385 64.805C150.481 64.0304 150.97 64.2647 151.296 63.8678C152.888 61.9224 155.43 60.2042 157.343 58.854C159.833 57.092 161.978 55.9767 164.104 54.0012C164.239 53.8762 163.617 53.4276 163.728 53.3125C165.179 51.8527 166.908 50.7726 168.339 49.283C168.458 49.1618 167.817 48.7797 167.991 48.567C168.346 48.127 168.908 47.7027 169.482 47.5127C169.761 47.419 169.871 48.1182 170.144 48.0145C170.781 47.774 171.339 47.3687 171.769 46.8572C171.951 46.6383 171.163 46.3602 171.436 46.1187C173.286 44.4622 175.069 42.7942 177.589 41.8891C177.761 41.8272 178.823 42.8499 178.921 42.3992C178.679 42.0705 178.369 41.7058 178.098 41.3658C180.708 38.8551 183.769 36.9353 186.589 34.657C186.708 34.5608 186.005 34.1378 186.232 33.9485C187.548 32.8526 188.679 31.6154 190.516 31.0752C190.697 31.0208 191.511 32.1224 191.769 31.6341C191.813 31.547 192.285 30.9101 192.246 30.5548C192.238 30.5032 191.719 30.1066 191.897 29.9321C192.938 28.9262 194.188 28.0609 195.541 27.4284C195.76 27.3272 196.009 28.0061 196.169 27.9385C197.3 27.4555 197.944 26.2359 199.2 25.9823C200.043 25.8144 200.587 26.8911 201.638 27.5163C201.787 27.6044 202.159 27.3237 202.612 27.8219C203.75 29.0739 204.772 30.634 206.005 31.9514C206.271 32.2353 206.478 31.5135 206.801 32.4685C206.821 32.5331 206.677 33.0627 206.797 33.3777C206.88 33.5958 207.428 34.0282 207.489 34.3454C207.549 34.6625 207.047 34.3366 207.06 34.7587C207.076 35.1838 207.666 35.7038 207.325 36.1119ZM90.7889 120.375C91.5266 120.607 90.0295 118.739 90.0568 119.466C90.0599 119.503 90.7519 120.364 90.7889 120.375ZM52.7684 152.976C53.8627 153.433 53.1445 152.008 52.3269 151.632C51.51 151.256 52.436 152.838 52.7684 152.976ZM48.9781 157.185C49.9982 157.413 47.8852 154.756 47.8101 155.717C47.805 155.772 48.9187 157.172 48.9781 157.185ZM200.435 28.9633C200.46 28.9839 200.736 28.7916 200.721 28.7624C200.367 28.0668 199.816 28.4517 200.435 28.9633ZM45.2649 161.418C45.7118 161.642 45.8043 160.87 45.2487 160.592C44.8015 160.369 44.7087 161.141 45.2649 161.418ZM108.934 108.395C108.962 108.418 109.166 108.288 109.032 108.137C108.601 107.651 108.464 108.007 108.934 108.395ZM38.0591 167.554C39.2098 166.75 41.6659 168.344 40.2985 169.085C40.0508 169.219 40.1758 168.019 39.7447 168.052C38.957 168.115 39.7666 169.734 38.6574 169.437C38.4554 169.381 37.9894 167.596 38.0585 167.55C38.0587 167.551 38.0589 167.553 38.0591 167.554ZM92.8252 122.417C92.852 122.436 93.1251 122.244 93.111 122.215C92.7583 121.519 92.2078 121.904 92.8252 122.417ZM120.587 100.491C120.645 100.53 121.274 100.081 121.254 100.017C120.759 98.8089 119.484 99.7142 120.587 100.491ZM76.8611 138.189C77.0772 139.007 76.804 139.356 75.9641 138.809C76.2722 138.615 76.5541 138.387 76.8611 138.189Z" fill="#FC4C02"/>
<path d="M156.265 10.0433C155.558 11.0139 154.286 11.9287 153.225 12.5254C152.893 12.7131 152.734 12.2779 152.491 12.3938C152.017 12.621 151.827 13.0931 151.335 13.2935C151.171 13.3584 150.852 12.7334 150.69 12.8125C149.808 13.2496 149.287 13.9886 148.503 14.5447C144.642 17.284 141.148 20.2968 137.524 23.3609C136.329 24.3723 134.534 25.2536 133.558 26.5636C133.444 26.717 133.934 27.0639 133.942 27.1238C134.053 28.0493 133.362 27.0623 132.989 27.2026C131.508 27.761 130.298 28.8512 129.447 29.9864C129.086 30.471 130.329 30.8999 129.44 30.8428C129.38 30.8397 129.054 30.2838 128.89 30.3491C128.519 30.4981 128.09 31.0662 127.849 31.2295C127.382 31.5418 127.321 31.61 126.937 31.9695C126.409 32.4568 125.578 32.8246 125.123 33.4602C125.027 33.5973 125.629 33.9088 125.516 34.1691C125.403 34.4294 124.866 34.8706 124.593 34.9235C124.32 34.9764 124.042 34.5441 123.932 34.4894C123.01 34.0222 123.372 35.5507 123.321 35.6461C122.361 37.3615 120.661 37.9297 119.394 39.153C118.436 40.0802 117.574 41.2641 116.632 42.1234C115.505 43.1478 114.346 43.7816 113.32 44.8538C113.211 44.9662 113.866 45.3826 113.735 45.521C112.334 46.9928 110.843 48.3153 109.036 49.3499C108.854 49.4531 108.582 48.795 108.373 48.8696C107.103 49.3375 104.79 49.7502 106.267 52.3337C105.591 52.8284 104.775 53.4544 103.831 53.556C103.224 53.6221 103.061 52.7767 102.847 53.4104C102.798 53.5527 103.362 53.8869 103.256 54.0659C102.809 54.8188 102.003 55.3099 101.632 56.1222C101.557 56.2885 101.984 56.6642 102.02 56.7708C102.304 57.6444 100.873 57.1278 100.697 57.1598C99.3748 57.4067 98.9887 58.1837 98.2276 58.8928C98.0509 59.057 98.7843 59.4066 98.6332 59.5843C97.8422 60.499 96.906 61.3113 95.8152 61.8948C95.5722 62.0224 95.2965 61.3878 95.1574 61.4249C94.5495 61.594 95.3111 62.5601 94.7455 62.7384C94.6273 62.7771 94.2874 62.3341 94.2304 62.3045C93.3364 61.838 94.0781 63.0057 94.0399 63.0841C93.5763 64.0998 92.123 63.5361 91.5381 64.3792C91.4688 64.4813 92.1523 64.7972 91.9278 65.0535C90.4292 66.7695 88.6149 68.2533 86.6054 69.4136C86.2958 69.5926 86.1076 69.0412 86.0467 69.0096C85.0851 68.5262 85.8652 69.6648 85.8196 69.7802C85.4351 70.6646 84.046 70.4196 84.7399 72.0032C81.6322 74.2235 79.5642 77.4887 75.877 79.0349C75.8314 79.0557 75.4261 78.5151 75.3371 78.5585C74.2614 79.0755 75.1347 79.6801 75.4765 81.1222C75.5613 81.4853 74.0741 80.7839 73.9588 80.7385C73.5354 80.5701 72.9815 79.7185 72.8805 79.7042C72.0687 79.6105 74.4224 81.9219 73.9224 82.4073C73.9029 82.4185 73.5465 81.9187 73.4625 81.9159C73.2003 81.9061 73.2387 82.2045 72.966 82.1777C72.3382 82.1125 71.1197 81.0617 71.3246 82.1614C71.3524 82.303 72.7404 83.5628 72.2334 83.9307C72.0271 84.0791 71.2542 84.8721 70.9482 84.9996C70.6422 85.1274 70.3751 84.5469 70.3412 84.5434C69.1897 84.5488 69.1863 84.0922 68.0668 83.5336C66.9509 82.9777 68.9844 84.9119 69.0807 85.2543C69.1762 85.5963 68.284 85.5449 68.0184 85.4838C67.7527 85.4227 67.6191 85.0189 67.4343 85.0177C66.2183 85.0182 68.1273 86.2841 68.2305 86.8039C68.4764 88.0328 66.6371 86.9194 66.0451 87.2093C65.8847 87.2882 66.3139 87.5317 66.236 87.6689C65.9234 88.2075 65.2135 87.9918 65.1411 88.8906C65.1289 89.0374 65.6065 90.3157 64.7148 89.9023C64.5868 89.8421 64.328 89.3713 64.0659 89.4636C63.6769 89.5982 63.1014 89.9984 62.9258 90.41C62.7968 90.7137 63.6414 91.0841 63.1821 91.1599C62.9777 91.1932 62.8559 90.6154 62.501 90.7077C62.1471 90.7991 61.5821 91.3777 61.3744 91.6033C61.1671 91.8289 61.7383 92.1772 61.7509 92.2257C61.8175 92.5094 61.6148 93.1412 61.5774 93.1765C59.7538 95.0561 57.2683 95.9476 55.676 97.9988C55.5508 98.1588 56.123 98.5552 56.1088 98.5846C55.8147 99.2695 54.9379 97.5892 54.17 97.4879C55.1859 98.4335 54.8075 98.4512 54.5681 98.896C54.4536 99.111 54.9183 99.4077 54.9414 99.4619C55.2631 100.286 54.3582 99.6973 54.164 99.5857C53.449 99.1759 53.9251 100.019 53.4456 99.7463C52.969 99.4765 52.6792 98.6714 52.358 98.9976C52.6121 99.4427 53.7593 100.136 53.6571 100.528C53.2436 102.039 50.7665 103.03 49.9366 103.691C49.0897 104.368 48.9075 104.674 48.3372 104.979C47.3097 105.528 48.2749 105.93 48.0879 106.727C47.9011 107.524 46.4891 105.595 46.0629 105.3C45.6382 105.004 45.9278 105.453 45.6463 105.337C45.3646 105.221 45.3115 104.79 45.0327 104.915C44.7496 105.044 44.8128 106.247 45.1113 106.699C45.7434 107.657 46.8236 108.256 45.9871 108.491C45.9385 108.504 45.6057 107.959 45.4417 108.031C44.1538 108.619 43.1611 109.546 41.8998 110.186C41.7273 110.272 41.3606 109.662 41.2548 109.707C40.1528 110.164 41.2524 110.722 41.728 112.071C40.6184 110.742 39.6402 110.222 39.0426 110.792C38.6732 111.144 39.2615 111.623 39.3967 112.234C39.4376 112.418 38.8175 112.301 39.0189 112.599C39.6761 113.578 40.824 114.269 39.8423 114.508C39.7979 114.517 39.4407 113.979 39.3199 114.043C38.5388 114.456 39.3146 115.393 38.7731 116.129C38.3367 116.718 36.8915 117.1 36.2308 117.58C34.8834 116.184 34.6485 117.037 35.3675 118.206C34.9489 118.54 34.581 119.008 34.0849 119.236C33.9142 119.315 33.6034 118.833 33.5449 118.806C32.6327 118.367 33.3815 119.456 33.3359 119.573C32.8158 120.78 31.38 120.809 31.215 122.326C31.2096 122.38 32.1073 123.388 31.1926 122.908C31.1306 122.874 30.9759 122.165 30.5496 122.519C30.3772 122.662 30.0708 122.781 29.7624 122.936C29.2902 123.183 28.8127 123.507 28.7455 124.096C28.7173 124.335 29.1506 125.445 28.2834 125.101C28.1663 125.053 27.9332 124.74 27.7307 124.638C27.0832 124.314 27.9517 125.372 26.9451 124.74C25.9319 124.114 24.895 123.921 24.9028 125.038C24.9014 125.072 25.5304 125.969 25.3455 126.129C25.0455 126.387 24.5163 126.595 24.2172 126.902C24.0773 127.047 24.6412 127.431 24.6251 127.465C23.9247 128.691 22.8973 128.87 21.6768 129.721C21.4567 129.872 21.5786 131.042 20.7239 130.875C19.7812 130.699 17.8457 127.978 17.4948 129.439C17.3448 130.034 19.8838 133.401 17.6801 132.548C16.7987 134.194 14.8736 134.562 14.1451 136.39C14.1126 136.471 14.7649 137.469 14.6237 137.59C14.4111 137.769 13.9245 137.487 13.7556 137.607C13.0215 138.119 12.8636 138.944 12.2206 139.497C11.9845 139.7 11.6571 139.229 11.3795 139.468C11.0993 139.71 11.4844 140.377 10.863 140.501C10.4008 140.584 9.05307 139.794 8.59154 140.015C9.65893 141.063 9.37691 141.308 9.24144 142.014C9.21594 142.151 9.67575 142.424 9.68299 142.507C9.72018 142.854 9.27368 142.695 9.33672 143.05C9.34958 143.137 9.71473 143.494 9.74615 143.586C10.0254 144.379 8.79397 144 8.5827 143.931C7.77936 143.67 8.1079 144.286 7.68886 144.29C7.26705 144.297 7.30549 143.718 6.93447 143.842C6.17308 144.092 5.57929 144.831 5.05264 145.35C4.85147 145.552 5.47936 145.882 5.46201 145.921C5.15995 146.489 4.22636 146.42 4.97143 147.609C2.14108 145.492 4.95965 148.117 3.868 148.251C3.77698 148.265 2.50764 147.191 2.5149 146.827C2.50019 146.488 3.18262 146.52 3.13771 146.015C3.12515 145.898 2.35858 144.445 2.32674 144.341C2.14625 143.461 4.00762 145.105 4.12415 145.18C5.42306 145.948 4.60033 144.382 4.63901 144.174C4.7505 143.289 5.4548 143.058 5.58661 142.375C5.68653 141.918 4.54747 140.758 4.80759 140.56C5.62819 139.946 7.53383 141.237 6.79678 139.174C6.64297 138.731 5.22932 137.636 6.75783 138.068C6.8523 138.097 8.15009 138.596 7.80222 137.796C7.75809 137.695 7.38661 137.334 7.39365 137.265C7.4514 136.803 7.91379 136.92 8.0391 136.509C8.16703 136.096 8.28911 135.55 8.74046 135.341C8.99749 135.229 9.92336 135.663 10.1816 135.737C10.919 135.957 10.4019 134.892 11.1518 135.305C11.9041 135.721 12.4867 136.921 13.2872 136.87C12.344 135.911 11.3951 134.907 10.456 133.933C11.3937 133.049 12.6062 132.442 13.5014 131.455C13.6129 131.33 12.9791 130.943 13.0858 130.795C13.5149 130.2 14.3218 130.119 14.7273 129.421C15.0513 128.867 14.9291 127.905 15.2368 127.324C16.5899 128.147 16.8908 127.106 17.4414 126.755C17.6384 126.627 17.9182 126.928 18.1293 126.907C18.9208 126.818 17.7536 126.061 17.7239 125.788C17.5978 124.624 19.8465 126.729 20.3818 126.088C20.4109 126.055 19.6453 124.502 19.6285 124.374C19.5055 123.556 20.0885 124.722 20.3918 124.591C20.9435 124.355 21.517 124.337 21.6365 123.541C21.6687 123.309 21.2686 122.265 22.0892 122.565C22.1968 122.604 22.5596 123.008 22.6099 123.003C23.4886 122.877 22.304 121.652 22.1918 120.951C22.0854 120.244 23.3572 120.64 23.6829 120.795C24.5338 121.187 23.7675 121.238 23.8159 121.312C24.3889 122.186 24.5824 121.746 24.8895 121.564C26.1001 122.717 26.375 122.304 25.2036 121.37C25.075 121.269 24.9924 121.569 24.8895 121.564C23.952 120.185 24.1853 119.659 25.6906 120.325C26.3967 120.637 26.7922 121.423 27.1928 120.597C27.2311 120.519 27.2215 120.426 27.1826 120.323C27.0288 119.941 26.4606 119.417 26.4734 119.056C26.5107 118.013 27.9807 118.071 28.4418 117.38C28.6091 117.129 27.9621 116.882 28.0614 116.695C28.3304 116.19 28.9697 116.224 29.1771 115.68C29.195 115.631 28.6499 115.242 28.7602 115.122C29.5835 114.204 30.6902 113.709 31.6008 112.832C32.048 112.4 32.5993 111.35 33.125 110.937C34.0122 110.24 35.6605 109.968 36.1975 109.116C36.5482 108.564 35.9878 108.19 35.8694 107.678C35.6257 106.698 37.3669 107.177 37.6246 107.263C37.6327 107.266 37.3578 107.752 37.799 107.794C38.4112 108.182 37.6224 107.269 37.6246 107.263C37.7906 107.319 38.6674 106.671 38.7348 106.429C38.7706 106.298 38.287 105.897 38.3139 105.837C38.9851 104.399 39.8641 103.319 41.1327 102.49C41.1601 102.481 41.6201 103.008 41.6784 102.981C42.51 102.604 42.302 101.613 42.4412 100.768C42.5831 99.9212 43.0988 99.6559 44.2332 100.226C44.5062 99.7487 45.4236 99.5956 45.965 99.5176C46.5018 99.4441 45.5925 98.4308 45.6016 98.3844C45.8475 96.9436 46.8844 97.0211 47.8633 96.2378C48.3349 95.8626 49.0317 94.9097 49.3806 94.363C49.6564 93.9277 50.096 93.945 50.2873 93.4747C50.3135 93.4114 49.8457 93.0213 49.8432 92.9912C49.7108 92.1094 50.5638 93.3452 50.825 93.4601C51.7748 93.8781 52.3042 94.0779 52.4701 93.2859C52.509 93.1036 51.3474 91.2595 51.4563 90.98C51.6037 90.6162 52.0388 91.259 52.1802 90.8636C52.1928 90.8302 51.8594 90.4968 52.041 90.3494C52.8799 89.6605 53.9248 89.0284 54.7135 88.1971C54.8225 88.0848 54.1577 87.688 54.3067 87.5168C54.9891 86.731 55.8279 85.9558 56.8071 85.4937C57.0497 85.3817 57.3008 85.8676 57.4483 85.941C58.3444 86.3824 57.7362 85.0682 57.7748 84.9945C58.6687 83.2128 60.5333 83.1281 61.5058 81.3657C61.5564 81.2685 61.1172 79.6539 62.2416 80.3143C62.3171 80.3576 63.4625 81.038 63.0734 80.1911C63.049 80.1382 62.4316 79.8147 62.7522 79.5981C63.0727 79.3813 63.2069 78.636 64.0916 78.7916C64.3709 78.8401 65.5465 79.487 65.1944 78.4048C65.168 78.3311 64.1153 76.1327 65.4237 77.086C65.6373 77.2445 66.7828 78.4847 66.6022 77.4552C66.5663 77.2564 66.1577 77.1279 66.2071 76.7529C66.2814 76.1768 67.0293 76.0821 66.9101 75.1511C66.8878 74.9874 66.3911 73.874 67.2369 74.2655C67.3693 74.3268 67.6894 74.8011 67.8606 74.7232C68.6748 74.3562 69.0582 73.4609 69.9382 73.152C70.2493 73.0417 70.7722 73.8032 71.1671 73.7608C71.5619 73.7184 72.18 73.4472 72.1275 72.9189C72.0749 72.3904 70.8067 71.5973 71.0812 71.1702C72.2826 69.3064 74.3985 68.4454 76.0306 67.0413C76.2732 66.8328 75.7217 66.6434 76.0535 66.309C77.2888 65.0614 79.0692 62.6642 80.9292 62.4025C82.4137 62.1979 81.7858 63.74 82.701 63.3563C83.1426 63.1685 82.3092 61.6269 82.3499 61.5138C82.7235 60.4027 83.765 60.4364 84.2837 59.6167C84.3907 59.4472 83.7782 59.0877 83.8745 58.9489C84.1995 58.4703 84.8406 58.2758 85.1927 57.8583C85.3495 57.6699 84.9548 57.3247 85.1435 57.1986C85.5876 56.8957 86.0779 56.7277 86.7909 56.7201C86.8559 56.7194 87.078 57.4083 87.3779 57.1525C87.862 56.7371 88.7675 56.5346 88.9509 55.6642C89.004 55.4045 88.1808 54.5394 89.0919 54.8063C89.2825 54.8617 90.1874 55.9811 89.7217 54.7087C89.6454 54.4963 89.1481 52.654 90.2165 53.12C90.4984 53.242 91.5302 53.8769 91.5902 53.5627C91.5953 53.517 91.0478 53.1539 91.1602 52.9585C91.5642 52.2779 92.1889 51.7704 92.6166 51.0787C92.7299 50.893 92.0435 50.633 92.2272 50.3715C92.7312 49.6523 93.6289 49.0213 94.3735 48.5917C94.6501 48.4331 94.878 48.9772 94.9357 49.0047C95.8717 49.454 95.1141 48.3597 95.1475 48.2211C95.3675 47.3717 96.2067 47.4197 96.5914 46.8219C96.6988 46.6581 96.1666 46.3012 96.1552 46.2346C96.0603 45.568 96.6295 46.5817 96.8954 46.4976C97.6415 46.2659 98.1742 45.6823 98.6226 45.1388C98.7875 44.9378 98.0744 44.6164 98.2282 44.442C99.129 43.3997 100.208 42.4563 101.456 41.809C101.692 41.6881 101.965 42.2015 102.092 42.2568C102.975 42.6471 102.514 41.3982 102.522 41.229C102.554 40.4618 103.053 40.6684 103.342 40.2612C104.749 38.2668 107.125 36.4324 108.894 35.0091C111.209 33.1401 113.225 31.937 115.164 29.8774C115.288 29.747 114.641 29.3368 114.741 29.2175C116.06 27.6985 117.666 26.5551 118.961 25.0096C119.068 24.8839 118.408 24.5402 118.564 24.3213C118.878 23.8693 119.401 23.419 119.949 23.2045C120.215 23.0983 120.378 23.7816 120.638 23.6657C121.244 23.3971 121.761 22.9697 122.144 22.4437C122.306 22.2187 121.509 21.9846 121.759 21.7327C123.451 20.0042 125.073 18.2694 127.48 17.2493C127.645 17.1794 128.767 18.1336 128.829 17.684C128.566 17.3723 128.233 17.0286 127.94 16.7072C130.312 14.0979 133.174 12.0486 135.767 9.66154C135.876 9.56071 135.153 9.17926 135.362 8.98119C136.569 7.83466 137.589 6.55458 139.35 5.93061C139.524 5.86778 140.41 6.91248 140.625 6.4181C140.662 6.33001 141.077 5.67832 141.011 5.33002C140.999 5.2795 140.458 4.91491 140.619 4.73381C141.564 3.6896 142.728 2.77178 144.008 2.08026C144.216 1.96946 144.513 2.62603 144.665 2.55136C145.739 2.01794 146.278 0.782975 147.493 0.469169C148.308 0.260877 148.927 1.2947 150.009 1.85772C150.162 1.93706 150.506 1.64143 150.989 2.10965C152.205 3.28619 153.331 4.77239 154.646 6.00848C154.929 6.27498 155.076 5.55287 155.468 6.47795C155.493 6.54059 155.392 7.07005 155.535 7.37449C155.633 7.58534 156.205 7.98376 156.289 8.29345C156.374 8.60294 155.854 8.30722 155.9 8.72262C155.948 9.1409 156.569 9.62363 156.265 10.0433ZM48.3618 99.1919C49.1055 99.3797 47.4793 97.6235 47.5668 98.3371C47.573 98.3737 48.3246 99.1834 48.3618 99.1919ZM13.8924 133.709C15.0086 134.082 14.1651 132.728 13.3221 132.421C12.4808 132.113 13.5538 133.596 13.8924 133.709ZM10.6018 138.148C11.6344 138.283 9.28298 135.835 9.30005 136.797C9.30045 136.852 10.5418 138.14 10.6018 138.148ZM148.938 3.34538C148.964 3.36442 149.22 3.16086 149.204 3.13277C148.802 2.46497 148.29 2.8724 148.938 3.34538ZM7.42165 142.62C7.88051 142.805 7.88907 142.034 7.31083 141.811C6.84342 141.634 6.84799 142.392 7.42165 142.62ZM65.2201 86.3824C65.2495 86.4036 65.4404 86.2633 65.2968 86.1218C64.8335 85.6668 64.7266 86.0256 65.2201 86.3824ZM1.11345 149.312C2.11712 148.448 4.74595 149.732 3.48857 150.61C3.26004 150.769 3.24813 149.561 2.81922 149.648C2.43129 149.724 2.4998 150.125 2.49601 150.51C2.50309 150.693 2.4815 150.883 2.38631 151.011C2.32577 151.086 2.27171 151.126 2.13276 151.187C2.07418 151.206 1.9865 151.245 1.82374 151.295C1.7774 151.29 1.56014 151.435 1.14019 151.388C0.808974 151.375 0.400674 151.047 0.317601 150.812C0.243803 150.644 0.23849 150.527 0.239941 150.442C0.247887 150.327 0.296051 150.335 0.363018 150.391C0.398386 150.423 0.437414 150.471 0.506591 150.558C0.54666 150.607 0.569388 150.635 0.674224 150.745C0.768278 150.839 0.943063 150.934 1.10324 150.939C1.36465 150.931 1.4265 150.818 1.47614 150.746C1.49301 150.681 1.49437 150.618 1.49151 150.555C1.48412 150.429 1.43351 150.325 1.40459 150.205C1.24092 149.764 1.08417 149.328 1.11214 149.307C1.11257 149.309 1.11301 149.31 1.11345 149.312ZM50.5321 101.09C50.5599 101.107 50.8124 100.903 50.7961 100.875C50.3918 100.209 49.8827 100.619 50.5321 101.09ZM76.0402 77.9668C76.0997 78.003 76.6811 77.5284 76.6556 77.4666C76.0725 76.3024 74.8943 77.2596 76.0402 77.9668ZM36.1854 117.552C36.4711 118.342 36.238 118.697 35.3693 118.205C35.6499 118.001 35.9032 117.763 36.1854 117.552Z" fill="#FC4C02"/>
<path d="M117.715 9.83661C117.202 10.5742 116.2 11.1711 115.348 11.5228C115.081 11.6338 114.901 11.2256 114.705 11.288C114.321 11.4103 114.203 11.7942 113.801 11.8904C113.666 11.9207 113.33 11.3198 113.199 11.3631C112.485 11.6037 112.11 12.1682 111.492 12.5295C108.446 14.3077 105.744 16.3843 102.93 18.49C102.004 19.1833 100.552 19.664 99.8398 20.6581C99.7572 20.7745 100.212 21.1587 100.225 21.2126C100.411 22.044 99.7205 21.0647 99.413 21.1275C98.1938 21.38 97.2715 22.1318 96.6474 22.9951C96.3841 23.3627 97.4945 23.9408 96.7252 23.7469C96.6726 23.7344 96.3387 23.193 96.204 23.2239C95.8994 23.2948 95.5863 23.7249 95.3949 23.8295C95.024 24.0286 94.9778 24.0784 94.6847 24.3309C94.2805 24.672 93.6048 24.8587 93.2775 25.3417C93.2087 25.4463 93.7563 25.8177 93.6846 26.0283C93.6126 26.239 93.1939 26.5404 92.9643 26.5428C92.7345 26.5452 92.4531 26.1201 92.3532 26.0543C91.5149 25.4946 91.9744 26.8972 91.9399 26.9728C91.2824 28.325 89.891 28.5363 88.9146 29.4125C88.1775 30.0762 87.5585 30.9709 86.8354 31.5709C85.9759 32.2807 85.0268 32.6631 84.2556 33.4332C84.1736 33.514 84.7772 33.9866 84.678 34.0865C83.6251 35.1462 82.4689 36.0702 81.0181 36.6847C80.8724 36.7456 80.5738 36.1237 80.4019 36.1549C79.3582 36.3581 77.4169 36.3399 78.9368 38.851C78.3991 39.181 77.7614 39.5955 76.9618 39.5307C76.4467 39.4894 76.2231 38.7209 76.1026 39.2421C76.0748 39.359 76.592 39.7445 76.5185 39.8842C76.2089 40.4718 75.5663 40.7712 75.3275 41.4232C75.28 41.5569 75.6831 41.9563 75.7248 42.0558C76.0526 42.871 74.7693 42.187 74.6223 42.1855C73.5118 42.1865 73.2568 42.8055 72.6732 43.3037C72.5376 43.419 73.2018 43.8456 73.0896 43.9769C72.5015 44.6497 71.7737 45.2135 70.8947 45.5473C70.6985 45.6197 70.3995 45.0176 70.2836 45.0275C69.7781 45.0769 70.527 46.0493 70.0586 46.1138C69.9609 46.1285 69.6255 45.6841 69.5736 45.6488C68.7599 45.0935 69.5116 46.2396 69.4864 46.3023C69.1882 47.1181 67.8826 46.3881 67.4657 47.0303C67.4161 47.1088 68.0344 47.4974 67.8665 47.6861C66.7473 48.9485 65.3263 49.9624 63.7216 50.6461C63.4727 50.7532 63.2574 50.238 63.202 50.2004C62.328 49.6196 63.1094 50.7468 63.0813 50.8408C62.8363 51.5556 61.6179 51.1148 62.3682 52.6191C59.9225 54.0552 58.4735 56.5763 55.4384 57.3473C55.4011 57.3582 55.0003 56.8172 54.9278 56.841C54.0506 57.1222 54.8665 57.7898 55.3046 59.1082C55.4139 59.4399 54.0733 58.576 53.968 58.519C53.5869 58.3027 53.0286 57.4639 52.9402 57.4351C52.2312 57.2222 54.4796 59.6354 54.0943 59.9825C54.0786 59.9892 53.724 59.4919 53.6513 59.476C53.4242 59.4252 53.4856 59.6941 53.2478 59.6267C52.7003 59.4683 51.5501 58.3474 51.8308 59.3484C51.8684 59.4773 53.1834 60.8108 52.7828 61.0514C52.6217 61.1464 52.0425 61.7091 51.7942 61.7691C51.5459 61.8292 51.2583 61.2774 51.2289 61.2687C50.2456 61.0799 50.1929 60.6834 49.1757 60.0106C48.1602 59.3422 50.0968 61.3719 50.2121 61.689C50.3265 62.0057 49.5514 61.8176 49.3164 61.7213C49.0813 61.6249 48.9281 61.2477 48.7685 61.2171C47.7188 61.0228 49.4853 62.4439 49.623 62.9183C49.9511 64.0399 48.2706 62.7539 47.793 62.9088C47.6639 62.9507 48.0556 63.2355 48.003 63.3423C47.791 63.76 47.1622 63.4524 47.1812 64.235C47.1842 64.3625 47.7153 65.566 46.9062 65.0594C46.79 64.9859 46.5227 64.5294 46.3047 64.5691C45.9785 64.6279 45.5262 64.8818 45.4182 65.2116C45.3387 65.4553 46.0985 65.9206 45.7135 65.9099C45.5421 65.9046 45.3793 65.3794 45.0851 65.4005C44.7917 65.421 44.3673 65.8318 44.2125 65.994C44.0566 66.1577 44.5808 66.5575 44.5967 66.6019C44.6801 66.8629 44.5623 67.3886 44.5331 67.4138C43.1343 68.7767 41.0924 69.144 39.9248 70.6799C39.8336 70.7988 40.3633 71.2411 40.3541 71.2644C40.1708 71.8141 39.2517 70.1983 38.584 69.9813C39.5486 70.9779 39.2263 70.9302 39.0659 71.279C38.9894 71.4478 39.417 71.785 39.4423 71.8362C39.8007 72.6103 38.9656 71.9452 38.7861 71.817C38.1288 71.3425 38.6167 72.1629 38.1762 71.8468C37.7384 71.5336 37.4156 70.7758 37.1655 71.0142C37.4253 71.4478 38.483 72.2404 38.4288 72.5719C38.2173 73.8313 36.2156 74.2642 35.5366 74.7335C34.8766 75.1856 34.7504 75.4225 34.2911 75.5948C33.4636 75.9039 34.3313 76.417 34.2493 77.0836C34.1679 77.7496 32.7636 75.8288 32.3691 75.4993C31.9737 75.171 32.2641 75.614 32.0087 75.4678C31.7536 75.3214 31.6692 74.9318 31.4391 74.9978C31.2086 75.0644 31.3799 76.1281 31.6803 76.5736C32.3166 77.5176 33.3028 78.2213 32.6072 78.2887C32.5667 78.292 32.2277 77.7596 32.0939 77.7956C31.0472 78.094 30.2761 78.7495 29.2543 79.1007C29.1142 79.1473 28.7402 78.5522 28.6534 78.5736C27.7496 78.7926 28.749 79.4633 29.2877 80.7241C28.2056 79.3758 27.3142 78.758 26.8552 79.1587C26.5758 79.4019 27.1242 79.9223 27.2994 80.4799C27.3521 80.6481 26.8067 80.4433 27.0085 80.7387C27.6673 81.7051 28.7218 82.5006 27.8986 82.5482C27.8612 82.5489 27.5025 82.0182 27.4046 82.0548C26.7708 82.2886 27.5278 83.2381 27.1312 83.7945C26.8307 84.2214 25.6041 84.3341 25.0821 84.6443C23.7894 83.1972 23.6662 83.9078 24.3956 85.0522C24.076 85.2676 23.8087 85.6117 23.3979 85.7342C23.2575 85.7763 22.9448 85.3016 22.8917 85.2678C22.0628 84.7338 22.8097 85.8135 22.7809 85.9084C22.4285 86.8971 21.2396 86.6434 21.2175 87.9653C21.2176 88.0121 22.0854 89.0447 21.2499 88.4739C21.1931 88.4339 20.9958 87.7848 20.658 88.0274C20.3145 88.275 19.2847 88.2341 19.2639 89.097C19.26 89.3038 19.7327 90.3528 18.9491 89.9099C18.8432 89.8493 18.6135 89.5356 18.4287 89.413C17.838 89.0237 18.6843 90.0955 17.7548 89.3765C16.8206 88.6619 15.9457 88.286 16.0418 89.2787C16.0435 89.3086 16.6669 90.2013 16.5191 90.3129C16.2822 90.4906 15.826 90.6022 15.6105 90.8084C15.5075 90.9074 16.0269 91.3411 16.0169 91.3669C15.9052 91.5937 15.7681 91.7643 15.6114 91.8996C15.0942 92.3482 14.3939 92.4623 13.6992 92.833C13.5416 92.9111 13.7234 93.9845 12.966 93.6985C12.1332 93.3888 10.2069 90.6885 10.0638 91.8848C10.0105 92.3598 12.4544 95.7859 10.5031 94.642C9.91078 95.9174 8.23779 95.9574 7.82445 97.3899C7.80167 97.4576 8.45398 98.4431 8.33956 98.5283C8.16789 98.6534 7.71317 98.3329 7.58195 98.4066C7.04703 98.6828 6.90557 99.4558 6.45479 99.7827C6.26842 99.9229 5.93665 99.4612 5.71442 99.6288C5.49179 99.7976 5.88487 100.447 5.3746 100.44C4.97566 100.444 3.72448 99.5432 3.34822 99.6614C4.37879 100.745 4.15373 100.919 4.12519 101.5C4.1208 101.612 4.54735 101.922 4.56419 101.994C4.6451 102.291 4.21349 102.11 4.31224 102.424C4.33492 102.5 4.69366 102.864 4.7331 102.946C5.09909 103.642 3.95994 103.161 3.77621 103.063C3.03835 102.732 3.4125 103.302 3.05976 103.242C2.68056 103.212 2.64464 102.699 2.3241 102.78C2.16524 102.815 2.01396 102.886 1.87462 102.984C1.81528 103.02 1.72978 103.099 1.66243 103.172C1.63042 103.208 1.59261 103.249 1.53668 103.348C1.51117 103.396 1.48421 103.45 1.46153 103.536C1.44715 103.599 1.40521 103.772 1.49459 103.993C1.56482 104.222 1.89582 104.409 1.96345 104.41C2.40189 104.489 2.44756 104.378 2.51444 104.376C2.57813 104.354 2.65054 104.321 2.69025 104.302C2.76855 104.266 2.86542 104.211 2.93116 104.173C3.06765 104.093 3.20419 104.003 3.32284 103.931C3.52269 103.805 3.0083 103.329 3.02814 103.298C3.29628 102.909 4.0926 103.229 3.49721 101.985C5.81188 104.643 3.51686 101.551 4.44197 101.743C4.5161 101.759 5.5544 103.057 5.54116 103.369C5.53226 103.678 4.97776 103.441 4.98204 103.907C4.97789 104.02 5.58826 105.497 5.5885 105.612C5.66367 106.462 4.19336 104.46 4.09982 104.359C3.07725 103.28 3.61682 104.932 3.52114 105.122C3.49613 105.215 3.4124 105.325 3.3407 105.41C3.28128 105.488 3.13923 105.604 2.89259 105.713C2.86033 105.73 2.67886 105.799 2.44039 105.833C2.3154 105.851 2.16004 105.865 1.9507 105.847C1.8462 105.837 1.72774 105.819 1.59539 105.785C1.45916 105.745 1.33979 105.718 1.06758 105.566C0.570885 105.301 0.145034 104.67 0.0563075 104.191C-0.0523252 103.716 0.0248255 103.352 0.0541857 103.211C0.0961021 103.017 0.144801 102.889 0.187665 102.784C0.384716 102.354 0.413478 102.351 0.489899 102.223C0.73952 101.848 0.882556 101.693 0.929164 101.359C0.979702 100.945 -0.191228 99.8193 0.0446466 99.646C0.748433 99.1597 2.54699 100.574 1.68925 98.6618C1.51075 98.2505 0.157014 97.0882 1.55315 97.6805C1.63815 97.7206 2.81689 98.3589 2.44131 97.5996C2.39367 97.5041 2.03476 97.131 2.03517 97.0704C2.05337 96.6635 2.44124 96.8635 2.52213 96.5139C2.59883 96.1683 2.66777 95.6974 3.01739 95.6088C3.23264 95.5499 4.08438 96.0727 4.31827 96.1769C4.99476 96.4744 4.42921 95.4757 5.11306 95.9638C5.8 96.4547 6.42271 97.594 7.10632 97.6867C6.19908 96.6937 5.28324 95.66 4.37853 94.6541C5.13883 94.0077 6.13772 93.6732 6.78595 92.992C6.86759 92.9046 6.28667 92.457 6.3619 92.3492C6.68285 91.8957 7.40043 91.9347 7.65884 91.4173C7.86272 91.0095 7.715 90.1049 7.91963 89.6549C9.15767 90.6073 9.29376 89.773 9.76085 89.5356C9.9236 89.4524 10.1928 89.7632 10.3765 89.7768C11.0617 89.8217 9.97401 88.9736 9.92309 88.73C9.69571 87.6997 11.8066 89.9408 12.2291 89.4513C12.2517 89.4266 11.4561 87.9308 11.4313 87.8151C11.2581 87.0708 11.8619 88.1953 12.1171 88.1264C12.1303 88.1228 12.1434 88.1194 12.1566 88.1162C12.59 88.0236 13.0363 88.0996 13.0692 87.4374C13.0775 87.2371 12.641 86.2511 13.3816 86.6466C13.4786 86.6983 13.8288 87.1129 13.8722 87.1164C14.6305 87.1418 13.4869 85.8783 13.3168 85.2526C13.1457 84.6279 14.2797 85.1868 14.5781 85.3737C15.3515 85.8559 14.6901 85.7786 14.7385 85.8509C15.3122 86.7138 15.4422 86.3571 15.6933 86.2457C16.8452 87.4568 17.0484 87.1365 15.9495 86.125C15.8289 86.015 15.7832 86.2671 15.6933 86.2457C14.7592 84.8792 14.9163 84.4525 16.2823 85.2813C16.9151 85.6766 17.335 86.4262 17.5833 85.787C17.6973 85.4966 16.8436 84.7176 16.8166 84.3185C16.7527 83.4098 18.045 83.6864 18.3639 83.169C18.4779 82.9828 17.9036 82.6534 17.967 82.5099C18.1343 82.1275 18.703 82.2498 18.8295 81.8085C18.8405 81.7679 18.3337 81.3374 18.4181 81.2496C19.0553 80.5689 19.9327 80.3442 20.6445 79.7159C20.989 79.4115 21.372 78.5748 21.7798 78.3047C22.4658 77.85 23.8678 77.8754 24.248 77.2182C24.4972 76.7923 23.9815 76.3695 23.8272 75.9034C23.5219 75.0057 25.0664 75.7131 25.2961 75.8313C25.3033 75.8355 25.1137 76.2161 25.4972 76.3259C26.061 76.7672 25.2948 75.8365 25.2961 75.8313C25.4442 75.9077 26.136 75.4851 26.1707 75.284C26.1888 75.1749 25.7343 74.7434 25.7517 74.6953C26.1898 73.547 26.8459 72.7416 27.8529 72.2272C27.8756 72.2238 28.3221 72.7622 28.3695 72.7476C29.0421 72.5597 28.7855 71.6401 28.8182 70.9275C28.8564 70.2101 29.2727 70.0639 30.302 70.7514C30.4893 70.3794 31.2613 70.398 31.7181 70.4198C32.1748 70.4417 31.2987 69.4 31.3019 69.3609C31.3876 68.1255 32.2714 68.3776 33.0354 67.8532C33.3983 67.6073 33.9144 66.8776 34.1696 66.4479C34.3622 66.1135 34.7403 66.2022 34.8571 65.8231C34.8731 65.772 34.4335 65.3528 34.4283 65.326C34.2265 64.5329 35.0808 65.7561 35.316 65.9002C36.1712 66.4246 36.6445 66.6877 36.7072 66.023C36.7221 65.8703 35.5426 64.0637 35.6137 63.832C35.7089 63.5338 36.1439 64.1703 36.2309 63.8432C36.2389 63.8157 35.9199 63.4685 36.0641 63.3668C36.7264 62.8929 37.5471 62.5241 38.1402 61.9277C38.2221 61.8478 37.6133 61.3896 37.7235 61.265C38.2395 60.6822 38.9038 60.1226 39.687 59.8897C39.8831 59.8325 40.1471 60.2992 40.2807 60.3881C41.0918 60.9241 40.4383 59.6739 40.4639 59.6159C41.0468 58.2096 42.6787 58.4068 43.3175 57.0421C43.351 56.9656 42.8097 55.4825 43.8452 56.2417C43.9144 56.2919 44.967 57.0748 44.5517 56.2663C44.5257 56.2158 43.9624 55.832 44.219 55.6924C44.4754 55.5527 44.5214 54.9175 45.2998 55.1962C45.5459 55.2831 46.6147 56.0472 46.2036 55.0426C46.1735 54.9737 45.049 52.877 46.2644 53.9293C46.4641 54.1028 47.5654 55.3822 47.3132 54.4459C47.2634 54.2652 46.899 54.0864 46.9061 53.7642C46.9156 53.269 47.5516 53.3058 47.3607 52.467C47.326 52.3193 46.7923 51.2592 47.5587 51.7398C47.6787 51.815 47.9996 52.2841 48.1399 52.243C48.8061 52.0518 49.0305 51.3443 49.7604 51.2134C50.0179 51.1666 50.5411 51.9209 50.8772 51.9473C51.2133 51.9737 51.7199 51.8348 51.6242 51.3616C51.5284 50.8881 50.3601 49.9858 50.5558 49.6543C51.4151 48.2063 53.1295 47.8132 54.4054 46.8371C54.5941 46.693 54.1012 46.4372 54.3546 46.1968C55.2766 45.3186 56.5886 43.4892 58.1598 43.5637C59.4103 43.6305 59.0306 44.8743 59.7728 44.6924C60.1295 44.6034 59.2659 43.1109 59.2891 43.0188C59.5018 42.1037 60.4002 42.3028 60.7661 41.6671C60.8415 41.5357 60.28 41.1203 60.3492 41.014C60.5818 40.6464 61.1139 40.5798 61.3758 40.2703C61.4924 40.1301 61.1187 39.7634 61.2675 39.6843C61.6192 39.4908 62.0238 39.4232 62.6356 39.5328C62.6913 39.5428 62.9497 40.1839 63.1822 40.0082C63.5572 39.7223 64.3152 39.6921 64.3874 38.9578C64.4075 38.7384 63.6156 37.8446 64.4243 38.2274C64.5935 38.3071 65.4806 39.4375 64.9558 38.2444C64.8683 38.0464 64.2646 36.3439 65.2265 36.9286C65.4806 37.0817 66.429 37.8075 66.4496 37.5415C66.4494 37.5022 65.9436 37.0941 66.0209 36.941C66.3007 36.4095 66.787 36.066 67.0861 35.5287C67.1651 35.3842 66.5501 35.0439 66.6821 34.8444C67.0438 34.2955 67.7525 33.8879 68.3541 33.6283C68.5758 33.5344 68.8251 34.0491 68.8773 34.0826C69.7251 34.6299 68.9667 33.5458 68.9816 33.4297C69.0865 32.7203 69.8115 32.8996 70.0825 32.4378C70.1585 32.3116 69.6664 31.9115 69.6501 31.8511C69.5027 31.2507 70.0915 32.2333 70.3113 32.2029C70.9297 32.1207 71.3253 31.6991 71.662 31.2904C71.7851 31.1395 71.1397 30.7425 71.2558 30.6134C71.9324 29.84 72.7595 29.1931 73.7676 28.8284C73.9581 28.7609 74.2433 29.2561 74.3575 29.3253C75.1535 29.8122 74.6345 28.641 74.6247 28.4939C74.5787 27.8237 75.0281 28.0853 75.2385 27.7731C76.252 26.2497 78.1055 25.0311 79.4913 24.063C81.2847 22.8083 82.9174 22.0618 84.3689 20.5783C84.462 20.4842 83.8667 20.0185 83.9406 19.9302C84.916 18.8173 86.2006 18.0586 87.1517 16.9198C87.231 16.827 86.6309 16.4174 86.7424 16.2509C86.9676 15.9055 87.3695 15.5976 87.8201 15.4967C88.0391 15.4465 88.2458 16.0735 88.458 16.0137C88.9528 15.8756 89.355 15.5834 89.6332 15.1829C89.7506 15.0114 89.0427 14.6767 89.2328 14.4956C90.5164 13.2518 91.7349 11.9956 93.7048 11.4874C93.8398 11.4528 94.8985 12.4727 94.9065 12.0884C94.6501 11.7719 94.3303 11.4159 94.0469 11.0859C95.8227 9.18402 98.0819 7.84587 100.074 6.17071C100.158 6.09987 99.4984 5.64727 99.6583 5.50716C100.584 4.69542 101.331 3.73828 102.783 3.47587C102.927 3.44897 103.79 4.51043 103.926 4.11118C103.949 4.03983 104.241 3.53465 104.15 3.21799C104.135 3.17166 103.634 2.76352 103.755 2.63064C104.464 1.86681 105.373 1.24989 106.404 0.850499C106.572 0.7869 106.892 1.41193 107.015 1.37103C107.885 1.07701 108.226 0.0797263 109.238 0.00154857C109.918 -0.0489603 110.551 0.959709 111.536 1.63C111.675 1.7245 111.941 1.52078 112.402 2.01057C113.562 3.24158 114.676 4.72996 115.926 6.02933C116.195 6.30939 116.251 5.69903 116.678 6.57524C116.706 6.6344 116.672 7.08304 116.824 7.37363C116.929 7.5748 117.46 8.01773 117.563 8.30347C117.666 8.58901 117.19 8.24486 117.271 8.61716C117.353 8.99245 117.934 9.51726 117.715 9.83661ZM33.7563 70.5204C34.4124 70.8089 32.8441 69.0012 32.9901 69.64C32.999 69.673 33.7236 70.5068 33.7563 70.5204ZM7.34385 95.017C8.3673 95.5069 7.48256 94.2112 6.73811 93.7899C5.98341 93.3794 7.0346 94.8676 7.34385 95.017ZM4.91811 98.3449C5.81883 98.6381 3.53607 96.127 3.65896 96.955C3.66354 97.004 4.86447 98.3292 4.91811 98.3449ZM110.762 2.76272C110.787 2.78368 110.987 2.64648 110.97 2.61917C110.559 1.96727 110.159 2.24199 110.762 2.76272ZM2.59773 101.771C3.01905 101.996 2.95627 101.309 2.41905 101.039C1.9756 100.833 2.06552 101.498 2.59773 101.771ZM47.0036 62.0479C47.0309 62.0713 47.1797 61.9809 47.0425 61.8332C46.6002 61.3579 46.5454 61.6533 47.0036 62.0479ZM6.79121 101.584C5.9073 102.086 3.74627 100.201 4.80829 99.8026C5.00089 99.7301 5.00158 100.774 5.35505 100.825C5.99948 100.918 5.18959 99.326 6.13227 99.7978C6.30408 99.8847 6.84481 101.561 6.79213 101.588C6.79182 101.587 6.79152 101.585 6.79121 101.584ZM35.8051 72.5431C35.8306 72.5627 36.0268 72.4265 36.0101 72.3994C35.5973 71.7489 35.2018 72.023 35.8051 72.5431ZM55.477 56.4339C55.5317 56.4754 55.9873 56.1516 55.9594 56.0932C55.3459 54.9748 54.4223 55.6268 55.477 56.4339ZM25.0404 84.6123C25.3605 85.3532 25.1925 85.6266 24.3971 85.0522C24.6201 84.919 24.8165 84.7514 25.0404 84.6123Z" fill="#FC4C02"/>
</svg>
