<svg width="174" height="117" viewBox="0 0 174 117" fill="none" xmlns="http://www.w3.org/2000/svg">
<path d="M1.38441 101.8C2.30205 101.541 3.5318 101.697 4.47402 101.952C4.76922 102.03 4.64564 102.462 4.85046 102.535C5.25101 102.678 5.60427 102.451 6.00181 102.626C6.13368 102.686 6.01105 103.365 6.14847 103.413C6.90108 103.669 7.58941 103.459 8.3433 103.561C12.0582 104.061 15.682 104.111 19.4188 104.204C20.6493 104.234 22.1776 104.756 23.4258 104.416C23.572 104.376 23.4493 103.792 23.4746 103.742C23.8727 102.973 23.7954 104.17 24.0929 104.311C25.2744 104.867 26.5438 104.847 27.633 104.553C28.0953 104.427 27.5559 103.286 28.0664 103.914C28.1018 103.956 28.0206 104.588 28.153 104.647C28.4531 104.78 28.9981 104.635 29.2263 104.671C29.6665 104.743 29.7372 104.732 30.1489 104.715C30.7128 104.695 31.4008 104.965 31.9946 104.786C32.1212 104.746 31.9115 104.116 32.1098 103.995C32.3083 103.873 32.8541 103.894 33.0462 104.033C33.2384 104.173 33.1919 104.681 33.2314 104.795C33.5588 105.752 34.1047 104.364 34.1832 104.325C35.6224 103.664 36.9323 104.352 38.3174 104.26C39.366 104.189 40.4728 103.861 41.4744 103.83C42.6654 103.794 43.6989 104.073 44.8509 103.934C44.9725 103.92 44.7778 103.177 44.926 103.158C46.4961 102.962 48.0806 102.932 49.6873 103.327C49.8494 103.367 49.6931 104.043 49.858 104.122C50.8672 104.595 52.491 105.787 52.8502 102.867C53.5148 102.93 54.3176 102.986 54.9462 103.521C55.3515 103.865 55.0411 104.613 55.4801 104.27C55.5791 104.193 55.3948 103.574 55.5469 103.507C56.1881 103.225 56.9294 103.373 57.5553 102.996C57.6826 102.918 57.6016 102.356 57.6311 102.251C57.8812 101.403 58.5139 102.722 58.6362 102.812C59.5689 103.479 60.1876 103.137 61.0007 103.088C61.1896 103.077 60.9042 102.337 61.0835 102.299C62.0097 102.113 62.9993 102.095 63.9469 102.353C64.1582 102.412 64.0254 103.074 64.1292 103.135C64.5866 103.397 64.5765 102.169 65.0117 102.397C65.1042 102.443 65.1029 103 65.1242 103.059C65.4581 103.99 65.5577 102.621 65.6193 102.586C66.3965 102.107 67.0402 103.47 67.8041 103.2C67.8952 103.166 67.6215 102.486 67.8814 102.434C69.6254 102.082 71.4921 102.1 73.2842 102.489C73.5619 102.549 73.4211 103.092 73.4444 103.155C73.8199 104.139 73.8655 102.767 73.9479 102.708C74.6067 102.272 75.3739 103.342 75.6812 101.681C78.68 101.942 81.4914 100.723 84.5724 101.825C84.6113 101.837 84.6228 102.511 84.7002 102.533C85.6332 102.802 85.335 101.788 85.776 100.453C85.8864 100.117 86.5214 101.59 86.5751 101.697C86.7706 102.092 86.7392 103.1 86.7977 103.174C87.2783 103.752 86.8151 100.487 87.3549 100.42C87.3725 100.423 87.3755 101.034 87.4282 101.089C87.5924 101.259 87.7026 101.003 87.8659 101.193C88.2404 101.634 88.5499 103.21 88.9228 102.223C88.9692 102.096 88.6426 100.251 89.1382 100.278C89.3365 100.29 90.1842 100.149 90.437 100.238C90.69 100.328 90.6047 100.947 90.625 100.97C91.3683 101.677 91.1681 102.036 91.6474 103.164C92.1276 104.286 91.6698 101.518 91.7608 101.191C91.8522 100.864 92.4121 101.452 92.5588 101.663C92.7054 101.874 92.6115 102.274 92.7321 102.388C93.5305 103.134 92.8461 100.968 93.0109 100.497C93.3951 99.381 94.0901 101.384 94.6092 101.518C94.749 101.554 94.5757 101.1 94.687 101.039C95.1282 100.807 95.4987 101.41 95.9397 100.746C96.0134 100.637 96.2524 99.3396 96.6644 100.207C96.7228 100.332 96.6857 100.861 96.9013 100.947C97.2236 101.076 97.7738 101.109 98.0648 100.891C98.2795 100.729 97.8856 99.9245 98.2183 100.143C98.3662 100.24 98.1987 100.771 98.4707 100.913C98.6305 100.997 98.9117 100.991 99.1626 100.96C99.3403 100.939 99.5031 100.906 99.6003 100.884C99.8368 100.83 99.607 100.21 99.6197 100.164C99.6986 99.8986 100.106 99.5191 100.146 99.5135C102.143 99.121 104.205 99.8852 106.109 99.1832C106.258 99.1292 106.037 98.4746 106.059 98.4594C106.533 98.0849 106.433 99.9469 106.912 100.479C106.615 99.1242 106.879 99.3322 107.227 99.1153C107.394 99.0096 107.2 98.4991 107.207 98.4421C107.328 97.5919 107.7 98.5944 107.787 98.7976C108.105 99.545 108.128 98.589 108.343 99.088C108.557 99.583 108.423 100.4 108.778 100.325C108.787 99.8183 108.289 98.5918 108.52 98.3355C109.398 97.3663 111.477 98.0023 112.327 97.9399C113.166 97.8804 113.401 97.7389 113.92 97.8161C114.849 97.9564 114.339 97.0791 114.78 96.5376C115.221 95.9957 115.449 98.3662 115.63 98.8482C115.81 99.3301 115.784 98.8004 115.936 99.0543C116.087 99.3081 115.956 99.6893 116.198 99.7456C116.44 99.8017 116.864 98.7861 116.829 98.2492C116.758 97.1116 116.238 96.0135 116.906 96.2945C116.945 96.3114 116.968 96.9432 117.109 96.977C118.218 97.227 119.299 97.0166 120.399 97.1995C120.553 97.225 120.582 97.9288 120.674 97.9512C121.627 98.1863 121.06 97.1186 121.229 95.7479C121.517 97.453 122.015 98.4218 122.66 98.28C123.046 98.1954 122.809 97.4768 122.937 96.9004C122.975 96.7267 123.369 97.1644 123.336 96.8077C123.229 95.6417 122.67 94.4425 123.447 94.7858C123.482 94.8027 123.54 95.4414 123.648 95.4546C124.351 95.5423 124.14 94.3464 124.801 94.0314C125.319 93.7845 126.46 94.259 127.116 94.2143C127.585 96.0973 128.065 95.5147 127.964 94.1583C128.377 94.1077 128.796 93.9193 129.232 93.9951C129.382 94.0205 129.438 94.5869 129.471 94.6411C129.975 95.4925 129.815 94.1879 129.888 94.1155C130.692 93.3871 131.73 94.1263 132.361 92.9507C132.384 92.9083 132.075 91.5955 132.578 92.4768C132.612 92.5378 132.48 93.2113 132.915 93.1391C133.351 93.0669 134.337 93.5396 134.753 92.7705C134.854 92.5852 134.907 91.4313 135.43 92.1699C135.501 92.2703 135.567 92.6537 135.681 92.8444C136.051 93.4511 135.768 92.1147 136.3 93.1651C136.83 94.2161 137.52 94.9178 137.884 93.9771C137.897 93.9492 137.73 92.8725 137.919 92.834C138.222 92.7735 138.705 92.8637 139.014 92.7635C139.161 92.7153 138.872 92.1019 138.895 92.0824C139.777 91.4237 140.655 91.7803 141.793 91.6986C142.001 91.6852 142.287 90.6382 142.88 91.2093C143.531 91.8338 144.096 95.1079 144.815 94.0575C145.107 93.6355 144.321 89.5029 145.668 91.342C146.835 90.4022 148.414 91.0495 149.506 89.8793C149.555 89.8272 149.375 88.6584 149.521 88.6264C149.738 88.5811 150.026 89.0593 150.186 89.0433C150.864 88.9893 151.285 88.3554 151.911 88.2198C152.147 88.1673 152.249 88.7278 152.531 88.665C152.814 88.6016 152.755 87.8382 153.24 88.0511C153.607 88.2143 154.377 89.5532 154.805 89.5932C154.334 88.1738 154.597 88.116 154.92 87.5875C154.981 87.4852 154.719 87.0251 154.739 86.9513C154.819 86.6402 155.114 86.9948 155.177 86.6641C155.193 86.5845 155.028 86.1012 155.031 86.0089C155.053 85.2057 155.868 86.1391 156.01 86.3018C156.548 86.9191 156.467 86.2443 156.787 86.4497C157.108 86.655 156.898 87.1237 157.217 87.2049C157.879 87.3723 158.544 87.0535 159.098 86.8846C159.318 86.8143 158.945 86.2227 158.971 86.1977C159.365 85.877 160.06 86.4019 159.861 85.0328C161.334 88.237 160.02 84.6163 160.896 85.0538C160.966 85.0897 161.58 86.6338 161.466 86.9321C161.351 87.2303 160.884 86.8441 160.739 87.2975C160.705 87.404 160.852 89.001 160.833 89.1075C160.683 89.9402 159.809 87.6176 159.743 87.4962C159.022 86.1902 159.127 87.9291 159.046 88.0797C158.68 88.7695 158.106 88.6 157.777 89.1151C157.561 89.4493 158.065 90.9949 157.815 91.0287C156.986 91.142 155.977 89.0919 155.886 91.2022C155.865 91.6525 156.599 93.279 155.582 92.1512C155.518 92.0801 154.687 91.0143 154.707 91.8616C154.709 91.9684 154.877 92.458 154.851 92.5128C154.673 92.8709 154.362 92.5415 154.133 92.8279C153.904 93.1144 153.647 93.5129 153.255 93.4599C153.019 93.4289 152.452 92.6024 152.281 92.4109C151.792 91.8578 151.856 93.013 151.425 92.2887C150.992 91.5607 150.923 90.2576 150.309 89.8992C150.72 91.1801 151.12 92.5019 151.522 93.7936C150.526 94.0769 149.422 93.9844 148.456 94.3628C148.337 94.4111 148.687 95.0574 148.564 95.1269C148.046 95.4171 147.399 95.0851 146.889 95.4651C146.494 95.7622 146.235 96.6488 145.825 96.9816C145.074 95.6055 144.54 96.3222 143.991 96.3466C143.8 96.3556 143.689 95.9597 143.523 95.8709C142.904 95.5445 143.529 96.7741 143.463 97.0189C143.175 98.0648 142.217 95.1388 141.583 95.4132C141.549 95.4269 141.604 97.126 141.574 97.2417C141.395 97.9928 141.346 96.7142 141.078 96.6691C140.587 96.5866 140.178 96.3007 139.813 96.9119C139.708 97.092 139.651 98.1766 139.141 97.5026C139.074 97.4144 138.941 96.8883 138.902 96.8667C138.208 96.5199 138.676 98.1585 138.524 98.8046C138.37 99.4514 137.561 98.4614 137.368 98.1642C136.868 97.396 137.46 97.7473 137.45 97.6605C137.326 96.6297 137.026 96.9007 136.735 96.8949C136.232 95.3009 135.887 95.5046 136.434 96.8953C136.494 97.047 136.66 96.8371 136.735 96.8949C136.956 98.5377 136.596 98.86 135.717 97.5171C135.308 96.8869 135.281 96.0248 134.721 96.5016C134.466 96.7173 134.891 97.7928 134.716 98.1679C134.312 99.025 133.253 98.2046 132.685 98.5348C132.479 98.6549 132.862 99.2032 132.726 99.3063C132.365 99.5818 131.881 99.2231 131.54 99.5651C131.509 99.5969 131.77 100.21 131.646 100.252C130.705 100.583 129.756 100.395 128.749 100.642C128.258 100.763 127.48 101.335 126.957 101.39C126.045 101.491 124.751 100.819 124.055 101.225C123.6 101.487 123.857 102.103 123.753 102.589C123.55 103.533 122.476 102.181 122.326 101.968C122.322 101.961 122.707 101.711 122.406 101.434C122.116 100.777 122.33 101.964 122.326 101.968C122.229 101.83 121.347 101.88 121.213 102.039C121.138 102.127 121.327 102.725 121.286 102.759C120.288 103.559 119.181 103.966 117.974 103.926C117.951 103.918 117.835 103.229 117.783 103.218C117.05 103.057 116.809 103.982 116.363 104.593C115.919 105.204 115.443 105.128 114.877 104.018C114.496 104.25 113.801 103.849 113.397 103.6C112.994 103.352 113.209 104.696 113.184 104.729C112.398 105.76 111.724 105.097 110.72 105.163C110.238 105.193 109.366 105.555 108.887 105.793C108.51 105.983 108.214 105.712 107.88 105.979C107.835 106.014 107.992 106.602 107.98 106.627C107.697 107.414 107.636 105.92 107.506 105.675C107.035 104.782 106.761 104.31 106.318 104.846C106.216 104.969 106.226 107.131 106.025 107.292C105.762 107.497 105.743 106.725 105.471 106.959C105.448 106.978 105.53 107.443 105.343 107.453C104.475 107.508 103.483 107.394 102.595 107.584C102.474 107.608 102.748 108.321 102.575 108.368C101.871 108.558 101.086 108.67 100.321 108.552C100.206 108.533 100.091 108.509 99.977 108.48C99.7658 108.422 99.8116 107.886 99.7454 107.738C99.3421 106.848 99.1707 108.256 99.112 108.291C97.718 109.162 96.4246 108.098 94.9874 108.891C94.9092 108.937 94.4799 110.475 94.0286 109.268C93.9978 109.187 93.5483 107.951 93.419 108.855C93.4109 108.912 93.673 109.544 93.3602 109.518C93.0482 109.492 92.6132 109.996 92.1009 109.329C91.9398 109.119 91.4659 107.888 91.2051 108.952C91.1898 109.026 90.8749 111.397 90.4555 109.842C90.387 109.586 90.2122 107.907 89.8501 108.825C89.781 109.003 89.9917 109.356 89.7835 109.619C89.4612 110.025 88.9325 109.635 88.5791 110.436C88.5181 110.577 88.326 111.755 87.9549 110.924C87.8969 110.794 87.9081 110.225 87.7602 110.18C87.0567 109.96 86.4008 110.418 85.6837 110.109C85.429 110.001 85.4454 109.082 85.1686 108.869C84.8917 108.655 84.3634 108.48 84.1492 108.923C83.9348 109.367 84.386 110.777 84.0056 110.937C82.3667 111.631 80.5793 110.969 78.8733 111.023C78.619 111.031 78.8826 111.526 78.5111 111.574C77.1495 111.756 74.8261 112.478 73.5395 111.493C72.5045 110.705 73.6349 109.919 72.8751 109.631C72.5092 109.494 72.2896 111.21 72.2095 111.271C71.4328 111.887 70.7946 111.196 70.0712 111.493C69.9219 111.555 70.1355 112.222 70.0076 112.267C69.5722 112.426 69.0688 112.165 68.6512 112.259C68.463 112.303 68.5451 112.82 68.3658 112.796C67.9374 112.744 67.5453 112.558 67.0912 112.107C67.0499 112.065 67.2449 111.396 66.9312 111.399C66.4239 111.407 65.7515 110.981 65.2193 111.527C65.0608 111.692 65.1565 112.882 64.7166 112.092C64.6243 111.927 64.6011 110.49 64.2762 111.761C64.2219 111.972 63.6378 113.699 63.1905 112.656C63.073 112.381 62.7332 111.232 62.5437 111.433C62.5182 111.465 62.6835 112.095 62.518 112.171C61.9336 112.43 61.2956 112.414 60.6904 112.665C60.5288 112.733 60.83 113.374 60.5873 113.455C59.9175 113.678 59.0587 113.577 58.3782 113.423C58.1272 113.364 58.2531 112.803 58.2306 112.745C57.8676 111.797 57.8014 113.12 57.7121 113.204C57.1565 113.707 56.6525 113.128 56.1238 113.332C55.9771 113.387 56.1316 114.003 56.106 114.061C55.8378 114.629 55.9825 113.49 55.7768 113.381C55.2003 113.074 54.5905 113.17 54.0385 113.292C53.8357 113.338 54.1207 114.045 53.938 114.077C52.8576 114.284 51.7287 114.298 50.6355 113.976C50.4298 113.914 50.5153 113.347 50.4644 113.222C50.1115 112.352 49.7817 113.598 49.6932 113.72C49.2925 114.281 49.0865 113.8 48.7051 113.919C46.8373 114.513 44.4746 114.347 42.674 114.265C40.3234 114.161 38.4829 113.748 36.2708 114.027C36.1303 114.044 36.3196 114.777 36.199 114.801C34.6384 115.08 33.0739 114.886 31.5121 115.197C31.3838 115.221 31.6133 115.914 31.4087 115.976C30.989 116.109 30.4477 116.104 30.0048 115.905C29.7887 115.809 30.0332 115.188 29.8164 115.104C29.3117 114.908 28.7821 114.889 28.2837 115.032C28.0716 115.095 28.4392 115.795 28.1602 115.82C26.2625 116.006 24.3989 116.24 22.4262 115.418C22.2908 115.362 22.0905 113.905 21.8268 114.202C21.8292 114.609 21.8579 115.087 21.8738 115.522C19.1193 115.915 16.3536 115.563 13.5752 115.64C13.4582 115.643 13.7035 116.407 13.4772 116.418C12.1674 116.479 10.9051 116.765 9.52394 116.068C9.38688 116 9.37961 114.632 8.99942 114.86C8.93244 114.901 8.35262 115.116 8.21641 115.421C8.19816 115.466 8.34094 116.097 8.15184 116.126C7.05171 116.284 5.88751 116.202 4.76339 115.874C4.58194 115.819 4.73419 115.131 4.60464 115.086C3.68569 114.776 2.73688 115.345 1.84433 114.776C1.24683 114.393 1.39539 113.209 1.02673 112.072C0.974609 111.911 0.617289 111.905 0.562094 111.234C0.422332 109.549 0.493419 107.69 0.324076 105.895C0.287894 105.508 -0.165876 105.952 0.0650031 104.999C0.081284 104.936 0.409815 104.606 0.477512 104.283C0.52473 104.06 0.380531 103.383 0.486022 103.096C0.591516 102.808 0.755724 103.373 0.938041 103.032C1.12004 102.686 0.989391 101.914 1.38441 101.8ZM111.589 102.488C111.153 101.907 111.557 104.266 111.789 103.638C111.8 103.605 111.611 102.517 111.589 102.488ZM148.864 92.2668C148.137 91.3951 148.352 92.9577 148.885 93.6405C149.42 94.3216 149.085 92.5307 148.864 92.2668ZM152.71 90.1669C151.983 89.5346 152.998 92.7733 153.272 91.956C153.289 91.9095 152.752 90.2035 152.71 90.1669ZM2.42507 111.665C2.41897 111.634 2.16144 111.617 2.15705 111.649C2.06242 112.415 2.57734 112.448 2.42507 111.665ZM156.476 87.9879C156.183 87.6037 155.945 88.2467 156.309 88.7247C156.602 89.1092 156.841 88.4658 156.476 87.9879ZM94.7839 102.673C94.774 102.638 94.5867 102.632 94.6181 102.831C94.7201 103.472 94.9497 103.255 94.7839 102.673ZM163.305 85.5599C162.252 85.7943 160.713 83.3643 161.916 83.2769C162.134 83.261 161.783 84.2708 162.12 84.4203C162.737 84.6918 162.461 82.9233 163.247 83.6466C163.39 83.7793 163.367 85.5524 163.304 85.5642C163.305 85.5628 163.305 85.5613 163.305 85.5599ZM110.866 99.7008C110.854 99.6709 110.6 99.6892 110.599 99.7211C110.607 100.493 111.121 100.457 110.866 99.7008ZM83.9741 102.553C83.9526 102.488 83.3589 102.492 83.3466 102.556C83.1808 103.826 84.3848 103.82 83.9741 102.553ZM127.138 94.2619C127.216 93.4531 127.509 93.2841 127.963 94.1577C127.686 94.1771 127.417 94.2388 127.138 94.2619Z" fill="#FC4C02"/>
<path d="M39.0983 5.43963C39.8825 5.2729 40.8837 5.54961 41.6371 5.89608C41.8732 6.00368 41.7285 6.42063 41.8905 6.51396C42.2074 6.69596 42.5218 6.50442 42.833 6.71764C42.9361 6.79038 42.7677 7.45411 42.8766 7.51502C43.4739 7.84402 44.0627 7.70387 44.6757 7.87918C47.6956 8.74385 50.6861 9.15086 53.7623 9.60826C54.7767 9.75854 55.9863 10.4271 57.052 10.2102C57.1763 10.1843 57.1307 9.59193 57.1564 9.54448C57.5575 8.81854 57.38 10.0018 57.6119 10.1709C58.5323 10.839 59.5894 10.9414 60.5121 10.7546C60.9057 10.6734 60.5671 9.48618 60.9301 10.1602C60.9554 10.2057 60.829 10.8269 60.9329 10.8983C61.1685 11.059 61.6327 10.9673 61.8181 11.0249C62.1752 11.1392 62.2352 11.1355 62.5765 11.1572C63.0419 11.1922 63.5863 11.5266 64.0936 11.4054C64.202 11.3777 64.0867 10.7306 64.2618 10.6285C64.437 10.5266 64.8861 10.5993 65.0321 10.7566C65.1781 10.9139 65.0931 11.4154 65.1154 11.532C65.2979 12.5161 65.8745 11.1862 65.9432 11.1554C67.1927 10.6345 68.2109 11.4431 69.3638 11.4819C70.2365 11.5097 71.1794 11.2872 72.0089 11.3488C72.9949 11.4246 73.8259 11.7977 74.7882 11.7653C74.8897 11.7626 74.7924 11.0049 74.9163 11.0001C76.2334 10.9495 77.5343 11.0648 78.8347 11.6033C78.965 11.6579 78.7808 12.3166 78.9103 12.4108C79.7018 12.9733 80.9538 14.3058 81.4835 11.4296C82.0262 11.5519 82.6809 11.6788 83.1608 12.2673C83.4702 12.6461 83.1541 13.3635 83.5455 13.0609C83.6336 12.9935 83.529 12.3599 83.6604 12.3066C84.2135 12.0827 84.8103 12.2954 85.3553 11.9744C85.4668 11.9076 85.4423 11.3409 85.4746 11.2392C85.746 10.416 86.1706 11.7853 86.2656 11.8853C86.9877 12.6313 87.516 12.3434 88.1964 12.3646C88.3538 12.3698 88.171 11.6082 88.3224 11.5858C89.1086 11.48 89.9111 11.5466 90.6827 11.8833C90.8537 11.96 90.6974 12.6083 90.7792 12.6781C91.1405 12.9779 91.2174 11.7536 91.5624 12.017C91.6352 12.071 91.5962 12.6259 91.6097 12.6868C91.8209 13.6426 91.9959 12.2865 92.0487 12.2563C92.7177 11.8444 93.1644 13.2562 93.8157 13.0502C93.8936 13.0241 93.7114 12.3238 93.9303 12.2933C95.3875 12.0862 96.9299 12.256 98.3926 12.7861C98.6193 12.8675 98.4703 13.3982 98.4858 13.4629C98.7394 14.4734 98.8585 13.1093 98.9303 13.0564C99.4963 12.6744 100.073 13.8011 100.421 12.1698C102.886 12.6643 105.272 11.6603 107.772 12.9821C107.804 12.9973 107.784 13.6695 107.847 13.6969C108.609 14.0328 108.41 13.0001 108.828 11.7003C108.932 11.3739 109.397 12.8875 109.438 12.998C109.584 13.4055 109.517 14.4084 109.563 14.4863C109.939 15.0967 109.685 11.8084 110.134 11.7794C110.148 11.784 110.127 12.3935 110.168 12.4514C110.298 12.6332 110.399 12.3851 110.527 12.5862C110.819 13.0519 111.023 14.6446 111.367 13.6868C111.41 13.5625 111.207 11.7016 111.615 11.7622C111.778 11.7881 112.484 11.7057 112.69 11.8117C112.897 11.9179 112.806 12.5291 112.822 12.5541C113.419 13.3088 113.24 13.6534 113.602 14.8093C113.965 15.9605 113.673 13.1706 113.758 12.85C113.844 12.5304 114.29 13.1546 114.405 13.3745C114.521 13.5947 114.431 13.9863 114.527 14.1083C115.169 14.9042 114.664 12.7005 114.814 12.2415C114.872 12.0624 114.934 11.9683 115 11.9368C115.335 11.7768 115.76 13.2241 116.116 13.3632C116.231 13.4082 116.099 12.9445 116.192 12.8916C116.564 12.6883 116.856 13.313 117.238 12.6791C117.302 12.5756 117.537 11.297 117.856 12.1875C117.902 12.3159 117.86 12.8408 118.037 12.94C118.301 13.089 118.757 13.1567 119.002 12.9569C119.184 12.8091 118.872 11.9831 119.144 12.2214C119.265 12.3277 119.116 12.8457 119.339 13.0041C119.564 13.1623 120.087 13.0838 120.284 13.0445C120.481 13.005 120.301 12.3733 120.312 12.3281C120.382 12.069 120.725 11.7162 120.758 11.7131C122.434 11.4432 124.133 12.329 125.728 11.7433C125.854 11.6982 125.674 11.0336 125.692 11.0198C126.094 10.6748 125.996 12.5221 126.392 13.0803C126.153 11.7141 126.371 11.9371 126.661 11.742C126.8 11.6469 126.642 11.1274 126.648 11.0711C126.752 10.2325 127.056 11.2521 127.127 11.4594C127.389 12.222 127.412 11.2723 127.59 11.7812C127.768 12.2863 127.65 13.0916 127.95 13.037C127.961 12.5337 127.548 11.2843 127.744 11.0427C128.477 10.1311 130.217 10.8854 130.92 10.8747C131.617 10.866 131.827 10.7368 132.254 10.8454C133.028 11.0405 132.6 10.1382 132.966 9.62681C133.334 9.11434 133.533 11.4829 133.687 11.9724C133.84 12.4618 133.817 11.9339 133.946 12.1949C134.074 12.4559 133.964 12.8272 134.169 12.897C134.375 12.9667 134.721 11.9838 134.689 11.4485C134.623 10.3145 134.183 9.19288 134.742 9.51222C134.774 9.5313 134.798 10.16 134.916 10.202C135.857 10.5144 136.742 10.3743 137.679 10.62C137.807 10.6548 137.838 11.3547 137.914 11.3826C138.714 11.6743 138.23 10.5803 138.358 9.23117C138.616 10.9399 139.038 11.9321 139.585 11.8298C139.912 11.7688 139.703 11.0423 139.804 10.4786C139.834 10.3088 140.169 10.7672 140.137 10.4116C140.035 9.24889 139.553 8.02514 140.208 8.41408C140.238 8.43296 140.293 9.06971 140.384 9.08953C140.976 9.22029 140.788 8.02083 141.336 7.75104C141.765 7.53963 142.735 8.08105 143.282 8.07976C143.7 9.97472 144.097 9.42863 143.994 8.07916C144.342 8.05539 144.691 7.89653 145.058 8.00023C145.185 8.03528 145.24 8.59947 145.268 8.65524C145.703 9.53103 145.551 8.22939 145.612 8.16263C146.281 7.49411 147.161 8.29621 147.679 7.17579C147.697 7.13548 147.417 5.81648 147.853 6.72229C147.883 6.78488 147.782 7.44169 148.147 7.40014C148.511 7.35888 149.354 7.89268 149.69 7.16276C149.772 6.98674 149.8 5.8504 150.252 6.61687C150.313 6.72108 150.374 7.10452 150.474 7.30097C150.795 7.92626 150.536 6.58604 151.002 7.66123C151.467 8.73631 152.053 9.47982 152.349 8.57666C152.359 8.55002 152.202 7.47484 152.362 7.45041C152.618 7.41228 153.028 7.53637 153.285 7.46053C153.407 7.42386 153.155 6.79717 153.174 6.77958C153.91 6.19391 154.655 6.61168 155.617 6.61666C155.794 6.61879 156.019 5.60824 156.528 6.21711C157.087 6.88289 157.611 10.1544 158.206 9.17384C158.448 8.78025 157.72 4.64676 158.887 6.56477C159.862 5.73054 161.205 6.49553 162.114 5.43266C162.155 5.38538 161.988 4.22003 162.11 4.20061C162.293 4.17392 162.543 4.66833 162.679 4.66587C163.252 4.66868 163.601 4.07971 164.128 3.99886C164.328 3.96701 164.421 4.52698 164.66 4.48891C164.898 4.45031 164.839 3.69397 165.252 3.94457C165.565 4.13626 166.234 5.5185 166.597 5.59417C166.18 4.1581 166.403 4.1235 166.67 3.63121C166.721 3.53591 166.492 3.06099 166.509 2.99019C166.572 2.69106 166.826 3.06501 166.876 2.74522C166.888 2.66829 166.742 2.17882 166.744 2.08834C166.752 1.30037 167.455 2.28816 167.577 2.46029C168.041 3.11356 167.964 2.44314 168.238 2.67269C168.512 2.90223 168.34 3.34494 168.612 3.45236C169.175 3.67418 169.734 3.41824 170.202 3.30048C170.388 3.25048 170.064 2.63644 170.086 2.61414C170.416 2.33308 171.011 2.90965 170.826 1.54652C172.113 4.82467 170.956 1.15097 171.704 1.65754C171.764 1.69886 172.303 3.27027 172.209 3.55359C172.116 3.83669 171.715 3.4163 171.598 3.84927C171.57 3.95102 171.714 5.53363 171.699 5.63667C171.582 6.44213 170.813 4.0828 170.756 3.95774C170.129 2.61119 170.239 4.32975 170.173 4.47088C169.871 5.1172 169.382 4.9008 169.11 5.37892C168.931 5.68881 169.377 7.25189 169.166 7.26367C168.464 7.30376 167.584 5.20113 167.534 7.26878C167.522 7.70997 168.164 9.3721 167.289 8.17629C167.233 8.10092 166.515 6.98202 166.543 7.81711C166.547 7.92238 166.696 8.41819 166.675 8.46992C166.529 8.80694 166.261 8.45664 166.071 8.71925C165.881 8.98186 165.668 9.35226 165.336 9.26734C165.136 9.21702 164.645 8.35625 164.497 8.15369C164.076 7.56878 164.145 8.71102 163.771 7.96247C163.395 7.21013 163.319 5.92195 162.794 5.51843C163.159 6.81308 163.516 8.14713 163.874 9.45168C163.035 9.64838 162.102 9.46679 161.288 9.76247C161.188 9.8004 161.493 10.4651 161.39 10.5237C160.956 10.768 160.407 10.3887 159.978 10.7237C159.648 10.9853 159.444 11.8383 159.102 12.1345C158.446 10.72 158.005 11.3857 157.543 11.3673C157.382 11.3615 157.283 10.9625 157.141 10.8623C156.612 10.4938 157.159 11.7537 157.106 11.9902C156.877 13.0003 156.025 10.0421 155.495 10.2648C155.467 10.2755 155.538 11.9563 155.515 12.0684C155.374 12.7965 155.314 11.531 155.086 11.4668C154.669 11.3494 154.32 11.0372 154.023 11.6133C153.938 11.7833 153.903 12.8504 153.463 12.1483C153.405 12.0563 153.284 11.5272 153.251 11.5032C152.66 11.1109 153.078 12.7629 152.961 13.3898C152.844 14.0167 152.143 12.9827 151.976 12.6753C151.542 11.8813 152.048 12.2698 152.038 12.1834C151.919 11.1563 151.669 11.403 151.422 11.3768C150.974 9.76667 150.686 9.94382 151.168 11.3562C151.222 11.5103 151.358 11.3145 151.422 11.3768C151.633 13.0154 151.332 13.3092 150.575 11.9203C150.22 11.2692 150.184 10.4151 149.718 10.8481C149.505 11.0438 149.88 12.1362 149.737 12.4951C149.409 13.3147 148.504 12.4319 148.029 12.7208C147.857 12.8258 148.187 13.3937 148.074 13.4866C147.774 13.7351 147.362 13.3479 147.078 13.6643C147.052 13.6937 147.28 14.3172 147.176 14.3506C146.386 14.6167 145.582 14.37 144.736 14.5502C144.327 14.6379 143.673 15.1568 143.233 15.1782C142.47 15.2207 141.364 14.4768 140.786 14.8356C140.406 15.0672 140.63 15.694 140.544 16.1706C140.376 17.0951 139.462 15.6889 139.334 15.4682C139.33 15.4609 139.652 15.237 139.397 14.9434C139.148 14.2743 139.338 15.4644 139.334 15.4682C139.25 15.3263 138.515 15.321 138.398 15.4722C138.335 15.5549 138.499 16.1594 138.463 16.1909C137.626 16.9261 136.691 17.266 135.676 17.1551C135.657 17.1458 135.556 16.4538 135.513 16.4405C134.9 16.2367 134.692 17.1424 134.318 17.7241C133.945 18.3051 133.545 18.2016 133.069 17.0658C132.745 17.2745 132.154 16.8358 131.818 16.5652C131.48 16.2948 131.659 17.6437 131.638 17.6744C130.985 18.6531 130.396 17.9581 129.56 17.9641C129.162 17.9648 128.407 18.277 128.009 18.4848C127.691 18.652 127.444 18.3652 127.163 18.6108C127.125 18.6437 127.252 19.2375 127.242 19.2624C126.996 20.0288 126.957 18.5389 126.849 18.287C126.458 17.3705 126.227 16.8856 125.852 17.393C125.766 17.5093 125.753 19.6622 125.582 19.8107C125.359 19.9996 125.351 19.2299 125.121 19.4467C125.101 19.4645 125.167 19.9315 125.006 19.9313C124.258 19.9373 123.44 19.7624 122.683 19.8994C122.579 19.9163 122.801 20.6432 122.652 20.6799C121.955 20.8512 121.184 20.9099 120.456 20.6358C120.277 20.5659 120.328 20.0339 120.274 19.8832C119.948 18.9721 119.778 20.364 119.727 20.3954C118.537 21.1784 117.458 20.0388 116.23 20.7371C116.189 20.762 116.016 21.3413 115.807 21.497C115.678 21.5944 115.535 21.5257 115.403 21.0511C115.379 20.9692 115.04 19.7072 114.902 20.6002C114.893 20.656 115.094 21.3039 114.831 21.2574C114.569 21.2109 114.187 21.6842 113.776 20.9858C113.645 20.766 113.288 19.5067 113.031 20.5503C113.016 20.6231 112.663 22.9658 112.367 21.3875C112.319 21.1276 112.234 19.4419 111.896 20.3322C111.831 20.5048 111.995 20.871 111.81 21.1191C111.525 21.5014 111.089 21.0768 110.76 21.8507C110.703 21.9877 110.492 23.1486 110.214 22.2943C110.17 22.1605 110.203 21.5941 110.081 21.5383C109.498 21.2703 108.925 21.6803 108.334 21.3214C108.125 21.1954 108.18 20.2803 107.957 20.0475C107.734 19.8149 107.3 19.6019 107.099 20.0284C106.899 20.4552 107.212 21.8935 106.884 22.0256C105.468 22.5987 104.001 21.8055 102.563 21.7289C102.349 21.7174 102.544 22.2308 102.229 22.2509C101.077 22.3283 99.0846 22.8661 98.0618 21.7811C97.2419 20.9128 98.238 20.2203 97.6192 19.8724C97.3207 19.7064 97.0335 21.3994 96.9627 21.4537C96.2767 22.0051 95.781 21.2643 95.1563 21.5014C95.027 21.5506 95.1626 22.2331 95.0524 22.2674C94.6768 22.3905 94.2799 22.0892 93.9208 22.1483C93.7598 22.1763 93.794 22.6985 93.645 22.6594C93.2885 22.5719 92.9718 22.3545 92.6218 21.8668C92.59 21.8223 92.7992 21.1712 92.5361 21.1485C92.1131 21.1136 91.5868 20.6326 91.1003 21.1326C90.9559 21.2829 90.952 22.4771 90.6389 21.6528C90.5731 21.4806 90.6557 20.0468 90.2933 21.2859C90.2316 21.4919 89.6228 23.1628 89.3251 22.0849C89.2467 21.8013 89.0487 20.6275 88.8746 20.8114C88.8509 20.8408 88.9436 21.4824 88.7992 21.5446C88.291 21.7524 87.7543 21.6815 87.2341 21.879C87.0946 21.9331 87.2977 22.5981 87.0897 22.6574C86.5173 22.8215 85.8035 22.6464 85.2449 22.4327C85.0401 22.3527 85.188 21.8044 85.1737 21.7445C84.9441 20.7688 84.7879 22.0807 84.7071 22.1564C84.2051 22.6093 83.834 21.9874 83.3732 22.1443C83.2459 22.186 83.3269 22.8135 83.3009 22.869C83.0313 23.4109 83.2423 22.289 83.0785 22.1626C82.6186 21.8049 82.1065 21.8471 81.637 21.9191C81.4647 21.9465 81.6453 22.676 81.4907 22.6921C80.5736 22.8014 79.6266 22.7132 78.7453 22.2933C78.5792 22.2129 78.6971 21.6562 78.665 21.5277C78.4445 20.629 78.0643 21.8395 77.98 21.9537C77.5978 22.4751 77.4678 21.9773 77.1401 22.0616C75.5376 22.4825 73.5819 22.099 72.0907 21.8489C70.1454 21.5264 68.6516 20.9412 66.7901 21.009C66.6718 21.0125 66.7625 21.7605 66.6601 21.7731C65.3366 21.9021 64.0572 21.5597 62.73 21.719C62.6212 21.7307 62.7474 22.4419 62.5718 22.4845C62.2121 22.5767 61.7634 22.5192 61.4136 22.2786C61.2429 22.1627 61.5042 21.5682 61.332 21.4638C60.9311 21.2194 60.4928 21.1499 60.0657 21.2441C59.8843 21.2857 60.1228 22.0184 59.8894 22.0163C58.298 22.0172 56.7308 22.0689 55.1711 21.059C55.0641 20.9897 55.0379 19.5207 54.7913 19.7903C54.7541 20.1959 54.732 20.6739 54.7034 21.1079C52.3831 21.2307 50.1238 20.6082 47.8173 20.4105C47.72 20.4023 47.8485 21.1868 47.6598 21.1749C46.5682 21.107 45.4969 21.2666 44.4211 20.4368C44.3143 20.3556 44.443 18.994 44.106 19.1832C44.0465 19.2178 43.5457 19.3739 43.403 19.6634C43.3834 19.7072 43.4393 20.3488 43.28 20.359C42.3546 20.4071 41.3986 20.2104 40.5015 19.7722C40.3567 19.7003 40.5507 19.0305 40.4479 18.9733C39.7187 18.5733 38.8775 19.0454 38.1957 18.3913C37.7395 17.951 37.9794 16.7881 37.787 15.6204C37.7598 15.4556 37.465 15.4139 37.4856 14.7417C37.5368 13.0511 37.7793 11.2099 37.8168 9.40703C37.8251 9.01871 37.4061 9.41498 37.6911 8.49079C37.7109 8.42898 38.0152 8.13348 38.103 7.81948C38.1641 7.60241 38.1118 6.91477 38.2275 6.63891C38.3431 6.36331 38.423 6.94166 38.6075 6.62015C38.7922 6.29454 38.7605 5.51376 39.0983 5.43963ZM130.299 15.3541C129.932 14.7508 130.265 17.1206 130.464 16.5094C130.474 16.4771 130.318 15.3836 130.299 15.3541ZM161.604 7.73107C160.978 6.81356 161.18 8.37022 161.642 9.08539C162.104 9.79943 161.794 8.00892 161.604 7.73107ZM164.83 5.98158C164.207 5.29859 165.109 8.57015 165.33 7.78903C165.344 7.74468 164.867 6.02118 164.83 5.98158ZM38.9835 15.3549C38.9815 15.3229 38.7703 15.2806 38.7635 15.3118C38.6095 16.0646 39.032 16.1487 38.9835 15.3549ZM167.993 4.15852C167.74 3.7555 167.546 4.36737 167.861 4.86867C168.114 5.2719 168.309 4.65976 167.993 4.15852ZM116.231 14.5256C116.223 14.4904 116.068 14.472 116.089 14.6725C116.156 15.3182 116.353 15.1167 116.231 14.5256ZM173.752 2.36568C172.863 2.50392 171.528 -0.0192092 172.548 0.000146745C172.732 0.00357368 172.447 0.965497 172.734 1.14188C173.26 1.46267 173.006 -0.299729 173.681 0.480043C173.804 0.623017 173.805 2.36376 173.752 2.36988C173.752 2.36848 173.752 2.36708 173.752 2.36568ZM129.697 12.5395C129.687 12.5092 129.473 12.5125 129.473 12.5442C129.477 13.3125 129.91 13.3061 129.697 12.5395ZM107.244 13.6647C107.229 13.598 106.737 13.5595 106.724 13.6222C106.528 14.8757 107.528 14.9572 107.244 13.6647ZM143.302 8.12838C143.356 7.33241 143.6 7.18418 143.993 8.07844C143.76 8.07978 143.535 8.12352 143.302 8.12838Z" fill="#FC4C02"/>
<path d="M9.07476 83.7963C9.5958 82.968 10.6302 82.2386 11.5094 81.7889C11.7842 81.6472 11.9796 82.052 12.1827 81.968C12.5778 81.805 12.6955 81.3928 13.1173 81.2491C13.2583 81.2032 13.6166 81.7947 13.7534 81.7358C14.4995 81.4105 14.8848 80.7863 15.526 80.3528C18.6679 78.2362 21.4941 75.855 24.4726 73.4701C25.4432 72.6934 26.9701 72.1022 27.7408 71.0273C27.83 70.9017 27.3639 70.5296 27.352 70.4744C27.1783 69.6223 27.8756 70.5985 28.1982 70.5163C29.4775 70.1866 30.449 69.3729 31.1407 68.4398C31.4297 68.0454 30.2881 67.4989 31.0867 67.663C31.1413 67.6736 31.471 68.2195 31.613 68.1812C31.9343 68.0933 32.2768 67.6343 32.4802 67.5184C32.8743 67.2973 32.9242 67.2441 33.2386 66.9725C33.6724 66.605 34.3774 66.394 34.7514 65.8733C34.829 65.7616 34.2725 65.3971 34.358 65.1755C34.444 64.9537 34.8978 64.6257 35.1382 64.6157C35.3788 64.6056 35.6522 65.037 35.7534 65.102C36.602 65.655 36.1896 64.2189 36.2297 64.1395C36.9734 62.7316 38.4635 62.4604 39.533 61.5416C40.3482 60.8394 41.026 59.931 41.8486 59.285C42.8144 58.5306 43.8251 58.1419 44.6844 57.3558C44.7756 57.2734 44.1846 56.7826 44.2951 56.6807C45.5017 55.5731 46.8004 54.6248 48.3644 54.0263C48.5245 53.9646 48.7738 54.6136 48.9581 54.5831C50.0811 54.3814 52.1016 54.4536 50.7788 51.8265C51.3633 51.5117 52.0891 51.0949 52.9202 51.1881C53.4554 51.2479 53.5988 52.0487 53.7861 51.5157C53.8289 51.3962 53.3333 50.9799 53.4268 50.8384C53.8213 50.2432 54.5274 49.9628 54.854 49.3057C54.9196 49.1708 54.5486 48.7413 54.5173 48.637C54.2782 47.7818 55.5405 48.5406 55.6933 48.55C56.8584 48.6003 57.2047 47.9796 57.8783 47.5045C58.0346 47.3948 57.4012 46.9166 57.5356 46.7889C58.2307 46.1408 59.1127 45.5787 60.0689 45.306C60.2839 45.246 60.5063 45.8845 60.6282 45.8829C61.16 45.8704 60.5258 44.819 61.0214 44.7899C61.1248 44.7827 61.4066 45.2632 61.4551 45.3034C62.2153 45.936 61.6043 44.7075 61.6444 44.6423C62.0985 43.8185 63.3504 44.6677 63.8893 44.0475C63.9532 43.972 63.3749 43.5194 63.5792 43.3423C64.9125 42.1773 66.6456 41.2332 68.426 40.7311C68.7076 40.6487 68.8308 41.1992 68.8814 41.2437C69.6792 41.9343 69.0848 40.6966 69.1331 40.6037C69.5314 39.9012 70.7023 40.503 70.2261 38.8822C73.0949 37.7079 75.1574 35.3816 78.5227 35.1337C78.5637 35.1296 78.8372 35.7453 78.9174 35.7349C79.8853 35.6182 79.2101 34.804 79.1343 33.3865C79.1169 33.0297 80.2745 34.1473 80.3635 34.2272C80.6953 34.5188 81.0401 35.4673 81.1227 35.5137C81.7859 35.8704 80.1437 33.0093 80.6363 32.7407C80.6542 32.7372 80.8791 33.3058 80.9488 33.3366C81.1662 33.4344 81.1775 33.1542 81.4002 33.2717C81.9114 33.5462 82.7652 34.9063 82.7752 33.8462C82.7752 33.7096 81.816 32.0997 82.3086 31.9415C82.5063 31.8788 83.2792 31.4441 83.551 31.443C83.8235 31.4405 83.9464 32.0541 83.9739 32.0695C84.915 32.4871 84.8521 32.8892 85.6751 33.7971C86.4954 34.7022 85.1667 32.2314 85.1517 31.8896C85.138 31.5479 85.8672 31.9234 86.0723 32.0784C86.2785 32.2327 86.3129 32.6416 86.4635 32.7125C87.4507 33.1756 86.1341 31.3264 86.1494 30.8255C86.1745 29.6461 87.4881 31.3277 88.0186 31.309C88.1649 31.3027 87.8674 30.9178 87.9593 30.8273C88.3284 30.4738 88.8439 30.9537 89.0989 30.1926C89.1425 30.0674 89.0694 28.7364 89.697 29.4672C89.7862 29.5732 89.8823 30.0952 90.1166 30.1221C90.4676 30.1626 91.0099 30.0611 91.2395 29.7824C91.4124 29.5748 90.8353 28.8861 91.2269 29.0152C91.4009 29.0735 91.3452 29.6331 91.6549 29.7048C91.9637 29.7761 92.5606 29.5226 92.7809 29.4226C93.0012 29.3215 92.6514 28.7607 92.6544 28.713C92.6809 28.4359 93.0052 27.985 93.055 27.9684C95.0864 27.1588 97.2824 27.6333 99.2674 26.8852C99.4277 26.8272 99.1928 26.1764 99.2159 26.1606C99.741 25.7752 99.614 27.6421 100.087 28.1778C99.8114 26.8192 100.055 27.03 100.447 26.821C100.636 26.7199 100.456 26.203 100.467 26.146C100.67 25.2962 101.009 26.319 101.08 26.528C101.352 27.2953 101.465 26.3453 101.637 26.8629C101.801 27.3775 101.581 28.1751 101.942 28.1388C102.022 27.6363 101.629 26.3625 101.933 26.1324C102.262 25.8867 102.689 25.7922 103.131 25.8037C103.446 25.7788 104.103 26.0729 104.37 26.2437C105.182 26.8912 105.765 28.0812 106.182 28.5377C106.767 29.1753 107.033 29.2904 107.289 29.7559C107.744 30.5978 108.14 29.6611 108.857 29.7182C109.575 29.7804 107.764 31.3313 107.478 31.7598C107.19 32.1858 107.608 31.8594 107.488 32.1299C107.367 32.3996 106.981 32.512 107.073 32.7414C107.163 32.9686 108.232 32.7351 108.659 32.4086C109.563 31.714 110.177 30.662 110.333 31.3906C110.341 31.4329 109.826 31.8 109.879 31.939C110.313 33.0283 111.067 33.8345 111.488 34.8955C111.545 35.0417 110.953 35.4235 110.98 35.5135C111.254 36.4511 111.89 35.4244 113.176 34.9036C111.833 35.9936 111.238 36.903 111.667 37.3938C111.926 37.6915 112.442 37.1379 113.011 36.9781C113.183 36.9302 112.982 37.4846 113.282 37.2888C114.264 36.6523 115.062 35.5915 115.135 36.4631C115.137 36.5023 114.593 36.8439 114.634 36.949C114.888 37.6297 115.863 36.9041 116.458 37.3859C116.924 37.7631 117.008 39.0381 117.321 39.6314C115.791 40.8239 116.514 41.0256 117.727 40.4094C117.946 40.783 118.287 41.1061 118.386 41.548C118.421 41.7001 117.914 41.9608 117.876 42.0116C117.275 42.7986 118.43 42.1709 118.526 42.2159C119.52 42.7309 119.184 43.9621 120.516 44.1998C120.564 44.2077 121.708 43.4925 121.04 44.2604C120.993 44.3118 120.309 44.3957 120.522 44.7945C120.737 45.1955 120.598 46.2913 121.457 46.4735C121.663 46.5159 122.795 46.2547 122.236 46.972C122.16 47.0685 121.809 47.2367 121.658 47.4008C121.178 47.9243 122.388 47.291 121.522 48.0899C120.656 48.8903 120.151 49.7199 121.147 49.8311C121.177 49.8356 122.18 49.4078 122.265 49.5852C122.4 49.8684 122.426 50.3601 122.594 50.6392C122.675 50.7721 123.207 50.3527 123.231 50.3701C124.078 51.0972 123.922 52.0531 124.212 53.1609C124.263 53.3628 125.351 53.4766 124.884 54.1579C124.372 54.9036 121.235 55.9818 122.36 56.4935C122.806 56.6937 126.804 55.3695 125.147 56.9454C125.589 57.3763 125.765 57.9201 125.899 58.4645L125.873 58.3916C125.957 59.1808 125.942 59.9615 126.542 60.671C126.587 60.724 127.77 60.6981 127.783 60.8527C127.799 61.0802 127.285 61.2982 127.277 61.4598C127.229 62.1397 127.779 62.6723 127.789 63.3233C127.794 63.5695 127.225 63.5541 127.228 63.8434C127.23 64.1312 127.989 64.2436 127.673 64.6723C127.431 64.9971 125.948 65.4251 125.803 65.8158C127.295 65.7069 127.287 65.9754 127.714 66.4251C127.797 66.5118 128.309 66.377 128.375 66.4164C128.655 66.5776 128.236 66.7712 128.537 66.9226C128.61 66.9597 129.12 66.9308 129.208 66.9598C129.977 67.2082 128.854 67.7505 128.658 67.8391C127.914 68.186 128.584 68.3008 128.295 68.5517C128.005 68.8006 127.618 68.4618 127.447 68.7443C127.094 69.3278 127.197 70.0537 127.184 70.6334C127.183 70.8642 127.861 70.6939 127.877 70.7266C128.059 71.2048 127.34 71.6975 128.7 71.9495C125.193 72.3175 129.044 72.2359 128.346 72.9311C128.289 72.9858 126.629 73.0626 126.384 72.8581C126.14 72.6535 126.656 72.3375 126.274 72.0552C126.184 71.9875 124.624 71.6213 124.529 71.5713C123.787 71.1752 126.266 71.0779 126.402 71.0531C127.868 70.7788 126.183 70.3362 126.064 70.2178C125.52 69.6662 125.853 69.1792 125.457 68.725C125.2 68.4286 123.575 68.4703 123.614 68.235C123.741 67.4613 125.986 67.0311 123.973 66.4373C123.543 66.312 121.785 66.6034 123.133 65.9479C123.219 65.9091 124.456 65.3834 123.627 65.2234C123.523 65.2038 123.008 65.2552 122.961 65.2212C122.656 64.9939 123.048 64.7799 122.82 64.5248C122.592 64.2696 122.259 63.981 122.391 63.6496C122.47 63.4509 123.389 63.071 123.608 62.9427C124.241 62.5779 123.095 62.4808 123.88 62.1856C124.667 61.8793 125.965 61.9998 126.412 61.4555C125.085 61.6753 123.72 61.8829 122.385 62.1002C122.272 61.2119 122.504 60.2572 122.209 59.414C122.208 59.4119 122.207 59.4099 122.206 59.4082L122.403 59.9674C122.327 59.8835 121.734 60.2625 121.66 60.1597C121.343 59.7175 121.621 59.0759 121.201 58.6528C120.871 58.3231 119.979 58.2295 119.61 57.9112C120.877 56.9949 120.104 56.6115 120.009 56.1173C119.974 55.9425 120.344 55.7646 120.407 55.5934C120.632 54.9505 119.526 55.7727 119.278 55.7606C118.222 55.7153 120.918 54.2273 120.537 53.6849C120.518 53.6541 118.878 54.0774 118.762 54.0791C118.003 54.0861 119.232 53.7492 119.226 53.4899C119.216 53.0191 119.41 52.5677 118.747 52.3819C118.551 52.3283 117.499 52.5548 118.038 51.9137C118.108 51.8293 118.585 51.5694 118.597 51.5276C118.775 50.7933 117.308 51.6625 116.66 51.7079C116.013 51.7546 116.77 50.7443 117.005 50.4818C117.615 49.8039 117.425 50.4455 117.504 50.4113C118.459 50.0061 118.127 49.8057 118.058 49.5347C119.451 48.6111 119.162 48.3428 117.98 49.2571C117.852 49.3573 118.094 49.4488 118.058 49.5347C116.546 50.2103 116.162 49.9981 117.202 48.7877C117.689 48.2194 118.5 47.9278 117.886 47.5535C117.609 47.3851 116.714 48.117 116.311 48.0797C115.395 47.9971 115.854 46.7717 115.365 46.3738C115.189 46.2316 114.798 46.7685 114.66 46.6847C114.295 46.4656 114.474 45.9061 114.046 45.7313C114.007 45.7161 113.526 46.1754 113.448 46.0825C112.841 45.3861 112.692 44.4918 112.103 43.7249C111.817 43.3525 111.013 42.9348 110.762 42.5189C110.329 41.801 110.379 40.3888 109.724 40.0027C109.301 39.7507 108.878 40.2678 108.411 40.4205C107.512 40.7223 108.208 39.1751 108.318 38.9399C108.322 38.932 108.71 39.1228 108.813 38.7349C109.245 38.1632 108.323 38.9408 108.318 38.9399C108.392 38.7885 107.95 38.0995 107.747 38.0712C107.637 38.056 107.219 38.5229 107.171 38.5071C106.03 38.1241 105.179 37.497 104.607 36.5457C104.602 36.5235 105.105 36.038 105.087 35.9919C104.846 35.3326 103.966 35.682 103.249 35.714C102.531 35.7455 102.352 35.3593 102.917 34.2573C102.527 34.1141 102.454 33.3507 102.414 32.8951C102.374 32.4393 101.464 33.4526 101.426 33.4553C100.272 33.5519 100.31 32.743 99.7743 32.0968L103.006 33.2443C102.979 33.2337 102.951 33.2248 102.922 33.2181C102.674 33.1517 102.052 33.3864 101.722 33.5794C101.457 33.7315 101.218 33.4444 100.99 33.6884C100.958 33.7213 101.094 34.3128 101.086 34.3376C100.92 35.1011 100.803 33.6192 100.694 33.3698C100.291 32.4656 100.001 31.9978 99.6632 32.5339C99.582 32.6574 99.781 34.7987 99.6463 34.9601C99.4614 35.1684 99.362 34.4054 99.1638 34.647C99.1464 34.6672 99.2693 35.122 99.114 35.1415C98.444 35.2239 97.5475 35.2084 96.8571 35.4902C96.7589 35.528 97.1239 36.1943 96.9875 36.2603C96.3328 36.5746 95.5993 36.814 94.796 36.7513C94.5964 36.7341 94.5106 36.2056 94.4174 36.0751C93.8457 35.2883 94.0184 36.6918 93.9867 36.7329C93.0298 37.83 91.5746 37.1167 90.539 38.2469C90.477 38.3135 90.579 39.8849 89.81 38.8606C89.7592 38.7922 88.9683 37.7456 89.1442 38.6376C89.1556 38.6932 89.5896 39.218 89.3073 39.2804C89.0238 39.3437 88.8112 39.9414 88.1271 39.4715C87.9097 39.3244 87.0777 38.3074 87.2133 39.3865C87.2219 39.4619 87.7832 41.773 86.8662 40.4529C86.7154 40.2356 85.9659 38.7222 85.9671 39.6991C85.9689 39.8878 86.2827 40.1479 86.1917 40.4617C86.048 40.9473 85.4444 40.7572 85.4367 41.6165C85.4355 41.7684 85.7146 42.9204 85.0786 42.2776C84.9787 42.1771 84.7734 41.647 84.6266 41.6557C83.9269 41.6948 83.5129 42.3583 82.7782 42.3278C82.514 42.3206 82.1638 41.4717 81.8356 41.3781C81.5077 41.2843 80.9675 41.3248 80.9561 41.8131C80.9456 42.3011 81.9154 43.4161 81.6472 43.7071C80.5215 44.9492 78.6705 45.0764 77.2448 45.822C77.0297 45.9349 77.4758 46.2681 77.1789 46.4664C76.0536 47.2164 74.4665 48.8274 72.871 48.5658C71.6254 48.3332 72.2052 47.1379 71.4249 47.2258C71.0475 47.2714 71.6833 48.8778 71.6458 48.9672C71.2851 49.8611 70.4 49.5595 69.9215 50.1666C69.8251 50.2907 70.333 50.7716 70.2487 50.8696C69.9661 51.2082 69.4221 51.2137 69.1153 51.4956C68.9786 51.6234 69.3057 52.0323 69.1429 52.0968C68.7565 52.2565 68.3333 52.2856 67.7206 52.1188C67.6646 52.1038 67.4931 51.4291 67.2278 51.587C66.7936 51.8483 66.0241 51.8031 65.8571 52.5371C65.8086 52.7567 66.5011 53.7293 65.7274 53.2703C65.5655 53.1748 64.8047 51.9552 65.1883 53.2066C65.2505 53.4155 65.6604 55.1825 64.7428 54.5191C64.5012 54.3444 63.6169 53.5374 63.5592 53.8084C63.5541 53.8487 64.0235 54.2998 63.923 54.4511C63.5776 54.9642 63.0448 55.2728 62.6782 55.7962C62.5813 55.9368 63.1708 56.3253 63.014 56.5178C62.5855 57.0462 61.8089 57.4185 61.1682 57.6435C60.9334 57.7239 60.731 57.1873 60.6812 57.15C59.8723 56.542 60.5358 57.6879 60.5092 57.8043C60.3317 58.516 59.6084 58.2927 59.2836 58.7487C59.193 58.8732 59.6582 59.3056 59.669 59.3677C59.761 59.9858 59.254 58.9563 59.0251 58.9763C58.3848 59.0268 57.9188 59.4524 57.5513 59.8411C57.414 59.9868 58.0363 60.4222 57.9082 60.5462C57.1583 61.2912 56.2494 61.9211 55.1774 62.2651C54.9747 62.3289 54.7229 61.8142 54.6108 61.7403C53.8252 61.2242 54.2745 62.4265 54.2734 62.5765C54.2733 63.2568 53.834 62.9758 53.5971 63.2859C52.437 64.8136 50.464 66.0159 48.9817 66.9959C47.0376 68.2876 45.3677 69.0152 43.7824 70.5738C43.6837 70.6703 44.2765 71.1407 44.1978 71.231C43.163 72.3681 41.8112 73.1705 40.7935 74.3649C40.7103 74.4609 41.315 74.8668 41.1974 75.0384C40.9597 75.394 40.5419 75.7163 40.0772 75.831C39.8513 75.888 39.6528 75.2529 39.4334 75.3197C38.9217 75.4744 38.5005 75.7867 38.2044 76.2072C38.0795 76.3873 38.8023 76.7059 38.6024 76.8982C37.2419 78.2279 36.0089 79.5294 33.9613 80.1599C33.8219 80.2021 32.7353 79.2108 32.7245 79.6055C32.9871 79.917 33.3145 80.266 33.6048 80.5899C31.7906 82.6046 29.4526 84.1288 27.4352 85.9758C27.3496 86.0545 28.0344 86.4723 27.8717 86.6272C26.9257 87.5293 26.1792 88.561 24.6981 88.9382C24.5515 88.9768 23.6394 87.9568 23.5081 88.3773C23.4858 88.4522 23.1972 88.9946 23.2984 89.3123C23.3153 89.3586 23.8405 89.7359 23.7195 89.8823C23.0079 90.7252 22.0835 91.4439 21.046 91.9358C20.8767 92.0153 20.5265 91.4039 20.4016 91.4566C19.5186 91.8344 19.2027 92.8898 18.1602 93.0718C17.4601 93.1927 16.7709 92.2186 15.7293 91.6304C15.5823 91.5475 15.3121 91.787 14.8179 91.3306C13.5746 90.1835 12.3731 88.7639 11.0335 87.556C10.7452 87.2955 10.7025 87.9379 10.2336 87.0752C10.2028 87.0168 10.2282 86.5453 10.0618 86.2603C9.94712 86.0629 9.38139 85.6633 9.26707 85.3774C9.15303 85.0915 9.65825 85.3949 9.56605 85.0162C9.47094 84.6347 8.85212 84.1545 9.07476 83.7963ZM102.201 30.8485C102.374 30.1474 100.838 31.9833 101.45 31.7417C101.481 31.7279 102.193 30.8833 102.201 30.8485ZM124.246 59.8423C125.178 59.2093 123.607 59.3433 122.884 59.8019C122.157 60.2461 123.961 60.0277 124.246 59.8423ZM125.722 63.7159C126.487 63.1383 123.115 63.5272 123.856 63.9101C123.898 63.9324 125.677 63.7488 125.722 63.7159ZM16.4946 90.3808C16.4689 90.3616 16.2663 90.5234 16.2844 90.5499C16.7303 91.1802 17.1345 90.8569 16.4946 90.3808ZM126.909 67.8139C127.36 67.6396 126.807 67.2365 126.247 67.4542C125.797 67.6268 126.348 68.0276 126.909 67.8139ZM88.5167 32.3656C88.4974 32.3351 88.3156 32.3832 88.4032 32.5648C88.686 33.1491 88.8415 32.8765 88.5167 32.3656ZM127.075 75.0501C127.203 73.977 130.004 73.3143 129.689 74.4915C129.632 74.7043 128.795 74.0339 128.543 74.3051C128.083 74.8 129.843 75.1279 128.9 75.6327C128.727 75.7239 127.062 75.1112 127.072 75.0482C127.073 75.0489 127.074 75.0495 127.075 75.0501ZM103.871 28.5027C103.886 28.474 103.706 28.2903 103.681 28.311C103.099 28.8177 103.458 29.1844 103.871 28.5027ZM78.251 36.0435C78.2055 35.9916 77.6528 36.2388 77.6665 36.303C78.0217 37.5328 79.132 37.0412 78.251 36.0435ZM117.287 39.6716C118.063 39.4222 118.349 39.6423 117.727 40.4078C117.595 40.1533 117.426 39.9244 117.287 39.6716Z" fill="#FC4C02"/>
</svg>
