<svg width="143" height="100" viewBox="0 0 143 100" fill="none" xmlns="http://www.w3.org/2000/svg">
<path d="M11.7105 32.4202C12.4037 33.3228 12.8712 34.7309 13.1042 35.8585C13.1781 36.2117 12.7203 36.2476 12.7546 36.5005C12.8223 36.995 13.2072 37.2903 13.2443 37.793C13.2548 37.9606 12.5697 38.0967 12.5944 38.2655C12.7339 39.1876 13.269 39.8537 13.5531 40.7146C14.9514 44.9548 16.7394 48.8919 18.617 52.9156C19.2376 54.2445 19.5787 56.0908 20.5617 57.2594C20.6766 57.395 21.135 57.0098 21.1937 57.0143C22.0976 57.0912 20.9813 57.5383 21.0171 57.9149C21.1624 59.4073 21.8879 60.7339 22.7615 61.7293C23.1334 62.1494 23.8442 61.0669 23.5726 61.8821C23.5549 61.9381 22.9481 62.1464 22.9702 62.3101C23.0203 62.6795 23.4647 63.1844 23.5636 63.4359C23.753 63.9252 23.8037 63.994 24.0566 64.4073C24.3943 64.9692 24.5692 65.8174 25.076 66.3329C25.1858 66.4421 25.6133 65.9233 25.8365 66.0646C26.0591 66.206 26.3635 66.7648 26.3596 67.0307C26.3539 67.2949 25.8835 67.4987 25.8087 67.5949C25.1748 68.4037 26.7126 68.2634 26.7923 68.32C28.2368 69.425 28.4633 71.0688 29.4395 72.3702C30.1752 73.3476 31.1809 74.222 31.8887 75.1411C32.7245 76.2304 33.2307 77.3503 34.1661 78.2852C34.266 78.3859 34.7104 77.7541 34.8324 77.8746C36.1227 79.1461 37.2906 80.4248 38.2841 81.9816C38.3824 82.1371 37.773 82.4835 37.8467 82.6698C38.2901 83.7985 38.9442 85.9768 41.1686 84.0174C41.6725 84.5271 42.3274 85.1114 42.5593 85.9417C42.7148 86.4791 41.9851 86.8778 42.5972 86.8906C42.7343 86.893 42.9294 86.2728 43.1073 86.3152C43.8508 86.4906 44.4385 87.0441 45.2207 87.063C45.3787 87.0645 45.5903 86.5373 45.6701 86.4627C46.3143 85.8584 46.2328 87.317 46.3178 87.4604C46.8888 88.5087 47.6608 88.48 48.4787 88.749C48.6692 88.8109 48.663 88.015 48.8493 88.0464C49.8097 88.216 50.744 88.4843 51.6407 88.9468C51.8413 89.0512 51.5614 89.6678 51.6555 89.7507C51.8114 89.8824 51.9464 89.8013 52.0697 89.6616C52.2812 89.4214 52.4561 89.01 52.712 89.1978C52.7982 89.2587 52.7061 89.8081 52.7182 89.8701C52.924 90.8446 53.2456 89.5031 53.3083 89.4759C54.1614 89.1017 54.7274 90.5094 55.6073 90.2588C55.7076 90.2269 55.4363 89.5411 55.7162 89.4941C57.5911 89.1726 59.5828 88.9801 61.6393 88.9663C61.9591 88.9627 61.8974 89.5303 61.9336 89.5874C62.5347 90.4694 62.3452 89.1027 62.4237 89.0245C63.0601 88.4395 64.1575 89.2611 64.1097 87.5485C67.4714 86.8893 70.0686 84.5357 73.7536 84.0098C73.8003 84.0013 74.0782 84.6164 74.1703 84.5967C75.2852 84.3588 74.561 83.5783 74.4687 82.1326C74.4424 81.7714 75.72 82.78 75.8236 82.847C76.1958 83.1013 76.5839 84.0376 76.677 84.0733C77.4355 84.3346 75.5699 81.6151 76.0981 81.265C76.1179 81.2585 76.383 81.811 76.4612 81.8316C76.7059 81.8967 76.7108 81.6036 76.9639 81.6853C77.5453 81.877 78.5629 83.1241 78.5219 82.021C78.5132 81.8797 77.3655 80.4003 77.8826 80.1486C78.0906 80.0503 78.8992 79.439 79.202 79.3688C79.5046 79.3 79.6982 79.9035 79.7298 79.9128C80.828 80.102 80.7807 80.5437 81.7954 81.2639C82.8103 81.977 81.0587 79.7841 80.9995 79.4388C80.9407 79.0947 81.7892 79.2822 82.04 79.3792C82.2901 79.4772 82.3797 79.8892 82.558 79.917C83.7362 80.0866 82.0105 78.586 81.9572 78.0678C81.8194 76.8478 83.4792 78.1927 84.0733 77.9861C84.2331 77.9306 83.8381 77.6386 83.9224 77.5161C84.2598 77.0351 84.9269 77.3339 85.0518 76.4698C85.0735 76.3281 84.6839 75.0354 85.5212 75.5357C85.6416 75.6082 85.865 76.095 86.1244 76.0328C86.5137 75.9396 87.0819 75.6169 87.2667 75.2365C87.4024 74.956 86.6053 74.5096 87.0487 74.4843C87.2463 74.473 87.3417 75.0451 87.687 74.9914C88.031 74.9391 88.6006 74.4273 88.8078 74.2267C89.0158 74.0255 88.4741 73.6365 88.4635 73.5882C88.408 73.3069 88.6213 72.7108 88.6583 72.6794C90.4592 71.0159 92.8791 70.2987 94.3936 68.3884C94.5127 68.2394 93.954 67.8267 93.9674 67.7988C94.2415 67.1495 95.1131 68.822 95.86 68.9541C94.8623 67.9897 95.229 67.9897 95.4549 67.5663C95.5629 67.3615 95.1069 67.0543 95.0836 67.0006C94.7571 66.1868 95.6461 66.7939 95.8374 66.9091C96.5408 67.3332 96.0637 66.4939 96.5359 66.7749C97.006 67.0523 97.3004 67.8499 97.6109 67.538C97.3556 67.0952 96.2234 66.385 96.3166 66.0039C96.6637 64.5712 99.0336 63.668 99.8236 63.0252C100.61 62.3884 100.77 62.0961 101.31 61.8051C102.287 61.2762 101.328 60.8783 101.472 60.1026C101.615 59.3265 103.086 61.2077 103.516 61.4957C103.945 61.7842 103.641 61.3459 103.922 61.4582C104.203 61.5705 104.277 61.9911 104.541 61.8696C104.808 61.7466 104.681 60.577 104.364 60.1387C103.695 59.209 102.613 58.6273 103.408 58.4009C103.455 58.3884 103.81 58.9163 103.965 58.8463C105.178 58.2773 106.102 57.349 107.275 56.7218C107.437 56.6359 107.835 57.2237 107.935 57.179C108.979 56.7156 107.87 56.19 107.313 54.8874C108.487 56.1588 109.469 56.6557 110.028 56.0707C110.361 55.7223 109.753 55.2698 109.574 54.6816C109.52 54.5046 110.129 54.6091 109.91 54.3235C109.197 53.3879 108.027 52.7428 108.962 52.4921C109.005 52.4821 109.392 52.9973 109.505 52.9312C110.239 52.5069 109.413 51.6147 109.885 50.883C109.923 50.8239 109.972 50.7669 110.029 50.7116C110.54 50.2143 111.681 49.8616 112.228 49.4185C113.654 50.7346 113.823 49.8873 113.027 48.7718C113.403 48.4379 113.707 47.9879 114.173 47.7453C114.332 47.6625 114.676 48.1198 114.736 48.1446C115.662 48.5386 114.838 47.5075 114.872 47.3933C115.28 46.1931 116.655 46.1305 116.679 44.6465C116.679 44.5935 115.711 43.6536 116.647 44.0796C116.711 44.1098 116.927 44.7927 117.311 44.4286C117.688 44.0721 118.899 43.7854 118.903 42.8286C118.903 42.5991 118.372 41.5419 119.255 41.8277C119.374 41.8672 119.632 42.1599 119.84 42.248C120.506 42.5259 119.554 41.5435 120.602 42.1009C121.647 42.6612 122.669 42.8024 122.545 41.7181C122.543 41.685 121.835 40.8507 121.998 40.6864C122.253 40.4301 122.778 40.1596 123.021 39.8614C123.137 39.7173 122.549 39.3753 122.56 39.3428C123.074 38.151 124.102 37.8542 125.158 36.9852C125.348 36.8315 125.095 35.7002 125.953 35.7929C126.897 35.8888 129.099 38.3989 129.263 36.9538C129.33 36.373 126.462 33.2788 128.693 33.9536C129.329 32.3002 131.166 31.7548 131.596 29.9432C131.616 29.8614 130.84 28.959 130.96 28.8276C131.142 28.6336 131.662 28.8501 131.805 28.7226C132.421 28.1856 132.485 27.3297 133.003 26.7605C133.198 26.5445 133.586 26.9661 133.82 26.7051C134.054 26.4437 133.598 25.8152 134.163 25.6545C134.593 25.5326 136.026 26.1446 136.448 25.8696C135.253 24.9703 135.472 24.725 135.492 24.0282C135.496 23.894 135.006 23.6824 134.985 23.6031C134.894 23.2736 135.356 23.3718 135.24 23.035C135.212 22.9539 134.801 22.6516 134.754 22.5685C134.347 21.8503 135.603 22.0739 135.822 22.1119C136.656 22.2553 136.218 21.7264 136.626 21.6714C137.034 21.6166 137.091 22.1779 137.431 22.0156C138.138 21.6747 138.584 20.9074 139.007 20.3517C139.173 20.1287 138.507 19.8889 138.518 19.8478C138.711 19.2777 139.638 19.2219 138.712 18.1778C141.812 19.8743 138.634 17.6981 139.681 17.4308C139.765 17.4106 141.171 18.2975 141.227 18.6418C141.283 18.9861 140.641 18.9954 140.752 19.4975C140.778 19.6159 141.778 20.8971 141.818 21.0039C142.129 21.8402 140.062 20.4652 139.936 20.408C138.561 19.805 139.598 21.2389 139.604 21.4308C139.633 22.3042 139.008 22.5791 138.977 23.271C138.955 23.721 140.252 24.7014 140.036 24.9161C139.319 25.628 137.282 24.574 138.317 26.4885C138.537 26.8981 140.085 27.7907 138.532 27.5451C138.434 27.5297 137.089 27.2011 137.553 27.9327C137.612 28.0249 138.028 28.332 138.032 28.3996C138.054 28.8425 137.587 28.7801 137.519 29.2005C137.45 29.624 137.419 30.1566 137.018 30.3965C136.777 30.5419 135.807 30.2254 135.546 30.1795C134.795 30.0441 135.455 31.0177 134.668 30.6916C133.878 30.3619 133.133 29.2657 132.368 29.3867C133.423 30.2205 134.49 31.0977 135.544 31.947C134.738 32.921 133.643 33.6214 132.908 34.6504C132.818 34.7795 133.485 35.1009 133.403 35.2505C133.061 35.8683 132.262 36.0457 131.972 36.7366C131.744 37.2803 131.948 38.2472 131.724 38.8293C130.297 38.1456 130.153 39.1499 129.636 39.5575C129.455 39.7007 129.147 39.428 128.941 39.4668C128.181 39.6099 129.407 40.2604 129.468 40.5228C129.724 41.6459 127.307 39.7387 126.842 40.4153C126.817 40.4497 127.732 41.9132 127.762 42.0368C127.968 42.8281 127.274 41.7297 126.991 41.879C126.47 42.154 125.941 42.1735 125.897 42.9692C125.886 43.2023 126.376 44.2043 125.546 43.959C125.437 43.9272 125.041 43.5556 124.992 43.5635C124.148 43.7368 125.43 44.8597 125.61 45.5362C125.791 46.2113 124.51 45.8957 124.172 45.7681C123.298 45.438 124.049 45.3367 123.995 45.2677C123.352 44.445 123.201 44.8907 122.914 45.0892C121.619 44.0327 121.386 44.4546 122.622 45.2998C122.758 45.3913 122.812 45.0904 122.914 45.0892C123.959 46.3872 123.778 46.9171 122.251 46.3373C121.534 46.0665 121.071 45.3244 120.767 46.1381C120.626 46.5083 121.587 47.1582 121.611 47.6065C121.667 48.6275 120.21 48.6563 119.84 49.3279C119.702 49.5753 120.352 49.7921 120.274 49.9759C120.069 50.4637 119.41 50.4931 119.262 51.0216C119.249 51.0706 119.814 51.4274 119.717 51.5492C118.978 52.4889 117.976 52.9708 117.125 53.8909C116.716 54.3335 116.271 55.3615 115.789 55.7801C115.75 55.8136 115.71 55.8464 115.668 55.8784C114.835 56.5114 113.339 56.8632 112.915 57.6463C112.616 58.1872 113.188 58.5401 113.341 59.0357C113.634 59.9993 111.895 59.5749 111.638 59.4952C111.63 59.4921 111.869 59.0104 111.434 58.9793C110.81 58.6136 111.64 59.4888 111.638 59.4952C111.472 59.4446 110.655 60.0962 110.603 60.3339C110.576 60.4629 111.073 60.8461 111.051 60.9053C110.511 62.2909 109.655 63.4179 108.468 64.2256C108.442 64.2347 107.965 63.722 107.91 63.7494C107.117 64.1219 107.368 65.0887 107.259 65.9261C107.149 66.7626 106.645 67.0313 105.514 66.4691C105.265 66.9354 104.374 67.078 103.849 67.1465C103.325 67.215 104.242 68.221 104.235 68.2663C104.022 69.6907 102.996 69.6078 102.05 70.3577C101.601 70.7114 100.921 71.6391 100.573 72.175C100.301 72.5994 99.8675 72.5704 99.6786 73.0283C99.6528 73.09 100.113 73.4888 100.115 73.5185C100.243 74.3933 99.4063 73.1473 99.1495 73.0257C98.2164 72.5821 97.6995 72.3648 97.5366 73.1331C97.4994 73.309 98.6276 75.1695 98.5096 75.4472C98.3547 75.8043 97.9371 75.1504 97.788 75.5377C97.7747 75.5703 98.0978 75.9139 97.9138 76.0535C97.0639 76.7062 96.0136 77.2797 95.2115 78.048C95.1005 78.1518 95.7409 78.5845 95.5877 78.7444C94.8676 79.4948 93.9903 80.2144 92.9903 80.6009C92.743 80.6939 92.5246 80.1931 92.3831 80.109C91.5255 79.602 92.046 80.9484 92.0021 81.0188C90.9962 82.7105 89.1176 82.6382 87.9813 84.2657C87.923 84.3553 88.1809 86.0057 87.1335 85.2222C87.0623 85.1712 86.0073 84.3578 86.2867 85.2469C86.304 85.3027 86.8781 85.6996 86.5291 85.8768C86.1813 86.053 85.943 86.7794 85.0883 86.5017C84.8167 86.416 83.7477 85.6075 83.9373 86.728C83.9564 86.8027 84.6521 89.143 83.5084 87.9954C83.3205 87.806 82.3961 86.3946 82.4016 87.443C82.4021 87.6463 82.7883 87.8375 82.6711 88.2035C82.4905 88.7673 81.7286 88.7374 81.6675 89.6796C81.6583 89.8456 81.9323 91.0375 81.1631 90.5002C81.0433 90.4155 80.8226 89.8871 80.6355 89.9333C79.7441 90.1504 79.1894 90.944 78.2285 91.0704C77.89 91.115 77.5557 90.253 77.155 90.2087C76.7538 90.1651 76.085 90.2858 76.0043 90.8119C75.9206 91.3401 76.9676 92.4139 76.5748 92.7716C74.8509 94.3296 72.444 94.6066 70.2895 95.4168C69.9705 95.5356 70.4387 95.8994 69.9775 96.1085C68.2878 96.9019 65.2511 98.4813 63.2988 97.8325C61.7788 97.3146 63.234 96.2435 62.1689 96.1451C61.6678 96.0946 61.5282 97.8552 61.415 97.934C60.3747 98.7114 59.3844 98.1242 58.3559 98.4923C58.1392 98.5683 58.4466 99.2186 58.2566 99.2759C57.5945 99.4784 56.8539 99.2411 56.2141 99.3372C55.9254 99.3814 56.011 99.8999 55.7318 99.8735C55.0677 99.8141 54.4733 99.6045 53.848 99.1075C53.7933 99.0621 54.1792 98.4171 53.712 98.3866C52.9498 98.3373 52.0554 97.8093 51.1374 98.1948C51.1319 98.1971 51.1264 98.1994 51.1209 98.2018C50.8474 98.3214 50.6822 99.508 50.2191 98.6127C50.1214 98.4237 50.4854 97.0327 49.6514 98.1555C49.5289 98.349 48.0758 99.7851 47.754 98.6014C47.6692 98.2919 47.5903 97.0685 47.2508 97.1714C47.202 97.1892 47.2096 97.8537 46.94 97.8486C45.9892 97.8174 45.089 97.4658 44.1297 97.3311C43.8738 97.296 44.002 98.0502 43.6223 97.9749C42.573 97.7678 41.4184 97.0821 40.6175 96.4544C40.3198 96.2209 40.7938 95.8416 40.7956 95.7758C40.8533 94.7183 40.04 95.7745 39.8736 95.7741C38.876 95.7672 38.5998 94.8992 37.8315 94.6255C37.6192 94.5471 37.4275 95.1637 37.3605 95.1883C36.6803 95.4107 37.5627 94.6333 37.3855 94.3774C36.8994 93.6607 36.1334 93.2088 35.4459 92.8174C35.1925 92.6739 35.0365 93.4551 34.8115 93.3171C33.4602 92.5013 32.2428 91.4318 31.3952 90.158C31.239 89.9191 31.7383 89.6131 31.7797 89.4795C32.0807 88.5553 30.8468 89.0818 30.667 89.0739C29.8603 89.0528 30.0246 88.5275 29.5841 88.234C27.3803 86.7685 25.5146 84.2196 24.1859 82.2918C22.4411 79.7722 21.4831 77.5993 19.7481 75.3841C19.6381 75.2418 19.1338 75.8181 19.0308 75.7002C17.7284 74.156 16.8876 72.3706 15.6346 70.8148C15.5325 70.6855 15.0663 71.2654 14.8819 71.0699C14.5005 70.6727 14.173 70.0829 14.0762 69.5028C14.0283 69.2213 14.7291 69.2009 14.6708 68.9247C14.5363 68.2804 14.2328 67.6921 13.8107 67.2168C13.629 67.014 13.2233 67.7346 13.0348 67.441C11.731 65.4339 10.4545 63.4933 10.0922 60.9604C10.0673 60.7863 11.2722 59.9392 10.8597 59.78C10.4926 59.9572 10.0763 60.1934 9.69193 60.3971C7.80708 57.5289 6.65776 54.3321 5.14634 51.3009C5.08237 51.173 4.51082 51.7543 4.38337 51.5081C3.64524 50.0839 2.73586 48.8057 2.67259 47.004C2.66537 46.8258 3.91707 46.2715 3.51511 45.9439C3.44305 45.8868 2.95238 45.3334 2.60374 45.3042C2.55242 45.3023 2.04542 45.7109 1.92293 45.5137C1.22261 44.3656 0.710728 43.0469 0.451148 41.6817C0.410297 41.4607 1.11954 41.356 1.09571 41.196C0.922247 40.0634 -0.0748524 39.2434 0.00439822 38.0395C0.0595497 37.2324 1.22258 36.929 2.08538 36.0761C2.20705 35.9557 2.03522 35.561 2.62447 35.2363C4.10565 34.4187 5.85022 33.7646 7.41786 32.8712C7.75568 32.6791 7.1221 32.3559 8.11271 32.2341C8.17946 32.2269 8.6461 32.4574 8.97631 32.4046C9.20484 32.3686 9.75591 31.9436 10.0731 31.9459C10.39 31.9483 9.9518 32.3511 10.3564 32.4164C10.7645 32.4798 11.4097 32.0323 11.7105 32.4202ZM101.499 67.4498C100.766 67.2542 102.401 69.0026 102.299 68.2997C102.292 68.2637 101.536 67.4587 101.499 67.4498ZM132.219 32.5084C131.081 32.2507 132.088 33.4804 132.95 33.7029C133.811 33.9238 132.565 32.5853 132.219 32.5084ZM134.778 27.8949C133.762 27.8619 136.416 29.9778 136.247 29.0602C136.238 29.0076 134.837 27.8966 134.778 27.8949ZM3.15444 37.451C3.18036 37.4319 3.0678 37.1425 3.03639 37.1502C2.28452 37.3484 2.51013 37.9268 3.15444 37.451ZM137.159 23.2428C136.681 23.1205 136.802 23.8567 137.397 24.0082C137.877 24.1292 137.755 23.3937 137.159 23.2428ZM84.8067 78.8952C84.7799 78.871 84.5852 78.9827 84.7127 79.1387C85.1244 79.641 85.2565 79.3047 84.8067 78.8952ZM142.182 16.086C141.337 17.0699 138.594 16.1 139.658 15.1327C139.851 14.9573 140.076 16.0941 140.468 15.9742C141.185 15.7533 139.969 14.4221 141.088 14.4674C141.293 14.4767 142.235 16.0335 142.184 16.0901C142.183 16.0887 142.183 16.0873 142.182 16.086ZM99.3269 65.5551C99.2993 65.5379 99.0594 65.7312 99.076 65.7587C99.4886 66.4181 99.9738 66.0276 99.3269 65.5551ZM73.3967 84.984C73.3479 84.9354 72.7151 85.2304 72.7265 85.2945C73.0257 86.5573 74.33 85.9514 73.3967 84.984ZM112.275 49.4441C111.936 48.6807 112.136 48.3253 113.026 48.7723C112.766 48.9831 112.536 49.2262 112.275 49.4441Z" fill="#FC4C02"/>
<path d="M95.7029 10.7666C95.7832 11.1683 95.4201 11.531 95.0154 11.7615C94.8895 11.8341 94.5076 11.6414 94.4027 11.6852C94.198 11.771 94.3485 11.9704 94.1146 12.0442C94.0351 12.0679 93.4211 11.7888 93.3523 11.8188C92.9797 11.9848 93.0538 12.2911 92.8254 12.5113C91.6994 13.596 91.0082 14.8076 90.2526 16.04C90.004 16.4465 89.2415 16.7796 89.3342 17.3219C89.3456 17.3854 89.9131 17.5485 89.9555 17.5747C90.6023 17.9786 89.4972 17.5328 89.3118 17.5839C88.579 17.7876 88.3681 18.2255 88.4448 18.6953C88.4791 18.8957 89.6433 19.1143 88.9637 19.0661C88.9177 19.0632 88.3417 18.8138 88.2625 18.8377C88.0842 18.8925 88.1205 19.1275 88.0454 19.1921C87.8976 19.3154 87.8945 19.3432 87.8361 19.4884C87.7512 19.685 87.3735 19.822 87.4317 20.0851C87.4459 20.1419 88.0731 20.2928 88.1504 20.4026C88.2275 20.5123 88.1079 20.6893 87.9421 20.705C87.7762 20.7208 87.3099 20.5261 87.1967 20.4996C86.242 20.2729 87.4389 20.945 87.4603 20.985C87.8127 21.7023 86.9271 21.9017 86.7553 22.3991C86.6265 22.7772 86.7253 23.2644 86.5668 23.6116C86.3757 24.0245 85.9206 24.2719 85.8317 24.7069C85.8216 24.7525 86.5519 24.9505 86.541 25.0067C86.4249 25.6044 86.1496 26.1419 85.4706 26.5398C85.4018 26.5795 84.8021 26.2874 84.696 26.314C84.0605 26.4815 82.6335 26.5989 85.2842 27.7582C85.0955 27.9562 84.8857 28.2034 84.2632 28.2218C83.8624 28.2339 83.2273 27.8636 83.4596 28.1321C83.5112 28.1923 84.125 28.3523 84.1572 28.4269C84.2926 28.7407 84.0079 28.9322 84.2339 29.2749C84.2813 29.3451 84.8205 29.5192 84.912 29.5664C85.6519 29.9531 84.2968 29.6913 84.1887 29.6998C83.3803 29.7698 83.5748 30.0955 83.4552 30.3824C83.4272 30.4489 84.1734 30.6199 84.1722 30.6928C84.1564 31.068 83.9718 31.3977 83.5369 31.6183C83.4384 31.6667 82.8505 31.3847 82.7722 31.3969C82.4342 31.4533 83.5774 31.8922 83.2755 31.9541C83.2134 31.9676 82.6959 31.7666 82.6364 31.7523C81.7022 31.5261 82.9541 32.0519 82.9742 32.0849C83.2578 32.5122 81.857 32.2317 81.9472 32.5802C81.9594 32.6224 82.6486 32.7781 82.6423 32.8825C82.6038 33.5792 82.1876 34.1845 81.4384 34.6253C81.3228 34.6941 80.8494 34.4504 80.7859 34.435C79.7923 34.1993 81.0542 34.7136 81.0915 34.7622C81.352 35.1346 80.1929 34.9915 81.6634 35.6971C80.7612 36.572 81.2508 37.9285 79.5119 38.5007C79.4914 38.5085 78.8671 38.2631 78.8288 38.2797C78.3611 38.4766 79.366 38.7591 80.4941 39.3926C80.7774 39.5518 79.2685 39.2066 79.157 39.1837C78.7464 39.099 77.8243 38.7151 77.7422 38.7061C77.0949 38.6429 80.2158 39.7086 80.1481 39.9052C80.1408 39.9096 79.5769 39.6833 79.5141 39.6798C79.3174 39.6684 79.5273 39.7988 79.3125 39.7799C78.8161 39.7348 77.2893 39.2463 78.1083 39.7295C78.2148 39.7916 79.9922 40.3757 79.8475 40.5218C79.7883 40.5795 79.7103 40.8994 79.5655 40.946C79.4209 40.9926 78.8728 40.734 78.846 40.7316C78.012 40.7015 77.7311 40.5039 76.5763 40.2309C75.4258 39.9594 78.0838 40.8534 78.3625 41.0044C78.6404 41.1552 77.9598 41.109 77.7293 41.0755C77.4987 41.0419 77.1555 40.863 77.0202 40.8576C76.1353 40.8259 78.2959 41.4261 78.6874 41.6547C79.6147 42.1953 77.5995 41.6581 77.3455 41.767C77.2769 41.7964 77.7375 41.914 77.7645 41.9711C77.8653 42.195 77.2175 42.0818 77.7121 42.4696C77.7926 42.5329 78.9186 43.1005 78.0176 42.8974C77.8877 42.8679 77.4127 42.6564 77.2781 42.6897C77.0762 42.7392 76.9018 42.8946 77.025 43.0669C77.1163 43.1941 77.9563 43.3788 77.6685 43.3981C77.5401 43.4065 77.0994 43.1534 76.8975 43.183C76.6958 43.212 76.637 43.4463 76.6231 43.5383C76.6095 43.6304 77.2374 43.7972 77.2762 43.8185C77.4973 43.9433 77.7342 44.2119 77.7284 44.2263C77.5448 44.99 76.2763 45.3095 76.366 46.1471C76.3721 46.2125 77.03 46.4006 77.0376 46.4129C77.2401 46.7004 75.5793 45.9483 74.9584 45.8823C76.2735 46.3207 76.0088 46.3173 76.1047 46.5035C76.152 46.5935 76.671 46.7352 76.7208 46.7593C77.4562 47.1257 76.4387 46.8455 76.2293 46.7918C75.459 46.5943 76.3181 46.9736 75.8029 46.8424C75.2915 46.7125 74.5912 46.3544 74.555 46.4881C75.0105 46.6885 76.2682 47.0201 76.4319 47.1885C77.0515 47.8244 75.8473 48.1853 75.6425 48.4506C75.438 48.7154 75.4905 48.8424 75.2602 48.9577C74.8438 49.166 75.7922 49.3682 76.1393 49.7095C76.4861 50.0513 74.2855 49.1739 73.7953 49.034C73.3056 48.8937 73.7891 49.097 73.5132 49.0391C73.2373 48.9811 72.9368 48.7924 72.8094 48.8385C72.6822 48.8848 73.4588 49.4047 73.951 49.6091C74.9937 50.0421 76.1451 50.3333 75.6779 50.4099C75.6503 50.4141 75.0769 50.1685 75.001 50.1949C74.4178 50.4108 74.2537 50.7897 73.7229 51.0235C73.649 51.0553 73.0116 50.7806 72.9612 50.7966C72.4341 50.9618 73.575 51.2361 74.7393 51.8353C73.1238 51.2268 72.0941 50.9724 72.0017 51.2054C71.9456 51.3453 72.6656 51.5699 73.1349 51.8373C73.2764 51.9178 72.7527 51.8474 73.0809 51.9827C74.1536 52.4256 75.4111 52.7594 74.8383 52.8325C74.8114 52.8351 74.2246 52.5915 74.1754 52.6158C73.8545 52.7716 74.9885 53.2006 75.0367 53.5073C75.0745 53.7477 74.251 53.8635 74.0568 54.0542C72.2271 53.4084 72.5703 53.7728 73.8021 54.3031C73.6981 54.4346 73.7129 54.6211 73.4878 54.7045C73.4109 54.7335 72.8921 54.5152 72.8326 54.5014C71.9001 54.283 73.1059 54.778 73.1428 54.8272C73.4885 55.3409 72.4576 55.3001 73.2507 55.9525C73.2793 55.9758 74.5448 56.4403 73.5847 56.2044C73.5186 56.1878 72.9784 55.8749 72.8787 56.0163C72.7788 56.1577 71.9932 56.2152 72.5064 56.6396C72.6298 56.742 73.6158 57.237 72.7714 57.0617C72.6569 57.0376 72.2975 56.8943 72.0872 56.8439C71.417 56.684 72.6901 57.1705 71.5703 56.8664C70.4505 56.5624 69.5754 56.4389 70.2521 56.9226C70.2716 56.9373 71.2725 57.3461 71.2322 57.4096C71.167 57.5107 70.8998 57.5931 70.8661 57.7107C70.8503 57.7672 71.4955 57.9534 71.5037 57.967C71.7285 58.4623 71.0718 58.529 70.6878 58.8409C70.6162 58.8976 71.4058 59.4092 70.6742 59.3115C69.873 59.205 66.8218 57.9584 67.4374 58.5736C67.6832 58.8208 71.5612 60.3823 69.4287 59.9257C69.7595 60.6035 68.5522 60.7006 69.0991 61.4556C69.1232 61.4894 70.1983 61.9458 70.1648 61.9936C70.1128 62.0639 69.5835 61.9272 69.53 61.9716C69.2926 62.1532 69.657 62.5229 69.509 62.7262C69.4539 62.8039 68.9329 62.5876 68.8671 62.6801C68.8019 62.7728 69.478 63.0864 69.0911 63.1074C68.7965 63.1225 67.3287 62.727 67.113 62.8083C68.5226 63.3077 68.4599 63.3935 68.7728 63.6945C68.8336 63.7525 69.3372 63.8893 69.3913 63.9257C69.6224 64.0774 69.1948 63.9933 69.4495 64.1498C69.5106 64.1875 69.9923 64.3569 70.0695 64.3973C70.7439 64.7471 69.6012 64.5346 69.4023 64.4972C68.6469 64.3562 69.2559 64.627 68.944 64.6125C68.6322 64.5979 68.3234 64.3485 68.1177 64.3868C67.692 64.4666 67.6782 64.7558 67.5836 64.955C67.5488 65.0356 68.212 65.2044 68.2219 65.2212C68.3253 65.4491 67.5805 65.3822 68.829 65.9255C65.4736 64.8841 69.1144 66.141 68.3655 66.1529C68.3051 66.1534 66.7295 65.6294 66.5252 65.475C66.3212 65.3207 66.8503 65.3802 66.5275 65.1523C66.4518 65.0986 65.032 64.4456 64.9496 64.3956C64.3064 64.0037 66.6556 64.8023 66.787 64.8395C68.2063 65.2362 66.6837 64.5127 66.59 64.4297C66.1607 64.0499 66.5509 63.9913 66.2532 63.6951C66.0613 63.5024 64.5312 62.9545 64.6089 62.8831C64.8663 62.6453 67.0419 63.2923 65.2828 62.3677C64.9077 62.1701 63.2106 61.642 64.603 61.8919C64.6907 61.9077 65.9517 62.1728 65.2206 61.8151C65.1284 61.7701 64.6397 61.5994 64.6039 61.57C64.3736 61.3764 64.7864 61.4455 64.6383 61.2705C64.4903 61.0956 64.2585 60.8664 64.4681 60.7992C64.5936 60.7584 65.5379 60.9802 65.7734 61.022C66.4512 61.1447 65.4367 60.6669 66.2364 60.8758C67.0401 61.0856 68.1832 61.6255 68.7466 61.6351C67.4793 61.1846 66.1812 60.7144 64.908 60.2576C65.0809 59.9069 65.6176 59.6902 65.6901 59.3031C65.6978 59.2547 64.999 59.0624 64.9897 59.0043C64.9534 58.7603 65.5029 58.7506 65.384 58.4691C65.2893 58.2503 64.6302 57.816 64.5087 57.5793C65.9983 57.9821 65.595 57.5528 65.793 57.4128C65.8617 57.3636 66.2482 57.5037 66.391 57.5016C66.9204 57.4902 65.608 57.123 65.4228 57.0043C64.6327 56.4964 67.5445 57.4957 67.5577 57.2276C67.5594 57.2137 66.0657 56.5143 65.9769 56.4588C65.3961 56.101 66.5239 56.6247 66.6685 56.5786C66.9327 56.4944 67.3409 56.5145 66.9518 56.1711C66.8363 56.0703 65.9162 55.6033 66.6994 55.76C66.802 55.7805 67.3113 55.9673 67.3451 55.9667C67.915 55.9412 66.3083 55.373 65.8036 55.0678C65.299 54.7626 66.4713 54.9744 66.804 55.0504C67.6649 55.246 67.1325 55.2464 67.212 55.28C68.1579 55.6783 68.0366 55.491 68.1528 55.421C69.735 55.9588 69.6886 55.7878 68.2669 55.3463C68.1115 55.2983 68.2318 55.4265 68.1528 55.421C66.6356 54.7929 66.4904 54.572 67.9951 54.9108C68.7003 55.0697 69.4646 55.4204 69.2588 55.0812C69.1661 54.9276 68.0655 54.5892 67.8027 54.3903C67.2034 53.9362 68.3155 54.0078 68.2344 53.7275C68.205 53.6258 67.5827 53.4971 67.5421 53.4204C67.4325 53.2162 67.9241 53.242 67.7476 53.0136C67.7308 52.9927 67.0971 52.8077 67.1053 52.7588C67.1554 52.3837 67.6606 52.2187 67.7995 51.8573C67.8663 51.6826 67.6335 51.247 67.7665 51.0884C67.9933 50.8121 69.0346 50.7391 68.9095 50.3915C68.8306 50.1657 68.1946 49.9866 67.797 49.7625C67.0261 49.3289 68.5889 49.5859 68.8291 49.6309C68.837 49.6325 68.9306 49.8357 69.2785 49.8665C69.9607 50.0524 68.8314 49.6336 68.8291 49.6309C68.9844 49.6596 69.2319 49.4056 69.134 49.3037C69.0804 49.2482 68.4843 49.0601 68.4675 49.0351C68.0818 48.4447 68.0742 47.9857 68.494 47.6707C68.5084 47.6676 69.1642 47.9094 69.19 47.8993C69.5666 47.7637 68.8131 47.3287 68.4028 46.9646C67.9927 46.6005 68.2076 46.5008 69.3807 46.7809C69.29 46.5827 69.865 46.5453 70.2116 46.5292C70.5582 46.5132 69.2802 46.0467 69.2586 46.027C68.5637 45.4068 69.3666 45.4699 69.6029 45.1615C69.7175 45.0157 69.6462 44.6219 69.5686 44.3934C69.5051 44.212 69.8359 44.232 69.6892 44.034C69.6697 44.0074 69.0918 43.8251 69.0716 43.812C68.4387 43.4268 69.8117 43.9861 70.0719 44.0433C71.0178 44.2519 71.5248 44.3537 71.1631 44.0176C71.0804 43.9403 69.112 43.1105 69.0217 42.9909C68.9081 42.8365 69.616 43.1275 69.4786 42.9595C69.4676 42.9454 69.0219 42.7915 69.0646 42.7325C69.257 42.4562 69.6327 42.2131 69.6994 41.8793C69.7103 41.8344 68.9849 41.643 68.989 41.574C69.0084 41.2501 69.1475 40.9363 69.5784 40.765C69.6866 40.7236 70.1653 40.9408 70.3174 40.9768C71.2382 41.1934 69.9949 40.6084 69.9781 40.5778C69.542 39.8353 70.8503 39.8418 70.4819 39.1117C70.4595 39.0711 69.155 38.3626 70.3762 38.6776C70.4575 38.6984 71.7056 39.0241 70.9066 38.6461C70.8566 38.6225 70.2103 38.4656 70.3116 38.3801C70.4129 38.2947 70.0564 37.9753 70.7946 38.0675C71.0272 38.0963 72.2765 38.4092 71.3605 37.9316C71.2963 37.8989 69.19 36.9194 70.7224 37.3692C70.9745 37.4435 72.563 38.0141 71.8046 37.5613C71.6574 37.474 71.2819 37.4076 71.0894 37.2459C70.7925 36.9975 71.2788 36.9763 70.6245 36.5697C70.5086 36.4982 69.4684 36.0023 70.3221 36.1953C70.4558 36.2255 70.9778 36.4397 71.0547 36.4108C71.423 36.2741 71.154 35.9018 71.606 35.7904C71.7651 35.7505 72.6097 36.095 72.8711 36.0869C73.1325 36.0788 73.4166 35.9776 73.0562 35.7473C72.6956 35.5169 71.2899 35.1387 71.2289 34.9613C70.9643 34.1899 71.9778 33.8723 72.3067 33.3097C72.3556 33.2263 71.8393 33.1289 71.8762 32.9937C72.01 32.4944 71.8442 31.4935 73.0339 31.436C73.9867 31.3898 74.4731 32.0378 74.9031 31.8982C75.1087 31.8301 73.5629 31.1376 73.5233 31.09C73.1168 30.6175 73.894 30.6601 73.7702 30.3195C73.7444 30.2491 73.0799 30.0768 73.0651 30.0193C73.0088 29.8212 73.3554 29.7551 73.3559 29.5847C73.3546 29.5078 72.857 29.3478 72.9171 29.2984C73.0549 29.1783 73.3087 29.1182 73.8221 29.1337C73.8689 29.1351 74.4509 29.4397 74.5125 29.3367C74.6106 29.1694 75.1446 29.106 74.746 28.7345C74.6259 28.6236 73.4996 28.2267 74.3241 28.3674C74.4964 28.3966 75.8374 28.9056 74.7218 28.3427C74.5365 28.2489 73.0495 27.4389 74.1105 27.6682C74.3897 27.7285 75.527 28.0309 75.3788 27.8962C75.3545 27.8765 74.7351 27.7046 74.6975 27.6229C74.5752 27.3384 74.7188 27.1353 74.6066 26.8477C74.5755 26.7705 73.9182 26.6392 73.8918 26.5311C73.8182 26.2336 74.0835 25.9871 74.3625 25.8189C74.4665 25.7573 74.9643 25.9993 75.023 26.0127C75.9773 26.2321 74.7586 25.7377 74.6982 25.6785C74.3391 25.3162 74.9777 25.3595 74.8916 25.1112C74.8694 25.0432 74.2649 24.8743 74.216 24.8452C73.7397 24.5542 74.7725 25.0083 74.914 24.9791C75.3141 24.8988 75.3432 24.6633 75.3372 24.4382C75.3341 24.3553 74.6199 24.1974 74.6251 24.1257C74.6425 23.6969 74.8491 23.3172 75.3593 23.0713C75.4566 23.0255 75.9688 23.255 76.0945 23.2824C76.9738 23.4753 75.8757 22.9228 75.7782 22.8499C75.3327 22.518 75.8208 22.6205 75.7821 22.4515C75.5851 21.6232 76.1866 20.8962 76.6011 20.3245C77.1381 19.5785 77.8662 19.1086 78.0135 18.2695C78.0236 18.2164 77.3036 18.0215 77.3032 17.9726C77.3304 17.3521 77.7982 16.8955 77.7922 16.2622C77.7929 16.2106 77.104 16.0442 77.0828 15.9536C77.0347 15.7662 77.1383 15.5864 77.4046 15.5072C77.5332 15.4681 78.0693 15.7686 78.1871 15.7251C78.4627 15.6245 78.576 15.4528 78.5324 15.2351C78.5124 15.1419 77.791 15.0195 77.8181 14.9169C77.9884 14.2136 78.1048 13.5051 79.2268 13.1269C79.3038 13.101 80.702 13.5439 80.4717 13.351C80.0903 13.209 79.6385 13.0513 79.2292 12.9044C79.3543 11.8376 80.1768 11.0262 80.5982 10.06C80.6158 10.0192 79.8574 9.83486 79.8877 9.75457C80.0626 9.28962 80.0188 8.76335 80.9154 8.53893C81.0033 8.5163 82.2845 8.99213 82.1385 8.78366C82.1116 8.74648 82.0135 8.47512 81.7526 8.32253C81.713 8.30034 81.0974 8.12815 81.1037 8.05397C81.1507 7.62657 81.4331 7.26032 81.9391 6.99435C82.022 6.95183 82.6393 7.24405 82.7039 7.21571C83.1568 7.01297 82.792 6.49232 83.4817 6.3885C83.9457 6.31982 85.0273 6.7839 86.1564 7.05631C86.3157 7.0947 86.3847 6.97576 87.0217 7.19131C88.6236 7.73296 90.3495 8.40635 92.0595 8.97641C92.4278 9.0993 92.0929 8.79045 92.943 9.20144C92.9998 9.22924 93.2503 9.45587 93.54 9.59149C93.7403 9.6854 94.3991 9.87306 94.6498 10.0094C94.9003 10.1457 94.3425 10.0039 94.6298 10.185C94.9209 10.3674 95.6662 10.5929 95.7029 10.7666ZM71.7622 46.4534C72.4185 46.5559 70.1659 45.7487 70.6634 46.0604C70.6901 46.0764 71.7299 46.4486 71.7622 46.4534ZM67.3203 60.2885C68.3683 60.489 66.9391 59.875 66.1332 59.7102C65.3281 59.5458 67.0026 60.2279 67.3203 60.2885ZM67.5099 62.0792C68.3559 62.181 65.1629 61.0328 65.7454 61.4449C65.7782 61.4685 67.4608 62.0734 67.5099 62.0792ZM86.2895 7.67233C86.32 7.68126 86.3813 7.59986 86.3523 7.58726C85.6522 7.28742 85.5301 7.45037 86.2895 7.67233ZM67.7682 63.8807C68.2203 63.9783 67.7747 63.6476 67.2125 63.5263C66.7602 63.4287 67.2057 63.7594 67.7682 63.8807ZM76.2414 41.3859C76.2757 41.3959 76.329 41.3408 76.1383 41.2755C75.524 41.0655 75.665 41.2175 76.2414 41.3859ZM66.8982 66.4845C67.1528 66.1439 69.8794 66.8377 69.435 67.1501C69.3546 67.2067 68.6484 66.6922 68.3762 66.7048C67.8802 66.7285 69.5003 67.4266 68.5475 67.2945C68.3732 67.2699 66.8778 66.5019 66.8948 66.4826C66.8959 66.4832 66.8971 66.4839 66.8982 66.4845ZM74.4977 47.3376C74.5284 47.3457 74.5885 47.2647 74.5597 47.2522C73.8599 46.952 73.7383 47.1151 74.4977 47.3376ZM78.9795 38.0412C79.0449 38.0585 79.1783 37.8683 79.1221 37.8408C77.9882 37.3204 77.715 37.7037 78.9795 38.0412ZM74.0067 54.0408C74.6933 54.3924 74.7367 54.5409 73.8032 54.303C73.8858 54.2212 73.9276 54.1244 74.0067 54.0408Z" fill="#FC4C02"/>
<path d="M54.6898 1.36137C54.8723 1.63939 54.6178 1.95605 54.2884 2.18356C54.1862 2.25496 53.7681 2.17333 53.6785 2.22077C53.5039 2.31362 53.7011 2.43495 53.4952 2.52348C53.4249 2.55262 52.7606 2.44359 52.7022 2.47563C52.3869 2.65164 52.5384 2.86169 52.3763 3.05521C51.5763 4.00831 51.2281 4.98761 50.8235 5.99158C50.6907 6.32267 50.0438 6.67818 50.2751 7.05582C50.3027 7.09997 50.8919 7.13227 50.9395 7.14476C51.6681 7.33903 50.4873 7.18361 50.3222 7.24843C49.6699 7.50602 49.5817 7.85411 49.7786 8.18181C49.8641 8.32139 51.0423 8.30377 50.3754 8.37144C50.3303 8.37626 49.7103 8.28294 49.6404 8.31218C49.483 8.37862 49.5796 8.54289 49.5241 8.60082C49.4141 8.71215 49.4185 8.73275 49.4003 8.84637C49.37 9.00116 49.0423 9.15703 49.1673 9.33834C49.1958 9.37722 49.8392 9.39167 49.9424 9.45926C50.0454 9.52689 49.9766 9.67276 49.8211 9.70913C49.6655 9.74551 49.1655 9.67521 49.0495 9.6731C48.0709 9.65327 49.3994 9.95828 49.4305 9.98398C49.9578 10.4489 49.1573 10.7264 49.1222 11.1115C49.0972 11.4041 49.32 11.741 49.2584 12.0157C49.1825 12.3427 48.8092 12.59 48.8376 12.9175C48.8398 12.952 49.5948 12.9849 49.5991 13.0272C49.6438 13.4764 49.5196 13.9061 48.9701 14.2958C48.9143 14.3348 48.2603 14.2143 48.1651 14.2495C47.5971 14.4662 46.2539 14.7661 49.1098 15.2039C48.98 15.3753 48.8428 15.5855 48.2482 15.6926C47.8655 15.7617 47.1569 15.59 47.451 15.7489C47.5164 15.7847 48.1493 15.8077 48.1999 15.8567C48.4125 16.0629 48.1885 16.2442 48.4959 16.4576C48.56 16.5012 49.1247 16.5456 49.2252 16.5659C50.0389 16.7337 48.6656 16.7489 48.5637 16.7713C47.8037 16.9437 48.0763 17.1496 48.0363 17.3748C48.0267 17.4271 48.79 17.4381 48.808 17.491C48.8911 17.7643 48.7997 18.0303 48.4387 18.2551C48.3566 18.305 47.7167 18.1899 47.6444 18.2105C47.3338 18.3022 48.5495 18.4469 48.2751 18.5371C48.2188 18.5562 47.6679 18.4891 47.6068 18.4876C46.648 18.4651 47.9912 18.6562 48.0192 18.677C48.4042 18.9429 46.9819 18.9514 47.1602 19.1895C47.1829 19.2182 47.8874 19.2267 47.9086 19.3031C48.054 19.812 47.8119 20.312 47.206 20.7432C47.1128 20.8104 46.5931 20.7057 46.5279 20.7042C45.5094 20.6837 46.8592 20.8649 46.9079 20.8945C47.2563 21.1241 46.1027 21.1955 47.7035 21.4835C47.064 22.2513 47.8908 23.1573 46.3665 23.8326C46.3487 23.8414 45.6834 23.7582 45.6508 23.776C45.2521 23.9887 46.2936 24.0412 47.5458 24.3287C47.8603 24.401 46.317 24.3791 46.2037 24.3794C45.7862 24.3801 44.7977 24.2418 44.7163 24.2477C44.0764 24.2996 47.3607 24.5989 47.347 24.7512C47.3411 24.7554 46.7388 24.6769 46.6775 24.6839C46.4851 24.7053 46.7214 24.7679 46.5096 24.7866C46.0198 24.8288 44.4217 24.7061 45.3369 24.9317C45.4557 24.9605 47.3202 25.1145 47.2191 25.2418C47.1772 25.2924 47.1859 25.5352 47.0587 25.5907C46.9317 25.6461 46.3362 25.542 46.3097 25.5442C45.4988 25.6482 45.1766 25.5479 43.9932 25.5248C42.8143 25.5021 45.6077 25.7471 45.9157 25.8141C46.2228 25.8812 45.5553 25.9504 45.3246 25.9609C45.0938 25.9715 44.7164 25.894 44.5848 25.9104C43.7245 26.0209 45.962 26.1288 46.3989 26.2349C47.4334 26.4855 45.3523 26.4013 45.1362 26.5182C45.0779 26.5499 45.5522 26.5653 45.5931 26.6025C45.7489 26.749 45.0955 26.7649 45.6733 26.9704C45.7675 27.004 47.0003 27.2442 46.0795 27.2334C45.9468 27.2316 45.434 27.1505 45.3131 27.1948C45.1317 27.261 45.0045 27.3995 45.1683 27.5054C45.2895 27.5835 46.1467 27.5903 45.8746 27.6476C45.7532 27.673 45.2626 27.5567 45.0759 27.6084C44.8893 27.6598 44.8941 27.8379 44.9048 27.9065C44.9158 27.975 45.5641 28.0008 45.607 28.0104C45.8526 28.0672 46.1511 28.2255 46.1492 28.2368C46.1726 28.816 45.0349 29.238 45.3407 29.8294C45.3638 29.8757 46.0464 29.9124 46.057 29.9201C46.3273 30.0972 44.5312 29.8044 43.9161 29.8503C45.2971 29.9687 45.0414 30.0062 45.1825 30.1262C45.2516 30.1841 45.7885 30.2081 45.8427 30.2181C46.6468 30.3718 45.5937 30.3228 45.378 30.3156C44.5846 30.2891 45.5111 30.4335 44.9807 30.4164C44.4542 30.3997 43.6862 30.2466 43.6863 30.3486C44.1774 30.4247 45.4753 30.4746 45.677 30.5716C46.4402 30.9375 45.3753 31.3797 45.2476 31.6021C45.1201 31.8242 45.2039 31.908 45.0124 32.026C44.666 32.2392 45.6322 32.2423 46.0558 32.4365C46.4793 32.6311 44.1305 32.3291 43.6219 32.3019C43.1136 32.2744 43.6324 32.3483 43.3515 32.3481C43.0707 32.3478 42.7319 32.2568 42.6214 32.3093C42.511 32.3619 43.395 32.6204 43.9225 32.6938C45.0398 32.8494 46.2248 32.8861 45.795 33.0119C45.7696 33.019 45.1531 32.9281 45.0869 32.9586C44.5819 33.2025 44.5232 33.5009 44.0734 33.7497C44.0106 33.7838 43.3249 33.6815 43.2805 33.7006C42.8163 33.8994 43.9867 33.9256 45.2648 34.1828C43.5498 33.9868 42.4917 33.9583 42.4638 34.1406C42.4465 34.2501 43.1986 34.3037 43.7205 34.4261C43.8778 34.4629 43.3551 34.491 43.7066 34.5393C44.8555 34.6975 46.1537 34.749 45.6213 34.8882C45.5961 34.8941 44.9673 34.8066 44.9263 34.8315C44.6581 34.9924 45.8624 35.1314 45.9891 35.3456C46.0886 35.5135 45.3259 35.7213 45.189 35.8883C43.258 35.6977 43.6839 35.9092 45.0089 36.1065C44.9432 36.2171 45.0064 36.3496 44.8115 36.4438C44.745 36.4762 44.1882 36.3968 44.1274 36.3958C43.1723 36.3787 44.463 36.5544 44.5114 36.5843C44.9789 36.9033 43.9756 37.0292 44.9101 37.3808C44.9438 37.3933 46.284 37.5381 45.2977 37.5124C45.2297 37.5104 44.6276 37.3658 44.5686 37.483C44.5095 37.6002 43.7681 37.7601 44.3734 37.9893C44.5191 38.0447 45.5982 38.2535 44.7393 38.2542C44.6227 38.2541 44.2391 38.2047 44.0234 38.2C43.3362 38.1856 44.6894 38.345 43.5316 38.2942C42.3737 38.2434 41.4988 38.2861 42.2771 38.5335C42.2997 38.5411 43.3706 38.6855 43.3484 38.7375C43.312 38.8203 43.0764 38.9201 43.0747 39.0102C43.0743 39.0533 43.7444 39.0905 43.7559 39.0991C44.102 39.423 43.4872 39.5701 43.1992 39.8533C43.1451 39.9051 44.0394 40.1555 43.3093 40.1952C42.5101 40.2391 39.2456 39.7986 39.9995 40.1501C40.3009 40.2917 44.444 40.8349 42.271 40.8265C42.7671 41.2662 41.6302 41.5184 42.3545 41.9812C42.3866 42.002 43.5414 42.1695 43.5216 42.2092C43.49 42.2677 42.9445 42.2488 42.9046 42.2889C42.7236 42.4559 43.1713 42.668 43.0821 42.8371C43.0494 42.9015 42.491 42.8238 42.452 42.9006C42.4135 42.9773 43.1466 43.1019 42.7796 43.1754C42.4999 43.2307 40.983 43.1663 40.7966 43.2576C42.2847 43.4057 42.2468 43.4771 42.6269 43.6474C42.7007 43.6802 43.2214 43.7031 43.283 43.7212C43.5453 43.7959 43.1116 43.7996 43.3977 43.8742C43.4665 43.8923 43.9747 43.942 44.0596 43.9595C44.8006 44.1105 43.6446 44.1293 43.4434 44.1323C42.6791 44.1443 43.3364 44.2481 43.0323 44.2846C42.7283 44.321 42.3656 44.1875 42.1775 44.2462C41.7886 44.368 41.851 44.5789 41.8121 44.7371C41.7998 44.8005 42.4825 44.8225 42.4965 44.8331C42.6558 44.9821 41.9211 45.0461 43.2656 45.2503C39.762 45.0039 43.5968 45.3629 42.8789 45.4844C42.8209 45.4938 41.1664 45.3529 40.9294 45.2722C40.6925 45.1915 41.2175 45.1547 40.847 45.0387C40.76 45.0113 39.2218 44.7538 39.1295 44.73C38.4075 44.544 40.8786 44.7667 41.0149 44.7737C42.4854 44.8463 40.8298 44.5533 40.7178 44.5075C40.205 44.2978 40.5653 44.1967 40.2011 44.0276C39.9658 43.9173 38.349 43.7523 38.4051 43.689C38.5906 43.4785 40.855 43.6178 38.9189 43.2152C38.506 43.129 36.7336 43.0034 38.1397 42.974C38.2284 42.9722 39.512 42.9736 38.7143 42.8255C38.6137 42.8068 38.0984 42.7572 38.0563 42.7414C37.7838 42.6362 38.1994 42.6239 38.011 42.5199C37.8226 42.4159 37.5394 42.2853 37.7236 42.2051C37.8337 42.1567 38.801 42.1746 39.0388 42.1693C39.7235 42.1558 38.6216 41.9636 39.4462 41.994C40.2751 42.0243 41.5172 42.242 42.0621 42.164C40.7239 42.0296 39.3508 41.8856 38.0053 41.7476C38.0799 41.4683 38.5398 41.2309 38.5082 40.9404C38.503 40.9043 37.7797 40.8707 37.7556 40.8302C37.6567 40.6594 38.1832 40.5696 37.9949 40.3842C37.8464 40.2404 37.098 40.0261 36.919 39.8735C38.4588 39.9398 37.958 39.6906 38.112 39.5597C38.1653 39.5137 38.5741 39.5567 38.7111 39.5336C39.2179 39.4456 37.858 39.3782 37.6485 39.3204C36.7548 39.0727 39.8202 39.3555 39.7627 39.1599C39.7607 39.1496 38.1392 38.8696 38.0391 38.8429C37.3862 38.672 38.6093 38.8803 38.7365 38.8252C38.9688 38.7246 39.367 38.6776 38.9025 38.4882C38.7648 38.4327 37.7565 38.2341 38.5518 38.2293C38.6559 38.2286 39.1952 38.2868 39.2277 38.2813C39.7697 38.177 38.0738 38.0087 37.5079 37.8644C36.9421 37.72 38.1263 37.6963 38.4665 37.701C39.3467 37.7126 38.8342 37.7931 38.9195 37.8053C39.9346 37.9504 39.7688 37.8335 39.8623 37.7654C41.5266 37.9153 41.4372 37.7988 39.9526 37.6942C39.7904 37.683 39.9398 37.7574 39.8623 37.7654C38.2369 37.5404 38.0393 37.4028 39.5768 37.4207C40.2974 37.4292 41.1252 37.5672 40.8382 37.3533C40.7087 37.2563 39.5603 37.1778 39.2552 37.0737C38.5592 36.8361 39.6487 36.7202 39.4972 36.53C39.4422 36.4609 38.8094 36.4618 38.7502 36.4125C38.5911 36.2815 39.0713 36.2261 38.8414 36.0878C38.8198 36.0751 38.1611 36.0371 38.1562 36.0005C38.1063 35.7221 38.5494 35.5267 38.5885 35.2448C38.607 35.1085 38.2688 34.829 38.3552 34.6944C38.5012 34.4607 39.4847 34.251 39.2732 34.0188C39.1381 33.8676 38.4788 33.8341 38.0373 33.7322C37.1813 33.5352 38.7535 33.4853 38.9965 33.4816C39.0046 33.4815 39.1479 33.6142 39.4909 33.584C40.1965 33.6154 38.9994 33.4832 38.9965 33.4816C39.1536 33.4789 39.3253 33.2581 39.2044 33.1993C39.1383 33.1673 38.515 33.1213 38.4923 33.1058C37.9662 32.7374 37.8387 32.4071 38.1603 32.1164C38.1734 32.1119 38.8682 32.1877 38.8903 32.1765C39.2174 32.0218 38.378 31.8213 37.8875 31.6201C37.3972 31.419 37.5781 31.3146 38.7809 31.34C38.6417 31.2106 39.1856 31.0969 39.5151 31.033C39.8446 30.9692 38.4918 30.8249 38.4659 30.814C37.6343 30.4708 38.4239 30.3953 38.5706 30.1369C38.6427 30.0143 38.471 29.7407 38.3364 29.5873C38.2277 29.4659 38.5514 29.4305 38.3583 29.3096C38.3326 29.2933 37.7283 29.2488 37.7055 29.2423C36.9951 29.0596 38.4637 29.2565 38.7292 29.2586C39.6946 29.2667 40.2095 29.2638 39.7732 29.0756C39.6733 29.0322 37.5606 28.7296 37.4423 28.6568C37.2925 28.5625 38.0503 28.6659 37.8741 28.5653C37.8597 28.5567 37.3903 28.5128 37.4159 28.4637C37.5287 28.2352 37.8268 28.0029 37.8036 27.7519C37.8023 27.7177 37.0538 27.6889 37.0395 27.6384C36.9734 27.4015 37.0252 27.154 37.3951 26.9653C37.4885 26.919 38.0063 27.0038 38.1622 27.0069C39.1056 27.0245 37.7552 26.7894 37.7309 26.7698C37.1166 26.2993 38.3779 26.1068 37.8319 25.635C37.7997 25.6091 36.3581 25.294 37.6164 25.3375C37.7001 25.3402 38.9872 25.3873 38.1189 25.2347C38.0645 25.2252 37.4011 25.2093 37.4763 25.1323C37.5514 25.0553 37.1245 24.8784 37.8594 24.8337C38.091 24.8194 39.3758 24.8571 38.3687 24.6503C38.2984 24.6363 36.0137 24.2464 37.6069 24.3403C37.8692 24.3559 39.5481 24.5286 38.6993 24.3159C38.5347 24.275 38.1557 24.2836 37.928 24.1959C37.577 24.0612 38.0398 23.9726 37.3033 23.7776C37.1729 23.7434 36.0415 23.542 36.914 23.5527C37.0506 23.5544 37.6093 23.6304 37.6758 23.5979C37.9947 23.4437 37.6381 23.2154 38.0441 23.0668C38.1869 23.014 39.0903 23.1355 39.3399 23.0902C39.5894 23.045 39.8365 22.9291 39.4291 22.8171C39.0216 22.705 37.569 22.6438 37.4638 22.5248C37.0069 22.0076 37.8995 21.6254 38.0688 21.1695C38.0941 21.1019 37.5714 21.1094 37.5715 21.0062C37.5695 20.6254 37.1477 19.9275 38.2781 19.7066C39.1835 19.5296 39.8215 19.9243 40.199 19.7587C40.3792 19.6785 38.7093 19.4114 38.6587 19.3829C38.1435 19.103 38.903 19.0165 38.6946 18.7893C38.6513 18.7423 37.9663 18.718 37.937 18.6787C37.8309 18.5441 38.1473 18.4441 38.1031 18.321C38.0817 18.2656 37.5607 18.225 37.6056 18.1803C37.7069 18.0728 37.9354 17.9911 38.4338 17.925C38.4792 17.919 39.1194 18.0512 39.1518 17.9675C39.2024 17.8319 39.6999 17.7056 39.2189 17.4974C39.0741 17.4354 37.8857 17.3186 38.7164 17.2958C38.89 17.291 40.3145 17.4565 39.0929 17.2181C38.8899 17.1783 37.2459 16.8174 38.3276 16.8231C38.6122 16.8245 39.7865 16.8715 39.6085 16.7966C39.58 16.786 38.9386 16.7552 38.8809 16.7019C38.6887 16.5148 38.7737 16.3465 38.5903 16.1557C38.5401 16.1046 37.8729 16.1089 37.8191 16.0348C37.6703 15.831 37.8612 15.6129 38.0857 15.4495C38.1697 15.3893 38.7125 15.489 38.7725 15.4899C39.7488 15.5044 38.4459 15.3311 38.3722 15.2975C37.9315 15.0899 38.5577 15.0249 38.4098 14.8585C38.3706 14.8128 37.7443 14.7819 37.6895 14.7683C37.1547 14.6299 38.2681 14.8022 38.3967 14.7598C38.7609 14.6414 38.7272 14.467 38.6625 14.3054C38.6377 14.2459 37.9087 14.2395 37.8949 14.1869C37.7994 13.8747 37.8988 13.5692 38.3256 13.3148C38.4073 13.267 38.9606 13.3556 39.0889 13.3564C39.986 13.3632 38.784 13.1297 38.671 13.0917C38.1551 12.9192 38.6519 12.9196 38.5704 12.8034C38.1637 12.2349 38.5523 11.6191 38.8016 11.1437C39.1233 10.524 39.7012 10.0748 39.6232 9.44661C39.619 9.40675 38.8746 9.37449 38.8615 9.33921C38.7251 8.88696 39.0559 8.48673 38.8842 8.03019C38.8714 7.99285 38.1644 7.97647 38.1203 7.91426C38.0249 7.78617 38.0775 7.64071 38.3132 7.54335C38.4268 7.49573 39.0216 7.63192 39.1237 7.58279C39.3627 7.46855 39.4268 7.3275 39.3278 7.17682C39.2841 7.11254 38.5575 7.13282 38.5567 7.05469C38.5364 6.52107 38.4628 5.99179 39.4441 5.54949C39.5115 5.51917 40.9737 5.62837 40.7014 5.5237C40.297 5.47867 39.8206 5.43289 39.388 5.38845C39.2291 4.5991 39.8084 3.88909 39.961 3.12772C39.9673 3.09561 39.1887 3.07681 39.1969 3.01425C39.2435 2.65208 39.0634 2.27858 39.8679 1.98136C39.9466 1.95176 41.3049 2.10231 41.1097 1.97375C41.074 1.95096 40.9085 1.76976 40.6173 1.69888C40.5733 1.68882 39.9356 1.65724 39.9222 1.60271C39.8554 1.28695 40.0314 0.97985 40.4489 0.711485C40.5175 0.668291 41.1885 0.786295 41.2433 0.756098C41.6263 0.541394 41.1386 0.220341 41.7755 0.0413984C42.2043 -0.0781443 43.3672 0.0940204 44.5258 0.120568C44.6892 0.124284 44.7245 0.0279798 45.3943 0.0876427C47.0786 0.237401 48.9169 0.463601 50.7127 0.617574C51.0995 0.65082 50.6961 0.478235 51.6223 0.646935C51.6843 0.658455 51.9849 0.784371 52.2994 0.838652C52.5168 0.876296 53.2003 0.912527 53.4774 0.973219C53.7543 1.03388 53.1801 1.01554 53.5041 1.10306C53.8322 1.19095 54.6089 1.24143 54.6898 1.36137ZM40.9882 30.7445C41.6469 30.7196 39.2666 30.4762 39.8272 30.6263C39.8571 30.6339 40.9558 30.746 40.9882 30.7445ZM40.3361 41.4064C41.3977 41.3932 39.8606 41.1652 39.0415 41.1677C38.2233 41.1702 40.0143 41.4105 40.3361 41.4064ZM40.9878 42.6711C41.829 42.6171 38.4538 42.2692 39.1226 42.4789C39.1604 42.491 40.9389 42.6743 40.9878 42.6711ZM44.8153 0.545427C44.847 0.547276 44.8847 0.479243 44.8536 0.474512C44.1008 0.363496 44.026 0.499585 44.8153 0.545427ZM41.7084 43.9334C42.1693 43.9357 41.6536 43.764 41.0805 43.7611C40.6194 43.7588 41.1351 43.9305 41.7084 43.9334ZM43.9734 26.4094C44.009 26.4115 44.0459 26.3636 43.8451 26.3452C43.1987 26.2862 43.3742 26.3747 43.9734 26.4094ZM41.553 45.945C41.7088 45.6607 44.516 45.7508 44.1699 46.0434C44.1073 46.0964 43.2925 45.8312 43.0338 45.8813C42.5624 45.9732 44.3052 46.2332 43.3532 46.2814C43.1789 46.29 41.5379 45.9607 41.5491 45.9441C41.5504 45.9445 41.5517 45.9447 41.553 45.945ZM43.8537 30.9708C43.8854 30.9721 43.9221 30.9045 43.891 30.8998C43.1386 30.7884 43.0643 30.9246 43.8537 30.9708ZM45.7335 23.581C45.801 23.5836 45.8795 23.4261 45.8182 23.4148C44.5901 23.2098 44.4275 23.5279 45.7335 23.581ZM45.1372 35.8862C45.8904 36.0367 45.971 36.1373 45.0099 36.1062C45.068 36.0347 45.083 35.9585 45.1372 35.8862Z" fill="#FC4C02"/>
</svg>
