<svg width="177" height="136" viewBox="0 0 177 136" fill="none" xmlns="http://www.w3.org/2000/svg">
<path d="M9.81477 47.706C10.7668 48.4377 11.6489 49.7314 12.2181 50.8052C12.3974 51.1413 11.9585 51.2901 12.0683 51.535C12.2833 52.0136 12.75 52.2148 12.9377 52.71C12.9984 52.8755 12.3663 53.1801 12.4412 53.3433C12.8554 54.2337 13.5816 54.7715 14.1182 55.566C16.7617 59.4809 19.6934 63.019 22.7031 66.6644C23.694 67.8642 24.5525 69.6582 25.8542 70.6367C26.0067 70.7505 26.3561 70.2627 26.4159 70.2549C27.34 70.1458 26.3506 70.8331 26.4886 71.2064C27.0362 72.6832 28.1193 73.8869 29.2519 74.7279C29.7362 75.0855 30.162 73.8428 30.1064 74.729C30.1035 74.7898 29.5495 75.1181 29.6151 75.2814C29.7647 75.651 30.3331 76.0738 30.4969 76.3124C30.8102 76.7743 30.8797 76.8363 31.2397 77.2137C31.7285 77.7337 32.0998 78.5541 32.7388 78.9977C32.8766 79.0912 33.1805 78.4859 33.4413 78.5939C33.7021 78.7024 34.1482 79.2285 34.2045 79.4993C34.2608 79.7703 33.8339 80.0565 33.781 80.1672C33.3289 81.0964 34.847 80.7026 34.9438 80.7517C36.668 81.6669 37.266 83.3367 38.5209 84.5544C39.4802 85.4827 40.6742 86.2782 41.5684 87.1761C42.6252 88.241 43.3225 89.3723 44.4316 90.3177C44.5489 90.4187 44.9284 89.7418 45.0725 89.8636C46.6004 91.1565 48.0055 92.5405 49.1565 94.2393C49.2717 94.4103 48.6399 94.7361 48.7291 94.9368C49.2771 96.1507 49.9033 98.4235 52.3264 96.6976C52.878 97.3182 53.5688 98.0541 53.7599 98.971C53.885 99.5627 53.0662 99.8201 53.7162 99.9602C53.8622 99.9922 54.1333 99.3958 54.3213 99.4801C55.1126 99.8358 55.6797 100.566 56.5278 100.831C56.7009 100.883 57.0208 100.414 57.1217 100.364C57.9482 99.9697 57.6082 101.446 57.6602 101.614C58.0554 102.873 58.8802 103.149 59.6749 103.784C59.8596 103.932 60.102 103.158 60.2959 103.278C61.3049 103.916 62.2307 104.693 62.9686 105.653C63.1307 105.867 62.5566 106.25 62.6148 106.379C62.8778 106.944 63.6944 106.024 63.9583 106.54C64.0151 106.648 63.6413 107.063 63.6219 107.124C63.3207 108.085 64.3335 107.143 64.4158 107.165C65.4825 107.422 65.1991 108.95 66.1352 109.35C66.247 109.395 66.4242 108.666 66.7135 108.83C67.0787 109.034 67.4395 109.251 67.7948 109.478C69.3303 110.459 70.7726 111.631 72.053 112.941C72.2992 113.191 71.8184 113.517 71.8028 113.583C71.5781 114.635 72.4754 113.585 72.5957 113.598C73.525 113.724 73.6742 115.131 74.992 114.017C77.9217 116.341 81.5809 117.191 84.319 120.006C84.3548 120.04 84.0047 120.618 84.0776 120.684C84.9563 121.486 85.1877 120.447 86.364 119.567C86.6576 119.345 86.5772 120.98 86.582 121.104C86.5912 121.558 86.0306 122.405 86.0566 122.503C86.2951 123.286 87.4784 120.208 88.1049 120.462C88.1226 120.475 87.8118 121.004 87.8421 121.081C87.9363 121.324 88.1899 121.166 88.2737 121.424C88.4617 122.019 88.0161 123.567 88.9321 122.921C89.0481 122.836 89.6121 121.05 90.1452 121.347C90.3559 121.468 91.3706 121.81 91.613 122.024C91.8542 122.239 91.4573 122.737 91.4684 122.769C91.9677 123.793 91.5669 124 91.5679 125.251C91.5789 126.499 92.385 123.811 92.6441 123.569C92.9032 123.328 93.2597 124.142 93.329 124.406C93.3974 124.669 93.1016 124.975 93.1863 125.139C93.7563 126.216 93.9817 123.935 94.39 123.6C95.3485 122.802 95.219 124.939 95.7567 125.314C95.9008 125.415 95.9063 124.922 96.0622 124.923C96.6764 124.929 96.8399 125.653 97.6445 125.261C97.7761 125.197 98.6257 124.135 98.7226 125.11C98.7364 125.251 98.4657 125.715 98.6792 125.892C98.9982 126.158 99.6236 126.436 100.062 126.365C100.384 126.313 100.256 125.402 100.556 125.748C100.689 125.903 100.271 126.315 100.533 126.565C100.795 126.815 101.576 126.975 101.88 127.024C102.182 127.073 102.159 126.405 102.193 126.368C102.392 126.156 103.019 125.973 103.068 125.983C105.574 126.434 107.749 127.899 110.297 127.831C110.495 127.826 110.442 127.133 110.473 127.125C111.171 126.915 110.443 128.662 110.855 129.317C110.932 127.932 111.185 128.212 111.672 128.106C111.906 128.054 111.833 127.508 111.859 127.455C112.265 126.675 112.404 127.743 112.448 127.963C112.607 128.772 112.928 127.859 113.039 128.398C113.153 128.934 112.737 129.684 113.2 129.709C113.364 129.223 113.123 127.906 113.48 127.721C114.822 127.031 117.161 128.127 118.227 128.224C119.264 128.329 119.609 128.226 120.217 128.389C121.329 128.676 120.894 127.728 121.541 127.257C122.184 126.781 121.997 129.161 122.124 129.664C122.253 130.166 122.33 129.636 122.471 129.908C122.613 130.179 122.366 130.541 122.666 130.627C122.969 130.713 123.692 129.749 123.743 129.209C123.859 128.067 123.411 126.921 124.181 127.267C124.226 127.287 124.148 127.92 124.317 127.967C124.615 128.045 124.914 128.098 125.212 128.137C126.268 128.269 127.318 128.213 128.378 128.367C128.568 128.395 128.523 129.105 128.636 129.129C129.815 129.371 129.219 128.289 129.552 126.906C129.748 128.625 130.284 129.602 131.128 129.432C131.632 129.33 131.382 128.613 131.585 128.022C131.644 127.845 132.11 128.267 132.092 127.907C132.027 126.73 131.407 125.549 132.336 125.85C132.378 125.865 132.418 126.509 132.552 126.515C133.425 126.55 133.201 125.356 134.007 124.975C134.632 124.678 136.023 125.018 136.819 124.871C137.426 126.715 138.022 126.038 137.851 124.676C138.361 124.55 138.85 124.285 139.387 124.272C139.571 124.268 139.671 124.832 139.714 124.88C140.381 125.641 140.111 124.346 140.193 124.257C141.127 123.341 142.439 123.839 143.086 122.468C143.109 122.419 142.589 121.174 143.289 121.93C143.337 121.982 143.257 122.701 143.769 122.507C144.28 122.315 145.539 122.491 145.925 121.578C146.019 121.358 145.905 120.178 146.641 120.75C146.74 120.828 146.878 121.193 147.045 121.346C147.583 121.833 147.03 120.582 147.836 121.457C148.644 122.33 149.593 122.79 149.874 121.695C149.885 121.662 149.494 120.638 149.711 120.528C150.057 120.354 150.657 120.25 150.997 120.029C151.161 119.922 150.699 119.42 150.721 119.392C151.628 118.377 152.726 118.37 154.038 117.784C154.285 117.674 154.357 116.508 155.186 116.804C156.096 117.125 157.548 120.14 158.147 118.734C158.391 118.165 156.408 114.438 158.444 115.608C159.396 114.297 161.014 114.006 162.021 112.819C162.175 112.639 162.312 112.44 162.429 112.217C162.469 112.141 161.932 111.076 162.09 110.969C162.324 110.812 162.785 111.139 162.962 111.041C163.718 110.635 164.011 109.789 164.676 109.329C164.928 109.153 165.209 109.652 165.51 109.441C165.805 109.234 165.521 108.503 166.126 108.46C166.59 108.424 167.859 109.334 168.356 109.14C167.392 107.996 167.677 107.793 167.873 107.098C167.912 106.963 167.475 106.654 167.475 106.57C167.469 106.219 167.903 106.413 167.873 106.05C167.866 105.963 167.531 105.578 167.505 105.485C167.273 104.688 168.476 105.155 168.684 105.238C169.484 105.541 169.171 104.929 169.596 104.949C170.017 104.97 169.938 105.547 170.318 105.447C171.11 105.237 171.742 104.541 172.297 104.051C172.517 103.851 171.902 103.494 171.923 103.454C172.244 102.914 173.193 103.01 172.492 101.799C175.233 104.032 172.519 101.301 173.626 101.202C173.714 101.196 174.939 102.32 174.921 102.679C174.901 103.039 174.25 102.948 174.251 103.475C174.251 103.6 174.967 105.069 174.981 105.186C175.098 106.093 173.332 104.347 173.218 104.267C171.978 103.417 172.685 105.052 172.642 105.25C172.463 106.142 171.764 106.309 171.561 107.005C171.424 107.458 172.482 108.692 172.209 108.871C171.297 109.464 169.531 107.998 170.068 110.136C170.182 110.592 171.502 111.8 170.006 111.245C169.912 111.21 168.647 110.612 168.921 111.439C168.956 111.543 169.292 111.937 169.278 112.006C169.177 112.46 168.729 112.299 168.548 112.71C168.373 113.115 168.189 113.652 167.727 113.808C167.444 113.907 166.566 113.381 166.313 113.283C165.591 112.997 166.002 114.102 165.3 113.612C164.598 113.116 164.147 111.862 163.348 111.824C164.181 112.88 165.014 113.982 165.84 115.053C165.418 115.373 164.968 115.635 164.502 115.9C163.809 116.291 163.09 116.681 162.479 117.206C162.353 117.316 162.934 117.779 162.81 117.912C162.282 118.473 161.443 118.47 160.941 119.11C160.55 119.61 160.465 120.629 160.058 121.168C158.827 120.163 158.366 121.142 157.709 121.431C157.483 121.532 157.26 121.186 157.041 121.175C156.223 121.14 157.248 122.083 157.22 122.363C157.096 123.556 155.305 121.053 154.608 121.608C154.573 121.635 154.982 123.329 154.966 123.461C154.892 124.303 154.583 123.029 154.246 123.102C153.631 123.234 153.078 123.12 152.744 123.891C152.649 124.117 152.758 125.249 152.013 124.772C151.915 124.709 151.662 124.229 151.61 124.223C150.696 124.149 151.54 125.628 151.448 126.347C151.353 127.069 150.178 126.378 149.899 126.144C149.164 125.548 149.955 125.685 149.929 125.6C149.624 124.597 149.293 124.985 148.928 125.085C148.079 123.645 147.685 123.973 148.553 125.195C148.649 125.327 148.827 125.054 148.928 125.085C149.434 126.678 149.007 127.147 147.741 126.079C147.15 125.575 147.008 124.71 146.371 125.377C146.077 125.679 146.73 126.639 146.546 127.08C146.121 128.09 144.688 127.577 143.99 128.07C143.732 128.252 144.263 128.706 144.094 128.85C143.645 129.234 143.006 128.993 142.573 129.433C142.534 129.474 142.901 130.035 142.74 130.11C141.52 130.691 140.264 130.714 138.938 131.155C138.295 131.371 137.24 132.089 136.542 132.216C135.317 132.452 133.64 131.895 132.689 132.351C132.06 132.647 132.351 133.256 132.159 133.758C131.78 134.733 130.473 133.399 130.307 133.182C130.303 133.176 130.842 132.914 130.475 132.64C130.168 131.98 130.314 133.178 130.307 133.182C130.194 133.048 129.017 133.104 128.814 133.262C128.702 133.35 128.87 133.955 128.809 133.989C127.904 134.484 126.962 134.807 125.98 134.947C125.379 135.032 124.763 135.047 124.141 134.987C124.112 134.977 124.095 134.277 124.028 134.262C123.101 134.026 122.57 134.916 121.836 135.461C121.098 136.006 120.468 135.855 119.998 134.666C119.432 134.832 118.608 134.308 118.15 133.985C117.69 133.661 117.612 135.02 117.57 135.046C116.265 135.891 115.521 135.088 114.208 134.896C113.574 134.804 112.319 134.912 111.615 134.996C111.064 135.068 110.773 134.719 110.254 134.869C110.184 134.889 110.188 135.499 110.165 135.52C109.526 136.18 109.957 134.736 109.871 134.461C109.562 133.459 109.384 132.924 108.632 133.284C108.462 133.367 107.703 135.417 107.385 135.498C106.975 135.6 107.23 134.865 106.798 134.989C106.761 134.999 106.7 135.466 106.451 135.408C105.292 135.142 104.076 134.654 102.879 134.469C102.715 134.442 102.782 135.217 102.54 135.189C101.401 135.056 100.191 134.765 99.1991 134.17C98.9566 134.022 99.2425 133.551 99.2216 133.387C99.0949 132.39 98.28 133.597 98.1892 133.601C96.074 133.748 94.9237 132.141 92.8178 132.107C92.7066 132.11 91.4348 133.245 91.4588 131.93C91.4584 131.842 91.5065 130.506 90.9162 131.236C90.8789 131.281 90.8931 131.984 90.525 131.79C90.1595 131.596 89.3799 131.797 89.0955 130.925C89.0023 130.649 89.046 129.304 88.2008 130.084C88.1477 130.141 86.5677 132.022 86.8547 130.424C86.9025 130.162 87.5472 128.603 86.6537 129.187C86.4811 129.3 86.5507 129.731 86.1689 129.835C85.5786 129.996 85.1486 129.34 84.3108 129.812C84.1652 129.897 83.3126 130.787 83.3098 129.844C83.3098 129.697 83.6244 129.217 83.4735 129.086C82.7671 128.465 81.7528 128.439 81.0815 127.713C80.8454 127.458 81.3658 126.693 81.1647 126.335C80.9631 125.977 80.4574 125.487 79.9667 125.718C79.4758 125.949 79.2079 127.426 78.6837 127.309C76.3848 126.786 74.7437 125 72.8063 123.81C72.5206 123.634 72.5174 124.224 72.0768 123.995C70.4397 123.154 67.4548 121.973 66.6799 120.189C66.0765 118.775 67.7714 119.034 67.151 118.225C66.8545 117.839 65.5307 118.998 65.4056 118.982C64.1782 118.842 63.9572 117.805 63.0039 117.448C62.8068 117.374 62.5955 118.055 62.4314 117.986C62.3458 117.95 62.2651 117.906 62.1879 117.856C61.7613 117.579 61.4489 117.111 61.025 116.878C60.7999 116.756 60.5428 117.213 60.3717 117.046C59.9573 116.651 59.6789 116.189 59.5167 115.476C59.5022 115.411 60.1481 115.071 59.8267 114.815C59.305 114.401 58.9143 113.527 58.009 113.485C57.7384 113.474 57.0257 114.432 57.1192 113.478C57.1383 113.278 58.0941 112.202 56.902 112.862C56.7034 112.972 54.9362 113.74 55.209 112.596C55.2804 112.295 55.7378 111.17 55.4108 111.153C55.3636 111.154 55.0934 111.755 54.8758 111.668C54.112 111.35 53.5015 110.793 52.7337 110.447C52.5278 110.356 52.3753 111.079 52.0809 110.926C51.2655 110.5 50.5047 109.678 49.9526 108.964C49.7504 108.701 50.2698 108.414 50.2891 108.352C50.6085 107.359 49.611 108.241 49.4655 108.221C48.5755 108.087 48.5107 107.234 47.8559 106.903C47.676 106.81 47.3834 107.381 47.3174 107.399C46.654 107.556 47.6076 106.887 47.4898 106.627C47.1635 105.898 46.519 105.42 45.9111 105.007C45.6872 104.856 45.4458 105.605 45.2499 105.463C44.0912 104.639 43.0133 103.61 42.2451 102.397C42.1007 102.167 42.5939 101.857 42.6379 101.725C42.9511 100.809 41.7329 101.357 41.5611 101.359C40.7825 101.375 40.9466 100.858 40.5097 100.589C38.3628 99.2784 36.3524 96.969 34.8104 95.2274C32.7942 92.9567 31.4967 90.954 29.3607 89.038C29.2258 88.9159 28.8329 89.5737 28.7098 89.4751C27.1403 88.174 25.9371 86.5542 24.363 85.2618C24.2346 85.1546 23.9004 85.8205 23.6772 85.6648C23.2163 85.3494 22.7546 84.8237 22.5295 84.271C22.4186 84.0023 23.1042 83.8381 22.984 83.5763C22.7051 82.966 22.2689 82.4457 21.7351 82.0577C21.5068 81.8935 21.2797 82.6956 21.0231 82.4428C19.2704 80.7369 17.5152 79.0828 16.4984 76.6526C16.4286 76.4858 17.391 75.3701 16.9403 75.3029C16.6262 75.563 16.2796 75.893 15.9556 76.1833C13.3453 73.7655 11.3226 70.8544 8.97104 68.2001C8.87177 68.0883 8.47748 68.8057 8.28232 68.5918C7.15157 67.3538 5.891 66.3049 5.2998 64.5223C5.24047 64.3463 6.30498 63.4851 5.81458 63.2573C5.72715 63.218 5.08351 62.7871 4.73335 62.8444C4.6825 62.8552 4.3058 63.3879 4.12789 63.2218C3.10203 62.2483 2.21158 61.0618 1.54922 59.7618C1.44328 59.5512 2.1073 59.2705 2.03621 59.1166C1.52821 58.0282 0.305811 57.4574 0.022338 56.234C-0.165651 55.4134 0.883625 54.8209 1.47368 53.7537C1.55683 53.603 1.26987 53.2511 1.75017 52.7799C2.95708 51.5941 4.47135 50.5063 5.74029 49.2232C6.01386 48.9471 5.29555 48.7814 6.23034 48.4134C6.29362 48.3896 6.82044 48.5041 7.1284 48.3693C7.34168 48.2764 7.75443 47.7145 8.06617 47.638C8.37771 47.5616 8.06897 48.0734 8.48539 48.0383C8.90475 48.0003 9.40302 47.3924 9.81477 47.706ZM116.111 132.512C115.715 131.845 115.563 134.234 116.046 133.677C116.07 133.648 116.132 132.545 116.111 132.512ZM162.369 114.915C161.3 114.418 161.972 115.864 162.778 116.266C163.583 116.666 162.694 115.064 162.369 114.915ZM166.151 110.834C165.144 110.59 167.238 113.262 167.311 112.308C167.317 112.252 166.21 110.847 166.151 110.834ZM2.93448 54.8626C2.95417 54.837 2.75699 54.5757 2.7285 54.5912C2.05071 54.9762 2.44541 55.4985 2.93448 54.8626ZM169.742 106.634C169.295 106.418 169.227 107.186 169.785 107.454C170.239 107.665 170.301 106.9 169.742 106.634ZM95.436 126.438C95.4402 126.402 95.2265 126.304 95.1723 126.498C94.9988 127.124 95.3649 127.043 95.436 126.438ZM176.426 100.223C175.368 101.099 172.814 99.6821 174.081 98.8691C174.311 98.7211 174.303 99.9091 174.723 99.8481C175.491 99.7337 174.54 98.1958 175.657 98.4118C175.861 98.4522 176.491 100.178 176.427 100.228C176.426 100.226 176.426 100.225 176.426 100.223ZM115.968 129.632C115.961 129.6 115.638 129.558 115.628 129.589C115.421 130.341 116.08 130.427 115.968 129.632ZM83.2726 120.251C83.2845 120.183 82.6346 119.814 82.5862 119.859C81.7046 120.82 83.0342 121.579 83.2726 120.251ZM136.848 124.915C136.927 124.081 137.265 123.866 137.85 124.675C137.511 124.743 137.188 124.849 136.848 124.915Z" fill="#FC4C02"/>
<path d="M129.299 21.6603C129.595 21.6966 129.596 22.0539 129.49 22.4108C129.457 22.522 129.105 22.7606 129.067 22.8493C128.995 23.0225 129.21 22.9579 129.112 23.1499C129.078 23.2149 128.53 23.6059 128.506 23.6644C128.38 23.9818 128.614 23.9998 128.609 24.2227C128.586 25.3215 128.907 26.1265 129.202 26.9844C129.299 27.267 129.037 27.915 129.427 27.9756C129.473 27.9823 129.92 27.5981 129.962 27.5728C130.607 27.1872 129.656 27.9045 129.574 28.0549C129.25 28.6499 129.39 28.9118 129.726 28.967C129.87 28.9893 130.717 28.1736 130.271 28.6687C130.241 28.7023 129.735 29.0722 129.702 29.1369C129.626 29.2829 129.793 29.3121 129.786 29.3835C129.772 29.5232 129.787 29.5321 129.84 29.6103C129.909 29.7206 129.762 30.035 129.959 30.0545C130.003 30.0575 130.48 29.626 130.594 29.5946C130.709 29.5633 130.744 29.6948 130.653 29.8222C130.561 29.9496 130.156 30.2508 130.07 30.3288C129.346 30.9864 130.492 30.2547 130.53 30.2484C131.186 30.1571 130.766 30.865 130.967 31.112C131.12 31.2984 131.48 31.3412 131.596 31.5424C131.733 31.7836 131.606 32.182 131.819 32.3523C131.841 32.3707 132.409 31.8736 132.437 31.8951C132.733 32.1246 132.895 32.4583 132.724 33.0597C132.706 33.1204 132.159 33.4977 132.111 33.5832C131.824 34.097 131.023 35.1889 133.358 33.4899C133.364 33.6779 133.387 33.8935 133.018 34.362C132.78 34.6636 132.163 35.0486 132.47 34.9396C132.539 34.9155 133.013 34.4962 133.079 34.4899C133.354 34.4641 133.298 34.7221 133.647 34.6355C133.719 34.617 134.156 34.2566 134.241 34.1997C134.931 33.7405 133.941 34.6882 133.88 34.7708C133.428 35.3902 133.747 35.3231 133.85 35.4808C133.874 35.5176 134.436 35.0022 134.48 35.0205C134.701 35.122 134.79 35.3385 134.659 35.7154C134.629 35.8004 134.096 36.1713 134.055 36.2326C133.883 36.4981 134.852 35.7507 134.706 35.9905C134.676 36.0401 134.236 36.3778 134.19 36.4188C133.479 37.0612 134.569 36.2536 134.601 36.2464C135.038 36.1372 134.008 37.1145 134.277 37.1305C134.31 37.1315 134.828 36.6549 134.888 36.6846C135.293 36.8799 135.41 37.3349 135.222 37.9987C135.193 38.1014 134.754 38.396 134.705 38.4397C133.952 39.1242 135.041 38.3063 135.093 38.2901C135.482 38.1849 134.684 39.0149 136.018 38.0873C136.003 38.9691 137.136 38.9283 136.423 40.3615C136.415 40.3787 135.882 40.7854 135.869 40.8179C135.703 41.2137 136.492 40.532 137.572 39.8424C137.843 39.6694 136.707 40.7117 136.625 40.7894C136.322 41.0752 135.521 41.6709 135.465 41.73C135.03 42.1974 137.596 40.1255 137.675 40.223C137.673 40.2295 137.189 40.5958 137.148 40.6417C137.021 40.7857 137.23 40.6604 137.086 40.8159C136.755 41.1753 135.52 42.1967 136.318 41.7017C136.421 41.6372 137.869 40.4517 137.87 40.5945C137.869 40.6524 138.018 40.787 137.958 40.9061C137.898 41.025 137.403 41.3719 137.385 41.3913C136.856 42.0059 136.563 42.168 135.688 42.9637C134.817 43.7566 136.994 41.9886 137.257 41.8169C137.52 41.6458 137.075 42.1422 136.913 42.3061C136.751 42.4699 136.431 42.683 136.345 42.7826C135.784 43.4347 137.475 41.9674 137.855 41.7302C138.755 41.1681 137.191 42.5421 137.103 42.7575C137.079 42.8157 137.433 42.5004 137.485 42.4939C137.684 42.4723 137.218 42.9282 137.759 42.6521C137.847 42.6072 138.885 41.9035 138.209 42.5267C138.111 42.6164 137.69 42.92 137.628 43.0283C137.535 43.1907 137.524 43.3578 137.705 43.3071C137.839 43.2695 138.467 42.6874 138.303 42.9066C138.229 43.0043 137.804 43.2724 137.698 43.43C137.593 43.5873 137.701 43.6871 137.749 43.7195C137.797 43.7516 138.284 43.3234 138.321 43.2996C138.533 43.1646 138.843 43.0522 138.848 43.06C139.205 43.3794 138.624 44.4015 139.194 44.5348C139.238 44.5459 139.756 44.1004 139.768 44.0977C140.069 44.0154 138.59 45.0738 138.169 45.5209C139.244 44.6453 139.08 44.8419 139.253 44.8149C139.337 44.8012 139.742 44.4481 139.787 44.4167C140.462 43.956 139.667 44.6476 139.506 44.7909C138.913 45.318 139.672 44.7681 139.276 45.1209C138.883 45.4711 138.234 45.9076 138.294 45.9665C138.696 45.6748 139.67 44.8165 139.874 44.7347C140.644 44.4248 140.128 45.4088 140.166 45.6249C140.203 45.8407 140.313 45.8319 140.243 46.0312C140.116 46.3914 140.821 45.7327 141.243 45.5555C141.666 45.3786 139.779 46.8096 139.393 47.1415C139.007 47.4731 139.428 47.1612 139.223 47.3531C139.019 47.5449 138.719 47.7238 138.669 47.8298C138.62 47.9357 139.415 47.481 139.842 47.163C140.746 46.4891 141.63 45.7003 141.391 46.0669C141.377 46.0885 140.875 46.4573 140.844 46.5202C140.62 47.0066 140.752 47.2195 140.571 47.6711C140.545 47.7338 139.986 48.1434 139.965 48.1848C139.744 48.6172 140.611 47.8322 141.692 47.1074C140.329 48.1664 139.542 48.8732 139.629 48.9978C139.68 49.0731 140.259 48.59 140.711 48.3041C140.847 48.2178 140.483 48.5914 140.767 48.3791C141.696 47.6852 142.671 46.8275 142.365 47.2721C142.35 47.2927 141.841 47.672 141.826 47.7144C141.725 47.991 142.683 47.2481 142.901 47.2855C143.072 47.3147 142.639 47.9564 142.637 48.1467C141.12 49.3565 141.554 49.1877 142.634 48.3961C142.651 48.5051 142.775 48.5386 142.688 48.7264C142.659 48.7907 142.207 49.1253 142.162 49.1664C141.457 49.8093 142.5 49.0287 142.552 49.013C143.08 48.878 142.423 49.6368 143.31 49.2015C143.342 49.1857 144.402 48.3533 143.669 49.0128C143.618 49.058 143.095 49.386 143.121 49.4942C143.147 49.6024 142.701 50.2018 143.276 49.9207C143.415 49.8532 144.322 49.2364 143.698 49.824C143.613 49.9037 143.305 50.1374 143.145 50.282C142.636 50.7435 143.715 49.9107 142.842 50.6728C141.97 51.4349 141.358 52.0578 142.07 51.669C142.091 51.658 142.955 51.0095 142.969 51.0547C142.991 51.1275 142.878 51.3464 142.93 51.3997C142.955 51.4249 143.464 50.9884 143.478 50.9855C143.919 50.9364 143.558 51.4419 143.515 51.8028C143.506 51.8697 144.304 51.4033 143.796 51.9254C143.24 52.4972 140.606 54.474 141.36 54.1621C141.663 54.038 144.997 51.5201 143.41 53.0008C144.029 52.9162 143.35 53.8395 144.148 53.6123C144.184 53.6024 145.122 52.91 145.131 52.9464C145.143 53.0019 144.735 53.3639 144.729 53.4144C144.695 53.6348 145.146 53.4515 145.18 53.6105C145.194 53.6701 144.742 54.0068 144.758 54.078C144.775 54.1487 145.382 53.7197 145.158 54.0132C144.987 54.2364 143.845 55.2361 143.763 55.4164C144.933 54.4848 144.947 54.5521 145.324 54.3908C145.397 54.3593 145.789 54.0166 145.845 53.9849C146.079 53.8489 145.766 54.1476 146.018 53.9952C146.078 53.9586 146.478 53.6399 146.55 53.5921C147.177 53.1729 146.347 53.9741 146.202 54.1133C145.653 54.6428 146.192 54.2536 145.993 54.4826C145.793 54.7115 145.45 54.8822 145.348 55.0447C145.136 55.3812 145.306 55.4606 145.37 55.5787C145.398 55.6239 145.908 55.1699 145.924 55.1665C146.128 55.1438 145.631 55.6832 146.729 54.8823C144.035 57.1348 147.036 54.721 146.585 55.2821C146.548 55.3273 145.261 56.3767 145.041 56.4921C144.822 56.6073 145.182 56.2271 144.845 56.4132C144.765 56.4568 143.495 57.3593 143.414 57.4087C142.779 57.7945 144.708 56.2341 144.811 56.145C145.924 55.1817 144.547 56.1439 144.439 56.1939C143.943 56.4231 144.146 56.1183 143.781 56.2693C143.546 56.3663 142.272 57.3761 142.276 57.3011C142.287 57.0524 144.017 55.5851 142.372 56.6755C142.021 56.9079 140.657 58.0469 141.663 57.0686C141.727 57.0069 142.662 56.1302 141.994 56.5897C141.91 56.6477 141.506 56.9713 141.466 56.9909C141.206 57.1163 141.501 56.8251 141.303 56.8936C141.105 56.9622 140.822 57.0802 140.909 56.9079C140.961 56.8046 141.676 56.1536 141.846 55.988C142.336 55.5121 141.421 56.1541 142.039 55.6079C142.66 55.0589 143.692 54.3357 144.043 53.918C142.99 54.7551 141.906 55.6104 140.846 56.4504C140.737 56.2377 140.932 55.7858 140.739 55.6392C140.714 55.6219 140.168 56.0968 140.126 56.0899C139.954 56.0586 140.285 55.6466 140.039 55.668C139.846 55.6863 139.176 56.0739 138.956 56.1079C140.116 55.0936 139.605 55.2917 139.64 55.1106C139.652 55.0476 139.975 54.793 140.061 54.686C140.378 54.2885 139.349 55.1792 139.163 55.2889C138.367 55.7565 140.764 53.8246 140.607 53.7506C140.6 53.746 139.255 54.6924 139.167 54.7454C138.592 55.0928 139.604 54.3773 139.664 54.2584C139.774 54.0413 140.036 53.7418 139.587 53.9498C139.454 54.0118 138.604 54.5861 139.18 54.0397C139.256 53.9681 139.682 53.6331 139.702 53.6077C140.036 53.1767 138.703 54.2387 138.206 54.542C137.71 54.8453 138.558 54.0219 138.808 53.7921C139.455 53.197 139.13 53.594 139.199 53.5428C140.023 52.9328 139.834 52.9785 139.862 52.8751C141.161 51.8241 141.027 51.8178 139.886 52.7722C139.761 52.8765 139.913 52.8175 139.862 52.8751C138.547 53.856 138.322 53.9115 139.452 52.8707C139.981 52.383 140.665 51.897 140.33 51.9693C140.179 52.0017 139.297 52.7414 139.014 52.8897C138.368 53.2279 139.093 52.416 138.871 52.4094C138.791 52.407 138.331 52.8402 138.259 52.8521C138.066 52.885 138.383 52.5246 138.135 52.6017C138.112 52.6092 137.61 53.0374 137.585 53.0196C137.385 52.8925 137.593 52.4765 137.456 52.2865C137.39 52.195 136.98 52.2644 136.964 52.1273C136.933 51.8922 137.526 51.0984 137.235 51.1086C137.048 51.1134 136.549 51.5447 136.168 51.7876C135.429 52.2587 136.544 51.155 136.719 50.9867C136.725 50.9811 136.907 50.96 137.139 50.708C137.671 50.2438 136.722 50.9856 136.719 50.9867C136.832 50.8778 136.827 50.6325 136.705 50.6811C136.638 50.7078 136.157 51.1073 136.132 51.1138C135.533 51.2602 135.246 51.1561 135.31 50.7679C135.317 50.7564 135.867 50.3253 135.876 50.3037C136.024 49.9904 135.295 50.4482 134.82 50.6671C134.345 50.8858 134.416 50.7017 135.306 49.8941C135.129 49.9144 135.458 49.4767 135.66 49.2144C135.862 48.9522 134.793 49.7935 134.768 49.8049C133.962 50.1747 134.492 49.5912 134.447 49.3413C134.428 49.221 134.142 49.18 133.954 49.1832C133.804 49.1872 134.019 48.9454 133.807 49.0074C133.779 49.0156 133.313 49.4029 133.293 49.4148C132.669 49.7946 133.853 48.9046 134.047 48.7243C134.755 48.069 135.128 47.7153 134.7 47.9046C134.602 47.9478 132.887 49.217 132.758 49.2556C132.594 49.3034 133.206 48.8453 133.018 48.9075C133.003 48.9124 132.636 49.2079 132.625 49.1619C132.573 48.9525 132.654 48.6142 132.49 48.4847C132.469 48.4658 131.907 48.9609 131.867 48.9414C131.68 48.8494 131.573 48.6707 131.731 48.3085C131.772 48.2179 132.199 47.913 132.314 47.8082C133.011 47.1735 131.89 47.9605 131.861 47.9658C131.138 48.1134 131.943 47.1396 131.269 47.2397C131.23 47.2467 129.996 48.0498 130.938 47.2147C131 47.1591 131.964 46.3064 131.243 46.8117C131.198 46.8434 130.706 47.2877 130.715 47.1917C130.725 47.0958 130.31 47.2852 130.819 46.7569C130.979 46.5904 131.936 45.7338 131.082 46.3025C131.023 46.3426 129.131 47.6787 130.346 46.6438C130.546 46.4736 131.869 45.4258 131.126 45.8829C130.983 45.9718 130.712 46.2359 130.495 46.3407C130.16 46.5027 130.445 46.1351 129.795 46.5256C129.68 46.595 128.738 47.2519 129.38 46.6616C129.48 46.5692 129.931 46.2312 129.96 46.1669C130.102 45.8597 129.709 45.9712 129.917 45.6076C129.99 45.4795 130.719 44.9322 130.874 44.7353C131.029 44.5385 131.141 44.3025 130.778 44.5162C130.416 44.7299 129.323 45.6875 129.177 45.6905C128.541 45.7034 128.966 44.8719 128.822 44.4922C128.801 44.4358 128.425 44.7974 128.364 44.7376C128.14 44.5185 127.423 44.4028 128.116 43.5021C128.671 42.7807 129.367 42.573 129.545 42.219C129.629 42.0495 128.257 43.0364 128.203 43.0545C127.664 43.2446 128.166 42.6753 127.881 42.6863C127.822 42.6887 127.31 43.1428 127.265 43.1401C127.109 43.1348 127.281 42.8605 127.176 42.8195C127.128 42.802 126.725 43.1347 126.732 43.0782C126.742 42.9466 126.861 42.7431 127.185 42.3641C127.214 42.3295 127.758 41.9685 127.732 41.8979C127.689 41.7848 127.977 41.3715 127.505 41.5798C127.363 41.6429 126.43 42.3877 127.021 41.8066C127.145 41.6852 128.278 40.8071 127.25 41.5043C127.078 41.62 125.67 42.5349 126.461 41.7987C126.669 41.6049 127.551 40.8293 127.378 40.9076C127.351 40.921 126.866 41.3417 126.792 41.3503C126.543 41.3734 126.506 41.2178 126.261 41.2327C126.194 41.2374 125.711 41.696 125.628 41.6899C125.401 41.6736 125.412 41.4169 125.479 41.1687C125.505 41.0765 125.959 40.7632 126.003 40.7226C126.722 40.0636 125.672 40.854 125.599 40.8849C125.156 41.066 125.574 40.6002 125.368 40.6051C125.313 40.6053 124.839 41.0156 124.791 41.0452C124.321 41.3307 125.232 40.6693 125.301 40.5568C125.497 40.2393 125.37 40.1613 125.228 40.112C125.175 40.0945 124.641 40.5892 124.6 40.5682C124.347 40.4527 124.24 40.2079 124.402 39.7687C124.433 39.6852 124.888 39.3583 124.982 39.271C125.638 38.6617 124.627 39.3482 124.522 39.4035C124.045 39.6563 124.407 39.3169 124.28 39.3053C123.65 39.2542 123.572 38.632 123.475 38.1863C123.345 37.6076 123.502 36.9524 123.077 36.642C123.051 36.6218 122.49 37.112 122.46 37.1005C122.095 36.9319 122.101 36.4741 121.708 36.3271C121.677 36.3142 121.153 36.7881 121.085 36.7822C120.94 36.7733 120.893 36.6531 121.007 36.4356C121.062 36.3303 121.575 36.0025 121.62 35.9043C121.727 35.6748 121.691 35.5493 121.531 35.5297C121.461 35.5224 120.944 36.0309 120.898 35.9862C120.57 35.6911 120.206 35.4349 120.661 34.508C120.692 34.4444 121.82 33.5079 121.561 33.6335C121.24 33.8839 120.866 34.183 120.526 34.4531C119.947 34.1047 119.952 33.2976 119.617 32.7524C119.602 32.7295 119.025 33.2509 118.994 33.2091C118.815 32.9675 118.465 32.8744 118.876 32.1523C118.916 32.0814 119.993 31.2399 119.776 31.2989C119.736 31.3101 119.51 31.3184 119.256 31.4764C119.218 31.5006 118.735 31.9184 118.694 31.896C118.46 31.7588 118.408 31.4606 118.554 31.0198C118.579 30.9479 119.136 30.5575 119.159 30.5026C119.311 30.1164 118.768 30.2639 119.127 29.7249C119.369 29.3626 120.316 28.6672 121.175 27.8905C121.296 27.7809 121.265 27.7011 121.787 27.2777C123.101 26.213 124.571 25.0872 125.969 23.9486C126.27 23.7034 125.875 23.8793 126.648 23.3438C126.7 23.3081 126.992 23.1755 127.253 22.9919C127.433 22.8651 127.952 22.4187 128.189 22.2644C128.426 22.1103 127.998 22.4922 128.285 22.3214C128.575 22.148 129.17 21.6462 129.299 21.6603ZM136.563 48.0403C137.028 47.5756 135.153 49.0619 135.649 48.7656C135.675 48.7495 136.54 48.0633 136.563 48.0403ZM142.342 54.6594C143.107 53.926 141.855 54.8447 141.26 55.4062C140.666 55.967 142.11 54.8818 142.342 54.6594ZM143.558 54.9461C144.139 54.3397 141.478 56.4457 142.088 56.11C142.123 56.0911 143.525 54.9814 143.558 54.9461ZM121.635 27.9386C121.659 27.918 121.646 27.8528 121.621 27.8714C121.008 28.3217 121.033 28.4517 121.635 27.9386ZM144.823 55.1843C145.16 54.8705 144.684 55.1237 144.265 55.5138C143.928 55.8277 144.404 55.5746 144.823 55.1843ZM136.193 43.4895C136.22 43.4663 136.219 43.4134 136.062 43.54C135.557 43.9477 135.736 43.879 136.193 43.4895ZM145.89 56.4553C145.837 56.1841 147.932 54.3172 147.852 54.7232C147.838 54.7967 147.089 55.2002 146.93 55.4061C146.641 55.7816 148.062 54.7406 147.397 55.4194C147.276 55.5435 145.888 56.4747 145.887 56.4574C145.888 56.4567 145.889 56.456 145.89 56.4553ZM138.781 46.2123C138.805 46.1914 138.792 46.1272 138.767 46.1457C138.154 46.5956 138.179 46.7253 138.781 46.2123ZM135.815 40.6485C135.865 40.6039 135.83 40.459 135.779 40.4944C134.765 41.2153 134.833 41.5106 135.815 40.6485ZM142.598 48.1809C143.235 47.7531 143.352 47.7562 142.635 48.3953C142.635 48.3141 142.601 48.2598 142.598 48.1809Z" fill="#FC4C02"/>
<path d="M154.45 31.127C154.397 31.4469 154.005 31.4896 153.618 31.4185C153.497 31.3969 153.251 31.0494 153.156 31.02C152.969 30.963 153.03 31.1844 152.824 31.1026C152.754 31.0739 152.349 30.5361 152.286 30.5177C151.943 30.4206 151.913 30.6719 151.668 30.6934C150.463 30.7986 149.565 31.2363 148.609 31.6516C148.294 31.7894 147.595 31.5852 147.511 32.0089C147.501 32.0587 147.903 32.4912 147.928 32.533C148.323 33.175 147.578 32.2453 147.417 32.1753C146.779 31.8995 146.484 32.0808 146.408 32.4447C146.377 32.601 147.234 33.4091 146.711 32.9916C146.676 32.9636 146.293 32.4673 146.223 32.4388C146.066 32.3753 146.026 32.5569 145.948 32.5585C145.795 32.5593 145.785 32.5766 145.696 32.6428C145.572 32.7291 145.234 32.6084 145.203 32.8218C145.198 32.8687 145.65 33.3267 145.679 33.4455C145.708 33.5642 145.562 33.6176 145.426 33.5345C145.29 33.4514 144.978 33.0545 144.897 32.9722C144.208 32.277 144.959 33.4135 144.964 33.4529C145.033 34.1437 144.277 33.777 143.995 34.0209C143.782 34.2069 143.72 34.5945 143.493 34.7431C143.221 34.9172 142.79 34.8279 142.592 35.0754C142.571 35.1009 143.09 35.6499 143.065 35.6822C142.8 36.0235 142.424 36.2368 141.772 36.1232C141.706 36.1115 141.318 35.5717 141.226 35.5298C140.674 35.285 139.516 34.5534 141.268 36.8504C141.061 36.8792 140.823 36.9287 140.327 36.5874C140.007 36.3686 139.614 35.7549 139.718 36.0705C139.741 36.1411 140.179 36.5986 140.183 36.6679C140.197 36.9597 139.916 36.9287 139.995 37.2905C140.012 37.3652 140.387 37.7903 140.445 37.8745C140.915 38.5592 139.922 37.6114 139.834 37.5558C139.175 37.1453 139.236 37.4756 139.055 37.6053C139.014 37.6349 139.552 38.1755 139.53 38.2249C139.406 38.4734 139.166 38.5909 138.756 38.4963C138.664 38.4735 138.284 37.9465 138.218 37.9104C137.935 37.7568 138.707 38.7066 138.451 38.5771C138.398 38.5509 138.049 38.1194 138.007 38.0757C137.337 37.3898 138.17 38.4606 138.176 38.4945C138.273 38.9479 137.25 37.9604 137.22 38.249C137.217 38.2846 137.714 38.7834 137.679 38.8508C137.443 39.3049 136.935 39.4824 136.216 39.3547C136.105 39.3354 135.804 38.8994 135.759 38.8527C135.047 38.1246 135.887 39.1962 135.902 39.2506C135.996 39.6543 135.126 38.8948 136.076 40.2148C135.106 40.2973 135.086 41.5042 133.548 40.8981C133.53 40.8916 133.113 40.3665 133.078 40.3557C132.654 40.2198 133.357 40.99 134.052 42.0696C134.227 42.341 133.146 41.2398 133.065 41.1602C132.769 40.8666 132.16 40.0758 132.098 40.0225C131.61 39.6073 133.74 42.1248 133.628 42.2201C133.62 42.2188 133.246 41.7405 133.198 41.7023C133.047 41.5819 133.172 41.7916 133.009 41.6555C132.632 41.34 131.582 40.1297 132.079 40.9291C132.144 41.0325 133.362 42.4528 133.205 42.4683C133.192 42.4693 133.175 42.4775 133.155 42.4893C133.076 42.5366 132.955 42.6377 132.855 42.5967C132.727 42.5451 132.376 42.0534 132.355 42.0363C131.712 41.5348 131.551 41.2386 130.731 40.3864C129.912 39.5379 131.723 41.6791 131.895 41.9427C132.067 42.206 131.547 41.7826 131.377 41.6266C131.207 41.4707 130.992 41.151 130.888 41.0693C130.207 40.5361 131.715 42.1918 131.953 42.573C132.517 43.4741 131.098 41.9489 130.868 41.8748C130.806 41.8551 131.13 42.2014 131.134 42.2557C131.146 42.4655 130.674 42.0135 130.942 42.5643C130.985 42.654 131.692 43.692 131.051 43.0317C130.958 42.9363 130.651 42.5177 130.537 42.4619C130.366 42.3767 130.179 42.3842 130.224 42.572C130.256 42.7112 130.855 43.3241 130.625 43.17C130.522 43.1011 130.255 42.6739 130.089 42.5764C129.925 42.4778 129.806 42.6041 129.767 42.6584C129.728 42.7131 130.167 43.191 130.19 43.228C130.324 43.4413 130.427 43.7608 130.419 43.767C130.04 44.1801 128.955 43.6573 128.767 44.2765C128.752 44.3242 129.205 44.8362 129.207 44.849C129.276 45.1613 128.218 43.681 127.756 43.2736C128.642 44.3393 128.437 44.183 128.454 44.3652C128.463 44.4538 128.822 44.8533 128.853 44.8988C129.311 45.5771 128.608 44.7916 128.462 44.6325C127.926 44.0471 128.474 44.8081 128.115 44.4176C127.758 44.0304 127.325 43.3779 127.256 43.4473C127.547 43.8497 128.421 44.8104 128.496 45.0203C128.781 45.8131 127.734 45.3516 127.493 45.4109C127.255 45.4683 127.254 45.5868 127.041 45.5286C126.654 45.4242 127.326 46.1186 127.49 46.552C127.655 46.9852 126.219 45.1019 125.883 44.7197C125.546 44.3377 125.858 44.7589 125.662 44.558C125.466 44.3571 125.291 44.0531 125.178 44.0098C125.065 43.9669 125.508 44.7722 125.826 45.1997C126.501 46.1036 127.303 46.9757 126.918 46.753C126.895 46.7396 126.526 46.2377 126.459 46.2109C125.941 46.0147 125.7 46.1726 125.215 46.0213C125.148 45.9996 124.736 45.4421 124.692 45.4234C124.232 45.2283 125.035 46.0794 125.761 47.1613C124.688 45.8095 123.963 45.038 123.819 45.1438C123.732 45.2064 124.226 45.7762 124.511 46.2296C124.598 46.3661 124.21 46.0152 124.426 46.2968C125.131 47.2176 126.012 48.1714 125.545 47.8878C125.524 47.8739 125.137 47.3701 125.092 47.3579C124.796 47.277 125.556 48.2216 125.508 48.4533C125.47 48.6351 124.795 48.2379 124.59 48.2557C123.333 46.7771 123.497 47.2219 124.321 48.2778C124.202 48.3072 124.163 48.441 123.963 48.3704C123.894 48.3466 123.543 47.9072 123.5 47.8644C123.158 47.5256 123.196 47.6159 123.32 47.795C123.443 47.9709 123.648 48.2327 123.656 48.2594C123.792 48.8001 122.981 48.2003 123.437 49.0853C123.453 49.1171 124.339 50.1329 123.636 49.4418C123.587 49.394 123.24 48.8818 123.122 48.9238C123.003 48.9659 122.358 48.5738 122.652 49.1482C122.723 49.2866 123.376 50.1698 122.747 49.5853C122.662 49.5058 122.414 49.2095 122.259 49.0592C121.766 48.5806 122.651 49.6162 121.838 48.7909C121.025 47.9653 120.359 47.3972 120.768 48.1021C120.779 48.1229 121.466 48.9572 121.415 48.9789C121.334 49.013 121.099 48.9207 121.038 48.983C121.01 49.0131 121.471 49.4999 121.474 49.5139C121.511 49.9808 120.965 49.6629 120.572 49.6577C120.499 49.6557 120.969 50.4558 120.421 49.972C119.824 49.4399 117.799 46.8425 118.112 47.6022C118.242 47.9025 120.782 51.2208 119.266 49.6642C119.313 50.316 118.365 49.6527 118.539 50.4816C118.547 50.5183 119.207 51.4801 119.165 51.4922C119.101 51.5079 118.748 51.0916 118.693 51.0882C118.455 51.061 118.599 51.5332 118.417 51.575C118.349 51.5918 118.038 51.1213 117.958 51.1404C117.878 51.1591 118.267 51.7934 117.974 51.5615C117.751 51.3847 116.82 50.1857 116.64 50.0953C117.488 51.3267 117.413 51.3416 117.531 51.7393C117.554 51.8162 117.869 52.2314 117.895 52.2901C118.006 52.5388 117.727 52.2069 117.853 52.4743C117.883 52.5386 118.168 52.9622 118.209 53.0388C118.562 53.7077 117.813 52.8267 117.686 52.671C117.196 52.0841 117.531 52.6593 117.312 52.4449C117.095 52.2296 116.969 51.8651 116.808 51.7534C116.479 51.5206 116.362 51.6938 116.223 51.7537C116.169 51.7805 116.567 52.3353 116.568 52.3525C116.551 52.5677 116.061 52.0183 116.713 53.2112C114.798 50.2669 116.826 53.542 116.298 53.0398C116.256 52.9989 115.383 51.5866 115.301 51.3513C115.22 51.1159 115.559 51.517 115.422 51.1551C115.391 51.0695 114.654 49.6962 114.613 49.6102C114.307 48.9332 115.636 51.0286 115.713 51.1408C116.55 52.3519 115.761 50.868 115.723 50.7549C115.559 50.2299 115.847 50.4588 115.74 50.0762C115.671 49.8287 114.782 48.4682 114.856 48.4787C115.098 48.5153 116.435 50.3482 115.478 48.6217C115.273 48.2536 114.233 46.8129 115.137 47.8862C115.193 47.9545 116.008 48.9441 115.594 48.2473C115.541 48.1597 115.243 47.7363 115.226 47.6953C115.116 47.4286 115.389 47.7407 115.331 47.5396C115.273 47.3383 115.168 47.0513 115.334 47.1477C115.433 47.2056 116.053 47.947 116.212 48.1228C116.67 48.6302 116.065 47.6908 116.589 48.3273C117.119 48.9648 117.799 50.0266 118.217 50.3822C117.414 49.3027 116.595 48.1919 115.788 47.1058C116.001 47.0058 116.452 47.2075 116.603 47.0125C116.621 46.9872 116.149 46.4385 116.156 46.3972C116.187 46.2261 116.599 46.5564 116.578 46.3093C116.559 46.1165 116.165 45.45 116.125 45.2327C117.159 46.3744 116.956 45.8636 117.14 45.8915C117.205 45.9006 117.468 46.2162 117.579 46.2983C117.99 46.5995 117.067 45.5993 116.953 45.4157C116.462 44.6331 118.473 46.9643 118.554 46.7936C118.56 46.7849 117.568 45.4735 117.511 45.3872C117.145 44.8224 117.898 45.808 118.022 45.8603C118.25 45.9558 118.567 46.1996 118.347 45.7524C118.282 45.6202 117.673 44.7937 118.252 45.3374C118.328 45.4086 118.683 45.8185 118.71 45.837C119.169 46.1383 118.042 44.8601 117.719 44.3745C117.397 43.8893 118.274 44.6835 118.519 44.9188C119.154 45.5279 118.729 45.2338 118.784 45.3005C119.432 46.0947 119.386 45.9001 119.497 45.9164C120.617 47.1567 120.627 47.0138 119.609 45.9284C119.497 45.8099 119.559 45.9637 119.497 45.9164C118.453 44.6506 118.396 44.4202 119.51 45.4799C120.032 45.9766 120.548 46.6382 120.477 46.2909C120.445 46.1338 119.656 45.2963 119.5 45.0144C119.147 44.3702 120.023 45.0272 120.042 44.7854C120.048 44.6973 119.585 44.2667 119.575 44.19C119.549 43.9847 119.939 44.2712 119.869 44.011C119.862 43.9868 119.407 43.5084 119.43 43.4775C119.448 43.4511 119.469 43.4293 119.493 43.4113C119.692 43.2617 120.082 43.3703 120.287 43.2088C120.398 43.1211 120.356 42.6804 120.515 42.6425C120.788 42.5733 121.636 43.1142 121.648 42.8022C121.66 42.5995 121.216 42.1105 120.976 41.7263C120.51 40.9812 121.657 42.0583 121.83 42.2288C121.836 42.2345 121.844 42.4286 122.107 42.6508C122.582 43.1732 121.831 42.232 121.83 42.2288C121.943 42.338 122.218 42.3064 122.174 42.1798C122.149 42.1106 121.743 41.6357 121.738 41.6087C121.625 40.9788 121.767 40.6587 122.192 40.6902C122.205 40.6965 122.638 41.2445 122.662 41.2526C122.995 41.3822 122.549 40.6434 122.342 40.1579C122.137 39.6708 122.335 39.7293 123.157 40.6074C123.149 40.4199 123.605 40.7329 123.878 40.9256C124.152 41.1181 123.306 40.0528 123.295 40.0268C122.946 39.2022 123.548 39.7161 123.825 39.6473C123.958 39.6167 124.023 39.3099 124.031 39.1117C124.036 38.9533 124.286 39.1608 124.233 38.941C124.226 38.9116 123.833 38.4502 123.822 38.4296C123.448 37.7999 124.342 38.9809 124.526 39.172C125.195 39.8676 125.557 40.2335 125.379 39.7948C125.339 39.6936 124.063 37.9836 124.028 37.851C123.986 37.6813 124.447 38.2912 124.391 38.0981C124.386 38.0821 124.087 37.7178 124.138 37.7031C124.369 37.6312 124.735 37.686 124.883 37.5039C124.904 37.4801 124.399 36.9277 124.422 36.8838C124.536 36.676 124.731 36.5516 125.119 36.6857C125.214 36.7216 125.522 37.1462 125.63 37.2592C126.28 37.9421 125.487 36.8248 125.483 36.7945C125.364 36.0411 126.378 36.8083 126.305 36.1038C126.3 36.0631 125.492 34.8298 126.349 35.751C126.406 35.8123 127.283 36.7553 126.771 36.0378C126.739 35.993 126.281 35.5128 126.385 35.5141C126.489 35.5154 126.307 35.0922 126.853 35.5835C127.026 35.7379 127.909 36.6718 127.334 35.8201C127.298 35.7681 126.245 34.3107 126.715 34.7658C126.779 34.8287 126.872 34.9277 127.001 35.0715C127.176 35.2673 128.25 36.5697 127.789 35.8271C127.699 35.6834 127.426 35.4215 127.322 35.2016C127.162 34.8633 127.549 35.1295 127.157 34.4769C127.088 34.3608 126.418 33.4283 127.029 34.051C127.124 34.1485 127.47 34.5939 127.538 34.6189C127.864 34.7405 127.768 34.3299 128.15 34.5177C128.286 34.5826 128.847 35.3011 129.054 35.4462C129.261 35.5912 129.513 35.6857 129.299 35.3222C129.084 34.9586 128.093 33.8952 128.098 33.7398C128.112 33.0693 129 33.4348 129.422 33.2416C129.485 33.2134 129.108 32.8514 129.176 32.7813C129.427 32.5191 129.588 31.7452 130.538 32.3873C131.301 32.9006 131.494 33.6183 131.873 33.7691C132.055 33.8402 131.042 32.4866 131.024 32.4315C130.843 31.8776 131.44 32.3524 131.442 32.0495C131.443 31.9868 130.97 31.4907 130.975 31.4432C130.989 31.2759 131.281 31.4286 131.33 31.3137C131.351 31.2609 131.006 30.8683 131.068 30.8691C131.211 30.8663 131.428 30.97 131.828 31.2728C131.865 31.3004 132.234 31.8395 132.313 31.8042C132.44 31.7451 132.877 32.0083 132.671 31.5282C132.609 31.3843 131.838 30.4729 132.446 31.038C132.573 31.1559 133.481 32.266 132.767 31.2473C132.649 31.0775 131.712 29.6804 132.481 30.4407C132.683 30.6408 133.491 31.494 133.414 31.318C133.4 31.2907 132.962 30.8213 132.956 30.7442C132.943 30.4813 133.117 30.4228 133.111 30.1646C133.108 30.0944 132.629 29.631 132.639 29.5426C132.667 29.2988 132.948 29.2812 133.217 29.3251C133.317 29.3426 133.639 29.7901 133.682 29.8327C134.37 30.5248 133.553 29.4955 133.522 29.4209C133.344 28.9704 133.835 29.3627 133.839 29.1442C133.842 29.0852 133.414 28.6268 133.384 28.5791C133.093 28.11 133.775 29.0063 133.896 29.0667C134.234 29.2396 134.325 29.0963 134.386 28.9394C134.407 28.8811 133.89 28.3679 133.915 28.322C134.054 28.0384 134.325 27.8992 134.8 28.0204C134.89 28.0443 135.227 28.4915 135.319 28.5815C135.957 29.2118 135.251 28.2117 135.195 28.107C134.939 27.6282 135.295 27.9751 135.313 27.8381C135.399 27.1609 136.084 27.006 136.576 26.8522C137.217 26.6468 137.928 26.739 138.287 26.2504C138.311 26.2198 137.798 25.679 137.812 25.6454C138.015 25.2362 138.515 25.191 138.694 24.7547C138.71 24.72 138.214 24.2163 138.223 24.1426C138.239 23.9876 138.373 23.9236 138.606 24.0201C138.719 24.0662 139.056 24.5748 139.162 24.6118C139.409 24.699 139.548 24.6456 139.577 24.4726C139.588 24.3977 139.053 23.9058 139.104 23.8512C139.442 23.4674 139.739 23.0498 140.736 23.4257C140.805 23.4516 141.782 24.5451 141.655 24.2831C141.395 23.9704 141.083 23.6071 140.802 23.2752C141.211 22.617 142.095 22.5284 142.709 22.1062C142.735 22.0883 142.188 21.5336 142.235 21.4958C142.508 21.2773 142.626 20.8927 143.4 21.2462C143.476 21.2804 144.352 22.3299 144.297 22.1049C144.286 22.0643 144.287 21.8234 144.125 21.5716C144.1 21.5341 143.663 21.0685 143.69 21.0213C143.851 20.7557 144.18 20.6652 144.657 20.7693C144.735 20.7871 145.139 21.3358 145.198 21.3529C145.615 21.4703 145.477 20.9083 146.053 21.2271C146.44 21.4424 147.161 22.3709 147.975 23.1953C148.09 23.3115 148.179 23.2692 148.62 23.7766C149.73 25.0522 150.9 26.488 152.087 27.8441C152.343 28.1362 152.168 27.7358 152.721 28.4972C152.758 28.5483 152.89 28.8448 153.08 29.1013C153.211 29.2786 153.678 29.7793 153.837 30.0142C153.995 30.2488 153.595 29.8367 153.77 30.1228C153.947 30.4121 154.472 30.9874 154.45 31.127ZM125.103 41.785C125.58 42.2387 124.083 40.3721 124.372 40.8749C124.388 40.9014 125.079 41.7629 125.103 41.785ZM117.557 48.6333C118.287 49.4022 117.386 48.1366 116.829 47.538C116.274 46.9377 117.336 48.3991 117.557 48.6333ZM117.161 49.8911C117.75 50.4927 115.769 47.7373 116.074 48.3638C116.091 48.3992 117.127 49.856 117.161 49.8911ZM147.902 23.6915C147.923 23.7149 147.995 23.6939 147.976 23.6689C147.509 23.0682 147.365 23.1106 147.902 23.6915ZM116.743 51.2009C117.03 51.5614 116.83 51.0572 116.472 50.6107C116.184 50.2508 116.387 50.7518 116.743 51.2009ZM130.121 40.9775C130.144 41.0042 130.203 40.9977 130.073 40.8431C129.657 40.3453 129.721 40.5297 130.121 40.9775ZM115.168 52.2279C115.465 52.2023 117.063 54.5124 116.618 54.4085C116.539 54.3885 116.271 53.5751 116.08 53.3948C115.734 53.0641 116.542 54.6303 115.948 53.8844C115.841 53.7465 115.149 52.2232 115.166 52.2242C115.167 52.2254 115.168 52.2267 115.168 52.2279ZM126.951 43.9866C126.972 44.0097 127.043 43.9911 127.025 43.9656C126.574 43.3527 126.431 43.3906 126.951 43.9866ZM133.267 40.2799C133.313 40.3292 133.476 40.2753 133.44 40.2243C132.705 39.2197 132.375 39.3254 133.267 40.2799ZM124.554 48.2181C124.995 48.8462 124.991 48.9685 124.322 48.2784C124.409 48.2703 124.469 48.2291 124.554 48.2181Z" fill="#FC4C02"/>
<path d="M71.3516 0.0220078C71.5981 0.208719 71.4336 0.543795 71.1742 0.823306C71.0939 0.910724 70.6704 0.952424 70.5962 1.01625C70.4516 1.14097 70.6724 1.19132 70.4966 1.32067C70.4363 1.36392 69.7687 1.44763 69.7206 1.49017C69.4617 1.72244 69.6611 1.85987 69.5542 2.0664C69.0261 3.08391 68.9401 4.00391 68.8058 4.95974C68.7621 5.2748 68.2295 5.74659 68.5484 6.00459C68.5862 6.0346 69.162 5.90591 69.2111 5.90387C69.9623 5.87519 68.7854 6.05643 68.6428 6.15495C68.0801 6.54539 68.0837 6.86301 68.3567 7.0879C68.4746 7.18326 69.6051 6.85641 68.9799 7.09019C68.9377 7.1062 68.3167 7.19146 68.2568 7.23469C68.1222 7.33251 68.2569 7.44582 68.2183 7.50947C68.1407 7.6327 68.1501 7.64897 68.1615 7.74982C68.1717 7.88868 67.8957 8.10722 68.0622 8.22741C68.0996 8.25272 68.7231 8.09459 68.8397 8.12441C68.9561 8.1543 68.927 8.29583 68.7864 8.36775C68.6458 8.4397 68.1462 8.51266 68.034 8.54157C67.0863 8.7839 68.4436 8.69001 68.4801 8.7035C69.1063 8.95694 68.4059 9.40343 68.4701 9.73829C68.5205 9.99219 68.8209 10.218 68.8314 10.4666C68.8416 10.7631 68.5449 11.0709 68.6556 11.3403C68.6665 11.3689 69.4022 11.1968 69.417 11.2314C69.5745 11.5993 69.5642 11.9954 69.134 12.4704C69.0902 12.5181 68.4296 12.5894 68.3468 12.6443C67.8548 12.9779 66.6373 13.5871 69.4997 13.201C69.4184 13.3803 69.3396 13.5943 68.7941 13.8423C68.4431 14.002 67.7169 14.0445 68.0406 14.101C68.1127 14.1138 68.7282 13.9657 68.7894 13.9938C69.0466 14.1119 68.877 14.3243 69.2275 14.4234C69.3003 14.4433 69.8556 14.3313 69.9576 14.3219C70.784 14.2483 69.465 14.6247 69.3726 14.6707C68.6844 15.0176 68.9994 15.1195 69.0182 15.3205C69.0223 15.3672 69.7603 15.1744 69.7911 15.2143C69.9407 15.4234 69.9203 15.6725 69.6299 15.9581C69.5635 16.0219 68.9178 16.0941 68.8534 16.1307C68.5775 16.2904 69.7854 16.0908 69.544 16.2397C69.4947 16.2708 68.9469 16.3599 68.8877 16.3749C67.9584 16.6097 69.3008 16.4156 69.3331 16.4257C69.7717 16.5486 68.4038 16.9323 68.6361 17.0865C68.6653 17.1046 69.3461 16.9254 69.3859 16.9843C69.6556 17.3761 69.5496 17.8628 69.0757 18.3877C69.003 18.4692 68.4758 18.5183 68.4126 18.5343C67.4263 18.7866 68.7726 18.5824 68.827 18.5945C69.2211 18.6964 68.1281 19.0621 69.7433 18.8818C69.3227 19.7002 70.3498 20.2471 69.0533 21.2216C69.0384 21.2337 68.3764 21.3396 68.3495 21.3632C68.0196 21.6486 69.0362 21.4172 70.3156 21.3287C70.6369 21.3066 69.1447 21.6967 69.0357 21.727C68.6337 21.8381 67.6463 21.9829 67.5694 22.0094C66.9663 22.2227 70.206 21.6062 70.2316 21.7385C70.2269 21.7436 69.6269 21.8368 69.5696 21.8589C69.3897 21.9279 69.6332 21.9183 69.434 21.9901C68.9729 22.1555 67.4024 22.4749 68.3413 22.4233C68.4631 22.4162 70.2982 22.0527 70.2332 22.1871C70.2057 22.241 70.2759 22.4439 70.1676 22.5245C70.0593 22.605 69.4592 22.6746 69.4343 22.6835C68.6796 22.9861 68.3437 22.9866 67.198 23.2804C66.0565 23.5733 68.8097 23.0409 69.1234 23.016C69.4362 22.9914 68.8109 23.2266 68.5914 23.2966C68.3717 23.3666 67.9885 23.401 67.8659 23.4498C67.0654 23.771 69.2481 23.2697 69.6959 23.2438C70.7562 23.1818 68.7301 23.6616 68.5518 23.8176C68.5036 23.8598 68.9645 23.7473 69.0134 23.7679C69.2007 23.8505 68.5753 24.0369 69.1842 24.0576C69.2834 24.0611 70.5321 23.9378 69.6425 24.1724C69.5141 24.2061 68.9995 24.2732 68.8944 24.3427C68.7364 24.4467 68.6492 24.5975 68.8339 24.6436C68.9705 24.6776 69.798 24.4564 69.5505 24.5768C69.44 24.6305 68.9378 24.662 68.7711 24.7552C68.6044 24.848 68.6544 24.9972 68.6821 25.0524C68.7103 25.1074 69.3413 24.9576 69.385 24.9544C69.6361 24.9373 69.9639 24.9921 69.9649 25.0021C70.1349 25.4856 69.1464 26.1436 69.5915 26.5625C69.6255 26.5955 70.2924 26.4458 70.3045 26.4496C70.61 26.5277 68.8053 26.7557 68.2245 26.9574C69.585 26.6918 69.3481 26.7912 69.5146 26.8553C69.5959 26.886 70.1192 26.7642 70.1739 26.7582C70.9876 26.6753 69.9608 26.9127 69.7512 26.9637C68.9801 27.1513 69.9094 27.0281 69.3941 27.1541C68.8827 27.2793 68.1039 27.3533 68.13 27.4395C68.6225 27.3738 69.8853 27.0724 70.1043 27.1009C70.9326 27.2082 70.0194 27.8639 69.953 28.0858C69.8866 28.3072 69.9887 28.3559 69.8342 28.5064C69.5549 28.7783 70.4863 28.5251 70.9438 28.5771C71.4013 28.6295 69.0619 28.996 68.5651 29.1078C68.0685 29.2191 68.5871 29.1442 68.3164 29.2183C68.0459 29.2924 67.6964 29.3052 67.6033 29.3789C67.5103 29.4525 68.4276 29.437 68.9544 29.3595C70.0703 29.1951 71.2211 28.9125 70.8391 29.1326C70.8164 29.1454 70.1994 29.2317 70.1434 29.275C69.7191 29.6148 69.7385 29.8826 69.3685 30.2121C69.3167 30.2576 68.6301 30.3526 68.5922 30.3805C68.1957 30.6714 69.3297 30.3837 70.6263 30.2628C68.9245 30.5512 67.898 30.8072 67.9175 30.9686C67.9287 31.0658 68.6668 30.912 69.2007 30.8773C69.3616 30.8668 68.8653 31.0289 69.2161 30.9767C70.363 30.8062 71.6267 30.5061 71.1493 30.7647C71.1265 30.7764 70.4985 30.8689 70.4654 30.9008C70.248 31.1078 71.4434 30.9064 71.62 31.054C71.7585 31.1696 71.0768 31.5472 70.9874 31.7246C69.0788 32.0747 69.5429 32.1407 70.8695 31.9567C70.8343 32.0676 70.9289 32.1629 70.7651 32.2941C70.7093 32.3392 70.1528 32.4194 70.0939 32.4347C69.1696 32.673 70.4576 32.4799 70.5118 32.4924C71.0433 32.6382 70.1089 33.0103 71.0986 33.0601C71.1343 33.0618 72.462 32.8293 71.5054 33.0688C71.4395 33.085 70.8227 33.1223 70.7957 33.2369C70.7686 33.3516 70.0951 33.6831 70.7365 33.7166C70.891 33.7248 71.9836 33.6157 71.1563 33.8437C71.044 33.8744 70.6619 33.9343 70.453 33.9874C69.7873 34.1571 71.1314 33.9336 70.0032 34.1972C68.875 34.4608 68.0431 34.7285 68.8557 34.7316C68.8794 34.7321 69.9477 34.5706 69.9395 34.6204C69.9256 34.7001 69.724 34.8468 69.7454 34.9234C69.756 34.96 70.4108 34.814 70.4241 34.8183C70.8399 35.0004 70.2852 35.2875 70.0798 35.6032C70.0409 35.6613 70.9661 35.6362 70.2729 35.8631C69.5142 36.1117 66.2576 36.6036 67.0733 36.7012C67.3997 36.7411 71.5287 36.1034 69.4335 36.6716C70.0233 36.912 68.9923 37.4261 69.8078 37.6256C69.844 37.6347 70.9989 37.4706 70.99 37.5094C70.9745 37.5672 70.4442 37.6956 70.416 37.7401C70.2841 37.9292 70.7693 37.9899 70.7265 38.1566C70.7114 38.2196 70.1537 38.3018 70.1356 38.377C70.1181 38.4521 70.856 38.3633 70.5211 38.5226C70.2658 38.6434 68.7883 38.9905 68.632 39.117C70.1031 38.8483 70.0848 38.9187 70.4943 38.962C70.5737 38.9702 71.0811 38.8517 71.145 38.8507C71.4167 38.8444 70.9998 38.9624 71.2945 38.9497C71.3652 38.9468 71.8675 38.8542 71.9537 38.8466C72.7059 38.7781 71.5972 39.1 71.4041 39.1557C70.6709 39.3683 71.3305 39.282 71.0469 39.3934C70.7633 39.5047 70.3799 39.4878 70.2138 39.5872C69.8701 39.7931 69.9839 39.9549 69.9867 40.0989C69.9909 40.1558 70.6542 39.9936 70.6704 39.9989C70.8617 40.0827 70.1703 40.3313 71.5173 40.1479C68.0798 40.8672 71.8651 40.1554 71.2045 40.4482C71.151 40.4715 69.5215 40.7904 69.2726 40.7849C69.0239 40.7794 69.5202 40.6094 69.1338 40.6094C69.0431 40.6093 67.4959 40.7988 67.4009 40.8032C66.658 40.837 69.0951 40.371 69.2281 40.3409C70.663 40.013 68.9937 40.2036 68.8742 40.1945C68.3268 40.1531 68.6482 39.9722 68.2544 39.9257C67.9997 39.8947 66.4002 40.1833 66.4381 40.1149C66.5633 39.8878 68.7799 39.4062 66.8125 39.5783C66.3929 39.6148 64.6536 39.9779 66.0006 39.5808C66.0855 39.5558 67.3223 39.2171 66.5162 39.3031C66.4146 39.3139 65.9056 39.4084 65.861 39.4062C65.5718 39.3895 65.9689 39.269 65.761 39.2309C65.5531 39.1929 65.247 39.1575 65.404 39.041C65.4978 38.9709 66.4341 38.7299 66.6618 38.6625C67.3179 38.4698 66.2076 38.599 67.0096 38.4064C67.8157 38.2126 69.0676 38.0678 69.5727 37.8576C68.2494 38.0983 66.8902 38.3401 65.5589 38.5796C65.5597 38.3238 65.9423 38.0013 65.8379 37.7641C65.8237 37.7349 65.1185 37.8981 65.0849 37.8702C64.9462 37.752 65.4305 37.5367 65.202 37.4298C65.0224 37.3476 64.2469 37.3645 64.0356 37.2829C65.5357 36.9314 64.9899 36.8532 65.1049 36.7018C65.1445 36.6488 65.5493 36.5769 65.6753 36.5212C66.1411 36.3126 64.814 36.6157 64.5976 36.6222C63.6736 36.6494 66.6983 36.077 66.5932 35.9268C66.5886 35.9186 64.9555 36.1112 64.8523 36.1152C64.1799 36.1436 65.411 35.9958 65.5195 35.9156C65.7177 35.769 66.0893 35.6238 65.5936 35.5867C65.4469 35.5763 64.4251 35.6754 65.1899 35.4607C65.2901 35.4326 65.8243 35.339 65.8542 35.3257C66.3497 35.094 64.6733 35.4008 64.0915 35.4286C63.5098 35.4564 64.6445 35.1228 64.9734 35.0367C65.8241 34.8135 65.351 35.0172 65.4362 35.005C66.451 34.8589 66.2614 34.8039 66.3342 34.7216C67.9755 34.4077 67.8597 34.3329 66.4031 34.6375C66.244 34.6709 66.4068 34.6944 66.3342 34.7216C64.7113 34.9617 64.4859 34.8977 65.9715 34.5058C66.6678 34.3222 67.5003 34.2197 67.1693 34.1149C67.0199 34.0672 65.8938 34.3048 65.5734 34.2976C64.8425 34.281 65.8624 33.8946 65.6681 33.7739C65.5976 33.7301 64.9882 33.8983 64.9186 33.8724C64.7321 33.8038 65.1805 33.6298 64.9239 33.5737C64.8999 33.5688 64.2557 33.711 64.2417 33.6814C64.1227 33.4592 64.4998 33.1767 64.4657 32.9281C64.4489 32.808 64.0519 32.6612 64.1009 32.5245C64.1821 32.2883 65.0761 31.8507 64.8132 31.7104C64.6446 31.6184 64.001 31.7646 63.5498 31.7954C62.6752 31.8554 64.1768 31.397 64.41 31.3295C64.4177 31.3273 64.5896 31.4016 64.9123 31.2852C65.5999 31.125 64.4132 31.3301 64.41 31.3295C64.5606 31.2857 64.6698 31.0536 64.5383 31.0359C64.4665 31.0263 63.8545 31.1524 63.8286 31.1453C63.2282 30.9732 63.0212 30.7278 63.257 30.3968C63.2685 30.3896 63.957 30.2697 63.9755 30.2544C64.2513 30.037 63.3916 30.0897 62.8679 30.0495C62.3445 30.0093 62.4921 29.8732 63.6573 29.5762C63.4902 29.5037 63.9851 29.2635 64.2863 29.1223C64.5874 28.9811 63.2477 29.2173 63.2199 29.2149C62.3315 29.145 63.0729 28.8721 63.1485 28.6149C63.1867 28.4922 62.9516 28.3063 62.783 28.2123C62.6474 28.1384 62.9502 28.0228 62.7334 27.9717C62.7045 27.9647 62.1111 28.0871 62.0875 28.0877C61.3567 28.1212 62.8214 27.8989 63.0777 27.8304C64.0097 27.5817 64.5049 27.4429 64.0367 27.3993C63.9295 27.3891 61.8174 27.6926 61.685 27.6624C61.5167 27.6223 62.2729 27.5091 62.0775 27.4707C62.0615 27.4673 61.5982 27.5544 61.6104 27.5061C61.6609 27.2831 61.8889 27.0078 61.8027 26.8017C61.7927 26.7732 61.0643 26.947 61.0378 26.9081C60.9138 26.7254 60.9006 26.5024 61.209 26.2449C61.2872 26.1811 61.8075 26.1157 61.9585 26.077C62.8717 25.8422 61.511 26.001 61.4827 25.9908C60.7712 25.7557 61.9371 25.259 61.2911 25.0047C61.2535 24.9914 59.7847 25.1067 61.0078 24.8103C61.0892 24.7904 62.341 24.4895 61.4657 24.5904C61.4109 24.5968 60.7678 24.7589 60.8207 24.6739C60.8734 24.589 60.4171 24.5525 61.1137 24.3201C61.3331 24.2467 62.5803 23.9384 61.5576 24.0302C61.4863 24.037 59.1863 24.3123 60.7449 23.9698C61.0015 23.9136 62.6627 23.6151 61.791 23.66C61.622 23.669 61.2591 23.7767 61.0174 23.7628C60.6451 23.7419 61.0683 23.5444 60.3092 23.5745C60.1749 23.5802 59.0338 23.7095 59.877 23.4875C60.009 23.4528 60.5666 23.3691 60.6224 23.324C60.8902 23.1093 60.4886 23.0107 60.8419 22.7775C60.966 22.6951 61.8671 22.5586 62.096 22.4543C62.3249 22.35 62.5334 22.1866 62.1125 22.1998C61.6914 22.2129 60.2766 22.5457 60.145 22.473C59.5733 22.1567 60.3358 21.5974 60.3828 21.1671C60.3899 21.1033 59.8884 21.248 59.8622 21.1607C59.7634 20.8394 59.1795 20.361 60.2121 19.8751C61.0391 19.4858 61.7542 19.6505 62.0756 19.4105C62.2288 19.2951 60.5523 19.5113 60.4963 19.5007C59.9288 19.4004 60.6384 19.1263 60.3798 18.9894C60.3261 18.9611 59.6602 19.1219 59.622 19.0965C59.4855 19.0108 59.7648 18.8424 59.6909 18.7501C59.6562 18.709 59.144 18.8126 59.1758 18.7629C59.2461 18.6452 59.4454 18.5156 59.9087 18.3278C59.9509 18.3106 60.6012 18.253 60.6111 18.1736C60.6253 18.0456 61.0724 17.8071 60.5561 17.7585C60.4008 17.7444 59.2264 17.9602 60.0208 17.7211C60.1867 17.6711 61.601 17.4338 60.3636 17.5557C60.1579 17.5758 58.4825 17.706 59.5259 17.4244C59.8004 17.3502 60.9435 17.0791 60.753 17.0629C60.7228 17.0615 60.0971 17.2053 60.028 17.1755C59.7952 17.0682 59.8343 16.9034 59.6091 16.7907C59.5477 16.7608 58.9061 16.941 58.8355 16.8926C58.6402 16.7597 58.7686 16.5249 58.9433 16.3273C59.0089 16.2542 59.5571 16.1948 59.6151 16.1796C60.5593 15.9334 59.2601 16.1319 59.1806 16.1229C58.7032 16.0641 59.2899 15.8434 59.105 15.7419C59.0557 15.7136 58.4446 15.8533 58.3883 15.8563C57.8379 15.8809 58.9542 15.7318 59.0674 15.6619C59.388 15.4654 59.3112 15.3269 59.2077 15.2074C59.1687 15.1637 58.4649 15.3513 58.4382 15.3105C58.2667 15.0718 58.2847 14.7873 58.6311 14.4592C58.6977 14.3972 59.2531 14.3256 59.3769 14.2923C60.2428 14.0605 59.0255 14.1813 58.907 14.1792C58.3661 14.1699 58.8448 14.0387 58.7367 13.9621C58.2003 13.5892 58.4179 12.9657 58.5371 12.4979C58.6891 11.8888 59.1316 11.3561 58.8965 10.8457C58.8823 10.8131 58.1571 10.9829 58.1354 10.9566C57.8889 10.6104 58.1057 10.1845 57.8241 9.844C57.8023 9.81582 57.1172 9.98915 57.0588 9.94823C56.9344 9.86521 56.948 9.72832 57.1502 9.58362C57.2475 9.51329 57.8552 9.47093 57.941 9.40239C58.1421 9.24253 58.168 9.10632 58.0343 9.00516C57.9759 8.96238 57.2811 9.1719 57.2604 9.10607C57.1051 8.66033 56.8995 8.2324 57.7321 7.59871C57.7893 7.55525 59.2256 7.26042 58.9367 7.24403C58.5357 7.31303 58.0652 7.40045 57.6371 7.47741C57.2831 6.85222 57.6604 6.09865 57.6137 5.41462C57.6115 5.38581 56.8568 5.57605 56.8488 5.521C56.8015 5.2025 56.533 4.93444 57.2322 4.47021C57.3005 4.42435 58.6472 4.19199 58.4265 4.135C58.3863 4.12517 58.1807 4.01583 57.8822 4.033C57.8373 4.03614 57.2149 4.17828 57.1882 4.13574C57.0435 3.88648 57.1349 3.58028 57.4687 3.24288C57.5238 3.18821 58.2002 3.11032 58.2452 3.0703C58.5595 2.78739 58.008 2.64511 58.576 2.32522C58.9586 2.11065 60.1226 1.9483 61.2453 1.66401C61.4037 1.62388 61.4132 1.53313 62.0736 1.40624C63.7341 1.08692 65.5623 0.791459 67.3314 0.446175C67.7124 0.371874 67.2799 0.332772 68.215 0.230179C68.2776 0.223513 68.5993 0.250367 68.916 0.212996C69.135 0.187259 69.8026 0.0369172 70.085 0.0148623C70.3671 -0.00714717 69.8094 0.129354 70.1437 0.117559C70.4821 0.104996 71.2431 -0.0579625 71.3516 0.0220078ZM65.6318 28.4885C66.26 28.293 63.9052 28.7174 64.4834 28.6959C64.5142 28.6944 65.6011 28.4982 65.6318 28.4885ZM67.7172 37.6741C68.7364 37.3819 67.1979 37.5961 66.4095 37.815C65.622 38.0338 67.4083 37.7628 67.7172 37.6741ZM68.6669 38.5707C69.4634 38.3023 66.1237 38.9018 66.8214 38.902C66.8608 38.9023 68.6206 38.5863 68.6669 38.5707ZM61.6324 1.94652C61.6634 1.93967 61.6824 1.87218 61.6512 1.87644C60.8978 1.98188 60.8604 2.11674 61.6324 1.94652ZM69.6823 39.4469C70.1268 39.3269 69.5864 39.3183 69.0336 39.4676C68.5889 39.5877 69.1293 39.5963 69.6823 39.4469ZM67.404 24.0335C67.4388 24.0258 67.4621 23.9756 67.2641 24.0132C66.6264 24.1344 66.818 24.1627 67.404 24.0335ZM70.0445 41.1887C70.1223 40.907 72.8492 40.24 72.5903 40.579C72.5435 40.6403 71.6911 40.6319 71.4547 40.7428C71.024 40.9453 72.769 40.7036 71.8642 40.9964C71.6985 41.0498 70.034 41.2059 70.0406 41.1889C70.0419 41.1888 70.0432 41.1887 70.0445 41.1887ZM68.4496 27.9211C68.4805 27.9138 68.4986 27.847 68.4675 27.8512C67.7144 27.9563 67.6774 28.091 68.4496 27.9211ZM68.3795 21.1765C68.4452 21.1608 68.4808 21.0069 68.4189 21.0136C67.1837 21.1654 67.108 21.4773 68.3795 21.1765ZM70.9369 31.7365C71.7008 31.6643 71.8041 31.7281 70.8704 31.9562C70.9081 31.8804 70.9031 31.812 70.9369 31.7365Z" fill="#FC4C02"/>
<path d="M108.06 18.0506C107.86 18.4859 107.282 18.6739 106.756 18.7116C106.591 18.7241 106.374 18.3536 106.248 18.3475C106.003 18.3361 106.005 18.6043 105.741 18.5672C105.653 18.5533 105.282 17.988 105.199 17.9853C104.746 17.9741 104.605 18.3121 104.247 18.4226C102.481 18.966 101.026 19.8398 99.4976 20.7039C98.994 20.9892 98.0716 20.9599 97.7871 21.5403C97.7543 21.6085 98.1611 22.0372 98.1819 22.083C98.4971 22.7874 97.7923 21.8258 97.5883 21.7891C96.781 21.6456 96.2905 21.9799 96.0408 22.4809C95.9356 22.6954 96.8492 23.4599 96.2619 23.0923C96.2219 23.0677 95.866 22.5496 95.7775 22.5361C95.5775 22.5063 95.4506 22.7561 95.3382 22.7846C95.1194 22.837 95.0976 22.8631 94.9456 22.9793C94.7343 23.1339 94.2964 23.0917 94.1704 23.3796C94.1446 23.4425 94.6142 23.8871 94.6101 24.0321C94.6058 24.1771 94.3762 24.2959 94.2141 24.2335C94.0521 24.1709 93.759 23.7587 93.6738 23.6791C92.957 23.0052 93.5916 24.234 93.5839 24.2837C93.4173 25.1596 92.4735 24.94 91.9782 25.3514C91.6033 25.665 91.3619 26.1938 90.9809 26.4628C90.5255 26.7815 89.9419 26.8121 89.5647 27.2008C89.5244 27.2412 90.056 27.781 90.0078 27.8316C89.495 28.3684 88.878 28.7709 87.9876 28.845C87.8979 28.8519 87.5494 28.2805 87.4345 28.2568C86.7407 28.1233 85.3587 27.5677 86.9882 29.9632C86.6813 30.0704 86.3216 30.2162 85.741 29.9413C85.3671 29.7646 85.0396 29.0991 85.0689 29.4742C85.075 29.5581 85.5261 30.0054 85.5048 30.0944C85.4147 30.4688 85.0246 30.5242 84.9976 30.9699C84.993 31.0617 85.3665 31.4879 85.4179 31.5777C85.8298 32.3087 84.7715 31.4117 84.6671 31.3692C83.8819 31.0578 83.8376 31.4718 83.5333 31.6994C83.4624 31.752 84.0269 32.2726 83.9762 32.3443C83.7064 32.7082 83.3135 32.9476 82.7666 32.9612C82.6438 32.9628 82.2993 32.4068 82.2195 32.382C81.8727 32.2787 82.6171 33.2513 82.2995 33.1705C82.2336 33.1546 81.8983 32.7121 81.8537 32.6698C81.1552 32.0061 81.9396 33.1159 81.9356 33.1581C81.9034 33.7146 80.8162 32.7774 80.6613 33.1649C80.6437 33.2123 81.1666 33.691 81.0898 33.7913C80.5805 34.4627 79.7887 34.8659 78.8051 34.9494C78.6528 34.9631 78.3867 34.499 78.3392 34.4539C77.593 33.7528 78.3945 34.8559 78.3953 34.9216C78.3797 35.4129 77.4194 34.7255 78.2808 36.1163C76.8621 36.5574 76.3856 38.1306 74.4095 37.8782C74.3854 37.8763 73.9828 37.3395 73.9366 37.3379C73.3758 37.3126 74.1005 38.0653 74.6987 39.2234C74.8487 39.5144 73.7069 38.4623 73.6207 38.3872C73.3038 38.11 72.7237 37.2958 72.6549 37.2483C72.1073 36.8809 74.2296 39.4052 74.034 39.568C74.0244 39.5688 73.6639 39.0793 73.609 39.0463C73.4372 38.9424 73.5399 39.1703 73.3569 39.0505C72.9346 38.7721 71.874 37.5697 72.2924 38.4336C72.3472 38.5452 73.5715 39.9603 73.34 40.0367C73.2467 40.0659 72.9579 40.3458 72.794 40.3238C72.6304 40.3019 72.3062 39.7878 72.2834 39.7728C71.5429 39.3504 71.4211 39.0226 70.5532 38.2087C69.6882 37.3982 71.505 39.5345 71.6566 39.8152C71.8075 40.0953 71.2179 39.7291 71.0304 39.5874C70.8428 39.4456 70.6514 39.1069 70.5317 39.0379C69.7459 38.5899 71.3088 40.2012 71.5104 40.6118C71.9886 41.5835 70.5154 40.103 70.2095 40.0911C70.1269 40.088 70.4672 40.4213 70.4529 40.4904C70.3925 40.7596 69.8785 40.3425 70.0658 40.9592C70.0963 41.0597 70.7373 42.1517 70.0534 41.5265C69.955 41.4361 69.6655 41.0032 69.52 40.9727C69.3021 40.9266 69.0372 40.9983 69.0324 41.2269C69.029 41.3958 69.6698 41.9741 69.3941 41.8577C69.2712 41.8056 69.0413 41.3476 68.837 41.2817C68.6332 41.2155 68.4201 41.4197 68.3447 41.5043C68.2697 41.589 68.7291 42.0497 68.7499 42.0891C68.8668 42.3167 68.9001 42.6942 68.885 42.7056C68.1977 43.3751 66.8227 43.0941 66.3345 43.9653C66.2956 44.033 66.7678 44.5289 66.7664 44.5446C66.7556 44.9245 65.752 43.3982 65.2304 43.0405C66.132 44.0936 65.8927 43.9657 65.8535 44.1951C65.8353 44.3065 66.2126 44.691 66.2415 44.7383C66.6632 45.4473 65.9255 44.6909 65.771 44.5391C65.2025 43.981 65.7283 44.7609 65.3475 44.3885C64.9692 44.0191 64.574 43.3349 64.45 43.4502C64.7292 43.8631 65.6511 44.7834 65.6859 45.0271C65.8183 45.9483 64.474 45.7386 64.1065 45.9047C63.7397 46.0705 63.7012 46.2209 63.4125 46.2266C62.8908 46.2367 63.6186 46.8834 63.703 47.3846C63.7868 47.8863 62.3759 45.9817 62.0239 45.6125C61.6725 45.243 61.9754 45.6718 61.763 45.4846C61.5508 45.2973 61.405 44.9691 61.2574 44.9548C61.1098 44.9406 61.4646 45.8209 61.7745 46.255C62.4312 47.1745 63.2837 48.0048 62.8052 47.8607C62.7772 47.8518 62.4211 47.3388 62.3339 47.3291C61.6548 47.2682 61.2471 47.5661 60.6037 47.5475C60.5146 47.5442 60.1199 46.9722 60.0631 46.9643C59.4698 46.8797 60.3241 47.6883 60.9786 48.8296C59.9187 47.4666 59.1523 46.73 58.9094 46.9172C58.763 47.0293 59.2671 47.5905 59.5133 48.0762C59.5876 48.2225 59.1577 47.9062 59.3651 48.1947C60.0424 49.1381 60.9626 50.0606 60.3902 49.8633C60.3638 49.8531 59.9942 49.3358 59.9328 49.3366C59.534 49.3397 60.2767 50.2983 60.1119 50.6245C59.9828 50.8803 59.1525 50.6072 58.8456 50.7046C57.6156 49.2038 57.6807 49.7261 58.4438 50.8309C58.2594 50.9121 58.146 51.1037 57.8837 51.0803C57.7939 51.0727 57.469 50.6124 57.4241 50.5707C56.7219 49.9156 57.4852 50.9732 57.4854 51.0392C57.4512 51.7105 56.5384 51.1847 56.818 52.2039C56.8283 52.2404 57.6668 53.296 56.9513 52.6105C56.9023 52.5629 56.6223 51.9989 56.4351 52.0919C56.2477 52.1848 55.4918 51.8718 55.6711 52.5335C55.7141 52.693 56.2769 53.6472 55.6257 53.0761C55.5375 52.9983 55.3071 52.6873 55.1497 52.5383C54.6468 52.0646 55.4775 53.1454 54.6626 52.3172C53.8478 51.4891 53.1334 50.9549 53.4216 51.7523C53.4294 51.7759 54.0645 52.6518 53.9844 52.6957C53.8561 52.7651 53.5562 52.7209 53.4454 52.8214C53.3926 52.8699 53.8546 53.3579 53.8528 53.3753C53.7208 53.9713 53.0762 53.7282 52.5135 53.8561C52.4095 53.8785 52.7819 54.7566 52.1807 54.3154C51.5222 53.8329 49.5866 51.1624 49.7296 52.0611C49.7855 52.4216 52.2613 55.793 50.6262 54.337C50.4668 55.1636 49.2991 54.6914 49.2842 55.6961C49.2832 55.7409 49.9535 56.6988 49.8904 56.7304C49.7951 56.7755 49.4052 56.391 49.3261 56.4097C48.9859 56.4776 49.0668 57.0151 48.7933 57.1468C48.6903 57.1976 48.362 56.7383 48.239 56.7989C48.1165 56.8599 48.5199 57.4886 48.1525 57.3273C47.8735 57.2035 46.8034 56.1209 46.5512 56.0999C47.4976 57.2578 47.382 57.3132 47.4626 57.7585C47.4785 57.8446 47.845 58.2171 47.8696 58.2785C47.9772 58.5375 47.6442 58.253 47.7701 58.5277C47.8002 58.5938 48.1245 58.9883 48.1674 59.0646C48.5446 59.7284 47.6466 58.98 47.4906 58.8494C46.8973 58.3542 47.2686 58.9089 46.994 58.7477C46.7195 58.5864 46.6074 58.1942 46.3935 58.1353C45.9508 58.0139 45.7414 58.2936 45.5195 58.4462C45.4329 58.5096 45.9231 58.9889 45.9208 59.0102C45.86 59.2845 45.2259 58.8676 45.9953 59.9932C43.6426 57.3826 46.109 60.3409 45.4176 60.0001C45.3622 59.9721 44.2812 58.7115 44.1999 58.4626C44.1187 58.2139 44.5609 58.5218 44.4216 58.1442C44.3891 58.0554 43.5379 56.7407 43.4969 56.6523C43.1767 55.9617 44.7767 57.8582 44.8713 57.9568C45.8962 59.0177 44.9994 57.5847 44.9704 57.4585C44.8372 56.8804 45.2331 57.0062 45.1631 56.5728C45.1192 56.2917 44.0959 55.029 44.2154 54.9949C44.6122 54.8807 46.1569 56.5455 45.1812 54.802C44.9734 54.4299 43.7843 53.1081 44.8847 54.011C44.954 54.068 45.9242 54.9241 45.5005 54.2258C45.4471 54.1378 45.1173 53.7388 45.1046 53.6928C45.0263 53.3928 45.3559 53.6555 45.3399 53.4126C45.3239 53.1698 45.2684 52.8338 45.5054 52.8659C45.6477 52.8847 46.3583 53.5488 46.5447 53.7011C47.0796 54.1417 46.4793 53.1911 47.0667 53.7744C47.6573 54.3604 48.3328 55.4331 48.8403 55.7078C47.9906 54.6652 47.1263 53.5886 46.2754 52.537C46.6718 52.2714 47.309 52.3095 47.6387 51.9605C47.6787 51.9162 47.172 51.3969 47.203 51.335C47.3359 51.0764 47.844 51.3255 47.927 50.9909C47.9895 50.7297 47.6837 49.9895 47.734 49.6981C48.819 50.7981 48.7432 50.1833 49.0192 50.138C49.1154 50.1216 49.3726 50.4422 49.5044 50.5074C49.9953 50.7454 49.0476 49.764 48.9595 49.5593C48.5842 48.6846 50.5609 51.0446 50.7555 50.7855C50.7665 50.7726 49.8796 49.377 49.8363 49.2803C49.5499 48.6527 50.2225 49.7021 50.3859 49.7245C50.6842 49.7656 51.0429 49.9776 50.9217 49.4546C50.885 49.3003 50.3632 48.4049 50.9712 48.9289C51.0509 48.9974 51.3884 49.4221 51.4197 49.4374C51.9571 49.6805 50.8778 48.3616 50.625 47.8219C50.3723 47.2823 51.2978 48.0439 51.5496 48.2757C52.202 48.8746 51.716 48.6244 51.7657 48.695C52.3577 49.5346 52.3744 49.2921 52.5281 49.2776C53.6058 50.5548 53.6798 50.3637 52.6831 49.2573C52.574 49.1366 52.5965 49.3201 52.5281 49.2776C51.5713 47.9415 51.5891 47.6546 52.7314 48.6984C53.2667 49.1876 53.7255 49.8945 53.7685 49.462C53.7885 49.2663 53.0146 48.4131 52.9102 48.0926C52.6725 47.3609 53.6384 47.9554 53.7552 47.6398C53.7976 47.5252 53.3174 47.1049 53.3326 47.0098C53.3716 46.7561 53.8026 47.0131 53.7969 46.704C53.7959 46.6754 53.3435 46.1939 53.3843 46.1494C53.6853 45.8017 54.2587 45.8762 54.6313 45.5839C54.8112 45.4425 54.8953 44.9017 55.1246 44.8073C55.5196 44.6406 56.5194 45.0586 56.6419 44.6557C56.7235 44.3951 56.2651 43.9183 56.0549 43.5094C55.6466 42.7171 56.8977 43.7074 57.0862 43.865C57.0924 43.8703 57.0394 44.1155 57.3359 44.3098C57.8318 44.815 57.0864 43.8688 57.0862 43.865C57.2084 43.9665 57.6071 43.8316 57.5871 43.6847C57.576 43.6046 57.1601 43.1377 57.1618 43.1051C57.2118 42.339 57.5172 41.8812 58.1146 41.767C58.1299 41.7708 58.5637 42.3189 58.5941 42.321C59.03 42.3641 58.6385 41.5788 58.512 41.0252C58.3856 40.4717 58.6495 40.4743 59.5293 41.3038C59.5814 41.065 60.1316 41.2986 60.4588 41.4459C60.786 41.5932 59.9374 40.5298 59.931 40.5002C59.7191 39.5591 60.4088 39.9996 60.8343 39.8056C61.0381 39.7152 61.2411 39.2919 61.3258 39.0291C61.3913 38.8198 61.6796 38.9952 61.6805 38.7302C61.6808 38.6946 61.2775 38.2421 61.2681 38.2197C60.9527 37.5404 61.8249 38.7404 62.0233 38.9196C62.7444 39.5714 63.1378 39.9109 63.0366 39.4079C63.0137 39.2925 61.7823 37.5444 61.7814 37.3835C61.7828 37.1772 62.2306 37.7985 62.2197 37.5676C62.2192 37.5483 61.9173 37.1862 61.9964 37.1479C62.36 36.965 62.8683 36.9012 63.1564 36.6024C63.1969 36.5629 62.6653 36.032 62.7159 35.9656C62.9541 35.6542 63.2946 35.4091 63.8044 35.4424C63.9313 35.4523 64.2203 35.8928 64.3345 36C65.0273 36.648 64.291 35.4835 64.2965 35.4453C64.404 34.5051 65.5933 35.1275 65.7541 34.2313C65.7613 34.1806 65.0532 32.8652 65.953 33.752C66.0131 33.8108 66.9303 34.7208 66.4585 33.9705C66.429 33.9236 65.946 33.464 66.0967 33.4271C66.2472 33.3902 66.1393 32.9062 66.7502 33.345C66.9428 33.4831 67.8698 34.381 67.359 33.477C67.3227 33.4144 66.0675 31.4532 67.1595 32.6199C67.3391 32.8121 68.4001 34.1248 68.0163 33.3196C67.9414 33.1639 67.6439 32.9213 67.5783 32.6707C67.4765 32.285 67.9347 32.493 67.6144 31.7825C67.5573 31.6571 66.9458 30.6765 67.5933 31.2695C67.6947 31.3624 68.0253 31.8201 68.1151 31.8277C68.5442 31.8659 68.5521 31.3707 69.0405 31.4733C69.2127 31.5087 69.7489 32.2473 69.9929 32.3624C70.237 32.4774 70.565 32.5111 70.393 32.1134C70.2208 31.7156 69.1955 30.6794 69.2607 30.475C69.5442 29.587 70.6852 29.7498 71.3682 29.3478C71.4696 29.2882 71.0648 28.9488 71.1905 28.8323C71.6524 28.4011 72.1824 27.3324 73.3071 27.8356C74.208 28.2385 74.2106 29.1089 74.6981 29.1731C74.932 29.2026 73.9929 27.7894 73.9892 27.7235C73.9398 27.0645 74.6201 27.4726 74.7388 27.0772C74.7632 26.9954 74.2742 26.5119 74.2998 26.4481C74.3832 26.2255 74.7446 26.3232 74.8609 26.1548C74.9121 26.0781 74.5671 25.6854 74.6554 25.6648C74.863 25.6108 75.1354 25.6708 75.5933 25.9279C75.635 25.9513 75.9588 26.5268 76.0851 26.4539C76.2885 26.3345 76.8189 26.5232 76.7081 25.9679C76.6739 25.8015 75.9164 24.8784 76.573 25.4058C76.7103 25.5158 77.5875 26.651 76.9526 25.5686C76.8474 25.3885 76.0418 23.8867 76.8539 24.6132C77.0677 24.8043 77.8997 25.6391 77.8561 25.436C77.8473 25.4051 77.3991 24.9434 77.4204 24.8447C77.5025 24.5055 77.7718 24.3721 77.8651 24.0347C77.8893 23.9436 77.3789 23.5042 77.4283 23.3847C77.5637 23.0556 77.9736 22.9365 78.3426 22.9014C78.4794 22.8895 78.769 23.3634 78.8134 23.4043C79.5349 24.0707 78.7593 23.0076 78.7445 22.9206C78.6634 22.3928 79.2167 22.7363 79.3071 22.45C79.3331 22.3723 78.8965 21.9205 78.8716 21.8687C78.6351 21.3564 79.2684 22.2921 79.4174 22.3299C79.8372 22.4387 80.0241 22.2193 80.1717 21.9938C80.2253 21.9102 79.6812 21.4176 79.7347 21.3491C80.0424 20.933 80.4894 20.6543 81.1223 20.6512C81.2423 20.6517 81.5534 21.12 81.6495 21.2063C82.3204 21.8113 81.6946 20.7474 81.6552 20.6293C81.4746 20.091 81.8502 20.4223 81.93 20.2368C82.3139 19.3242 83.3576 18.8878 84.1249 18.5171C85.1227 18.0316 86.1069 17.9093 86.8125 17.1481C86.8578 17.1003 86.3335 16.5684 86.3664 16.5198C86.8135 15.9184 87.5511 15.6868 87.9767 15.0571C88.0125 15.0064 87.4972 14.5172 87.5395 14.4177C87.6231 14.2096 87.84 14.0803 88.1369 14.1273C88.2809 14.1492 88.5655 14.6989 88.7026 14.7114C89.0226 14.7416 89.2428 14.625 89.3512 14.389C89.3964 14.2874 88.8215 13.8265 88.916 13.7378C89.5501 13.1219 90.1386 12.4753 91.4198 12.6292C91.5077 12.6399 92.482 13.7366 92.4032 13.4372C92.1518 13.1171 91.8468 12.7483 91.5734 12.4101C92.4137 11.4132 93.7164 10.9973 94.7586 10.2393C94.8024 10.2073 94.2358 9.66772 94.3182 9.60255C94.7942 9.2247 95.1125 8.68318 96.0833 8.88316C96.1789 8.90216 97.0241 9.97638 97.0328 9.7013C97.0335 9.65181 97.1287 9.33704 96.9945 9.06317C96.9734 9.02254 96.529 8.56231 96.5852 8.49184C96.919 8.09092 97.426 7.8614 98.0687 7.83638C98.1732 7.83328 98.5377 8.4132 98.6158 8.41554C99.1672 8.42815 99.1886 7.74103 99.8887 7.96302C100.359 8.1135 101.03 9.08206 101.875 9.88332C101.994 9.99633 102.138 9.9111 102.572 10.4244C103.665 11.7147 104.782 13.1938 105.954 14.5632C106.207 14.8582 106.111 14.3949 106.607 15.2019C106.64 15.2561 106.714 15.5984 106.886 15.8691C107.005 16.0563 107.479 16.5522 107.615 16.8052C107.75 17.058 107.338 16.6551 107.477 16.9696C107.618 17.2872 108.145 17.8613 108.06 18.0506ZM61.9253 42.1009C62.4543 42.5114 60.9483 40.6519 61.1901 41.1946C61.2036 41.223 61.899 42.081 61.9253 42.1009ZM48.4555 53.7034C49.2753 54.3953 48.3891 53.1146 47.7659 52.5721C47.1433 52.0303 48.2068 53.4939 48.4555 53.7034ZM47.4097 55.5651C48.1123 56.0641 45.9803 53.4244 46.2314 54.1065C46.2453 54.1453 47.3688 55.5362 47.4097 55.5651ZM101.577 10.5557C101.599 10.5789 101.71 10.5272 101.692 10.5011C101.257 9.87466 101.035 9.97847 101.577 10.5557ZM46.4191 57.4698C46.7652 57.7793 46.5837 57.2422 46.1533 56.8573C45.8071 56.5478 45.9885 57.0849 46.4191 57.4698ZM69.4615 39.1941C69.486 39.2201 69.5721 39.1907 69.4425 39.0363C69.025 38.5393 69.0501 38.756 69.4615 39.1941ZM43.8531 59.6374C44.3171 59.4202 46.3329 61.3907 45.7148 61.4906C45.6029 61.5088 45.3087 60.6669 45.0518 60.5513C44.583 60.3412 45.5862 61.795 44.8067 61.2156C44.6644 61.1093 43.8226 59.645 43.8513 59.6339C43.8519 59.6351 43.8525 59.6362 43.8531 59.6374ZM63.8195 44.264C63.8419 44.2866 63.9519 44.2347 63.9342 44.2087C63.5 43.5821 63.278 43.6863 63.8195 44.264ZM74.2365 37.1728C74.2844 37.2206 74.5356 37.0952 74.5029 37.0416C73.8225 35.9926 73.3123 36.2434 74.2365 37.1728ZM58.809 50.6676C59.1961 51.339 59.1347 51.5063 58.4449 50.8313C58.5759 50.7893 58.6799 50.7131 58.809 50.6676Z" fill="#FC4C02"/>
</svg>
