<svg width="141" height="247" viewBox="0 0 141 247" fill="none" xmlns="http://www.w3.org/2000/svg">
<path d="M79.6666 43.5678C75.5054 42.2463 70.1206 40 66.1358 38.178C64.8777 37.6046 65.6797 37.4526 64.825 37.0414C63.1969 36.2538 61.4204 35.8074 59.8165 34.9923C59.281 34.7185 60.2146 34.3528 59.647 34.0798C56.4351 32.5502 53.3453 31.5619 50.0575 30.1565C35.2506 23.7797 20.7939 18.031 5.61922 11.2345C5.71085 11.2738 5.86789 11.346 6.19063 11.4271C6.40857 11.4277 7.49054 11.9441 9.38559 10.9299C10.4515 10.3304 11.1792 9.14719 11.3752 8.36198C11.5364 7.78266 11.5424 7.40364 11.5381 7.10305C11.5054 6.47529 11.4493 6.41625 11.4203 6.27647C11.3518 6.04963 11.3539 6.0987 11.3695 6.13518C11.3916 6.19306 11.4216 6.26388 11.4721 6.37078C11.6627 6.77601 11.9853 7.35623 12.2918 7.88538C15.0932 12.6032 18.7021 18.911 22.1522 23.8409C22.5618 24.4216 22.8303 23.7476 22.9441 23.8353C24.7066 25.2157 23.3299 25.2707 23.9294 26.517C26.0636 30.9521 28.7386 35.6206 31.1927 39.8578C31.4946 40.3787 31.7906 40.8917 32.0813 41.3968C33.2147 43.3884 33.218 40.8101 33.6702 43.1719C33.7014 43.3347 32.8832 43.0943 33.1014 43.6845C33.6016 45.0199 34.8356 47.3967 35.2342 48.4133C36.0026 50.3687 36.1447 50.6852 36.9154 52.5023C37.9607 54.9913 38.8754 58.0621 40.079 60.6567C40.3377 61.2098 40.6293 60.2201 41.096 61.0814C41.5618 61.9423 42.4779 64.3442 42.6639 65.1953C42.8512 66.0518 42.2454 65.9034 42.1965 66.0889C41.7686 67.6247 44.1592 69.8356 44.3385 70.1648C47.5579 76.289 49.3512 81.9245 52.4271 87.5749C52.5893 87.8719 52.7549 88.1702 52.9236 88.47C55.1978 92.5131 57.8392 96.5927 60.0963 100.312C62.9894 105.077 65.2976 109.23 68.4441 113.624C68.7782 114.09 69.0087 113.106 69.4202 113.676C72.8435 118.397 76.3745 123.168 79.8509 127.563C79.9628 127.695 80.0713 127.83 80.1786 127.972C80.2902 128.123 80.3734 128.233 80.5508 128.513C80.6294 128.64 80.709 128.779 80.7894 128.939C80.869 129.105 80.9466 129.244 81.0813 129.66C81.1952 130.037 81.3064 130.538 81.252 131.209C81.2338 132.039 80.5921 133.375 79.7537 133.949C78.4078 134.9 77.4948 134.728 77.2372 134.759C76.8671 134.755 76.5027 134.697 76.3428 134.664C75.9487 134.586 75.6132 134.483 75.3693 134.4C74.3378 134.039 73.5924 133.663 72.8365 133.278C72.1236 132.905 73.3261 132.716 72.6491 132.312C68.4648 129.823 62.9059 125.083 59.0305 126.099C56.3716 124.367 53.1781 122.18 51.167 120.028C50.2067 119.001 50.9849 118.989 50.6614 118.624C50.5488 118.494 50.2975 118.32 49.7824 118.047C49.346 117.814 49.4886 118.699 48.8644 118.314C46.2319 116.695 43.558 114.62 40.8181 113.231C40.2572 112.948 40.0931 113.517 39.89 113.507C38.214 113.404 36.8554 110.945 36.4491 110.581C33.3461 107.803 30.5917 106.538 27.2668 104.638C26.4872 104.194 27.0361 105.376 26.2763 104.975C22.3612 102.895 18.3145 100.673 14.5842 98.1691C13.7622 97.6099 14.873 97.4995 14.5011 97.2054C13.1367 96.132 12.2083 96.473 11.0041 95.8789C10.7638 95.7631 10.5462 95.6332 10.3908 95.4933C10.1885 95.3249 10.566 94.8978 10.5503 94.8207C10.4971 94.5207 10.3528 94.3878 10.5019 94.4155C10.545 94.4211 10.6132 94.4343 10.7148 94.4423C10.8728 94.4497 11.134 94.4363 11.4424 94.3117C12.1096 94.0721 12.5571 93.3147 12.6417 92.9834C12.7027 92.7889 12.7258 92.7231 12.757 92.6594C12.7863 92.5972 12.8135 92.5529 12.8414 92.5202C12.8969 92.4548 12.9568 92.4365 13.0155 92.4297C13.1315 92.4139 13.2317 92.4301 13.2504 92.4596C14.7547 94.7922 15.3 97.9272 17.517 100.781C17.7879 101.121 17.7954 99.9155 18.5254 100.899C23.4774 107.525 28.7096 114.678 33.1536 121.706C33.8549 122.812 32.8788 122.37 32.8751 122.475C32.8373 124.145 34.4353 124.034 34.7278 124.352C36.8166 126.665 37.6811 129.571 39.8606 130.827C40.0291 130.92 40.2068 131.003 40.395 131.074C47.5334 143.019 56.4899 153.716 63.6475 165.671C63.7403 165.823 63.0145 165.973 63.2017 166.273C65.4534 169.883 65.7962 168.605 68.5056 170.064C69.1857 170.43 69.2678 173.07 69.2945 173.29C69.3861 174.092 68.1573 174.128 68.2346 174.361C68.903 176.271 71.328 174.016 72.9066 176.062C72.9517 176.13 72.2634 176.231 72.3483 176.44C72.6112 177.091 73.2105 177.472 73.4498 178.122C73.5434 178.379 73.5932 178.634 73.6225 178.885C73.7736 180.11 73.4258 181.235 75.2033 182.306C75.4761 182.469 76.7029 180.977 78.0291 182.904C78.5653 183.674 81.0088 186.977 81.5788 188.002C82.1458 189.011 81.1966 188.715 81.2231 188.797C82.3578 191.791 81.4069 191.018 81.3178 192.958C81.2266 194.897 83.2929 192.955 83.9081 193.3C84.5256 193.647 85.2465 195.894 85.3657 196.489C85.4844 197.08 84.7804 196.714 84.9467 197.198C86.0398 200.386 86.9018 197.633 87.8684 198.295C90.15 199.865 89.4707 202.673 90.5286 204.754C90.8151 205.319 90.9458 204.632 91.2793 205.085C92.5984 206.896 92.7371 208.369 94.5491 210.242C94.8425 210.543 96.9672 211.675 96.8451 213.29C96.8252 213.519 96.1099 213.32 96.486 214.197C97.0491 215.51 98.216 217.776 99.1158 219.02C99.7785 219.935 99.8908 218.394 100.353 219.756C100.559 220.366 99.5507 219.589 99.9727 220.712C100.387 221.817 101.863 224.438 102.427 225.432C102.99 226.42 103.258 225.562 103.341 225.622C103.827 225.988 105.152 227.76 105.245 227.932C106.622 230.404 107.885 232.887 109.108 235.308C109.447 235.984 109.837 236.66 110.254 237.31C110.463 237.635 110.679 237.953 110.898 238.252C111.007 238.401 111.116 238.545 111.217 238.669C111.265 238.729 111.316 238.788 111.345 238.821C111.357 238.837 111.369 238.849 111.349 238.836C111.338 238.83 111.318 238.815 111.266 238.783C111.185 238.753 111.185 238.67 110.654 238.579C110.846 238.616 110.955 238.612 110.97 238.621C110.985 238.623 110.871 238.712 110.873 238.75C110.89 238.834 111.041 238.386 111.019 237.914C111.003 236.917 110.731 235.742 110.412 234.616C109.753 232.336 108.82 230.027 107.781 227.758C107.471 227.083 107.03 227.802 106.976 227.701C105.736 225.472 108.182 226.617 108.054 224.74C106.877 225.515 106.699 224.447 105.864 222.851C105.459 222.078 105.147 222.722 105.066 222.67C103.817 221.798 104.446 220.559 104.558 220.265C104.966 219.174 103.751 218.666 104.027 217.927C104.302 217.194 105.515 218.143 104.873 216.547C104.235 216.276 103.497 217.949 102.821 216.797C101.178 213.976 99.6116 209.073 99.1001 204.663C98.8602 202.475 98.4877 200.504 98.1385 199.182C97.1155 195.445 96.5287 194.304 95.8879 192.105C94.6699 188.134 94.3279 189.908 92.9526 187.68C91.5659 185.436 94.2363 185.719 94.5678 185.183C94.9025 184.653 94.2677 184.478 94.3588 183.952C94.451 183.428 95.134 184.209 94.8392 183.183C94.5381 182.163 92.6721 179.774 92.0498 179.586C90.723 179.2 90.0301 180.869 89.4973 177.985C89.4699 177.823 90.1926 178.122 90.099 177.556C90.0968 177.543 90.0942 177.529 90.0911 177.515C89.0731 172.673 87.1887 167.836 86.7209 162.764C86.6828 162.064 87.4524 162.584 87.4447 162.193C87.4551 159.968 87.545 159.619 87.3172 158.956C87.1879 158.421 86.778 157.924 87.0885 156.601C88.1375 158.206 89.5266 157.374 91.8438 156.567C93.3416 156.217 93.0219 155.568 94.2665 155.065C94.6744 154.913 95.9029 155.672 96.2 155.402C97.2712 154.539 96.4531 152.756 99.6008 154.543C99.7316 154.626 99.0347 155.015 99.5017 155.26C102.364 156.886 103.281 156.073 106.354 157.846C108.75 159.253 112.188 162.668 114.583 164.508C113.404 166.054 116.032 167.356 117.728 166.868C119.192 167.905 120.839 168.866 122.289 169.799C122.409 169.877 122.528 169.954 122.646 170.031C123.171 170.369 122.557 170.686 122.599 170.776C123.302 172.19 124.635 171.319 125.02 171.42C128.614 172.474 131.616 173.439 135.205 175.24C135.349 175.316 135.472 175.366 135.562 175.387C135.665 175.419 135.757 175.409 135.663 175.361C135.597 175.343 135.518 175.301 135.26 175.358C135.015 175.41 134.742 175.619 134.63 175.774C134.391 176.131 134.441 176.115 134.383 176.08C134.366 176.058 134.022 176.045 133.792 175.96C133.56 175.879 133.448 175.711 133.783 175.079C133.821 174.978 134.791 176.125 134.298 174.265C133.768 172.399 132.867 168.512 131.12 166.143C130.699 165.567 128.979 164.413 129.178 162.767C129.206 162.547 129.644 162.578 129.728 162.241C129.994 161.158 128.553 161.273 129.191 159.855C129.835 158.438 129.749 156.145 127.95 153.782C127.894 153.7 126.638 153.47 126.334 152.59C126.121 151.971 125.905 151.192 125.73 150.426C125.514 149.48 125.258 148.511 124.972 147.72C124.725 147.04 124.25 147.703 124.196 147.589C122.168 143.163 121.283 139.767 119.364 134.867C119.012 133.97 117.032 131.831 116.92 129.834C116.801 127.644 120.649 128.199 118.034 124.257C116.999 122.682 112.177 122.107 112.922 118.118C112.782 117.834 112.648 117.55 112.519 117.268C109.953 111.585 109.81 105.565 107.371 99.6532C107.256 99.3713 105.875 98.7952 105.685 98.1316C105.404 97.1418 105.741 96.4337 105.532 95.7193C105.179 94.5034 104.702 93.3741 104.163 92.2971C103.377 90.7322 102.442 89.2868 101.603 87.7238C101.06 86.7283 101.748 86.7876 101.08 85.599C100.408 84.4133 99.3016 84.0296 98.6405 82.2757C98.143 80.9485 98.6989 78.9706 97.9078 77.3152C96.5942 78.0269 95.9559 76.9352 94.4995 75.1768C94.2192 74.8375 93.9955 75.4987 93.8393 75.3508C93.1917 74.7504 93.1954 73.8626 92.5627 73.297C92.4094 73.1583 91.954 73.3895 91.803 73.2883C90.4884 72.4306 90.5363 69.8776 90.5699 69.4532C90.6534 67.8065 89.7838 67.4426 89.6446 66.2821C89.5205 65.1326 90.4658 66.5482 90.1738 65.277C90.0531 64.7374 89.9131 64.1751 89.7647 63.596L89.77 63.6125C89.2525 61.3213 88.4622 58.8176 87.8791 56.7261C87.5842 55.6791 87.1343 56.5805 87.0769 56.4352C86.2864 54.3132 86.374 51.9225 84.7343 51.0794C87.7065 48.6402 84.0429 49.8551 83.882 46.5572C83.8704 46.2954 85.3904 45.5545 85.8789 46.4313C86.3669 47.307 86.2509 48.8687 86.9743 50.0689C87.1456 50.3591 89.1305 51.6979 89.2894 51.9134C90.5221 53.5849 88.2144 54.5292 88.1116 54.6685C87.0152 56.195 89.2529 57.8943 89.5279 58.4175C90.3871 60.0699 90.8126 61.6529 91.3181 63.1446L91.2982 63.0821C91.5473 63.7472 91.8286 64.3865 92.1911 64.9874C92.9377 66.2168 94.492 65.7014 94.8774 66.7049C96.2087 70.0111 94.8818 72.282 98.3434 74.3748C99.0928 74.8203 100.22 73.2604 100.423 76.3115C100.432 76.5004 100.408 78.9132 101.727 79.5088C101.893 79.5829 102.33 79.306 102.472 79.4525C103.41 80.4369 103.531 81.4158 104.468 82.583C105.403 83.7485 106.592 85.1817 107.283 86.8502C107.707 87.8564 107.463 89.562 107.461 90.135C107.461 90.3768 107.495 90.6032 107.552 90.8183C107.871 92.042 108.974 92.9525 108.571 93.9076C108.084 95.0138 106.35 93.8483 106.575 96.1412C107.876 95.7915 109.248 95.5415 110.577 95.2544C112.144 100.206 112.719 105.028 114.023 109.533C114.186 110.09 114.725 109.328 114.917 109.914C115.589 111.95 115.828 113.834 116.546 115.715C116.704 116.126 116.886 116.552 117.092 116.971C118.022 118.869 119.64 120.712 120.72 122.682C119.859 124.555 121.717 127.407 122.611 129.704C122.924 130.509 122.526 130.627 122.658 131.242C123.167 133.561 123.955 132.009 124.413 132.501C126.376 134.632 123.672 136.102 125.038 139.049C125.109 139.199 127.451 140.513 127.659 140.755C128.993 142.244 127.252 141.261 127.582 142.393C128.178 144.487 128.352 145.997 129.616 148.336C129.721 148.534 129.919 148.793 130.138 149.101C130.624 149.669 131.304 150.512 131.105 151.58C131.068 151.775 130.528 151.88 130.547 152.018C130.972 154.556 132.61 153.997 133.702 155.1C134.805 156.212 134.667 158.791 134.553 159.364C134.257 160.851 133.824 158.652 133.72 158.628C132.466 158.329 133.311 159.799 133.765 161.019C132.318 161.876 133.156 163.495 134.242 162.283C134.36 162.148 133.803 161.289 133.765 161.019C135.726 161.387 136.747 163.128 136.252 165.802C136.015 167.061 134.865 166.466 136.393 169.29C137.08 170.602 137.933 169.634 138.709 170.767C139.286 171.651 139.721 172.65 140.029 174.113C140.062 174.28 140.104 174.511 140.135 174.734C140.167 174.971 140.187 175.154 140.208 175.496C140.216 175.653 140.22 175.816 140.217 175.99C140.213 176.163 140.207 176.346 140.176 176.63C140.086 177.17 140.084 177.764 139.339 178.934C138.771 180.026 136.59 181.017 135.727 180.892C135.235 180.902 134.822 180.837 134.473 180.751C134.156 180.67 133.988 180.605 133.781 180.522C132.926 180.153 132.693 179.936 132.263 179.631C131.825 179.19 131.01 178.723 130.135 178.467C129.215 178.201 129.884 179.109 129.244 178.951C127.516 178.537 125.919 177.584 123.82 177.058C123.627 177.009 123.851 177.8 123.207 177.564C121.807 177.05 120.439 176.423 119.125 175.671C116.064 173.899 113.555 171.905 110.689 169.877C108.744 168.497 105.186 166.365 103.329 165.034C100.184 162.7 96.3144 159.465 94.1321 159.539C93.4734 159.545 93.3456 159.794 93.2739 160.036C93.2145 160.284 93.2191 160.565 93.2073 160.799C93.2111 161.265 93.2622 161.008 92.7731 161.026C92.3233 161.019 91.609 161.288 91.433 161.357C91.4233 161.317 91.9336 160.345 91.3158 160.618C90.5176 160.525 91.4302 161.358 91.433 161.357C91.4263 161.36 91.4186 161.364 91.4099 161.37C91.4602 161.227 91.5623 160.872 91.535 160.797C91.5173 160.707 91.4575 160.881 91.456 161.186C91.4415 161.804 91.6327 162.796 91.7598 163.089C91.9051 163.435 92.4712 163.097 92.5359 163.276C93.8569 166.871 95.5734 171.035 96.8468 175.369C97.095 176.212 97.3501 177.065 97.6088 177.931C97.6278 178.02 96.924 178.129 96.9775 178.338C97.723 181.271 99.279 182.784 100.721 184.993C102.171 187.204 102.811 189.271 102.25 191.193C103.119 193.043 103.58 196.056 103.739 197.81C103.901 199.555 105.261 199.463 105.33 199.608C105.922 200.93 106.295 202.157 106.535 203.344C106.982 205.397 107.133 207.486 108.041 210.396C108.638 212.358 110.361 216.193 111.401 218.291C112.219 219.95 112.36 221.1 113.22 222.619C113.335 222.823 113.803 222.372 113.852 222.428C115.274 223.944 113.545 223.653 113.456 224.124C113.132 225.854 113.005 226.845 114.36 229.065C114.675 229.586 117.283 230.455 117.788 231.603C118.423 233.087 117.512 232.648 118.154 234.365C118.2 234.52 118.671 234.333 118.894 235.605C119.027 236.855 119.432 238 118.704 240.929C118.359 242.328 116.925 244.799 114.642 245.868C113.56 246.404 112.634 246.601 111.752 246.69C111.022 246.757 110.361 246.728 109.757 246.654C107.502 246.268 107.386 245.86 106.948 245.665C106.64 245.47 106.447 245.319 106.314 245.214C106.03 244.985 105.894 244.853 105.768 244.733C105.524 244.497 105.373 244.33 105.24 244.181C104.973 243.879 104.781 243.639 104.596 243.401C104.23 242.929 103.922 242.496 103.621 242.053C103.025 241.172 102.478 240.285 101.945 239.303C101.483 238.439 101.013 237.577 100.534 236.727C100.254 236.227 99.953 237.233 99.5362 236.513C97.5748 233.118 95.5731 229.37 94.062 225.936C93.6882 225.082 94.4283 225.336 94.466 225.084C94.6921 223.555 92.6419 222.701 92.4784 222.466C88.5337 216.84 86.9459 211.728 82.7298 206.171C82.4981 205.865 79.7079 204.231 80.0445 202.461C80.0628 202.336 80.4399 200.569 79.0713 200.104C78.9876 200.078 78.8779 201.103 78.1634 199.915C77.4458 198.724 75.818 197.121 75.3234 195.147C75.163 194.518 75.3894 192.606 73.4967 191.726C73.3715 191.669 69.8701 190.781 70.5629 189.043C70.6793 188.762 72.1306 187.874 70.1477 186.673C69.7654 186.445 69.9159 187.269 69.0735 186.543C68.3272 185.901 67.6993 184.98 66.9296 184.074C66.3472 183.387 65.7024 182.72 64.9013 182.206C64.5722 181.997 62.7106 181.459 62.6381 179.935C62.6268 179.697 63.3005 179.65 62.9483 179.087C61.2759 176.409 58.9827 174.017 57.3731 171.232C56.8041 170.249 57.8771 170.16 57.3653 169.073C56.8544 167.987 55.6196 165.943 54.5533 165.206C53.4824 164.463 53.1202 166.411 51.9256 164.995C46.7315 158.829 42.7356 151.852 38.2533 145.14C37.5874 144.14 37.7205 145.252 36.7148 143.802C35.2693 141.714 33.3785 139.058 31.512 136.232C28.8778 132.284 25.63 127.785 24.1947 124.691C22.2596 120.59 26.1324 124.69 24.3979 121.744C23.5554 120.32 21.1402 119.902 20.8588 119.613C18.1069 116.82 17.0843 114.2 14.8077 111.49C14.3383 110.931 14.209 111.911 13.8165 111.431C12.4568 109.777 11.4009 107.799 10.1571 106.132C9.60387 105.393 9.26231 105.816 8.80835 105.092C7.6992 103.327 6.84833 101.687 6.11219 99.5194C6.04733 99.323 7.3098 100.171 6.46309 98.7002C6.21828 98.2656 5.91118 97.6697 5.64827 97.0751C5.34605 96.3467 5.0424 95.8297 4.68016 94.1817C4.58761 93.6293 4.47883 93.1399 4.57952 92.0203C4.60725 90.7055 5.86461 87.9606 8.15924 87.0543C9.1903 86.588 10.2328 86.509 10.7929 86.5242C11.2482 86.5336 11.6295 86.5864 11.9622 86.6516C12.6135 86.7791 13.1608 86.9906 13.3841 87.0821C14.6237 87.612 15.1152 87.9559 15.8469 88.3796C16.2927 88.6314 16.7942 88.8679 17.3203 89.057C18.043 89.3117 18.6525 88.2928 19.6849 89.8311C19.912 90.156 18.7963 91.1798 21.1346 91.0651C21.5167 91.0459 25.2838 91.2071 26.2395 92.958C26.4898 93.4186 26.9164 94.9909 27.8696 95.3067C28 95.3451 27.8445 94.5264 28.5847 94.8639C31.2109 96.0767 33.8204 97.6261 36.4997 98.9624C37.2167 99.3193 36.523 98.1421 37.5861 98.6967C40.5027 100.215 43.928 102.524 46.5281 104.468C47.4826 105.183 46.4925 105.194 46.5329 105.292C47.1601 106.864 48.5675 106.228 48.9968 106.423C51.6483 107.654 53.0993 109.425 55.3467 110.86C55.9675 111.26 55.9156 110.446 56.0672 110.488C56.2704 110.549 56.4203 110.606 56.5288 110.661C57.1418 110.942 56.117 111.266 56.6435 111.78C58.3526 113.44 60.7129 114.917 62.8929 116.171C63.6941 116.63 63.1925 115.468 63.9067 115.885C68.1267 118.315 72.6669 120.97 76.4984 123.204C77.2007 123.609 76.5086 123.908 76.6085 124.093C76.9559 124.74 77.6445 124.936 78.0593 124.856C78.2494 124.815 78.3793 124.685 78.0419 124.506C77.8714 124.421 77.4538 124.298 76.7554 124.31C76.2585 124.33 75.5916 124.427 74.8406 124.72C74.4673 124.866 74.0787 125.06 73.7082 125.298C73.2347 125.602 72.7532 126.012 72.3705 126.442C70.8258 128.052 70.5627 130.593 70.6582 131.293C70.7154 132.306 70.9341 132.935 71.0994 133.378C71.3312 133.979 71.4785 134.218 71.5865 134.416C71.759 134.724 71.7686 134.755 71.7671 134.785C70.6671 133.759 70.3521 132.914 69.3241 131.782C63.0081 124.818 56.8567 115.315 52.4433 107.872C49.3235 102.633 46.8351 97.9312 44.3836 93.1986C42.2682 89.1116 40.2913 85.0004 38.1718 80.5198C37.8795 79.8987 37.4896 80.8372 37.2293 80.305C33.8953 73.4107 31.4782 66.3637 28.4985 59.7021C28.2543 59.1546 27.9327 60.2208 27.5193 59.3543C26.6677 57.5804 25.7405 55.3085 25.1518 53.449C24.8631 52.5423 25.9363 53.4517 25.6322 52.5418C24.9228 50.4225 23.9469 48.2663 22.8149 46.3338C22.3314 45.5151 22.3545 47.1142 21.777 46.032C21.6264 45.7529 21.4747 45.475 21.3218 45.1983C17.3322 37.99 12.8036 31.0595 8.78049 23.3348C8.48983 22.7779 9.42241 21.53 8.45052 20.5704C8.05622 20.7118 7.66008 20.9804 7.27345 21.1841C6.07122 19.4333 4.90024 17.7047 3.69478 15.8294C3.10617 14.9095 2.5035 13.9538 1.8732 12.8507C1.55748 12.2881 1.22816 11.7139 0.817878 10.7888C0.610116 10.1301 0.289286 10.1363 0.00803342 7.55167C-0.00989736 7.14418 -0.00399328 6.65893 0.0877854 6.06293C0.110978 5.91406 0.139905 5.75842 0.176164 5.59605C0.216493 5.42164 0.241124 5.30956 0.333269 5.00927C0.496831 4.48666 0.745276 3.90457 1.11578 3.31907C1.82036 2.14316 3.20411 1.01717 4.37639 0.560315C5.37891 0.140451 6.29401 0.0176367 7.01276 0.00189858C7.71525 -0.0161246 8.36632 0.0897419 8.67797 0.156334C8.96324 0.215671 9.20838 0.282875 9.42665 0.351182C9.86223 0.488525 10.1941 0.629039 10.482 0.762713C17.9456 4.10077 26.3064 7.63856 34.4546 10.8997C34.9574 11.0998 34.367 10.0348 35.346 10.42C41.1192 12.6887 46.7305 14.6217 52.3905 17.6103C52.9679 17.9116 52.1538 19.0639 53.9482 19.5268C54.2633 19.6069 56.9489 20.4338 57.7108 20.4054C57.8181 20.3982 57.5699 19.6218 58.4143 19.9224C63.3204 21.6808 68.3767 23.7412 73.128 25.9363C73.8825 26.2872 72.8164 26.6134 73.3526 26.8691C77.2278 28.7047 81.699 29.8187 85.3019 31.8125C87.7184 33.1511 86.3446 33.894 87.2971 35.4791C87.4292 35.7019 89.005 36.3123 88.8566 36.9742C88.4819 38.6384 87.068 40.0897 86.7598 41.8973C86.6887 42.285 88.9842 42.6873 87.3856 43.0968C87.2731 43.1223 85.6157 42.8416 85.1293 43.0008C84.7896 43.1098 85.0266 43.9266 84.392 43.9921C83.7582 44.0577 83.3697 43.3026 82.3778 43.288C81.3803 43.2755 81.4841 44.1439 79.6666 43.5678ZM104.012 205.449C103.707 206.977 106.073 206.56 105.169 205.273C105.123 205.213 104.027 205.373 104.012 205.449ZM111.007 105.354C110.463 107.511 112.3 108.397 112.748 106.875C113.198 105.355 111.171 104.697 111.007 105.354ZM103.113 86.137C103.537 88.5599 106.7 87.276 104.839 85.3754C104.731 85.2653 103.086 85.9942 103.113 86.137ZM80.9149 33.4629C80.9218 33.4994 82.0352 33.9461 82.0743 33.927C82.9377 33.4371 80.7104 32.5441 80.9149 33.4629ZM92.3739 69.1917C92.2525 70.0322 93.6456 71.6133 93.7604 70.5734C93.8498 69.7496 92.5223 68.1642 92.3739 69.1917ZM89.5705 205.425C89.5889 205.387 89.155 204.631 88.9929 204.753C88.4755 205.149 89.2687 206.075 89.5705 205.425ZM82.2372 36.6599C83.7131 41.5319 81.8944 45.2478 80.5655 39.9549C80.3166 38.9926 82.0685 41.7168 81.9247 40.4377C81.6555 38.0871 79.4954 37.1816 79.6421 34.6368C79.6703 34.1751 82.1599 36.3797 82.2437 36.6672C82.2416 36.6648 82.2394 36.6623 82.2372 36.6599ZM101.414 206.935C101.389 206.979 101.665 208.135 101.708 208.159C102.605 208.571 102.05 206.262 101.414 206.935ZM61.1977 163.496C61.2124 163.405 59.5986 161.134 59.4951 161.098C57.6293 160.673 60.8914 165.269 61.1977 163.496ZM114.592 164.577C116.094 164.704 117.408 165.502 117.724 166.864C116.692 166.115 115.624 165.364 114.592 164.577Z" fill="#FC4C02"/>
</svg>
