<svg width="157" height="199" viewBox="0 0 157 199" fill="none" xmlns="http://www.w3.org/2000/svg">
<path d="M99.683 49.5532C103.872 49.5029 109.003 49.2566 112.504 48.4131C113.604 48.1528 113.2 48.7349 113.97 48.547C115.425 48.1699 116.571 47.4056 117.872 46.8096C117.929 46.7813 117.985 46.7537 118.041 46.7269C118.608 46.46 118.305 47.4324 118.877 47.147C120.535 46.3311 121.156 45.7832 121.45 45.3273C121.92 44.6024 122.245 43.7604 122.482 42.7381C122.895 41.007 122.732 38.7433 122.085 36.8749C121.834 33.9266 113.883 31.9852 106.902 32.4215C99.6866 32.6702 92.1836 34.0109 84.6998 35.7355C84.3953 35.8063 84.0886 35.877 83.7802 35.9477C78.6521 37.0215 72.6566 39.7292 69.6254 43.8649C69.2588 44.3617 69.9522 44.4468 69.9168 44.5669C69.802 44.9708 69.7012 45.226 69.5925 45.3905C69.3599 45.79 68.7719 45.2801 68.3413 45.849C66.4399 48.3726 66.7684 53.5958 68.026 57.9348C68.1539 58.3583 68.3514 58.6909 68.6395 59.0145C69.5424 59.8638 69.4421 58.1319 69.9587 59.4438C70.015 59.5407 69.3365 59.8177 69.6296 60.1163C70.2846 60.842 72.4617 61.6141 73.4319 61.9099C75.2324 62.5036 75.6056 62.5571 77.4727 62.8632C80.0602 63.2676 83.289 63.7641 86.2406 63.6378C86.8754 63.6086 86.0374 62.9648 87.0502 62.8569C88.025 62.7554 90.6864 62.7464 91.599 62.8527C92.5195 62.965 92.1467 63.4853 92.3136 63.5938C93.6692 64.5178 96.7119 62.9558 97.1085 62.8854C104.329 61.7417 110.69 61.6577 117.536 60.5791C122.741 59.7509 128.233 58.4944 133.166 57.5581C134.742 57.2601 136.256 56.989 137.737 56.7268C140.564 56.2998 142.205 54.4706 143.491 50.6434C143.67 50.1071 142.743 50.4881 142.954 49.8357C143.568 47.9153 144.115 45.7627 144.875 43.5123C145.873 40.4405 145.635 35.6422 145.104 31.3501C145.052 30.7693 144.88 30.1285 144.581 29.4441C144.338 28.9116 145.302 29.2551 145.064 28.6694C143.635 24.9118 137.637 19.2278 133.768 20.2069C131.318 18.4985 128.24 16.5589 125.993 14.7111C125.854 14.5897 125.715 14.4692 125.577 14.3495C124.249 13.2669 126.057 13.3094 123.967 12.7243C123.489 12.605 123.834 13.4223 123.149 13.2121C120.277 12.3462 116.921 11.4507 113.756 11.3725C113.106 11.3579 113.214 11.9437 113.024 12.023C111.438 12.6532 109.037 11.1056 108.462 10.9776C104.215 9.99348 101.014 10.2918 96.9583 10.3714C96.0157 10.3933 97.1474 11.122 96.248 11.1714C91.5638 11.4235 86.6883 11.6818 82.0395 11.7305C81.003 11.7403 81.8964 11.0148 81.3973 10.9868C79.201 10.8738 78.83 12.1372 76.7243 12.0697C76.2816 12.0574 76.4753 11.4817 76.3896 11.4286C75.7829 11.0523 75.2518 11.1441 74.8235 11.3634C74.3269 11.6271 73.9899 12.0851 73.8254 12.1214C70.0702 13.0198 67.3124 12.214 63.6832 13.5689C63.2572 13.7357 64.4478 14.0806 63.2474 14.5097C55.2567 17.3989 47.3165 21.9336 40.2223 26.8522C39.1207 27.62 39.5385 26.6123 39.4327 26.6132C37.7098 26.6914 37.8844 28.3257 37.5868 28.6431C35.194 31.1409 32.042 32.5533 31.5169 35.3636C22.0434 44.1956 14.5052 55.1154 8.68412 66.292C8.05972 67.5111 7.7221 68.7021 7.84864 69.8748C7.86776 70.0148 7.14948 69.9246 7.20061 70.2287C7.79232 72.5501 8.90223 72.7704 9.75497 72.8542C10.3261 72.8919 10.9771 72.8661 11.9883 72.9459C12.579 72.9942 13.7121 75.2275 13.8964 75.3986C14.3934 76.0436 13.3457 76.7008 13.5385 76.8637C15.2583 78.1684 15.962 74.9479 18.415 75.5822C18.494 75.6071 18.0144 76.115 18.2151 76.2261C18.8408 76.5729 19.5627 76.4833 20.1875 76.8212C21.6172 77.5899 21.9392 79.2825 24.5011 78.711C24.8267 78.6305 24.6169 76.73 27.0003 77.1186C27.9511 77.2861 32.2273 77.693 33.4233 77.9106C34.6296 78.1385 33.7416 78.6654 33.8253 78.699C37.0205 79.7713 35.7365 79.9917 37.3041 81.3008C38.8396 82.598 38.6082 79.7671 39.3036 79.5053C39.9789 79.2436 42.3322 80.0694 42.9162 80.3375C43.4969 80.6065 42.732 80.9382 43.2453 81.1029C46.6686 82.1802 44.8644 79.8163 46.0329 79.4476C46.5095 79.296 46.9673 79.2369 47.4125 79.2448C49.5323 79.2816 51.1855 80.8372 53.253 81.1278C53.9208 81.2221 53.4014 80.7173 54.0003 80.7078C56.3481 80.6742 57.7713 81.4035 60.4636 80.9499C60.9164 80.877 63.1593 79.741 64.5007 80.7252C64.6953 80.8672 64.0987 81.3569 65.1094 81.5226C66.6179 81.7712 69.3091 82.01 70.9408 81.9084C72.1337 81.8327 70.8136 80.9201 72.2902 81.2501C72.9542 81.3975 71.6846 81.8426 72.9452 82.078C74.2009 82.3138 77.3806 82.4223 78.6016 82.4522C79.8078 82.4818 79.1727 81.8087 79.2721 81.7689C79.8496 81.5417 82.23 81.3193 82.4224 81.3269C92.7815 81.6398 102.333 82.9731 112.472 83.0292C113.26 83.0357 112.766 82.3307 112.886 82.3247C115.625 82.1612 113.409 83.8777 115.261 84.5741C115.044 83.1768 116.187 83.4786 118.089 83.4356C119.036 83.4168 118.554 82.851 118.644 82.8011C120.051 82.0687 120.979 83.1927 121.194 83.4245C122.022 84.2791 123.112 83.4318 123.682 84.0183C124.256 84.6026 122.772 85.2368 124.587 85.4103C125.147 84.9718 123.922 83.5342 125.356 83.48C126.286 83.4539 127.3 83.4977 128.484 83.6723C129.68 83.9298 130.79 83.8521 132.679 85.2241C137.025 89.4073 137.463 95.2189 137.999 98.0166C138.528 101.578 138.611 103.157 138.616 105.018C138.614 105.491 138.576 105.963 138.484 106.448C137.911 109.037 137.156 109.704 136.997 110.36C136.766 110.949 136.714 111.631 135.298 112.689C132.272 114.523 133.075 111.519 132.486 111.233C131.961 110.866 131.704 111.476 131.184 111.303C130.674 111.123 131.574 110.59 130.501 110.694C129.466 110.832 126.515 111.879 126.055 112.385C125.155 113.5 126.648 114.744 123.491 114.223C123.309 114.189 123.932 113.597 123.235 113.499C117.927 112.731 112.473 111.781 107.374 110.419C106.673 110.229 107.436 109.666 107.029 109.548C102.799 108.298 104.125 109.734 101.505 110.544C102.368 108.954 101.272 107.665 98.0086 106.999C96.047 106.598 96.2364 107.405 94.861 107.671C94.4482 107.752 93.1608 106.967 92.8409 107.265C91.7898 108.24 92.8357 109.763 89.5805 108.602C89.4383 108.549 90.0267 108.017 89.5263 107.881C86.2723 107.004 85.6489 108.112 82.0917 107.651C79.305 107.287 74.4729 105.843 71.3165 105.528C71.528 103.585 68.3985 103.857 67.2063 105.238C65.1757 105.209 63.0695 105.472 61.2767 105.834C60.6868 105.958 60.8807 105.306 60.7901 105.271C60.7256 105.248 60.663 105.23 60.6026 105.215C59.9519 105.057 59.54 105.451 59.4157 105.841C59.2782 106.239 59.3861 106.615 59.321 106.747C58.566 108.275 58.8972 110.379 59.7039 112.193C60.5715 114.1 61.7159 115.839 63.5246 117.139C63.665 117.235 64.7783 116.494 64.8964 117.982C64.9137 118.087 63.4201 117.521 64.9022 118.981C66.3375 120.439 69.4365 123.286 72.4902 123.749C73.2301 123.888 75.2201 123.431 76.3845 124.611C76.5419 124.773 76.2374 125.093 76.4574 125.372C77.1927 126.264 77.9739 125.047 78.8068 126.39C79.6414 127.73 81.9159 129.006 85.1246 128.409C85.2296 128.392 86.0269 127.363 86.9909 127.413C88.5416 127.501 90.7372 127.717 92.3727 127.641C93.1473 127.605 92.6221 126.955 92.7558 126.938C97.9151 126.306 101.623 126.422 107.207 125.754C108.21 125.678 110.562 124.24 112.852 124.72C113.021 124.778 113.17 124.875 113.28 124.995C113.754 125.639 113.329 126.032 113.01 126.265C112.653 126.505 112.209 126.647 111.82 126.813C111.019 127.182 110.524 127.347 110.693 129.764C110.714 130.081 110.831 130.43 111.003 130.812C111.448 131.72 112.316 132.661 112.381 133.896C112.499 135.109 111.349 136.486 109.662 136.202C109.288 136.408 108.89 136.582 108.478 136.729C102.323 138.907 96.1075 138.496 89.5892 139.689C89.2722 139.746 88.3622 140.984 87.6176 141.029C86.5159 141.095 85.8635 140.609 85.0704 140.657C82.9202 140.786 80.8853 141.233 79.0392 141.996C78.047 142.413 77.1057 142.921 76.2239 143.535C75.3036 144.244 75.2021 143.51 74.193 144.629C73.7465 145.182 73.5828 145.798 73.4826 146.421L73.4824 146.411C73.8953 146.988 74.3132 147.623 74.6045 148.64C75.0124 150.076 74.3917 152.127 75.2575 153.961C76.5917 153.275 77.2374 154.467 78.8568 156.291C79.1689 156.641 79.3434 155.943 79.5135 156.094C80.2134 156.697 80.2969 157.619 81.0028 158.162C81.1738 158.294 81.6057 158.022 81.7694 158.113C83.1723 158.879 83.5333 161.457 83.5974 161.904C83.8421 163.611 84.8002 163.83 85.2267 164.979C85.6514 166.124 84.3406 164.878 84.9738 166.119C86.292 168.7 88.4402 171.689 89.9455 174.16C90.5453 175.143 90.7136 174.118 90.8129 174.25C92.2406 176.23 92.7079 178.658 94.4788 179.353C93.6611 180.297 93.4385 180.741 93.5424 181.029L93.5062 180.893C93.5844 181.529 95.3613 182.025 94.9112 184.443C94.8522 184.727 93.1979 185.022 92.9469 184.044C92.737 183.25 92.9845 182.105 92.7168 181.022L92.793 181.309C92.6906 181.091 92.5624 180.874 92.4018 180.67C92.2091 180.395 90.0208 179.431 89.8232 179.285C88.2791 177.948 90.246 176.464 90.313 176.294C90.9622 174.475 88.2548 173.339 87.8249 172.899C85.828 170.808 84.7321 168.612 83.0577 166.842C81.9622 165.68 80.5341 166.472 79.8721 165.417C77.6626 161.877 78.7508 159.455 74.9811 157.133C74.1806 156.618 73.0847 158.289 72.6998 154.877C72.6709 154.66 72.6476 152.031 71.3226 151.194C71.1539 151.088 70.6948 151.327 70.5531 151.143C69.833 150.19 69.6236 149.295 69.1903 148.268C68.8455 147.427 68.7762 145.579 69.1193 144.738C69.321 144.226 69.5555 143.698 69.8316 143.135C70.9946 140.686 73.2883 138.532 75.617 137.657C76.1466 137.45 76.7772 137.366 77.3745 137.363C78.3888 137.348 79.261 137.575 79.6549 137.629C81.4436 137.894 82.9023 136.587 83.9535 137.29C84.978 138.009 83.3395 139.446 85.7648 139.731C85.7216 138.384 85.798 136.99 85.8208 135.63C91.1678 135.21 96.0713 135.426 100.872 134.559C101.463 134.45 100.74 133.84 101.362 133.704C103.411 133.249 105.291 133.124 107.222 132.578C107.589 132.477 107.902 132.339 108.088 132.19C108.242 132.068 108.293 131.938 108.243 131.865C108.196 131.789 108.058 131.789 107.946 131.775C107.716 131.775 107.624 131.444 107.578 130.475C107.575 130.253 107.576 130.038 107.579 129.834C108.21 129.36 108.578 128.575 108.732 127.894C108.813 127.572 108.815 127.234 108.835 127.303C108.863 127.353 108.844 127.51 109.163 128.094C109.385 128.628 110.692 129.881 111.992 130.016C112.679 130.107 112.643 130.053 112.62 130.067C112.594 130.069 112.463 130.082 112.351 130.095C112.146 130.118 111.782 130.164 111.533 130.186C110.662 130.278 110.669 129.862 110.001 129.839C107.493 129.766 108.827 130.917 108.211 131.239C105.437 132.623 104.662 129.647 101.221 130.178C101.053 130.208 98.9509 132.102 98.6339 132.231C96.6575 133.092 98.2391 131.699 96.969 131.693C94.6273 131.664 93.0295 131.375 90.2929 131.898C89.5036 132.053 87.5318 133.07 85.9752 132.199C85.7728 132.085 85.9139 131.549 85.7501 131.509C82.7941 130.8 82.5728 132.453 80.7145 132.811C78.8407 133.167 76.2779 131.437 75.8276 130.963C74.6042 129.765 77.0078 130.861 77.1066 130.778C78.2143 129.958 76.2447 129.755 74.814 129.264C75.0325 127.606 73.0743 127.105 73.3316 128.742C73.3655 128.928 74.5408 129.116 74.814 129.264C73.1251 130.508 70.5561 129.937 68.7818 127.407C67.9921 126.194 69.3473 126.09 66.0574 124.501C64.5907 123.707 64.4755 125.024 63.0371 124.351C59.6636 122.75 57.3124 118.319 55.5707 115.215C54.9175 114.077 54.9363 115.445 54.4919 114.749C54.4809 114.731 54.4697 114.712 54.4582 114.691C53.1466 112.123 52.5444 109.33 53.7214 105.222C53.8643 104.837 52.821 105.531 53.4306 104.19C54.4977 101.949 56.7439 100.295 58.6512 99.693C63.6351 98.1657 67.5597 98.6781 71.8655 98.9181C74.529 99.0878 79.1521 99.3287 81.7575 99.8334C86.2814 100.675 91.5364 102.689 95.3295 103.211C97.8054 103.554 97.3964 102.8 98.5303 102.57C100.717 102.122 103.952 104.354 104.39 104.683C104.404 104.694 102.283 104.436 103.332 104.987C103.848 105.807 104.366 104.681 104.39 104.683C104.673 104.901 108.811 105.839 109.637 105.851C110.101 105.864 109.958 105.204 110.197 105.222C115.8 105.633 121.341 106.341 126.338 106.591C126.427 106.602 126.303 107.304 126.515 107.321C129.379 107.6 131.262 106.201 131.492 105.412C131.564 105.049 131.138 105.311 131.199 105.508C131.235 105.7 131.591 105.627 132.086 105.239C132.144 105.151 132.205 105.064 132.27 104.979C132.062 103.112 132.28 100.403 132.291 98.8306C132.307 97.2477 130.908 97.3821 130.857 97.264C129.312 94.2173 128.759 92.0994 127.779 90.8838C128.277 91.2758 128.448 91.2856 128.455 91.2829C128.457 91.2689 128.357 91.2179 128.177 91.1588C126.907 90.6772 122.284 90.4245 119.862 90.4268C117.93 90.417 116.769 90.0359 114.938 90.1489C114.696 90.1644 114.91 90.7812 114.835 90.8009C112.791 91.4293 113.818 89.9963 113.41 89.7125C111.948 88.6848 111.025 88.1319 108.374 88.4844C107.786 88.5657 105.923 90.6318 104.837 90.7192C103.411 90.8283 103.965 90.0826 102.454 90.2168C102.326 90.2277 102.342 90.6999 101.42 90.6484C97.1232 90.4154 92.4245 89.9915 87.9355 89.8832C87.3172 89.8664 88.0853 90.6414 87.1888 90.6292C83.033 90.5735 78.4747 90.3745 74.4299 89.8548C73.4365 89.7246 74.0835 89.2276 73.8735 89.0632C72.5716 88.0672 70.6386 89.3501 70.3251 89.362C62.8601 89.6831 57.2281 88.1529 49.6335 88.2786C49.3838 88.2842 48.0916 88.75 46.7976 88.8157C45.9472 88.8583 45.1277 88.7329 44.6062 88.201C44.5025 88.1104 43.2079 86.7364 41.8938 87.5265C41.814 87.576 42.6408 88.2971 41.1212 88.1237C39.5938 87.9496 37.1053 88.2113 35.0485 87.3124C34.3793 87.0272 32.9285 85.6222 30.8235 86.4476C30.709 86.5125 27.3179 88.4926 26.3683 86.7664C26.2088 86.4793 26.6259 84.8463 24.0769 85.3818C23.58 85.4823 24.3862 85.9761 23.1094 86.0333C21.1477 86.1167 18.6812 85.2576 16.0109 85.3824C15.5662 85.4151 13.3223 86.032 11.978 84.6368C11.7755 84.4206 12.4339 84.0601 11.6162 83.6974C9.26514 82.6299 6.50578 81.3719 4.06461 79.1581C2.57247 77.8094 0.969655 75.8548 0.172126 73.2884C-0.422758 70.9185 0.716383 71.8403 0.675853 69.5418C0.688578 67.8074 1.3711 65.2217 2.03318 63.5245C2.1913 63.0621 2.31412 62.6178 2.367 62.2324C2.58628 60.7397 0.601171 61.565 1.4163 59.5601C5.116 50.8401 10.9786 43.9858 16.7936 37.1933C17.6658 36.1897 16.5539 36.689 17.8278 35.1928C22.417 29.6128 31.3812 20.5926 37.2742 17.7894C41.9012 15.5252 37.1346 19.7915 40.4665 17.8467C42.0615 16.9281 42.8251 14.424 43.1911 14.1303C46.6763 11.2903 49.7955 10.4439 53.3672 8.53356C54.1118 8.1426 53.0772 7.86005 53.7204 7.53442C55.9297 6.41488 58.4777 5.75529 60.72 4.96505C61.73 4.61107 61.3865 4.17176 62.3505 3.92305C64.6563 3.33578 66.7793 3.05139 69.147 3.11314C69.359 3.12023 68.0923 4.01069 69.8072 3.72558C71.0905 3.52014 72.5362 3.42836 74.0355 3.3484C75.6244 3.27042 77.2662 3.13185 78.8246 2.72346C79.6848 2.49722 79.6102 1.3023 81.5645 1.96689C81.9755 2.10694 81.5778 3.57372 83.6766 2.16682C84.0153 1.9305 87.6142 -0.00658837 89.5105 0.969001C90.0075 1.22376 91.3016 2.32698 92.3485 2.09362C92.4916 2.05756 91.8822 1.44357 92.7625 1.34032C95.8726 0.989961 99.1571 0.972273 102.421 0.794466C103.298 0.74725 101.997 0.0704575 103.306 0.0240243C106.899 -0.106195 111.48 0.305888 115.118 1.00263C116.46 1.26181 115.449 1.6804 115.541 1.75278C116.964 2.93197 118.097 1.80701 118.656 1.8315C122.06 2.01862 124.507 3.28788 127.749 4.45845C128.642 4.79718 128.273 3.95523 128.47 3.98006C130.579 4.35055 128.708 4.71401 129.81 5.39617C130.182 5.63435 130.556 5.87805 130.929 6.12858C133.02 7.59553 135.415 8.94693 137.645 10.2525C138.574 10.7971 137.932 9.53774 138.765 10.0385C143.657 13.1298 149.038 16.2917 153.258 23.1317C154 24.4848 153.009 23.943 153.063 24.2799C153.309 25.9821 154.641 27.9671 155.243 29.4912C155.412 29.7801 155.548 30.0095 155.598 30.1368C156.526 32.5336 156.147 33.5684 156.406 35.8167C156.688 39.0046 156.956 42.4497 155.543 47.0842C154.63 49.7726 153.953 53.2183 151.963 57.3801C150.283 61.5707 144.644 66.4344 139.845 66.9664C139.114 67.0995 138.397 67.2287 137.696 67.3538C125.991 69.4201 116.834 70.476 105.461 71.9411C104.74 72.0302 105.551 72.6881 104.93 72.7738C96.8342 73.8144 88.7842 74.164 80.0294 73.7512C79.3124 73.7088 80.3034 74.5008 79.1215 74.4486C76.7126 74.3446 73.5233 73.8515 70.8871 72.8913C69.6317 72.4253 71.5251 72.3366 70.247 71.8654C67.3132 70.6808 63.6731 69.3635 60.3971 65.5188C59.1103 63.8178 60.4022 66.9551 58.7762 64.5334C58.0457 63.3287 57.4917 62.0021 57.1477 60.6299C55.8524 54.7158 53.5823 46.7101 59.4952 38.0792C62.1505 34.626 65.4312 32.0051 68.9886 30.0921C69.7193 29.7065 71.0539 30.5864 72.3673 29.5665C72.2885 29.1482 72.0611 28.7271 71.9096 28.3156C74.8006 26.7551 77.8486 25.6092 80.9418 24.8221C92.2454 22.1318 103.535 19.7317 116.831 21.3326C117.549 21.4466 116.416 20.4793 117.823 20.7096C122.897 21.554 130.86 24.0954 133.916 32.1806C134.977 35.1202 135.4 38.1004 135.156 41.2339C135.042 42.1906 133.812 41.6577 133.685 44.3543C133.763 44.8297 132.807 48.9695 132.406 50.1182C132.367 50.2828 133.34 49.8205 132.654 51.1493C132.48 51.4704 132.298 51.783 132.103 52.0955C129.981 55.531 126.74 57.3842 124.948 58.432C121.469 60.4843 117.631 61.7934 113.962 62.4415C112.927 62.6186 113.856 61.7052 113.125 61.82C108 62.6168 102.572 63.3119 97.9677 62.4798C94.9155 61.8985 96.133 60.7826 94.6398 59.5088C94.4326 59.3319 92.6067 59.1261 92.5857 58.4434C92.5339 56.7375 93.5854 54.9874 93.4244 53.1579C93.3911 52.7697 91.0511 52.9158 92.5192 52.1439C92.6228 52.096 94.3015 51.9632 94.7337 51.6794C95.0329 51.4859 94.5959 50.7595 95.1852 50.53C95.7693 50.2988 96.3447 50.9224 97.2956 50.6507C98.2381 50.3672 97.8825 49.5834 99.683 49.5532ZM131.607 91.9463C131.537 90.4246 129.409 91.5424 130.527 92.3964C130.583 92.4383 131.609 92.0226 131.607 91.9463ZM96.1691 137.063C98.3282 137.897 99.4942 136.157 97.9848 135.535C96.4979 134.9 95.5216 136.806 96.1691 137.063ZM74.3639 142.329C75.7279 141.731 76.1018 140.873 75.8795 140.228C75.6678 139.617 74.6346 139.291 73.3769 140.711C73.223 140.886 74.1994 142.407 74.3639 142.329ZM101.995 59.4813C101.971 59.453 100.643 59.421 100.61 59.449C99.8857 60.2076 102.576 60.2738 101.995 59.4813ZM81.8398 162.425C81.789 161.538 80.1262 160.007 80.1802 161.113C80.2246 162.008 81.9029 163.533 81.8398 162.425ZM53.2516 82.2977C53.229 82.2608 52.3023 82.1738 52.3085 82.376C52.3341 83.028 53.6362 82.9211 53.2516 82.2977ZM92.5783 194.858C93.4882 189.596 96.6045 186.574 95.5627 192.462C95.3629 193.517 94.9825 190.051 94.5526 191.372C93.7693 193.771 95.2529 195.65 93.9618 198.01C93.7241 198.438 92.5195 195.16 92.5758 194.848C92.5767 194.851 92.5775 194.855 92.5783 194.858ZM133.743 89.8482C133.766 89.7977 133.109 88.6954 133.053 88.6952C132.076 88.5749 133.338 90.6687 133.743 89.8482ZM7.26759 67.1945C7.30605 67.1731 7.49795 66.5445 7.78289 65.917C8.0739 65.2578 8.39152 64.5549 8.38344 64.4976C8.1394 63.4944 7.29463 64.4843 6.85499 65.5309C6.41346 66.553 6.52767 67.6223 7.26759 67.1945ZM71.2718 105.473C69.8177 106.136 68.3063 106.181 67.2124 105.239C68.5682 105.274 69.8781 105.331 71.2718 105.473Z" fill="#FC4C02"/>
</svg>
