<svg width="155" height="139" viewBox="0 0 155 139" fill="none" xmlns="http://www.w3.org/2000/svg">
<path d="M15.5085 133.437C14.3226 130.017 13.316 125.411 12.7121 121.882C12.5179 120.761 13.0757 121.22 12.9639 120.454C12.7398 118.934 12.1891 117.625 12.0182 116.156C11.9617 115.661 12.7642 116.092 12.6899 115.576C12.2819 112.761 11.4687 110.207 10.9211 107.379C8.88969 96.8534 6.78009 86.5214 4.68569 76.0083C3.99939 72.5724 3.4437 69.1165 2.99278 65.6354C2.36459 60.859 2.3513 55.0235 1.72297 50.1447C1.64834 49.5742 1.08603 49.9595 1.0294 49.8541C0.163478 48.2009 1.39156 48.6748 1.47464 47.5545C1.80384 43.0863 1.66473 38.192 1.33311 33.9624C1.1907 32.1527 0.0625737 33.9965 0.678413 32.1633C0.720059 32.0357 1.35602 32.4815 1.412 31.9838C1.53739 30.8673 1.38739 28.7509 1.42243 27.882C1.49246 26.2189 1.48289 25.9457 1.45914 24.3838C1.45356 23.9541 1.45888 23.4597 1.46961 23.0078C1.52143 21.1218 1.5859 19.292 1.6435 17.0035C1.66035 16.6795 1.49304 16.6902 1.31389 16.6807C1.22526 16.6725 1.13548 16.6497 1.07285 16.543C1.01627 16.4157 0.95591 16.314 1.03638 15.81C1.08554 15.5784 1.10801 15.2637 1.45978 14.5266C1.57006 14.3094 1.71492 14.0595 1.93727 13.7766C2.13658 13.5161 2.61715 13.0047 3.25347 12.6687C3.85859 12.3189 4.86847 12.0887 5.64683 12.1826C6.43972 12.2704 6.85056 12.4612 7.25827 12.6658C8.53037 13.4213 8.62901 13.793 8.91713 14.1034C9.15433 14.4143 9.29385 14.6364 9.43902 14.8762C9.9377 15.7246 10.2077 16.3946 10.3177 16.7684C10.5194 17.5005 9.92322 17.442 9.87934 17.6114C9.48428 18.9969 11.7411 20.58 11.9006 20.8315C12.2932 21.4727 12.6504 22.0929 12.9988 22.7328C15.2594 26.8777 16.6158 30.9252 18.6786 34.9988C20.4912 38.5742 22.6761 42.246 24.4281 45.6081C26.521 49.6239 28.0533 53.138 30.3072 56.8794C30.5441 57.2722 30.924 56.429 31.2127 56.9037C32.6137 59.202 34.0408 61.5208 35.4543 63.6978C36.159 64.7809 36.8871 65.8665 37.5927 66.825C37.9475 67.3063 38.3034 67.7601 38.6104 68.1142C38.7647 68.2928 38.9087 68.4446 38.9885 68.5318C39.0621 68.6252 39.1144 68.6316 38.7669 68.5346C39.1208 68.6872 39.4581 68.8101 39.7852 68.9088C40.1668 69.018 39.5524 69.5998 39.9587 69.7472C41.242 70.2134 43.1939 70.3537 44.8399 69.3905C46.4766 68.4659 47.5089 66.7797 47.0344 65.1297C48.5312 63.6086 50.1045 61.342 51.6301 59.7365C52.6041 58.7067 52.6191 60.2376 53.1381 58.5563C53.2526 58.1753 52.4643 58.3388 52.6694 57.8034C53.5271 55.5575 54.7785 53.1453 55.3475 50.7704C55.4641 50.281 54.8859 50.2045 54.8413 50.0365C54.4889 48.6589 56.4334 47.2865 56.6712 46.902C58.4514 44.0559 58.9115 41.6406 59.8219 38.6997C60.0328 38.0145 59.0605 38.6064 59.2364 37.9403C60.1548 34.4944 61.2127 30.9326 62.4599 27.6185C62.7394 26.8802 63.1763 27.7468 63.3418 27.4027C64.0607 25.8926 62.9765 25.2081 63.6424 23.7444C63.781 23.4363 64.2683 23.7613 64.3429 23.7182C65.5095 23.0588 64.4221 21.8798 64.4562 21.6373C64.8654 18.5364 66.7567 16.9405 67.3905 13.9826C67.4674 13.6223 66.5639 14.2246 66.8217 13.2253C67.7856 9.65965 68.7379 6.04594 70.8122 2.27328C71.0007 1.94426 71.2095 1.62488 71.4975 1.29624C71.6564 1.11319 71.9429 0.821786 72.284 0.593265C72.4584 0.475075 72.6578 0.361472 72.8849 0.264603C73.1306 0.15687 73.5091 0.0428441 73.8691 0.0097915C75.5443 -0.0966293 76.3293 0.73512 76.7785 1.21004C77.1078 1.58912 77.3323 1.98646 77.4812 2.28845C78.0193 3.44086 78.1825 4.27206 78.3772 5.12149C78.7349 6.81668 78.9299 8.39486 79.1006 9.99212C79.2032 11.0166 78.5507 10.3917 78.4988 10.4674C77.6912 11.687 79.154 12.1577 79.2608 12.4696C80.0843 15.0491 79.364 17.7335 81.2563 19.2307C82.5503 30.4804 85.3542 41.222 87.2147 52.1582C87.2404 52.297 86.5255 52.2563 86.5799 52.5333C87.26 55.8812 88.0615 54.943 90.0003 56.5762C90.4796 56.9665 89.6622 59.1033 89.6188 59.2856C89.4388 59.9474 88.3017 59.797 88.2962 59.9975C88.295 60.2824 88.3821 60.4746 88.53 60.6058C89.2915 61.2999 91.3614 60.477 92.0285 61.5632C92.0541 61.6134 91.4183 61.7463 91.4481 61.9048C91.5487 62.4102 91.9953 62.5968 92.0875 63.0105C92.2226 63.5181 92.124 64.1278 92.2526 64.65C92.3517 65.1485 92.8461 65.6596 93.7336 65.4355C93.9492 65.3442 94.2275 63.6001 95.1892 63.7309C95.3852 63.7542 96.0468 63.7102 96.7658 63.4948C97.5433 63.2719 98.2901 62.9284 98.6943 62.7851C99.4709 62.5048 99.2719 63.2964 99.3345 63.2931C101.651 62.862 101.172 63.5046 102.826 63.8144C104.534 64.0332 102.585 61.9733 102.785 61.4307C103.02 60.8675 104.725 60.3071 105.236 60.1532C105.728 60.0264 105.554 60.6888 105.945 60.5171C108.447 59.3979 105.847 58.7271 106.166 57.8271C106.881 55.7001 109.453 56.0402 110.869 54.8367C111.254 54.5067 110.627 54.4833 110.902 54.1248C112.01 52.6828 113.173 52.3615 114.081 50.4272C114.225 50.1169 114.343 48.0748 115.735 47.8539C115.933 47.8259 116.052 48.4855 116.63 47.986C117.491 47.2434 118.908 45.7278 119.548 44.6817C120.024 43.9043 118.707 44.1581 119.635 43.4507C120.048 43.1357 119.837 44.1776 120.582 43.5581C121.325 42.9418 122.836 41.059 123.404 40.3334C123.972 39.6088 123.152 39.5902 123.165 39.505C123.256 38.998 124.126 37.4337 124.225 37.3141C129.17 31.1617 134.491 26.1745 139.799 20.4663C140.223 20.0228 139.457 19.8103 139.517 19.7376C140.912 18.0421 140.909 20.5183 142.377 20.011C141.3 19.1201 142.1 18.7101 143.185 17.656C143.697 17.163 143.067 16.9739 143.084 16.8906C143.481 15.5575 144.798 15.9636 145.052 16.0575C146.033 16.3642 146.368 15.1179 147.04 15.3955C147.693 15.6844 147.019 16.8086 148.294 16.2747C148.538 15.6618 146.943 14.8461 148.083 14.2316C148.323 14.1122 148.581 14.0044 148.855 13.914C149.267 13.7925 149.715 13.7182 150.194 13.732C150.724 13.7474 151.332 13.8926 151.865 14.19C152.987 14.8079 153.567 15.8926 153.84 16.6759C154.406 18.3614 154.335 19.9112 154.232 21.2632C153.975 24.0743 153.294 26.46 152.984 27.9831C152.296 31.1657 152.137 32.1663 151.54 33.9836C150.443 37.1845 151.662 36.2127 151.572 38.3661C151.464 40.5327 149.435 38.9256 148.866 39.0909C148.299 39.2444 148.723 39.6892 148.358 39.9729C147.992 40.2549 147.864 39.3982 147.539 40.2042C147.217 41.0055 147.459 43.513 147.886 43.9507C148.794 44.8786 150.227 44.1732 149.195 46.2679C149.135 46.3882 148.656 45.8035 148.455 46.2728C146.886 49.986 145.649 53.9414 144.058 57.6234C143.838 58.1295 143.323 57.4551 143.187 57.747C141.776 60.7745 143.239 60.006 143.932 62.1226C142.41 61.2098 141.096 61.8672 140.328 64.2532C139.86 65.7042 140.659 65.68 140.871 66.7651C140.933 67.0984 140.113 67.9706 140.393 68.2599C141.302 69.2254 142.852 68.6284 141.567 70.9713C141.51 71.0722 141.014 70.5357 140.859 70.8983C139.855 73.24 140.911 73.9135 140.248 76.5526C140.117 77.0721 139.913 77.6594 139.676 78.2637C138.905 80.2604 137.687 82.6692 137.022 84.4241C135.195 83.774 134.901 86.1078 135.858 87.4416C135.291 88.9474 134.787 90.6097 134.072 92.0034C133.824 92.4897 133.422 91.959 133.341 92.002C132.094 92.6184 133.049 93.7478 132.972 94.0808C131.999 97.8134 129.95 100.159 128.629 103.816C128.582 103.935 129.55 104.94 128.102 105.181C128.011 105.181 128.336 103.819 127.146 105.189C126.531 105.866 125.438 106.695 124.194 107.382C124.126 107.429 123.919 107.51 123.838 107.528C122.536 107.678 121.185 107.864 120.089 108.337C119.526 108.572 118.286 109.848 117.014 109.15C116.845 109.054 116.957 108.65 116.718 108.464C115.953 107.871 115.689 109.277 114.746 108.227C113.766 107.182 111.962 106.527 109.721 107.591C109.65 107.623 109.234 108.758 108.485 108.827C107.325 108.932 105.643 108.898 104.408 109.046C103.824 109.117 104.274 109.74 104.174 109.764C100.301 110.584 97.4336 110.309 93.1903 110.546C92.4144 110.588 90.2961 111.76 88.7319 111.221C86.9856 110.636 88.2927 107.159 84.6 108.401C83.1262 108.899 81.7242 113.281 78.7133 111.486C73.5051 112.695 68.4466 112.259 63.2555 113.771C63.0243 113.838 62.4411 115.098 61.8788 115.163C61.0461 115.257 60.496 114.786 59.907 114.836C57.4068 115.034 55.1982 115.835 52.7913 116.129C51.8828 116.242 52.1153 115.636 51.0246 115.772C50.5881 115.827 50.2272 115.996 49.8528 116.17C49.2924 116.447 48.7304 116.734 47.8069 116.687C46.661 116.623 45.2672 115.345 43.7608 115.465C43.9999 116.943 42.9858 117.108 41.2872 117.872C40.964 118.019 41.4359 118.45 41.2888 118.546C40.6837 118.949 39.996 118.658 39.4322 119.083C39.2963 119.186 39.4011 119.686 39.2973 119.797C38.4229 120.762 36.4469 120.055 36.1033 119.936C34.786 119.479 34.4203 120.26 33.4821 120.198C32.5392 120.141 33.7402 119.432 32.6773 119.53C30.4744 119.732 27.8023 120.623 25.6954 121.317C24.8552 121.597 25.6483 122.047 25.5331 122.102C23.8744 122.851 21.885 122.83 21.4454 124.463C18.9796 121.669 20.5478 125.169 17.909 125.532C17.7003 125.561 16.7919 124.144 17.4289 123.604C18.0643 123.065 19.3818 123.077 20.2677 122.318C20.473 122.138 21.3264 120.141 21.4958 119.98C22.7767 118.717 23.8353 120.985 23.9572 121.084C25.3464 122.146 26.5297 119.986 26.9659 119.728C28.9183 118.544 30.8336 118.357 32.5241 117.512C33.6295 116.965 33.346 115.361 34.2922 115.174C37.4551 114.565 38.9968 116.55 41.5062 114.012C42.0498 113.473 41.0678 111.854 43.5957 112.773C43.7566 112.83 45.6623 113.76 46.4715 112.786C46.5728 112.664 46.4733 112.156 46.6245 112.083C47.481 111.683 48.1587 111.813 49.0297 111.627C49.0523 111.624 49.1198 111.611 49.1426 111.608C49.3131 111.576 49.4904 111.533 49.6771 111.471C50.8209 111.094 52.144 110.593 53.5128 110.563C54.3326 110.545 55.4961 111.347 55.9092 111.524C57.0846 112.036 58.092 110.761 58.8735 111.479C59.6633 112.201 58.5348 113.635 60.3687 113.909C60.2415 112.569 60.1951 111.18 60.1075 109.826C63.9843 109.313 67.8755 109.211 71.7623 108.63C72.2407 108.558 71.6548 107.906 72.1646 107.81C74.3458 107.403 76.3264 107.664 78.5505 107.173C80.3013 106.786 82.1303 105.784 83.93 105.368C85.2538 106.755 87.9127 105.904 89.8982 105.809C90.6042 105.774 90.6051 106.188 91.1137 106.263C93.0153 106.537 91.9928 105.288 92.4801 105.015C94.567 103.851 95.115 106.886 97.6727 106.514C97.8178 106.494 99.2834 104.673 99.5036 104.545C100.902 103.715 99.816 105.085 100.745 105.1C102.423 105.131 103.64 105.387 105.533 104.687C106.089 104.48 107.32 103.31 108.534 103.966C108.691 104.052 108.673 104.601 108.794 104.619C110.966 104.9 110.805 103.202 111.96 102.483C113.067 101.771 115.082 102.707 115.499 102.995C116.582 103.742 114.799 103.462 114.74 103.555C114.235 104.65 115.585 104.306 116.616 104.259C116.992 105.896 118.404 105.606 117.683 104.201C117.608 104.048 116.841 104.307 116.616 104.259C117.306 102.515 118.833 102.104 120.754 103.352C121.597 103.917 121.121 104.841 123.18 104.219L122.331 104.568C122.372 104.533 122.414 104.495 122.457 104.454C123.107 103.808 122.121 103.112 122.423 102.427C123.019 100.953 125.26 99.4073 126.101 97.3172C126.399 96.576 125.49 96.9965 125.673 96.4774C126.135 95.1242 127.085 94.1138 127.425 92.6266C127.455 92.4924 126.72 92.5535 126.885 92.1189C128.117 88.8063 129.539 85.9571 130.732 82.3228C131.251 80.7402 131.816 77.9416 132.379 76.0549C132.441 75.8459 132.505 75.6463 132.569 75.46C133.684 72.2228 135.871 68.5253 136.519 65.7148C136.945 63.8834 136.191 64.0775 136.008 63.17C135.648 61.4276 137.963 59.2801 138.303 59.0018C138.314 58.995 137.979 60.5743 138.559 59.8586C139.382 59.5948 138.301 59.0199 138.303 59.0018C138.527 58.8129 139.631 55.7895 139.7 55.1377C139.736 54.7868 139.082 54.7867 139.113 54.6073C139.85 50.3382 140.936 46.1894 142.384 42.1232C142.417 42.0539 143.059 42.3531 143.127 42.187C144.105 39.8481 143.69 38.094 143.708 35.9857C143.716 33.9034 144.244 32.4063 145.682 31.4847C145.866 29.9992 146.822 27.9497 147.342 26.8028C147.867 25.6438 146.54 25.2585 146.531 25.1569C146.344 23.4889 146.445 22.2641 146.583 21.1764C146.617 20.8966 146.652 20.64 146.684 20.4034C146.715 20.1362 146.741 19.8983 146.76 19.7006C146.779 19.4976 146.783 19.3026 146.796 19.2245C146.815 19.1412 146.798 19.1333 146.991 19.4489C147.072 19.5705 147.174 19.727 147.395 19.9599C147.618 20.1941 147.96 20.4726 148.378 20.6791C148.786 20.887 149.278 21.0091 149.624 21.0373C149.949 21.0682 150.194 21.0431 150.327 21.0255C150.165 21.0739 149.067 21.7379 148.488 22.2717C147.597 23.0384 146.835 23.2584 146.052 24.2151C145.95 24.3419 146.473 24.6874 146.452 24.7371C145.954 26.1631 145.423 24.6518 145.033 24.6488C143.569 24.706 142.768 24.7573 141.747 26.4641C141.524 26.8437 142.211 29.2237 141.76 29.9059C141.198 30.7601 140.889 29.9605 140.3 30.8976C140.249 30.9787 140.616 31.2737 140.147 31.7732C138.021 34.0501 135.561 36.5747 133.469 39.2004C133.18 39.5605 134.131 39.5799 133.727 40.1029C131.83 42.5579 129.634 45.2273 127.407 47.3906C126.858 47.9216 126.755 47.2214 126.53 47.2501C125.161 47.4357 125.297 49.4167 125.165 49.6165C122.012 54.4217 118.282 56.9426 114.462 61.7127C114.264 61.9729 113.455 64.8421 111.7 64.7378C111.57 64.744 109.912 64.528 109.664 65.8996C109.648 65.9843 110.655 65.9972 109.61 66.7989C108.604 67.5623 107.133 69.2979 105.016 69.7769C104.319 69.9361 102.539 69.5891 101.043 71.3309C101.179 71.4278 98.0875 74.9426 96.0127 73.359C95.8768 73.2347 95.8464 72.7519 95.4641 72.4163C95.0817 72.0584 94.3854 71.9531 92.5656 72.0152C91.8493 72.0012 93.0172 72.7404 91.1162 72.4139C87.9693 71.7817 85.5314 68.853 83.5413 67.0214C83.1135 66.6296 81.2103 65.6257 81.4058 63.8317C81.4327 63.6162 81.8795 63.6932 81.933 63.3527C81.9541 63.2853 81.954 63.1998 81.9218 63.0886C81.1521 60.4328 79.8556 57.8981 79.4055 55.1851C79.2502 54.2335 80.264 54.4275 80.2083 53.4119C80.1484 52.3873 79.8338 50.4418 79.1648 49.5579C78.4959 48.6781 77.384 50.1424 76.8741 48.674C74.6732 42.265 74.22 35.6449 73.1954 29.1915C73.0464 28.2443 72.672 29.1153 72.4152 27.7073C71.4525 22.5288 69.6206 13.7055 69.838 9.4815C69.9951 6.18194 71.557 9.94416 71.3464 7.48576C71.2864 6.89107 70.7634 6.45708 70.2746 6.30281C69.7826 6.14109 69.4075 6.42854 69.5027 6.63711C69.5452 6.74159 69.6178 6.88571 69.7464 7.07492C69.8133 7.17211 69.8814 7.2663 69.995 7.39957C70.1368 7.56243 70.317 7.74752 70.5535 7.94558C71.0496 8.3444 71.6503 8.77759 72.816 9.08545C73.9923 9.39933 75.4255 9.2603 76.3969 8.86519C77.9263 8.25881 78.5255 7.4265 78.6994 7.24704C78.9182 6.98399 79.0005 6.83995 79.0374 6.77971C78.496 7.83663 77.567 9.22701 77.1169 11.1107C76.9946 11.6306 77.8083 11.3485 77.6974 11.7911C77.3176 13.3339 76.5451 14.8627 76.1676 16.3822C75.9981 17.0726 76.5301 17.1124 76.3207 17.7067C75.8168 19.1657 75.2363 20.4596 74.3589 21.8299C74.2785 21.9564 73.9022 20.8564 73.5685 21.9999C73.0421 23.809 71.9632 25.9836 71.8669 28.2628C71.8423 28.9312 72.9904 29.2628 71.823 30.4183C71.579 30.6589 70.2936 29.9259 71.0559 31.8375C71.1848 32.1509 72.0517 35.2952 70.6384 36.3219C70.267 36.593 68.8846 37.1633 68.8401 37.9783C68.8381 38.0907 69.5755 37.8516 69.4506 38.5061C68.9977 40.8135 68.2205 43.1493 67.6644 45.5346C67.5168 46.171 68.4471 45.451 68.2053 46.3949C67.5403 48.9962 66.2637 52.1395 65.0943 54.5639C64.6606 55.4606 64.3985 54.6201 64.3164 54.6662C62.9898 55.3831 63.9567 56.479 63.8729 56.8825C63.3606 59.3024 62.0275 60.7488 61.1413 62.8614C60.886 63.4555 61.6514 63.3348 61.6424 63.4748C61.5054 64.918 60.9721 63.5128 60.4693 64.1942C59.0491 66.0965 57.6919 68.4272 56.1536 70.5397C55.5718 71.3289 56.8296 70.9108 56.2869 71.6201C53.4341 75.5826 46.7702 80.9083 39.1911 79.6049C37.8823 79.3776 38.7911 78.9178 38.541 78.7589C37.7413 78.1952 36.723 78.0505 35.766 77.9636C35.1578 77.8237 34.6603 77.6565 34.2332 77.4969C33.8589 77.3644 33.5599 77.2499 33.2908 77.1394C32.7294 76.8978 32.4668 76.8027 32.2884 76.6985C29.5874 75.041 29.7312 74.1903 28.499 72.8319C23.1394 66.454 19.2465 58.468 16.0805 52.2459C12.0583 44.1898 9.42355 37.7642 5.53847 30.1839C5.2916 29.6991 4.86542 30.5195 4.64377 30.1051C4.1813 29.2288 3.73342 28.3498 3.28928 27.4559C2.18011 25.2395 1.0679 22.7525 0.186792 21.0762C0.0889811 20.8925 -0.00447373 20.7357 0.000124526 20.7423C0.0079948 20.7503 0.0339583 20.8025 0.215521 21.023C0.268084 21.0858 0.333623 21.1612 0.418665 21.2516C0.507018 21.3442 0.593745 21.4358 0.788806 21.6107C0.972215 21.7731 1.20738 21.9654 1.53537 22.1801C1.89677 22.4164 2.53837 22.7824 3.40104 23.022C4.16348 23.2679 5.87123 23.4333 7.25008 22.9754C8.63865 22.5509 9.61004 21.7947 10.2395 21.1308C11.2518 20.0238 11.4602 19.2993 11.5948 19.0014C11.7371 18.6277 11.7848 18.4184 11.8152 18.2953C11.8464 18.1627 11.8607 18.0778 11.867 18.0404C11.8912 17.8771 11.8691 18.043 11.8647 18.2101C11.8339 18.9882 11.8714 20.2507 11.9397 21.4252C11.9661 21.9014 12.6563 21.2004 12.723 21.9636C12.7449 22.1968 12.764 22.4485 12.7804 22.7175C12.8714 24.234 12.8417 25.9269 12.6751 27.318C12.5802 28.1105 11.9568 27.0575 11.8738 27.8593C11.6789 29.7306 11.6658 31.7195 11.8266 33.6106C11.8967 34.4135 12.5868 33.1884 12.6219 34.2246C12.8818 41.3462 13.3604 48.2183 13.1539 55.3541C13.1398 55.8403 11.7254 56.4213 12.1208 57.4247C12.5338 57.4565 13.0089 57.3985 13.4448 57.3831C14.191 62.8377 14.9385 68.2228 15.9835 73.5001C16.9232 78.2114 17.8594 82.9203 18.9159 87.6438C19.0141 88.0815 19.5961 87.1521 19.7897 87.9968C20.9046 92.8532 22.2178 97.4598 22.6754 102.598C22.7217 103.106 21.3348 103.189 21.8849 104.566C21.9846 104.816 22.6972 106.945 23.1248 107.433C23.1874 107.499 23.7069 106.945 23.9009 107.649C25.0054 111.689 25.9483 115.978 26.632 120.097C26.7442 120.773 25.9022 120.245 25.9761 120.727C26.4922 124.091 27.9669 127.549 28.2582 130.813C28.4538 132.996 27.1076 132.562 26.3223 133.99C26.2107 134.192 26.5724 135.48 25.9514 135.741C24.3901 136.417 22.4237 136.322 20.7825 137.117C20.4064 137.238 21.4394 139.073 20.1662 138.189C20.0808 138.139 19.3743 136.902 18.9719 136.66C18.6971 136.508 18.1586 137.095 17.7558 136.73C17.3449 136.335 17.7482 135.675 17.2169 135.029C16.6732 134.351 16.0262 134.924 15.5085 133.437ZM149.421 21.5963C150.111 20.4951 147.716 20.3714 148.259 21.4721C148.287 21.5281 149.387 21.6533 149.421 21.5963ZM68.1016 111.008C69.8019 111.84 70.6747 110.157 69.4502 109.5C68.2454 108.842 67.579 110.757 68.1016 111.008ZM51.9816 114.128C53.9206 114.674 53.7008 111.275 51.855 112.251C51.7473 112.307 51.8679 114.097 51.9816 114.128ZM24.5301 128.915C24.5057 128.947 24.7356 129.886 24.7702 129.892C25.6396 130.179 25.182 128.313 24.5301 128.915ZM36.098 118.14C36.7689 118.446 38.2671 117.555 37.4378 117.161C36.7686 116.843 35.2586 117.756 36.098 118.14ZM111.755 55.6C111.715 55.5905 111.213 56.0748 111.369 56.2028C111.871 56.6179 112.41 55.7789 111.755 55.6ZM10.1049 127.818C13.8456 126.064 17.2402 127.606 13.1548 129.211C12.414 129.51 14.3074 127.653 13.2848 127.871C11.3993 128.279 11.1006 130.407 8.98865 130.458C8.60017 130.466 9.87948 127.913 10.1096 127.811C10.108 127.813 10.1065 127.816 10.1049 127.818ZM152.315 21.0132C152.352 20.9822 152.375 20.0494 152.336 20.0032C151.571 19.5299 151.532 21.3909 152.315 21.0132ZM85.8518 49.8913C85.8984 49.8255 85.3572 47.6546 85.2833 47.603C83.7685 46.7961 84.8647 51.2166 85.8518 49.8913ZM136.961 84.4449C137.362 85.6884 137.043 86.939 135.861 87.4373C136.249 86.4468 136.59 85.4382 136.961 84.4449Z" fill="#FC4C02"/>
</svg>
