<svg width="129" height="112" viewBox="0 0 129 112" fill="none" xmlns="http://www.w3.org/2000/svg">
<path d="M33.7582 60.7991C32.0165 62.4159 29.445 64.1543 27.4196 65.3836C26.7904 65.7655 26.8133 65.204 26.3625 65.4571C25.4893 65.9466 24.8966 66.693 24.0151 67.1581C23.7238 67.309 23.6094 66.5354 23.313 66.7063C21.6737 67.6619 20.4345 68.9116 18.9177 70.0174C16.3505 71.8866 13.4625 74.1644 11.9765 75.7393C11.934 75.7795 11.9219 75.7863 11.9381 75.7431C11.9496 75.7043 12.0077 75.6043 12.1008 75.3309C12.1452 75.1965 12.1934 75.0262 12.2319 74.8087C12.2828 74.5276 12.3155 74.1666 12.2807 73.7487C12.2499 72.9564 11.7449 71.761 11.1238 71.1614C10.5729 70.5936 10.1124 70.3911 9.86257 70.2889C9.64245 70.2051 9.52506 70.1892 9.48578 70.188C9.41413 70.192 9.58787 70.2353 9.76839 70.2558C10.6336 70.3545 12.0804 70.2761 13.4673 70.1413C16.2616 69.8674 19.2762 69.3814 22.2813 68.8897C25.3758 68.3797 29.2777 68.1947 32.4599 67.3012C32.8315 67.1962 32.4933 66.6616 32.5559 66.5999C33.5446 65.6496 33.395 66.8913 34.1637 66.9047C37.2134 66.9558 40.4968 66.4255 43.3577 65.7833C44.5726 65.5114 43.1716 64.5245 44.5113 65.004C44.6049 65.0363 44.3703 65.6994 44.7226 65.7196C45.5173 65.7624 46.9663 65.4787 47.5813 65.4683C48.7299 65.4532 48.973 65.4254 50.0646 65.3553C51.1652 65.2923 52.4212 65.3982 53.6458 65.4564C54.3289 65.4849 54.9133 65.5318 55.6119 65.6181C56.115 65.6896 55.569 64.908 56.425 64.9968C57.2637 64.9944 59.6547 66.2669 60.1404 67.0634C60.6765 67.78 60.0285 67.8714 60.0528 68.0556C60.1744 69.4329 62.276 70.9632 62.3724 71.31C64.2736 76.591 62.4228 79.9592 61.7044 83.6397C61.0632 86.4271 60.4494 89.3463 59.6569 91.8247C59.1933 93.272 58.6937 94.5653 58.2602 95.8089C58.042 96.4392 57.8464 97.0344 57.7009 97.6047C57.6314 97.8739 57.5729 98.1584 57.5474 98.3457C57.5069 98.5286 57.5674 98.747 57.4929 98.3059C57.5039 98.3481 57.515 98.3899 57.5262 98.4314C57.603 98.7118 58.2517 98.2042 58.3447 98.5286C58.4689 98.9537 58.5871 99.3076 58.7102 99.6365C58.8515 100.016 58.9844 100.308 59.0944 100.521C59.2293 100.781 59.3246 100.905 59.3378 100.932C59.3501 100.957 59.1993 100.817 58.8985 100.739C58.6053 100.657 58.2989 100.716 58.2854 100.755C58.2574 100.793 58.4099 100.785 58.6504 100.685C59.108 100.508 59.7936 100.074 60.4854 99.5566C60.7572 99.3551 60.9213 100.133 61.2295 99.9491C63.16 98.8033 66.5758 96.2659 64.9654 93.4752C65.9816 92.1816 67.1493 90.5693 68.4366 89.5989C69.2622 88.9776 69.3834 90.1548 69.744 88.9826C69.8258 88.7182 69.1049 88.6846 69.2678 88.3134C69.9541 86.7505 71.0831 85.2641 71.6634 83.6505C71.7795 83.3226 71.2455 83.1124 71.2076 82.9765C70.92 81.8442 72.782 81.3837 73.0247 81.1701C74.8191 79.6035 75.4323 78.0084 76.5702 76.2103C76.841 75.7847 75.8773 75.8917 76.1192 75.4613C77.3696 73.2863 78.815 71.0935 80.9391 69.1561C81.4127 68.745 81.5116 69.602 81.7573 69.436C82.3325 69.036 82.4869 68.5779 82.6959 68.0976C82.8342 67.8317 82.9863 67.5656 83.236 67.3174C83.3674 67.1903 83.4896 67.0857 83.7188 66.9579C83.9651 66.8229 84.2647 66.6991 84.6472 66.6198C85.3121 66.5032 85.0592 67.1448 85.1858 67.1758C85.29 67.2096 85.3909 67.2403 85.4894 67.2684C86.203 67.8551 86.6186 66.6064 86.7923 66.5635C89.0693 65.9796 90.5378 67.3997 92.6649 67.3371C92.9245 67.3308 92.3906 66.5861 93.1235 66.6139C98.0424 66.8042 103.063 68.382 107.184 70.692C107.821 71.0486 107.14 71.3377 107.158 71.4154C107.445 72.6346 108.412 71.5756 108.652 71.6257C110.531 72.056 111.545 73.8533 113.417 73.0164C114.253 73.5415 115.08 74.0589 115.896 74.5638C116.288 74.8063 116.711 75.0658 117.093 75.2941C117.295 75.4137 117.462 75.5126 117.647 75.6156C117.728 75.6605 117.804 75.7013 117.858 75.7289C117.898 75.7524 117.957 75.7662 117.768 75.7064C118.525 75.9343 118.982 76.0618 119.684 76.2157C119.991 76.2801 120.21 76.3204 120.479 76.3521C120.593 76.3649 120.674 76.3688 120.71 76.3691C120.764 76.3724 120.722 76.3539 120.497 76.4133C120.434 76.4302 120.067 76.5372 119.719 76.8396C119.357 77.1327 119.018 77.704 118.943 78.1998C118.856 78.6899 118.954 79.0575 118.995 79.1892C119.035 79.3146 119.069 79.382 119.087 79.4159C119.142 79.5015 119.013 79.2991 118.832 79.1028C118.686 78.9365 118.455 78.6985 118.234 78.4842C118.028 78.2822 117.791 78.0591 117.528 77.8188C115.59 76.0569 113.373 74.1889 111.4 72.1078C111.33 72.0374 111.862 71.5931 111.72 71.4547C110.078 69.8306 109.807 70.9174 107.848 71.1037C107.352 71.1481 107.261 69.2143 107.244 69.0658C107.171 68.5109 108.058 67.9112 108 67.7736C107.501 66.662 105.759 69.4658 104.605 68.6759C104.572 68.6465 105.067 68.25 105.004 68.1337C104.809 67.7704 104.372 67.7635 104.192 67.3872C103.779 66.5195 104.446 65.0347 102.877 65.0943C102.678 65.1047 101.825 66.787 100.833 66.0048C100.439 65.6921 98.5771 64.4646 98.1295 64.013C97.6831 63.5625 98.3758 63.3049 98.3537 63.2583C97.4153 61.6543 98.1236 61.7371 98.0949 60.2887C98.0659 58.8451 96.6762 61.2915 96.2179 61.3573C95.7551 61.4191 95.104 60.1749 94.9889 59.8179C94.8715 59.4594 95.3967 59.3558 95.2506 59.0982C94.2569 57.3857 93.8114 59.7963 93.0721 59.8265C91.3424 59.9104 91.6235 57.5703 90.7074 56.672C90.4548 56.4254 90.4125 56.9761 90.1345 56.833C89.0597 56.2752 88.8207 55.3058 87.3656 54.9713C87.1022 54.8976 85.5009 55.2642 85.4283 54.0465C85.4271 53.878 85.9754 53.6482 85.6343 53.2357C85.1618 52.6498 84.0891 51.6345 83.3596 51.1879C83.2971 51.1509 83.2418 51.134 83.1914 51.1313C82.7878 51.0791 82.7168 51.9011 82.3362 51.1968C82.1553 50.8408 82.9927 50.9904 82.6444 50.3644C82.2845 49.7721 81.2394 48.3262 81.0133 47.6351C80.7592 46.9787 80.273 47.5296 80.212 47.4951C79.8045 47.2421 79.2979 45.6012 79.3518 45.442C79.3609 44.3164 79.67 43.311 80.0068 42.4932C81.7017 38.4271 83.8278 34.735 85.0033 30.4999C85.1127 30.1086 84.3787 30.1352 84.3888 30.0732C84.5808 28.6716 85.9287 30.3078 86.8248 29.5949C85.471 29.2661 85.898 28.8109 86.0778 27.8383C86.1633 27.3692 85.5719 27.4341 85.5342 27.3754C84.9944 26.4501 86.1486 26.3368 86.3932 26.2895C87.2931 26.1143 86.5737 25.3313 87.177 25.2072C87.7764 25.0822 88.2769 26.0199 88.573 25.1323C88.1893 24.7229 86.7374 24.9559 86.7703 24.2158C86.8957 21.4302 89.445 17.0164 90.1887 14.9963C90.9326 12.9941 91.0433 12.3002 91.5644 11.1592C92.4837 9.09765 91.358 9.60564 91.2464 8.24318C91.2455 8.2338 91.2446 8.22437 91.2437 8.2149C91.0388 7.03941 93.2518 7.95499 93.792 7.84564C94.0558 7.79318 94.0663 7.67609 94.0452 7.54256C94.0237 7.41185 93.9693 7.28637 94.1103 7.15722C94.3863 6.87876 94.7475 7.50674 94.8305 6.80697C94.8445 6.61188 94.7655 6.25691 94.5721 5.95466C94.3866 5.6313 93.9666 5.23142 93.5351 5.14518C93.3205 5.09354 93.1142 5.09982 92.9379 5.1388C92.7842 5.18302 92.6532 5.25104 92.5448 5.32676C92.3249 5.47958 92.2055 5.65893 92.1858 5.79477C92.0069 6.99098 92.8426 7.94097 91.7637 7.88506C91.6847 7.89147 91.6771 7.21931 91.3773 7.2778C89.0072 7.83563 86.6834 9.59663 84.3426 10.9215C84.024 11.1025 83.8409 10.3604 83.6494 10.4608C81.6269 11.5446 82.9937 11.9379 82.9007 13.7109C81.9954 12.2176 80.786 11.848 79.4846 12.97C78.7047 13.6446 79.3391 14.0918 79.1957 14.9287C79.1535 15.1799 78.268 15.2772 78.4078 15.6285C78.8619 16.7796 80.2317 17.287 78.5963 18.0721C78.5231 18.1055 78.2769 17.472 78.0551 17.6219C76.6215 18.59 77.2891 19.6233 76.041 20.9854C75.0656 22.0506 72.6778 23.2924 71.395 24.3516C70.0873 22.917 69.2424 24.3382 69.7272 25.7258C68.8844 26.4551 68.1324 27.2793 67.218 27.8865C66.9185 28.0817 66.7024 27.5137 66.6284 27.5C65.4594 27.2916 66.0445 28.5208 65.8602 28.7565C65.7431 28.9082 65.6419 29.0347 65.5297 29.1607C65.3832 29.3166 65.2535 29.446 65.1312 29.5561C63.2162 31.2055 60.9651 31.1219 58.6545 31.8357C58.5727 31.8639 58.2757 33.2115 57.6327 32.1504C57.6035 32.0768 58.5289 31.5735 57.306 31.373C56.0473 31.1662 54.1454 29.889 52.431 29.8938C52.0175 29.9022 50.6645 30.5444 50.268 29.4409C50.2163 29.2923 50.4753 28.983 50.421 28.7252C50.2509 27.9041 49.4583 29.043 49.4118 27.7501C49.3805 26.464 48.7133 25.1968 46.9537 25.2159C46.8975 25.2139 46.0841 26.0163 45.6458 25.7778C44.9429 25.3948 44.0421 24.6861 43.2984 24.3171C42.9409 24.1401 42.8656 24.8536 42.7983 24.8333C40.2483 23.9658 38.8322 22.5734 36.3452 21.1434C35.8838 20.8763 34.156 21.1067 33.5042 20.0579C32.8881 19.0863 34.4365 17.0757 33.2779 16.3131C33.0991 16.1865 32.8349 16.1044 32.4341 16.0699C31.9268 16.0275 30.9307 16.8134 29.9642 17.2952C28.9366 17.7812 28.299 17.9656 27.3451 16.8153C26.8913 16.8507 26.3456 16.9925 25.9586 17.3648C25.5732 17.7321 25.4141 18.1784 25.3128 18.576C25.1248 19.385 25.1235 20.1288 25.1329 20.8752C25.1338 20.8959 25.1457 20.9556 25.1503 20.9758C25.5564 22.9946 25.895 25.0166 26.8946 26.9582C26.9703 27.1066 28.2287 27.2898 28.3153 27.6659C28.4407 28.2212 27.9972 28.6632 28.0694 29.0614C28.3617 30.7436 29.2252 32.1176 29.5912 33.7085C29.7329 34.3176 29.1321 34.2594 29.2993 34.979C29.4674 35.6996 30.3142 35.9764 30.2386 37.0405C30.1784 37.8426 28.9231 38.986 29.02 39.9927C30.4718 39.6319 30.6268 40.3031 31.337 41.3832C31.4741 41.5904 31.9077 41.2068 31.9984 41.2976C32.3784 41.663 32.0744 42.18 32.4723 42.5218C32.568 42.6044 33.0614 42.4725 33.1674 42.5321C34.0853 43.0267 33.2992 44.4943 33.1626 44.7515C32.6415 45.719 33.3792 45.8968 33.2515 46.5625C33.1214 47.2197 32.5246 46.4556 32.5336 47.1763C32.5577 48.6868 33.1306 50.491 33.4815 51.9331C33.6229 52.5021 34.1822 51.9439 34.2178 52.0214C34.6955 53.1721 34.2859 54.5389 35.7638 54.9C32.5276 56.5249 36.2858 55.524 35.9226 57.4518C35.8902 57.6146 34.2722 57.9935 33.9548 57.5757C33.6333 57.1421 33.9801 56.2719 33.4447 55.6458C33.3223 55.5054 31.5816 54.9186 31.4567 54.8106C30.4946 53.9883 32.8566 53.2226 32.9763 53.1378C34.2412 52.1434 32.3124 51.3968 32.1186 51.1195C31.2304 49.8406 31.2412 48.5513 30.5507 47.4629C30.104 46.759 28.5127 47.1024 28.3956 46.49C27.9976 44.4291 29.9838 43.1109 27.5595 41.7306C27.0424 41.4365 25.4451 42.3221 26.3815 40.4779C26.4423 40.3677 27.3668 38.9247 26.4153 38.5204C26.2951 38.4687 25.7971 38.6101 25.7262 38.5174C25.2584 37.8859 25.5299 37.323 25.1257 36.6066C24.7252 35.9033 24.1851 35.0586 24.1145 34.1456C24.0691 33.5884 24.8142 32.6639 24.9722 32.349C25.4306 31.4538 24.1481 30.9977 24.8205 30.3362C25.4967 29.6728 26.9465 30.2038 27.1439 28.9033C25.8352 29.2167 24.4769 29.4837 23.1535 29.7726C22.4997 27.2112 22.2363 24.5846 21.4916 22.0345C21.4828 22.005 21.4696 21.9826 21.4527 21.9662C21.417 21.8095 21.3247 21.3476 21.3177 21.187C21.18 20.9265 20.6086 21.3148 20.5531 20.8666C20.4685 19.7959 20.4204 18.742 21.1504 16.7586C21.5239 15.8031 22.4286 14.2337 24.1469 13.3265C25.847 12.4417 27.2749 12.5265 28.1907 12.5741C30.9183 12.8677 32.2611 12.9031 33.4702 13.1501C33.4844 13.7529 33.7103 14.1597 34.0065 14.4332C34.7726 15.0146 35.8989 15.2809 36.7023 15.7285C37.14 15.9717 36.9438 16.3351 37.21 16.5994C38.2098 17.5904 38.206 16.0998 38.6266 16.0551C40.4316 15.8815 39.2412 18.7236 40.8723 19.4322C40.9573 19.4695 42.7223 18.5112 42.9096 18.4912C44.1141 18.348 42.8056 19.0773 43.3148 19.468C44.2391 20.1801 44.7708 20.8905 46.1656 21.0578C46.5774 21.1067 47.8549 20.6065 48.1582 21.6413C48.1982 21.7769 47.9088 22.2387 47.9642 22.3017C48.9978 23.4049 49.7792 21.8864 50.7298 21.7025C51.6787 21.5186 52.2504 23.0682 52.3352 23.4735C52.553 24.5267 51.7462 23.6243 51.6764 23.6848C50.8839 24.4503 51.7543 24.6541 52.3368 24.9949C51.7689 26.572 52.6928 26.8437 52.9361 25.3352C52.96 25.1702 52.4322 25.1194 52.3368 24.9949C53.5223 23.7171 54.4405 23.8735 54.9297 25.6604C55.1752 26.4928 54.4619 27.1737 56.0359 27.3063C56.7402 27.3453 56.763 26.1657 57.3523 25.9736C58.6453 25.5283 59.8482 26.6179 60.6583 26.2036C60.9163 26.0603 60.4698 25.5404 60.6094 25.4277C60.8748 25.1837 61.2645 25.316 61.5673 25.0405C61.5784 25.0236 61.6586 24.9309 61.753 24.7937C61.7889 24.7318 61.2275 24.3481 61.3998 24.1846C62.9933 22.6363 64.9546 21.307 66.8499 19.522C67.7843 18.6371 69.1904 16.8027 70.2168 15.9428C71.988 14.4488 74.7367 13.2279 76.0671 11.7347C76.9405 10.7598 76.2902 10.4572 76.4149 9.74916C76.6617 8.37032 79.1567 8.29717 79.5051 8.32413C79.5165 8.32368 78.7534 9.17216 79.4325 9.04124C80.1538 9.35528 79.4968 8.33516 79.5051 8.32413C79.7288 8.33343 81.5771 7.00922 81.8763 6.6211C82.0288 6.41279 81.5326 6.00856 81.6201 5.90896C82.6735 4.72709 83.8298 3.63011 85.2535 2.61141C85.9368 2.12478 86.7101 1.63354 87.69 1.15687C88.6225 0.752194 89.6523 0.157309 91.9573 6.64752e-05C92.1461 0.00232251 91.9128 0.710433 92.3326 0.716189C93.5392 0.664247 96.078 1.41392 97.2406 3.05254C97.5432 3.43331 97.7825 3.82735 97.9701 4.20803C98.1423 4.55829 98.2466 4.81643 98.3483 5.10415C98.5429 5.647 98.6618 6.23445 98.7361 6.60089C99.0166 8.12322 99.128 9.04221 99.1397 10.155C99.1478 10.2354 99.1546 10.3171 99.16 10.4003C99.2587 12.0918 98.7559 13.1769 97.3607 13.668C97.1903 14.7756 96.2164 16.1162 95.6383 16.8685C95.0562 17.6346 96.3166 18.1543 96.3168 18.242C96.3735 20.8598 95.189 21.9461 94.2582 24.3123C93.8156 25.4304 93.224 27.752 92.936 29.0267C92.7108 30.0359 92.2048 30.5151 92.0827 31.4754C92.0657 31.6054 92.68 31.6846 92.689 31.7292C93.0208 32.9673 91.7935 31.9949 91.4716 32.1124C90.3012 32.5372 89.6567 32.8238 89.6295 34.2471C89.6228 34.5745 91.3246 36.1477 91.2497 36.7253C91.1489 37.4739 90.5237 36.9543 90.4359 37.7445C90.4277 37.812 90.8762 37.9583 90.6945 38.4008C89.8558 40.459 88.7723 42.63 88.018 44.8122C87.9136 45.1087 88.7545 44.9898 88.6154 45.4217C88.5913 45.4965 88.567 45.5714 88.5424 45.6463C88.4695 45.8959 88.4757 45.9726 88.4956 45.8739C88.516 45.7806 88.5282 45.5033 88.4664 45.2447C88.4085 44.9832 88.2918 44.7786 88.2085 44.7233C88.1235 44.6638 88.0774 44.7344 88.0853 44.8809C88.1004 45.0417 87.6439 45.3088 87.5452 45.434C87.1509 46.0106 87.7769 45.9428 88.1702 45.8245C88.3324 45.7803 88.467 45.7416 88.4941 45.7561C91.087 47.1566 92.8827 49.9234 96.2547 51.5821C96.4483 51.6764 98.5785 51.3745 98.4529 52.8141C98.4447 52.9101 98.3035 54.375 99.3093 53.9996C99.3725 53.9762 99.3856 53.1823 99.9785 53.6714C100.578 54.1651 101.843 54.4945 102.315 55.6962C102.468 56.0782 102.395 57.5805 103.804 57.3027C103.899 57.2812 106.483 56.2431 106.045 57.8745C105.972 58.1424 104.944 59.4836 106.427 59.4466C106.712 59.4377 106.578 58.8909 107.212 59.0386C108.184 59.2621 108.951 60.3323 110.321 60.3602C110.559 60.3616 111.914 59.9021 111.99 61.0098C112.001 61.1829 111.513 61.5312 111.775 61.7885C113.012 63.0082 114.738 63.7495 115.941 65.082C116.374 65.5579 115.589 66.1167 115.982 66.6976C116.369 67.273 117.306 68.2417 118.105 68.315C118.906 68.3899 119.142 66.7564 120.076 67.3074C122.099 68.5455 123.784 69.8129 126.016 72.3375C126.281 72.6511 126.709 73.1697 127.075 73.7259C127.217 73.9411 127.589 74.5116 127.867 75.117C128.014 75.4338 128.162 75.7968 128.296 76.234C128.41 76.5884 128.672 77.6049 128.651 78.6259C128.787 80.7672 127.063 83.8259 125.237 84.8078C123.237 85.9568 122.739 85.8028 122.012 85.9549C121.678 85.9954 121.378 86.0123 121.102 86.0172C120.826 86.0224 120.558 86.0126 120.429 86.003C120.11 85.9826 119.818 85.9497 119.537 85.9097C117.439 85.5604 116.491 85.1558 115.139 84.7471C115.126 84.7429 115.113 84.739 115.101 84.7353C114.168 84.4384 114.039 84.3623 113.896 84.3594C113.761 84.3486 113.689 84.3833 113.593 84.4074C113.404 84.4551 113.103 84.4515 112.574 84.1629C109.242 82.2221 104.646 80.4249 102.478 78.4969C100.768 76.9332 103.554 77.2236 102.101 76.3211C101.378 75.8852 100.039 77.2384 99.8545 77.2391C97.9551 77.2355 96.9154 76.2279 95.2708 76.171C94.9346 76.1626 95.142 76.8908 94.8616 76.8779C93.9172 76.8437 92.9737 76.4257 92.079 76.417C91.6788 76.4159 91.7203 76.9422 91.362 76.8826C90.509 76.7504 89.7621 76.525 88.8926 76.0655C88.8106 76.024 89.3208 75.3545 88.6622 75.3554C88.0058 75.3608 87.2406 75.2271 86.4647 75.293C87.4281 75.1587 87.9035 74.8375 88.0256 74.8081C88.2013 74.7349 88.2264 74.777 88.251 74.8866C88.2578 75.0901 89.1379 75.8775 88.186 75.7095C87.977 75.6931 86.9837 74.6257 87.4301 76.052C87.5006 76.2812 87.9728 78.454 86.6188 78.5522C86.2697 78.5621 84.983 78.3766 84.8549 78.9137C84.8423 78.9873 85.5294 79.1061 85.3546 79.4914C84.7621 80.7953 83.865 82.1241 83.2388 83.55C83.0713 83.9338 83.9593 83.7466 83.6913 84.3087C82.951 85.8628 81.7086 87.6293 80.6472 89.006C80.2575 89.5081 80.0083 88.8521 79.9334 88.8609C78.7196 88.997 79.6213 90.0485 79.5598 90.3006C79.1618 91.8583 78.0242 92.5488 77.4084 93.8626C77.237 94.2236 77.9179 94.3124 77.924 94.409C77.9559 95.3958 77.3212 94.2835 76.9425 94.6593C75.8695 95.7226 75.0277 97.1407 74.2632 98.4364C73.9765 98.922 74.9338 98.795 74.6655 99.231C73.0924 101.785 71.1949 104.383 68.465 106.684C67.9466 107.11 67.8387 106.417 67.6516 106.426C66.3878 106.458 66.0771 108.342 65.7627 108.72C64.5349 110.261 63.6437 110.405 61.0939 111.289C59.488 111.841 56.5715 111.953 54.3081 110.849C51.9621 109.763 50.6415 108.114 49.8755 106.997C48.2285 104.434 47.8307 102.69 47.3526 100.761C47.1468 99.8895 47.1134 99.175 47.1109 98.6588C47.1107 98.2027 47.1386 97.8069 47.1772 97.4392C47.2447 96.8139 47.3538 96.2373 47.4434 95.8272C47.6419 94.9166 47.853 94.1951 48.0541 93.5359C48.4673 92.1948 48.8768 91.0467 49.2435 90.0021C51.2141 84.4243 53.1215 80.1055 53.161 75.9813C53.1569 75.7404 52.4098 75.967 52.3951 75.7724C52.368 74.6979 51.9883 74.102 52.4064 74.8072C52.6174 75.1265 53.1755 75.5437 53.4729 75.6424C53.7837 75.762 53.7801 75.7084 53.5182 75.7329C53.1537 75.7413 52.761 75.7632 52.3445 75.801C52.0676 75.8259 52.4798 76.518 52.0549 76.5824C51.1721 76.7204 49.9683 76.7712 48.9574 76.6473C48.4676 76.5878 49.0521 75.9199 48.5549 75.8735C47.373 75.7682 46.105 75.8802 44.9165 76.1661C44.4063 76.2904 45.29 76.8905 44.6199 76.997C40.0593 77.7473 35.4711 78.7838 30.4623 78.8401C30.1187 78.8441 29.5434 77.4647 28.8876 77.8842C28.915 78.2938 29.0128 78.7623 29.0758 79.1932C25.6083 80.0117 22.0818 80.6701 18.4035 81.1929C16.5354 81.4532 14.6633 81.6863 12.5383 81.819C11.5156 81.8739 10.3378 81.9337 8.86923 81.8207C8.03112 81.734 7.25166 81.7001 5.72631 81.1657C5.12733 80.9461 3.8325 80.3793 2.74731 79.2608C1.4043 77.997 0.538574 75.6175 0.62292 74.0062C0.668053 72.8997 0.476537 73.2886 0.262664 73.4158C0.161356 73.4821 0.0604531 73.4831 0.0165625 73.187C-0.00429527 73.0403 -0.00907182 72.8196 0.0246562 72.5186C0.0565028 72.234 0.101052 71.9787 0.203536 71.6261C0.89962 69.5127 1.46927 68.9331 2.06374 68.0878C4.89933 64.6289 6.90956 62.9776 9.7788 61.3188C10.0949 61.1458 10.8606 62.2875 11.5067 61.4624C11.6285 61.3069 12.6926 60.1675 12.8127 59.6819C12.8266 59.612 12.1959 59.3079 12.5742 58.9673C14.7552 57.0188 17.2017 55.2286 19.6968 53.742C20.0991 53.5041 20.1356 54.3427 20.426 54.1778C22.4867 53.0009 24.1618 51.0333 26.3034 50.1522C27.7382 49.5652 28.0167 50.8352 29.3516 51.2639C29.5436 51.3214 30.2804 50.7857 30.7304 51.2881C31.8586 52.5533 32.6373 54.2907 33.8816 55.6072C34.1474 55.8923 34.8678 54.8104 34.8624 55.9982C34.8594 56.0796 34.3475 56.8671 34.372 57.2504C34.387 57.5168 35.0209 57.8913 34.948 58.3034C34.8737 58.7163 34.253 58.4715 34.0531 59.045C33.8568 59.621 34.5046 60.1026 33.7582 60.7991ZM93.0275 20.2395C92.1499 20.808 94.3804 21.6826 94.118 20.6584C94.1025 20.6081 93.0711 20.2098 93.0275 20.2395ZM23.9856 24.1274C24.725 22.8186 23.038 22.5199 22.4462 23.457C21.8573 24.401 23.7617 24.5248 23.9856 24.1274ZM27.658 34.5976C28.1261 33.1721 24.8045 33.8912 25.8223 34.9946C25.8806 35.0596 27.631 34.681 27.658 34.5976ZM26.6605 53.7697C26.6883 53.7882 27.2295 53.4056 27.2233 53.3706C27.0348 52.5539 25.9512 53.3208 26.6605 53.7697ZM31.4026 44.9376C31.7445 44.4512 30.9316 43.5016 30.5119 44.1243C30.1748 44.6268 30.9811 45.5561 31.4026 44.9376ZM91.3543 55.6989C91.3436 55.7351 91.7193 56.0401 91.8281 55.8701C92.1741 55.32 91.5241 55.0843 91.3543 55.6989ZM36.6112 62.955C35.4722 60.2974 37.6118 57.8711 38.3769 60.5687C38.5362 61.0712 37.1079 59.8995 37.1416 60.6094C37.2253 61.9495 39.1803 61.9137 38.9093 63.4838C38.8593 63.7706 36.6693 63.1113 36.6055 62.9522C36.6074 62.9532 36.6093 62.9541 36.6112 62.955ZM90.1523 19.7775C90.1177 19.7815 89.8794 20.3998 89.9053 20.421C90.5127 21 90.9905 19.7627 90.1523 19.7775ZM113.192 72.5883C113.184 72.6641 114.38 73.6161 114.444 73.5889C115.828 73.0623 113.406 71.1272 113.192 72.5883ZM71.3404 24.3321C71.3692 25.3606 70.7835 26.045 69.7301 25.7243C70.2563 25.2919 70.809 24.7739 71.3404 24.3321Z" fill="#FC4C02"/>
</svg>
