<svg width="145" height="307" viewBox="0 0 145 307" fill="none" xmlns="http://www.w3.org/2000/svg">
<path d="M47.0168 277.416C44.9189 273.333 42.6593 267.705 41.1503 263.333C40.6744 261.96 41.3502 262.472 41.0437 261.522C40.4433 259.657 39.5629 258.056 39.0269 256.193C38.8517 255.575 39.7709 256.064 39.5731 255.421C38.4869 251.902 37.0924 248.745 35.9411 245.205C33.7223 238.373 31.6356 231.545 29.6569 224.711C26.6159 214.187 23.8027 203.648 21.1216 192.876C19.6606 187.011 18.435 179.764 16.6892 173.781C16.4845 173.082 16.0156 173.644 15.9353 173.521C14.6953 171.589 16.0236 172.008 15.8418 170.594C15.1186 164.983 13.7448 158.892 12.3283 153.665C11.7246 151.441 11.0898 153.95 11.2225 151.545C11.2307 151.379 11.9692 151.811 11.8965 151.181C11.7283 149.749 11.0332 147.125 10.8451 146.029C10.4863 143.924 10.404 143.573 9.9873 141.598C9.42259 138.892 9.05137 135.606 8.32054 132.734C8.16199 132.117 7.70102 133.07 7.39185 132.099C7.2578 131.677 7.09209 130.942 6.94701 130.175C6.75315 129.153 6.59749 128.076 6.5838 127.556C6.55984 126.638 7.1289 126.922 7.21196 126.743C7.92139 125.286 6.02393 122.46 5.92295 122.075C4.06806 114.995 3.87508 108.677 3.01577 101.889C2.36165 96.7254 1.54835 91.2095 1.21417 86.2601C0.820912 80.3576 0.938674 75.3357 0.806061 69.5862C0.793991 68.9781 0.0465423 69.6988 0.0311036 68.9555C-0.123873 61.0746 0.278981 53.1465 1.68474 45.348C1.82782 44.5642 2.36752 45.6561 2.55023 44.8819C3.60859 40.1175 6.28047 32.9769 4.21758 29.4927C5.10275 26.2811 6.39129 22.4124 7.9947 19.805C9.03746 18.1205 9.02473 20.1281 9.60935 17.8386C9.75177 17.3157 8.89802 17.72 9.16014 16.9519C9.29447 16.5622 9.43867 16.1756 9.59068 15.793C10.727 12.9413 12.3937 10.0903 14.0994 7.40778C14.4937 6.79066 13.9369 6.58907 13.9895 6.35975C14.4778 4.36151 17.7809 3.1986 18.3296 2.94879C19.0757 2.51992 19.7818 2.14042 20.426 1.79571C22.0229 0.906675 24.2092 -0.140097 26.5513 0.0155801C28.8464 0.153662 30.6363 1.03084 32.2375 2.02506C33.1317 2.60716 32.483 1.27402 33.368 1.83305C33.7128 2.05689 34.0506 2.28881 34.3858 2.52979C38.1291 5.20537 41.5127 8.56946 44.1059 12.1671C44.7269 13.0363 43.6035 12.6955 43.871 13.1298C45.0224 15.0336 46.2947 14.6928 47.3268 16.6012C47.5408 17.0028 46.9392 17.1102 46.9362 17.2124C46.8703 18.7943 48.5898 18.9707 48.7969 19.2408C51.3703 22.582 51.3555 25.6093 53.177 29.0993C53.3947 29.5226 53.5962 28.2523 54.1689 29.467C57.9758 37.581 60.2318 46.8016 61.2235 55.4382C61.3774 56.7809 60.6877 55.9256 60.639 56.0212C59.8799 57.5475 61.364 58.2013 61.4857 58.6287C62.4063 61.9966 61.6812 65.3457 63.5565 67.4875C64.6503 81.1631 65.3855 94.7567 65.3068 107.993C65.2971 107.997 65.2858 107.949 65.2368 107.843C65.2108 107.789 65.1813 107.732 65.1227 107.644C65.0566 107.545 64.9606 107.432 64.8389 107.332C64.26 106.885 63.8139 107.039 63.8047 107.055C63.7602 107.09 63.9007 107.07 64.0224 107.032C64.1483 106.995 64.3152 106.928 64.5098 106.832C64.6367 106.77 64.7804 107.477 65.047 107.339C68.584 105.114 67.2513 104.674 68.4022 101.862C68.7159 101.116 71.3098 100.682 71.5475 100.596C72.3276 100.392 72.5397 101.602 72.7595 101.492C74.5886 100.514 71.9845 98.4688 73.8283 96.52C73.8911 96.4614 74.0856 97.1398 74.2874 97.0139C74.8999 96.6406 75.1819 95.9871 75.8078 95.6227C77.2363 94.7986 78.7848 95.4871 79.714 93.0994C79.8301 92.7934 78.1328 91.8793 79.8251 90.1611C80.4802 89.5018 83.3026 86.3519 84.1955 85.5465C85.0707 84.7619 84.9779 85.7615 85.0531 85.7175C87.7777 83.8992 87.2303 84.9946 89.1633 84.6191C91.1034 84.2288 88.7309 82.671 88.9385 81.9758C89.158 81.2687 91.1922 80.004 91.7584 79.7205C92.3172 79.4451 92.115 80.2379 92.5573 79.9431C95.4485 78.0168 92.5215 77.9121 92.9423 76.7871C93.9371 74.1265 96.8599 74.0078 98.6289 72.3783C99.1105 71.9342 98.4012 72.0072 98.762 71.5481C100.193 69.738 101.61 69.1562 102.946 66.8388C103.162 66.4618 103.695 64.0503 105.297 63.6802C105.526 63.6289 105.528 64.3851 106.282 63.7485C107.413 62.7931 109.296 60.9572 110.258 59.692C110.964 58.7621 109.428 59.1391 110.628 58.2618C111.162 57.8726 110.693 59.0893 111.666 58.33C112.635 57.5735 114.769 55.3196 115.581 54.46C116.39 53.6009 115.476 53.6132 115.511 53.5144C115.733 52.925 117.095 51.0839 117.237 50.9421C118.354 49.7848 119.488 48.6631 120.625 47.5768C123.729 44.7001 126.926 41.9159 131.369 40.5948C133.549 39.9215 136.571 40.3644 138.277 42.1715C140.005 43.8808 140.841 45.9584 141.571 47.9722C141.6 48.0535 141.628 48.1349 141.656 48.2165C141.913 48.9673 142.414 48.2669 142.46 48.3794C143.482 50.9659 141.166 49.366 141.029 51.3037C142.308 50.7167 142.355 51.8619 142.834 53.7008C143.062 54.5965 143.507 54.0162 143.576 54.0894C144.605 55.3302 143.666 56.4393 143.48 56.701C142.794 57.6717 143.807 58.5585 143.32 59.2152C142.833 59.8471 141.975 58.5321 142.087 60.2951C142.607 60.7765 143.837 59.3607 144.112 60.7394C145.284 66.0268 143.122 75.7077 142.116 79.7021C141.191 83.7495 140.927 85.0453 140.15 87.3423C138.695 91.4425 140.038 90.1654 139.686 92.8971C139.301 95.6322 137.434 93.6497 136.833 93.8685C136.235 94.0737 136.607 94.6266 136.195 94.9896C135.783 95.3496 135.77 94.2761 135.327 95.2925C134.896 96.2894 134.759 99.4345 135.122 99.9806C135.899 101.142 137.488 100.26 136.076 102.89C135.994 103.04 135.602 102.309 135.317 102.893C133.069 107.541 130.976 112.461 128.479 116.94C128.135 117.554 127.764 116.697 127.557 117.05C125.374 120.737 127.074 119.826 127.241 122.51C125.905 121.294 124.414 122.003 122.981 124.891C122.118 126.616 122.939 126.655 122.848 128.019C122.819 128.433 121.738 129.415 121.938 129.799C122.592 131.058 124.347 130.503 122.342 133.237C122.252 133.356 121.906 132.648 121.638 133.079C121.115 133.913 120.826 134.58 120.636 135.191C120.185 136.627 120.301 137.74 119.181 139.978C117.939 142.472 114.806 146.413 113.059 149.042C111.43 147.992 110.276 150.732 110.752 152.484C109.617 154.193 108.476 156.111 107.236 157.66C106.806 158.199 106.585 157.513 106.487 157.552C104.964 158.133 105.557 159.585 105.353 159.98C103.082 164.245 100.02 166.87 98.0898 171.127C98.0233 171.276 98.9466 172.298 97.4233 172.699C97.3221 172.721 97.732 171.143 96.4087 172.841C95.0794 174.549 92.0561 177.316 90.6876 180.053C90.3689 180.702 90.0698 182.839 88.4876 183.44C88.2735 183.521 88.1076 183.11 87.7619 183.197C86.653 183.48 87.4008 184.721 85.8285 184.818C84.2465 184.927 82.1817 186.082 80.8686 188.894C80.8251 188.982 81.1946 190.223 80.5784 190.929C79.5766 192.075 78.0194 193.562 77.0092 194.755C76.5174 195.336 77.3438 195.401 77.2673 195.51C74.2536 199.616 71.4284 201.944 67.7235 205.919C67.0618 206.626 65.9718 209.263 64.3009 210.357L64.3308 210.315C64.2841 210.356 64.2368 210.395 64.1886 210.433C62.4014 211.841 60.7164 208.274 58.8654 212.829C58.0981 214.7 60.3983 218.967 56.7438 220.876C53.7146 227.019 49.5565 231.98 46.904 238.329C46.7828 238.617 47.323 240.048 46.9622 240.671C46.4227 241.599 45.6707 241.84 45.2646 242.512C43.5924 245.247 42.6065 248.103 41.136 250.804C40.5693 251.852 40.2546 251.228 39.5915 252.465C38.9396 253.687 39.1669 254.886 38.0159 256.42C37.1336 257.603 35.1453 258.234 34.1673 259.904C35.4958 260.596 34.8935 261.792 34.3018 264.064C34.1861 264.508 34.8597 264.279 34.8296 264.5C34.7181 265.403 34.0061 265.945 33.9472 266.81C33.9312 267.022 34.3957 267.235 34.4097 267.418C34.5486 268.977 32.6186 270.617 32.2875 270.903C31.0172 271.997 31.3722 272.903 30.6763 273.857C29.9781 274.825 30.2563 273.078 29.598 274.272C28.2374 276.738 27.1021 280.156 26.2088 282.85C25.8545 283.928 26.7413 283.4 26.7056 283.559C26.1567 285.825 24.7999 287.9 25.7634 289.509C21.9532 290.138 25.7004 290.949 24.2171 293.986C24.1004 294.225 22.4048 294.164 22.4123 293.115C22.421 292.065 23.3098 290.698 23.3184 289.241C23.3176 288.896 22.3488 286.618 22.3378 286.332C22.2221 284.125 24.6905 284.581 24.8503 284.518C26.6119 283.787 25.7455 281.062 25.8405 280.434C26.2482 277.588 27.4192 275.433 27.9187 273.103C28.2571 271.567 26.8006 270.838 27.3123 269.706C29.0218 265.982 31.6518 265.637 31.4337 261.352C31.3922 260.441 29.4394 260.411 31.946 258.348C32.1034 258.217 34.1904 256.798 34.0116 255.323C33.9893 255.136 33.5216 254.914 33.5745 254.706C33.9436 253.309 34.7097 252.691 35.2274 251.22C35.7209 249.798 36.3062 248.007 37.2562 246.564C37.8382 245.673 39.3095 244.951 39.7513 244.623C41.0141 243.692 40.7405 241.847 41.8802 241.473C43.0281 241.093 43.3102 243.206 44.8847 241.431C43.7457 240.711 42.6248 239.883 41.5033 239.114C43.9683 234.704 46.7931 230.603 49.2795 226.202C49.5828 225.662 48.6391 225.847 48.9495 225.258C50.278 222.747 51.9755 220.882 53.3032 218.252C54.324 216.222 54.9477 213.698 56.0232 211.551C57.5637 211.201 58.6847 209.381 59.7969 207.538C59.8677 207.427 60.0884 207.106 60.1732 207.006C60.6405 206.422 61.1145 205.831 61.5772 205.33C62.1882 204.668 62.4671 204.977 62.9845 204.566C64.9183 203.032 63.1493 203.026 63.4149 202.378C64.5573 199.615 67.0622 201.426 69.1669 198.855C69.2832 198.714 69.4353 196.02 69.5531 195.726C70.2798 193.858 70.1922 195.859 71.0476 195.049C72.6195 193.558 73.8847 192.686 75.1427 190.465C75.5141 189.808 75.8615 187.817 77.3758 187.243C77.5745 187.167 77.9239 187.595 78.0445 187.501C80.2089 185.741 78.923 184.617 79.4751 183.044C80.0054 181.498 82.4284 180.383 82.9954 180.219C84.4798 179.778 82.6722 181.215 82.6973 181.319C82.984 182.589 83.9401 181.137 84.854 180.137C86.2751 181.038 87.3659 179.512 85.7799 179.114C85.6046 179.074 85.0796 179.979 84.854 180.137C84.3038 178.205 85.4094 176.485 88.0111 175.641C89.2322 175.238 89.2715 176.567 91.0074 173.807C91.7819 172.565 90.5243 172.317 91.0521 171.101C92.2483 168.335 95.3771 165.882 96.9844 163.314C97.5725 162.376 96.4381 162.891 96.8191 162.24C97.8157 160.527 99.2058 159.346 100.125 157.554C100.208 157.391 99.4134 157.39 99.755 156.868C102.312 152.931 104.874 149.722 107.432 145.533C108.667 143.519 110.494 139.671 111.749 137.572C112.765 135.882 114.01 134.101 115.209 132.303C116.6 130.219 117.91 128.162 118.681 126.361C119.623 124.163 118.794 124.337 118.843 123.229C118.937 121.091 121.83 118.649 122.247 118.321C122.262 118.311 121.525 120.226 122.299 119.385C123.209 119.112 122.24 118.343 122.247 118.321C122.523 118.117 124.367 114.473 124.575 113.676C124.692 113.246 124.021 113.217 124.092 112.997C125.789 107.805 127.678 102.751 129.783 97.7115C129.827 97.6254 130.437 97.996 130.533 97.79C131.883 94.8991 131.697 92.7 131.962 90.0842C132.218 87.477 132.901 85.5763 134.44 84.3863C134.775 82.4735 135.897 79.8627 136.509 78.3577C137.13 76.8265 135.817 76.3775 135.816 76.2365C135.674 71.8361 136.743 69.496 137.027 65.0829C137.179 62.9909 136.824 58.8961 136.358 56.7732C136.012 55.0993 136.138 54.0249 135.585 52.5485C135.51 52.3514 134.97 52.6978 134.933 52.6414C133.82 51.1858 135.444 51.5936 135.609 51.1787C135.813 50.646 135.97 50.181 136.038 49.7156C136.182 48.934 136.006 48.0514 135.226 47.2447C135.09 47.1042 134.414 47.08 133.842 47.2686C133.258 47.4383 132.87 47.8856 132.948 48.0166C133.212 48.3554 133.448 47.6287 133.722 47.8784C133.731 47.8937 133.722 48.375 133.868 48.3534C134.099 48.2178 132.684 48.5363 131.344 49.4221C129.956 50.2821 128.439 51.5283 127.074 52.891C126.698 53.266 127.708 53.3204 127.173 53.8757C127.134 53.9169 127.094 53.9584 127.054 54.0003C124.347 56.8265 121.334 59.8729 118.443 62.3942C117.717 63.0241 117.754 62.2289 117.498 62.2715C115.934 62.545 115.68 64.7975 115.493 65.0329C111.075 70.6586 106.473 73.8216 101.983 79.6105C101.736 79.9315 100.77 83.1675 98.9174 83.3386C98.7896 83.3548 96.9457 83.4726 96.7811 84.9625C96.7722 85.0543 97.8291 84.8741 96.7897 85.9198C95.763 86.9516 94.489 89.0164 92.5939 90.0245C91.9799 90.3606 90.0474 90.5835 89.4916 92.7158C89.464 92.8529 89.1742 96.6071 87.2858 96.3083C86.972 96.2619 85.8705 94.9684 84.9376 97.2665C84.7656 97.7018 85.5779 97.3742 84.9748 98.3779C84.0416 99.9282 82.0922 101.37 81.1499 103.464C80.9581 103.862 80.7073 105.795 79.1166 106.189C78.8733 106.245 78.7426 105.57 78.2101 106.029C75.6032 108.226 73.6413 110.925 69.8593 113.296C69.115 113.742 68.7905 113.622 68.3912 113.546C68.2003 113.5 68.0079 113.451 67.7291 113.466C67.4088 113.492 67.2264 113.516 66.2951 113.811C65.9668 113.906 65.5775 114.005 65.0761 114.074C64.4377 114.163 63.4568 114.24 62.2691 113.871C61.0159 113.557 59.4274 112.207 58.9231 111.081C58.4431 110.148 58.3026 109.322 58.2504 108.644C58.238 107.511 58.1333 106.134 57.8218 105.374C57.3232 104.097 55.9611 105.618 55.7277 103.648C54.7695 95.2195 55.4216 87.1381 54.956 79.0524C54.8878 77.8633 54.4446 78.889 54.3003 77.1337C53.8204 70.6342 51.9316 59.788 51.8381 54.2166C51.7937 49.7108 53.6106 55.0263 53.2496 51.6256C53.0637 49.9708 50.9986 48.6539 50.8518 48.2951C49.3881 44.7432 49.3426 42.0221 47.9971 38.8921C47.717 38.2519 47.3042 39.1252 47.0729 38.5824C46.2759 36.7351 45.7715 34.6766 44.9375 32.9612C44.5613 32.1959 44.1523 32.5577 43.8592 31.8392C43.142 30.1192 42.5877 28.5798 42.1132 26.7648C42.0682 26.5973 43.1925 27.2485 42.5211 26.0345C41.4343 24.084 40.2959 21.4671 38.3338 19.7494C37.7459 19.2426 36.816 19.9664 36.4278 18.2159C36.3415 17.8563 37.7144 17.2198 35.5341 16.6386C35.1604 16.5059 31.8646 15.4796 31.4686 13.7167C31.3678 13.2428 31.3537 11.6697 30.5322 11.2421C30.42 11.1893 30.3902 11.9892 29.779 11.5766C29.3154 11.2633 28.8489 10.944 28.3762 10.6239C27.618 10.1144 26.895 9.6868 26.4095 9.49338C26.1706 9.39581 26.0048 9.36329 25.9731 9.38021C25.9364 9.39622 26.0589 9.45326 26.2314 9.47889C26.4819 9.50352 26.1491 10.2264 26.6123 10.2081C27.0031 10.1612 26.8897 10.1403 26.3038 10.54C24.627 11.6444 23.5307 12.5483 22.3829 13.7933C21.801 14.4379 21.7167 13.6347 21.6326 13.6462C20.2051 13.9437 20.9381 15.2681 20.8187 15.6065C20.2385 17.2051 19.3776 18.4048 18.6415 19.8272C18.3744 20.345 18.1242 20.8983 17.9192 21.5199C17.7182 22.1343 18.4707 21.9429 18.4747 22.0826C18.4959 23.5193 17.8106 22.1817 17.3859 22.9436C16.2014 25.0779 15.4215 27.7358 14.8571 30.1937C14.6524 31.0951 15.6167 30.2739 15.4275 31.08C14.333 35.8445 13.3811 40.9409 12.3999 45.7561C12.2144 46.6651 11.7278 46.0226 11.5782 46.1996C10.5289 47.4528 11.553 49.51 11.6286 49.9798C11.9742 52.0627 11.4222 52.8366 11.3964 54.6435C11.2566 63.5245 11.115 74.5756 11.5084 83.0981C12.0174 94.1904 12.5601 102.826 14.384 113.367C14.4998 114.028 15.1252 113.241 15.2347 113.808C16.1293 118.554 16.9104 123.245 17.8477 127.985C18.3723 130.638 18.9353 133.313 19.5733 135.97C19.7186 136.581 20.2221 135.55 20.4788 136.526C21.0075 138.512 21.5187 141.073 21.7437 143.157C21.8545 144.171 20.9723 142.97 21.0962 143.99C21.3857 146.371 21.8914 148.872 22.5431 151.237C22.8223 152.243 23.1776 150.549 23.4856 151.869C25.6008 160.844 27.8382 169.618 29.2281 178.881C29.3227 179.513 28.0417 180.425 28.652 181.672C29.0715 181.67 29.5337 181.545 29.9659 181.48C33.5391 194.417 36.5777 207.366 40.4953 220.181C40.6604 220.718 41.1114 219.561 41.4343 220.597C41.4724 220.719 41.5105 220.84 41.5487 220.961C43.4081 226.863 45.4899 232.481 46.9189 238.666C47.0646 239.289 45.6702 239.461 46.5104 241.153C46.6604 241.459 47.8237 244.061 48.3623 244.637C48.4396 244.714 48.8521 244.004 49.1938 244.851C51.1703 249.778 53.1248 254.98 54.8635 260.013C55.1422 260.824 54.1572 260.253 54.3525 260.837C55.7379 264.97 58.1529 269.079 59.3334 273.136C60.1232 275.855 58.6253 275.404 58.1985 277.241C58.1388 277.502 58.8438 279.092 58.2712 279.456C56.8328 280.375 54.798 280.384 53.3066 281.453C52.9849 281.683 54.342 283.626 52.9115 282.765C52.8141 282.704 51.8224 281.298 51.3586 281.051C51.0371 280.879 50.6353 281.642 50.1311 281.221C49.6272 280.799 49.8752 279.967 49.1632 279.21C48.4482 278.454 47.9202 279.172 47.0168 277.416ZM139.04 71.4154C139.852 69.9901 137.49 69.5449 137.891 71.1879C137.913 71.2669 139 71.4878 139.04 71.4154ZM48.3607 231.534C50.2878 230.287 49.6279 228.33 48.2101 229.158C46.8011 229.976 47.7704 231.924 48.3607 231.534ZM38.9705 250.423C40.7964 248.691 37.9564 246.799 37.3964 249.384C37.3621 249.536 38.8637 250.526 38.9705 250.423ZM55.0231 271.088C55.002 271.119 55.4909 272.272 55.5318 272.285C56.4982 272.576 55.5228 270.278 55.0231 271.088ZM30.8797 269.737C31.5855 269.225 31.9331 267.06 31.0482 267.681C30.3333 268.179 29.9965 270.377 30.8797 269.737ZM99.5341 73.1193C99.4909 73.1135 98.8616 73.7532 99.0228 73.8757C99.5421 74.2697 100.251 73.225 99.5341 73.1193ZM21.6233 304.034C21.9975 298.679 25.2606 296.005 24.3777 301.492C24.2369 302.5 23.6726 299.242 23.3091 300.507C22.6401 302.874 24.3534 304.468 23.4156 306.892C23.2396 307.338 21.5844 304.356 21.6197 304.024C21.6209 304.028 21.6221 304.031 21.6233 304.034ZM141.992 70.8523C142.029 70.8235 142.176 69.5875 142.145 69.5565C141.45 68.8269 141.158 71.2909 141.992 70.8523ZM64.3576 107.606C64.412 107.551 64.2625 104.677 64.2017 104.596C62.8511 103.175 63.1487 109.001 64.3576 107.606ZM112.989 149.058C112.93 150.63 112.154 152.056 110.756 152.479C111.527 151.344 112.236 150.209 112.989 149.058Z" fill="#FC4C02"/>
</svg>
