<svg width="364" height="383" viewBox="0 0 364 383" fill="none" xmlns="http://www.w3.org/2000/svg">
<path d="M86.6125 177.097C82.7129 176.083 77.8908 176.021 72.9325 177.265C70.3264 177.904 67.8598 178.622 65.6556 179.343C63.4785 180.076 64.4056 179.262 62.91 179.776C59.977 180.814 57.4733 182.253 54.7069 183.562C53.7867 184.001 54.564 182.793 53.6034 183.272C48.3476 185.932 43.8818 189.382 39.361 193.289C25.5885 205.261 15.6213 222.172 11.6941 239.935C10.5564 243.695 15.911 248.683 22.5678 250.559C26.4354 251.781 30.3904 252.799 34.4104 253.623C44.3871 255.777 56.8002 256.995 67.8383 257.107C69.1455 257.139 68.3981 256.512 68.6494 256.476C72.6343 255.966 71.2392 257.062 73.8747 257.482C76.5855 258.215 79.7248 257.728 83.5768 261.964C88.3714 268.569 91.5674 277.583 90.499 285.633C89.8203 290.159 91.8894 285.898 90.1708 290.279C90.0422 290.571 89.7504 289.3 89.3488 290.472C88.4998 293.156 86.3701 297.881 85.2346 299.615C83.0975 302.984 82.706 303.5 80.5082 306.462C77.4703 310.477 73.2961 314.614 70.0833 318.578C69.4035 319.429 70.809 318.758 69.7988 320.129C68.9948 321.212 67.1216 323.523 66.1691 324.946C65.9626 325.234 65.8062 325.492 65.6902 325.675C65.1913 326.526 64.871 326.006 64.6975 326.141C63.515 327.11 64.1048 330.245 64.8137 331.793C64.9166 331.76 65.0112 331.774 65.0354 331.799C71.124 336.551 84.6931 338.94 95.6581 340.505C104.52 341.627 114.128 342.14 122.68 342.685C126.989 342.96 131.026 343.23 135.031 343.467C140.364 343.781 145.586 343.902 151.161 343.509C152.181 343.434 150.938 342.765 152.175 342.668C165.323 341.636 177.989 338.347 188.983 331.555C189.982 330.938 189.244 332.096 189.932 331.837C190.004 331.81 190.092 331.767 190.199 331.704C197.176 327.835 207.231 318.932 207.841 313.305C209.34 311.498 210.892 309.5 212.357 307.455C213.082 306.441 213.779 305.427 214.394 304.457C214.703 303.968 214.976 303.517 215.2 303.105C215.301 302.927 215.394 302.731 215.425 302.694C215.443 302.69 215.43 302.695 215.425 303.001C215.435 303.112 215.401 303.461 215.649 304.072C215.713 304.222 215.798 304.386 215.91 304.553C216.037 304.745 216.227 304.97 216.445 305.153C216.883 305.533 217.454 305.755 217.893 305.815C217.227 305.644 216.597 305.512 216.002 305.406C213.234 305.088 215.89 304.127 212.436 304.891C211.683 305.121 212.791 305.516 211.7 305.833C207.125 307.18 202.701 310.948 199.93 315.413C199.37 316.315 200.007 316.405 199.921 316.708C199.186 319.164 196.016 322.256 195.525 323.098C191.758 329.304 190.379 334.635 188.718 341.258C188.346 342.806 189.516 341.154 189.193 342.641C187.571 350.326 186.341 358.587 186.384 365.972C186.426 367.589 185.667 366.165 185.66 366.936C185.66 367.639 185.749 368.277 185.868 368.728C186.394 370.178 187.149 370.18 188.452 371.357C188.852 371.664 188.338 371.999 188.389 372.1C189.447 373.794 191.609 372.834 191.994 372.87C197.956 373.315 202.632 373.789 208.948 371.958C209.701 371.72 207.817 371.526 209.915 370.898C211.233 370.493 212.528 370.063 213.853 369.594C226.552 365.084 238.996 357.964 250.045 350.327C251.942 349.006 250.944 350.419 251.098 350.385C253.615 349.755 253.992 347.713 254.541 347.211C258.94 343.243 263.885 340.37 265.732 336.43C273.475 329.53 280.528 321.914 287.143 313.938C296.55 302.578 305.082 290.519 313.544 278.399C313.726 278.135 313.996 278.976 314.357 278.446C318.663 272.067 316.995 272.779 318.418 267.761C318.772 266.505 322.001 263.856 322.262 263.604C323.228 262.702 323.479 264.323 323.752 263.992C325.973 261.218 322.808 260.168 324.965 256.027C325.037 255.9 325.294 256.725 325.528 256.404C326.257 255.407 326.592 254.22 327.316 253.246C328.97 251.019 330.856 250.844 331.817 246.653C331.93 246.121 329.913 246.058 331.739 242.311C332.486 240.823 335.404 234.072 336.28 232.203C337.176 230.344 337.196 231.88 337.276 231.755C340.104 226.897 339.615 228.97 341.735 226.786C343.837 224.579 340.933 224.312 341.039 223.139C341.15 221.969 343.144 218.349 343.681 217.468C344.224 216.593 344.179 217.903 344.591 217.099C347.287 211.73 344.098 214.189 344.282 212.204C344.673 207.533 347.659 204.719 348.941 200.683C349.284 199.594 348.591 200.374 348.802 199.383C349.626 195.465 350.819 193.246 351.148 188.662C351.209 187.9 350.667 184.089 351.944 181.889C352.128 181.577 352.49 182.608 352.872 180.939C352.985 180.441 353.106 179.863 353.226 179.234C353.717 176.692 354.158 173.336 354.224 171.136C354.28 169.114 353.226 171.346 353.708 168.832C353.916 167.713 354.25 169.847 354.595 167.736C354.956 165.65 355.175 160.211 355.163 158.15C355.169 156.096 354.508 157.216 354.467 157.049C354.238 156.032 353.877 152.129 353.858 151.775C353.297 134.356 351.234 118.031 345.046 102.046C344.557 100.799 344.225 101.874 344.144 101.686C342.255 97.513 345.246 100.235 344.63 97.0097C343.513 97.9608 343.063 96.0875 341.634 93.1853C340.937 91.7832 340.789 92.7813 340.681 92.6724C339.005 90.902 339.272 89.0251 339.286 88.5515C339.342 86.8237 337.759 85.7445 337.757 84.5772C337.746 83.4076 339.549 85.1957 338.101 82.4236C337.256 81.8832 337.18 84.5222 335.897 82.5393C331.893 76.1985 325.373 65.0058 320.376 58.5359C319.477 57.3361 318.662 56.2979 317.96 55.4455C313.388 49.9767 311.655 48.4489 308.829 45.4075C303.588 40.0204 304.93 42.6173 301.155 39.9218C297.31 37.3039 300.526 36.9106 300.33 36.0865C300.132 35.2744 299.232 35.2273 298.751 34.4984C298.268 33.7699 299.901 34.596 298.42 33.319C296.941 32.0132 292.06 29.6583 291.188 29.7384C289.35 29.8723 290.684 32.1311 286.668 29.0359C286.435 28.8589 287.569 28.8406 286.658 28.1892C279.389 23.0298 271.068 18.8389 262.881 15.2397C261.754 14.7444 263.029 14.4905 262.373 14.1955C255.484 11.2125 257.588 13.2427 253.338 13.2238C254.723 11.8685 252.901 10.0904 247.365 8.62246C244.031 7.77058 244.426 8.65712 242.159 8.68107C241.485 8.6889 239.225 7.68502 238.727 7.95227C237.276 8.72297 238.666 10.1301 235.071 9.34768C234.622 9.25276 234.096 9.12647 233.478 8.96666C233.232 8.90131 234.132 8.40644 233.273 8.22652C227.697 7.12531 226.856 8.22145 220.806 7.89863C216.066 7.63317 207.59 6.93854 202.17 7.49527C202.084 5.52619 196.91 6.64336 195.135 8.39437C191.661 9.00006 188.001 10.0313 184.718 10.941C183.587 11.2574 184.134 10.4791 183.975 10.4689C181.487 10.317 180.501 12.1288 179.827 12.46C172.457 16.0788 166.113 18.892 160.739 24.752C160.551 24.9681 161.103 26.2413 158.915 26.931C158.767 26.9816 160.239 24.7469 157.521 27.2529C157.284 27.4768 157.026 27.7167 156.751 27.9722C153.9 30.5538 149.403 35.0553 147.236 39.2976C146.635 40.423 145.848 43.6231 143.853 45.3713C143.582 45.606 143.435 45.0895 143.002 45.4079C141.618 46.4427 142.386 47.865 140.501 48.9645C138.613 50.083 136.01 53.2722 134.748 58.5234C134.706 58.6911 135.239 60.2447 134.64 61.7934C133.678 64.248 132.265 67.7492 131.491 70.4084C131.12 71.6823 132.004 71.0552 131.951 71.2794C129.893 79.9011 128.05 85.9501 126.612 95.3911C126.342 97.1377 126.769 102.184 125.88 105.513C124.933 109.192 121.693 105.194 122.325 113.92C122.519 116.236 124.421 118.905 125.206 122.196C125.616 123.909 125.725 125.805 125.146 127.982C126.61 139.93 127.425 151.143 131.024 162.722C131.186 163.246 132.73 164.623 133.035 165.853C133.487 167.688 133.232 168.821 133.559 170.138C134.92 175.636 136.914 180.44 138.62 185.609C139.275 187.569 138.503 187.083 139.306 189.413C140.125 191.757 141.388 193.035 142.273 196.273C142.947 198.726 142.491 201.633 143.675 204.824C145.102 204.344 145.968 206.485 148.051 210.041C148.45 210.717 148.568 209.739 148.781 210.046C149.668 211.312 149.871 212.735 150.773 213.913C150.99 214.196 151.455 213.985 151.658 214.202C153.386 216.028 154.222 220.083 154.374 220.769C154.899 223.165 155.911 224.026 156.641 225.504C156.734 225.689 156.822 225.884 156.906 226.091C157.674 227.985 155.816 225.573 156.861 227.695C159.042 232.118 162.645 237.328 165.791 241.226C167.057 242.789 166.716 241.291 166.91 241.506C169.614 244.549 172.075 248.05 174.667 248.548C174.487 253.022 176.646 250.073 180.929 253.908C181.276 254.2 180.885 255.945 179.229 255.127C177.567 254.298 175.688 252.213 173.564 250.821C173.058 250.524 169.464 249.239 169.078 248.949C165.927 246.751 167.496 244.663 167.461 244.441C167.127 241.87 163.308 239.708 162.56 238.867C159.158 235.166 157.163 231.37 154.722 227.985C154.457 227.616 154.193 227.319 153.932 227.073C152.654 225.889 151.411 225.974 150.59 224.398C147.308 217.968 148.305 214.809 143.711 209.532C142.747 208.396 141.676 210.433 140.897 205.127C140.842 204.788 140.534 200.771 138.976 199.028C138.779 198.808 138.301 199.008 138.125 198.682C136.956 196.493 136.752 194.809 135.641 192.373C134.528 189.923 133.182 186.982 132.385 184.011C131.903 182.229 132.108 179.677 132.076 178.771C131.988 176.2 130.173 173.959 130.548 172.256C130.929 170.544 132.942 173.102 132.385 169.076C131.048 169.286 129.626 169.315 128.256 169.432C125.975 160.762 124.54 152.048 123.127 143.16C122.953 142.057 122.406 143.295 122.203 142.111C121.362 137.106 121.377 132.645 120.794 127.409C120.615 125.798 120.358 124.116 120.104 122.412C119.719 119.826 119.341 117.172 119.23 114.585C120.752 111.965 120.4 105.639 120.937 101.045C121.117 99.4432 121.521 99.581 121.761 98.4555C122.692 94.2186 121.142 96.0775 121.059 94.871C120.795 89.6666 123.881 89.662 124.869 83.81C124.91 83.5126 124.086 79.3749 124.118 78.8198C124.234 75.3326 124.796 78.3904 125.404 76.3475C126.551 72.6128 127.631 70.1319 128.577 65.638C128.848 64.3319 128.932 60.94 130.624 58.7877C130.845 58.5059 131.282 58.8791 131.411 58.6354C133.745 54.2365 132.28 53.4653 132.955 50.6002C133.645 47.712 136.807 44.3023 137.555 43.6998C139.475 42.0834 136.998 45.4522 137.024 45.6208C137.229 47.4177 138.561 44.4984 139.89 42.4405C141.498 42.9739 143.182 40.0678 141.276 40.3175C141.057 40.3536 140.201 42.0523 139.89 42.4405C139.552 39.7786 141.457 36.3049 145.191 33.8499C146.96 32.7383 146.411 34.6298 149.919 29.9148C151.57 27.8092 150.02 27.8188 151.428 25.8412C151.861 25.2452 152.345 24.6564 152.869 24.0789C156.318 20.2391 161.555 17.0351 165.607 14.2786C167.312 13.1206 165.275 13.6637 166.444 12.856C169.577 10.7263 172.746 9.60073 176.096 7.8619C176.403 7.70415 175.365 7.43414 176.45 6.95675C184.715 3.39236 192.456 1.91406 201.593 0.886843C206.006 0.342244 213.941 -0.23694 218.518 0.0995773C224.179 0.422787 230.639 1.69013 236.211 2.8926C238.44 3.36805 240.542 3.82226 242.425 4.16613C246.709 4.97844 245.924 4.14576 247.862 4.16053C251.629 4.18064 257.348 7.59796 258.059 8.11659C258.085 8.12331 254.456 7.12882 256.264 8.05964C257.155 9.08566 258.015 8.10592 258.059 8.11659C258.566 8.4017 265.565 11.097 266.974 11.5892C267.75 11.8305 267.567 11.0814 267.969 11.2199C277.516 14.5397 286.647 19.2464 294.966 25.3056C295.108 25.4184 294.489 25.8409 294.825 26.0975C299.5 29.7232 302.987 31.3861 307.077 34.1806C311.146 36.9873 313.882 39.8677 315.066 42.7553C317.792 45.2516 320.954 49.5319 322.646 52.0649C324.162 54.321 325.371 54.1497 325.745 54.2264C325.786 54.2351 325.817 54.2472 325.836 54.2665C331.689 60.293 333.86 64.7643 338.234 72.2033C340.331 75.7376 344.34 82.851 346.312 86.8553C347.898 90.0007 348.443 92.0809 349.846 95.0136C350.034 95.4107 350.432 94.7743 350.504 94.8901C352.512 98.0132 350.486 96.9233 350.511 97.7148C350.563 100.589 350.666 102.288 352.513 106.529C352.935 107.49 355.887 109.859 356.528 111.727C357.355 114.153 356.37 113.415 357.208 115.949C357.277 116.167 357.729 116.004 358.096 117.618C359.794 125.082 360.887 133.38 361.622 141.277C361.72 142.359 362.348 140.903 362.497 142.473C363.195 149.837 363.249 157.96 362.488 165.115C362.297 166.88 361.839 165.738 361.661 166.112C360.588 168.371 361.648 171.798 361.615 172.347C361.479 175.147 361.206 177.779 360.836 180.345C359.448 189.755 356.989 197.816 354.567 207.927C354.415 208.625 354.205 214.381 352.222 216.332C352.09 216.47 350.109 218.374 350.23 220.687C350.236 220.832 351.367 219.614 350.423 222.097C349.479 224.576 348.405 228.74 346.381 231.854C345.74 232.846 343.551 234.87 343.152 238.415C343.144 238.641 343.141 244.445 340.891 245.509C340.52 245.679 339.137 244.693 338.197 248.752C338.017 249.529 338.963 248.408 338.296 250.368C337.27 253.376 335.02 256.921 333.906 260.706C333.715 261.368 333.394 264.462 331.526 266.089C331.234 266.343 331.065 265.471 330.429 266.513C327.404 271.46 324.706 276.902 321.31 281.72C320.105 283.426 319.886 282.045 318.539 283.754C317.198 285.458 314.66 288.992 313.753 291.115C312.851 293.233 315.435 291.972 313.641 294.867C308.04 303.849 301.503 312.139 294.567 320.094C291.762 323.31 288.901 326.46 286.004 329.582C284.49 331.203 286.115 330.217 283.911 332.596C275.888 341.535 260.424 355.78 250.978 360.75C243.531 364.788 251.899 358.266 246.395 361.562C243.74 363.133 241.796 366.301 241.151 366.748C235.094 370.994 230.162 372.692 224.107 375.56C222.844 376.145 224.365 376.248 223.288 376.733C221.308 377.622 219.207 378.364 217.105 379.026C215.248 379.612 213.397 380.136 211.626 380.657C209.904 381.155 210.362 381.575 208.736 381.932C204.825 382.755 201.21 383.147 197.012 382.792C196.641 382.755 199.153 382.046 196.022 382.088C193.452 382.058 190.491 381.76 187.154 380.556C183.918 379.443 179.702 376.609 178.035 372.104C177.717 371.286 177.448 370.754 177.185 370.179C176.718 369.411 176.17 368.459 176.596 365.91C176.757 365.171 178.129 366.041 176.911 362.003C176.655 361.331 175.39 354.462 176.954 351.388C177.348 350.551 178.813 348.613 178.955 346.758C178.97 346.505 178.16 347.391 178.37 345.86C179.144 340.442 180.587 334.912 182.199 329.471C182.635 328.016 181.269 329.95 181.957 327.775C183.847 321.802 187.353 314.539 191.458 309.279C192.975 307.357 192.407 309.05 192.559 308.942C195.032 307.275 195.233 305.19 195.879 304.41C199.937 299.688 204.984 297.139 211.353 295.856C213.137 295.547 211.785 295.114 212.137 295.007C215.889 294.118 213.15 295.449 215.507 295.5C216.829 295.576 218.103 295.734 219.438 295.984C221.259 296.131 223.758 297.953 224.448 299.436C225.209 300.792 225.339 301.892 225.387 302.668C225.433 303.702 225.27 304.46 225.186 304.838C225.094 305.237 224.986 305.588 224.887 305.876C224.803 306.119 224.715 306.346 224.625 306.566C224.283 307.387 223.985 307.958 223.667 308.556C223.063 309.673 222.48 310.634 221.874 311.601C220.691 313.481 219.484 315.249 218.295 316.908C217.194 318.43 219.043 317.18 218.041 318.535C212.057 326.524 204.811 333.97 196.3 339.499C195.878 339.771 195.61 339.888 195.441 339.918C194.971 340 195.256 339.409 194.964 339.494C192.273 340.276 189.504 343.262 188.727 343.791C185.292 346.198 183.579 346.406 180.229 347.836C166.445 353.755 148.822 354.751 134.605 353.894C131.736 353.74 128.987 353.573 126.393 353.402C106.163 351.849 90.7944 350.621 70.9789 345.542C69.7009 345.162 70.7655 346.267 69.6658 345.942C67.3519 345.229 65.038 344.419 62.5034 343.089C60.1742 341.536 56.3863 340.522 54.5318 333.609C53.8164 329.667 53.6684 324.039 56.7729 319.113C60.7962 312.996 64.8824 309.105 68.4614 304.615C69.1318 303.793 67.6172 304.503 68.6586 303.179C70.7942 300.46 73.3373 297.16 75.1292 294.582C76.0023 293.318 75.4801 295.405 76.3461 294.109C78.3453 291.088 79.7617 287.634 80.0674 284.433C80.178 283.084 79.2418 284.994 79.4066 283.301C79.7972 278.361 77.9445 273.517 74.4451 268.765C74.8967 269.362 75.3211 269.62 75.4548 269.694C75.6067 269.773 75.5313 269.715 75.3499 269.653C74.9678 269.513 74.1706 269.329 73.2991 269.194C71.505 268.913 69.3342 268.739 67.1256 268.575C62.6696 268.255 57.9364 267.947 53.1684 267.373C52.005 267.232 51.0969 265.708 48.6084 265.778C48.388 266.168 48.3559 266.645 48.2363 267.071C38.483 266.314 28.6806 264.593 19.1916 261.617C14.8176 260.227 10.3166 258.23 6.30304 254.507C2.3559 250.957 -1.09295 244.456 0.324909 237.747C1.7537 230.779 4.05392 224.235 6.88258 217.91C7.32692 216.931 5.84657 218.315 6.71856 216.404C11.7891 205.477 18.3263 195.384 27.6498 187.116C28.5851 186.308 29.0519 187.699 31.5353 185.108C31.9419 184.632 35.9243 180.984 36.8896 179.917C37.0148 179.766 35.8334 179.866 37.2153 178.783C45.2983 172.479 55.1055 167.594 64.8931 164.875C66.4564 164.443 65.0197 165.612 66.1303 165.316C67.2098 165.032 68.3106 164.744 69.4322 164.459C76.7215 162.458 85.7528 162.214 92.5372 165.374C97.6455 167.858 95.189 168.194 97.161 170.48C97.4446 170.788 100.169 172.482 99.9157 173.149C99.3155 174.775 97.1008 175.546 96.6183 177.38C96.5198 177.742 99.8536 179.57 97.4848 179.053C97.3235 178.996 94.9089 177.79 94.1952 177.771C93.7041 177.742 94.041 178.723 93.1361 178.531C92.2437 178.354 91.6599 177.388 90.2366 177.124C88.8286 176.916 89.0961 177.773 86.6125 177.097ZM329.766 63.6698C330.809 66.3141 333.02 65.3126 330.827 63.1501C330.717 63.0472 329.71 63.5342 329.766 63.6698ZM126.498 151.72C126.857 148.004 124.936 145.84 124.565 148.489C124.211 151.154 126.397 152.86 126.498 151.72ZM137.007 187.365C136.431 183.153 133.003 183.594 135.117 187.64C135.24 187.877 137.042 187.613 137.007 187.365ZM84.855 166.631C84.8959 166.648 87.1944 167.082 87.2525 167.083C88.6684 166.566 83.9574 165.659 84.855 166.631ZM152.388 220.761C152.172 219.399 150.002 216.305 150.229 218.006C150.398 219.371 152.65 222.467 152.388 220.761ZM350.1 200.87C350.056 200.903 349.616 202.423 349.817 202.445C350.475 202.511 350.864 200.329 350.1 200.87ZM196.936 262.416C193.69 261.551 191.248 260.082 189.742 258.974C187.543 257.3 187.437 256.331 190.404 257.392C191.149 257.65 192.075 258.02 193.231 258.498C194.868 259.194 189.336 257.93 191.347 258.997C195.17 260.935 198.095 260.291 202.07 261.159C202.452 261.236 201.37 261.74 200.069 262.083C198.758 262.432 197.186 262.49 196.918 262.416C196.924 262.416 196.93 262.416 196.936 262.416ZM328.309 66.6097C328.316 66.6693 329.513 68.4925 329.565 68.5218C330.862 69.0849 328.441 65.3898 328.309 66.6097ZM311.009 283.677C310.895 283.747 308.093 287.945 308.046 288.112C307.642 291.013 313.338 282.497 311.009 283.677ZM202.079 7.4533C199.836 8.46627 197.154 8.97876 195.145 8.39332C197.436 8.00554 199.75 7.66594 202.079 7.4533Z" fill="#FC4C02"/>
</svg>
